<svg xmlns="http://www.w3.org/2000/svg" width="34" height="34" fill="none" viewBox="0 0 34 34"><rect width="34" height="34" fill="#2D365C" rx="17"/><path fill="#fff" fill-rule="evenodd" d="M17.0006 24.0497C13.1073 24.0497 9.95108 20.8935 9.95108 17.0002C9.95108 13.1068 13.1073 9.95059 17.0006 9.95059C20.894 9.95059 24.0502 13.1068 24.0502 17.0002C24.0502 20.8935 20.894 24.0497 17.0006 24.0497ZM8.33203 17.0002C8.33203 12.2126 12.2131 8.33154 17.0006 8.33154C21.7882 8.33154 25.6693 12.2126 25.6693 17.0002C25.6693 19.1028 24.9207 21.0305 23.6755 22.5315L25.3514 24.2078C25.6676 24.524 25.6675 25.0366 25.3513 25.3527C25.0352 25.6688 24.5226 25.6687 24.2065 25.3526L22.5305 23.6762C21.0298 24.9207 19.1026 25.6688 17.0006 25.6688C12.2131 25.6688 8.33203 21.7877 8.33203 17.0002Z" clip-rule="evenodd"/></svg>