<svg width="1448" height="363" viewBox="0 0 1448 363" fill="none" xmlns="http://www.w3.org/2000/svg">
<path d="M724 196L724 -577.458L724 -862" stroke="url(#paint0_linear)" stroke-dasharray="2 2"/>
<path d="M-282 804C-259.32 615.312 -99.2894 236.55 359.388 231H544" stroke="#EA7B7B" stroke-dasharray="2 2"/>
<path d="M-282 -425C-259.348 -213.591 -99.5173 210.782 358.588 217H496" stroke="#EA7B7B" stroke-dasharray="2 2"/>
<path d="M1730 804C1707.32 615.312 1547.29 236.55 1088.61 231H904" stroke="#EA7B7B" stroke-dasharray="2 2"/>
<path d="M1730 -425C1707.35 -213.591 1547.52 210.782 1089.41 217H952" stroke="#EA7B7B" stroke-dasharray="2 2"/>
<path d="M497.489 258.5H950.872C953.98 258.5 956.929 259.877 958.924 262.261L1017.5 332.261C1023.22 339.096 1018.36 349.5 1009.45 349.5H437.828C428.872 349.5 424.027 339.006 429.837 332.189L489.498 262.189C491.493 259.848 494.414 258.5 497.489 258.5Z" fill="url(#paint1_linear)" style="transform: translateY(-20px);" stroke="url(#paint2_linear)"/>
<g style="transform: translateY(-20px);" filter="url(#filter0_i)">
<path d="M922.234 328.552C920.919 328.552 919.692 328.326 918.554 327.873C917.424 327.406 916.294 326.603 915.165 325.464C914.052 324.324 912.922 322.762 911.775 320.776C910.629 318.79 909.954 317.228 909.752 316.088C909.566 314.949 909.773 314.154 910.372 313.701C910.979 313.234 911.94 313 913.255 313C914.57 313 915.793 313.234 916.922 313.701C918.069 314.168 919.199 314.971 920.312 316.11C921.433 317.235 922.567 318.79 923.714 320.776C924.86 322.762 925.526 324.324 925.712 325.464C925.906 326.588 925.699 327.384 925.092 327.851C924.502 328.318 923.549 328.552 922.234 328.552ZM920.817 326.099C921.475 326.099 921.884 325.945 922.044 325.639C922.213 325.317 922.171 324.836 921.918 324.193C921.682 323.551 921.239 322.667 920.59 321.543L919.705 320.009C919.055 318.885 918.478 318.001 917.972 317.359C917.483 316.716 916.973 316.242 916.442 315.935C915.919 315.614 915.329 315.453 914.671 315.453C914.014 315.453 913.601 315.614 913.432 315.935C913.272 316.242 913.31 316.716 913.546 317.359C913.799 318.001 914.25 318.885 914.899 320.009L915.784 321.543C916.433 322.667 917.002 323.551 917.491 324.193C917.997 324.836 918.512 325.317 919.034 325.639C919.566 325.945 920.16 326.099 920.817 326.099Z" fill="#CE6060"/>
<path d="M939.5 328.552C937.511 328.552 935.744 328.15 934.202 327.347C932.65 326.53 931.474 325.427 930.673 324.04L930.446 323.645H933.961L934.227 324.105C934.598 324.748 935.112 325.244 935.77 325.595C936.419 325.931 937.173 326.099 938.033 326.099C938.809 326.099 939.328 325.931 939.589 325.595C939.842 325.244 939.77 324.726 939.374 324.04C938.91 323.237 938.333 322.674 937.641 322.353C936.95 322.032 936.183 321.871 935.34 321.871H934.05L932.633 319.418H933.999C934.691 319.418 935.154 319.243 935.39 318.892C935.618 318.527 935.534 318.001 935.137 317.315C934.775 316.687 934.311 316.22 933.746 315.913C933.198 315.607 932.579 315.453 931.887 315.453C931.162 315.453 930.69 315.614 930.471 315.935C930.243 316.242 930.306 316.702 930.661 317.315L930.901 317.731H927.385L927.031 317.118C926.559 316.3 926.39 315.585 926.525 314.971C926.652 314.343 927.048 313.862 927.714 313.526C928.388 313.175 929.282 313 930.395 313C932.165 313 933.78 313.358 935.239 314.073C936.714 314.789 937.831 315.804 938.59 317.118C939.07 317.95 939.222 318.637 939.045 319.177C938.877 319.703 938.463 320.141 937.806 320.491L937.856 320.579C938.944 320.827 939.947 321.265 940.866 321.893C941.785 322.521 942.519 323.31 943.067 324.259C943.573 325.135 943.754 325.902 943.61 326.559C943.476 327.201 943.054 327.698 942.346 328.048C941.629 328.384 940.681 328.552 939.5 328.552Z" fill="#CE6060"/>
<path d="M956.388 328.552C954.566 328.552 952.952 328.121 951.544 327.26C950.153 326.398 949.048 325.259 948.231 323.843H951.746C952.176 324.587 952.665 325.157 953.213 325.551C953.753 325.931 954.385 326.121 955.11 326.121C955.835 326.121 956.278 325.953 956.438 325.617C956.607 325.266 956.573 324.784 956.337 324.171C956.101 323.558 955.692 322.733 955.11 321.696C954.899 322.032 954.55 322.317 954.061 322.55C953.58 322.769 952.977 322.879 952.252 322.879C950.532 322.879 948.985 322.433 947.611 321.543C946.254 320.652 945.141 319.454 944.272 317.95C943.699 316.957 943.45 316.088 943.526 315.344C943.594 314.584 943.952 314.008 944.601 313.613C945.259 313.204 946.144 313 947.257 313C949.365 313 951.283 313.562 953.011 314.687C954.731 315.796 956.358 317.68 957.892 320.338C959.064 322.368 959.756 323.989 959.966 325.201C960.177 326.413 959.975 327.274 959.359 327.785C958.744 328.296 957.753 328.552 956.388 328.552ZM951.734 320.491C952.543 320.491 953.028 320.265 953.188 319.812C953.348 319.36 953.201 318.739 952.745 317.95C952.315 317.206 951.759 316.607 951.076 316.154C950.385 315.687 949.634 315.453 948.825 315.453C948.016 315.453 947.543 315.687 947.409 316.154C947.265 316.607 947.409 317.206 947.839 317.95C948.294 318.739 948.854 319.36 949.521 319.812C950.187 320.265 950.924 320.491 951.734 320.491Z" fill="#CE6060"/>
<path d="M967.331 327.501C966.85 326.668 966.631 325.924 966.673 325.266C966.707 324.595 966.884 324.011 967.204 323.514C967.542 323.018 968.026 322.455 968.659 321.827C969.19 321.258 969.59 320.783 969.86 320.404C970.147 320.024 970.328 319.608 970.404 319.155C970.497 318.586 970.336 317.943 969.923 317.228C969.654 316.76 969.215 316.351 968.608 316.001C968.01 315.636 967.339 315.453 966.597 315.453C964.928 315.453 964.494 316.147 965.295 317.534L965.813 318.432H962.373C962.154 318.169 961.952 317.877 961.766 317.556C960.89 316.037 960.814 314.898 961.539 314.139C962.281 313.38 963.545 313 965.333 313C966.901 313 968.258 313.263 969.405 313.789C970.551 314.314 971.441 314.906 972.073 315.563C972.722 316.22 973.211 316.833 973.54 317.403C974.122 318.41 974.379 319.308 974.312 320.097C974.236 320.871 973.991 321.528 973.578 322.068C973.173 322.594 972.621 323.171 971.921 323.799C971.39 324.281 971.011 324.675 970.783 324.982C970.623 325.201 970.535 325.412 970.518 325.617H978.384L979.927 328.289H967.786L967.331 327.501Z" fill="#CE6060"/>
<path d="M852.613 321.446C853.486 322.958 852.778 324.184 851.032 324.184C849.286 324.184 847.163 322.958 846.29 321.446C845.417 319.934 846.125 318.708 847.871 318.708C849.617 318.708 851.74 319.934 852.613 321.446Z" fill="#CE6060"/>
<path d="M787.198 321.444C788.071 322.956 787.363 324.182 785.617 324.182C783.871 324.182 781.748 322.956 780.875 321.444C780.002 319.931 780.71 318.706 782.456 318.706C784.202 318.706 786.325 319.931 787.198 321.444Z" fill="#CE6060"/>
<path d="M866.84 321.444C867.713 322.957 867.006 324.182 865.259 324.182C863.513 324.182 861.39 322.957 860.517 321.444C859.644 319.932 860.352 318.706 862.098 318.706C863.844 318.706 865.967 319.932 866.84 321.444Z" fill="#CE6060"/>
<path d="M801.428 321.444C802.301 322.957 801.594 324.182 799.847 324.182C798.101 324.182 795.978 322.957 795.105 321.444C794.232 319.932 794.94 318.706 796.686 318.706C798.432 318.706 800.555 319.932 801.428 321.444Z" fill="#CE6060"/>
<path d="M881.067 321.445C881.94 322.957 881.232 324.183 879.486 324.183C877.74 324.183 875.617 322.957 874.743 321.445C873.87 319.933 874.578 318.707 876.324 318.707C878.07 318.707 880.194 319.933 881.067 321.445Z" fill="#CE6060"/>
<path d="M815.655 321.445C816.528 322.957 815.82 324.183 814.074 324.183C812.328 324.183 810.205 322.957 809.332 321.445C808.458 319.933 809.166 318.707 810.912 318.707C812.658 318.707 814.782 319.933 815.655 321.445Z" fill="#CE6060"/>
<path d="M895.296 321.447C896.169 322.959 895.461 324.185 893.715 324.185C891.969 324.185 889.846 322.959 888.973 321.447C888.1 319.935 888.808 318.709 890.554 318.709C892.3 318.709 894.423 319.935 895.296 321.447Z" fill="#CE6060"/>
<path d="M829.882 321.445C830.755 322.957 830.047 324.183 828.301 324.183C826.555 324.183 824.432 322.957 823.559 321.445C822.686 319.933 823.393 318.707 825.139 318.707C826.886 318.707 829.009 319.933 829.882 321.445Z" fill="#CE6060"/>
</g>
<defs>
<filter id="filter0_i" x="780.501" y="313" width="199.426" height="16.552" filterUnits="userSpaceOnUse" color-interpolation-filters="sRGB">
<feFlood flood-opacity="0" result="BackgroundImageFix"/>
<feBlend mode="normal" in="SourceGraphic" in2="BackgroundImageFix" result="shape"/>
<feColorMatrix in="SourceAlpha" type="matrix" values="0 0 0 0 0 0 0 0 0 0 0 0 0 0 0 0 0 0 127 0" result="hardAlpha"/>
<feOffset dy="1"/>
<feGaussianBlur stdDeviation="0.5"/>
<feComposite in2="hardAlpha" operator="arithmetic" k2="-1" k3="1"/>
<feColorMatrix type="matrix" values="0 0 0 0 0.280972 0 0 0 0 0.354025 0 0 0 0 0.495833 0 0 0 0.19 0"/>
<feBlend mode="normal" in2="shape" result="effect1_innerShadow"/>
</filter>
<linearGradient id="paint0_linear" x1="724" y1="14" x2="723.5" y2="-862" gradientUnits="userSpaceOnUse">
<stop stop-color="#E77877"/>
<stop offset="1" stop-color="#E77877" stop-opacity="0"/>
</linearGradient>
<linearGradient id="paint1_linear" x1="710.426" y1="258" x2="720.879" y2="380.799" gradientUnits="userSpaceOnUse">
<stop stop-color="#FF9191"/>
<stop offset="1" stop-color="#C25252"/>
</linearGradient>
<linearGradient id="paint2_linear" x1="1004.57" y1="342.887" x2="801.354" y2="62.8153" gradientUnits="userSpaceOnUse">
<stop stop-color="#FFA7A7"/>
<stop offset="1" stop-color="#934343"/>
</linearGradient>
</defs>
</svg>
