<svg xmlns="http://www.w3.org/2000/svg" fill="none" preserveAspectRatio="xMinYMin slice" viewBox="0 0 1264 450"><mask id="mask0" width="1264" height="450" x="0" y="0"
                                                                                                                      maskUnits="userSpaceOnUse"><rect width="1264" height="450" fill="#C4C4C4"/></mask><g mask="url(#mask0)"><g opacity=".7"><path fill="#DF6461" d="M1005.51 272.244C1003.65 273.315 1000.64 273.315 998.788 272.244C997.93 271.748 997.468 271.11 997.405 270.461C997.331 269.708 997.181 268.66 998.178 268.085C1000.03 267.014 1004.14 266.854 1006 267.925C1007.47 269.09 1007.36 271.173 1005.51 272.244ZM1000.04 269.09C998.882 269.761 998.882 270.849 1000.04 271.519C1001.21 272.19 1003.09 272.19 1004.25 271.519C1005.41 270.849 1005.41 269.761 1004.25 269.09C1003.09 268.42 1001.21 268.42 1000.04 269.09Z"/><path fill="url(#paint0_linear)" d="M1005.51 271.313C1003.65 272.384 1000.64 272.384 998.79 271.313C996.935 270.242 996.935 268.506 998.79 267.435C1000.64 266.364 1003.65 266.364 1005.51 267.435C1007.36 268.506 1007.36 270.242 1005.51 271.313Z"/></g><path stroke="url(#paint1_linear)" stroke-dasharray="1.92 1.92" stroke-width=".959" d="M407.656 440.363L842.566 171.361" opacity=".7"/><path fill="#DF6461" d="M846.252 173.153C844.397 174.224 841.389 174.224 839.534 173.153C838.676 172.657 838.214 172.019 838.151 171.37C838.077 170.617 837.928 169.569 838.924 168.994C840.778 167.923 844.889 167.763 846.744 168.834C848.212 170 848.106 172.082 846.252 173.153ZM840.789 170C839.628 170.67 839.628 171.758 840.789 172.428C841.951 173.099 843.835 173.099 844.997 172.428C846.158 171.758 846.158 170.67 844.997 170C843.835 169.329 841.951 169.329 840.789 170Z"/><path fill="url(#paint2_linear)" d="M846.253 172.222C844.398 173.293 841.391 173.293 839.536 172.222C837.681 171.151 837.681 169.415 839.536 168.344C841.391 167.273 844.398 167.273 846.253 168.344C848.108 169.415 848.108 171.151 846.253 172.222Z"/><path stroke="url(#paint3_linear)" stroke-dasharray="1.92 1.92" stroke-width=".959" d="M248.402 341.272L683.312 72.271" opacity=".7"/><path fill="#DF6461" d="M686.998 74.0626C685.143 75.1334 682.135 75.1334 680.281 74.0626C679.422 73.5668 678.961 72.9284 678.897 72.2795C678.823 71.5268 678.674 70.479 679.67 69.9039C681.525 68.8331 685.635 68.6729 687.49 69.7438C688.958 70.9093 688.853 72.9918 686.998 74.0626ZM681.536 70.9093C680.374 71.58 680.374 72.6674 681.536 73.3381C682.697 74.0088 684.581 74.0088 685.743 73.3381C686.904 72.6674 686.904 71.58 685.743 70.9093C684.581 70.2386 682.697 70.2386 681.536 70.9093Z"/><path fill="url(#paint4_linear)" d="M686.999 73.1316C685.144 74.2025 682.137 74.2025 680.282 73.1316C678.427 72.0608 678.427 70.3247 680.282 69.2538C682.137 68.183 685.144 68.183 686.999 69.2538C688.854 70.3247 688.854 72.0608 686.999 73.1316Z"/><path stroke="url(#paint5_linear)" stroke-dasharray="1.92 1.92" stroke-width=".959" d="M487.281 488.139L922.191 219.137" opacity=".7"/><path stroke="url(#paint6_linear)" stroke-dasharray="1.92 1.92" stroke-width=".959" d="M566.281 540.139L1001.19 271.137" opacity=".3"/><path fill="#DF6461" d="M925.877 220.929C924.022 222 921.014 222 919.159 220.929C918.301 220.433 917.839 219.795 917.776 219.146C917.702 218.393 917.553 217.345 918.549 216.77C920.403 215.699 924.514 215.539 926.369 216.61C927.837 217.776 927.731 219.858 925.877 220.929ZM920.414 217.776C919.253 218.446 919.253 219.534 920.414 220.204C921.576 220.875 923.46 220.875 924.622 220.204C925.783 219.534 925.783 218.446 924.622 217.776C923.46 217.105 921.576 217.105 920.414 217.776Z"/><path fill="url(#paint7_linear)" d="M925.878 219.998C924.023 221.069 921.016 221.069 919.161 219.998C917.306 218.927 917.306 217.191 919.161 216.12C921.016 215.049 924.023 215.049 925.878 216.12C927.733 217.191 927.733 218.927 925.878 219.998Z"/><path stroke="url(#paint8_linear)" stroke-dasharray="1.92 1.92" stroke-width=".959" d="M328.031 389.048L762.941 120.047" opacity=".7"/><path fill="#DF6461" d="M766.627 121.838C764.772 122.909 761.764 122.909 759.909 121.838C759.051 121.343 758.589 120.704 758.526 120.055C758.452 119.303 758.303 118.255 759.299 117.68C761.153 116.609 765.264 116.449 767.119 117.52C768.587 118.685 768.481 120.768 766.627 121.838ZM761.164 118.685C760.003 119.356 760.003 120.443 761.164 121.114C762.326 121.785 764.21 121.785 765.372 121.114C766.533 120.443 766.533 119.356 765.372 118.685C764.21 118.015 762.326 118.015 761.164 118.685Z"/><path fill="url(#paint9_linear)" d="M766.628 120.908C764.773 121.978 761.766 121.978 759.911 120.908C758.056 119.837 758.056 118.101 759.911 117.03C761.766 115.959 764.773 115.959 766.628 117.03C768.483 118.101 768.483 119.837 766.628 120.908Z"/><path stroke="url(#paint10_linear)" stroke-dasharray="1.92 1.92" stroke-width=".959" d="M168.777 289.958L603.687 20.9561" opacity=".7"/><path fill="#DF6461" d="M607.373 22.7477C605.518 23.8185 602.51 23.8185 600.656 22.7477C599.797 22.2519 599.336 21.6135 599.272 20.9645C599.198 20.2118 599.049 19.164 600.045 18.589C601.9 17.5182 606.01 17.358 607.865 18.4288C609.333 19.5944 609.228 21.6768 607.373 22.7477ZM601.911 19.5944C600.749 20.2651 600.749 21.3525 601.911 22.0231C603.072 22.6938 604.956 22.6938 606.118 22.0231C607.279 21.3525 607.279 20.2651 606.118 19.5944C604.956 18.9237 603.072 18.9237 601.911 19.5944Z"/><path fill="url(#paint11_linear)" d="M607.374 21.8167C605.519 22.8875 602.512 22.8875 600.657 21.8167C598.802 20.7459 598.802 19.0097 600.657 17.9389C602.512 16.8681 605.519 16.8681 607.374 17.9389C609.229 19.0097 609.229 20.7459 607.374 21.8167Z"/><path stroke="url(#paint12_linear)" stroke-dasharray="1.92 1.92" stroke-width=".959" d="M724.609 481.945L289.7 212.944" opacity=".7"/><path fill="#DF6461" d="M286.014 214.735C287.869 215.806 290.876 215.806 292.731 214.735C293.59 214.24 294.051 213.601 294.115 212.952C294.188 212.2 294.338 211.152 293.342 210.577C291.487 209.506 287.376 209.346 285.521 210.417C284.053 211.582 284.159 213.665 286.014 214.735ZM291.476 211.582C292.638 212.253 292.638 213.34 291.476 214.011C290.314 214.682 288.431 214.682 287.269 214.011C286.107 213.34 286.107 212.253 287.269 211.582C288.431 210.911 290.314 210.911 291.476 211.582Z"/><path fill="url(#paint13_linear)" d="M286.013 213.804C287.867 214.875 290.875 214.875 292.73 213.804C294.585 212.734 294.585 210.998 292.73 209.927C290.875 208.856 287.867 208.856 286.013 209.927C284.158 210.998 284.158 212.734 286.013 213.804Z"/><path stroke="url(#paint14_linear)" stroke-dasharray="1.92 1.92" stroke-width=".959" d="M883.863 382.855L448.954 113.854" opacity=".7"/><path fill="#DF6461" d="M445.268 115.645C447.123 116.716 450.13 116.716 451.985 115.645C452.844 115.149 453.305 114.511 453.369 113.862C453.442 113.109 453.592 112.061 452.596 111.486C450.741 110.416 446.63 110.255 444.775 111.326C443.307 112.492 443.413 114.574 445.268 115.645ZM450.73 112.492C451.892 113.163 451.892 114.25 450.73 114.921C449.568 115.591 447.685 115.591 446.523 114.921C445.361 114.25 445.361 113.163 446.523 112.492C447.685 111.821 449.568 111.821 450.73 112.492Z"/><path fill="url(#paint15_linear)" d="M445.263 114.714C447.117 115.785 450.125 115.785 451.98 114.714C453.835 113.643 453.835 111.907 451.98 110.836C450.125 109.766 447.117 109.766 445.263 110.836C443.408 111.907 443.408 113.643 445.263 114.714Z"/><path stroke="url(#paint16_linear)" stroke-dasharray="1.92 1.92" stroke-width=".959" d="M804.234 430.631L369.325 161.629" opacity=".7"/><path fill="#DF6461" d="M365.639 163.421C367.494 164.492 370.501 164.492 372.356 163.421C373.215 162.925 373.676 162.287 373.74 161.638C373.813 160.885 373.963 159.837 372.967 159.262C371.112 158.191 367.001 158.031 365.146 159.102C363.678 160.268 363.784 162.35 365.639 163.421ZM371.101 160.268C372.263 160.938 372.263 162.026 371.101 162.696C369.939 163.367 368.056 163.367 366.894 162.696C365.732 162.026 365.732 160.938 366.894 160.268C368.056 159.597 369.939 159.597 371.101 160.268Z"/><path fill="url(#paint17_linear)" d="M365.638 162.49C367.492 163.561 370.5 163.561 372.355 162.49C374.21 161.419 374.21 159.683 372.355 158.612C370.5 157.541 367.492 157.541 365.638 158.612C363.783 159.683 363.783 161.419 365.638 162.49Z"/><path stroke="url(#paint18_linear)" stroke-dasharray="1.92 1.92" stroke-width=".959" d="M963.488 331.54L528.579 62.5386" opacity=".7"/><path fill="#DF6461" d="M524.893 64.3302C526.748 65.401 529.755 65.401 531.61 64.3302C532.469 63.8344 532.93 63.196 532.994 62.5471C533.067 61.7943 533.217 60.7465 532.221 60.1715C530.366 59.1007 526.255 58.9405 524.4 60.0113C522.932 61.1769 523.038 63.2594 524.893 64.3302ZM530.355 61.1769C531.517 61.8476 531.517 62.935 530.355 63.6057C529.193 64.2764 527.31 64.2764 526.148 63.6057C524.986 62.935 524.986 61.8476 526.148 61.1769C527.31 60.5062 529.193 60.5062 530.355 61.1769Z"/><path fill="url(#paint19_linear)" d="M524.891 63.3992C526.746 64.47 529.754 64.47 531.609 63.3992C533.463 62.3284 533.463 60.5922 531.609 59.5214C529.754 58.4506 526.746 58.4506 524.891 59.5214C523.037 60.5922 523.037 62.3284 524.891 63.3992Z"/><path stroke="url(#paint20_linear)" stroke-dasharray="1.92 1.92" stroke-width=".959" d="M1041.63 291.727L606.723 22.7256" opacity=".7"/><g filter="url(#filter0_i)"><path fill="#F1F0F0" d="M619.177 108.309C620.257 107.685 622.009 107.685 623.089 108.309L651.399 124.652C652.034 125.019 652.321 125.54 652.17 126.051L628.232 206.814C627.516 209.209 625.624 213.563 622.555 219.874C622.384 220.226 622.749 220.59 623.363 220.678C623.765 220.736 624.19 220.662 624.468 220.484L636.218 212.961L718.336 165.554C719.417 164.93 721.169 164.93 722.249 165.554L749.615 181.352C750.695 181.976 750.695 182.987 749.615 183.611L601.349 269.204C600.269 269.828 598.517 269.828 597.437 269.204L569.129 252.862C568.493 252.495 568.206 251.972 568.359 251.461L592.738 170.187C593.871 166.427 595.749 162.158 598.373 157.38C598.564 157.034 598.21 156.666 597.6 156.578C597.203 156.52 596.783 156.597 596.514 156.775C590.829 160.545 586.76 163.137 584.308 164.552L502.189 211.959C501.109 212.583 499.357 212.583 498.277 211.959L470.911 196.161C469.83 195.537 469.83 194.526 470.911 193.902L619.177 108.309Z"/></g><path stroke="url(#paint21_linear)" stroke-opacity=".9" stroke-width=".753" d="M619.503 108.497C620.403 107.977 621.863 107.977 622.763 108.497L651.073 124.84C651.602 125.146 651.842 125.58 651.716 126.006L627.777 206.768C627.777 206.769 627.777 206.769 627.777 206.769C627.066 209.149 625.18 213.49 622.111 219.802C621.87 220.298 622.385 220.812 623.251 220.937C623.819 221.019 624.418 220.913 624.81 220.662L636.552 213.144L718.662 165.742C719.563 165.222 721.023 165.222 721.923 165.742L749.289 181.54C750.189 182.06 750.189 182.903 749.289 183.422L601.023 269.016C600.123 269.536 598.663 269.536 597.763 269.016L569.455 252.674C568.925 252.368 568.686 251.932 568.814 251.506L593.192 170.233C594.321 166.487 596.193 162.23 598.813 157.46C599.083 156.969 598.582 156.445 597.712 156.319C597.146 156.238 596.549 156.347 596.167 156.6C590.481 160.37 586.421 162.956 583.982 164.364L501.863 211.771C500.963 212.291 499.503 212.291 498.603 211.771L471.237 195.973C470.337 195.453 470.337 194.61 471.237 194.091L619.503 108.497Z"/><g filter="url(#filter1_f)"><path fill="#000" fill-opacity=".11" d="M649.294 69.9086C650.374 69.2849 652.126 69.2849 653.206 69.9086L681.517 86.2522C682.151 86.6186 682.439 87.1401 682.287 87.6509L658.349 168.414C657.633 170.809 655.741 175.163 652.672 181.474C652.501 181.826 652.867 182.19 653.48 182.278C653.882 182.337 654.307 182.262 654.585 182.084L666.335 174.561L748.454 127.154C749.534 126.53 751.286 126.53 752.366 127.154L779.732 142.952C780.813 143.576 780.813 144.587 779.732 145.211L631.467 230.805C630.386 231.428 628.634 231.428 627.554 230.805L599.246 214.462C598.61 214.095 598.323 213.572 598.476 213.061L622.855 131.787C623.988 128.027 625.867 123.758 628.491 118.98C628.681 118.634 628.327 118.266 627.717 118.178C627.32 118.12 626.9 118.197 626.632 118.375C620.946 122.145 616.877 124.737 614.426 126.152L532.307 173.56C531.226 174.183 529.475 174.183 528.394 173.56L501.028 157.761C499.948 157.137 499.948 156.126 501.028 155.502L649.294 69.9086Z"/><path stroke="url(#paint22_linear)" stroke-opacity=".9" stroke-width=".753" d="M649.62 70.0969C650.52 69.5771 651.98 69.5771 652.88 70.0969L681.191 86.4404C681.719 86.7458 681.959 87.1803 681.833 87.606L657.894 168.369C657.894 168.369 657.894 168.369 657.894 168.369C657.183 170.749 655.298 175.09 652.228 181.402C651.987 181.898 652.502 182.412 653.368 182.537C653.936 182.619 654.536 182.513 654.927 182.262L666.669 174.744L748.78 127.342C749.68 126.822 751.14 126.822 752.04 127.342L779.406 143.14C780.307 143.66 780.307 144.503 779.406 145.023L631.14 230.616C630.24 231.136 628.78 231.136 627.88 230.616L599.572 214.274C599.042 213.968 598.803 213.532 598.931 213.106L623.31 131.833C624.438 128.087 626.31 123.83 628.93 119.061C629.2 118.569 628.699 118.045 627.829 117.919C627.263 117.838 626.666 117.947 626.284 118.2C620.598 121.97 616.538 124.556 614.099 125.964L531.981 173.371C531.08 173.891 529.621 173.891 528.72 173.371L501.354 157.573C500.454 157.053 500.454 156.21 501.354 155.691L649.62 70.0969Z"/></g><path fill="#F2F2F2" stroke="#F1F1F1" stroke-width=".753" d="M645.896 94.9384L645.894 94.9425L621.564 168.773C621.527 168.888 621.508 169.004 621.508 169.121V175.954C621.508 176.443 621.841 176.913 622.435 177.261L649.817 193.323C651.074 194.06 653.132 194.065 654.4 193.333L801.099 108.644C801.705 108.294 802.045 107.82 802.045 107.326L802.045 100.838C802.045 100.192 801.465 99.5916 800.513 99.2521L775.237 90.2415C773.963 89.7876 772.317 89.8984 771.259 90.5093L689.255 137.85L677.514 145.368C677.122 145.619 676.522 145.724 675.954 145.642C675.088 145.517 674.573 145.004 674.814 144.508C677.884 138.196 679.769 133.855 680.48 131.474L645.896 94.9384ZM645.896 94.9384C647.024 91.1928 648.897 86.9358 651.516 82.1661C651.786 81.6746 651.285 81.1505 650.415 81.0249C649.849 80.9433 649.252 81.0527 648.87 81.306C643.184 85.0756 639.125 87.6616 636.686 89.0697L555.266 136.073C553.989 136.81 551.914 136.799 550.661 136.049L524.53 120.413C523.949 120.066 523.625 119.602 523.625 119.119L523.625 113.006C523.625 112.486 524.002 111.989 524.665 111.636L672.071 33.1864C673.143 32.6155 674.746 32.5311 675.98 32.9805L704.388 43.3258L704.388 50.5278C704.388 50.633 704.373 50.7379 704.342 50.8416L704.796 50.8864L704.342 50.8416L680.48 131.474L645.896 94.9384Z"/><path fill="#E9E9E9" stroke="#E9E9E9" stroke-width=".753" d="M645.896 94.9384L645.894 94.9425L622.058 167.277C621.773 168.141 622.574 169.002 623.978 169.343L650.015 175.656C651.555 176.03 652.557 176.901 652.557 177.865V192.469C652.557 193.18 654.047 193.537 654.919 193.034L801.099 108.644C801.705 108.294 802.045 107.82 802.045 107.326L802.045 100.838C802.045 100.192 801.465 99.5916 800.513 99.2521L775.237 90.2415C773.963 89.7876 772.317 89.8984 771.259 90.5093L689.255 137.85L677.514 145.368C677.122 145.619 676.522 145.724 675.954 145.642C675.088 145.517 674.573 145.004 674.814 144.508C677.884 138.196 679.769 133.855 680.48 131.474L645.896 94.9384ZM645.896 94.9384C647.024 91.1928 648.897 86.9358 651.516 82.1661C651.786 81.6746 651.285 81.1505 650.415 81.0249C649.849 80.9433 649.252 81.0527 648.87 81.306C643.184 85.0756 639.125 87.6616 636.686 89.0697L555.759 135.789C554.888 136.292 553.398 135.935 553.398 135.224L553.398 125.228C553.398 124.447 552.738 123.715 551.63 123.267L527.179 113.373C525.492 112.69 525.329 111.283 526.843 110.477L672.071 33.1864C673.143 32.6155 674.746 32.5311 675.98 32.9805L704.388 43.3258L704.388 50.5278C704.388 50.633 704.373 50.7379 704.342 50.8416L704.796 50.8864L704.342 50.8416L680.48 131.474L645.896 94.9384Z"/><path fill="url(#paint23_linear)" d="M558.617 127.166L558.551 134.511C558.551 134.511 555.163 136.92 553.28 136.92C550.46 136.92 548.306 134.907 548.306 134.907L548.306 127.556C548.306 127.556 550.207 129.114 553.461 128.997C556.451 128.89 558.617 127.166 558.617 127.166Z"/><path fill="url(#paint24_linear)" d="M657.254 184.391L657.254 192.156C657.254 192.156 654.73 193.88 652.018 193.88C649.726 193.88 646.943 192.131 646.943 192.131L646.943 184.78C646.943 184.78 648.844 186.338 652.098 186.221C655.088 186.115 657.254 184.391 657.254 184.391Z"/><path fill="url(#paint25_linear)" stroke="#F1F1F1" stroke-width=".753" d="M671.554 26.0495C672.814 25.3218 674.858 25.3218 676.118 26.0495L703.439 41.8218C704.18 42.2493 704.515 42.8577 704.338 43.4536L680.48 123.945C680.48 123.945 680.48 123.945 680.48 123.945C679.769 126.325 677.884 130.666 674.814 136.979C674.573 137.474 675.088 137.988 675.954 138.113C676.522 138.195 677.122 138.089 677.513 137.838L689.255 130.32L770.714 83.2945C771.974 82.5668 774.018 82.5668 775.278 83.2945L801.34 98.34C802.601 99.0677 802.601 100.248 801.34 100.975L654.379 185.816C653.118 186.544 651.074 186.544 649.814 185.816L622.496 170.046C621.754 169.617 621.419 169.007 621.598 168.41L645.895 87.409C647.024 83.6635 648.896 79.4064 651.516 74.6367C651.786 74.1452 651.285 73.6211 650.415 73.4956C649.849 73.4139 649.252 73.5233 648.87 73.7766C643.184 77.5463 639.124 80.1323 636.685 81.5403L555.219 128.571C553.958 129.299 551.915 129.299 550.654 128.571L524.592 113.526C523.332 112.798 523.332 111.618 524.592 110.89L671.554 26.0495Z"/></g><defs><filter id="filter0_i" width="280.325" height="163.337" x="470.102" y="107.841" color-interpolation-filters="sRGB" filterUnits="userSpaceOnUse"><feFlood flood-opacity="0" result="BackgroundImageFix"/><feBlend in="SourceGraphic" in2="BackgroundImageFix" mode="normal" result="shape"/><feColorMatrix in="SourceAlpha" result="hardAlpha" type="matrix" values="0 0 0 0 0 0 0 0 0 0 0 0 0 0 0 0 0 0 127 0"/><feOffset dy="1.506"/><feGaussianBlur stdDeviation="1.882"/><feComposite in2="hardAlpha" k2="-1" k3="1" operator="arithmetic"/><feColorMatrix type="matrix" values="0 0 0 0 0.280972 0 0 0 0 0.354025 0 0 0 0 0.495833 0 0 0 0.09 0"/><feBlend in2="shape" mode="normal" result="effect1_innerShadow"/></filter><filter id="filter1_f" width="317.972" height="199.479" x="481.395" y="50.617" color-interpolation-filters="sRGB" filterUnits="userSpaceOnUse"><feFlood flood-opacity="0" result="BackgroundImageFix"/><feBlend in="SourceGraphic" in2="BackgroundImageFix" mode="normal" result="shape"/><feGaussianBlur result="effect1_foregroundBlur" stdDeviation="9.412"/></filter><linearGradient id="paint0_linear" x1="1000.68" x2="1007" y1="266.55" y2="270.805" gradientUnits="userSpaceOnUse"><stop stop-color="#F48D89"/><stop offset="1" stop-color="#EE786C"/></linearGradient><linearGradient id="paint1_linear" x1="505.051" x2="574.62" y1="387.86" y2="117" gradientUnits="userSpaceOnUse"><stop stop-color="#EE786C" stop-opacity="0"/><stop offset="1" stop-color="#EE786C"/></linearGradient><linearGradient id="paint2_linear" x1="841.426" x2="847.748" y1="167.459" y2="171.714" gradientUnits="userSpaceOnUse"><stop stop-color="#F48D89"/><stop offset="1" stop-color="#EE786C"/></linearGradient><linearGradient id="paint3_linear" x1="345.797" x2="415.366" y1="288.77" y2="17.91" gradientUnits="userSpaceOnUse"><stop stop-color="#EE786C" stop-opacity="0"/><stop offset="1" stop-color="#EE786C"/></linearGradient><linearGradient id="paint4_linear" x1="682.172" x2="688.494" y1="68.369" y2="72.624" gradientUnits="userSpaceOnUse"><stop stop-color="#F48D89"/><stop offset="1" stop-color="#EE786C"/></linearGradient><linearGradient id="paint5_linear" x1="584.676" x2="654.245" y1="435.636" y2="164.776" gradientUnits="userSpaceOnUse"><stop stop-color="#EE786C" stop-opacity="0"/><stop offset="1" stop-color="#EE786C"/></linearGradient><linearGradient id="paint6_linear" x1="663.676" x2="733.245" y1="487.636" y2="216.776" gradientUnits="userSpaceOnUse"><stop stop-color="#EE786C" stop-opacity="0"/><stop offset="1" stop-color="#EE786C"/></linearGradient><linearGradient id="paint7_linear" x1="921.051" x2="927.373" y1="215.235" y2="219.49" gradientUnits="userSpaceOnUse"><stop stop-color="#F48D89"/><stop offset="1" stop-color="#EE786C"/></linearGradient><linearGradient id="paint8_linear" x1="425.426" x2="494.995" y1="336.546" y2="65.685" gradientUnits="userSpaceOnUse"><stop stop-color="#EE786C" stop-opacity="0"/><stop offset="1" stop-color="#EE786C"/></linearGradient><linearGradient id="paint9_linear" x1="761.801" x2="768.123" y1="116.145" y2="120.4" gradientUnits="userSpaceOnUse"><stop stop-color="#F48D89"/><stop offset="1" stop-color="#EE786C"/></linearGradient><linearGradient id="paint10_linear" x1="131.692" x2="240.028" y1="311.331" y2="-67.706" gradientUnits="userSpaceOnUse"><stop stop-color="#EE786C" stop-opacity="0"/><stop offset="1" stop-color="#EE786C"/></linearGradient><linearGradient id="paint11_linear" x1="602.547" x2="608.869" y1="17.054" y2="21.309" gradientUnits="userSpaceOnUse"><stop stop-color="#F48D89"/><stop offset="1" stop-color="#EE786C"/></linearGradient><linearGradient id="paint12_linear" x1="627.214" x2="557.646" y1="429.443" y2="158.582" gradientUnits="userSpaceOnUse"><stop stop-color="#EE786C" stop-opacity="0"/><stop offset="1" stop-color="#EE786C"/></linearGradient><linearGradient id="paint13_linear" x1="290.84" x2="284.518" y1="209.042" y2="213.297" gradientUnits="userSpaceOnUse"><stop stop-color="#F48D89"/><stop offset="1" stop-color="#EE786C"/></linearGradient><linearGradient id="paint14_linear" x1="786.468" x2="716.899" y1="330.352" y2="59.492" gradientUnits="userSpaceOnUse"><stop stop-color="#EE786C" stop-opacity="0"/><stop offset="1" stop-color="#EE786C"/></linearGradient><linearGradient id="paint15_linear" x1="450.09" x2="443.768" y1="109.952" y2="114.207" gradientUnits="userSpaceOnUse"><stop stop-color="#F48D89"/><stop offset="1" stop-color="#EE786C"/></linearGradient><linearGradient id="paint16_linear" x1="706.839" x2="637.271" y1="378.128" y2="107.268" gradientUnits="userSpaceOnUse"><stop stop-color="#EE786C" stop-opacity="0"/><stop offset="1" stop-color="#EE786C"/></linearGradient><linearGradient id="paint17_linear" x1="370.465" x2="364.143" y1="157.727" y2="161.982" gradientUnits="userSpaceOnUse"><stop stop-color="#F48D89"/><stop offset="1" stop-color="#EE786C"/></linearGradient><linearGradient id="paint18_linear" x1="866.093" x2="796.524" y1="279.038" y2="8.177" gradientUnits="userSpaceOnUse"><stop stop-color="#EE786C" stop-opacity="0"/><stop offset="1" stop-color="#EE786C"/></linearGradient><linearGradient id="paint19_linear" x1="529.719" x2="523.397" y1="58.637" y2="62.892" gradientUnits="userSpaceOnUse"><stop stop-color="#F48D89"/><stop offset="1" stop-color="#EE786C"/></linearGradient><linearGradient id="paint20_linear" x1="1048.72" x2="951.723" y1="302.041" y2="-55.907" gradientUnits="userSpaceOnUse"><stop stop-color="#EE786C" stop-opacity="0"/><stop offset="1" stop-color="#EE786C"/></linearGradient><linearGradient id="paint21_linear" x1="686.352" x2="610.273" y1="144.83" y2="276.615" gradientUnits="userSpaceOnUse"><stop offset=".089" stop-color="#fff"/><stop offset="1" stop-color="#fff" stop-opacity="0"/></linearGradient><linearGradient id="paint22_linear" x1="716.469" x2="640.39" y1="106.43" y2="238.215" gradientUnits="userSpaceOnUse"><stop offset=".089" stop-color="#fff"/><stop offset="1" stop-color="#fff" stop-opacity="0"/></linearGradient><linearGradient id="paint23_linear" x1="558.618" x2="548.309" y1="139.613" y2="140.036" gradientUnits="userSpaceOnUse"><stop stop-color="#E9E9E9"/><stop offset="1" stop-color="#F1F1F1"/></linearGradient><linearGradient id="paint24_linear" x1="657.255" x2="646.945" y1="196.837" y2="197.26" gradientUnits="userSpaceOnUse"><stop stop-color="#E9E9E9"/><stop offset="1" stop-color="#F1F1F1"/></linearGradient><linearGradient id="paint25_linear" x1="739.055" x2="659.577" y1="62.007" y2="199.679" gradientUnits="userSpaceOnUse"><stop stop-color="#FBFBFB"/><stop offset="1" stop-color="#F5F5F5"/></linearGradient></defs></svg>
