<svg width="316" height="176" viewBox="0 0 316 176" fill="none" xmlns="http://www.w3.org/2000/svg">
<g opacity="0.5" filter="url(#filter0_f)">
<path fill-rule="evenodd" clip-rule="evenodd" d="M165.436 57.872C164.34 57.2406 162.563 57.2406 161.468 57.872L105.591 90.069L71.5192 70.4364C70.7217 69.9768 69.4286 69.9768 68.631 70.4364L15.4829 101.061C14.702 101.511 14.6834 102.237 15.4409 102.701L20.8793 106.025C21.5184 106.416 21.6176 107.006 21.1203 107.46L18.0771 110.239C17.2189 111.023 18.1962 112.044 19.8042 112.044H30.417C30.9562 112.044 31.4735 112.167 31.856 112.386L99.3001 150.98C100.098 151.436 101.388 151.435 102.183 150.977L137.666 130.531L177.542 153.508C178.027 153.788 178.318 154.16 178.359 154.555L179.361 164.24C179.505 165.632 182.434 166.273 184.146 165.287L189.08 162.443C190.176 161.812 191.953 161.812 193.049 162.443L203.605 168.526C204.701 169.158 206.478 169.158 207.573 168.526L280.538 126.483C281.634 125.851 281.634 124.827 280.538 124.196L165.436 57.872Z" fill="#C4C4C4" fill-opacity="0.2"/>
</g>
<path d="M71.2875 39.4701L157.139 86.933L157.139 89.6145L101.942 121.793L32.4902 81.9724L18.6358 81.9724L18.6358 78.4864L23.2011 76.6093L15.9543 71.7826L15.9543 68.967L71.2875 39.4701Z" fill="url(#paint0_linear)"/>
<path d="M70.03 37.7256C70.7275 37.3229 71.8584 37.3229 72.5559 37.7256L156.29 86.0695C156.987 86.4722 156.987 87.1251 156.29 87.5278L103.205 118.176C102.509 118.578 101.382 118.579 100.683 118.179L33.2724 79.5281C32.8422 79.2815 32.2605 79.143 31.6543 79.143L21.0467 79.143C19.6404 79.143 18.7857 78.2482 19.5362 77.5615L22.578 74.7784C23.1371 74.2669 23.0256 73.6017 22.3069 73.1615L16.8712 69.8321C16.2087 69.4263 16.225 68.7899 16.908 68.3956L70.03 37.7256Z" fill="url(#paint1_linear)" stroke="#F1F1F1" stroke-width="0.416667"/>
<g opacity="0.5" filter="url(#filter1_f)">
<path d="M77.1426 72.6572L128.932 104.295L153.866 89.5799L101.839 57.2061L77.1426 72.6572Z" fill="#C4C4C4" fill-opacity="0.2"/>
</g>
<g filter="url(#filter2_i)">
<path d="M85.3095 89.8949C86.405 89.2635 86.4048 88.2399 85.3091 87.6086L39.9574 61.4761C38.8616 60.8447 37.085 60.8447 35.9892 61.4761L34.7107 62.2128C33.6149 62.8442 33.6149 63.8679 34.7107 64.4993L80.0627 90.6319C81.1586 91.2634 82.9355 91.2633 84.0312 90.6317L85.3095 89.8949Z" fill="#F1F1F4"/>
</g>
<g filter="url(#filter3_i)">
<path d="M59.1212 83.256C59.6689 82.9403 59.6688 82.4285 59.121 82.1128L31.3525 66.1121C30.8046 65.7964 29.9163 65.7964 29.3684 66.1121L28.0043 66.8982C27.4564 67.2139 27.4564 67.7257 28.0043 68.0414L55.773 84.0422C56.321 84.358 57.2094 84.3579 57.7573 84.0421L59.1212 83.256Z" fill="#F1F1F4"/>
</g>
<path d="M163.102 28.4989C163.965 28.0006 165.364 28.0006 166.227 28.4989L282.399 92.0718C283.262 92.5701 282.977 96.7123 282.114 97.2106L208.344 139.802C207.481 140.3 206.082 140.3 205.219 139.802L193.827 133.224C192.964 132.726 191.564 132.726 190.701 133.224L184.413 136.855C183.066 137.633 180.758 137.127 180.645 136.029L179.551 125.437C179.519 125.126 179.29 124.832 178.908 124.611L89.3321 72.8944C88.4691 72.3962 88.1121 68.2538 88.9751 67.7556L163.102 28.4989Z" fill="url(#paint2_linear)"/>
<path d="M162.936 25.2012C163.894 24.6479 165.448 24.6479 166.406 25.2012L281.452 91.623C282.41 92.1763 282.41 93.0734 281.452 93.6267L208.523 135.732C207.565 136.286 206.011 136.286 205.053 135.732L194.501 129.64C193.269 128.929 191.271 128.929 190.039 129.64L185.107 132.488C183.61 133.352 181.048 132.79 180.922 131.571L179.921 121.872C179.875 121.427 179.548 121.007 179.002 120.692L90.0066 69.3105C89.0482 68.7572 89.0482 67.8601 90.0066 67.3068L162.936 25.2012Z" fill="url(#paint3_linear)" stroke="#F1F1F1" stroke-width="0.572478"/>
<g filter="url(#filter4_i)">
<path d="M265.319 93.939C266.415 93.3076 266.415 92.284 265.319 91.6527L189.866 48.1754C188.77 47.544 186.994 47.544 185.898 48.1754L181.417 50.7573C180.321 51.3887 180.321 52.4124 181.417 53.0438L256.871 96.5215C257.967 97.153 259.744 97.1529 260.839 96.5213L265.319 93.939Z" fill="#F1F1F4"/>
</g>
<g filter="url(#filter5_i)">
<path d="M253.314 101.461C253.862 101.146 253.862 100.634 253.314 100.318L207.387 73.8541C206.839 73.5384 205.951 73.5384 205.403 73.8541L201.995 75.8177C201.447 76.1334 201.447 76.6452 201.995 76.9609L247.923 103.425C248.471 103.741 249.359 103.741 249.907 103.425L253.314 101.461Z" fill="#F1F1F4"/>
</g>
<g filter="url(#filter6_f)">
<path d="M222.373 91.5927L253.836 109.999L282.456 92.9209L251.183 73.9458L222.373 91.5927Z" fill="#C4C4C4" fill-opacity="0.2"/>
</g>
<g filter="url(#filter7_f)">
<path d="M98.1523 67.1641L118.946 55.1822L214.027 109.052L193.233 121.034L98.1523 67.1641Z" fill="#C4C4C4" fill-opacity="0.2"/>
</g>
<g>
<rect width="23.9991" height="115.267" rx="4.44193" transform="matrix(0.86645 -0.499263 0.86645 0.499263 90.4121 52.8179)" fill="url(#paint4_linear)" fill-opacity="0.7"/>
<rect x="0.405127" width="23.5315" height="114.799" rx="4.20814" transform="matrix(0.86645 -0.499263 0.86645 0.499263 90.4662 53.0201)" stroke="url(#paint5_linear)" stroke-width="0.467571"/>
</g>
<g filter="url(#filter9_i)">
<rect width="40.727" height="1.19123" transform="matrix(0.86645 0.499263 -0.86645 0.499263 140.417 70.6577)" fill="#F1F1F4"/>
</g>
<g filter="url(#filter10_i)">
<rect width="13.6109" height="1.19123" transform="matrix(0.86645 0.499263 -0.86645 0.499263 143.514 68.6763)" fill="#F1F1F4"/>
</g>
<path d="M181.647 95.6291C180.871 96.0773 179.612 96.0773 178.835 95.6291C178.476 95.4215 178.283 95.1543 178.256 94.8826C178.225 94.5675 178.162 94.1289 178.579 93.8882C178.702 93.8172 178.849 93.7558 179.012 93.7044C180.779 93.1474 183 94.5112 181.87 95.4729C181.804 95.5291 181.729 95.5815 181.647 95.6291ZM179.36 94.3091C178.874 94.5898 178.874 95.045 179.36 95.3258C179.847 95.6065 180.635 95.6065 181.122 95.3258C181.608 95.045 181.608 94.5898 181.122 94.3091C180.635 94.0283 179.847 94.0283 179.36 94.3091Z" fill="#C7C9D2"/>
<g filter="url(#filter11_i)">
<path d="M181.65 95.2392C180.874 95.6874 179.615 95.6874 178.838 95.2392C178.062 94.7909 178.062 94.0641 178.838 93.6159C179.615 93.1676 180.874 93.1676 181.65 93.6159C182.427 94.0641 182.427 94.7909 181.65 95.2392Z" fill="#F1F1F4"/>
</g>
<path d="M186.606 98.7233C185.83 99.1716 184.571 99.1716 183.794 98.7233C183.435 98.5158 183.242 98.2485 183.215 97.9769C183.184 97.6618 183.121 97.2231 183.538 96.9824C183.661 96.9114 183.808 96.85 183.971 96.7987C185.738 96.2417 187.959 97.6054 186.829 98.5671C186.763 98.6233 186.688 98.6757 186.606 98.7233ZM184.319 97.4033C183.833 97.6841 183.833 98.1393 184.319 98.42C184.806 98.7008 185.594 98.7008 186.081 98.42C186.567 98.1393 186.567 97.6841 186.081 97.4033C185.594 97.1225 184.806 97.1225 184.319 97.4033Z" fill="#C7C9D2"/>
<g filter="url(#filter12_i)">
<path d="M186.609 98.3334C185.833 98.7817 184.574 98.7817 183.797 98.3334C183.021 97.8851 183.021 97.1584 183.797 96.7101C184.574 96.2618 185.833 96.2618 186.609 96.7101C187.386 97.1584 187.386 97.8851 186.609 98.3334Z" fill="#F1F1F4"/>
</g>
<path d="M192.185 101.816C191.408 102.264 190.149 102.264 189.373 101.816C189.013 101.609 188.82 101.341 188.794 101.07C188.763 100.755 188.7 100.316 189.117 100.075C189.24 100.004 189.387 99.9428 189.55 99.8914C191.316 99.3345 193.538 100.698 192.407 101.66C192.341 101.716 192.267 101.768 192.185 101.816ZM189.898 100.496C189.412 100.777 189.412 101.232 189.898 101.513C190.384 101.794 191.173 101.794 191.659 101.513C192.146 101.232 192.146 100.777 191.659 100.496C191.173 100.215 190.384 100.215 189.898 100.496Z" fill="#C7C9D2"/>
<g filter="url(#filter13_i)">
<path d="M192.188 101.426C191.411 101.874 190.152 101.874 189.376 101.426C188.599 100.978 188.599 100.251 189.376 99.8029C190.152 99.3546 191.411 99.3546 192.188 99.8029C192.964 100.251 192.964 100.978 192.188 101.426Z" fill="#F1F1F4"/>
</g>
<g>
<path d="M109.056 52.6426L109.038 52.6323C108.795 52.7143 108.509 52.7348 108.179 52.6938C107.858 52.6528 107.54 52.5413 107.226 52.3592C106.976 52.2135 106.789 52.0531 106.668 51.8778C106.554 51.7025 106.511 51.5204 106.538 51.3315C106.57 51.1403 106.674 50.9434 106.85 50.7408C107.034 50.5383 107.299 50.3368 107.644 50.1365C107.985 49.9385 108.328 49.7871 108.673 49.6824C109.022 49.5754 109.362 49.5151 109.691 49.5015C110.024 49.4855 110.346 49.5129 110.656 49.5834C110.965 49.654 111.252 49.7655 111.514 49.918C111.883 50.132 112.109 50.3584 112.191 50.5974C112.273 50.8364 112.246 51.0732 112.109 51.3076L111.456 51.2154C111.581 51.0333 111.612 50.8512 111.55 50.6691C111.491 50.4893 111.332 50.3243 111.073 50.1741C110.893 50.0694 110.695 49.9931 110.479 49.9453C110.267 49.8952 110.048 49.8725 109.82 49.877C109.597 49.8839 109.373 49.918 109.15 49.9795C108.926 50.0409 108.713 50.1308 108.509 50.2492L107.844 50.635C107.64 50.7534 107.483 50.8786 107.374 51.0106C107.268 51.1403 107.209 51.2701 107.197 51.3998C107.189 51.5318 107.23 51.6627 107.321 51.7924C107.415 51.9199 107.56 52.0405 107.756 52.1543C107.897 52.2363 108.048 52.3034 108.209 52.3558C108.377 52.4081 108.546 52.44 108.715 52.4514C108.887 52.465 109.056 52.4559 109.22 52.4241C109.389 52.3899 109.55 52.3285 109.703 52.2397L110.109 52.0041L109.203 51.4783L109.638 51.2257L111.026 52.0314L108.915 53.2571L108.456 52.9908L109.056 52.6426Z" fill="#BDC3CB"/>
<path d="M110.91 54.4976C110.703 54.377 110.552 54.2461 110.458 54.1049C110.367 53.9661 110.33 53.8216 110.346 53.6713C110.369 53.5211 110.444 53.3709 110.569 53.2207C110.703 53.0704 110.891 52.9248 111.134 52.7836C111.373 52.6448 111.622 52.5367 111.881 52.4593C112.144 52.3842 112.402 52.3409 112.657 52.3295C112.92 52.3182 113.171 52.3386 113.41 52.391C113.653 52.4456 113.879 52.5333 114.087 52.6539C114.291 52.7723 114.436 52.8997 114.522 53.0363C114.608 53.1729 114.642 53.3128 114.622 53.4562C114.606 53.5974 114.538 53.7373 114.416 53.8762C114.298 54.0173 114.132 54.1505 113.916 54.2757L113.693 54.4054L111.51 53.1387L111.369 53.2207C111.24 53.2958 111.138 53.3777 111.063 53.4665C110.997 53.5553 110.959 53.6452 110.952 53.7362C110.948 53.8295 110.977 53.9217 111.04 54.0128C111.107 54.1061 111.21 54.1937 111.352 54.2757C111.544 54.3872 111.755 54.4578 111.987 54.4873C112.222 54.5192 112.463 54.509 112.71 54.4566L112.804 54.7912C112.499 54.8549 112.177 54.864 111.84 54.8185C111.506 54.7707 111.197 54.6637 110.91 54.4976ZM113.693 52.8826C113.563 52.8075 113.422 52.7529 113.269 52.7188C113.12 52.6823 112.965 52.6653 112.804 52.6675C112.648 52.6721 112.491 52.6949 112.334 52.7358C112.181 52.7745 112.038 52.8326 111.904 52.91L111.863 52.9339L113.54 53.9069L113.604 53.8694C113.875 53.7123 114.016 53.5439 114.028 53.3641C114.047 53.1842 113.936 53.0238 113.693 52.8826Z" fill="#BDC3CB"/>
<path d="M113.739 56.0573C113.574 55.9617 113.494 55.8627 113.497 55.7603C113.509 55.6578 113.59 55.5634 113.739 55.4769L115.862 54.2443L115.362 53.9541L115.774 53.7151L116.056 53.879C116.158 53.9382 116.246 53.9667 116.321 53.9644C116.403 53.9621 116.495 53.9314 116.597 53.8722L117.162 53.5444L117.585 53.7903L116.744 54.2785L117.409 54.6643L116.997 54.9033L116.333 54.5175L114.121 55.8012L114.739 56.1597L114.327 56.3987L113.739 56.0573Z" fill="#BDC3CB"/>
<path d="M117.361 58.2421C117.079 58.0783 116.895 57.9098 116.809 57.7368C116.73 57.5638 116.712 57.3852 116.756 57.2008L117.361 57.2383C117.33 57.3931 117.346 57.5365 117.409 57.6685C117.475 57.7983 117.605 57.9189 117.797 58.0305C117.997 58.1465 118.195 58.2114 118.391 58.2251C118.591 58.241 118.769 58.2034 118.926 58.1124C119.044 58.0441 119.104 57.9633 119.108 57.87C119.12 57.7767 119.042 57.6629 118.873 57.5286L118.667 57.3681C118.546 57.2748 118.446 57.1826 118.367 57.0915C118.293 56.9982 118.244 56.906 118.22 56.815C118.205 56.7239 118.222 56.634 118.273 56.5453C118.328 56.4588 118.426 56.3745 118.567 56.2926C118.716 56.2061 118.873 56.1469 119.038 56.1151C119.206 56.0809 119.375 56.0695 119.544 56.0809C119.716 56.0946 119.887 56.1299 120.055 56.1868C120.228 56.2414 120.391 56.3131 120.544 56.4019C120.791 56.5453 120.953 56.6898 121.032 56.8355C121.114 56.9834 121.142 57.1382 121.114 57.2998L120.52 57.2827C120.548 57.1894 120.534 57.0836 120.479 56.9652C120.428 56.8446 120.304 56.7273 120.108 56.6135C119.912 56.4997 119.72 56.4383 119.532 56.4292C119.352 56.4201 119.189 56.4576 119.044 56.5418C118.895 56.6283 118.836 56.7194 118.867 56.815C118.903 56.9129 118.999 57.0255 119.155 57.153L119.355 57.31C119.642 57.5354 119.783 57.7311 119.779 57.8973C119.779 58.0612 119.663 58.2103 119.432 58.3446C119.138 58.5153 118.806 58.5915 118.438 58.5733C118.069 58.5551 117.71 58.4447 117.361 58.2421Z" fill="#BDC3CB"/>
<path d="M120.017 59.7016C119.852 59.606 119.772 59.507 119.776 59.4046C119.788 59.3022 119.868 59.2077 120.017 59.1212L122.14 57.8887L121.64 57.5984L122.052 57.3594L122.334 57.5233C122.436 57.5825 122.525 57.611 122.599 57.6087C122.682 57.6064 122.774 57.5757 122.876 57.5165L123.44 57.1887L123.864 57.4346L123.023 57.9228L123.687 58.3086L123.276 58.5476L122.611 58.1618L120.399 59.4456L121.017 59.8041L120.605 60.043L120.017 59.7016Z" fill="#BDC3CB"/>
<path d="M123.614 61.7897C123.438 61.6873 123.357 61.586 123.373 61.4859C123.393 61.388 123.463 61.2924 123.585 61.1991L123.556 61.182C123.301 61.2526 123.05 61.2708 122.803 61.2366C122.556 61.2025 122.326 61.124 122.114 61.001C121.793 60.8144 121.624 60.6209 121.609 60.4206C121.597 60.2226 121.732 60.0416 122.014 59.8778C122.301 59.7116 122.624 59.6444 122.985 59.6763C123.35 59.7105 123.754 59.8561 124.197 60.1133L124.797 60.4616L125.097 60.2875C125.312 60.1623 125.418 60.0325 125.414 59.8982C125.41 59.7639 125.287 59.6262 125.044 59.4851C124.859 59.3781 124.663 59.3121 124.455 59.2871C124.252 59.2643 124.04 59.2689 123.82 59.3007L123.803 58.9832C124.05 58.9354 124.32 58.9309 124.614 58.9696C124.912 59.006 125.199 59.1039 125.473 59.2632C125.842 59.4771 126.038 59.6957 126.061 59.9187C126.085 60.1418 125.936 60.3466 125.614 60.5333L123.944 61.5029L124.291 61.7044L123.879 61.9434L123.614 61.7897ZM122.591 60.8133C122.709 60.8815 122.83 60.9362 122.956 60.9771C123.081 61.0181 123.205 61.0443 123.326 61.0557C123.448 61.067 123.561 61.0648 123.667 61.0488C123.773 61.0329 123.865 61.0022 123.944 60.9567L124.444 60.6664L123.82 60.3045C123.55 60.1475 123.312 60.0553 123.108 60.028C122.908 60.0029 122.734 60.0337 122.585 60.1202L122.461 60.1919C122.312 60.2784 122.25 60.3762 122.273 60.4855C122.301 60.597 122.407 60.7063 122.591 60.8133Z" fill="#BDC3CB"/>
<path d="M124.551 62.3332L127.586 60.5715L128.056 60.8446L127.497 61.169L127.527 61.186C127.727 61.1337 127.954 61.1155 128.209 61.1314C128.464 61.1473 128.715 61.227 128.962 61.3704L129.144 61.4762L128.674 61.7494L128.397 61.5889C128.143 61.441 127.894 61.3533 127.65 61.326C127.415 61.2987 127.225 61.3271 127.08 61.4114L125.021 62.6063L124.551 62.3332Z" fill="#BDC3CB"/>
<path d="M127.404 63.9894C127.239 63.8938 127.159 63.7948 127.163 63.6924C127.175 63.59 127.255 63.4955 127.404 63.409L129.527 62.1765L129.027 61.8863L129.439 61.6473L129.721 61.8111C129.823 61.8703 129.912 61.8988 129.986 61.8965C130.068 61.8942 130.161 61.8635 130.263 61.8043L130.827 61.4766L131.251 61.7224L130.41 62.2106L131.074 62.5964L130.663 62.8354L129.998 62.4496L127.786 63.7334L128.404 64.0919L127.992 64.3309L127.404 63.9894Z" fill="#BDC3CB"/>
<path d="M129.843 65.4872C129.635 65.3666 129.484 65.2357 129.39 65.0946C129.3 64.9557 129.263 64.8112 129.278 64.661C129.302 64.5107 129.376 64.3605 129.502 64.2103C129.635 64.06 129.823 63.9144 130.067 63.7732C130.306 63.6344 130.555 63.5263 130.814 63.4489C131.076 63.3738 131.335 63.3305 131.59 63.3192C131.853 63.3078 132.104 63.3283 132.343 63.3806C132.586 63.4352 132.812 63.5229 133.019 63.6435C133.223 63.7619 133.368 63.8893 133.455 64.0259C133.541 64.1625 133.574 64.3025 133.555 64.4459C133.539 64.587 133.47 64.727 133.349 64.8658C133.231 65.0069 133.064 65.1401 132.849 65.2653L132.625 65.395L130.443 64.1283L130.302 64.2103C130.172 64.2854 130.071 64.3673 129.996 64.4561C129.929 64.5449 129.892 64.6348 129.884 64.7258C129.88 64.8191 129.91 64.9113 129.972 65.0024C130.039 65.0957 130.143 65.1833 130.284 65.2653C130.476 65.3768 130.688 65.4474 130.919 65.477C131.155 65.5088 131.396 65.4986 131.643 65.4462L131.737 65.7808C131.431 65.8446 131.11 65.8537 130.772 65.8081C130.439 65.7603 130.129 65.6534 129.843 65.4872ZM132.625 63.8723C132.496 63.7971 132.355 63.7425 132.202 63.7084C132.053 63.672 131.898 63.6549 131.737 63.6572C131.58 63.6617 131.423 63.6845 131.267 63.7254C131.114 63.7641 130.97 63.8222 130.837 63.8996L130.796 63.9235L132.472 64.8965L132.537 64.859C132.808 64.7019 132.949 64.5335 132.961 64.3537C132.98 64.1739 132.868 64.0134 132.625 63.8723Z" fill="#BDC3CB"/>
<path d="M134.436 67.4976L134.412 67.484C133.852 67.5955 133.367 67.5329 132.96 67.2962C132.771 67.1869 132.638 67.0663 132.56 66.9343C132.481 66.8022 132.456 66.6645 132.483 66.5211C132.514 66.38 132.599 66.2355 132.736 66.0875C132.877 65.9418 133.069 65.7985 133.312 65.6573C133.556 65.5162 133.803 65.4047 134.054 65.3227C134.308 65.2431 134.557 65.1941 134.801 65.1759C135.048 65.16 135.285 65.1748 135.512 65.2203C135.74 65.2658 135.948 65.3432 136.136 65.4525C136.348 65.5754 136.481 65.7074 136.536 65.8485C136.599 65.9896 136.573 66.1387 136.459 66.2958L136.483 66.3095L138.294 65.2579L138.765 65.531L134.412 68.0575L133.942 67.7844L134.436 67.4976ZM133.512 67.1255C133.618 67.1869 133.732 67.237 133.854 67.2757C133.979 67.3167 134.103 67.3428 134.224 67.3542C134.35 67.3633 134.469 67.3576 134.583 67.3371C134.705 67.3167 134.814 67.278 134.912 67.2211L136.042 66.5655C136.124 66.5177 136.179 66.4608 136.206 66.3948C136.242 66.3288 136.25 66.2605 136.23 66.19C136.21 66.1194 136.165 66.0477 136.095 65.9749C136.032 65.902 135.948 65.8349 135.842 65.7734C135.575 65.6186 135.281 65.5458 134.959 65.5549C134.642 65.5617 134.348 65.6437 134.077 65.8007L133.559 66.1012C133.289 66.2582 133.146 66.4301 133.13 66.6167C133.118 66.8011 133.246 66.9707 133.512 67.1255Z" fill="#BDC3CB"/>
</g>
<g>
<rect width="48.7885" height="48.7885" rx="5.14328" transform="matrix(0.86645 0.499263 -0.86645 0.499263 272.02 55.9185)" fill="url(#paint6_linear)" fill-opacity="0.5"/>
<rect x="-1.39347e-08" y="0.233441" width="48.3209" height="48.3209" rx="4.9095" transform="matrix(0.86645 0.499263 -0.86645 0.499263 272.222 56.0353)" stroke="url(#paint7_linear)" stroke-width="0.467571"/>
</g>
<circle r="11.4711" transform="matrix(0.86645 0.499263 -0.86645 0.499263 272.271 80.2765)" fill="white"/>
<path fill-rule="evenodd" clip-rule="evenodd" d="M268.369 78.3198L270.504 78.3198L270.504 80.5753L278.688 80.5753L278.688 81.8056L268.369 81.8056L268.369 78.3198Z" fill="#598AB4"/>
<path d="M289.625 66.7574C288.567 67.3682 286.852 67.3682 285.794 66.7574C285.304 66.4746 285.041 66.1104 285.004 65.7403C284.962 65.3109 284.877 64.7132 285.445 64.3852C286.503 63.7743 288.848 63.683 289.906 64.2938C290.744 64.9587 290.683 66.1466 289.625 66.7574ZM286.51 64.9587C285.847 65.3413 285.847 65.9615 286.51 66.3441C287.172 66.7267 288.247 66.7267 288.909 66.3441C289.572 65.9615 289.572 65.3413 288.909 64.9587C288.247 64.5761 287.172 64.5761 286.51 64.9587Z" fill="#DF6461"/>
<path d="M289.626 66.2262C288.568 66.8371 286.853 66.8371 285.795 66.2262C284.737 65.6154 284.737 64.6251 285.795 64.0142C286.853 63.4034 288.568 63.4034 289.626 64.0142C290.684 64.6251 290.684 65.6154 289.626 66.2262Z" fill="url(#paint8_linear)"/>
<path d="M179.044 32.9117C177.986 33.5225 176.271 33.5225 175.213 32.9117C174.723 32.6289 174.46 32.2647 174.423 31.8946C174.381 31.4652 174.296 30.8675 174.864 30.5395C175.922 29.9286 178.267 29.8373 179.325 30.4481C180.163 31.113 180.102 32.3009 179.044 32.9117ZM175.928 31.113C175.266 31.4955 175.266 32.1158 175.928 32.4984C176.591 32.881 177.666 32.881 178.328 32.4984C178.991 32.1158 178.991 31.4955 178.328 31.113C177.666 30.7304 176.591 30.7304 175.928 31.113Z" fill="#DF6461"/>
<path d="M179.045 32.3805C177.987 32.9914 176.272 32.9914 175.214 32.3805C174.155 31.7697 174.155 30.7793 175.214 30.1685C176.272 29.5577 177.987 29.5577 179.045 30.1685C180.103 30.7793 180.103 31.7697 179.045 32.3805Z" fill="url(#paint9_linear)"/>
<path d="M178.693 30.7184L228.028 1.66268C229.773 0.635387 231.935 0.627326 233.687 1.64159L307.535 44.3957C311.285 46.5668 311.263 51.9885 307.496 54.1296L289.46 64.3798" stroke="#EF796D" stroke-width="0.467571" stroke-dasharray="1.4 1.4"/>
<g opacity="0.5" filter="url(#filter16_f)">
<circle r="7.32544" transform="matrix(0.86645 0.499263 -0.86645 0.499263 149 45.217)" fill="#1E396A" fill-opacity="0.2"/>
</g>
<path d="M155.218 38.6573C151.714 40.6801 146.034 40.6801 142.53 38.6573C139.026 36.6344 138.868 32.9477 142.372 30.9249C145.876 28.902 151.81 28.6579 155.314 30.6807C158.817 32.7036 158.722 36.6344 155.218 38.6573Z" fill="#C35348"/>
<circle r="7.32544" transform="matrix(0.866025 0.5 -0.866025 0.5 148.875 34.1804)" fill="url(#paint10_linear)"/>
<path d="M149.746 36.2803C149.742 36.1011 149.632 35.9286 149.435 35.7937C149.237 35.6589 148.966 35.5704 148.669 35.5444L148.302 35.5184C148.21 35.5098 148.126 35.482 148.065 35.44C148.004 35.3979 147.97 35.3442 147.969 35.2885L147.977 33.1998C147.977 33.1439 148.01 33.0898 148.072 33.0475C148.133 33.0052 148.218 32.9777 148.31 32.9699L148.669 32.939C148.966 32.9128 149.238 32.8239 149.434 32.6884C149.631 32.5528 149.74 32.3797 149.741 32.2003L149.741 31.6209C149.741 31.5321 149.712 31.4441 149.656 31.362C149.599 31.2799 149.515 31.2053 149.41 31.1425C149.305 31.0797 149.18 31.0299 149.043 30.996C148.905 30.9621 148.758 30.9447 148.609 30.9449L147.943 30.9449C147.459 30.9445 146.989 31.0434 146.613 31.2252C146.236 31.407 145.975 31.6605 145.874 31.9434C145.325 33.4203 145.325 34.9511 145.874 36.428C145.978 36.7098 146.24 36.9619 146.617 37.1422C146.994 37.3224 147.464 37.4201 147.947 37.4188L148.613 37.4188C148.761 37.419 148.909 37.4016 149.046 37.3677C149.183 37.3338 149.308 37.284 149.413 37.2212C149.519 37.1584 149.602 37.0838 149.659 37.0017C149.716 36.9196 149.745 36.8317 149.744 36.7428L149.746 36.2803Z" fill="#F9F9F9"/>
<path d="M150.875 34.8946C150.811 34.9331 150.775 34.9852 150.775 35.0395C150.775 35.0938 150.811 35.1459 150.875 35.1843C150.939 35.2228 151.027 35.2443 151.118 35.2443C151.209 35.2443 151.296 35.2228 151.36 35.1843C151.803 34.9193 152.052 34.5602 152.052 34.1858C152.052 33.8114 151.803 33.4523 151.36 33.1873C151.296 33.1489 151.209 33.1273 151.118 33.1273C151.027 33.1273 150.939 33.1489 150.875 33.1873C150.811 33.2257 150.775 33.2779 150.775 33.3322C150.775 33.3865 150.811 33.4386 150.875 33.477C151.031 33.5701 151.155 33.6806 151.239 33.8022C151.323 33.9239 151.367 34.0542 151.367 34.1858C151.367 34.3175 151.323 34.4478 151.239 34.5694C151.155 34.6911 151.031 34.8016 150.875 34.8946Z" fill="#F9F9F9"/>
<path d="M152.675 32.4017C152.611 32.3633 152.524 32.3417 152.433 32.3417C152.342 32.3417 152.254 32.3633 152.19 32.4017C152.126 32.4401 152.09 32.4922 152.09 32.5465C152.09 32.6009 152.126 32.653 152.19 32.6914C152.853 33.088 153.226 33.6257 153.226 34.1863C153.226 34.7468 152.853 35.2845 152.19 35.6811C152.126 35.7195 152.09 35.7716 152.09 35.826C152.09 35.8803 152.126 35.9324 152.19 35.9708C152.254 36.0092 152.342 36.0308 152.433 36.0308C152.524 36.0308 152.611 36.0092 152.675 35.9708C153.466 35.4972 153.911 34.8554 153.911 34.1863C153.911 33.5171 153.466 32.8753 152.675 32.4017Z" fill="#F9F9F9"/>
<path d="M63.0276 96.7135C61.9695 97.3243 60.254 97.3243 59.196 96.7135C58.7061 96.4307 58.443 96.0665 58.4067 95.6963C58.3647 95.2669 58.2793 94.6692 58.8475 94.3412C59.9056 93.7304 62.2506 93.639 63.3087 94.2499C64.1461 94.9147 64.0857 96.1026 63.0276 96.7135ZM59.9119 94.9147C59.2491 95.2973 59.2491 95.9176 59.9119 96.3002C60.5746 96.6828 61.649 96.6828 62.3117 96.3002C62.9744 95.9176 62.9744 95.2973 62.3117 94.9147C61.649 94.5321 60.5746 94.5321 59.9119 94.9147Z" fill="#DF6461"/>
<path d="M63.0281 96.1823C61.9701 96.7931 60.2546 96.7931 59.1965 96.1823C58.1384 95.5715 58.1384 94.5811 59.1965 93.9703C60.2546 93.3594 61.9701 93.3594 63.0281 93.9703C64.0862 94.5811 64.0862 95.5715 63.0281 96.1823Z" fill="url(#paint11_linear)"/>
<path d="M60.4723 95.4312L0 129.379" stroke="#EF796D" stroke-width="0.467571" stroke-dasharray="1.4 1.4"/>
<defs>
<filter id="filter0_f" x="8.33877" y="50.8524" width="279.567" height="124.693" filterUnits="userSpaceOnUse" color-interpolation-filters="sRGB">
<feFlood flood-opacity="0" result="BackgroundImageFix"/>
<feBlend mode="normal" in="SourceGraphic" in2="BackgroundImageFix" result="shape"/>
<feGaussianBlur stdDeviation="3.273" result="effect1_foregroundBlur"/>
</filter>
<filter id="filter1_f" x="75.2723" y="55.3358" width="80.464" height="50.8298" filterUnits="userSpaceOnUse" color-interpolation-filters="sRGB">
<feFlood flood-opacity="0" result="BackgroundImageFix"/>
<feBlend mode="normal" in="SourceGraphic" in2="BackgroundImageFix" result="shape"/>
<feGaussianBlur stdDeviation="0.935142" result="effect1_foregroundBlur"/>
</filter>
<filter id="filter2_i" x="33.8887" y="61.0024" width="52.8146" height="30.6754" filterUnits="userSpaceOnUse" color-interpolation-filters="sRGB">
<feFlood flood-opacity="0" result="BackgroundImageFix"/>
<feBlend mode="normal" in="SourceGraphic" in2="BackgroundImageFix" result="shape"/>
<feColorMatrix in="SourceAlpha" type="matrix" values="0 0 0 0 0 0 0 0 0 0 0 0 0 0 0 0 0 0 127 0" result="hardAlpha"/>
<feOffset dx="0.572478" dy="0.572478"/>
<feGaussianBlur stdDeviation="0.286239"/>
<feComposite in2="hardAlpha" operator="arithmetic" k2="-1" k3="1"/>
<feColorMatrix type="matrix" values="0 0 0 0 0.280972 0 0 0 0 0.354025 0 0 0 0 0.495833 0 0 0 0.19 0"/>
<feBlend mode="normal" in2="shape" result="effect1_innerShadow"/>
</filter>
<filter id="filter3_i" x="27.5933" y="65.8755" width="32.511" height="18.9761" filterUnits="userSpaceOnUse" color-interpolation-filters="sRGB">
<feFlood flood-opacity="0" result="BackgroundImageFix"/>
<feBlend mode="normal" in="SourceGraphic" in2="BackgroundImageFix" result="shape"/>
<feColorMatrix in="SourceAlpha" type="matrix" values="0 0 0 0 0 0 0 0 0 0 0 0 0 0 0 0 0 0 127 0" result="hardAlpha"/>
<feOffset dx="0.572478" dy="0.572478"/>
<feGaussianBlur stdDeviation="0.286239"/>
<feComposite in2="hardAlpha" operator="arithmetic" k2="-1" k3="1"/>
<feColorMatrix type="matrix" values="0 0 0 0 0.280972 0 0 0 0 0.354025 0 0 0 0 0.495833 0 0 0 0.19 0"/>
<feBlend mode="normal" in2="shape" result="effect1_innerShadow"/>
</filter>
<filter id="filter4_i" x="180.595" y="47.7017" width="86.1179" height="49.8656" filterUnits="userSpaceOnUse" color-interpolation-filters="sRGB">
<feFlood flood-opacity="0" result="BackgroundImageFix"/>
<feBlend mode="normal" in="SourceGraphic" in2="BackgroundImageFix" result="shape"/>
<feColorMatrix in="SourceAlpha" type="matrix" values="0 0 0 0 0 0 0 0 0 0 0 0 0 0 0 0 0 0 127 0" result="hardAlpha"/>
<feOffset dx="0.572478" dy="0.572478"/>
<feGaussianBlur stdDeviation="0.286239"/>
<feComposite in2="hardAlpha" operator="arithmetic" k2="-1" k3="1"/>
<feColorMatrix type="matrix" values="0 0 0 0 0.280972 0 0 0 0 0.354025 0 0 0 0 0.495833 0 0 0 0.19 0"/>
<feBlend mode="normal" in2="shape" result="effect1_innerShadow"/>
</filter>
<filter id="filter5_i" x="201.584" y="73.6172" width="52.7132" height="30.6172" filterUnits="userSpaceOnUse" color-interpolation-filters="sRGB">
<feFlood flood-opacity="0" result="BackgroundImageFix"/>
<feBlend mode="normal" in="SourceGraphic" in2="BackgroundImageFix" result="shape"/>
<feColorMatrix in="SourceAlpha" type="matrix" values="0 0 0 0 0 0 0 0 0 0 0 0 0 0 0 0 0 0 127 0" result="hardAlpha"/>
<feOffset dx="0.572478" dy="0.572478"/>
<feGaussianBlur stdDeviation="0.286239"/>
<feComposite in2="hardAlpha" operator="arithmetic" k2="-1" k3="1"/>
<feColorMatrix type="matrix" values="0 0 0 0 0.280972 0 0 0 0 0.354025 0 0 0 0 0.495833 0 0 0 0.19 0"/>
<feBlend mode="normal" in2="shape" result="effect1_innerShadow"/>
</filter>
<filter id="filter6_f" x="220.503" y="72.0755" width="63.8237" height="39.7933" filterUnits="userSpaceOnUse" color-interpolation-filters="sRGB">
<feFlood flood-opacity="0" result="BackgroundImageFix"/>
<feBlend mode="normal" in="SourceGraphic" in2="BackgroundImageFix" result="shape"/>
<feGaussianBlur stdDeviation="0.935142" result="effect1_foregroundBlur"/>
</filter>
<filter id="filter7_f" x="96.2821" y="53.3118" width="119.615" height="69.5919" filterUnits="userSpaceOnUse" color-interpolation-filters="sRGB">
<feFlood flood-opacity="0" result="BackgroundImageFix"/>
<feBlend mode="normal" in="SourceGraphic" in2="BackgroundImageFix" result="shape"/>
<feGaussianBlur stdDeviation="0.935142" result="effect1_foregroundBlur"/>
</filter>
<filter id="filter8_b" x="83.2306" y="32.6993" width="135.03" height="85.8039" filterUnits="userSpaceOnUse" color-interpolation-filters="sRGB">
<feFlood flood-opacity="0" result="BackgroundImageFix"/>
<feGaussianBlur in="BackgroundImage" stdDeviation="4.71797"/>
<feComposite in2="SourceAlpha" operator="in" result="effect1_backgroundBlur"/>
<feBlend mode="normal" in="SourceGraphic" in2="effect1_backgroundBlur" result="shape"/>
</filter>
<filter id="filter9_i" x="139.384" y="70.6577" width="36.8925" height="21.5007" filterUnits="userSpaceOnUse" color-interpolation-filters="sRGB">
<feFlood flood-opacity="0" result="BackgroundImageFix"/>
<feBlend mode="normal" in="SourceGraphic" in2="BackgroundImageFix" result="shape"/>
<feColorMatrix in="SourceAlpha" type="matrix" values="0 0 0 0 0 0 0 0 0 0 0 0 0 0 0 0 0 0 127 0" result="hardAlpha"/>
<feOffset dx="0.572478" dy="0.572478"/>
<feGaussianBlur stdDeviation="0.286239"/>
<feComposite in2="hardAlpha" operator="arithmetic" k2="-1" k3="1"/>
<feColorMatrix type="matrix" values="0 0 0 0 0.280972 0 0 0 0 0.354025 0 0 0 0 0.495833 0 0 0 0.19 0"/>
<feBlend mode="normal" in2="shape" result="effect1_innerShadow"/>
</filter>
<filter id="filter10_i" x="142.482" y="68.6763" width="13.3978" height="7.96264" filterUnits="userSpaceOnUse" color-interpolation-filters="sRGB">
<feFlood flood-opacity="0" result="BackgroundImageFix"/>
<feBlend mode="normal" in="SourceGraphic" in2="BackgroundImageFix" result="shape"/>
<feColorMatrix in="SourceAlpha" type="matrix" values="0 0 0 0 0 0 0 0 0 0 0 0 0 0 0 0 0 0 127 0" result="hardAlpha"/>
<feOffset dx="0.572478" dy="0.572478"/>
<feGaussianBlur stdDeviation="0.286239"/>
<feComposite in2="hardAlpha" operator="arithmetic" k2="-1" k3="1"/>
<feColorMatrix type="matrix" values="0 0 0 0 0.280972 0 0 0 0 0.354025 0 0 0 0 0.495833 0 0 0 0.19 0"/>
<feBlend mode="normal" in2="shape" result="effect1_innerShadow"/>
</filter>
<filter id="filter11_i" x="178.256" y="93.2798" width="4.54909" height="2.86817" filterUnits="userSpaceOnUse" color-interpolation-filters="sRGB">
<feFlood flood-opacity="0" result="BackgroundImageFix"/>
<feBlend mode="normal" in="SourceGraphic" in2="BackgroundImageFix" result="shape"/>
<feColorMatrix in="SourceAlpha" type="matrix" values="0 0 0 0 0 0 0 0 0 0 0 0 0 0 0 0 0 0 127 0" result="hardAlpha"/>
<feOffset dx="0.572478" dy="0.572478"/>
<feGaussianBlur stdDeviation="0.286239"/>
<feComposite in2="hardAlpha" operator="arithmetic" k2="-1" k3="1"/>
<feColorMatrix type="matrix" values="0 0 0 0 0.280972 0 0 0 0 0.354025 0 0 0 0 0.495833 0 0 0 0.19 0"/>
<feBlend mode="normal" in2="shape" result="effect1_innerShadow"/>
</filter>
<filter id="filter12_i" x="183.215" y="96.374" width="4.54909" height="2.86817" filterUnits="userSpaceOnUse" color-interpolation-filters="sRGB">
<feFlood flood-opacity="0" result="BackgroundImageFix"/>
<feBlend mode="normal" in="SourceGraphic" in2="BackgroundImageFix" result="shape"/>
<feColorMatrix in="SourceAlpha" type="matrix" values="0 0 0 0 0 0 0 0 0 0 0 0 0 0 0 0 0 0 127 0" result="hardAlpha"/>
<feOffset dx="0.572478" dy="0.572478"/>
<feGaussianBlur stdDeviation="0.286239"/>
<feComposite in2="hardAlpha" operator="arithmetic" k2="-1" k3="1"/>
<feColorMatrix type="matrix" values="0 0 0 0 0.280972 0 0 0 0 0.354025 0 0 0 0 0.495833 0 0 0 0.19 0"/>
<feBlend mode="normal" in2="shape" result="effect1_innerShadow"/>
</filter>
<filter id="filter13_i" x="188.793" y="99.4668" width="4.54909" height="2.86817" filterUnits="userSpaceOnUse" color-interpolation-filters="sRGB">
<feFlood flood-opacity="0" result="BackgroundImageFix"/>
<feBlend mode="normal" in="SourceGraphic" in2="BackgroundImageFix" result="shape"/>
<feColorMatrix in="SourceAlpha" type="matrix" values="0 0 0 0 0 0 0 0 0 0 0 0 0 0 0 0 0 0 127 0" result="hardAlpha"/>
<feOffset dx="0.572478" dy="0.572478"/>
<feGaussianBlur stdDeviation="0.286239"/>
<feComposite in2="hardAlpha" operator="arithmetic" k2="-1" k3="1"/>
<feColorMatrix type="matrix" values="0 0 0 0 0.280972 0 0 0 0 0.354025 0 0 0 0 0.495833 0 0 0 0.19 0"/>
<feBlend mode="normal" in2="shape" result="effect1_innerShadow"/>
</filter>
<filter id="filter14_b" x="97.0943" y="40.0611" width="51.1066" height="37.4323" filterUnits="userSpaceOnUse" color-interpolation-filters="sRGB">
<feFlood flood-opacity="0" result="BackgroundImageFix"/>
<feGaussianBlur in="BackgroundImage" stdDeviation="4.71797"/>
<feComposite in2="SourceAlpha" operator="in" result="effect1_backgroundBlur"/>
<feBlend mode="normal" in="SourceGraphic" in2="effect1_backgroundBlur" result="shape"/>
</filter>
<filter id="filter15_b" x="226.747" y="51.812" width="90.5463" height="56.9299" filterUnits="userSpaceOnUse" color-interpolation-filters="sRGB">
<feFlood flood-opacity="0" result="BackgroundImageFix"/>
<feGaussianBlur in="BackgroundImage" stdDeviation="2.80543"/>
<feComposite in2="SourceAlpha" operator="in" result="effect1_backgroundBlur"/>
<feBlend mode="normal" in="SourceGraphic" in2="effect1_backgroundBlur" result="shape"/>
</filter>
<filter id="filter16_f" x="135.777" y="35.7974" width="26.4474" height="18.8395" filterUnits="userSpaceOnUse" color-interpolation-filters="sRGB">
<feFlood flood-opacity="0" result="BackgroundImageFix"/>
<feBlend mode="normal" in="SourceGraphic" in2="BackgroundImageFix" result="shape"/>
<feGaussianBlur stdDeviation="2.12375" result="effect1_foregroundBlur"/>
</filter>
<linearGradient id="paint0_linear" x1="87.8113" y1="96.6185" x2="150.559" y2="63.1959" gradientUnits="userSpaceOnUse">
<stop stop-color="#ECECEC"/>
<stop offset="1" stop-color="#F5F5F5"/>
</linearGradient>
<linearGradient id="paint1_linear" x1="40.2976" y1="64.4202" x2="108.639" y2="40.8057" gradientUnits="userSpaceOnUse">
<stop stop-color="#FBFBFB"/>
<stop offset="1" stop-color="#F5F5F5"/>
</linearGradient>
<linearGradient id="paint2_linear" x1="188.265" y1="104.414" x2="275.993" y2="57.2647" gradientUnits="userSpaceOnUse">
<stop stop-color="#ECECEC"/>
<stop offset="1" stop-color="#F5F5F5"/>
</linearGradient>
<linearGradient id="paint3_linear" x1="224.177" y1="58.269" x2="184.011" y2="127.838" gradientUnits="userSpaceOnUse">
<stop stop-color="#FBFBFB"/>
<stop offset="1" stop-color="#F5F5F5"/>
</linearGradient>
<linearGradient id="paint4_linear" x1="22.1631" y1="102.061" x2="-26.1218" y2="32.0597" gradientUnits="userSpaceOnUse">
<stop offset="0.178143" stop-color="#FBFBFB"/>
<stop offset="1" stop-color="#F4F5F7"/>
</linearGradient>
<linearGradient id="paint5_linear" x1="19.2377" y1="-24.3314" x2="90.5274" y2="34.7204" gradientUnits="userSpaceOnUse">
<stop stop-color="#FBFBFB"/>
<stop offset="1" stop-color="#CAD4E0"/>
</linearGradient>
<linearGradient id="paint6_linear" x1="-3.23924" y1="4.61901" x2="51.8646" y2="39.4452" gradientUnits="userSpaceOnUse">
<stop stop-color="#2081AE"/>
<stop offset="0.979167" stop-color="#9CDDFD"/>
</linearGradient>
<linearGradient id="paint7_linear" x1="55.136" y1="-10.9633" x2="11.3708" y2="-20.9996" gradientUnits="userSpaceOnUse">
<stop stop-color="#5487B1"/>
<stop offset="1" stop-color="#D0D7EF"/>
</linearGradient>
<linearGradient id="paint8_linear" x1="286.873" y1="63.5095" x2="290.479" y2="65.9367" gradientUnits="userSpaceOnUse">
<stop stop-color="#F48D89"/>
<stop offset="1" stop-color="#EE786C"/>
</linearGradient>
<linearGradient id="paint9_linear" x1="176.292" y1="29.6638" x2="179.898" y2="32.091" gradientUnits="userSpaceOnUse">
<stop stop-color="#F48D89"/>
<stop offset="1" stop-color="#EE786C"/>
</linearGradient>
<linearGradient id="paint10_linear" x1="0.898824" y1="10.9506" x2="30.4257" y2="-0.259971" gradientUnits="userSpaceOnUse">
<stop stop-color="#EE786C"/>
<stop offset="1" stop-color="#D25D51"/>
</linearGradient>
<linearGradient id="paint11_linear" x1="60.2746" y1="93.4655" x2="63.8809" y2="95.8928" gradientUnits="userSpaceOnUse">
<stop stop-color="#F48D89"/>
<stop offset="1" stop-color="#EE786C"/>
</linearGradient>
</defs>
</svg>
