<svg xmlns="http://www.w3.org/2000/svg" width="26" height="26" fill="none" viewBox="0 0 26 26"><rect width="26" height="26" fill="#fff" opacity=".8" rx="13"/><path fill="#2C365A" fill-rule="evenodd" d="M20 8.71444C19.4856 8.9487 18.9317 9.10712 18.3508 9.1779C18.9441 8.81387 19.3993 8.23665 19.6138 7.54903C19.0583 7.8861 18.4444 8.13131 17.7887 8.26277C17.2661 7.6906 16.5191 7.33331 15.6924 7.33331C14.1073 7.33331 12.8213 8.65208 12.8213 10.2784C12.8213 10.5093 12.8459 10.7335 12.8952 10.9492C10.5081 10.8261 8.39209 9.65485 6.97458 7.87093C6.72724 8.30743 6.5859 8.81387 6.5859 9.35318C6.5859 10.3745 7.09291 11.2761 7.86371 11.8045C7.39367 11.7902 6.94993 11.6562 6.56207 11.4371V11.4733C6.56207 12.9008 7.55227 14.0915 8.86705 14.3611C8.62628 14.4302 8.37236 14.4648 8.11023 14.4648C7.92534 14.4648 7.74455 14.4471 7.56952 14.4125C7.9352 15.5821 8.99524 16.4341 10.2525 16.4568C9.26971 17.2472 8.03052 17.7183 6.68533 17.7183C6.4536 17.7183 6.22434 17.7048 6 17.6778C7.27123 18.5121 8.78159 19 10.4029 19C15.6867 19 18.5751 14.5128 18.5751 10.6205C18.5751 10.4925 18.5726 10.3644 18.5677 10.2388C19.1289 9.82338 19.6162 9.30514 20 8.71444Z" clip-rule="evenodd"/></svg>