<svg width="24" height="24" viewBox="0 0 24 24" fill="none" xmlns="http://www.w3.org/2000/svg">
<g clip-path="url(#clip0)">
<path d="M16.4589 15.7102V15.706H9.16863C8.57006 15.706 8.08475 15.2223 8.08223 14.6238V7.74875C8.08223 7.4501 7.83979 7.20764 7.54111 7.20764C7.24244 7.20764 7 7.45008 7 7.74875V14.6238C7 15.8213 7.97105 16.7924 9.16863 16.7924H16.4589C16.7576 16.7924 17 16.5499 17 16.2513C17 15.9526 16.7576 15.7102 16.4589 15.7102Z" fill="#C2C5D0"/>
<path d="M15.8042 9.49368C15.5643 9.31414 15.2245 9.3628 15.045 9.60274L13.7866 11.4064L12.0081 10.0683C11.7694 9.88881 11.43 9.93662 11.2505 10.1753C11.2501 10.1762 11.2497 10.1766 11.2488 10.1774L9.70102 12.4005C9.52024 12.6384 9.5668 12.9781 9.80463 13.1589C9.89565 13.2282 10.0064 13.2667 10.1205 13.2688V13.2814C10.2862 13.2768 10.441 13.1963 10.54 13.0633L11.7984 11.2596L13.5769 12.5977C13.8155 12.7772 14.1549 12.7294 14.3344 12.4907C14.3348 12.4899 14.3353 12.4895 14.3361 12.4886L15.9133 10.2529C16.0928 10.013 16.0441 9.67321 15.8042 9.49368Z" fill="#C2C5D0"/>
</g>
<defs>
<clipPath id="clip0">
<rect width="10" height="10" fill="white" transform="translate(7 7)"/>
</clipPath>
</defs>
</svg>
