<svg width="24" height="24" viewBox="0 0 24 24" fill="none" xmlns="http://www.w3.org/2000/svg">
<path d="M14.1378 13.0596L12.4647 11.8048V9.24864C12.4647 8.99162 12.2569 8.78387 11.9999 8.78387C11.7429 8.78387 11.5352 8.99162 11.5352 9.24864V12.0372C11.5352 12.1836 11.6039 12.3216 11.7211 12.409L13.5801 13.8033C13.6637 13.866 13.7613 13.8962 13.8585 13.8962C14.0002 13.8962 14.1397 13.8325 14.2308 13.7099C14.3851 13.5049 14.3433 13.2135 14.1378 13.0596Z" fill="#C2C5D0"/>
<path d="M12 6C8.6914 6 6 8.6914 6 12C6 15.3086 8.6914 18 12 18C15.3086 18 18 15.3086 18 12C18 8.6914 15.3086 6 12 6ZM12 17.0705C9.20449 17.0705 6.92951 14.7955 6.92951 12C6.92951 9.20449 9.20449 6.92951 12 6.92951C14.796 6.92951 17.0705 9.20449 17.0705 12C17.0705 14.7955 14.7955 17.0705 12 17.0705Z" fill="#C2C5D0"/>
</svg>
