<svg xmlns="http://www.w3.org/2000/svg" width="32" height="32" fill="none" viewBox="0 0 32 32"><circle cx="16" cy="16" r="16" fill="#2C365A"/><path fill="#fff" fill-rule="evenodd" d="M25.3332 9.19721C24.6473 9.50943 23.9088 9.72057 23.1342 9.81491C23.9253 9.32973 24.5323 8.56041 24.8182 7.64396C24.0776 8.0932 23.2591 8.42002 22.3848 8.59522C21.6879 7.83264 20.692 7.35645 19.5898 7.35645C17.4762 7.35645 15.7615 9.1141 15.7615 11.2817C15.7615 11.5894 15.7944 11.8882 15.8601 12.1757C12.6773 12.0117 9.85596 10.4506 7.96595 8.07298C7.63616 8.65475 7.44771 9.32973 7.44771 10.0485C7.44771 11.4097 8.12372 12.6114 9.15145 13.3156C8.52473 13.2965 7.93308 13.1179 7.41593 12.8259V12.8742C7.41593 14.7768 8.7362 16.3637 10.4892 16.7231C10.1682 16.8152 9.82966 16.8612 9.48015 16.8612C9.23362 16.8612 8.99258 16.8377 8.7592 16.7916C9.24677 18.3505 10.6602 19.4859 12.3365 19.5162C11.0261 20.5697 9.37387 21.1975 7.58028 21.1975C7.27131 21.1975 6.96562 21.1796 6.6665 21.1436C8.36148 22.2555 10.3753 22.9058 12.537 22.9058C19.5821 22.9058 23.4333 16.9253 23.4333 11.7377C23.4333 11.5669 23.43 11.3962 23.4234 11.2289C24.1718 10.6752 24.8215 9.9845 25.3332 9.19721Z" clip-rule="evenodd"/></svg>