<svg xmlns="http://www.w3.org/2000/svg" width="105" height="73" fill="none" viewBox="0 0 105 73"><g filter="url(#filter0_f)"><path fill="url(#paint0_linear)" d="M69.8635 68.581L26.2582 61.9525L27.7344 21.5996L102.783 47.8343L69.8635 68.581Z"/></g><rect width="30.811" height="30.811" fill="#60C8D6" transform="matrix(0.866725 0.498786 -0.866725 0.498786 26.7041 0)"/><rect width="30.738" height="30.811" fill="#3873AF" transform="matrix(1.19625e-08 -1 0.866669 0.498883 0.000976562 46.1025)"/><rect width="30.774" height="30.774" fill="#EE786C" transform="matrix(0.867713 -0.499441 -3.76183e-05 0.998816 26.7051 30.7358)"/><path fill="#fff" d="M10.0484 37.9809L11.0175 38.5386C11.1073 38.5902 11.197 38.5592 11.197 38.4353L11.1972 36.5555C11.1972 36.4522 11.1254 36.3076 11.0178 36.2456L10.0486 35.688C9.95888 35.6364 9.86913 35.6673 9.86912 35.7913L9.86894 37.6711C9.88687 37.7847 9.95865 37.9293 10.0484 37.9809Z"/><path fill="#fff" d="M11.9877 39.0967L12.9568 39.6543C13.0465 39.7059 13.1363 39.675 13.1363 39.551L13.1367 35.9773C13.1367 35.8741 13.0649 35.7295 12.9572 35.6675L11.9881 35.1099C11.8983 35.0582 11.8086 35.0892 11.8086 35.2132L11.8082 38.7868C11.8082 38.8901 11.8979 39.045 11.9877 39.0967Z"/><path fill="#fff" d="M14.8947 37.6917L13.9256 37.134C13.8358 37.0824 13.7461 37.1134 13.7461 37.2373L13.7458 39.9227C13.7458 40.026 13.8176 40.1706 13.9253 40.2326L14.8944 40.7902C14.9841 40.8419 15.0739 40.8109 15.0739 40.6869L15.0742 38.0015C15.0562 37.8672 14.9844 37.7433 14.8947 37.6917Z"/><path fill="#fff" d="M14.8943 41.4096L10.0486 38.6213C9.95888 38.5697 9.86913 38.6007 9.86912 38.7246L9.86906 39.3237C9.86905 39.427 9.94083 39.5716 10.0485 39.6335L14.8763 42.4114C14.966 42.4631 15.0557 42.4321 15.0557 42.3081L15.0558 41.7091C15.0558 41.6058 14.984 41.4612 14.8943 41.4096Z"/><path fill="#fff" d="M20.6021 41.719L18.8972 40.2008C18.646 39.3746 18.5384 39.0234 18.3051 38.1868L19.1847 36.9164C19.3104 36.7408 19.2745 36.4102 19.095 36.1211L17.9466 34.1381C17.7671 33.8283 17.4979 33.632 17.3005 33.6631L15.7569 33.7871C15.1647 33.1572 14.9135 32.8886 14.3033 32.269L13.8369 30.0381C13.7651 29.7282 13.5498 29.4184 13.3165 29.2842L11.6833 28.3444C11.432 28.1998 11.2166 28.2618 11.1628 28.4994L10.696 30.1933C10.1037 30.1417 9.8524 30.1211 9.24218 30.0385L7.69883 28.1382C7.48348 27.8697 7.21427 27.7561 7.05273 27.8698L5.90399 28.5309C5.7245 28.6342 5.68858 28.9234 5.81418 29.2229L6.69341 31.5054C6.44209 32.0425 6.33438 32.2698 6.101 32.8379L4.39598 32.3939C4.16266 32.3423 4.00111 32.4972 4.00108 32.7658L4.0009 34.6456C4.00087 34.9348 4.16237 35.2756 4.39568 35.4718L6.10059 36.9899C6.35178 37.8162 6.45943 38.1673 6.69268 39.0039L5.8131 40.2744C5.68744 40.45 5.72331 40.7805 5.90276 41.0697L7.05124 43.0527C7.23069 43.3625 7.49989 43.5587 7.69732 43.5277L9.24086 43.4036C9.83309 44.0336 10.0843 44.3021 10.6945 44.9218L11.1609 47.1527C11.2327 47.4625 11.448 47.7724 11.6814 47.9066L13.3145 48.8464C13.5658 48.9909 13.7812 48.9289 13.835 48.6914L14.3019 46.9975C14.8941 47.049 15.1454 47.0697 15.7556 47.1522L17.299 49.0525C17.5143 49.3211 17.7835 49.4346 17.9451 49.321L19.0938 48.6599C19.2733 48.5566 19.3092 48.2674 19.1836 47.9679L18.3044 45.6853C18.5557 45.1482 18.6634 44.921 18.8968 44.3529L20.6018 44.7969C20.8352 44.8485 20.9967 44.6935 20.9967 44.425L20.9969 42.5452C20.9969 42.2767 20.8354 41.9358 20.6021 41.719ZM12.4715 43.424C10.1563 42.0918 8.27212 38.8385 8.27238 36.1738C8.27264 33.509 10.1573 32.4243 12.4725 33.7565C14.7876 35.0886 16.6718 38.3419 16.6716 41.0067C16.6713 43.6714 14.7867 44.7561 12.4715 43.424Z"/><defs><filter id="filter0_f" width="80.525" height="50.981" x="24.258" y="19.6" color-interpolation-filters="sRGB" filterUnits="userSpaceOnUse"><feFlood flood-opacity="0" result="BackgroundImageFix"/><feBlend in="SourceGraphic" in2="BackgroundImageFix" mode="normal" result="shape"/><feGaussianBlur result="effect1_foregroundBlur" stdDeviation="1"/></filter><linearGradient id="paint0_linear" x1="23.833" x2="94.387" y1="52.22" y2="50.094" gradientUnits="userSpaceOnUse"><stop stop-color="#192449"/><stop offset="1" stop-color="#2C365A" stop-opacity="0"/></linearGradient></defs></svg>