<svg width="96" height="69" viewBox="0 0 96 69" fill="none" xmlns="http://www.w3.org/2000/svg">
<g filter="url(#cube2filter0_f)">
<path d="M63.8753 64.8231L24.0078 58.5577L25.3574 20.416L93.9733 45.2132L63.8753 64.8231Z" fill="url(#cube2paint0_linear)"/>
</g>
<rect width="28.4094" height="28.4094" transform="matrix(0.859402 0.5113 -0.859402 0.5113 24.415 0)" fill="#3873AF"/>
<rect width="29.0534" height="28.4095" transform="matrix(1.15711e-08 -1 0.859344 0.511399 0.0012207 43.5757)" fill="#60C8D6"/>
<rect width="28.7332" height="28.7333" transform="matrix(0.84968 -0.505604 -3.68964e-05 1.01114 24.4146 29.0518)" fill="#EE786C"/>
<g>
<path d="M12.5587 40.6826C12.5587 41.8473 11.7653 42.3193 10.7865 41.737C9.80778 41.1546 9.0144 39.7384 9.0144 38.5737L10.7865 39.6439L12.5587 40.6826Z" fill="white"/>
<path d="M13.8918 37.2164C12.3899 36.0675 11.2301 33.8406 11.2301 31.9838C11.2301 31.4565 11.3249 31.0126 11.4928 30.6585C11.266 30.4604 11.0303 30.2833 10.787 30.1385C9.07697 29.121 7.6858 29.9487 7.6858 31.9837L7.6858 33.4536C7.6858 34.497 7.30169 35.2533 6.6278 35.5303C6.4555 35.6028 6.35669 35.7997 6.35669 36.0696C6.35669 36.5785 6.70446 37.1992 7.13198 37.4536L14.4421 41.8031C14.8697 42.0576 15.2175 41.8506 15.2175 41.3418C15.2175 41.0719 15.1187 40.7574 14.9419 40.4724C14.288 39.4249 13.9087 38.2433 13.8918 37.2164Z" fill="white"/>
<path d="M16.5464 35.1472C16.5464 36.6031 15.5546 37.1931 14.3312 36.4652C13.1078 35.7372 12.116 33.967 12.116 32.5111C12.116 31.0552 13.1078 30.4651 14.3312 31.1931C15.5546 31.921 16.5464 33.6914 16.5464 35.1472Z" fill="white"/>
</g>
<defs>
<filter id="cube2filter0_f" x="22.0078" y="18.416" width="73.9655" height="48.4071" filterUnits="userSpaceOnUse" color-interpolation-filters="sRGB">
<feFlood flood-opacity="0" result="BackgroundImageFix"/>
<feBlend mode="normal" in="SourceGraphic" in2="BackgroundImageFix" result="shape"/>
<feGaussianBlur stdDeviation="1" result="effect1_foregroundBlur"/>
</filter>
<linearGradient id="cube2paint0_linear" x1="9.9166" y1="41.7127" x2="79.9701" y2="47.7958" gradientUnits="userSpaceOnUse">
<stop stop-color="#EE786C" stop-opacity="0.39"/>
<stop offset="1" stop-color="white" stop-opacity="0"/>
</linearGradient>
<clipPath>
<rect width="12.3727" height="12.6532" fill="white" transform="matrix(0.859383 0.511333 -2.1377e-08 1 6.12793 26.312)"/>
</clipPath>
</defs>
</svg>
