<svg width="96" height="69" viewBox="0 0 96 69" fill="none" xmlns="http://www.w3.org/2000/svg">
<g filter="url(#cube4filter0_f)">
<path d="M63.8752 64.8231L24.0075 58.5577L25.3572 20.416L93.9734 45.2132L63.8752 64.8231Z" fill="url(#cube4paint0_linear)"/>
</g>
<rect width="28.4095" height="28.4095" transform="matrix(0.859403 0.511298 -0.859403 0.511298 24.4153 0)" fill="#EE786C"/>
<rect width="29.0534" height="28.4096" transform="matrix(1.15712e-08 -1 0.859345 0.511397 0.000976562 43.5764)" fill="#3873AF"/>
<rect width="28.7333" height="28.7333" transform="matrix(0.849683 -0.505603 -3.68878e-05 1.01114 24.4146 29.052)" fill="#60C8D6"/>
<path d="M5.07784 30.6675L6.44547 31.4812L8.45934 38.8138L7.27206 38.1074L6.90385 36.7169L4.55934 35.3219L4.19113 36.2742L3.06396 35.6036L5.07784 30.6675ZM6.55818 35.4292L6.06974 33.5826C6.00963 33.3561 5.90192 32.8896 5.74662 32.1832L5.70905 32.1608C5.55375 32.6825 5.44605 33.0208 5.38593 33.1758L4.89749 34.4411L6.55818 35.4292Z" fill="white"/>
<path d="M8.97543 32.9865L11.4327 34.4486C12.0088 34.7914 12.4421 35.2251 12.7327 35.7497C13.0232 36.2683 13.1685 36.8466 13.1685 37.4844C13.1685 38.1223 13.0157 38.5292 12.7101 38.7051C12.4095 38.8779 11.9587 38.7855 11.3575 38.4278L10.065 37.6588L10.065 39.7692L8.97543 39.1209L8.97543 32.9865ZM11.335 37.3145C11.5704 37.4546 11.7508 37.4815 11.876 37.395C12.0012 37.3086 12.0639 37.1193 12.0639 36.8272C12.0639 36.5411 12.0012 36.2832 11.876 36.0537C11.7508 35.8182 11.5704 35.6304 11.335 35.4903L10.065 34.7347L10.065 36.5589L11.335 37.3145Z" fill="white"/>
<path d="M13.9875 35.9687L15.0771 36.617L15.0771 42.7513L13.9875 42.103L13.9875 35.9687Z" fill="white"/>
<path d="M17.687 44.4115C17.136 44.0837 16.7026 43.6917 16.387 43.2357C16.0764 42.7766 15.9211 42.3206 15.9211 41.8675L15.9286 41.7647L16.9281 42.3593L16.9281 42.4219C16.9331 42.6335 17.0107 42.8318 17.161 43.0166C17.3163 43.1984 17.5042 43.3549 17.7246 43.486C17.93 43.6082 18.1053 43.6798 18.2506 43.7006C18.3959 43.7215 18.4685 43.6574 18.4685 43.5084C18.4685 43.3415 18.3934 43.1716 18.2431 42.9987C18.0978 42.8288 17.8674 42.6082 17.5518 42.337C17.2261 42.0538 16.9606 41.8064 16.7552 41.5948C16.5498 41.3772 16.372 41.1253 16.2217 40.8392C16.0714 40.553 15.9963 40.246 15.9963 39.9181C15.9963 39.4591 16.1566 39.2027 16.4772 39.1491C16.8028 39.0925 17.2211 39.2162 17.7321 39.5202C18.208 39.8034 18.6013 40.1536 18.9119 40.5709C19.2225 40.9822 19.3778 41.3846 19.3778 41.7781L19.3703 41.9793L18.3708 41.3846L18.3708 41.331C18.3708 41.176 18.3082 41.0195 18.183 40.8615C18.0627 40.7065 17.8999 40.5679 17.6945 40.4457C17.4891 40.3235 17.3263 40.2594 17.2061 40.2534C17.0859 40.2475 17.0258 40.3041 17.0258 40.4233C17.0258 40.5724 17.0934 40.7229 17.2286 40.8749C17.3689 41.0299 17.5918 41.2341 17.8974 41.4875C18.2331 41.7766 18.5061 42.0285 18.7165 42.2431C18.9269 42.4577 19.1098 42.7125 19.2651 43.0076C19.4204 43.3027 19.498 43.6231 19.498 43.9689C19.498 44.9824 18.8943 45.1299 17.687 44.4115Z" fill="white"/>
<defs>
<filter id="cube4filter0_f" x="22.0076" y="18.416" width="73.9659" height="48.4071" filterUnits="userSpaceOnUse" color-interpolation-filters="sRGB">
<feFlood flood-opacity="0" result="BackgroundImageFix"/>
<feBlend mode="normal" in="SourceGraphic" in2="BackgroundImageFix" result="shape"/>
<feGaussianBlur stdDeviation="1" result="effect1_foregroundBlur"/>
</filter>
<linearGradient id="cube4paint0_linear" x1="21.7903" y1="49.3584" x2="79.9389" y2="48.2399" gradientUnits="userSpaceOnUse">
<stop stop-color="#60C8D6" stop-opacity="0.31"/>
<stop offset="1" stop-color="white" stop-opacity="0"/>
</linearGradient>
</defs>
</svg>
