<svg xmlns="http://www.w3.org/2000/svg" width="140" height="88" fill="none" viewBox="0 0 140 88"><g filter="url(#filter0_f)"><path fill="url(#paint0_linear)" d="M92.4416 81.8555L31.759 72.6385L32.4746 25.2717L137.405 58.5562L92.4416 81.8555Z"/></g><rect width="36.07" height="36.07" fill="#60C8D6" transform="matrix(0.86663 0.498952 -0.86663 0.498952 31.2695 0)"/><rect width="35.963" height="36.07" fill="#EE786C" transform="matrix(1.19723e-08 -1 0.866845 0.498578 0 53.9402)"/><rect width="36.017" height="36.017" fill="#3873AF" transform="matrix(0.868154 -0.499287 -3.76761e-05 0.998509 31.2676 35.9612)"/><path fill="#fff" d="M20.6105 53.6041C20.2644 53.3892 19.9281 53.3136 19.6514 53.3887C19.3747 53.4638 19.1724 53.6855 19.0747 54.0209L18.1295 53.4289L18.1295 51.9451C23.4823 55.2764 24.2547 46.8791 19.0565 42.2476C18.1295 36.061 11.4651 31.89 10.5351 36.9097C5.31872 34.9847 6.12754 44.4232 11.4651 47.7704L11.4651 49.2542L10.52 48.6621C9.98987 46.2346 7.3968 45.041 7.3756 47.2353C7.35439 49.4296 9.98987 51.5112 10.52 49.7479L11.9165 50.6226C12.037 50.6981 12.1526 50.7133 12.2378 50.6649C12.323 50.6165 12.3709 50.5084 12.3709 50.3644L12.3709 48.3378L14.3429 49.5731L14.3429 52.6638C12.589 52.1984 12.9495 55.5221 14.7973 56.705C16.6452 57.8878 17.0057 54.9651 15.2517 53.233L15.2517 50.1424L17.2208 51.3758L17.2208 53.4025C17.2208 53.5464 17.2686 53.7145 17.3538 53.8697C17.4391 54.0249 17.5546 54.1545 17.6752 54.2299L19.0716 55.1047C19.6018 57.5359 22.1948 58.7295 22.216 56.5316C22.216 56.0225 22.047 55.4284 21.746 54.8795C21.445 54.3307 21.0366 53.872 20.6105 53.6041ZM8.98415 49.0789C8.79856 48.9627 8.62057 48.7631 8.48934 48.5241C8.35811 48.2851 8.28438 48.0263 8.28438 47.8046C8.28438 47.5829 8.35811 47.4164 8.48934 47.3418C8.62057 47.2672 8.79856 47.2907 8.98415 47.4069C9.16974 47.5232 9.34772 47.7227 9.47895 47.9617C9.61018 48.2007 9.68391 48.4595 9.68391 48.6813C9.68391 48.903 9.61018 49.0694 9.47895 49.144C9.34772 49.2186 9.16974 49.1952 8.98415 49.0789ZM15.4971 55.2216C15.4971 55.4433 15.4234 55.6098 15.2921 55.6843C15.1609 55.7589 14.9829 55.7355 14.7973 55.6192C14.6117 55.503 14.4338 55.3034 14.3025 55.0644C14.1713 54.8254 14.0976 54.5666 14.0976 54.3449C14.0976 54.1232 14.1713 53.9567 14.3025 53.8822C14.4338 53.8076 14.6117 53.831 14.7973 53.9472C14.9829 54.0635 15.1609 54.2631 15.2921 54.5021C15.4234 54.741 15.4971 54.9999 15.4971 55.2216ZM15.2517 49.0566L15.2517 47.5584C15.2517 47.4144 15.2039 47.2463 15.1186 47.0911C15.0334 46.9359 14.9178 46.8063 14.7973 46.7309C14.6768 46.6554 14.5612 46.6402 14.476 46.6886C14.3908 46.737 14.3429 46.8451 14.3429 46.9891L14.3429 48.4874L12.3739 47.2539L12.3739 45.7556C12.3739 45.6117 12.326 45.4436 12.2408 45.2884C12.1556 45.1332 12.04 45.0036 11.9195 44.9281C11.799 44.8527 11.6834 44.8375 11.5982 44.8859C11.513 44.9343 11.4651 45.0424 11.4651 45.1864L11.4651 46.6847C11.0041 46.4153 10.5446 46.0359 10.1138 45.5691C9.683 45.1022 9.28975 44.5574 8.95742 43.9671C8.6251 43.3767 8.36047 42.7529 8.17928 42.1326C7.99809 41.5123 7.90403 40.9082 7.90269 40.3563C7.85725 37.3241 10.6654 37.0203 12.8859 39.8226C12.9929 39.9529 13.1164 40.0407 13.2298 40.067C13.3431 40.0933 13.4372 40.0561 13.4917 39.9633C13.8643 39.2232 12.0074 37.7885 11.4772 37.4202C12.3739 33.9213 17.2208 36.9611 18.1295 41.6018C17.5994 41.3023 15.7394 40.4159 16.112 41.6228C16.1671 41.7835 16.2612 41.9381 16.3744 42.0535C16.4875 42.169 16.6108 42.2363 16.7179 42.2412C18.9202 42.2093 21.7374 46.0369 21.7011 49.0179C21.6977 49.5663 21.6019 50.0504 21.4193 50.4414C21.2366 50.8324 20.9709 51.1224 20.6378 51.2941C20.3047 51.4659 19.911 51.5159 19.4801 51.4412C19.0493 51.3665 18.59 51.1686 18.1295 50.8593L18.1295 49.3611C18.1295 49.2171 18.0817 49.049 17.9965 48.8938C17.9112 48.7386 17.7957 48.6091 17.6752 48.5336C17.5546 48.4581 17.4391 48.4429 17.3538 48.4913C17.2686 48.5397 17.2208 48.6478 17.2208 48.7918L17.2208 50.2901L15.2517 49.0566ZM20.6105 56.3619C20.4249 56.2456 20.2469 56.046 20.1157 55.807C19.9845 55.5681 19.9108 55.3092 19.9108 55.0875C19.9108 54.8658 19.9845 54.6993 20.1157 54.6248C20.2469 54.5502 20.4249 54.5736 20.6105 54.6899C20.7961 54.8061 20.9741 55.0057 21.1053 55.2447C21.2366 55.4837 21.3103 55.7425 21.3103 55.9642C21.3103 56.1859 21.2366 56.3524 21.1053 56.4269C20.9741 56.5015 20.7961 56.4781 20.6105 56.3619Z"/><defs><filter id="filter0_f" width="109.646" height="60.584" x="29.76" y="23.272" color-interpolation-filters="sRGB" filterUnits="userSpaceOnUse"><feFlood flood-opacity="0" result="BackgroundImageFix"/><feBlend in="SourceGraphic" in2="BackgroundImageFix" mode="normal" result="shape"/><feGaussianBlur result="effect1_foregroundBlur" stdDeviation="1"/></filter><linearGradient id="paint0_linear" x1="28.075" x2="125.455" y1="61.123" y2="54.932" gradientUnits="userSpaceOnUse"><stop stop-color="#192449"/><stop offset="1" stop-color="#2C365A" stop-opacity="0"/></linearGradient></defs></svg>