<svg xmlns="http://www.w3.org/2000/svg" width="105" height="73" fill="none" viewBox="0 0 105 73"><g filter="url(#filter0_f)"><path fill="url(#paint0_linear)" d="M69.8635 68.581L26.2582 61.9525L27.7344 21.5996L102.783 47.8343L69.8635 68.581Z"/></g><rect width="30.811" height="30.811" fill="#3873AF" transform="matrix(0.866725 0.498786 -0.866725 0.498786 26.7041 0)"/><rect width="30.738" height="30.811" fill="#EE786C" transform="matrix(1.19625e-08 -1 0.866669 0.498883 0.000976562 46.1025)"/><rect width="30.774" height="30.774" fill="#60C8D6" transform="matrix(0.867713 -0.499441 -3.76183e-05 0.998816 26.7051 30.7358)"/><path fill="#fff" d="M4.83147 37.8176L7.74518 36.1407L7.74414 45.2321L4.83082 43.5559L4.83147 37.8176ZM9.38643 37.6282L8.87358 36.7427L8.87254 45.8814L11.7859 47.5577L11.7865 41.7722L10.8634 40.1784L9.38643 37.6282ZM12.9151 41.1699L12.9143 48.2069L15.8276 49.8832L15.8288 39.493L14.2488 40.4023L12.9151 41.1699ZM16.9573 38.8435L16.956 50.5325L19.8693 52.2087L19.871 37.686L19.6453 37.2964L16.9573 38.8435ZM16.8967 30.3778L18.1686 32.5738L11.8077 36.2347L8.87422 31.1462L8.34087 30.2253L2.00048 33.8744L3.47746 36.4245L8.34048 33.6257L10.3508 37.0968L11.8278 39.6469L13.3052 38.7967L19.6661 35.1357L20.9379 37.3317L21.6771 32.2546L16.8967 30.3778Z"/><defs><filter id="filter0_f" width="80.525" height="50.981" x="24.258" y="19.6" color-interpolation-filters="sRGB" filterUnits="userSpaceOnUse"><feFlood flood-opacity="0" result="BackgroundImageFix"/><feBlend in="SourceGraphic" in2="BackgroundImageFix" mode="normal" result="shape"/><feGaussianBlur result="effect1_foregroundBlur" stdDeviation="1"/></filter><linearGradient id="paint0_linear" x1="23.833" x2="94.387" y1="52.22" y2="50.094" gradientUnits="userSpaceOnUse"><stop stop-color="#192449"/><stop offset="1" stop-color="#2C365A" stop-opacity="0"/></linearGradient></defs></svg>