<svg xmlns="http://www.w3.org/2000/svg" width="105" height="73" fill="none" viewBox="0 0 105 73"><g filter="url(#filter0_f)"><path fill="url(#paint0_linear)" d="M69.8635 68.581L26.2582 61.9525L27.7344 21.5996L102.783 47.8343L69.8635 68.581Z"/></g><rect width="30.811" height="30.811" fill="#3873AF" transform="matrix(0.866725 0.498786 -0.866725 0.498786 26.7041 0)"/><rect width="30.738" height="30.811" fill="#60C8D6" transform="matrix(1.19625e-08 -1 0.866669 0.498883 0.000976562 46.1025)"/><rect width="30.774" height="30.774" fill="#EE786C" transform="matrix(0.867713 -0.499441 -3.76183e-05 0.998816 26.7051 30.7358)"/><path fill="#fff" d="M11.2401 39.9259L4.38384 35.9811C4.17347 35.8601 4.0029 35.9582 4.00287 36.2004L4.0021 41.8997C4.00207 42.1419 4.17258 42.4363 4.38295 42.5573L11.2392 46.5021C11.4496 46.6232 11.6202 46.525 11.6202 46.2829L11.621 40.5835C11.621 40.3414 11.4505 40.047 11.2401 39.9259Z"/><path fill="#fff" d="M11.2401 28.0883L4.38384 24.1435C4.17347 24.0224 4.0029 24.1206 4.00287 24.3627L4.00151 34.4462C4.00148 34.6884 4.17199 34.9828 4.38236 35.1038L11.2387 39.0486C11.449 39.1696 11.6196 39.0715 11.6196 38.8293L11.621 28.7458C11.621 28.5037 11.4505 28.2093 11.2401 28.0883Z"/><path fill="#fff" d="M19.6181 44.7475L12.7618 40.8027C12.5514 40.6816 12.3808 40.7798 12.3808 41.0219L12.38 46.7213C12.38 46.9634 12.5505 47.2578 12.7609 47.3788L19.6172 51.3236C19.8275 51.4447 19.9981 51.3465 19.9981 51.1044L19.9989 45.405C19.9989 45.1629 19.8284 44.8685 19.6181 44.7475Z"/><path fill="#fff" d="M19.62 32.9098L12.7637 28.965C12.5533 28.844 12.3828 28.9421 12.3828 29.1843L12.3814 39.2678C12.3814 39.5099 12.5519 39.8043 12.7622 39.9253L19.6185 43.8701C19.8289 43.9912 19.9995 43.893 19.9995 43.6509L20.0009 33.5674C20.0009 33.3252 19.8304 33.0308 19.62 32.9098Z"/><defs><filter id="filter0_f" width="80.525" height="50.981" x="24.258" y="19.6" color-interpolation-filters="sRGB" filterUnits="userSpaceOnUse"><feFlood flood-opacity="0" result="BackgroundImageFix"/><feBlend in="SourceGraphic" in2="BackgroundImageFix" mode="normal" result="shape"/><feGaussianBlur result="effect1_foregroundBlur" stdDeviation="1"/></filter><linearGradient id="paint0_linear" x1="23.833" x2="94.387" y1="52.22" y2="50.094" gradientUnits="userSpaceOnUse"><stop stop-color="#192449"/><stop offset="1" stop-color="#2C365A" stop-opacity="0"/></linearGradient></defs></svg>