<svg width="121" height="88" viewBox="0 0 121 88" fill="none" xmlns="http://www.w3.org/2000/svg">
<g filter="url(#filter0_f)">
<path d="M82.6509 83.134L35.0588 75.8347L36.6699 31.3987L118.581 60.288L82.6509 83.134Z" fill="url(#paint0_linear)"/>
</g>
<rect width="33.7025" height="33.7025" transform="matrix(0.864796 0.502124 -0.864796 0.502124 35.543 7.61377)" fill="#EE786C"/>
<rect width="33.8479" height="33.7025" transform="matrix(1.18565e-08 -1 0.864739 0.502222 6.40039 58.3813)" fill="#3873AF"/>
<rect width="33.7753" height="33.7753" transform="matrix(0.862894 -0.501108 -3.74173e-05 1.00215 35.543 41.4592)" fill="#60C8D6"/>
<path fill-rule="evenodd" clip-rule="evenodd" d="M36.6195 1.38298C36.6259 1.3322 36.6292 1.28046 36.6292 1.22794C36.6292 0.549769 36.0825 0 35.4082 0C34.734 0 34.1873 0.549769 34.1873 1.22794C34.1873 1.27943 34.1905 1.33017 34.1966 1.37999L1.83842 20.3067C1.65726 20.1997 1.44621 20.1383 1.22091 20.1383C0.546619 20.1383 0 20.6881 0 21.3662C0 21.8605 0.290326 22.2865 0.708811 22.4813V60.0366C0.290326 60.2313 0 60.6574 0 61.1516C0 61.8298 0.546619 62.3796 1.22091 62.3796C1.60437 62.3796 1.94655 62.2018 2.17038 61.9236L34.19 80.8807C34.2321 81.5206 34.7615 82.0264 35.4082 82.0264C36.0562 82.0264 36.5862 81.5188 36.6267 80.8774L68.9957 61.7134C69.1984 62.109 69.6086 62.3796 70.0816 62.3796C70.7559 62.3796 71.3025 61.8298 71.3025 61.1516C71.3025 60.4804 70.767 59.9349 70.1022 59.9238V22.594C70.767 22.5829 71.3025 22.0375 71.3025 21.3662C71.3025 20.6881 70.7559 20.1383 70.0816 20.1383C69.7597 20.1383 69.4669 20.2636 69.2488 20.4683L36.6195 1.38298ZM69.568 60.0373V22.4806C69.318 22.3638 69.1138 22.1644 68.9902 21.9173L36.5738 40.6469C36.6098 40.7627 36.6292 40.8858 36.6292 41.0136C36.6292 41.6004 36.2198 42.0912 35.6726 42.2127V79.5994C36.0593 79.6852 36.3771 79.9554 36.5303 80.3136L68.8609 61.1724C68.8607 61.1655 68.8607 61.1586 68.8607 61.1516C68.8607 60.658 69.1503 60.2324 69.568 60.0373ZM68.8607 21.3662C68.8607 21.2053 68.8914 21.0517 68.9474 20.9109L36.4344 1.89361C36.2169 2.23195 35.8386 2.45589 35.4082 2.45589C34.9769 2.45589 34.5978 2.23092 34.3806 1.89128L2.24047 20.6905C2.36773 20.8843 2.44181 21.1166 2.44181 21.3662C2.44181 21.4608 2.43118 21.5529 2.41106 21.6413L34.5067 40.1855C34.7299 39.9398 35.0512 39.7856 35.4082 39.7856C35.7643 39.7856 36.0847 39.9389 36.3079 40.1834L68.8607 21.3751L68.8607 21.3662ZM34.2851 80.3162C34.4372 79.9584 34.7533 79.688 35.1384 79.6006V42.2114C34.594 42.0879 34.1873 41.5985 34.1873 41.0136C34.1873 40.8868 34.2064 40.7646 34.2419 40.6495L2.18071 22.1252C1.9614 22.4054 1.62346 22.5872 1.24306 22.594V59.9239C1.90713 59.9357 2.44181 60.4809 2.44181 61.1516C2.44181 61.252 2.42983 61.3496 2.40723 61.443L34.2851 80.3162Z" fill="url(#paint1_linear)"/>
<defs>
<filter id="filter0_f" x="33.0586" y="29.3987" width="87.5219" height="55.7353" filterUnits="userSpaceOnUse" color-interpolation-filters="sRGB">
<feFlood flood-opacity="0" result="BackgroundImageFix"/>
<feBlend mode="normal" in="SourceGraphic" in2="BackgroundImageFix" result="shape"/>
<feGaussianBlur stdDeviation="1" result="effect1_foregroundBlur"/>
</filter>
<linearGradient id="paint0_linear" x1="32.4119" y1="65.1173" x2="101.826" y2="63.7491" gradientUnits="userSpaceOnUse">
<stop stop-color="#171F3C"/>
<stop offset="1" stop-color="#263053" stop-opacity="0"/>
</linearGradient>
<linearGradient id="paint1_linear" x1="5.48482" y1="6.23412" x2="67.1174" y2="73.9175" gradientUnits="userSpaceOnUse">
<stop stop-color="#60C8D6"/>
<stop offset="1" stop-color="#60C8D6" stop-opacity="0"/>
</linearGradient>
</defs>
</svg>
