<svg width="96" height="69" viewBox="0 0 96 69" fill="none" xmlns="http://www.w3.org/2000/svg">
<g filter="url(#cube3filter0_f)">
<path d="M63.8747 64.7975L24.0063 58.4939L25.356 20.1191L93.9735 45.0679L63.8747 64.7975Z" fill="url(#cube3paint0_linear)"/>
</g>
<rect width="28.4565" height="28.4565" transform="matrix(0.857472 0.51453 -0.857472 0.51453 24.4149 0)" fill="#60C8D6"/>
<rect width="29.2309" height="28.4555" transform="matrix(1.15012e-08 -1 0.857975 0.513691 0 43.8428)" fill="#EE786C"/>
<rect width="28.8458" height="28.8458" transform="matrix(0.846385 -0.506708 -3.6672e-05 1.01335 24.4141 29.229)" fill="#3873AF"/>
<path d="M9.15708 30.7802C9.38814 30.9185 9.55525 30.9667 9.6584 30.9247C9.76568 30.8802 9.81932 30.7789 9.81932 30.6209L9.81932 30.569C9.81932 30.3813 9.76774 30.1997 9.66459 30.0244C9.56557 29.8515 9.42322 29.7094 9.23754 29.5983C9.06425 29.4946 8.90127 29.4513 8.7486 29.4686C8.59594 29.481 8.46596 29.5538 8.35869 29.6872L7.77691 28.6869C7.85943 28.6078 7.94814 28.5449 8.04304 28.4979C8.13794 28.4461 8.24522 28.4189 8.36488 28.4164C8.48453 28.409 8.61863 28.43 8.76717 28.4794C8.91571 28.5239 9.08281 28.6017 9.26849 28.7128C9.49955 28.8511 9.70792 29.008 9.89359 29.1833C10.0834 29.3612 10.2443 29.5514 10.3763 29.7539C10.5125 29.954 10.6157 30.159 10.6858 30.3689C10.7601 30.5813 10.7972 30.7913 10.7972 30.9988C10.7972 31.1618 10.7745 31.2964 10.7291 31.4026C10.6879 31.5113 10.628 31.5916 10.5496 31.6434C10.4754 31.6978 10.3887 31.7274 10.2897 31.7323C10.1907 31.7323 10.0855 31.7114 9.97405 31.6694L9.97405 31.7138C10.102 31.82 10.2196 31.9398 10.3268 32.0732C10.4382 32.2041 10.5331 32.3449 10.6115 32.4956C10.6941 32.6487 10.758 32.8105 10.8034 32.9809C10.8488 33.1464 10.8715 33.3181 10.8715 33.4959C10.8715 33.7281 10.8323 33.9146 10.7539 34.0553C10.6755 34.1961 10.5641 34.29 10.4197 34.3369C10.2753 34.3838 10.102 34.3838 9.89978 34.3369C9.6976 34.2851 9.47479 34.1863 9.23135 34.0405C9.01267 33.9096 8.81875 33.7664 8.64958 33.6108C8.48041 33.4551 8.33187 33.2946 8.20396 33.1291C8.08018 32.9612 7.97084 32.7895 7.87594 32.6141C7.78516 32.4412 7.7047 32.2671 7.63456 32.0917L8.32155 31.8657C8.41645 32.135 8.53198 32.3795 8.66814 32.5993C8.80843 32.8167 8.99617 32.9957 9.23135 33.1365C9.44178 33.2625 9.60476 33.2983 9.72029 33.244C9.83995 33.1872 9.89978 33.0501 9.89978 32.8327L9.89978 32.7883C9.89978 32.5758 9.8317 32.377 9.69554 32.1918C9.5635 32.004 9.37989 31.8398 9.14471 31.699L8.75479 31.4656L8.75479 30.5394L9.15708 30.7802Z" fill="white"/>
<path d="M11.7232 30.2712L13.3509 31.2456C13.6356 31.416 13.8955 31.6259 14.1307 31.8754C14.3659 32.1249 14.566 32.4077 14.7311 32.7238C14.8961 33.035 15.024 33.3808 15.1148 33.7612C15.2056 34.1366 15.251 34.5392 15.251 34.969C15.251 35.3988 15.2056 35.7495 15.1148 36.0212C15.024 36.288 14.8961 36.4806 14.7311 36.5992C14.566 36.7128 14.3659 36.7536 14.1307 36.7215C13.8955 36.6893 13.6356 36.5881 13.3509 36.4176L11.7232 35.4432L11.7232 30.2712ZM13.3509 35.4173C13.6315 35.5853 13.8522 35.6236 14.0131 35.5322C14.174 35.4408 14.2545 35.1876 14.2545 34.7727L14.2545 33.9724C14.2545 33.5574 14.174 33.2079 14.0131 32.9239C13.8522 32.6398 13.6315 32.4138 13.3509 32.2459L12.6639 31.8346L12.6639 35.0061L13.3509 35.4173Z" fill="white"/>
<path d="M4.0709 38.8905C3.6913 38.6633 3.36947 38.3941 3.1054 38.0829C2.84133 37.7667 2.61646 37.4295 2.43079 37.0714L3.0497 36.6935C3.34265 37.2641 3.70368 37.6778 4.1328 37.9347C4.36386 38.073 4.53509 38.1187 4.64649 38.0717C4.7579 38.0248 4.8136 37.9075 4.8136 37.7198C4.8136 37.5765 4.78059 37.4382 4.71457 37.3048C4.64856 37.1665 4.51446 37.0195 4.31228 36.8639L3.88523 36.5416C3.42723 36.1983 3.09096 35.8315 2.8764 35.4412C2.66597 35.0534 2.56076 34.6422 2.56076 34.2075C2.56076 33.9753 2.59789 33.7851 2.67216 33.6369C2.74643 33.4887 2.85165 33.3862 2.98781 33.3294C3.12809 33.2751 3.29726 33.2701 3.49532 33.3146C3.69749 33.3566 3.92649 33.4541 4.18231 33.6073C4.50827 33.8024 4.79503 34.0358 5.0426 34.3075C5.29016 34.5792 5.50266 34.8867 5.68008 35.23L5.05498 35.6117C4.95182 35.4066 4.82598 35.2152 4.67744 35.0374C4.53303 34.8571 4.34941 34.7002 4.12661 34.5669C3.91618 34.4409 3.75938 34.3915 3.65623 34.4187C3.55308 34.4458 3.5015 34.5385 3.5015 34.6965C3.5015 34.8744 3.5407 35.0263 3.6191 35.1522C3.70162 35.2807 3.83365 35.4165 4.0152 35.5598L4.44225 35.8969C4.88787 36.2477 5.21796 36.6108 5.43251 36.9862C5.64707 37.3567 5.75435 37.7667 5.75435 38.2162C5.75435 38.4632 5.71721 38.6682 5.64294 38.8313C5.56867 38.9943 5.45933 39.1066 5.31492 39.1684C5.17463 39.2326 4.99927 39.2437 4.78884 39.2017C4.57841 39.1548 4.3391 39.0511 4.0709 38.8905Z" fill="white"/>
<path d="M7.84023 41.1469C7.59266 40.9987 7.37192 40.8197 7.17799 40.6097C6.98406 40.3948 6.81902 40.1602 6.68286 39.9058C6.55083 39.6489 6.44974 39.3735 6.37959 39.0796C6.31358 38.7881 6.28057 38.4868 6.28057 38.1756C6.28057 37.8693 6.31358 37.6124 6.37959 37.4049C6.44561 37.1925 6.54257 37.0357 6.67048 36.9344C6.80252 36.8356 6.96343 36.7961 7.15323 36.8158C7.34303 36.8307 7.55965 36.9109 7.80309 37.0567C8.07129 37.2172 8.30028 37.4086 8.49008 37.6309C8.68401 37.8557 8.8408 38.0953 8.96046 38.3497C9.08424 38.6066 9.17295 38.8721 9.22659 39.1463C9.28436 39.418 9.31324 39.6847 9.31324 39.9465L9.31324 40.2726L7.2275 39.024L7.2275 39.0833C7.2275 39.3401 7.28527 39.5797 7.4008 39.802C7.51633 40.0194 7.69788 40.2022 7.94544 40.3504C8.13524 40.464 8.28997 40.5121 8.40963 40.4949C8.52928 40.4726 8.64069 40.4282 8.74384 40.3615L9.20183 41.3174C9.05742 41.4334 8.86762 41.4779 8.63243 41.4507C8.40137 41.426 8.1373 41.3248 7.84023 41.1469ZM7.82166 37.8755C7.63599 37.7643 7.48951 37.7507 7.38223 37.8347C7.27908 37.9162 7.2275 38.078 7.2275 38.3201L7.2275 38.3793L8.3663 39.061L8.3663 38.9944C8.3663 38.7572 8.32092 38.5399 8.23014 38.3423C8.14349 38.1422 8.00733 37.9866 7.82166 37.8755Z" fill="white"/>
<path d="M11.2722 43.2014C11.0288 43.0557 10.8122 42.8791 10.6224 42.6716C10.4326 42.4592 10.2737 42.2282 10.1458 41.9788C10.0179 41.7244 9.92095 41.4514 9.85493 41.16C9.78891 40.8685 9.75591 40.5672 9.75591 40.256C9.75591 39.9448 9.78891 39.6854 9.85493 39.4779C9.92095 39.2655 10.0179 39.1087 10.1458 39.0074C10.2737 38.9061 10.4326 38.8654 10.6224 38.8851C10.8122 38.9049 11.0288 38.9876 11.2722 39.1334C11.6023 39.331 11.8767 39.5841 12.0954 39.8929C12.3182 40.2041 12.4771 40.5487 12.572 40.9266L11.8293 40.8673C11.8004 40.7018 11.7406 40.54 11.6498 40.3819C11.559 40.2239 11.4332 40.0967 11.2722 40.0003C11.0866 39.8892 10.9463 39.8793 10.8514 39.9707C10.7565 40.0571 10.709 40.2239 10.709 40.4709L10.709 41.197C10.709 41.444 10.7565 41.6676 10.8514 41.8676C10.9463 42.0677 11.0866 42.2233 11.2722 42.3344C11.4373 42.4332 11.5673 42.4592 11.6622 42.4122C11.7612 42.3628 11.8334 42.2653 11.8788 42.1196L12.5905 42.9161C12.4832 43.2224 12.3161 43.3941 12.0892 43.4311C11.8664 43.4706 11.5941 43.3941 11.2722 43.2014Z" fill="white"/>
<path d="M15.0761 44.7375L15.0451 44.7189C15.0163 44.8005 14.9771 44.8709 14.9275 44.9301C14.8822 44.9919 14.8223 45.0351 14.7481 45.0598C14.6738 45.0845 14.5851 45.0857 14.4819 45.0635C14.3829 45.0437 14.2674 44.9943 14.1353 44.9153C13.8011 44.7152 13.5474 44.4324 13.3741 44.0669C13.2049 43.6989 13.1203 43.2678 13.1203 42.7739L13.1203 40.3286L14.0363 40.8769L14.0363 43.2259C14.0363 43.463 14.0714 43.6667 14.1415 43.8372C14.2117 44.0076 14.3313 44.1434 14.5005 44.2447C14.5706 44.2867 14.6408 44.3163 14.7109 44.3336C14.7811 44.3509 14.843 44.3534 14.8966 44.341C14.9502 44.3238 14.9936 44.2904 15.0266 44.241C15.0596 44.1916 15.0761 44.12 15.0761 44.0261L15.0761 41.4994L15.9921 42.0477L15.9921 45.9379L15.0761 45.3895L15.0761 44.7375Z" fill="white"/>
<path d="M16.8443 46.4481L16.8443 42.5579L17.7603 43.1062L17.7603 43.9509L17.7913 43.9695C17.8078 43.8707 17.8367 43.7842 17.8779 43.7101C17.9192 43.6311 17.9728 43.5718 18.0388 43.5323C18.109 43.4952 18.1915 43.4829 18.2864 43.4952C18.3813 43.5026 18.4927 43.5446 18.6206 43.6212L18.7815 43.7175L18.7815 44.7401L18.5525 44.603C18.2843 44.4424 18.0842 44.3646 17.9522 44.3696C17.8243 44.377 17.7603 44.4943 17.7603 44.7216L17.7603 46.9964L16.8443 46.4481Z" fill="white"/>
<path d="M20.6718 48.8282C20.4242 48.68 20.2035 48.5009 20.0095 48.2909C19.8156 48.0761 19.6506 47.8414 19.5144 47.587C19.3824 47.3301 19.2813 47.0547 19.2111 46.7608C19.1451 46.4693 19.1121 46.168 19.1121 45.8568C19.1121 45.5505 19.1451 45.2936 19.2111 45.0862C19.2772 44.8738 19.3741 44.7169 19.502 44.6156C19.6341 44.5168 19.795 44.4773 19.9848 44.4971C20.1746 44.5119 20.3912 44.5922 20.6346 44.7379C20.9028 44.8985 21.1318 45.0899 21.3216 45.3122C21.5156 45.5369 21.6724 45.7765 21.792 46.0309C21.9158 46.2878 22.0045 46.5533 22.0581 46.8275C22.1159 47.0992 22.1448 47.3659 22.1448 47.6278L22.1448 47.9538L20.0591 46.7052L20.0591 46.7645C20.0591 47.0214 20.1168 47.261 20.2324 47.4833C20.3479 47.7006 20.5294 47.8834 20.777 48.0316C20.9668 48.1452 21.1215 48.1934 21.2412 48.1761C21.3608 48.1539 21.4722 48.1094 21.5754 48.0427L22.0334 48.9986C21.889 49.1147 21.6992 49.1591 21.464 49.132C21.2329 49.1073 20.9689 49.006 20.6718 48.8282ZM20.6532 45.5567C20.4675 45.4456 20.3211 45.432 20.2138 45.5159C20.1106 45.5975 20.0591 45.7592 20.0591 46.0013L20.0591 46.0606L21.1979 46.7423L21.1979 46.6756C21.1979 46.4385 21.1525 46.2211 21.0617 46.0235C20.975 45.8235 20.8389 45.6678 20.6532 45.5567Z" fill="white"/>
<defs>
<filter id="cube3filter0_f" x="22.0062" y="18.1191" width="73.9672" height="48.6784" filterUnits="userSpaceOnUse" color-interpolation-filters="sRGB">
<feFlood flood-opacity="0" result="BackgroundImageFix"/>
<feBlend mode="normal" in="SourceGraphic" in2="BackgroundImageFix" result="shape"/>
<feGaussianBlur stdDeviation="1" result="effect1_foregroundBlur"/>
</filter>
<linearGradient id="cube3paint0_linear" x1="21.789" y1="49.2384" x2="79.939" y2="48.1265" gradientUnits="userSpaceOnUse">
<stop stop-color="#C2CDEC"/>
<stop offset="1" stop-color="white" stop-opacity="0"/>
</linearGradient>
</defs>
</svg>
