<svg xmlns="http://www.w3.org/2000/svg" width="95" height="65" fill="none" viewBox="0 0 95 65"><g filter="url(#filter0_f)"><path fill="url(#paint0_linear)" d="M62.5447 61.0652L23.5072 55.1631L24.8287 19.2325L92.0162 42.5922L62.5447 61.0652Z"/></g><rect width="27.546" height="27.546" fill="#60C8D6" transform="matrix(0.867889 0.496758 -0.867889 0.496758 23.9069 0)"/><rect width="27.369" height="27.546" fill="#EE786C" transform="matrix(1.20275e-08 -1 0.867833 0.496855 0.000610352 41.0501)"/><rect width="27.458" height="27.458" fill="#3873AF" transform="matrix(0.870642 -0.49842 -3.77609e-05 0.996775 23.9067 27.3675)"/><rect width="4.989" height="4.957" fill="#FBFCFE" transform="matrix(0.867871 0.49679 -2.22201e-08 1 9.33069 36.1889)"/><rect width="4.989" height="4.957" fill="#FBFCFE" transform="matrix(0.867871 0.49679 -2.22201e-08 1 13.6608 33.7098)"/><rect width="4.989" height="4.957" fill="#FBFCFE" transform="matrix(0.867871 0.49679 -2.22201e-08 1 5.00061 28.7524)"/><rect width="4.989" height="4.957" fill="#FBFCFE" transform="matrix(0.867871 0.49679 -2.22201e-08 1 9.33069 26.2742)"/><defs><filter id="filter0_f" width="72.509" height="45.833" x="21.507" y="17.233" color-interpolation-filters="sRGB" filterUnits="userSpaceOnUse"><feFlood flood-opacity="0" result="BackgroundImageFix"/><feBlend in="SourceGraphic" in2="BackgroundImageFix" mode="normal" result="shape"/><feGaussianBlur result="effect1_foregroundBlur" stdDeviation="1"/></filter><linearGradient id="paint0_linear" x1="21.336" x2="78.272" y1="46.497" y2="45.359" gradientUnits="userSpaceOnUse"><stop stop-color="#C2CDEC"/><stop offset="1" stop-color="#fff" stop-opacity="0"/></linearGradient></defs></svg>