<svg xmlns="http://www.w3.org/2000/svg" width="105" height="73" fill="none" viewBox="0 0 105 73"><g filter="url(#filter0_f)"><path fill="url(#paint0_linear)" d="M69.8635 68.581L26.2582 61.9525L27.7344 21.5996L102.783 47.8343L69.8635 68.581Z"/></g><rect width="30.811" height="30.811" fill="#3873AF" transform="matrix(0.866725 0.498786 -0.866725 0.498786 26.7041 0)"/><rect width="30.738" height="30.811" fill="#60C8D6" transform="matrix(1.19625e-08 -1 0.866669 0.498883 0.000976562 46.1025)"/><rect width="30.774" height="30.774" fill="#EE786C" transform="matrix(0.867713 -0.499441 -3.76183e-05 0.998816 26.7051 30.7358)"/><path fill="#fff" d="M13.3848 37.9215L12.6265 37.4852C12.3737 37.3398 12.1209 37.0731 11.9525 36.758C11.784 36.4428 11.6997 36.1034 11.7208 35.8246C11.763 35.3154 12.1844 35.1699 12.6899 35.4608L13.5535 35.9577C13.8274 36.1153 14.0801 36.5031 14.1433 36.8547C14.1643 37.0123 14.2696 37.1698 14.4171 37.2547L15.4071 37.8243C15.4914 37.8728 15.5546 37.8607 15.6178 37.8485C15.6599 37.8 15.702 37.7515 15.681 37.6424C15.5758 36.4181 14.7755 35.0363 13.7644 34.3333L13.7645 33.2908C13.7645 33.121 13.6382 32.9029 13.4907 32.818L12.5007 32.2484C12.3533 32.1636 12.2269 32.2363 12.2268 32.406L12.2267 33.4728C10.9628 32.988 10.0569 33.7761 10.1831 35.352C10.3093 36.8551 11.4256 38.5885 12.7105 39.3278L13.3635 39.7035C13.6163 39.8489 13.869 40.1156 14.0375 40.4308C14.206 40.7459 14.2902 41.0853 14.2691 41.3642C14.2269 41.8733 13.8056 42.0188 13.3001 41.7279L12.4364 41.231C12.1626 41.0735 11.9098 40.6856 11.8467 40.3341C11.8256 40.1765 11.6993 40.0068 11.5729 39.9341L10.5829 39.3644C10.4986 39.3159 10.4354 39.3281 10.3722 39.3402C10.3301 39.3887 10.2879 39.4372 10.309 39.5463C10.4142 40.7706 11.2145 42.1525 12.2256 42.8554L12.2254 43.898C12.2254 44.0677 12.3518 44.2859 12.4992 44.3707L13.4893 44.9403C13.6367 45.0252 13.7631 44.9524 13.7631 44.7827L13.7633 43.6917C14.8586 44.0795 15.7013 43.546 15.8068 42.3944C15.8701 41.6307 15.6595 40.7336 15.1962 39.8851C14.7329 39.0124 14.0588 38.3094 13.3848 37.9215Z"/><path fill="#fff" d="M8.81485 36.9159L6.91884 37.7405L6.91987 29.2064C6.91989 29.0851 6.83564 28.9397 6.73032 28.8791L5.40327 28.1155C5.29795 28.0549 5.21369 28.1034 5.21367 28.2247L5.21264 36.7588L3.31709 33.7527C3.19072 33.5587 3.00113 33.5466 3.00111 33.7406L3.00086 35.7771C3.00085 35.8499 3.02191 35.9105 3.06403 35.9832L5.94948 40.553C6.01266 40.6621 6.11799 40.7227 6.20225 40.6984L9.0884 39.4495C9.13054 39.4252 9.15161 39.3888 9.15161 39.3161L9.15186 37.2796C9.13082 37.0735 8.94125 36.8674 8.81485 36.9159Z"/><path fill="#fff" d="M22.9505 41.1689L20.065 36.5991C20.0019 36.4901 19.8965 36.4295 19.8123 36.4537L16.9261 37.7027C16.884 37.7269 16.8629 37.7633 16.8629 37.836L16.8627 39.8726C16.8626 40.0665 17.0522 40.2726 17.1786 40.2241L19.0746 39.3995L19.0736 47.9336C19.0736 48.0549 19.1578 48.2003 19.2631 48.2609L20.5902 49.0245C20.6955 49.0851 20.7798 49.0366 20.7798 48.9153L20.7808 40.3812L22.6764 43.3873C22.8027 43.5813 22.9923 43.5934 22.9923 43.3994L22.9926 41.3629C23.0137 41.3023 22.9926 41.2416 22.9505 41.1689Z"/><defs><filter id="filter0_f" width="80.525" height="50.981" x="24.258" y="19.6" color-interpolation-filters="sRGB" filterUnits="userSpaceOnUse"><feFlood flood-opacity="0" result="BackgroundImageFix"/><feBlend in="SourceGraphic" in2="BackgroundImageFix" mode="normal" result="shape"/><feGaussianBlur result="effect1_foregroundBlur" stdDeviation="1"/></filter><linearGradient id="paint0_linear" x1="23.833" x2="94.387" y1="52.22" y2="50.094" gradientUnits="userSpaceOnUse"><stop stop-color="#192449"/><stop offset="1" stop-color="#2C365A" stop-opacity="0"/></linearGradient></defs></svg>