<svg xmlns="http://www.w3.org/2000/svg" width="96" height="69" fill="none" viewBox="0 0 96 69">
  <g filter="url(#cube1filter0_f)">
    <path fill="url(#cube1paint0_linear)"
          d="M63.8753 64.8231L24.0075 58.5577L25.3572 20.416L93.9735 45.2132L63.8753 64.8231Z"/>
  </g>
  <rect width="28.41" height="28.41" fill="#60C8D6" transform="matrix(0.859404 0.511298 -0.859404 0.511298 24.4153 0)"/>
  <rect width="29.053" height="28.41" fill="#EE786C"
        transform="matrix(1.15712e-08 -1 0.859345 0.511396 0.000732422 43.5757)"/>
  <rect width="28.733" height="28.733" fill="#3873AF"
        transform="matrix(0.849684 -0.505603 -3.68918e-05 1.01114 24.4144 29.0518)"/>
  <g>
    <path fill="#fff" d="M10.4973 39.3893L9.10767 38.5624L9.97687 32.6456L11.3665 33.4724L10.4973 39.3893Z"/>
    <path fill="#fff"
          d="M15.5355 36.1102C15.2614 35.8169 14.8266 35.4145 14.289 35.0947C12.9167 34.2781 11.9503 34.5792 11.9444 35.8282C11.933 36.7455 12.6363 37.6773 13.1623 38.2984C13.6999 38.9331 13.8827 39.2474 13.8827 39.528C13.8772 39.9558 13.4483 39.8993 13.0482 39.6612C12.4933 39.3311 12.1961 39.0518 11.7443 38.5432L11.5613 38.3315L11.3668 39.6601C11.6928 40.0318 12.2932 40.5468 12.9167 40.9247C14.3748 41.7923 15.3241 41.4946 15.3354 40.1665C15.3409 39.4374 14.9696 38.6552 14.1689 37.7202C13.6829 37.1366 13.3852 36.761 13.3852 36.4598C13.3909 36.1893 13.637 36.0553 14.1856 36.3817C14.6374 36.6368 14.9693 36.9643 15.2208 37.244L15.3465 37.3871L15.5355 36.1102Z"/>
    <path fill="#fff"
          d="M17.3819 41.2064C17.4963 40.9049 17.9367 39.7363 17.9367 39.7363C17.9309 39.7466 18.0509 39.4279 18.1195 39.2292L18.2167 39.8413C18.2167 39.8413 18.4798 41.538 18.537 41.8937C18.3198 41.7645 17.6564 41.3697 17.3819 41.2064ZM19.0973 38.0724L18.0223 37.4328C17.6909 37.2356 17.439 37.202 17.296 37.5345L15.2318 42.2064L16.69 43.074C16.69 43.074 16.93 42.4227 16.9816 42.2824C17.1416 42.3776 18.5601 43.2216 18.7658 43.344C18.8057 43.5936 18.9317 44.4078 18.9317 44.4078L20.2184 45.1734L19.0973 38.0724Z"/>
    <path fill="#fff"
          d="M7.94698 31.4379L6.58603 35.0155L6.43731 34.0372C6.1857 32.8608 5.39659 31.2758 4.51599 30.1971L5.76257 36.5654L7.23212 37.4398L9.41645 32.3122L7.94698 31.4379Z"/>
    <path fill="#fff"
          d="M5.32245 29.8771L3.08659 28.5468L3.06372 28.6632C4.80783 30.2349 5.96292 32.2091 6.43749 34.0384L5.95144 30.7922C5.87142 30.3337 5.62551 30.071 5.32245 29.8771Z"/>
  </g>
  <defs>
    <filter id="cube1filter0_f" width="73.966" height="48.407" x="22.008" y="18.416" color-interpolation-filters="sRGB"
            filterUnits="userSpaceOnUse">
      <feFlood flood-opacity="0" result="BackgroundImageFix"/>
      <feBlend in="SourceGraphic" in2="BackgroundImageFix" mode="normal" result="shape"/>
      <feGaussianBlur result="effect1_foregroundBlur" stdDeviation="1"/>
    </filter>
    <linearGradient id="cube1paint0_linear" x1="21.79" x2="79.939" y1="49.358" y2="48.24" gradientUnits="userSpaceOnUse">
      <stop stop-color="#C2CDEC"/>
      <stop offset="1" stop-color="#fff" stop-opacity="0"/>
    </linearGradient>
    <clipPath id="clip0">
      <rect width="19.962" height="6.647" fill="#fff"
            transform="matrix(0.859384 0.511331 -2.13771e-08 1 3.06372 28.416)"/>
    </clipPath>
  </defs>
</svg>
