<svg xmlns="http://www.w3.org/2000/svg" width="105" height="73" fill="none" viewBox="0 0 105 73"><g filter="url(#filter0_f)"><path fill="url(#paint0_linear)" d="M69.8635 68.581L26.2582 61.9525L27.7344 21.5996L102.783 47.8343L69.8635 68.581Z"/></g><rect width="30.811" height="30.811" fill="#60C8D6" transform="matrix(0.866725 0.498786 -0.866725 0.498786 26.7041 0)"/><rect width="30.738" height="30.811" fill="#3873AF" transform="matrix(1.19625e-08 -1 0.866669 0.498883 0.000976562 46.1025)"/><rect width="30.774" height="30.774" fill="#EE786C" transform="matrix(0.867713 -0.499441 -3.76183e-05 0.998816 26.7051 30.7358)"/><path fill="#fff" fill-rule="evenodd" d="M17.8053 46.682L8.45927 41.3043L8.45916 42.4563C8.27749 43.5328 7.37755 43.9123 6.29481 43.2892C5.08114 42.5909 4.09737 40.8974 4.0975 39.5068C4.09758 38.6487 4.47229 38.1064 5.04442 37.981L4.41435 36.5869C3.55884 36.7769 2.99885 37.5897 2.99873 38.8745C2.99853 40.9605 4.47418 43.5007 6.29469 44.5482C7.92732 45.4877 9.28286 44.9076 9.54541 43.2734L17.7607 48.0005C17.951 48.485 18.3054 48.9412 18.7113 49.1747C19.3181 49.5239 19.8101 49.2433 19.8102 48.548C19.8103 47.8526 19.3184 47.0059 18.7115 46.6567C18.3354 46.4403 18.0034 46.4658 17.8053 46.682Z" clip-rule="evenodd"/><path fill="#fff" fill-rule="evenodd" d="M5.31247 39.6805C5.33146 39.6374 5.35393 39.5972 5.37998 39.5603C5.5819 39.274 5.94741 39.2584 6.32381 39.4728L10.445 33.6292C9.23098 31.7774 8.88226 29.5491 9.6962 28.395C10.6034 27.1086 12.6115 27.6439 14.1814 29.5906C15.1452 30.7857 15.7198 32.235 15.8098 33.4736L14.7195 32.9562C14.6596 32.1304 14.2765 31.1639 13.6338 30.3669C12.5872 29.0692 11.2485 28.7123 10.6437 29.5699C10.0514 30.4097 10.3826 32.1028 11.3795 33.3914L11.982 34.1385L7.31422 40.757C7.44681 41.1522 7.46108 41.5386 7.33463 41.8071C7.18033 42.1989 6.77849 42.3104 6.30709 42.0391C5.7024 41.6912 5.21225 40.8453 5.21231 40.1497C5.21233 39.9617 5.24819 39.8038 5.31247 39.6805Z" clip-rule="evenodd"/><path fill="#fff" fill-rule="evenodd" d="M12.4441 33.1118L17.0635 44.9811L17.6137 44.932L17.6231 44.956C17.6276 44.9556 17.6321 44.9551 17.6367 44.9547C18.6842 44.8614 20.0185 46.0325 20.617 47.5704C21.2156 49.1084 20.8517 50.4308 19.8042 50.5241C19.1585 50.5817 18.4037 50.1587 17.7796 49.4654L17.3134 50.3332C18.2488 51.3703 19.379 52.0027 20.3461 51.9165C21.9173 51.7765 22.4631 49.7928 21.5653 47.4859C20.7547 45.403 19.0443 43.7687 17.5633 43.574L13.4646 33.0423C13.6412 32.7733 13.6512 32.3167 13.4556 31.8141C13.1563 31.0451 12.4891 30.4596 11.9654 30.5063C11.4417 30.5529 11.2597 31.2141 11.559 31.9831C11.7492 32.4718 12.088 32.8865 12.4441 33.1118Z" clip-rule="evenodd"/><defs><filter id="filter0_f" width="80.525" height="50.981" x="24.258" y="19.6" color-interpolation-filters="sRGB" filterUnits="userSpaceOnUse"><feFlood flood-opacity="0" result="BackgroundImageFix"/><feBlend in="SourceGraphic" in2="BackgroundImageFix" mode="normal" result="shape"/><feGaussianBlur result="effect1_foregroundBlur" stdDeviation="1"/></filter><linearGradient id="paint0_linear" x1="23.833" x2="94.387" y1="52.22" y2="50.094" gradientUnits="userSpaceOnUse"><stop stop-color="#192449"/><stop offset="1" stop-color="#2C365A" stop-opacity="0"/></linearGradient></defs></svg>