<svg xmlns="http://www.w3.org/2000/svg" width="105" height="73" fill="none" viewBox="0 0 105 73"><g filter="url(#filter0_f)"><path fill="url(#paint0_linear)" d="M69.8638 68.5809L26.2584 61.9524L27.7346 21.5995L102.784 47.8343L69.8638 68.5809Z"/></g><rect width="30.811" height="30.811" fill="#3873AF" transform="matrix(0.866725 0.498786 -0.866725 0.498786 26.7043 0)"/><rect width="30.738" height="30.811" fill="#EE786C" transform="matrix(1.19625e-08 -1 0.866669 0.498883 0.0012207 46.1025)"/><rect width="30.774" height="30.774" fill="#60C8D6" transform="matrix(0.867713 -0.499441 -3.76183e-05 0.998816 26.7041 30.7358)"/><path fill="#fff" d="M6.42702 38.4411C5.74521 38.0487 5.21941 37.5628 4.84962 36.9833C4.47982 36.3971 4.29492 35.7874 4.29492 35.1541L4.29492 34.9741L5.49965 35.6674L5.49965 35.8774C5.49965 36.1707 5.57765 36.4423 5.73366 36.6921C5.88966 36.9352 6.11501 37.1416 6.40969 37.3112C6.67548 37.4641 6.88638 37.5089 7.04238 37.4453C7.19839 37.3751 7.2764 37.1833 7.2764 36.87C7.2764 36.5033 7.18972 36.1968 7.01638 35.9503C6.84304 35.7039 6.61192 35.4976 6.32302 35.3313L5.881 35.0769L5.881 33.9569L6.34902 34.2263C6.58592 34.3626 6.77948 34.394 6.92971 34.3205C7.07994 34.2403 7.15506 34.0435 7.15506 33.7302C7.15506 33.4435 7.08861 33.1919 6.95571 32.9754C6.8286 32.7623 6.64659 32.5875 6.40969 32.4512C6.16123 32.3082 5.96767 32.2701 5.829 32.337C5.69032 32.3971 5.62099 32.5672 5.62099 32.8472L5.62099 33.0372L4.41626 32.3439L4.41626 32.0639C4.41626 31.6906 4.50004 31.4121 4.66761 31.2285C4.83517 31.0383 5.06629 30.9513 5.36097 30.9676C5.66143 30.9805 6.00234 31.0967 6.38369 31.3162C6.99038 31.6654 7.47285 32.1064 7.83109 32.6392C8.1951 33.1754 8.37711 33.7435 8.37711 34.3435C8.37711 34.7235 8.29333 34.9886 8.12577 35.1388C7.96398 35.2857 7.73575 35.3544 7.44107 35.3448L7.44107 35.3848C7.76464 35.6843 8.02176 36.0323 8.21244 36.4287C8.40311 36.8251 8.49845 37.24 8.49845 37.6733C8.49845 38.0733 8.40889 38.3718 8.22977 38.5687C8.05643 38.7623 7.81375 38.8493 7.50174 38.8297C7.18972 38.8034 6.83149 38.6739 6.42702 38.4411ZM9.39691 33.1704L11.8584 34.5871C12.7655 35.1092 13.4647 35.7982 13.9558 36.6542C14.4527 37.5069 14.7012 38.5065 14.7012 39.6532C14.7012 40.7998 14.4527 41.5169 13.9558 41.8042C13.4647 42.0882 12.7655 41.9692 11.8584 41.4471L9.39691 40.0304L9.39691 33.1704ZM11.8584 40.2171C12.3668 40.5097 12.7511 40.5542 13.0111 40.3505C13.2769 40.1435 13.4098 39.7133 13.4098 39.0599L13.4098 38.7599C13.4098 38.1066 13.2769 37.5268 13.0111 37.0205C12.7511 36.5108 12.3668 36.1097 11.8584 35.8171L10.6536 35.1237L10.6536 39.5237L11.8584 40.2171ZM17.9312 45.0622C17.4747 44.7995 17.0558 44.4784 16.6745 44.0989C16.2989 43.7161 15.9984 43.2998 15.7731 42.8501C15.5478 42.4004 15.4351 41.9489 15.4351 41.4956L15.4438 41.2806L16.7178 42.0138L16.7091 42.1688C16.7091 42.4622 16.8218 42.7604 17.0472 43.0634C17.2725 43.3664 17.5874 43.6343 17.9919 43.8671C18.4194 44.1132 18.7286 44.2278 18.9192 44.2108C19.1099 44.1872 19.2053 44.0654 19.2053 43.8454C19.2053 43.6521 19.1417 43.4555 19.0146 43.2557C18.8932 43.0525 18.7372 42.8594 18.5466 42.6763C18.3617 42.4899 18.1045 42.2486 17.7752 41.9524C17.3072 41.5297 16.9287 41.1652 16.6398 40.8589C16.3509 40.5527 16.1024 40.203 15.8944 39.81C15.6864 39.4102 15.5824 38.9837 15.5824 38.5304C15.5824 37.9037 15.802 37.5534 16.2411 37.4795C16.6803 37.4055 17.2638 37.5781 17.9919 37.9971C18.6795 38.3928 19.2399 38.8854 19.6733 39.4748C20.1124 40.0609 20.332 40.6906 20.332 41.3639L20.332 41.4839L19.0839 40.7656L19.0839 40.6756C19.0839 40.4223 18.9828 40.1641 18.7806 39.901C18.5841 39.6413 18.3154 39.4133 17.9745 39.2171C17.6105 39.0076 17.3303 38.903 17.1338 38.9033C16.9432 38.9069 16.8478 39.0087 16.8478 39.2087C16.8478 39.362 16.9056 39.5286 17.0212 39.7084C17.1367 39.8816 17.2812 40.0547 17.4545 40.2278C17.6279 40.3943 17.8734 40.6189 18.1912 40.9018C18.665 41.3212 19.0521 41.6906 19.3526 42.0102C19.6588 42.3265 19.9217 42.6878 20.1413 43.0942C20.3609 43.5005 20.4706 43.9304 20.4706 44.3837C20.4706 45.117 20.2424 45.5257 19.786 45.6096C19.3353 45.6969 18.717 45.5144 17.9312 45.0622Z"/><defs><filter id="filter0_f" width="80.525" height="50.981" x="24.259" y="19.599" color-interpolation-filters="sRGB" filterUnits="userSpaceOnUse"><feFlood flood-opacity="0" result="BackgroundImageFix"/><feBlend in="SourceGraphic" in2="BackgroundImageFix" mode="normal" result="shape"/><feGaussianBlur result="effect1_foregroundBlur" stdDeviation="1"/></filter><linearGradient id="paint0_linear" x1="23.833" x2="94.387" y1="52.22" y2="50.094" gradientUnits="userSpaceOnUse"><stop stop-color="#192449"/><stop offset="1" stop-color="#2C365A" stop-opacity="0"/></linearGradient></defs></svg>