<svg xmlns="http://www.w3.org/2000/svg" width="24" height="24" fill="none" viewBox="0 0 24 24"><path fill="#D5D7DE" fill-rule="evenodd" d="M19.7342 8.07291C20.0312 8.41325 14.2242 18.9915 14.0045 19.0537C13.8839 19.0906 13.0401 18.2385 11.176 16.0183C10.4613 15.1663 10.7843 15.2707 8.14423 16.658C7.63173 16.9188 7.63173 16.9188 7.55438 16.1693C7.4598 15.4152 7.27065 13.9069 7.17607 13.1527C7.0815 12.3986 7.0815 12.3986 6.49595 11.8937C4.7221 10.3744 3.77488 9.63325 3.81798 9.47138C3.92141 9.0829 19.3941 7.68627 19.7342 8.07291ZM8.20069 14.4352C8.12757 14.0165 8.03736 12.9686 8.00733 12.4574C7.96438 11.9253 7.96438 11.9253 9.43291 11.4713C18.524 8.66606 18.692 8.24296 10.2982 12.52C8.65307 13.3602 9.07516 13.0229 8.51937 14.3477C8.42889 14.5488 8.35135 14.7014 8.30399 14.6713C8.26954 14.662 8.2351 14.5833 8.20069 14.4352Z" clip-rule="evenodd"/></svg>