<svg xmlns="http://www.w3.org/2000/svg" width="50" height="50" fill="none" viewBox="0 0 50 50"><mask width="50" height="51" x="0" y="0" mask-type="alpha" maskUnits="userSpaceOnUse"><rect width="50" height="50" fill="#EE786C" transform="matrix(4.37114e-08 -1 -1 -4.37114e-08 50 50.0001)"/></mask><g><rect width="50" height="37.727" fill="#3873AF" transform="matrix(4.37114e-08 -1 -1 -4.37114e-08 50 50.0001)"/><rect width="25.909" height="50" fill="#35488F" transform="matrix(4.37114e-08 -1 -1 -4.37114e-08 50 25.9094)"/><rect width="12.273" height="38.636" fill="#60C8D6" transform="matrix(4.37114e-08 -1 -1 -4.37114e-08 50 50.0001)"/><circle cx="12.046" cy="37.955" r="12.046" fill="#EE786C"/><path fill="#fff" d="M24.091 37.9549C24.091 37.9549 18.6981 37.9549 12.0455 37.9549C12.0455 31.3024 12.0455 25.9094 12.0455 25.9094C18.6981 25.9094 24.091 31.3024 24.091 37.9549Z"/></g><path fill="#253160" d="M50 0.00012207L50 25.9092L24.0909 25.9092L50 0.00012207Z"/></svg>
