<svg xmlns="http://www.w3.org/2000/svg" width="50" height="50" fill="none" viewBox="0 0 50 50"><mask width="50" height="50" x="0" y="0"
                                                                                                     maskUnits="userSpaceOnUse"><rect width="50" height="50" fill="#EE786C" transform="matrix(4.37114e-08 -1 -1 -4.37114e-08 50 50)"/></mask><g><rect width="50" height="50" fill="#EE786C" transform="matrix(4.37114e-08 -1 -1 -4.37114e-08 50 50)"/><rect width="11.923" height="50" fill="#35488F" transform="matrix(4.37114e-08 -1 -1 -4.37114e-08 50 11.923)"/><rect width="38.077" height="18.077" fill="#60C8D6" transform="matrix(4.37114e-08 -1 -1 -4.37114e-08 50 50)"/></g><ellipse cx="10.269" cy="20.287" fill="#fff" fill-opacity=".95" rx="2.192" ry="2.21"/><ellipse cx="21.628" cy="20.287" fill="#fff" fill-opacity=".95" rx="2.192" ry="2.21"/><ellipse cx="10.269" cy="31.537" fill="#fff" rx="2.192" ry="2.21"/><ellipse cx="21.628" cy="31.537" fill="#fff" fill-opacity=".95" rx="2.192" ry="2.21"/><ellipse cx="10.269" cy="42.988" fill="#fff" fill-opacity=".95" rx="2.192" ry="2.21"/><ellipse cx="21.628" cy="42.988" fill="#fff" fill-opacity=".95" rx="2.192" ry="2.21"/></svg>
