<svg xmlns="http://www.w3.org/2000/svg" width="40" height="40" fill="none" viewBox="0 0 40 40"><path fill="#EE786C" fill-rule="evenodd" d="M21.4269 39.7818C31.6836 39.7818 39.9983 30.8764 39.9983 19.8909C39.9983 8.90547 31.6836 0 21.4269 0C11.1702 0 2.85547 8.90547 2.85547 19.8909C2.85547 30.8764 11.1702 39.7818 21.4269 39.7818ZM21.4274 37.3386C30.4246 37.3386 37.7182 29.5268 37.7182 19.8905C37.7182 10.2541 30.4246 2.44229 21.4274 2.44229C12.4303 2.44229 5.13672 10.2541 5.13672 19.8905C5.13672 29.5268 12.4303 37.3386 21.4274 37.3386Z" clip-rule="evenodd"/><path fill="#EE786C" fill-rule="evenodd" d="M21.4273 35.5947C29.5247 35.5947 36.0889 28.5641 36.0889 19.8913C36.0889 11.2186 29.5247 4.18799 21.4273 4.18799C13.3299 4.18799 6.76562 11.2186 6.76562 19.8913C6.76562 28.5641 13.3299 35.5947 21.4273 35.5947ZM21.4275 33.6659C28.5305 33.6659 34.2886 27.4987 34.2886 19.8911C34.2886 12.2834 28.5305 6.11618 21.4275 6.11618C14.3245 6.11618 8.56641 12.2834 8.56641 19.8911C8.56641 27.4987 14.3245 33.6659 21.4275 33.6659Z" clip-rule="evenodd"/><path fill="#EE786C" fill-rule="evenodd" d="M21.4277 31.4071C27.3658 31.4071 32.1795 26.2513 32.1795 19.8913C32.1795 13.5313 27.3658 8.37549 21.4277 8.37549C15.4896 8.37549 10.6758 13.5313 10.6758 19.8913C10.6758 26.2513 15.4896 31.4071 21.4277 31.4071ZM21.4276 29.9927C26.6364 29.9927 30.859 25.4701 30.859 19.8911C30.859 14.3122 26.6364 9.78954 21.4276 9.78954C16.2187 9.78954 11.9961 14.3122 11.9961 19.8911C11.9961 25.4701 16.2187 29.9927 21.4276 29.9927Z" clip-rule="evenodd"/><path fill="#35488F" d="M0 0.218262H17.9592L28.1633 20.1092L17.9592 40.0001H0V0.218262Z"/><path fill="#5166B7" d="M0 0.218262H17.551V20.1092V40.0001H0V0.218262Z"/><ellipse cx="27.345" cy="19.891" fill="#60C8D6" rx="2.857" ry="3.06"/><path fill="#fff" fill-rule="evenodd" d="M26.5441 16.9521L28.1633 20.1083L26.7405 22.8817C25.4531 22.5845 24.4883 21.3581 24.4883 19.8903C24.4883 18.4982 25.3562 17.3232 26.5441 16.9521Z" clip-rule="evenodd"/></svg>