<svg xmlns="http://www.w3.org/2000/svg" width="50" height="50" fill="none" viewBox="0 0 50 50"><path fill="#3873AF" d="M50 37.7273C50 37.7273 39.0107 37.7273 25.4546 37.7273C25.4546 24.4222 25.4546 13.6364 25.4546 13.6364C39.0107 13.6364 50 24.4222 50 37.7273Z"/><path fill="#3873AF" d="M25.4545 13.6364C25.4545 13.6364 25.4545 24.4222 25.4545 37.7273C11.3964 37.7273 0 37.7273 0 37.7273C1.58661e-07 24.4222 11.3964 13.6364 25.4545 13.6364Z"/><circle cx="19.773" cy="26.136" r="7.5" fill="#EE786C"/><circle cx="19.773" cy="26.136" r="3.409" fill="#fff"/><rect width="14.546" height="24.091" fill="#60C8D6" transform="matrix(4.37114e-08 -1 -1 -4.37114e-08 49.5454 14.5454)"/><rect width="12.273" height="50" fill="#3873AF" transform="matrix(4.37114e-08 -1 -1 -4.37114e-08 50 50)"/><rect width="7.273" height="12.273" fill="#2D365C" transform="matrix(4.37114e-08 -1 -1 -4.37114e-08 12.2727 50)"/><rect width="7.273" height="12.273" fill="#2D365C" transform="matrix(4.37114e-08 -1 -1 -4.37114e-08 50 50)"/><path fill="#60C8D6" d="M25.4546 21.3636L25.4546 14.5455L32.2728 14.5455L25.4546 21.3636Z"/><circle cx="7.727" cy="7.273" r="1.818" fill="#EE786C"/><circle cx="13.636" cy="7.273" r="1.818" fill="#EE786C"/><circle cx="1.818" cy="7.273" r="1.818" fill="#EE786C"/><circle cx="7.727" cy="7.273" r="1.818" fill="#EE786C"/><circle cx="13.636" cy="7.273" r="1.818" fill="#EE786C"/><circle cx="1.818" cy="7.273" r="1.818" fill="#EE786C"/></svg>