<svg xmlns="http://www.w3.org/2000/svg" width="40" height="40" fill="none" viewBox="0 0 40 40"><mask id="pciIcon1Mask0" width="40" height="40" x="0" y="0" mask-type="alpha" maskUnits="userSpaceOnUse"><rect width="40" height="40" fill="#EE786C" transform="matrix(4.37114e-08 -1 -1 -4.37114e-08 40 40)"/></mask><g mask="url(#pciIcon1Mask0)"><rect width="40" height="40" fill="#EE786C" transform="matrix(4.37114e-08 -1 -1 -4.37114e-08 40 40)"/><rect width="9.538" height="40" fill="#35488F" transform="matrix(4.37114e-08 -1 -1 -4.37114e-08 40 9.53809)"/><rect width="30.462" height="14.461" fill="#60C8D6" transform="matrix(4.37114e-08 -1 -1 -4.37114e-08 40 40)"/></g><ellipse cx="8.215" cy="16.23" fill="#fff" fill-opacity=".95" rx="1.754" ry="1.768"/><ellipse cx="17.301" cy="16.23" fill="#fff" fill-opacity=".95" rx="1.754" ry="1.768"/><ellipse cx="8.215" cy="25.23" fill="#fff" rx="1.754" ry="1.768"/><ellipse cx="17.301" cy="25.23" fill="#fff" fill-opacity=".95" rx="1.754" ry="1.768"/><ellipse cx="8.215" cy="34.39" fill="#fff" fill-opacity=".95" rx="1.754" ry="1.768"/><ellipse cx="17.301" cy="34.39" fill="#fff" fill-opacity=".95" rx="1.754" ry="1.768"/></svg>
