<svg xmlns="http://www.w3.org/2000/svg" width="26" height="26" fill="none" viewBox="0 0 26 26"><path fill="#fff" fill-rule="evenodd" d="M13 26C5.8203 26 0 20.1797 0 13C0 5.8203 5.8203 0 13 0C20.1797 0 26 5.8203 26 13C26 20.1797 20.1797 26 13 26Z" clip-rule="evenodd" opacity=".8"/><path fill="#2C365A" d="M19.9068 18.2811V13.4876C19.9068 11.1337 19.3992 9.32413 16.6507 9.32413C15.3296 9.32413 14.4432 10.0488 14.0806 10.7359H14.0437V9.54184H11.438V18.2811H14.1532V13.9583C14.1532 12.8178 14.3689 11.7139 15.7823 11.7139C17.174 11.7139 17.194 13.0175 17.194 14.0312V18.2811H19.9068ZM8.37622 8.34711C9.24433 8.34711 9.95001 7.64139 9.95001 6.77188C9.95001 5.90338 9.24433 5.19733 8.37622 5.19733C7.5054 5.19733 6.80176 5.90338 6.80176 6.77188C6.80176 7.64139 7.5054 8.34711 8.37622 8.34711ZM7.01743 18.2807H9.73468V9.54184H7.01743V18.2807Z"/></svg>