<svg xmlns="http://www.w3.org/2000/svg" fill="none" preserveAspectRatio="xMinYMin slice" viewBox="0 0 320 662"><path fill="url(#apiBenefitsMobilePaint0_linear)" d="M559.209 -119.192L677.36 -106.625L677.358 561.99L576.568 561.989L-1.60937 564.042L-1.60974 200.595L559.209 -119.192Z"/><path stroke="url(#apiBenefitsMobilePaint1_linear)" stroke-dasharray="5 5" d="M161.334 189.465L171.64 183.058C178.659 178.695 178.539 168.44 171.42 164.241L166.244 161.189C159.198 157.033 159.1 146.844 165.971 142.404V142.404"/><path stroke="#EF796D" stroke-dasharray="2.5 2.5" stroke-width=".501" d="M-16.0129 85.1433L166.512 187.76C169.178 189.258 169.249 193.07 166.641 194.667L-40.3545 321.373"/><path stroke="url(#apiBenefitsMobilePaint2_linear)" d="M-28.7637 328.791L142.091 221.92"/><path fill="#DF6461" d="M144.851 223.286C143.519 224.055 141.36 224.055 140.029 223.286C139.412 222.931 139.081 222.472 139.036 222.006C138.983 221.466 138.875 220.714 139.59 220.301C140.922 219.532 143.873 219.417 145.205 220.186C146.258 221.023 146.182 222.518 144.851 223.286ZM140.93 221.023C140.096 221.504 140.096 222.285 140.93 222.766C141.764 223.248 143.116 223.248 143.95 222.766C144.784 222.285 144.784 221.504 143.95 221.023C143.116 220.541 141.764 220.541 140.93 221.023Z"/><path fill="url(#apiBenefitsMobilePaint3_linear)" d="M144.85 222.618C143.519 223.387 141.36 223.387 140.028 222.618C138.697 221.85 138.697 220.603 140.028 219.834C141.36 219.066 143.519 219.066 144.85 219.834C146.182 220.603 146.182 221.85 144.85 222.618Z"/><path stroke="#EF796D" stroke-dasharray="2.5 2.5" stroke-width=".501" d="M197.034 159.791L235.158 138.248C237.868 136.717 237.872 132.816 235.166 131.279L185.634 103.148C182.964 101.632 182.924 97.7967 185.563 96.225L285.128 36.9236"/><rect width="54.944" height="54.944" fill="url(#apiBenefitsMobilePaint4_linear)" transform="matrix(0.866044 0.499967 -0.866044 0.499967 182.026 53.6147)"/><rect width="54.944" height="54.944" fill="url(#apiBenefitsMobilePaint5_linear)" transform="matrix(1.19249e-08 -1 0.865988 0.500065 134.444 136.024)"/><rect width="54.944" height="54.944" fill="url(#apiBenefitsMobilePaint6_linear)" transform="matrix(0.866007 -0.500033 -3.75718e-05 1 182.024 108.556)"/><path stroke="url(#apiBenefitsMobilePaint7_linear)" d="M229.48 81.1099L181.662 108.007M181.662 108.007L134.741 81.1099M181.662 108.007V162.699"/><rect width="31.361" height="31.361" fill="#60C8D6" transform="matrix(0.866044 0.499967 -0.866044 0.499967 108.808 116.863)"/><rect width="31.361" height="31.361" fill="#EE786C" transform="matrix(1.19249e-08 -1 0.865988 0.500065 81.6484 163.901)"/><rect width="31.361" height="31.361" fill="#3873AF" transform="matrix(0.866007 -0.500033 -3.75718e-05 1 108.807 148.222)"/><g filter="url(#apiBenefitsMobileFilter0_b)"><rect width="72.725" height="72.725" fill="url(#apiBenefitsMobilePaint8_linear)" fill-opacity=".6" transform="matrix(0.866025 -0.5 0.866025 0.5 45.9121 124.751)"/></g><g filter="url(#apiBenefitsMobileFilter1_b)"><path fill="url(#apiBenefitsMobilePaint9_linear)" fill-opacity=".6" d="M45.9121 167.079L45.9121 124.752L109.022 160.922L109.022 203.441L45.9121 167.079Z"/></g><g filter="url(#apiBenefitsMobileFilter2_b)"><path fill="url(#apiBenefitsMobilePaint10_linear)" fill-opacity=".6" d="M171.969 167.079L171.969 124.752L108.987 160.922L108.987 203.441L171.969 167.079Z"/></g><path stroke="url(#apiBenefitsMobilePaint11_linear)" stroke-width="2" d="M46.1963 124.174L109.109 160.536M109.109 160.536L172.022 124.174M109.109 160.536V202.478"/><g opacity=".7"><rect width="39.083" height="39.083" fill="url(#apiBenefitsMobilePaint12_linear)" transform="matrix(0.866025 -0.5 0.866025 0.5 149.743 214.509)"/><path fill="url(#apiBenefitsMobilePaint13_linear)" d="M149.743 214.509L183.59 194.968L183.59 214.509L183.59 234.05L149.743 214.509Z"/><mask id="apiBenefitsMobileMask0" width="69" height="41" x="149" y="194"
                                                                                                                                                                                                                                                                                                                                                                                                                                                                                                                                                                                                                                                                                                                                                                                                                                                                                                                                                                                                                                         maskUnits="userSpaceOnUse"><rect width="39.083" height="39.083" fill="url(#apiBenefitsMobilePaint14_linear)" transform="matrix(0.866025 -0.5 0.866025 0.5 149.743 214.509)"/></mask><g mask="url(#apiBenefitsMobileMask0)"><rect width="39.083" height="39.083" fill="url(#apiBenefitsMobilePaint15_linear)" transform="matrix(0.866025 -0.5 0.866025 0.5 149.743 217.197)"/></g><rect width="38.083" height="38.083" x=".866" stroke="url(#apiBenefitsMobilePaint16_linear)" transform="matrix(0.866025 -0.5 0.866025 0.5 149.859 214.942)"/></g><g opacity=".7"><rect width="39.083" height="39.083" fill="url(#apiBenefitsMobilePaint17_linear)" transform="matrix(0.857334 -0.51476 0.874463 0.485093 118.551 286.665)"/><path fill="url(#apiBenefitsMobilePaint18_linear)" d="M118.551 286.665L152.058 266.546L152.392 286.085L152.727 305.623L118.551 286.665Z"/><mask id="apiBenefitsMobileMask1" width="69" height="40" x="118" y="266"
                                                                                                                                                                                                                                                                                                                                                                                                                                                                                                                                                                                                                                                                                                                                                                                                                                                                                                                                                                                                                                                                                                                                                                                                                                                                                                                                                                                                                                                                                                                                                                                                                                                                                                                                                                                                                                                                                                                      maskUnits="userSpaceOnUse"><rect width="39.083" height="39.083" fill="url(#apiBenefitsMobilePaint19_linear)" transform="matrix(0.857334 -0.51476 0.874463 0.485093 118.551 286.665)"/></mask><g mask="url(#apiBenefitsMobileMask1)"><rect width="39.083" height="39.083" fill="url(#apiBenefitsMobilePaint20_linear)" transform="matrix(0.857334 -0.51476 0.874463 0.485093 118.597 289.353)"/></g><rect width="38.083" height="38.083" x=".866" y="-.015" stroke="url(#apiBenefitsMobilePaint21_linear)" transform="matrix(0.857334 -0.51476 0.874463 0.485093 118.687 287.103)"/></g><rect width="12.347" height="12.347" fill="#EE786C" transform="matrix(0.866044 0.499967 -0.866044 0.499967 216.554 131.972)"/><rect width="12.347" height="12.347" fill="#3873AF" transform="matrix(1.19249e-08 -1 0.865988 0.500065 205.861 150.491)"/><rect width="12.347" height="12.347" fill="#60C8D6" transform="matrix(0.866007 -0.500033 -3.75718e-05 1 216.553 144.318)"/><rect width="36.137" height="36.137" fill="url(#apiBenefitsMobilePaint22_linear)" transform="matrix(0.866044 0.499967 -0.866044 0.499967 182.43 127.799)"/><rect width="36.137" height="36.137" fill="url(#apiBenefitsMobilePaint23_linear)" transform="matrix(1.19249e-08 -1 0.865988 0.500065 151.135 182)"/><rect width="36.137" height="36.137" fill="url(#apiBenefitsMobilePaint24_linear)" transform="matrix(0.866007 -0.500033 -3.75718e-05 1 182.43 163.934)"/><path stroke="url(#apiBenefitsMobilePaint25_linear)" d="M213.64 145.883L182.19 163.574M182.19 163.574L151.33 145.883M182.19 163.574V199.545"/><rect width="7.375" height="7.375" fill="url(#apiBenefitsMobilePaint26_linear)" transform="matrix(0.866044 0.499967 -0.866044 0.499967 191.111 179.264)"/><path fill="url(#apiBenefitsMobilePaint27_linear)" d="M184.725 211.523L184.725 182.951L191.111 186.639L191.111 215.211L184.725 211.523Z"/><path fill="url(#apiBenefitsMobilePaint28_linear)" d="M191.111 186.638L197.498 182.951L197.498 211.523L191.111 215.211L191.111 186.638Z"/><rect width="7.375" height="7.375" fill="url(#apiBenefitsMobilePaint29_linear)" transform="matrix(0.866044 0.499967 -0.866044 0.499967 182.808 190.122)"/><path fill="url(#apiBenefitsMobilePaint30_linear)" d="M176.421 216.633L176.421 193.809L182.807 197.497L182.807 220.32L176.421 216.633Z"/><path fill="url(#apiBenefitsMobilePaint31_linear)" d="M182.808 197.497L189.194 193.809L189.194 216.633L182.807 220.321L182.808 197.497Z"/><path stroke="url(#apiBenefitsMobilePaint32_linear)" stroke-width=".4" d="M189.178 193.813L182.76 197.423M182.76 197.423L176.462 193.813M182.76 197.423V204.764"/><rect width="7.375" height="7.375" fill="url(#apiBenefitsMobilePaint33_linear)" transform="matrix(0.866044 0.499967 -0.866044 0.499967 174.505 201.618)"/><path fill="url(#apiBenefitsMobilePaint34_linear)" d="M168.118 221.742L168.118 205.305L174.505 208.993L174.505 225.43L168.118 221.742Z"/><path fill="url(#apiBenefitsMobilePaint35_linear)" d="M174.505 208.993L180.892 205.305L180.891 221.742L174.505 225.43L174.505 208.993Z"/><path stroke="url(#apiBenefitsMobilePaint36_linear)" stroke-width=".4" d="M180.875 205.309L174.457 208.919M174.457 208.919L168.159 205.309M174.457 208.919V216.26"/><g clip-path="url(#clip0)"><path fill="url(#paint37_linear)" d="M164.95 283.864H140.654V287.527C140.654 287.527 140.654 287.573 140.654 287.619C140.654 291.514 146.079 294.713 152.802 294.713C159.525 294.713 164.95 291.56 164.95 287.619C164.95 287.573 164.95 287.573 164.95 287.527V283.864Z"/><path fill="url(#apiBenefitsMobilePaint38_linear)" d="M152.802 291.004C159.511 291.004 164.95 287.828 164.95 283.91C164.95 279.992 159.511 276.816 152.802 276.816C146.093 276.816 140.654 279.992 140.654 283.91C140.654 287.828 146.093 291.004 152.802 291.004Z"/><path fill="#fff" d="M152.802 290.957C146.172 290.957 140.793 287.851 140.654 284.003C140.654 284.049 140.654 284.095 140.654 284.142C140.654 288.036 146.079 291.236 152.802 291.236C159.525 291.236 164.95 288.083 164.95 284.142C164.95 284.095 164.95 284.049 164.95 284.003C164.81 287.851 159.432 290.957 152.802 290.957Z"/><path fill="url(#apiBenefitsMobilePaint39_linear)" d="M164.115 280.108H141.489V283.215C141.489 283.261 141.489 283.261 141.489 283.307C141.489 286.924 146.543 289.891 152.802 289.891C159.015 289.891 164.115 286.924 164.115 283.307C164.115 283.261 164.115 283.261 164.115 283.215V280.108Z"/><path fill="url(#apiBenefitsMobilePaint40_linear)" d="M164.115 279.552H141.489V282.658C141.489 282.705 141.489 282.705 141.489 282.751C141.489 286.367 146.543 289.335 152.802 289.335C159.015 289.335 164.115 286.367 164.115 282.751C164.115 282.705 164.115 282.705 164.115 282.658V279.552Z"/><path fill="url(#apiBenefitsMobilePaint41_linear)" d="M164.95 277.234H140.654V280.896C140.654 280.896 140.654 280.943 140.654 280.989C140.654 284.884 146.079 288.083 152.802 288.083C159.525 288.083 164.95 284.93 164.95 280.989C164.95 280.943 164.95 280.943 164.95 280.896V277.234Z"/><path fill="url(#apiBenefitsMobilePaint42_linear)" d="M152.802 284.374C159.511 284.374 164.95 281.198 164.95 277.28C164.95 273.362 159.511 270.186 152.802 270.186C146.093 270.186 140.654 273.362 140.654 277.28C140.654 281.198 146.093 284.374 152.802 284.374Z"/><path fill="#fff" d="M152.802 284.327C146.172 284.327 140.793 281.221 140.654 277.373C140.654 277.419 140.654 277.465 140.654 277.512C140.654 281.406 146.079 284.606 152.802 284.606C159.525 284.606 164.95 281.453 164.95 277.512C164.95 277.465 164.95 277.419 164.95 277.373C164.81 281.221 159.432 284.327 152.802 284.327Z"/><path fill="url(#apiBenefitsMobilePaint43_linear)" d="M164.115 273.478H141.489V276.584C141.489 276.631 141.489 276.631 141.489 276.677C141.489 280.293 146.543 283.261 152.802 283.261C159.015 283.214 164.115 280.293 164.115 276.631C164.115 276.584 164.115 276.584 164.115 276.538V273.478Z"/><path fill="url(#apiBenefitsMobilePaint44_linear)" d="M164.579 272.921H141.489V276.028C141.489 276.074 141.489 276.074 141.489 276.121C141.489 279.737 146.647 282.704 153.034 282.704C159.374 282.704 164.579 279.737 164.579 276.121C164.579 276.074 164.579 276.074 164.579 276.028V272.921Z"/><path fill="url(#apiBenefitsMobilePaint45_linear)" d="M164.95 270.742H140.654V274.405C140.654 274.405 140.654 274.452 140.654 274.498C140.654 278.393 146.079 281.592 152.802 281.592C159.525 281.592 164.95 278.439 164.95 274.498C164.95 274.452 164.95 274.452 164.95 274.405V270.742Z"/><path fill="url(#apiBenefitsMobilePaint46_linear)" d="M152.802 277.883C159.511 277.883 164.95 274.706 164.95 270.789C164.95 266.871 159.511 263.695 152.802 263.695C146.093 263.695 140.654 266.871 140.654 270.789C140.654 274.706 146.093 277.883 152.802 277.883Z"/><path fill="#fff" d="M152.802 277.836C146.172 277.836 140.793 274.73 140.654 270.881C140.654 270.928 140.654 270.974 140.654 271.02C140.654 274.915 146.079 278.114 152.802 278.114C159.525 278.114 164.95 274.961 164.95 271.02C164.95 270.974 164.95 270.928 164.95 270.881C164.81 274.73 159.432 277.836 152.802 277.836Z"/><path fill="url(#apiBenefitsMobilePaint47_linear)" d="M164.115 266.987H141.489V270.093C141.489 270.14 141.489 270.14 141.489 270.186C141.489 273.802 146.543 276.77 152.802 276.77C159.015 276.77 164.115 273.802 164.115 270.186C164.115 270.14 164.115 270.14 164.115 270.093V266.987Z"/><path fill="url(#apiBenefitsMobilePaint48_linear)" d="M164.115 266.477H141.489V269.583C141.489 269.63 141.489 269.63 141.489 269.676C141.489 273.292 146.543 276.26 152.802 276.26C159.015 276.213 164.115 273.292 164.115 269.63C164.115 269.583 164.115 269.583 164.115 269.537V266.477Z"/><path fill="url(#apiBenefitsMobilePaint49_linear)" d="M164.95 264.205H140.654V267.868C140.654 267.868 140.654 267.914 140.654 267.961C140.654 271.855 146.079 275.054 152.802 275.054C159.525 275.054 164.95 271.902 164.95 267.961C164.95 267.914 164.95 267.914 164.95 267.868V264.205Z"/><path fill="url(#apiBenefitsMobilePaint50_linear)" d="M152.802 271.345C159.511 271.345 164.95 268.169 164.95 264.251C164.95 260.333 159.511 257.157 152.802 257.157C146.093 257.157 140.654 260.333 140.654 264.251C140.654 268.169 146.093 271.345 152.802 271.345Z"/><path fill="#fff" d="M152.802 271.299C146.172 271.299 140.793 268.192 140.654 264.344C140.654 264.39 140.654 264.437 140.654 264.483C140.654 268.378 146.079 271.577 152.802 271.577C159.525 271.577 164.95 268.424 164.95 264.483C164.95 264.437 164.95 264.39 164.95 264.344C164.81 268.192 159.432 271.299 152.802 271.299Z"/><path fill="url(#apiBenefitsMobilePaint51_linear)" d="M164.115 260.449H141.489V263.556C141.489 263.602 141.489 263.602 141.489 263.648C141.489 267.265 146.543 270.232 152.802 270.232C159.015 270.232 164.115 267.265 164.115 263.648C164.115 263.602 164.115 263.602 164.115 263.556V260.449Z"/><path fill="url(#apiBenefitsMobilePaint52_linear)" d="M164.115 259.939H141.489V263.046C141.489 263.092 141.489 263.092 141.489 263.138C141.489 266.755 146.543 269.676 152.802 269.676C159.015 269.676 164.115 266.755 164.115 263.092C164.115 263.046 164.115 263.046 164.115 262.999V259.939Z"/><path fill="url(#apiBenefitsMobilePaint53_linear)" d="M164.95 257.667H140.654V261.33C140.654 261.33 140.654 261.376 140.654 261.423C140.654 265.317 146.079 268.517 152.802 268.517C159.525 268.517 164.95 265.364 164.95 261.423C164.95 261.376 164.95 261.376 164.95 261.33V257.667Z"/><path fill="url(#apiBenefitsMobilePaint54_linear)" d="M152.802 264.854C159.511 264.854 164.95 261.678 164.95 257.76C164.95 253.842 159.511 250.666 152.802 250.666C146.093 250.666 140.654 253.842 140.654 257.76C140.654 261.678 146.093 264.854 152.802 264.854Z"/><path fill="#fff" d="M152.802 264.761C146.172 264.761 140.793 261.655 140.654 257.806C140.654 257.853 140.654 257.899 140.654 257.945C140.654 261.887 146.079 265.039 152.802 265.039C159.525 265.039 164.95 261.887 164.95 257.945C164.95 257.899 164.95 257.853 164.95 257.806C164.81 261.701 159.432 264.761 152.802 264.761Z"/><path fill="url(#apiBenefitsMobilePaint55_radial)" d="M153.73 260.403C157.11 260.403 159.85 258.991 159.85 257.25C159.85 255.509 157.11 254.097 153.73 254.097C150.349 254.097 147.609 255.509 147.609 257.25C147.609 258.991 150.349 260.403 153.73 260.403Z"/><path fill="url(#apiBenefitsMobilePaint56_linear)" d="M157.67 255.395H147.934V257.296V257.343C147.934 258.919 150.113 260.171 152.802 260.171C155.491 260.171 157.67 258.919 157.67 257.343V257.296V255.395Z"/><path fill="url(#apiBenefitsMobilePaint57_linear)" d="M152.802 258.224C155.491 258.224 157.67 256.957 157.67 255.395C157.67 253.833 155.491 252.567 152.802 252.567C150.113 252.567 147.934 253.833 147.934 255.395C147.934 256.957 150.113 258.224 152.802 258.224Z"/><path fill="#CCC" d="M152.801 257.204C154.491 257.204 155.861 256.415 155.861 255.442C155.861 254.469 154.491 253.68 152.801 253.68C151.111 253.68 149.741 254.469 149.741 255.442C149.741 256.415 151.111 257.204 152.801 257.204Z"/><path fill="url(#apiBenefitsMobilePaint58_linear)" d="M152.801 255.349C153.96 255.349 154.98 255.72 155.49 256.276C155.722 256.045 155.861 255.72 155.861 255.442C155.861 254.468 154.47 253.68 152.801 253.68C151.132 253.68 149.741 254.422 149.741 255.442C149.741 255.766 149.88 256.045 150.112 256.276C150.622 255.72 151.642 255.349 152.801 255.349Z"/><path fill="#fff" d="M152.802 258.224C150.159 258.224 147.98 256.972 147.934 255.442V255.488C147.934 257.065 150.113 258.317 152.802 258.317C155.491 258.317 157.67 257.065 157.67 255.488V255.442C157.624 256.972 155.445 258.224 152.802 258.224Z"/></g><rect width="15.093" height="15.093" fill="url(#apiBenefitsMobilePaint59_linear)" transform="matrix(0.866044 0.499967 -0.866044 0.499967 290.002 16.5229)"/><rect width="15.093" height="15.093" fill="url(#apiBenefitsMobilePaint60_linear)" transform="matrix(1.19249e-08 -1 0.865988 0.500065 276.931 39.1602)"/><rect width="15.093" height="15.093" fill="url(#apiBenefitsMobilePaint61_linear)" transform="matrix(0.866007 -0.500033 -3.75718e-05 1 290.002 31.6147)"/><path stroke="url(#apiBenefitsMobilePaint62_linear)" d="M303.037 24.0759L289.902 31.4646M289.902 31.4646L277.013 24.0759M289.902 31.4646V46.4882"/><defs><filter id="apiBenefitsMobileFilter0_b" width="149.964" height="96.725" x="33.912" y="76.389" color-interpolation-filters="sRGB" filterUnits="userSpaceOnUse"><feFlood flood-opacity="0" result="BackgroundImageFix"/><feGaussianBlur in="BackgroundImage" stdDeviation="6"/><feComposite in2="SourceAlpha" operator="in" result="effect1_backgroundBlur"/><feBlend in="SourceGraphic" in2="effect1_backgroundBlur" mode="normal" result="shape"/></filter><filter id="apiBenefitsMobileFilter1_b" width="87.11" height="102.69" x="33.912" y="112.751" color-interpolation-filters="sRGB" filterUnits="userSpaceOnUse"><feFlood flood-opacity="0" result="BackgroundImageFix"/><feGaussianBlur in="BackgroundImage" stdDeviation="6"/><feComposite in2="SourceAlpha" operator="in" result="effect1_backgroundBlur"/><feBlend in="SourceGraphic" in2="effect1_backgroundBlur" mode="normal" result="shape"/></filter><filter id="apiBenefitsMobileFilter2_b" width="86.982" height="102.69" x="96.987" y="112.751" color-interpolation-filters="sRGB" filterUnits="userSpaceOnUse"><feFlood flood-opacity="0" result="BackgroundImageFix"/><feGaussianBlur in="BackgroundImage" stdDeviation="6"/><feComposite in2="SourceAlpha" operator="in" result="effect1_backgroundBlur"/><feBlend in="SourceGraphic" in2="effect1_backgroundBlur" mode="normal" result="shape"/></filter><linearGradient id="apiBenefitsMobilePaint0_linear" x1="210.507" x2="429.485" y1="80.507" y2="464.536" gradientUnits="userSpaceOnUse"><stop stop-color="#FBFBFB"/><stop offset=".932" stop-color="#FBFBFB" stop-opacity="0"/></linearGradient><linearGradient id="apiBenefitsMobilePaint1_linear" x1="-3.989" x2="53.183" y1="158.168" y2="244.9" gradientUnits="userSpaceOnUse"><stop stop-color="#EE786C" stop-opacity="0"/><stop offset=".542" stop-color="#EE786C"/><stop offset="1" stop-color="#EE786C" stop-opacity=".17"/></linearGradient><linearGradient id="apiBenefitsMobilePaint2_linear" x1="1.038" x2="75.544" y1="314.361" y2="370.554" gradientUnits="userSpaceOnUse"><stop stop-color="#EE786C" stop-opacity="0"/><stop offset=".542" stop-color="#EE786C"/><stop offset="1" stop-color="#EE786C" stop-opacity="0"/></linearGradient><linearGradient id="apiBenefitsMobilePaint3_linear" x1="141.385" x2="145.924" y1="219.199" y2="222.254" gradientUnits="userSpaceOnUse"><stop stop-color="#F48D89"/><stop offset="1" stop-color="#EE786C"/></linearGradient><linearGradient id="apiBenefitsMobilePaint4_linear" x1="27.472" x2="27.472" y1="0" y2="57.399" gradientUnits="userSpaceOnUse"><stop stop-color="#FBFBFB"/><stop offset="1" stop-color="#F5F5F5"/></linearGradient><linearGradient id="apiBenefitsMobilePaint5_linear" x1="27.472" x2="27.472" y1="0" y2="57.399" gradientUnits="userSpaceOnUse"><stop stop-color="#FBFBFB"/><stop offset="1" stop-color="#F5F5F5"/></linearGradient><linearGradient id="apiBenefitsMobilePaint6_linear" x1="16.492" x2="131.325" y1="3.514" y2="88.836" gradientUnits="userSpaceOnUse"><stop stop-color="#FBFBFB"/><stop offset="1" stop-color="#CFCFCF"/></linearGradient><linearGradient id="apiBenefitsMobilePaint7_linear" x1="183.455" x2="182.111" y1="89.179" y2="162.699" gradientUnits="userSpaceOnUse"><stop stop-color="#fff"/><stop offset="1" stop-color="#fff" stop-opacity="0"/></linearGradient><linearGradient id="apiBenefitsMobilePaint8_linear" x1="4.099" x2="90.447" y1="-16.427" y2="57.559" gradientUnits="userSpaceOnUse"><stop stop-color="#fff"/><stop offset="1" stop-color="#C1C2C6" stop-opacity=".56"/></linearGradient><linearGradient id="apiBenefitsMobilePaint9_linear" x1="-11.185" x2="52.65" y1="131.712" y2="74.374" gradientUnits="userSpaceOnUse"><stop stop-color="#fff"/><stop offset="1" stop-color="#C1C2C6" stop-opacity=".56"/></linearGradient><linearGradient id="apiBenefitsMobilePaint10_linear" x1="229.055" x2="165.358" y1="131.723" y2="74.464" gradientUnits="userSpaceOnUse"><stop stop-color="#fff"/><stop offset="1" stop-color="#C1C2C6" stop-opacity=".56"/></linearGradient><linearGradient id="apiBenefitsMobilePaint11_linear" x1="55.431" x2="113.342" y1="131.87" y2="185.163" gradientUnits="userSpaceOnUse"><stop stop-color="#56A7B1" stop-opacity="0"/><stop offset=".496" stop-color="#fff" stop-opacity=".63"/><stop offset="1" stop-color="#56A7B1" stop-opacity="0"/></linearGradient><linearGradient id="apiBenefitsMobilePaint12_linear" x1="4.254" x2="25.918" y1="4.461" y2="50.587" gradientUnits="userSpaceOnUse"><stop stop-color="#F2F2F2"/><stop offset="1" stop-color="#E3E3E3"/></linearGradient><linearGradient id="apiBenefitsMobilePaint13_linear" x1="157.291" x2="184.855" y1="214.612" y2="212.536" gradientUnits="userSpaceOnUse"><stop stop-color="#F2F2F2"/><stop offset="1" stop-color="#E3E3E3"/></linearGradient><linearGradient id="apiBenefitsMobilePaint14_linear" x1="4.254" x2="25.918" y1="4.461" y2="50.587" gradientUnits="userSpaceOnUse"><stop stop-color="#2C365A"/><stop offset="1" stop-color="#364169"/></linearGradient><linearGradient id="apiBenefitsMobilePaint15_linear" x1="19.541" x2="19.541" y1="0" y2="40.829" gradientUnits="userSpaceOnUse"><stop stop-color="#FBFBFB"/><stop offset="1" stop-color="#F5F5F5"/></linearGradient><linearGradient id="apiBenefitsMobilePaint16_linear" x1="32.012" x2="4.402" y1="32.219" y2="-43.472" gradientUnits="userSpaceOnUse"><stop stop-color="#E8E8E8"/><stop offset="1" stop-color="#F9F9F9"/></linearGradient><linearGradient id="apiBenefitsMobilePaint17_linear" x1="4.254" x2="25.918" y1="4.461" y2="50.587" gradientUnits="userSpaceOnUse"><stop stop-color="#F2F2F2"/><stop offset="1" stop-color="#E3E3E3"/></linearGradient><linearGradient id="apiBenefitsMobilePaint18_linear" x1="126.099" x2="153.623" y1="286.639" y2="284.091" gradientUnits="userSpaceOnUse"><stop stop-color="#F2F2F2"/><stop offset="1" stop-color="#E3E3E3"/></linearGradient><linearGradient id="apiBenefitsMobilePaint19_linear" x1="4.254" x2="25.918" y1="4.461" y2="50.587" gradientUnits="userSpaceOnUse"><stop stop-color="#2C365A"/><stop offset="1" stop-color="#364169"/></linearGradient><linearGradient id="apiBenefitsMobilePaint20_linear" x1="19.541" x2="19.541" y1="0" y2="40.829" gradientUnits="userSpaceOnUse"><stop stop-color="#FBFBFB"/><stop offset="1" stop-color="#F5F5F5"/></linearGradient><linearGradient id="apiBenefitsMobilePaint21_linear" x1="32.012" x2="4.402" y1="32.219" y2="-43.472" gradientUnits="userSpaceOnUse"><stop stop-color="#E8E8E8"/><stop offset="1" stop-color="#F9F9F9"/></linearGradient><linearGradient id="apiBenefitsMobilePaint22_linear" x1="18.069" x2="18.069" y1="0" y2="37.752" gradientUnits="userSpaceOnUse"><stop stop-color="#FBFBFB"/><stop offset="1" stop-color="#F5F5F5"/></linearGradient><linearGradient id="apiBenefitsMobilePaint23_linear" x1="18.069" x2="18.069" y1="0" y2="37.752" gradientUnits="userSpaceOnUse"><stop stop-color="#FBFBFB"/><stop offset="1" stop-color="#F5F5F5"/></linearGradient><linearGradient id="apiBenefitsMobilePaint24_linear" x1="10.847" x2="86.373" y1="2.311" y2="58.428" gradientUnits="userSpaceOnUse"><stop stop-color="#FBFBFB"/><stop offset="1" stop-color="#CFCFCF"/></linearGradient><linearGradient id="apiBenefitsMobilePaint25_linear" x1="183.37" x2="182.485" y1="151.19" y2="199.545" gradientUnits="userSpaceOnUse"><stop stop-color="#fff"/><stop offset="1" stop-color="#fff" stop-opacity="0"/></linearGradient><linearGradient id="apiBenefitsMobilePaint26_linear" x1="3.687" x2="3.687" y1="0" y2="7.704" gradientUnits="userSpaceOnUse"><stop stop-color="#fff"/><stop offset="1" stop-color="#fff"/></linearGradient><linearGradient id="apiBenefitsMobilePaint27_linear" x1="184.725" x2="191.397" y1="189.361" y2="189.361" gradientUnits="userSpaceOnUse"><stop stop-color="#F3F3F3"/><stop offset="1" stop-color="#F1F1F1"/></linearGradient><linearGradient id="apiBenefitsMobilePaint28_linear" x1="193.028" x2="208.645" y1="186.351" y2="191.115" gradientUnits="userSpaceOnUse"><stop stop-color="#FBFBFB"/><stop offset="1" stop-color="#DCDBDB"/></linearGradient><linearGradient id="apiBenefitsMobilePaint29_linear" x1="3.687" x2="3.687" y1="0" y2="7.704" gradientUnits="userSpaceOnUse"><stop stop-color="#fff"/><stop offset="1" stop-color="#fff"/></linearGradient><linearGradient id="apiBenefitsMobilePaint30_linear" x1="176.421" x2="183.093" y1="198.929" y2="198.929" gradientUnits="userSpaceOnUse"><stop stop-color="#F3F3F3"/><stop offset="1" stop-color="#F1F1F1"/></linearGradient><linearGradient id="apiBenefitsMobilePaint31_linear" x1="184.725" x2="199.142" y1="197.045" y2="202.316" gradientUnits="userSpaceOnUse"><stop stop-color="#FBFBFB"/><stop offset="1" stop-color="#DCDBDB"/></linearGradient><linearGradient id="apiBenefitsMobilePaint32_linear" x1="183.001" x2="182.82" y1="194.896" y2="204.764" gradientUnits="userSpaceOnUse"><stop stop-color="#fff"/><stop offset="1" stop-color="#fff" stop-opacity="0"/></linearGradient><linearGradient id="apiBenefitsMobilePaint33_linear" x1="3.687" x2="3.687" y1="0" y2="7.704" gradientUnits="userSpaceOnUse"><stop stop-color="#fff"/><stop offset="1" stop-color="#fff"/></linearGradient><linearGradient id="apiBenefitsMobilePaint34_linear" x1="168.118" x2="174.79" y1="208.992" y2="208.992" gradientUnits="userSpaceOnUse"><stop stop-color="#F3F3F3"/><stop offset="1" stop-color="#F1F1F1"/></linearGradient><linearGradient id="apiBenefitsMobilePaint35_linear" x1="176.422" x2="188.802" y1="208.358" y2="214.166" gradientUnits="userSpaceOnUse"><stop stop-color="#FBFBFB"/><stop offset="1" stop-color="#DCDBDB"/></linearGradient><linearGradient id="apiBenefitsMobilePaint36_linear" x1="174.698" x2="174.517" y1="206.392" y2="216.26" gradientUnits="userSpaceOnUse"><stop stop-color="#fff"/><stop offset="1" stop-color="#fff" stop-opacity="0"/></linearGradient><linearGradient id="paint37_linear" x1="147.946" x2="153.289" y1="284.175" y2="303.986" gradientUnits="userSpaceOnUse"><stop stop-color="#FBFBFB"/><stop offset="1" stop-color="#DCDBDB"/></linearGradient><linearGradient id="apiBenefitsMobilePaint38_linear" x1="152.802" x2="152.802" y1="276.816" y2="291.638" gradientUnits="userSpaceOnUse"><stop stop-color="#F4F3F3"/><stop offset="1" stop-color="#fff"/></linearGradient><linearGradient id="apiBenefitsMobilePaint39_linear" x1="148.281" x2="157.874" y1="280.734" y2="304.959" gradientUnits="userSpaceOnUse"><stop stop-color="#FBFBFB"/><stop offset="1" stop-color="#818181"/></linearGradient><linearGradient id="apiBenefitsMobilePaint40_linear" x1="148.28" x2="152.964" y1="279.832" y2="297.772" gradientUnits="userSpaceOnUse"><stop stop-color="#FBFBFB"/><stop offset="1" stop-color="#DCDBDB"/></linearGradient><linearGradient id="apiBenefitsMobilePaint41_linear" x1="147.946" x2="153.289" y1="277.545" y2="297.356" gradientUnits="userSpaceOnUse"><stop stop-color="#FBFBFB"/><stop offset="1" stop-color="#DCDBDB"/></linearGradient><linearGradient id="apiBenefitsMobilePaint42_linear" x1="152.802" x2="152.802" y1="270.186" y2="285.008" gradientUnits="userSpaceOnUse"><stop stop-color="#F4F3F3"/><stop offset="1" stop-color="#fff"/></linearGradient><linearGradient id="apiBenefitsMobilePaint43_linear" x1="148.281" x2="157.874" y1="274.103" y2="298.328" gradientUnits="userSpaceOnUse"><stop stop-color="#FBFBFB"/><stop offset="1" stop-color="#818181"/></linearGradient><linearGradient id="apiBenefitsMobilePaint44_linear" x1="148.419" x2="153.021" y1="273.202" y2="291.188" gradientUnits="userSpaceOnUse"><stop stop-color="#FBFBFB"/><stop offset="1" stop-color="#DCDBDB"/></linearGradient><linearGradient id="apiBenefitsMobilePaint45_linear" x1="147.946" x2="153.289" y1="271.054" y2="290.865" gradientUnits="userSpaceOnUse"><stop stop-color="#FBFBFB"/><stop offset="1" stop-color="#DCDBDB"/></linearGradient><linearGradient id="apiBenefitsMobilePaint46_linear" x1="152.802" x2="152.802" y1="263.695" y2="278.516" gradientUnits="userSpaceOnUse"><stop stop-color="#F4F3F3"/><stop offset="1" stop-color="#fff"/></linearGradient><linearGradient id="apiBenefitsMobilePaint47_linear" x1="148.281" x2="157.874" y1="267.613" y2="291.837" gradientUnits="userSpaceOnUse"><stop stop-color="#FBFBFB"/><stop offset="1" stop-color="#818181"/></linearGradient><linearGradient id="apiBenefitsMobilePaint48_linear" x1="148.28" x2="152.964" y1="266.758" y2="284.697" gradientUnits="userSpaceOnUse"><stop stop-color="#FBFBFB"/><stop offset="1" stop-color="#DCDBDB"/></linearGradient><linearGradient id="apiBenefitsMobilePaint49_linear" x1="147.946" x2="153.289" y1="264.516" y2="284.327" gradientUnits="userSpaceOnUse"><stop stop-color="#FBFBFB"/><stop offset="1" stop-color="#DCDBDB"/></linearGradient><linearGradient id="apiBenefitsMobilePaint50_linear" x1="152.802" x2="152.802" y1="257.157" y2="271.979" gradientUnits="userSpaceOnUse"><stop stop-color="#F4F3F3"/><stop offset="1" stop-color="#fff"/></linearGradient><linearGradient id="apiBenefitsMobilePaint51_linear" x1="148.281" x2="157.874" y1="261.075" y2="285.3" gradientUnits="userSpaceOnUse"><stop stop-color="#FBFBFB"/><stop offset="1" stop-color="#818181"/></linearGradient><linearGradient id="apiBenefitsMobilePaint52_linear" x1="148.28" x2="152.923" y1="260.219" y2="278.084" gradientUnits="userSpaceOnUse"><stop stop-color="#FBFBFB"/><stop offset="1" stop-color="#DCDBDB"/></linearGradient><linearGradient id="apiBenefitsMobilePaint53_linear" x1="147.946" x2="153.289" y1="257.979" y2="277.79" gradientUnits="userSpaceOnUse"><stop stop-color="#FBFBFB"/><stop offset="1" stop-color="#DCDBDB"/></linearGradient><linearGradient id="apiBenefitsMobilePaint54_linear" x1="152.802" x2="152.802" y1="250.666" y2="265.488" gradientUnits="userSpaceOnUse"><stop stop-color="#F4F3F3"/><stop offset="1" stop-color="#fff"/></linearGradient><radialGradient id="apiBenefitsMobilePaint55_radial" cx="0" cy="0" r="1" gradientTransform="translate(154.147 257.621) rotate(-3.87958) scale(5.72444 2.91893)" gradientUnits="userSpaceOnUse"><stop offset=".192" stop-color="#CCC"/><stop offset="1" stop-color="#fff"/></radialGradient><linearGradient id="apiBenefitsMobilePaint56_linear" x1="150.856" x2="153.403" y1="255.532" y2="264.132" gradientUnits="userSpaceOnUse"><stop stop-color="#FBFBFB"/><stop offset="1" stop-color="#DCDBDB"/></linearGradient><linearGradient id="apiBenefitsMobilePaint57_linear" x1="152.802" x2="152.802" y1="252.567" y2="258.476" gradientUnits="userSpaceOnUse"><stop stop-color="#fff"/><stop offset="1" stop-color="#F4F3F3"/></linearGradient><linearGradient id="apiBenefitsMobilePaint58_linear" x1="151.578" x2="152.801" y1="253.754" y2="258.527" gradientUnits="userSpaceOnUse"><stop stop-color="#FBFBFB"/><stop offset="1" stop-color="#DCDBDB"/></linearGradient><linearGradient id="apiBenefitsMobilePaint59_linear" x1="7.547" x2="7.547" y1="0" y2="15.767" gradientUnits="userSpaceOnUse"><stop stop-color="#FBFBFB"/><stop offset="1" stop-color="#F5F5F5"/></linearGradient><linearGradient id="apiBenefitsMobilePaint60_linear" x1="7.547" x2="7.547" y1="0" y2="15.767" gradientUnits="userSpaceOnUse"><stop stop-color="#FBFBFB"/><stop offset="1" stop-color="#F5F5F5"/></linearGradient><linearGradient id="apiBenefitsMobilePaint61_linear" x1="4.53" x2="36.075" y1=".965" y2="24.403" gradientUnits="userSpaceOnUse"><stop stop-color="#FBFBFB"/><stop offset="1" stop-color="#CFCFCF"/></linearGradient><linearGradient id="apiBenefitsMobilePaint62_linear" x1="290.394" x2="290.025" y1="26.293" y2="46.488" gradientUnits="userSpaceOnUse"><stop stop-color="#fff"/><stop offset="1" stop-color="#fff" stop-opacity="0"/></linearGradient><clipPath id="clip0"><rect width="30.044" height="44.139" fill="#fff" transform="translate(139.542 250.666)"/></clipPath></defs></svg>
