<svg xmlns="http://www.w3.org/2000/svg" fill="none" preserveAspectRatio="xMinYMin slice" viewBox="0 0 1440 966"><mask id="benefitsApiMask0" width="1440" height="966" x="0" y="0"
                                                                                                                      maskUnits="userSpaceOnUse"><rect width="1440" height="966" fill="#C4C4C4"/></mask><g mask="url(#benefitsApiMask0)"><path fill="url(#benefitsApiPaint0_linear)" d="M1198.08 -192.711L1452.91 -165.606L1452.9 1250.58L1235.52 1250.58L-11.4944 1255.01L-11.4953 497.006L1198.08 -192.711Z"/><path stroke="url(#benefitsApiPaint1_linear)" stroke-dasharray="5 5" d="M340 473L380.073 448.09C387.092 443.726 386.972 433.471 379.853 429.272L332.842 401.548C325.795 397.392 325.589 387.273 332.459 382.833L350 371.5"/><path stroke="#EE786C" stroke-dasharray="5 5" d="M-42.5 248L347.662 467.351C354.983 471.467 355.177 481.937 348.014 486.321L-95 757.5"/><path stroke="url(#benefitsApiPaint2_linear)" d="M-70 773.5L298.5 543"/><path fill="#DF6461" d="M304.45 545.948C301.578 547.605 296.922 547.605 294.05 545.948C292.72 545.18 292.006 544.192 291.908 543.187C291.793 542.021 291.562 540.399 293.104 539.509C295.976 537.851 302.341 537.603 305.213 539.261C307.486 541.065 307.322 544.29 304.45 545.948ZM295.993 541.065C294.194 542.104 294.194 543.787 295.993 544.826C297.792 545.864 300.708 545.864 302.507 544.826C304.305 543.787 304.305 542.104 302.507 541.065C300.708 540.027 297.792 540.027 295.993 541.065Z"/><path fill="url(#benefitsApiPaint3_linear)" d="M304.45 544.506C301.578 546.164 296.922 546.164 294.05 544.506C291.178 542.848 291.178 540.16 294.05 538.502C296.922 536.844 301.578 536.844 304.45 538.502C307.322 540.16 307.322 542.848 304.45 544.506Z"/><path stroke="url(#benefitsApiPaint4_linear)" stroke-dasharray="5 5" d="M417 405L495.595 360.589C503.037 356.383 503.048 345.668 495.616 341.447L396.244 285.01C388.842 280.806 388.816 270.148 396.197 265.907L678 104"/><rect width="118.504" height="118.504" fill="url(#benefitsApiPaint5_linear)" transform="matrix(0.866044 0.499967 -0.866044 0.499967 364.63 180)"/><rect width="118.504" height="118.504" fill="url(#benefitsApiPaint6_linear)" transform="matrix(1.19249e-08 -1 0.865988 0.500065 262.003 357.74)"/><rect width="118.504" height="118.504" fill="url(#benefitsApiPaint7_linear)" transform="matrix(0.866007 -0.500033 -3.75718e-05 1 364.626 298.496)"/><path stroke="url(#benefitsApiPaint8_linear)" d="M466.977 239.302L363.844 297.314M363.844 297.314L262.645 239.302M363.844 297.314V415.272"/><rect width="67.64" height="67.64" fill="#60C8D6" transform="matrix(0.866044 0.499967 -0.866044 0.499967 180.713 356.413)"/><rect width="67.64" height="67.64" fill="#EE786C" transform="matrix(1.19249e-08 -1 0.865988 0.500065 122.136 457.865)"/><rect width="67.64" height="67.64" fill="#3873AF" transform="matrix(0.866007 -0.500033 -3.75718e-05 1 180.711 424.049)"/><g filter="url(#benefitsApiFilter0_b)"><rect width="156.853" height="156.853" fill="url(#benefitsApiPaint9_linear)" fill-opacity=".6" transform="matrix(0.866025 -0.5 0.866025 0.5 45.0605 373.427)"/></g><g filter="url(#benefitsApiFilter1_b)"><path fill="url(#benefitsApiPaint10_linear)" fill-opacity=".6" d="M45.0602 464.718L45.0601 373.427L181.176 451.439L181.176 543.144L45.0602 464.718Z"/></g><g filter="url(#benefitsApiFilter2_b)"><path fill="url(#benefitsApiPaint11_linear)" fill-opacity=".6" d="M316.94 464.718L316.94 373.427L181.101 451.439L181.101 543.144L316.94 464.718Z"/></g><path stroke="url(#benefitsApiPaint12_linear)" stroke-width="2" d="M45.6719 372.181L181.363 450.608M181.363 450.608L317.053 372.181M181.363 450.608V541.068"/><g opacity=".7"><rect width="84.293" height="84.293" fill="url(#benefitsApiPaint13_linear)" transform="matrix(0.866025 -0.5 0.866025 0.5 315 527.016)"/><path fill="url(#benefitsApiPaint14_linear)" d="M315 527.016L388 484.869L388 527.016L388 569.162L315 527.016Z"/><mask id="benefitsApiMask1" width="146" height="86" x="315" y="484"
                                                                                                                                                                                                                                                                                                                                                                                                                                                                                                                                                                                                                                                                                                                                                                                                                                                                                                                                                                                                                                          maskUnits="userSpaceOnUse"><rect width="84.293" height="84.293" fill="url(#benefitsApiPaint15_linear)" transform="matrix(0.866025 -0.5 0.866025 0.5 315 527.016)"/></mask><g mask="url(#benefitsApiMask1)"><rect width="84.293" height="84.293" fill="url(#benefitsApiPaint16_linear)" transform="matrix(0.866025 -0.5 0.866025 0.5 315 532.814)"/></g><rect width="83.293" height="83.293" x=".866" stroke="url(#benefitsApiPaint17_linear)" transform="matrix(0.866025 -0.5 0.866025 0.5 315.116 527.449)"/></g><g opacity=".7"><rect width="84.293" height="84.293" fill="url(#benefitsApiPaint18_linear)" transform="matrix(0.857334 -0.51476 0.874463 0.485093 247.722 682.641)"/><path fill="url(#benefitsApiPaint19_linear)" d="M247.722 682.641L319.989 639.251L320.711 681.391L321.433 723.531L247.722 682.641Z"/><mask id="benefitsApiMask2" width="147" height="85" x="247" y="639"
                                                                                                                                                                                                                                                                                                                                                                                                                                                                                                                                                                                                                                                                                                                                                                                                                                                                                                                                                                                                                                                                                                                                                                                                                                                                                                                                                                                                                                                                                                                                                                                                                                                                                                                                                                                                                                                                           maskUnits="userSpaceOnUse"><rect width="84.293" height="84.293" fill="url(#benefitsApiPaint20_linear)" transform="matrix(0.857334 -0.51476 0.874463 0.485093 247.722 682.641)"/></mask><g mask="url(#benefitsApiMask2)"><rect width="84.293" height="84.293" fill="url(#benefitsApiPaint21_linear)" transform="matrix(0.857334 -0.51476 0.874463 0.485093 247.821 688.438)"/></g><rect width="83.293" height="83.293" x=".866" y="-.015" stroke="url(#benefitsApiPaint22_linear)" transform="matrix(0.857334 -0.51476 0.874463 0.485093 247.858 683.079)"/></g><rect width="26.63" height="26.63" fill="#EE786C" transform="matrix(0.866044 0.499967 -0.866044 0.499967 459.062 349)"/><rect width="26.63" height="26.63" fill="#3873AF" transform="matrix(1.19249e-08 -1 0.865988 0.500065 436.001 388.941)"/><rect width="26.63" height="26.63" fill="#60C8D6" transform="matrix(0.866007 -0.500033 -3.75718e-05 1 459.061 375.628)"/><rect width="77.941" height="77.941" fill="url(#benefitsApiPaint23_linear)" transform="matrix(0.866044 0.499967 -0.866044 0.499967 385.5 340)"/><rect width="77.941" height="77.941" fill="url(#benefitsApiPaint24_linear)" transform="matrix(1.19249e-08 -1 0.865988 0.500065 318.002 456.9)"/><rect width="77.941" height="77.941" fill="url(#benefitsApiPaint25_linear)" transform="matrix(0.866007 -0.500033 -3.75718e-05 1 385.498 417.936)"/><path stroke="url(#benefitsApiPaint26_linear)" d="M452.815 379.003L384.983 417.158M384.983 417.158L318.424 379.003M384.983 417.158V494.74"/><rect width="15.906" height="15.906" fill="url(#benefitsApiPaint27_linear)" transform="matrix(0.866044 0.499967 -0.866044 0.499967 404.225 451)"/><path fill="url(#benefitsApiPaint28_linear)" d="M390.449 520.575L390.449 458.951L404.224 466.905L404.224 528.529L390.449 520.575Z"/><path fill="url(#benefitsApiPaint29_linear)" d="M404.224 466.905L417.998 458.951L417.998 520.576L404.223 528.529L404.224 466.905Z"/><rect width="15.906" height="15.906" fill="url(#benefitsApiPaint30_linear)" transform="matrix(0.866044 0.499967 -0.866044 0.499967 386.316 474.418)"/><path fill="url(#benefitsApiPaint31_linear)" d="M372.541 531.596L372.541 482.369L386.315 490.323L386.315 539.55L372.541 531.596Z"/><path fill="url(#benefitsApiPaint32_linear)" d="M386.316 490.323L400.091 482.37L400.091 531.596L386.316 539.55L386.316 490.323Z"/><path stroke="url(#benefitsApiPaint33_linear)" stroke-width=".4" d="M400.054 482.378L386.211 490.165M386.211 490.165L372.628 482.378M386.211 490.165V505.998"/><rect width="15.906" height="15.906" fill="url(#benefitsApiPaint34_linear)" transform="matrix(0.866044 0.499967 -0.866044 0.499967 368.408 499.214)"/><path fill="url(#benefitsApiPaint35_linear)" d="M354.633 542.616L354.633 507.165L368.407 515.119L368.407 550.57L354.633 542.616Z"/><path fill="url(#benefitsApiPaint36_linear)" d="M368.408 515.119L382.183 507.165L382.182 542.617L368.408 550.57L368.408 515.119Z"/><path stroke="url(#benefitsApiPaint37_linear)" stroke-width=".4" d="M382.146 507.174L368.303 514.96M368.303 514.96L354.72 507.174M368.303 514.96V530.793"/></g><path fill="url(#benefitsApiPaint38_linear)" d="M347.8 676.6H295.4V684.5C295.4 684.5 295.4 684.6 295.4 684.7C295.4 693.1 307.1 700 321.6 700C336.1 700 347.8 693.2 347.8 684.7C347.8 684.6 347.8 684.6 347.8 684.5V676.6Z"/><path fill="url(#benefitsApiPaint39_linear)" d="M321.6 692C336.07 692 347.8 685.15 347.8 676.7C347.8 668.25 336.07 661.4 321.6 661.4C307.131 661.4 295.4 668.25 295.4 676.7C295.4 685.15 307.131 692 321.6 692Z"/><path fill="#fff" d="M321.6 691.9C307.3 691.9 295.7 685.2 295.4 676.9C295.4 677 295.4 677.1 295.4 677.2C295.4 685.6 307.1 692.5 321.6 692.5C336.1 692.5 347.8 685.7 347.8 677.2C347.8 677.1 347.8 677 347.8 676.9C347.5 685.2 335.9 691.9 321.6 691.9Z"/><path fill="url(#benefitsApiPaint40_linear)" d="M346 668.5H297.2V675.2C297.2 675.3 297.2 675.3 297.2 675.4C297.2 683.2 308.1 689.6 321.6 689.6C335 689.6 346 683.2 346 675.4C346 675.3 346 675.3 346 675.2V668.5Z"/><path fill="url(#benefitsApiPaint41_linear)" d="M346 667.3H297.2V674C297.2 674.1 297.2 674.1 297.2 674.2C297.2 682 308.1 688.4 321.6 688.4C335 688.4 346 682 346 674.2C346 674.1 346 674.1 346 674V667.3Z"/><path fill="url(#benefitsApiPaint42_linear)" d="M347.8 662.3H295.4V670.2C295.4 670.2 295.4 670.3 295.4 670.4C295.4 678.8 307.1 685.7 321.6 685.7C336.1 685.7 347.8 678.9 347.8 670.4C347.8 670.3 347.8 670.3 347.8 670.2V662.3Z"/><path fill="url(#benefitsApiPaint43_linear)" d="M321.6 677.7C336.07 677.7 347.8 670.85 347.8 662.4C347.8 653.95 336.07 647.1 321.6 647.1C307.131 647.1 295.4 653.95 295.4 662.4C295.4 670.85 307.131 677.7 321.6 677.7Z"/><path fill="#fff" d="M321.6 677.6C307.3 677.6 295.7 670.9 295.4 662.6C295.4 662.7 295.4 662.8 295.4 662.9C295.4 671.3 307.1 678.2 321.6 678.2C336.1 678.2 347.8 671.4 347.8 662.9C347.8 662.8 347.8 662.7 347.8 662.6C347.5 670.9 335.9 677.6 321.6 677.6Z"/><path fill="url(#benefitsApiPaint44_linear)" d="M346 654.2H297.2V660.9C297.2 661 297.2 661 297.2 661.1C297.2 668.9 308.1 675.3 321.6 675.3C335 675.2 346 668.9 346 661C346 660.9 346 660.9 346 660.8V654.2Z"/><path fill="url(#benefitsApiPaint45_linear)" d="M347 653H297.2V659.7C297.2 659.8 297.2 659.8 297.2 659.9C297.2 667.7 308.324 674.1 322.1 674.1C335.775 674.1 347 667.7 347 659.9C347 659.8 347 659.8 347 659.7V653Z"/><path fill="url(#benefitsApiPaint46_linear)" d="M347.8 648.3H295.4V656.2C295.4 656.2 295.4 656.3 295.4 656.4C295.4 664.8 307.1 671.7 321.6 671.7C336.1 671.7 347.8 664.9 347.8 656.4C347.8 656.3 347.8 656.3 347.8 656.2V648.3Z"/><path fill="url(#benefitsApiPaint47_linear)" d="M321.6 663.7C336.07 663.7 347.8 656.85 347.8 648.4C347.8 639.95 336.07 633.1 321.6 633.1C307.131 633.1 295.4 639.95 295.4 648.4C295.4 656.85 307.131 663.7 321.6 663.7Z"/><path fill="#fff" d="M321.6 663.6C307.3 663.6 295.7 656.9 295.4 648.6C295.4 648.7 295.4 648.8 295.4 648.9C295.4 657.3 307.1 664.2 321.6 664.2C336.1 664.2 347.8 657.4 347.8 648.9C347.8 648.8 347.8 648.7 347.8 648.6C347.5 656.9 335.9 663.6 321.6 663.6Z"/><path fill="url(#benefitsApiPaint48_linear)" d="M346 640.2H297.2V646.9C297.2 647 297.2 647 297.2 647.1C297.2 654.9 308.1 661.3 321.6 661.3C335 661.3 346 654.9 346 647.1C346 647 346 647 346 646.9V640.2Z"/><path fill="url(#benefitsApiPaint49_linear)" d="M346 639.1H297.2V645.8C297.2 645.9 297.2 645.9 297.2 646C297.2 653.8 308.1 660.2 321.6 660.2C335 660.1 346 653.8 346 645.9C346 645.8 346 645.8 346 645.7V639.1Z"/><path fill="url(#benefitsApiPaint50_linear)" d="M347.8 634.2H295.4V642.1C295.4 642.1 295.4 642.2 295.4 642.3C295.4 650.7 307.1 657.6 321.6 657.6C336.1 657.6 347.8 650.8 347.8 642.3C347.8 642.2 347.8 642.2 347.8 642.1V634.2Z"/><path fill="url(#benefitsApiPaint51_linear)" d="M321.6 649.6C336.07 649.6 347.8 642.75 347.8 634.3C347.8 625.85 336.07 619 321.6 619C307.131 619 295.4 625.85 295.4 634.3C295.4 642.75 307.131 649.6 321.6 649.6Z"/><path fill="#fff" d="M321.6 649.5C307.3 649.5 295.7 642.8 295.4 634.5C295.4 634.6 295.4 634.7 295.4 634.8C295.4 643.2 307.1 650.1 321.6 650.1C336.1 650.1 347.8 643.3 347.8 634.8C347.8 634.7 347.8 634.6 347.8 634.5C347.5 642.8 335.9 649.5 321.6 649.5Z"/><path fill="url(#benefitsApiPaint52_linear)" d="M346 626.1H297.2V632.8C297.2 632.9 297.2 632.9 297.2 633C297.2 640.8 308.1 647.2 321.6 647.2C335 647.2 346 640.8 346 633C346 632.9 346 632.9 346 632.8V626.1Z"/><path fill="url(#benefitsApiPaint53_linear)" d="M346 625H297.2V631.7C297.2 631.8 297.2 631.8 297.2 631.9C297.2 639.7 308.1 646 321.6 646C335 646 346 639.7 346 631.8C346 631.7 346 631.7 346 631.6V625Z"/><path fill="url(#benefitsApiPaint54_linear)" d="M347.8 620.1H295.4V628C295.4 628 295.4 628.1 295.4 628.2C295.4 636.6 307.1 643.5 321.6 643.5C336.1 643.5 347.8 636.7 347.8 628.2C347.8 628.1 347.8 628.1 347.8 628V620.1Z"/><path fill="url(#benefitsApiPaint55_linear)" d="M321.6 635.6C336.07 635.6 347.8 628.75 347.8 620.3C347.8 611.85 336.07 605 321.6 605C307.131 605 295.4 611.85 295.4 620.3C295.4 628.75 307.131 635.6 321.6 635.6Z"/><path fill="#fff" d="M321.6 635.4C307.3 635.4 295.7 628.7 295.4 620.4C295.4 620.5 295.4 620.6 295.4 620.7C295.4 629.2 307.1 636 321.6 636C336.1 636 347.8 629.2 347.8 620.7C347.8 620.6 347.8 620.5 347.8 620.4C347.5 628.8 335.9 635.4 321.6 635.4Z"/><path fill="url(#benefitsApiPaint56_radial)" d="M323.6 626C330.891 626 336.8 622.956 336.8 619.2C336.8 615.444 330.891 612.4 323.6 612.4C316.31 612.4 310.4 615.444 310.4 619.2C310.4 622.956 316.31 626 323.6 626Z"/><path fill="url(#benefitsApiPaint57_linear)" d="M332.101 615.2H311.101V619.3V619.4C311.101 622.8 315.801 625.5 321.601 625.5C327.401 625.5 332.101 622.8 332.101 619.4V619.3V615.2Z"/><path fill="url(#benefitsApiPaint58_linear)" d="M321.601 621.3C327.4 621.3 332.101 618.569 332.101 615.2C332.101 611.831 327.4 609.1 321.601 609.1C315.802 609.1 311.101 611.831 311.101 615.2C311.101 618.569 315.802 621.3 321.601 621.3Z"/><path fill="#CCC" d="M321.601 619.1C325.246 619.1 328.201 617.399 328.201 615.3C328.201 613.201 325.246 611.5 321.601 611.5C317.956 611.5 315.001 613.201 315.001 615.3C315.001 617.399 317.956 619.1 321.601 619.1Z"/><path fill="url(#benefitsApiPaint59_linear)" d="M321.601 615.1C324.101 615.1 326.301 615.9 327.401 617.1C327.901 616.6 328.201 615.9 328.201 615.3C328.201 613.2 325.201 611.5 321.601 611.5C318.001 611.5 315.001 613.1 315.001 615.3C315.001 616 315.301 616.6 315.801 617.1C316.901 615.9 319.101 615.1 321.601 615.1Z"/><path fill="#fff" d="M321.601 621.3C315.901 621.3 311.201 618.6 311.101 615.3V615.4C311.101 618.8 315.801 621.5 321.601 621.5C327.401 621.5 332.101 618.8 332.101 615.4V615.3C332.001 618.6 327.301 621.3 321.601 621.3Z"/><rect width="32.553" height="32.553" fill="url(#benefitsApiPaint60_linear)" transform="matrix(0.866044 0.499967 -0.866044 0.499967 697.451 50)"/><rect width="32.553" height="32.553" fill="url(#benefitsApiPaint61_linear)" transform="matrix(1.19249e-08 -1 0.865988 0.500065 669.26 98.8246)"/><rect width="32.553" height="32.553" fill="url(#benefitsApiPaint62_linear)" transform="matrix(0.866007 -0.500033 -3.75718e-05 1 697.45 82.5507)"/><path stroke="url(#benefitsApiPaint63_linear)" d="M725.565 66.2899L697.235 82.2257M697.235 82.2257L669.436 66.2899M697.235 82.2257V114.629"/><defs><filter id="benefitsApiFilter0_b" width="295.678" height="180.853" x="33.06" y="283" color-interpolation-filters="sRGB" filterUnits="userSpaceOnUse"><feFlood flood-opacity="0" result="BackgroundImageFix"/><feGaussianBlur in="BackgroundImage" stdDeviation="6"/><feComposite in2="SourceAlpha" operator="in" result="effect1_backgroundBlur"/><feBlend in="SourceGraphic" in2="effect1_backgroundBlur" mode="normal" result="shape"/></filter><filter id="benefitsApiFilter1_b" width="160.115" height="193.718" x="33.06" y="361.427" color-interpolation-filters="sRGB" filterUnits="userSpaceOnUse"><feFlood flood-opacity="0" result="BackgroundImageFix"/><feGaussianBlur in="BackgroundImage" stdDeviation="6"/><feComposite in2="SourceAlpha" operator="in" result="effect1_backgroundBlur"/><feBlend in="SourceGraphic" in2="effect1_backgroundBlur" mode="normal" result="shape"/></filter><filter id="benefitsApiFilter2_b" width="159.839" height="193.718" x="169.101" y="361.427" color-interpolation-filters="sRGB" filterUnits="userSpaceOnUse"><feFlood flood-opacity="0" result="BackgroundImageFix"/><feGaussianBlur in="BackgroundImage" stdDeviation="6"/><feComposite in2="SourceAlpha" operator="in" result="effect1_backgroundBlur"/><feBlend in="SourceGraphic" in2="effect1_backgroundBlur" mode="normal" result="shape"/></filter><linearGradient id="benefitsApiPaint0_linear" x1="445.997" x2="918.289" y1="238" y2="1066.27" gradientUnits="userSpaceOnUse"><stop stop-color="#FBFBFB"/><stop offset=".932" stop-color="#FBFBFB" stop-opacity="0"/></linearGradient><linearGradient id="benefitsApiPaint1_linear" x1="-16.57" x2="106.739" y1="405.498" y2="592.562" gradientUnits="userSpaceOnUse"><stop stop-color="#EE786C" stop-opacity="0"/><stop offset=".542" stop-color="#EE786C"/><stop offset="1" stop-color="#EE786C" stop-opacity=".17"/></linearGradient><linearGradient id="benefitsApiPaint2_linear" x1="-5.725" x2="154.97" y1="742.377" y2="863.573" gradientUnits="userSpaceOnUse"><stop stop-color="#EE786C" stop-opacity="0"/><stop offset=".542" stop-color="#EE786C"/><stop offset="1" stop-color="#EE786C" stop-opacity="0"/></linearGradient><linearGradient id="benefitsApiPaint3_linear" x1="296.976" x2="306.765" y1="537.132" y2="543.72" gradientUnits="userSpaceOnUse"><stop stop-color="#F48D89"/><stop offset="1" stop-color="#EE786C"/></linearGradient><linearGradient id="benefitsApiPaint4_linear" x1="16" x2="429.768" y1="511" y2="677.579" gradientUnits="userSpaceOnUse"><stop stop-color="#EE786C" stop-opacity=".17"/><stop offset=".542" stop-color="#EE786C"/><stop offset="1" stop-color="#EE786C" stop-opacity="0"/></linearGradient><linearGradient id="benefitsApiPaint5_linear" x1="59.252" x2="59.252" y1="0" y2="123.798" gradientUnits="userSpaceOnUse"><stop stop-color="#FBFBFB"/><stop offset="1" stop-color="#F5F5F5"/></linearGradient><linearGradient id="benefitsApiPaint6_linear" x1="59.252" x2="59.252" y1="0" y2="123.798" gradientUnits="userSpaceOnUse"><stop stop-color="#FBFBFB"/><stop offset="1" stop-color="#F5F5F5"/></linearGradient><linearGradient id="benefitsApiPaint7_linear" x1="35.569" x2="283.241" y1="7.579" y2="191.602" gradientUnits="userSpaceOnUse"><stop stop-color="#FBFBFB"/><stop offset="1" stop-color="#CFCFCF"/></linearGradient><linearGradient id="benefitsApiPaint8_linear" x1="367.711" x2="364.811" y1="256.705" y2="415.272" gradientUnits="userSpaceOnUse"><stop stop-color="#fff"/><stop offset="1" stop-color="#fff" stop-opacity="0"/></linearGradient><linearGradient id="benefitsApiPaint9_linear" x1="8.842" x2="195.076" y1="-35.43" y2="124.144" gradientUnits="userSpaceOnUse"><stop stop-color="#fff"/><stop offset="1" stop-color="#C1C2C6" stop-opacity=".56"/></linearGradient><linearGradient id="benefitsApiPaint10_linear" x1="-78.088" x2="59.592" y1="388.44" y2="264.772" gradientUnits="userSpaceOnUse"><stop stop-color="#fff"/><stop offset="1" stop-color="#C1C2C6" stop-opacity=".56"/></linearGradient><linearGradient id="benefitsApiPaint11_linear" x1="440.064" x2="302.682" y1="388.462" y2="264.966" gradientUnits="userSpaceOnUse"><stop stop-color="#fff"/><stop offset="1" stop-color="#C1C2C6" stop-opacity=".56"/></linearGradient><linearGradient id="benefitsApiPaint12_linear" x1="65.59" x2="190.492" y1="388.779" y2="503.722" gradientUnits="userSpaceOnUse"><stop stop-color="#56A7B1" stop-opacity="0"/><stop offset=".496" stop-color="#fff" stop-opacity=".63"/><stop offset="1" stop-color="#56A7B1" stop-opacity="0"/></linearGradient><linearGradient id="benefitsApiPaint13_linear" x1="9.176" x2="55.9" y1="9.622" y2="109.106" gradientUnits="userSpaceOnUse"><stop stop-color="#F2F2F2"/><stop offset="1" stop-color="#E3E3E3"/></linearGradient><linearGradient id="benefitsApiPaint14_linear" x1="331.279" x2="390.729" y1="527.239" y2="522.761" gradientUnits="userSpaceOnUse"><stop stop-color="#F2F2F2"/><stop offset="1" stop-color="#E3E3E3"/></linearGradient><linearGradient id="benefitsApiPaint15_linear" x1="9.176" x2="55.9" y1="9.622" y2="109.106" gradientUnits="userSpaceOnUse"><stop stop-color="#2C365A"/><stop offset="1" stop-color="#364169"/></linearGradient><linearGradient id="benefitsApiPaint16_linear" x1="42.147" x2="42.147" y1="0" y2="88.059" gradientUnits="userSpaceOnUse"><stop stop-color="#FBFBFB"/><stop offset="1" stop-color="#F5F5F5"/></linearGradient><linearGradient id="benefitsApiPaint17_linear" x1="69.043" x2="9.495" y1="69.489" y2="-93.761" gradientUnits="userSpaceOnUse"><stop stop-color="#E8E8E8"/><stop offset="1" stop-color="#F9F9F9"/></linearGradient><linearGradient id="benefitsApiPaint18_linear" x1="9.176" x2="55.9" y1="9.622" y2="109.106" gradientUnits="userSpaceOnUse"><stop stop-color="#F2F2F2"/><stop offset="1" stop-color="#E3E3E3"/></linearGradient><linearGradient id="benefitsApiPaint19_linear" x1="264.002" x2="323.366" y1="682.585" y2="677.09" gradientUnits="userSpaceOnUse"><stop stop-color="#F2F2F2"/><stop offset="1" stop-color="#E3E3E3"/></linearGradient><linearGradient id="benefitsApiPaint20_linear" x1="9.176" x2="55.9" y1="9.622" y2="109.106" gradientUnits="userSpaceOnUse"><stop stop-color="#2C365A"/><stop offset="1" stop-color="#364169"/></linearGradient><linearGradient id="benefitsApiPaint21_linear" x1="42.147" x2="42.147" y1="0" y2="88.059" gradientUnits="userSpaceOnUse"><stop stop-color="#FBFBFB"/><stop offset="1" stop-color="#F5F5F5"/></linearGradient><linearGradient id="benefitsApiPaint22_linear" x1="69.043" x2="9.495" y1="69.489" y2="-93.761" gradientUnits="userSpaceOnUse"><stop stop-color="#E8E8E8"/><stop offset="1" stop-color="#F9F9F9"/></linearGradient><linearGradient id="benefitsApiPaint23_linear" x1="38.97" x2="38.97" y1="0" y2="81.423" gradientUnits="userSpaceOnUse"><stop stop-color="#FBFBFB"/><stop offset="1" stop-color="#F5F5F5"/></linearGradient><linearGradient id="benefitsApiPaint24_linear" x1="38.97" x2="38.97" y1="0" y2="81.423" gradientUnits="userSpaceOnUse"><stop stop-color="#FBFBFB"/><stop offset="1" stop-color="#F5F5F5"/></linearGradient><linearGradient id="benefitsApiPaint25_linear" x1="23.394" x2="186.29" y1="4.985" y2="126.018" gradientUnits="userSpaceOnUse"><stop stop-color="#FBFBFB"/><stop offset="1" stop-color="#CFCFCF"/></linearGradient><linearGradient id="benefitsApiPaint26_linear" x1="387.527" x2="385.619" y1="390.449" y2="494.74" gradientUnits="userSpaceOnUse"><stop stop-color="#fff"/><stop offset="1" stop-color="#fff" stop-opacity="0"/></linearGradient><linearGradient id="benefitsApiPaint27_linear" x1="7.953" x2="7.953" y1="0" y2="16.617" gradientUnits="userSpaceOnUse"><stop stop-color="#fff"/><stop offset="1" stop-color="#fff"/></linearGradient><linearGradient id="benefitsApiPaint28_linear" x1="390.449" x2="404.839" y1="472.776" y2="472.776" gradientUnits="userSpaceOnUse"><stop stop-color="#F3F3F3"/><stop offset="1" stop-color="#F1F1F1"/></linearGradient><linearGradient id="benefitsApiPaint29_linear" x1="408.358" x2="442.04" y1="466.286" y2="476.56" gradientUnits="userSpaceOnUse"><stop stop-color="#FBFBFB"/><stop offset="1" stop-color="#DCDBDB"/></linearGradient><linearGradient id="benefitsApiPaint30_linear" x1="7.953" x2="7.953" y1="0" y2="16.617" gradientUnits="userSpaceOnUse"><stop stop-color="#fff"/><stop offset="1" stop-color="#fff"/></linearGradient><linearGradient id="benefitsApiPaint31_linear" x1="372.541" x2="386.931" y1="493.413" y2="493.413" gradientUnits="userSpaceOnUse"><stop stop-color="#F3F3F3"/><stop offset="1" stop-color="#F1F1F1"/></linearGradient><linearGradient id="benefitsApiPaint32_linear" x1="390.451" x2="421.546" y1="489.348" y2="500.717" gradientUnits="userSpaceOnUse"><stop stop-color="#FBFBFB"/><stop offset="1" stop-color="#DCDBDB"/></linearGradient><linearGradient id="benefitsApiPaint33_linear" x1="386.73" x2="386.341" y1="484.714" y2="505.998" gradientUnits="userSpaceOnUse"><stop stop-color="#fff"/><stop offset="1" stop-color="#fff" stop-opacity="0"/></linearGradient><linearGradient id="benefitsApiPaint34_linear" x1="7.953" x2="7.953" y1="0" y2="16.617" gradientUnits="userSpaceOnUse"><stop stop-color="#fff"/><stop offset="1" stop-color="#fff"/></linearGradient><linearGradient id="benefitsApiPaint35_linear" x1="354.633" x2="369.023" y1="515.118" y2="515.118" gradientUnits="userSpaceOnUse"><stop stop-color="#F3F3F3"/><stop offset="1" stop-color="#F1F1F1"/></linearGradient><linearGradient id="benefitsApiPaint36_linear" x1="372.543" x2="399.243" y1="513.749" y2="526.276" gradientUnits="userSpaceOnUse"><stop stop-color="#FBFBFB"/><stop offset="1" stop-color="#DCDBDB"/></linearGradient><linearGradient id="benefitsApiPaint37_linear" x1="368.822" x2="368.433" y1="509.51" y2="530.793" gradientUnits="userSpaceOnUse"><stop stop-color="#fff"/><stop offset="1" stop-color="#fff" stop-opacity="0"/></linearGradient><linearGradient id="benefitsApiPaint38_linear" x1="311.127" x2="322.65" y1="677.271" y2="720" gradientUnits="userSpaceOnUse"><stop stop-color="#FBFBFB"/><stop offset="1" stop-color="#DCDBDB"/></linearGradient><linearGradient id="benefitsApiPaint39_linear" x1="321.6" x2="321.6" y1="661.4" y2="693.367" gradientUnits="userSpaceOnUse"><stop stop-color="#F4F3F3"/><stop offset="1" stop-color="#fff"/></linearGradient><linearGradient id="benefitsApiPaint40_linear" x1="311.848" x2="332.539" y1="669.849" y2="722.097" gradientUnits="userSpaceOnUse"><stop stop-color="#FBFBFB"/><stop offset="1" stop-color="#818181"/></linearGradient><linearGradient id="benefitsApiPaint41_linear" x1="311.847" x2="321.95" y1="667.906" y2="706.598" gradientUnits="userSpaceOnUse"><stop stop-color="#FBFBFB"/><stop offset="1" stop-color="#DCDBDB"/></linearGradient><linearGradient id="benefitsApiPaint42_linear" x1="311.127" x2="322.65" y1="662.971" y2="705.7" gradientUnits="userSpaceOnUse"><stop stop-color="#FBFBFB"/><stop offset="1" stop-color="#DCDBDB"/></linearGradient><linearGradient id="benefitsApiPaint43_linear" x1="321.6" x2="321.6" y1="647.1" y2="679.067" gradientUnits="userSpaceOnUse"><stop stop-color="#F4F3F3"/><stop offset="1" stop-color="#fff"/></linearGradient><linearGradient id="benefitsApiPaint44_linear" x1="311.848" x2="332.539" y1="655.549" y2="707.797" gradientUnits="userSpaceOnUse"><stop stop-color="#FBFBFB"/><stop offset="1" stop-color="#818181"/></linearGradient><linearGradient id="benefitsApiPaint45_linear" x1="312.147" x2="322.072" y1="653.605" y2="692.396" gradientUnits="userSpaceOnUse"><stop stop-color="#FBFBFB"/><stop offset="1" stop-color="#DCDBDB"/></linearGradient><linearGradient id="benefitsApiPaint46_linear" x1="311.127" x2="322.65" y1="648.971" y2="691.7" gradientUnits="userSpaceOnUse"><stop stop-color="#FBFBFB"/><stop offset="1" stop-color="#DCDBDB"/></linearGradient><linearGradient id="benefitsApiPaint47_linear" x1="321.6" x2="321.6" y1="633.1" y2="665.067" gradientUnits="userSpaceOnUse"><stop stop-color="#F4F3F3"/><stop offset="1" stop-color="#fff"/></linearGradient><linearGradient id="benefitsApiPaint48_linear" x1="311.848" x2="332.539" y1="641.549" y2="693.797" gradientUnits="userSpaceOnUse"><stop stop-color="#FBFBFB"/><stop offset="1" stop-color="#818181"/></linearGradient><linearGradient id="benefitsApiPaint49_linear" x1="311.847" x2="321.95" y1="639.705" y2="678.398" gradientUnits="userSpaceOnUse"><stop stop-color="#FBFBFB"/><stop offset="1" stop-color="#DCDBDB"/></linearGradient><linearGradient id="benefitsApiPaint50_linear" x1="311.127" x2="322.65" y1="634.871" y2="677.6" gradientUnits="userSpaceOnUse"><stop stop-color="#FBFBFB"/><stop offset="1" stop-color="#DCDBDB"/></linearGradient><linearGradient id="benefitsApiPaint51_linear" x1="321.6" x2="321.6" y1="619" y2="650.967" gradientUnits="userSpaceOnUse"><stop stop-color="#F4F3F3"/><stop offset="1" stop-color="#fff"/></linearGradient><linearGradient id="benefitsApiPaint52_linear" x1="311.848" x2="332.539" y1="627.449" y2="679.697" gradientUnits="userSpaceOnUse"><stop stop-color="#FBFBFB"/><stop offset="1" stop-color="#818181"/></linearGradient><linearGradient id="benefitsApiPaint53_linear" x1="311.847" x2="321.86" y1="625.603" y2="664.135" gradientUnits="userSpaceOnUse"><stop stop-color="#FBFBFB"/><stop offset="1" stop-color="#DCDBDB"/></linearGradient><linearGradient id="benefitsApiPaint54_linear" x1="311.127" x2="322.65" y1="620.771" y2="663.5" gradientUnits="userSpaceOnUse"><stop stop-color="#FBFBFB"/><stop offset="1" stop-color="#DCDBDB"/></linearGradient><linearGradient id="benefitsApiPaint55_linear" x1="321.6" x2="321.6" y1="605" y2="636.967" gradientUnits="userSpaceOnUse"><stop stop-color="#F4F3F3"/><stop offset="1" stop-color="#fff"/></linearGradient><radialGradient id="benefitsApiPaint56_radial" cx="0" cy="0" r="1" gradientTransform="translate(324.5 620) rotate(-3.87958) scale(12.3465 6.29555)" gradientUnits="userSpaceOnUse"><stop offset=".192" stop-color="#CCC"/><stop offset="1" stop-color="#fff"/></radialGradient><linearGradient id="benefitsApiPaint57_linear" x1="317.403" x2="322.897" y1="615.496" y2="634.044" gradientUnits="userSpaceOnUse"><stop stop-color="#FBFBFB"/><stop offset="1" stop-color="#DCDBDB"/></linearGradient><linearGradient id="benefitsApiPaint58_linear" x1="321.601" x2="321.601" y1="609.1" y2="621.845" gradientUnits="userSpaceOnUse"><stop stop-color="#fff"/><stop offset="1" stop-color="#F4F3F3"/></linearGradient><linearGradient id="benefitsApiPaint59_linear" x1="318.963" x2="321.6" y1="611.661" y2="621.954" gradientUnits="userSpaceOnUse"><stop stop-color="#FBFBFB"/><stop offset="1" stop-color="#DCDBDB"/></linearGradient><linearGradient id="benefitsApiPaint60_linear" x1="16.276" x2="16.276" y1="0" y2="34.007" gradientUnits="userSpaceOnUse"><stop stop-color="#FBFBFB"/><stop offset="1" stop-color="#F5F5F5"/></linearGradient><linearGradient id="benefitsApiPaint61_linear" x1="16.276" x2="16.276" y1="0" y2="34.007" gradientUnits="userSpaceOnUse"><stop stop-color="#FBFBFB"/><stop offset="1" stop-color="#F5F5F5"/></linearGradient><linearGradient id="benefitsApiPaint62_linear" x1="9.771" x2="77.806" y1="2.082" y2="52.632" gradientUnits="userSpaceOnUse"><stop stop-color="#FBFBFB"/><stop offset="1" stop-color="#CFCFCF"/></linearGradient><linearGradient id="benefitsApiPaint63_linear" x1="698.297" x2="697.5" y1="71.071" y2="114.629" gradientUnits="userSpaceOnUse"><stop stop-color="#fff"/><stop offset="1" stop-color="#fff" stop-opacity="0"/></linearGradient></defs></svg>
