<svg xmlns="http://www.w3.org/2000/svg" width="320" height="112" fill="none" viewBox="0 0 320 112"><mask id="buildWithUsMobileMask0" width="320" height="112" x="0" y="0"
                                                                                                         maskUnits="userSpaceOnUse"><rect width="320" height="112" fill="#fff"/></mask><g mask="url(#buildWithUsMobileMask0)"><path stroke="url(#buildWithUsMobilePaint0_linear)" stroke-dasharray=".84 .84" stroke-width=".418" d="M157.233 47.9167L157.233 -274.399L157.233 -392.973"/><path stroke="#EA7B7B" stroke-dasharray=".84 .84" stroke-width=".418" d="M376 305C372.286 227.615 346.08 72.276 270.969 70H240"/><path stroke="#EA7B7B" stroke-dasharray=".84 .84" stroke-width=".418" d="M376 -170C372.286 -92.615 346.08 62.724 270.969 65H240"/><path stroke="#EA7B7B" stroke-dasharray=".84 .84" stroke-width=".418" d="M-56 305C-52.2859 227.615 -26.08 72.276 49.0313 70H80"/><path stroke="#EA7B7B" stroke-dasharray=".84 .84" stroke-width=".418" d="M-56 -170C-52.2859 -92.615 -26.08 62.724 49.0313 65H80"/><path fill="url(#buildWithUsMobilePaint1_linear)" stroke="url(#buildWithUsMobilePaint2_linear)" stroke-width=".418" d="M62.672 73.2091H250.893C252.189 73.2091 253.419 73.7818 254.254 74.7737L278.479 103.572C280.882 106.429 278.851 110.791 275.118 110.791H37.9995C34.2481 110.791 32.2239 106.391 34.6645 103.542L59.337 74.7435C60.1713 73.7696 61.3896 73.2091 62.672 73.2091Z"/><g filter="url(#buildWithUsMobileFilter0_i)"><path fill="#CE6060" d="M239.011 102.142C238.465 102.142 237.956 102.048 237.483 101.861C237.014 101.668 236.545 101.336 236.076 100.866C235.614 100.396 235.145 99.7501 234.669 98.9298C234.193 98.1095 233.913 97.4642 233.829 96.9937C233.752 96.5232 233.838 96.1945 234.086 96.0075C234.338 95.8145 234.737 95.718 235.283 95.718C235.83 95.718 236.337 95.8145 236.806 96.0075C237.282 96.2005 237.751 96.5323 238.213 97.0027C238.679 97.4672 239.15 98.1095 239.626 98.9298C240.102 99.7501 240.378 100.396 240.455 100.866C240.536 101.33 240.45 101.659 240.198 101.852C239.953 102.045 239.557 102.142 239.011 102.142ZM238.423 101.128C238.696 101.128 238.866 101.065 238.933 100.938C239.003 100.806 238.985 100.607 238.88 100.341C238.782 100.076 238.598 99.7109 238.329 99.2465L237.961 98.6132C237.692 98.1488 237.452 97.7838 237.242 97.5185C237.039 97.2531 236.827 97.057 236.607 96.9304C236.39 96.7977 236.145 96.7313 235.872 96.7313C235.599 96.7313 235.427 96.7977 235.357 96.9304C235.29 97.057 235.306 97.2531 235.404 97.5185C235.509 97.7838 235.697 98.1488 235.966 98.6132L236.334 99.2465C236.603 99.7109 236.839 100.076 237.042 100.341C237.252 100.607 237.466 100.806 237.683 100.938C237.904 101.065 238.15 101.128 238.423 101.128Z"/><path fill="#CE6060" d="M246.18 102.142C245.354 102.142 244.621 101.976 243.98 101.644C243.336 101.306 242.848 100.851 242.515 100.278L242.421 100.115H243.88L243.991 100.305C244.145 100.57 244.358 100.776 244.631 100.92C244.901 101.059 245.214 101.128 245.571 101.128C245.893 101.128 246.108 101.059 246.217 100.92C246.322 100.776 246.292 100.561 246.128 100.278C245.935 99.9462 245.695 99.714 245.408 99.5813C245.121 99.4486 244.803 99.3822 244.453 99.3822H243.917L243.329 98.3689H243.896C244.183 98.3689 244.376 98.2965 244.474 98.1518C244.568 98.001 244.533 97.7838 244.369 97.5004C244.218 97.241 244.026 97.048 243.791 96.9213C243.564 96.7947 243.306 96.7313 243.019 96.7313C242.718 96.7313 242.522 96.7977 242.431 96.9304C242.337 97.057 242.363 97.247 242.51 97.5004L242.61 97.6723H241.15L241.003 97.4189C240.807 97.0812 240.737 96.7856 240.793 96.5323C240.846 96.2729 241.01 96.0739 241.287 95.9352C241.567 95.7904 241.938 95.718 242.4 95.718C243.135 95.718 243.805 95.8658 244.411 96.1613C245.023 96.4569 245.487 96.8761 245.802 97.4189C246.002 97.7627 246.065 98.0462 245.991 98.2694C245.921 98.4865 245.75 98.6675 245.477 98.8122L245.498 98.8484C245.949 98.951 246.366 99.1319 246.747 99.3913C247.129 99.6506 247.433 99.9763 247.661 100.368C247.871 100.73 247.946 101.047 247.887 101.318C247.831 101.584 247.656 101.789 247.362 101.934C247.064 102.072 246.67 102.142 246.18 102.142Z"/><path fill="#CE6060" d="M253.192 102.142C252.435 102.142 251.765 101.964 251.181 101.608C250.603 101.252 250.144 100.782 249.805 100.196H251.265C251.443 100.504 251.646 100.739 251.874 100.902C252.098 101.059 252.36 101.137 252.661 101.137C252.962 101.137 253.146 101.068 253.213 100.929C253.283 100.785 253.269 100.586 253.17 100.332C253.072 100.079 252.903 99.7381 252.661 99.3098C252.574 99.4486 252.428 99.5662 252.225 99.6627C252.026 99.7532 251.776 99.7984 251.475 99.7984C250.76 99.7984 250.118 99.6144 249.548 99.2465C248.984 98.8786 248.522 98.384 248.161 97.7627C247.923 97.3526 247.82 96.9937 247.852 96.6861C247.88 96.3724 248.028 96.1342 248.298 95.9713C248.571 95.8025 248.939 95.718 249.401 95.718C250.276 95.718 251.072 95.9502 251.79 96.4147C252.504 96.8731 253.179 97.6511 253.816 98.7489C254.303 99.5873 254.59 100.257 254.677 100.757C254.765 101.258 254.681 101.614 254.425 101.825C254.17 102.036 253.759 102.142 253.192 102.142ZM251.259 98.8122C251.595 98.8122 251.797 98.7187 251.863 98.5318C251.93 98.3448 251.868 98.0884 251.679 97.7627C251.501 97.4551 251.27 97.2078 250.986 97.0208C250.699 96.8278 250.388 96.7313 250.052 96.7313C249.716 96.7313 249.52 96.8278 249.464 97.0208C249.404 97.2078 249.464 97.4551 249.642 97.7627C249.831 98.0884 250.064 98.3448 250.34 98.5318C250.617 98.7187 250.923 98.8122 251.259 98.8122Z"/><path fill="#CE6060" d="M257.735 101.707C257.535 101.364 257.444 101.056 257.462 100.785C257.476 100.507 257.549 100.266 257.682 100.061C257.823 99.8557 258.024 99.6235 258.286 99.3641C258.507 99.1289 258.673 98.9329 258.785 98.776C258.904 98.6192 258.979 98.4473 259.011 98.2603C259.049 98.0251 258.983 97.7597 258.811 97.4642C258.699 97.2712 258.517 97.1023 258.265 96.9575C258.017 96.8067 257.739 96.7313 257.43 96.7313C256.737 96.7313 256.557 97.0178 256.89 97.5908L257.105 97.9618H255.677C255.586 97.8532 255.502 97.7326 255.425 97.5999C255.061 96.9726 255.029 96.5021 255.33 96.1885C255.638 95.8748 256.163 95.718 256.905 95.718C257.556 95.718 258.12 95.8266 258.596 96.0437C259.072 96.2609 259.441 96.5051 259.704 96.7766C259.974 97.048 260.177 97.3013 260.313 97.5365C260.555 97.9527 260.661 98.3237 260.633 98.6494C260.602 98.9691 260.5 99.2405 260.329 99.4636C260.161 99.6808 259.932 99.919 259.641 100.178C259.42 100.377 259.263 100.54 259.168 100.667C259.102 100.757 259.065 100.845 259.058 100.929H262.324L262.965 102.033H257.924L257.735 101.707Z"/><path fill="#CE6060" d="M210.105 99.2064C210.467 99.831 210.174 100.337 209.449 100.337C208.724 100.337 207.842 99.831 207.48 99.2064C207.117 98.5818 207.411 98.0754 208.136 98.0754C208.861 98.0754 209.742 98.5818 210.105 99.2064Z"/><path fill="#CE6060" d="M182.945 99.2059C183.308 99.8305 183.014 100.337 182.289 100.337C181.564 100.337 180.682 99.8305 180.32 99.2059C179.957 98.5813 180.251 98.075 180.976 98.075C181.701 98.075 182.583 98.5813 182.945 99.2059Z"/><path fill="#CE6060" d="M216.012 99.2059C216.375 99.8305 216.081 100.337 215.356 100.337C214.631 100.337 213.749 99.8305 213.387 99.2059C213.024 98.5813 213.318 98.075 214.043 98.075C214.768 98.075 215.65 98.5813 216.012 99.2059Z"/><path fill="#CE6060" d="M188.854 99.2059C189.217 99.8305 188.923 100.337 188.198 100.337C187.473 100.337 186.592 99.8305 186.229 99.2059C185.867 98.5813 186.16 98.075 186.885 98.075C187.61 98.075 188.492 98.5813 188.854 99.2059Z"/><path fill="#CE6060" d="M221.919 99.2059C222.281 99.8305 221.987 100.337 221.263 100.337C220.538 100.337 219.656 99.8305 219.294 99.2059C218.931 98.5813 219.225 98.075 219.95 98.075C220.675 98.075 221.556 98.5813 221.919 99.2059Z"/><path fill="#CE6060" d="M194.761 99.2059C195.124 99.8305 194.83 100.337 194.105 100.337C193.38 100.337 192.498 99.8305 192.136 99.2059C191.773 98.5813 192.067 98.075 192.792 98.075C193.517 98.075 194.399 98.5813 194.761 99.2059Z"/><path fill="#CE6060" d="M227.826 99.2071C228.189 99.8317 227.895 100.338 227.17 100.338C226.445 100.338 225.563 99.8317 225.201 99.2071C224.838 98.5825 225.132 98.0762 225.857 98.0762C226.582 98.0762 227.464 98.5825 227.826 99.2071Z"/><path fill="#CE6060" d="M200.667 99.2059C201.03 99.8305 200.736 100.337 200.011 100.337C199.286 100.337 198.405 99.8305 198.042 99.2059C197.68 98.5813 197.973 98.075 198.698 98.075C199.423 98.075 200.305 98.5813 200.667 99.2059Z"/></g><g><path fill="#fff" fill-opacity=".5" d="M250.893 47H62.672C61.3285 47 60.0522 47.5872 59.1782 48.6074L34.5057 77.4062C31.9488 80.3907 34.0695 85 37.9995 85H275.118C279.029 85 281.156 80.4304 278.639 77.4379L254.414 48.6391C253.539 47.5999 252.251 47 250.893 47Z"/><path stroke="url(#buildWithUsMobilePaint4_linear)" stroke-width=".418" d="M62.672 47.2091H250.893C252.189 47.2091 253.419 47.7818 254.254 48.7737L278.479 77.5725C280.882 80.429 278.851 84.7909 275.118 84.7909H37.9995C34.2481 84.7909 32.2239 80.3911 34.6645 77.5423L59.337 48.7435C60.1713 47.7696 61.3896 47.2091 62.672 47.2091Z"/></g><g filter="url(#buildWithUsMobileFilter2_i)"><path fill="#F1F1F4" d="M91.6536 53.6086H64.1933C63.3933 53.6086 62.6412 53.9902 62.1685 54.6357L58.9387 59.0475C58.3319 59.8764 58.9238 61.0434 59.9511 61.0434H88.6152C89.6008 61.0434 90.4951 60.4665 90.9014 59.5687L92.7967 55.3807C93.1726 54.5501 92.5653 53.6086 91.6536 53.6086Z"/></g><path fill="url(#buildWithUsMobilePaint5_linear)" stroke="#F1F1F1" stroke-width=".418" d="M61.325 17.2091H252.256C252.688 17.2091 253.098 17.4 253.376 17.7306L282.527 52.3847C283.328 53.3369 282.651 54.7909 281.407 54.7909H31.6362C30.3857 54.7909 29.711 53.3243 30.5245 52.3747L60.2133 17.7206C60.4914 17.396 60.8975 17.2091 61.325 17.2091Z"/><g filter="url(#buildWithUsMobileFilter3_i)"><path fill="#F1F1F4" d="M91.6536 25.2607H64.1933C63.3933 25.2607 62.6412 25.6423 62.1685 26.2878L58.9387 30.6996C58.3319 31.5285 58.9238 32.6955 59.9511 32.6955H88.6152C89.6008 32.6955 90.4951 32.1186 90.9014 31.2208L92.7967 27.0328C93.1726 26.2022 92.5653 25.2607 91.6536 25.2607Z"/></g><g filter="url(#buildWithUsMobileFilter4_i)"><path fill="#F1F1F4" fill-rule="evenodd" d="M71.2629 1H76.6818L80.496 1.96268L81.2104 2.93023H68.5579L69.258 2.00021C69.7321 1.37042 70.4746 1 71.2629 1ZM66.5087 5.65243L68.2431 3.34847H77.9944L76.2929 5.65243H66.5087ZM76.8129 5.65243L78.5143 3.34847H81.6247H82.039L81.7929 3.01515L80.788 1.65403L80.7436 1.5938L80.671 1.57548L78.3909 1H97.7434C98.6608 1 99.268 1.95234 98.881 2.78408L98.8129 2.93029H86.8495H86.7222L86.6638 3.0434L85.3154 5.65243H76.8129ZM85.7862 5.65243H97.5462L98.6183 3.34852H86.9769L85.7862 5.65243ZM66.1983 6.07067C65.6696 6.89163 66.2545 8 67.2565 8H83.6232L81.3563 7.22614L81.1266 7.14775L81.2381 6.93221L81.6834 6.07067H66.1983ZM82.1542 6.07067L81.721 6.90872L84.9089 7.997L84.9079 8H94.8537C95.8296 8 96.7171 7.43415 97.1288 6.54932L97.3516 6.07067H82.1542Z" clip-rule="evenodd"/></g><path fill="#F7F5F5" fill-rule="evenodd" d="M233.926 12.0892C235.614 12.1659 237.067 12.4138 238.008 12.6213L238.268 14.3914L237.831 14.2851C236.962 14.081 235.84 13.8655 234.43 13.8188C232.707 13.7405 232.107 14.0682 232.258 14.4216C232.443 14.8112 233.499 15.1104 235.206 15.5605C238.001 16.2679 239.512 17.0468 239.945 17.9934C240.729 19.7183 238.279 20.6985 233.701 20.4904C231.739 20.3926 229.757 20.1028 228.624 19.8264L228.348 17.986L228.985 18.1451C230.551 18.5197 231.547 18.6946 233.289 18.7738C234.545 18.8309 235.77 18.6351 235.522 18.0783C235.35 17.7153 234.65 17.4234 232.769 16.9395C230.928 16.4659 228.404 15.7016 227.873 14.5079C227.122 12.8887 229.618 11.8934 233.926 12.0892ZM246.426 15.001C246.426 15.001 246.449 16.8154 246.344 17.2842L249.974 17.2332C249.572 16.8321 247.263 14.9114 247.263 14.9114L246.575 14.2201C246.545 14.401 246.495 14.6499 246.461 14.8177C246.438 14.9315 246.422 15.0081 246.426 15.001ZM245.07 12.0431L248.448 11.9957L256.831 20.0187L252.787 20.0755C252.787 20.0755 251.881 19.1535 251.6 18.8719L245.993 18.9506C245.949 19.1675 245.742 20.1744 245.742 20.1744L241.16 20.2388L243.156 12.745C243.317 12.2148 244.028 12.0578 245.07 12.0431Z" clip-rule="evenodd"/><path fill="#F7F5F5" fill-rule="evenodd" d="M223.491 20.6104L219.106 20.6735L222.196 12.0273L226.581 11.9642L223.491 20.6104ZM215.79 12.1196L210.788 18.0504L210.462 16.8669C210.462 16.8671 210.462 16.8673 210.462 16.8675L209.405 12.9338C209.219 12.3877 208.461 12.2432 207.507 12.2389L200.451 12.3405L200.358 12.5154C202.052 12.7139 203.552 13.0135 204.852 13.3942L207.86 20.8164L212.498 20.7496L220.427 12.0528L215.79 12.1196Z" clip-rule="evenodd"/></g><defs><filter id="buildWithUsMobileFilter0_i" width="82.8" height="6.842" x="180.165" y="95.718" color-interpolation-filters="sRGB" filterUnits="userSpaceOnUse"><feFlood flood-opacity="0" result="BackgroundImageFix"/><feBlend in="SourceGraphic" in2="BackgroundImageFix" mode="normal" result="shape"/><feColorMatrix in="SourceAlpha" result="hardAlpha" type="matrix" values="0 0 0 0 0 0 0 0 0 0 0 0 0 0 0 0 0 0 127 0"/><feOffset dy=".418"/><feGaussianBlur stdDeviation=".209"/><feComposite in2="hardAlpha" k2="-1" k3="1" operator="arithmetic"/><feColorMatrix type="matrix" values="0 0 0 0 0.280972 0 0 0 0 0.354025 0 0 0 0 0.495833 0 0 0 0.19 0"/><feBlend in2="shape" mode="normal" result="effect1_innerShadow"/></filter><filter id="buildWithUsMobileFilter1_b" width="296.526" height="88.188" x="8.296" y="21.906" color-interpolation-filters="sRGB" filterUnits="userSpaceOnUse"><feFlood flood-opacity="0" result="BackgroundImageFix"/><feGaussianBlur in="BackgroundImage" stdDeviation="12.547"/><feComposite in2="SourceAlpha" operator="in" result="effect1_backgroundBlur"/><feBlend in="SourceGraphic" in2="effect1_backgroundBlur" mode="normal" result="shape"/></filter><filter id="buildWithUsMobileFilter2_i" width="34.634" height="7.853" x="58.694" y="53.609" color-interpolation-filters="sRGB" filterUnits="userSpaceOnUse"><feFlood flood-opacity="0" result="BackgroundImageFix"/><feBlend in="SourceGraphic" in2="BackgroundImageFix" mode="normal" result="shape"/><feColorMatrix in="SourceAlpha" result="hardAlpha" type="matrix" values="0 0 0 0 0 0 0 0 0 0 0 0 0 0 0 0 0 0 127 0"/><feOffset dx=".418" dy=".418"/><feGaussianBlur stdDeviation=".209"/><feComposite in2="hardAlpha" k2="-1" k3="1" operator="arithmetic"/><feColorMatrix type="matrix" values="0 0 0 0 0.280972 0 0 0 0 0.354025 0 0 0 0 0.495833 0 0 0 0.19 0"/><feBlend in2="shape" mode="normal" result="effect1_innerShadow"/></filter><filter id="buildWithUsMobileFilter3_i" width="34.634" height="7.853" x="58.694" y="25.261" color-interpolation-filters="sRGB" filterUnits="userSpaceOnUse"><feFlood flood-opacity="0" result="BackgroundImageFix"/><feBlend in="SourceGraphic" in2="BackgroundImageFix" mode="normal" result="shape"/><feColorMatrix in="SourceAlpha" result="hardAlpha" type="matrix" values="0 0 0 0 0 0 0 0 0 0 0 0 0 0 0 0 0 0 127 0"/><feOffset dx=".418" dy=".418"/><feGaussianBlur stdDeviation=".209"/><feComposite in2="hardAlpha" k2="-1" k3="1" operator="arithmetic"/><feColorMatrix type="matrix" values="0 0 0 0 0.280972 0 0 0 0 0.354025 0 0 0 0 0.495833 0 0 0 0.19 0"/><feBlend in2="shape" mode="normal" result="effect1_innerShadow"/></filter><filter id="buildWithUsMobileFilter4_i" width="33.418" height="7.418" x="65.999" y="1" color-interpolation-filters="sRGB" filterUnits="userSpaceOnUse"><feFlood flood-opacity="0" result="BackgroundImageFix"/><feBlend in="SourceGraphic" in2="BackgroundImageFix" mode="normal" result="shape"/><feColorMatrix in="SourceAlpha" result="hardAlpha" type="matrix" values="0 0 0 0 0 0 0 0 0 0 0 0 0 0 0 0 0 0 127 0"/><feOffset dx=".418" dy=".418"/><feGaussianBlur stdDeviation=".209"/><feComposite in2="hardAlpha" k2="-1" k3="1" operator="arithmetic"/><feColorMatrix type="matrix" values="0 0 0 0 0.280972 0 0 0 0 0.354025 0 0 0 0 0.495833 0 0 0 0.19 0"/><feBlend in2="shape" mode="normal" result="effect1_innerShadow"/></filter><linearGradient id="buildWithUsMobilePaint0_linear" x1="157.233" x2="157.146" y1="-27.926" y2="-392.973" gradientUnits="userSpaceOnUse"><stop stop-color="#E77877"/><stop offset="1" stop-color="#E77877" stop-opacity="0"/></linearGradient><linearGradient id="buildWithUsMobilePaint1_linear" x1="151.072" x2="155.367" y1="73" y2="123.725" gradientUnits="userSpaceOnUse"><stop stop-color="#FF9191"/><stop offset="1" stop-color="#C25252"/></linearGradient><linearGradient id="buildWithUsMobilePaint2_linear" x1="273.197" x2="189.395" y1="108.062" y2="-8.032" gradientUnits="userSpaceOnUse"><stop stop-color="#FFA7A7"/><stop offset="1" stop-color="#934343"/></linearGradient><linearGradient id="buildWithUsMobilePaint3_linear" x1="156.5" x2="156.5" y1="47" y2="85" gradientUnits="userSpaceOnUse"><stop stop-color="#fff"/><stop offset=".176" stop-color="#fff" stop-opacity=".559"/><stop offset="1" stop-color="#fff" stop-opacity="0"/></linearGradient><linearGradient id="buildWithUsMobilePaint4_linear" x1="96.298" x2="103.49" y1="31.098" y2="101.323" gradientUnits="userSpaceOnUse"><stop stop-color="#B9B9B9"/><stop offset="1" stop-color="#fff"/></linearGradient><linearGradient id="buildWithUsMobilePaint5_linear" x1="156.5" x2="156.5" y1="17" y2="56.698" gradientUnits="userSpaceOnUse"><stop stop-color="#FBFBFB"/><stop offset="1" stop-color="#F5F5F5"/></linearGradient></defs></svg>
