<svg xmlns="http://www.w3.org/2000/svg" fill="none" preserveAspectRatio="xMinYMin slice" viewBox="0 0 320 773"><mask id="careerHeroBgMobileMask0" width="320" height="773" x="0" y="0"
                                                                                                                     maskUnits="userSpaceOnUse"><rect width="320" height="773" fill="#C4C4C4"/></mask><g mask="url(#careerHeroBgMobileMask0)"><path fill="#FBFBFB" d="M-254.768 358.426L395.222 532.233L362.14 914.437L-239.683 914.438L-604.7 914.438L-603.688 559.044L-254.768 358.426Z"/><path fill="#FBFBFB" d="M152.572 -25.2022L403.303 23.9496L477.446 237.125L403.303 496.341L-382.775 296.201C-388.274 294.8 -389.636 290.653 -385.405 288.188L152.572 -25.2022Z"/><path fill="#F1F1F1" d="M-255.703 357.878V332.172L406.85 515.022V544.529L-255.703 357.878Z"/><path fill="url(#careerHeroBgMobilePaint0_linear)" d="M-249.447 326.285L376.224 488.422L359.46 505.187L-255.035 336.344L-255.035 334.038C-255.035 331.127 -253.023 328.336 -249.447 326.285Z"/><path fill="url(#careerHeroBgMobilePaint1_linear)" d="M-256.31 352.044L371.091 519.656L359.684 537.375L-259.645 364.007L-257.571 361.865C-255.633 359.863 -254.834 357.67 -255.341 355.739L-256.31 352.044Z"/><path fill="url(#careerHeroBgMobilePaint2_linear)" d="M-358.531 415.772L-298.624 444.832L192.255 657.859L376.223 911.569L-358.531 1032.28V415.772Z"/><path fill="url(#careerHeroBgMobilePaint3_linear)" d="M583.648 391.631L528.042 428.254L69.1327 703.472L-80.181 979.005L664.04 1002.87L583.648 391.631Z"/><path fill="url(#careerHeroBgMobilePaint4_linear)" d="M351.475 456L279.245 449.319L221.998 415.471L233.403 371.155L363.998 350L351.475 456Z"/><path stroke="url(#careerHeroBgMobilePaint5_linear)" stroke-dasharray="4 4" d="M360.998 247L120.955 422.914C118.127 424.986 116.457 428.281 116.457 431.786V456.754C116.457 460.55 114.5 464.077 111.279 466.087L78.7206 486.398C70.5233 491.512 72.4287 503.953 81.7808 506.379L104.412 512.249C113.521 514.612 115.65 526.578 107.916 531.938L42.7323 577.112C39.7671 579.167 37.998 582.546 37.998 586.153V623.071C37.998 626.898 41.1005 630 44.9275 630V630"/><path stroke="url(#careerHeroBgMobilePaint6_linear)" d="M352.998 245L113.251 420.672C110.423 422.744 108.753 426.039 108.753 429.545V454.554C108.753 458.3 106.846 461.788 103.694 463.811L63.0177 489.919C54.9666 495.086 56.8937 507.358 66.1411 509.809L88.4623 515.725C97.595 518.146 99.628 530.194 91.7952 535.478L48.026 565"/><path stroke="url(#careerHeroBgMobilePaint7_linear)" d="M89.998 169L-187.368 337.27C-190.655 339.264 -192.662 342.83 -192.662 346.675V371.335C-192.662 374.919 -194.409 378.279 -197.343 380.338L-308.002 458" opacity=".3"/><path stroke="url(#careerHeroBgMobilePaint8_linear)" d="M149.998 183L-128.133 351.704C-131.421 353.698 -133.429 357.264 -133.429 361.109V385.89C-133.429 389.458 -135.159 392.805 -138.072 394.867L-271.002 489"/><path stroke="url(#careerHeroBgMobilePaint9_linear)" stroke-dasharray="4 4" d="M157.998 186L-119.737 354.811C-123.019 356.806 -125.023 360.37 -125.023 364.211V389.136C-125.023 392.641 -126.693 395.935 -129.52 398.007L-240.002 479"/><path stroke="url(#careerHeroBgMobilePaint10_linear)" d="M-300.002 463L-189.284 385.19C-186.353 383.13 -184.609 379.772 -184.609 376.19V351.472C-184.609 347.62 -182.594 344.049 -179.297 342.057L-26.4805 249.732C-24.2433 248.381 -21.5979 247.87 -19.0183 248.291L27.2812 255.857C30.0956 256.317 32.9785 255.666 35.3222 254.042L157.998 169" opacity=".5"/><rect width="41.096" height="41.096" fill="url(#careerHeroBgMobilePaint11_linear)" transform="matrix(0.866044 0.499967 -0.866044 0.499967 241.258 345.583)"/><rect width="41.096" height="41.096" fill="url(#careerHeroBgMobilePaint12_linear)" transform="matrix(1.19249e-08 -1 0.865988 0.500065 205.67 407.221)"/><rect width="41.096" height="41.096" fill="url(#careerHeroBgMobilePaint13_linear)" transform="matrix(0.866007 -0.500033 -3.75718e-05 1 241.258 386.676)"/><rect width="41.096" height="41.096" fill="url(#careerHeroBgMobilePaint14_linear)" transform="matrix(0.866044 0.499967 -0.866044 0.499967 241.258 304.006)"/><rect width="41.096" height="41.096" fill="url(#careerHeroBgMobilePaint15_linear)" transform="matrix(1.19249e-08 -1 0.865988 0.500065 205.67 365.644)"/><rect width="41.096" height="41.096" fill="url(#careerHeroBgMobilePaint16_linear)" transform="matrix(0.866007 -0.500033 -3.75718e-05 1 241.258 345.099)"/><path stroke="url(#careerHeroBgMobilePaint17_linear)" d="M276.753 324.571L240.987 344.689M240.987 344.689L205.893 324.571M240.987 344.689V385.595"/><path stroke="#6CADB6" stroke-width="1.128" d="M241.547 386.937L277.095 366.264L312.643 386.937M241.547 386.937L277.095 407.358M241.547 386.937V427.779L277.095 448.705M277.095 407.358L312.643 386.937M277.095 407.358V448.705M312.643 386.937V427.779L277.095 448.705"/><circle cx="241.8" cy="387.189" r="1.261" fill="#6CADB6"/><circle cx="241.8" cy="428.031" r="1.261" fill="#6CADB6"/><circle cx="277.096" cy="407.358" r="1.261" fill="#6CADB6"/><circle cx="277.096" cy="448.2" r="1.261" fill="#6CADB6"/><circle cx="277.096" cy="366.515" r="1.261" fill="#6CADB6"/><circle cx="312.895" cy="387.189" r="1.261" fill="#6CADB6"/><circle cx="312.895" cy="428.031" r="1.261" fill="#6CADB6"/></g><defs><linearGradient id="careerHeroBgMobilePaint0_linear" x1="-28.819" x2="-34.389" y1="374.644" y2="395.966" gradientUnits="userSpaceOnUse"><stop stop-color="#FBFBFB"/><stop offset="1" stop-color="#F1F1F1"/></linearGradient><linearGradient id="careerHeroBgMobilePaint1_linear" x1="-150.986" x2="-154.139" y1="377.445" y2="388.945" gradientUnits="userSpaceOnUse"><stop stop-color="#F1F1F1"/><stop offset="1" stop-color="#FBFBFB"/></linearGradient><linearGradient id="careerHeroBgMobilePaint2_linear" x1="-295.942" x2="-147.516" y1="938.617" y2="510.103" gradientUnits="userSpaceOnUse"><stop stop-color="#fff"/><stop offset="1" stop-color="#fff" stop-opacity="0"/></linearGradient><linearGradient id="careerHeroBgMobilePaint3_linear" x1="589.772" x2="386.735" y1="918.173" y2="512.672" gradientUnits="userSpaceOnUse"><stop stop-color="#fff"/><stop offset="1" stop-color="#fff" stop-opacity="0"/></linearGradient><linearGradient id="careerHeroBgMobilePaint4_linear" x1="29.459" x2="348.109" y1="415.693" y2="394.81" gradientUnits="userSpaceOnUse"><stop stop-color="#C4C4C4"/><stop offset="1" stop-color="#C4C4C4" stop-opacity="0"/></linearGradient><linearGradient id="careerHeroBgMobilePaint5_linear" x1="180.833" x2="347.826" y1="379.732" y2="262.435" gradientUnits="userSpaceOnUse"><stop stop-color="#3C939F"/><stop offset="1" stop-color="#60C8D6" stop-opacity="0"/></linearGradient><linearGradient id="careerHeroBgMobilePaint6_linear" x1="41.998" x2="384.059" y1="578.835" y2="371.265" gradientUnits="userSpaceOnUse"><stop stop-color="#3C939F" stop-opacity="0"/><stop offset=".466" stop-color="#3C939F"/><stop offset="1" stop-color="#60C8D6" stop-opacity="0"/></linearGradient><linearGradient id="careerHeroBgMobilePaint7_linear" x1="-128.411" x2="38.244" y1="294.1" y2="177.027" gradientUnits="userSpaceOnUse"><stop stop-color="#3C939F"/><stop offset="1" stop-color="#60C8D6" stop-opacity="0"/></linearGradient><linearGradient id="careerHeroBgMobilePaint8_linear" x1="-271.002" x2="-40.799" y1="493.841" y2="506.249" gradientUnits="userSpaceOnUse"><stop stop-color="#3C939F" stop-opacity="0"/><stop offset=".629" stop-color="#3C939F"/><stop offset="1" stop-color="#60C8D6" stop-opacity="0"/></linearGradient><linearGradient id="careerHeroBgMobilePaint9_linear" x1="-240.002" x2="-62.548" y1="485.708" y2="485.245" gradientUnits="userSpaceOnUse"><stop stop-color="#3C939F" stop-opacity="0"/><stop offset=".285" stop-color="#3C939F"/><stop offset=".629" stop-color="#3C939F"/><stop offset="1" stop-color="#60C8D6" stop-opacity="0"/></linearGradient><linearGradient id="careerHeroBgMobilePaint10_linear" x1="-93.337" x2="82.224" y1="296.264" y2="156.756" gradientUnits="userSpaceOnUse"><stop stop-color="#3C939F"/><stop offset="1" stop-color="#60C8D6" stop-opacity="0"/></linearGradient><linearGradient id="careerHeroBgMobilePaint11_linear" x1="20.548" x2="20.548" y1="0" y2="42.932" gradientUnits="userSpaceOnUse"><stop stop-color="#FBFBFB"/><stop offset="1" stop-color="#F5F5F5"/></linearGradient><linearGradient id="careerHeroBgMobilePaint12_linear" x1="29.187" x2="12.62" y1="11.098" y2="52.529" gradientUnits="userSpaceOnUse"><stop stop-color="#F4F4F4"/><stop offset="1" stop-color="#F2F2F2"/></linearGradient><linearGradient id="careerHeroBgMobilePaint13_linear" x1="12.335" x2="65.534" y1="2.628" y2="38.101" gradientUnits="userSpaceOnUse"><stop stop-color="#FBFBFB"/><stop offset="1" stop-color="#CFCFCF"/></linearGradient><linearGradient id="careerHeroBgMobilePaint14_linear" x1="20.548" x2="20.548" y1="0" y2="42.932" gradientUnits="userSpaceOnUse"><stop stop-color="#FBFBFB"/><stop offset="1" stop-color="#F5F5F5"/></linearGradient><linearGradient id="careerHeroBgMobilePaint15_linear" x1="20.548" x2="20.548" y1="0" y2="42.932" gradientUnits="userSpaceOnUse"><stop stop-color="#FBFBFB"/><stop offset="1" stop-color="#F5F5F5"/></linearGradient><linearGradient id="careerHeroBgMobilePaint16_linear" x1="12.335" x2="129.551" y1="2.628" y2="80.107" gradientUnits="userSpaceOnUse"><stop stop-color="#FBFBFB"/><stop offset="1" stop-color="#CFCFCF"/></linearGradient><linearGradient id="careerHeroBgMobilePaint17_linear" x1="242.329" x2="241.323" y1="330.606" y2="385.595" gradientUnits="userSpaceOnUse"><stop stop-color="#fff"/><stop offset="1" stop-color="#fff" stop-opacity="0"/></linearGradient></defs></svg>
