<svg width="304" height="224" viewBox="0 0 304 224" fill="none" xmlns="http://www.w3.org/2000/svg">
<g filter="url(#filter0_b)">
<rect width="59.7338" height="121.836" transform="matrix(0.865888 0.500238 -0.865888 0.500238 152.01 53.4014)" fill="url(#paint0_linear)" fill-opacity="0.6"/>
</g>
<path d="M46.5064 60.9406L98.854 91.1608L98.854 144.812L46.5059 114.349L46.5064 60.9406Z" fill="url(#paint1_linear)"/>
<path d="M204.125 30.1605L98.6246 91.1005L98.6293 144.516L204.126 83.5687L204.125 30.1605Z" fill="url(#paint2_linear)"/>
<rect width="60.5303" height="121.836" transform="matrix(0.865888 0.500238 -0.865888 0.500238 152.01 0)" fill="url(#paint3_linear)"/>
<g filter="url(#filter1_b)">
<path d="M204.303 83.5571L256.025 113.438L205.583 143.241L153.517 112.897L204.303 83.5571Z" fill="url(#paint4_linear)" fill-opacity="0.6"/>
</g>
<path d="M150.355 61.6099L202.703 92.0257L202.703 145.481L150.355 115.018L150.355 61.6099Z" fill="url(#paint5_linear)"/>
<path d="M256.418 60.3164L202.752 92.0243L202.756 145.44L256.418 113.725L256.418 60.3164Z" fill="#EBEBEB"/>
<path d="M204.275 30.1558L256.688 60.4353L202.734 92.0384L150.033 61.4926L204.275 30.1558Z" fill="url(#paint6_linear)"/>
<g filter="url(#filter2_b)">
<path d="M150.982 115.598L202.705 145.479L152.263 175.281L100.197 144.937L150.982 115.598Z" fill="url(#paint7_linear)" fill-opacity="0.6"/>
</g>
<path d="M150.619 82.3004L202.765 113.085L152.143 141.979L98.8571 111.2L150.619 82.3004Z" fill="url(#paint8_linear)"/>
<path d="M202.765 113.084L203.03 145.249L151.92 175.281L151.92 141.843L202.765 113.084Z" fill="#EBEBEB"/>
<path d="M98.8519 111.2L98.8519 143.868L151.906 175.282L151.906 141.67L98.8519 111.2Z" fill="url(#paint9_linear)"/>
<g opacity="0.5" filter="url(#filter3_f)">
<circle r="20.6713" transform="matrix(0.865888 0.500238 -0.865888 0.500238 203.621 59.2295)" fill="#1E396A" fill-opacity="0.2"/>
</g>
<g opacity="0.5" filter="url(#filter4_f)">
<circle r="13.036" transform="matrix(0.865888 0.500238 -0.865888 0.500238 149.834 109.988)" fill="#1E396A" fill-opacity="0.2"/>
</g>
<path d="M221.168 54.157C211.282 59.8679 195.255 59.8679 185.37 54.157C175.484 48.446 175.039 38.0378 184.924 32.3269C194.81 26.6159 211.552 25.9267 221.438 31.6377C231.323 37.3486 231.053 48.446 221.168 54.157Z" fill="url(#paint10_linear)"/>
<circle r="20.6713" transform="matrix(0.865888 0.500238 -0.865888 0.500238 203.27 41.5186)" fill="url(#paint11_linear)"/>
<path d="M210.325 53.9754C208.975 53.1798 207.255 52.6381 205.383 52.4186C203.511 52.1991 201.57 52.3118 199.806 52.7423C198.043 53.1728 196.535 53.9019 195.475 54.8373C194.414 55.7728 193.848 56.8726 193.848 57.9976C193.848 59.1226 194.414 60.2224 195.475 61.1578C196.535 62.0933 198.043 62.8224 199.806 63.2529C201.57 63.6834 203.511 63.7961 205.383 63.5766C207.255 63.3571 208.975 62.8153 210.325 62.0198C212.135 60.9531 213.152 59.5062 213.152 57.9976C213.152 56.489 212.135 55.0421 210.325 53.9754V53.9754ZM207.807 59.7361L204.74 59.716L202.984 61.1975C202.927 61.2474 202.846 61.2865 202.752 61.3102C202.658 61.334 202.554 61.3414 202.454 61.3316C202.341 61.321 202.238 61.2897 202.158 61.2422C202.097 61.2066 202.051 61.1629 202.025 61.1148L201.115 59.3897L198.188 58.8534C198.093 58.8357 198.008 58.8026 197.943 58.758C197.878 58.7134 197.836 58.659 197.82 58.6009C197.804 58.5414 197.816 58.4803 197.856 58.4249C197.897 58.3695 197.963 58.322 198.048 58.2881L200.562 57.2535L200.527 55.4457C200.526 55.3864 200.552 55.328 200.604 55.2772C200.656 55.2264 200.731 55.1852 200.821 55.1584C200.911 55.1316 201.012 55.1202 201.112 55.1256C201.212 55.1309 201.308 55.1528 201.388 55.1887L203.841 56.268L206.7 55.6647C206.795 55.646 206.896 55.6433 206.993 55.6568C207.09 55.6702 207.179 55.6994 207.249 55.7409C207.32 55.7825 207.369 55.8348 207.392 55.892C207.415 55.9492 207.41 56.009 207.379 56.0647L206.397 57.7741L208.239 59.2266C208.3 59.274 208.336 59.3304 208.344 59.3893C208.353 59.4482 208.333 59.5074 208.287 59.56C208.241 59.6126 208.171 59.6566 208.085 59.6869C207.999 59.7172 207.9 59.7327 207.8 59.7316L207.807 59.7361Z" fill="#F9F9F9"/>
<path d="M149.545 62.2004L104.507 66.1789L98.375 58.2754L102.636 55.0516L133.535 43.667L149.545 62.2004Z" fill="url(#paint12_linear)"/>
<path opacity="0.2" d="M136.755 69.3355L91.7502 72.0018L85.623 66.7052L89.8809 64.5447L120.756 56.915L136.755 69.3355Z" fill="url(#paint13_linear)"/>
<rect width="16.3661" height="16.3661" transform="matrix(0.865907 0.500205 -0.865907 0.500205 104.385 33.3008)" fill="url(#paint14_linear)"/>
<rect width="16.3739" height="16.3661" transform="matrix(1.19249e-08 -1 0.865988 0.500065 90.2168 57.8594)" fill="url(#paint15_linear)"/>
<rect width="16.3661" height="16.3739" transform="matrix(0.865869 -0.50027 -3.7548e-05 1 104.385 49.6738)" fill="url(#paint16_linear)"/>
<rect width="5.58824" height="5.58824" transform="matrix(0.865907 0.500205 -0.865907 0.500205 91.1172 61.5063)" fill="url(#paint17_linear)"/>
<rect width="5.5909" height="5.58824" transform="matrix(1.19249e-08 -1 0.865988 0.500065 86.2773 69.8921)" fill="url(#paint18_linear)"/>
<rect width="5.58824" height="5.5909" transform="matrix(0.865869 -0.50027 -3.7548e-05 1 91.1172 67.0967)" fill="url(#paint19_linear)"/>
<path d="M160.899 106.133C154.665 109.735 144.557 109.735 138.323 106.133C132.089 102.532 131.808 95.9678 138.042 92.3663C144.276 88.7648 154.835 88.3301 161.069 91.9317C167.303 95.5332 167.133 102.532 160.899 106.133Z" fill="#C35348"/>
<circle r="13.036" transform="matrix(0.865888 0.500238 -0.865888 0.500238 149.611 98.1628)" fill="url(#paint20_linear)"/>
<path d="M147.238 118.285C147.254 118.217 147.287 118.159 147.32 118.1C146.363 118.334 145.275 118.936 144.945 119.131C144.549 119.364 143.245 120.171 143.047 120.774C142.816 121.552 144.4 122.582 144.747 122.787C144.846 122.845 144.978 122.884 145.143 122.884C145.275 122.884 145.423 122.855 145.522 122.796L149.02 120.735C148.261 120.23 146.941 119.218 147.238 118.285Z" fill="#F9F9F9"/>
<path d="M144.35 118.78C145.425 118.146 145.425 117.119 144.35 116.486C143.275 115.852 141.532 115.852 140.456 116.486C139.381 117.119 139.381 118.146 140.456 118.78C141.532 119.414 143.275 119.414 144.35 118.78Z" fill="#F9F9F9"/>
<path d="M160.37 113.52C159.925 113.277 158.275 112.422 157.005 112.567C155.982 112.684 154.612 113.452 154.217 113.686C153.87 113.89 152.847 114.531 152.468 115.086C152.567 115.066 152.682 115.056 152.781 115.037C154.332 114.862 155.998 115.572 156.922 116.077L160.42 114.016C160.634 113.89 160.634 113.695 160.42 113.569C160.403 113.54 160.387 113.53 160.37 113.52Z" fill="#F9F9F9"/>
<path d="M153.606 113.326C154.681 112.692 154.681 111.665 153.606 111.031C152.531 110.397 150.787 110.397 149.712 111.031C148.637 111.665 148.637 112.692 149.712 113.326C150.787 113.959 152.531 113.959 153.606 113.326Z" fill="#F9F9F9"/>
<path d="M152.978 115.64C151.955 115.756 150.586 116.524 150.19 116.758C149.794 116.991 148.49 117.798 148.292 118.401C148.045 119.169 149.645 120.209 149.959 120.414C150.058 120.472 150.19 120.511 150.355 120.511C150.487 120.511 150.635 120.482 150.734 120.423L156.393 117.088C156.607 116.962 156.607 116.768 156.393 116.641C156.376 116.631 156.36 116.622 156.327 116.602C155.898 116.369 154.232 115.504 152.978 115.64Z" fill="#F9F9F9"/>
<path d="M149.598 116.408C150.673 115.774 150.673 114.747 149.598 114.113C148.523 113.48 146.78 113.48 145.705 114.113C144.629 114.747 144.629 115.774 145.705 116.408C146.78 117.042 148.523 117.042 149.598 116.408Z" fill="#F9F9F9"/>
<path d="M256.713 110.889L151.694 170.372C151.694 170.372 150.536 175.538 153.023 177.753C157.086 181.374 163.124 183.679 163.124 183.679L271.687 123.91L271.142 123.629C266.146 121.052 262.149 117.895 259.41 114.365L256.713 110.889Z" fill="url(#paint21_linear)"/>
<path d="M47.287 107.852L152.306 167.335C152.306 167.335 153.464 172.5 150.977 174.716C146.914 178.336 140.876 180.641 140.876 180.641L32.3131 120.872L32.858 120.591C37.8535 118.014 41.8515 114.858 44.5904 111.327L47.287 107.852Z" fill="url(#paint22_linear)"/>
<path d="M27.4181 206.193H30.2381L35.5181 213.653C35.6781 213.88 35.9448 214.326 36.3181 214.993L36.4181 214.933L36.3581 213.773V206.193H39.1781V219.913H36.3581L31.0581 212.393C30.8048 212.033 30.5448 211.593 30.2781 211.073L30.1781 211.133C30.2181 211.706 30.2381 212.106 30.2381 212.333V219.913H27.4181V206.193ZM42.5317 223.553C41.7984 223.553 41.1717 223.466 40.6517 223.293V221.373H41.9517C42.4184 221.373 42.7984 221.26 43.0917 221.033C43.3851 220.806 43.6251 220.433 43.8117 219.913L39.6917 209.393H42.5517L44.5317 214.333C44.7317 214.853 44.9784 215.766 45.2717 217.073H45.3717C45.6917 215.846 45.9384 214.94 46.1117 214.353L47.6717 209.393H50.4517L46.9117 219.373C46.5917 220.253 46.2584 220.986 45.9117 221.573C45.5651 222.173 45.1117 222.653 44.5517 223.013C44.0051 223.373 43.3317 223.553 42.5317 223.553ZM51.045 209.393H53.385L53.585 210.773H53.725C54.4983 209.693 55.4983 209.153 56.725 209.153C58.0583 209.153 58.9783 209.693 59.485 210.773H59.645C60.445 209.693 61.485 209.153 62.765 209.153C63.765 209.153 64.5583 209.446 65.145 210.033C65.745 210.62 66.045 211.56 66.045 212.853V219.913H63.305V213.433C63.305 212.193 62.7917 211.573 61.765 211.573C61.2317 211.573 60.7917 211.793 60.445 212.233C60.0983 212.66 59.925 213.193 59.925 213.833V219.913H57.185V213.433C57.185 212.193 56.6717 211.573 55.645 211.573C55.1117 211.573 54.665 211.793 54.305 212.233C53.9583 212.66 53.785 213.193 53.785 213.833V219.913H51.045V209.393ZM73.8784 220.153C69.4518 220.153 67.2384 217.786 67.2384 213.053C67.2384 210.68 67.8184 208.906 68.9784 207.733C70.1384 206.546 71.7718 205.953 73.8784 205.953C75.0384 205.953 76.0784 206.153 76.9984 206.553C77.9318 206.94 78.6651 207.54 79.1984 208.353C79.7451 209.153 80.0184 210.133 80.0184 211.293H77.0384C77.0384 210.4 76.7518 209.7 76.1784 209.193C75.6051 208.673 74.8584 208.413 73.9384 208.413C72.6851 208.413 71.7518 208.786 71.1384 209.533C70.5251 210.28 70.2184 211.353 70.2184 212.753V213.353C70.2184 216.246 71.4584 217.693 73.9384 217.693C74.9118 217.693 75.6851 217.44 76.2584 216.933C76.8451 216.426 77.1384 215.726 77.1384 214.833H80.0184C80.0184 216.006 79.7518 216.993 79.2184 217.793C78.6851 218.58 77.9584 219.173 77.0384 219.573C76.1184 219.96 75.0651 220.153 73.8784 220.153ZM83.672 220.153C82.8587 220.153 82.112 219.94 81.432 219.513C80.752 219.086 80.412 218.313 80.412 217.193C80.412 215.846 80.9654 214.893 82.072 214.333C83.1787 213.76 84.7454 213.473 86.772 213.473V212.733C86.772 212.266 86.6654 211.906 86.452 211.653C86.252 211.4 85.8654 211.273 85.292 211.273C84.6787 211.273 84.2387 211.366 83.972 211.553C83.7187 211.74 83.592 211.96 83.592 212.213V212.513H80.952C80.9387 212.433 80.932 212.286 80.932 212.073C80.932 211.193 81.3187 210.486 82.092 209.953C82.8787 209.42 83.9187 209.153 85.212 209.153C86.652 209.153 87.7254 209.446 88.432 210.033C89.152 210.62 89.512 211.466 89.512 212.573V217.213C89.512 217.453 89.5787 217.633 89.712 217.753C89.8454 217.86 90.012 217.913 90.212 217.913H90.772V219.833C90.3454 220.046 89.8187 220.153 89.192 220.153C88.6454 220.153 88.1854 220.033 87.812 219.793C87.452 219.553 87.2054 219.213 87.072 218.773H86.952C86.5654 219.226 86.1187 219.573 85.612 219.813C85.1187 220.04 84.472 220.153 83.672 220.153ZM84.532 217.993C85.3054 217.993 85.872 217.78 86.232 217.353C86.592 216.913 86.772 216.333 86.772 215.613V215.293C84.3854 215.293 83.192 215.826 83.192 216.893C83.192 217.226 83.2987 217.493 83.512 217.693C83.7387 217.893 84.0787 217.993 84.532 217.993ZM91.3653 209.393H93.7053L93.9253 211.093H94.0653C94.292 210.493 94.5853 210.02 94.9453 209.673C95.3053 209.326 95.7786 209.153 96.3653 209.153C96.752 209.153 97.0986 209.213 97.4053 209.333V211.893H96.6453C95.752 211.893 95.1053 212.14 94.7053 212.633C94.3053 213.113 94.1053 213.846 94.1053 214.833V219.913H91.3653V209.393ZM101.659 220.153C100.325 220.153 99.2921 219.7 98.5588 218.793C97.8254 217.873 97.4588 216.486 97.4588 214.633C97.4588 212.82 97.8254 211.453 98.5588 210.533C99.3054 209.613 100.292 209.153 101.519 209.153C102.225 209.153 102.845 209.28 103.379 209.533C103.925 209.786 104.352 210.146 104.659 210.613H104.779V205.453H107.519V219.913H105.179L104.999 218.533H104.859C104.525 219.066 104.079 219.473 103.519 219.753C102.959 220.02 102.339 220.153 101.659 220.153ZM102.539 217.773C104.032 217.773 104.779 216.793 104.779 214.833V214.513C104.779 212.526 104.032 211.533 102.539 211.533C101.725 211.533 101.145 211.78 100.799 212.273C100.452 212.753 100.279 213.486 100.279 214.473V214.833C100.279 215.82 100.452 216.56 100.799 217.053C101.145 217.533 101.725 217.773 102.539 217.773ZM117.172 208.693H112.932V206.193H124.312V208.693H120.072V219.913H117.172V208.693ZM126.094 220.153C125.281 220.153 124.534 219.94 123.854 219.513C123.174 219.086 122.834 218.313 122.834 217.193C122.834 215.846 123.387 214.893 124.494 214.333C125.601 213.76 127.167 213.473 129.194 213.473V212.733C129.194 212.266 129.087 211.906 128.874 211.653C128.674 211.4 128.287 211.273 127.714 211.273C127.101 211.273 126.661 211.366 126.394 211.553C126.141 211.74 126.014 211.96 126.014 212.213V212.513H123.374C123.361 212.433 123.354 212.286 123.354 212.073C123.354 211.193 123.741 210.486 124.514 209.953C125.301 209.42 126.341 209.153 127.634 209.153C129.074 209.153 130.147 209.446 130.854 210.033C131.574 210.62 131.934 211.466 131.934 212.573V217.213C131.934 217.453 132.001 217.633 132.134 217.753C132.267 217.86 132.434 217.913 132.634 217.913H133.194V219.833C132.767 220.046 132.241 220.153 131.614 220.153C131.067 220.153 130.607 220.033 130.234 219.793C129.874 219.553 129.627 219.213 129.494 218.773H129.374C128.987 219.226 128.541 219.573 128.034 219.813C127.541 220.04 126.894 220.153 126.094 220.153ZM126.954 217.993C127.727 217.993 128.294 217.78 128.654 217.353C129.014 216.913 129.194 216.333 129.194 215.613V215.293C126.807 215.293 125.614 215.826 125.614 216.893C125.614 217.226 125.721 217.493 125.934 217.693C126.161 217.893 126.501 217.993 126.954 217.993ZM133.787 205.453H136.527V219.913H133.787V205.453ZM138.354 205.453H141.094V213.573L144.574 209.393H147.734L144.254 213.433L147.934 219.913H144.794L142.494 215.453L141.094 216.813V219.913H138.354V205.453Z" fill="#2D365C"/>
<rect x="7.45312" y="215.991" width="6.1528" height="6.1567" fill="#92A1D9"/>
<rect x="13.6055" y="209.834" width="6.1528" height="6.1567" fill="#ED6C68"/>
<rect x="1.30078" y="209.834" width="6.1528" height="6.1567" fill="#35488F"/>
<rect x="7.45312" y="203.678" width="6.1528" height="6.1567" fill="#60C8D6"/>
<defs>
<filter id="filter0_b" x="38.9747" y="45.8624" width="172.297" height="105.906" filterUnits="userSpaceOnUse" color-interpolation-filters="sRGB">
<feFlood flood-opacity="0" result="BackgroundImageFix"/>
<feGaussianBlur in="BackgroundImage" stdDeviation="3.7695"/>
<feComposite in2="SourceAlpha" operator="in" result="effect1_backgroundBlur"/>
<feBlend mode="normal" in="SourceGraphic" in2="effect1_backgroundBlur" result="shape"/>
</filter>
<filter id="filter1_b" x="145.979" y="76.0181" width="117.586" height="74.7618" filterUnits="userSpaceOnUse" color-interpolation-filters="sRGB">
<feFlood flood-opacity="0" result="BackgroundImageFix"/>
<feGaussianBlur in="BackgroundImage" stdDeviation="3.7695"/>
<feComposite in2="SourceAlpha" operator="in" result="effect1_backgroundBlur"/>
<feBlend mode="normal" in="SourceGraphic" in2="effect1_backgroundBlur" result="shape"/>
</filter>
<filter id="filter2_b" x="92.6583" y="108.059" width="117.586" height="74.7618" filterUnits="userSpaceOnUse" color-interpolation-filters="sRGB">
<feFlood flood-opacity="0" result="BackgroundImageFix"/>
<feGaussianBlur in="BackgroundImage" stdDeviation="3.7695"/>
<feComposite in2="SourceAlpha" operator="in" result="effect1_backgroundBlur"/>
<feBlend mode="normal" in="SourceGraphic" in2="effect1_backgroundBlur" result="shape"/>
</filter>
<filter id="filter3_f" x="168.86" y="35.1566" width="69.5239" height="48.1453" filterUnits="userSpaceOnUse" color-interpolation-filters="sRGB">
<feFlood flood-opacity="0" result="BackgroundImageFix"/>
<feBlend mode="normal" in="SourceGraphic" in2="BackgroundImageFix" result="shape"/>
<feGaussianBlur stdDeviation="4.72443" result="effect1_foregroundBlur"/>
</filter>
<filter id="filter4_f" x="127.912" y="94.8069" width="43.844" height="30.362" filterUnits="userSpaceOnUse" color-interpolation-filters="sRGB">
<feFlood flood-opacity="0" result="BackgroundImageFix"/>
<feBlend mode="normal" in="SourceGraphic" in2="BackgroundImageFix" result="shape"/>
<feGaussianBlur stdDeviation="2.97938" result="effect1_foregroundBlur"/>
</filter>
<linearGradient id="paint0_linear" x1="3.3671" y1="-27.5202" x2="107.911" y2="16.3978" gradientUnits="userSpaceOnUse">
<stop stop-color="white"/>
<stop offset="1" stop-color="#C1C2C6" stop-opacity="0.56"/>
</linearGradient>
<linearGradient id="paint1_linear" x1="97.3561" y1="127.864" x2="67.6708" y2="125.365" gradientUnits="userSpaceOnUse">
<stop stop-color="#F4F4F4"/>
<stop offset="1" stop-color="#F2F2F2"/>
</linearGradient>
<linearGradient id="paint2_linear" x1="182.677" y1="27.6428" x2="207.172" y2="153.48" gradientUnits="userSpaceOnUse">
<stop stop-color="#FBFBFB"/>
<stop offset="1" stop-color="#E3E3E3"/>
</linearGradient>
<linearGradient id="paint3_linear" x1="30.2652" y1="0" x2="30.2652" y2="127.28" gradientUnits="userSpaceOnUse">
<stop stop-color="white"/>
<stop offset="1" stop-color="#F5F5F5"/>
</linearGradient>
<linearGradient id="paint4_linear" x1="175.51" y1="108.249" x2="242.822" y2="80.0725" gradientUnits="userSpaceOnUse">
<stop stop-color="#3873AF"/>
<stop offset="1" stop-color="#3588DC"/>
</linearGradient>
<linearGradient id="paint5_linear" x1="201.199" y1="128.536" x2="171.518" y2="126.048" gradientUnits="userSpaceOnUse">
<stop stop-color="#F4F4F4"/>
<stop offset="1" stop-color="#F2F2F2"/>
</linearGradient>
<linearGradient id="paint6_linear" x1="230.669" y1="45.4038" x2="202.264" y2="94.5716" gradientUnits="userSpaceOnUse">
<stop stop-color="white"/>
<stop offset="1" stop-color="#F5F5F5"/>
</linearGradient>
<linearGradient id="paint7_linear" x1="165.369" y1="110.655" x2="167.947" y2="176.263" gradientUnits="userSpaceOnUse">
<stop stop-color="white"/>
<stop offset="1" stop-color="#C1C2C6" stop-opacity="0.56"/>
</linearGradient>
<linearGradient id="paint8_linear" x1="176.826" y1="97.4403" x2="150.219" y2="143.495" gradientUnits="userSpaceOnUse">
<stop stop-color="#FBFBFB"/>
<stop offset="1" stop-color="#F5F5F5"/>
</linearGradient>
<linearGradient id="paint9_linear" x1="132.797" y1="158.79" x2="138.353" y2="151.754" gradientUnits="userSpaceOnUse">
<stop stop-color="#F4F4F4"/>
<stop offset="1" stop-color="#F2F2F2"/>
</linearGradient>
<linearGradient id="paint10_linear" x1="194.916" y1="30.2589" x2="203.603" y2="64.8298" gradientUnits="userSpaceOnUse">
<stop stop-color="#60C8D6"/>
</linearGradient>
<linearGradient id="paint11_linear" x1="2.53635" y1="30.9011" x2="85.857" y2="-0.7336" gradientUnits="userSpaceOnUse">
<stop stop-color="#60C8D6"/>
<stop offset="1" stop-color="#1C92A1"/>
</linearGradient>
<linearGradient id="paint12_linear" x1="39.6708" y1="61.8863" x2="132.152" y2="54.3332" gradientUnits="userSpaceOnUse">
<stop stop-color="#C4C4C4"/>
<stop offset="1" stop-color="#C4C4C4" stop-opacity="0"/>
</linearGradient>
<linearGradient id="paint13_linear" x1="26.9629" y1="69.125" x2="118.632" y2="57.962" gradientUnits="userSpaceOnUse">
<stop stop-color="#C4C4C4"/>
<stop offset="1" stop-color="#C4C4C4" stop-opacity="0"/>
</linearGradient>
<linearGradient id="paint14_linear" x1="8.26949" y1="-3.11958e-05" x2="8.26949" y2="17.0959" gradientUnits="userSpaceOnUse">
<stop stop-color="#FBFBFB"/>
<stop offset="1" stop-color="#F5F5F5"/>
</linearGradient>
<linearGradient id="paint15_linear" x1="21.9077" y1="13.3851" x2="16.4118" y2="16.7117" gradientUnits="userSpaceOnUse">
<stop stop-color="#F4F4F4"/>
<stop offset="1" stop-color="#F2F2F2"/>
</linearGradient>
<linearGradient id="paint16_linear" x1="1.47636" y1="-5.41702" x2="35.8676" y2="23.6268" gradientUnits="userSpaceOnUse">
<stop stop-color="#FBFBFB"/>
<stop offset="1" stop-color="#CFCFCF"/>
</linearGradient>
<linearGradient id="paint17_linear" x1="2.82363" y1="-1.06519e-05" x2="2.82363" y2="5.83744" gradientUnits="userSpaceOnUse">
<stop stop-color="#FBFBFB"/>
<stop offset="1" stop-color="#F5F5F5"/>
</linearGradient>
<linearGradient id="paint18_linear" x1="7.48041" y1="4.57036" x2="5.60384" y2="5.70624" gradientUnits="userSpaceOnUse">
<stop stop-color="#F4F4F4"/>
<stop offset="1" stop-color="#F2F2F2"/>
</linearGradient>
<linearGradient id="paint19_linear" x1="0.504107" y1="-1.84965" x2="12.2471" y2="8.06742" gradientUnits="userSpaceOnUse">
<stop stop-color="#FBFBFB"/>
<stop offset="1" stop-color="#CFCFCF"/>
</linearGradient>
<linearGradient id="paint20_linear" x1="1.59951" y1="19.4872" x2="54.1442" y2="-0.462632" gradientUnits="userSpaceOnUse">
<stop stop-color="#EE786C"/>
<stop offset="1" stop-color="#D25D51"/>
</linearGradient>
<linearGradient id="paint21_linear" x1="164.394" y1="164.119" x2="173.343" y2="179.016" gradientUnits="userSpaceOnUse">
<stop stop-color="#EBEBEB"/>
<stop offset="1" stop-color="#FBFBFB"/>
</linearGradient>
<linearGradient id="paint22_linear" x1="139.606" y1="161.081" x2="130.657" y2="175.978" gradientUnits="userSpaceOnUse">
<stop stop-color="#F3F3F3"/>
<stop offset="1" stop-color="#F9F9F9"/>
</linearGradient>
</defs>
</svg>
