<svg xmlns="http://www.w3.org/2000/svg" fill="none" preserveAspectRatio="xMinYMin slice" viewBox="0 0 1440 1048"><mask id="careerHeroBgDesktopPaint0" width="1440" height="1048" x="0" y="0"
                                                                                                                       maskUnits="userSpaceOnUse"><rect width="1440" height="1048" fill="#C4C4C4"/></mask><g mask="url(#careerHeroBgDesktopPaint0)"><path fill="#FBFBFB" d="M94.0988 417.728L1548 806.5L1474 1661.42L127.841 1661.42L-688.63 1661.42L-686.366 866.471L94.0988 417.728Z"/><path fill="#FBFBFB" d="M1029.39 -193.314L1457.88 -109.314L1584.59 255.002L1457.88 698L106.399 353.903C100.9 352.503 99.5385 348.355 103.769 345.89L1029.39 -193.314Z"/><path fill="#F1F1F1" d="M92 416.5V359L1574 768V834L92 416.5Z"/><path fill="url(#careerHeroBgDesktopPaint0_linear)" d="M105.999 345.831L1505.5 708.5L1468 746L93.4988 368.331L93.4992 358.002C93.4993 354.8 95.7115 351.731 99.6453 349.475L105.999 345.831Z"/><path fill="url(#careerHeroBgDesktopPaint1_linear)" d="M90.6435 403.45L1494.02 778.366L1468.5 818L83.1843 430.211L91.5566 421.562C93.495 419.56 94.2936 417.367 93.7872 415.436L90.6435 403.45Z"/><path fill="url(#careerHeroBgDesktopPaint2_linear)" d="M-138 546L-4 611L1094 1087.5L1505.5 1655L-138 1925V546Z"/><path fill="url(#careerHeroBgDesktopPaint3_linear)" d="M1969.47 492L1845.09 573.918L818.597 1189.53L484.611 1805.84L2149.29 1859.23L1969.47 492Z"/><path fill="url(#careerHeroBgDesktopPaint4_linear)" d="M1449.5 637L1288 622L1160 546L1185.5 446.5L1477.5 399L1449.5 637Z"/><path fill="url(#careerHeroBgDesktopPaint5_linear)" d="M1285 871L1086.5 798L1057 760L1077.5 744.5L1216.5 724.5L1285 871Z"/><path stroke="url(#careerHeroBgDesktopPaint6_linear)" stroke-dasharray="4 4" d="M1471.5 168L928.996 565.704C926.17 567.776 924.5 571.071 924.5 574.575V644.898C924.5 648.694 922.543 652.221 919.324 654.23L813.213 720.449C805.018 725.564 806.923 738.002 816.274 740.429L926.287 768.976C935.394 771.339 937.523 783.303 929.791 788.664L753.733 910.719C750.768 912.774 749 916.152 749 919.759V1014C749 1020.08 753.925 1025 760 1025H764.5"/><path stroke="url(#careerHeroBgDesktopPaint7_linear)" d="M1453.5 163L910.996 560.704C908.17 562.776 906.5 566.071 906.5 569.575V639.991C906.5 643.736 904.595 647.223 901.444 649.247L778.007 728.511C769.959 733.679 771.886 745.947 781.131 748.399L890.096 777.294C899.226 779.715 901.259 791.76 893.429 797.044L770.5 880"/><path stroke="url(#careerHeroBgDesktopPaint8_linear)" d="M866 -6.5L237.793 374.788C234.507 376.782 232.5 380.347 232.5 384.191V454.283C232.5 457.867 230.754 461.226 227.821 463.285L-26 641.5" opacity=".3"/><path stroke="url(#careerHeroBgDesktopPaint9_linear)" d="M998.501 26L370.293 407.288C367.007 409.282 365.001 412.847 365.001 416.691V486.813C365.001 490.38 363.271 493.726 360.36 495.788L57.5039 710.387"/><path stroke="url(#careerHeroBgDesktopPaint10_linear)" stroke-dasharray="4 4" d="M1017.5 33L389.292 414.288C386.006 416.282 383.999 419.847 383.999 423.691V493.92C383.999 497.427 382.327 500.724 379.497 502.796L126.637 687.898"/><path stroke="url(#careerHeroBgDesktopPaint11_linear)" d="M-8 651L245.821 472.785C248.754 470.726 250.5 467.367 250.5 463.783V393.709C250.5 389.855 252.517 386.283 255.816 384.291L609.036 171.091C611.272 169.741 613.915 169.231 616.493 169.652L730.616 188.284C733.428 188.743 736.309 188.093 738.652 186.471L1018 -7" opacity=".5"/><rect width="91.923" height="91.923" fill="url(#careerHeroBgDesktopPaint12_linear)" transform="matrix(0.866044 0.499967 -0.866044 0.499967 1203.61 389)"/><rect width="91.923" height="91.923" fill="url(#careerHeroBgDesktopPaint13_linear)" transform="matrix(1.19249e-08 -1 0.865988 0.500065 1124 526.872)"/><rect width="91.923" height="91.923" fill="url(#careerHeroBgDesktopPaint14_linear)" transform="matrix(0.866007 -0.500033 -3.75718e-05 1 1203.61 480.917)"/><rect width="91.923" height="91.923" fill="url(#careerHeroBgDesktopPaint15_linear)" transform="matrix(0.866044 0.499967 -0.866044 0.499967 1203.61 296)"/><rect width="91.923" height="91.923" fill="url(#careerHeroBgDesktopPaint16_linear)" transform="matrix(1.19249e-08 -1 0.865988 0.500065 1124 433.872)"/><rect width="91.923" height="91.923" fill="url(#careerHeroBgDesktopPaint17_linear)" transform="matrix(0.866007 -0.500033 -3.75718e-05 1 1203.61 387.917)"/><path stroke="url(#careerHeroBgDesktopPaint18_linear)" d="M1283 342L1203 387M1203 387L1124.5 342M1203 387V478.5"/><path stroke="#6CADB6" stroke-width="1.128" d="M1204.26 481.498L1283.77 435.256L1363.28 481.498M1204.26 481.498L1283.77 527.176M1204.26 481.498V572.854L1283.77 619.66M1283.77 527.176L1363.28 481.498M1283.77 527.176V619.66M1363.28 481.498V572.854L1283.77 619.66"/><circle cx="1204.82" cy="482.062" r="2.82" fill="#6CADB6"/><circle cx="1204.82" cy="573.418" r="2.82" fill="#6CADB6"/><circle cx="1283.77" cy="527.176" r="2.82" fill="#6CADB6"/><circle cx="1283.77" cy="618.532" r="2.82" fill="#6CADB6"/><circle cx="1283.77" cy="435.82" r="2.82" fill="#6CADB6"/><circle cx="1363.85" cy="482.062" r="2.82" fill="#6CADB6"/><circle cx="1363.85" cy="573.418" r="2.82" fill="#6CADB6"/><path fill="url(#careerHeroBgDesktopPaint19_linear)" d="M545.363 691L346.863 618L317.363 580L337.863 564.5L476.863 544.5L545.363 691Z"/><rect width="66.971" height="66.971" fill="url(#careerHeroBgDesktopPaint20_linear)" transform="matrix(0.866044 0.499967 -0.866044 0.499967 347.363 485)"/><rect width="66.971" height="66.971" fill="url(#careerHeroBgDesktopPaint21_linear)" transform="matrix(1.19249e-08 -1 0.865988 0.500065 289.365 585.448)"/><rect width="66.971" height="66.971" fill="url(#careerHeroBgDesktopPaint22_linear)" transform="matrix(0.866007 -0.500033 -3.75718e-05 1 347.361 551.967)"/><path stroke="url(#careerHeroBgDesktopPaint23_linear)" stroke-width=".729" d="M405.205 518.514L346.92 551.299M346.92 551.299L289.729 518.514M346.92 551.299V617.962"/></g><defs><linearGradient id="careerHeroBgDesktopPaint0_linear" x1="599.5" x2="587.041" y1="454" y2="501.694" gradientUnits="userSpaceOnUse"><stop stop-color="#FBFBFB"/><stop offset="1" stop-color="#F1F1F1"/></linearGradient><linearGradient id="careerHeroBgDesktopPaint1_linear" x1="326.232" x2="319.18" y1="460.268" y2="485.993" gradientUnits="userSpaceOnUse"><stop stop-color="#F1F1F1"/><stop offset="1" stop-color="#FBFBFB"/></linearGradient><linearGradient id="careerHeroBgDesktopPaint2_linear" x1="2" x2="334" y1="1715.5" y2="757" gradientUnits="userSpaceOnUse"><stop stop-color="#fff"/><stop offset="1" stop-color="#fff" stop-opacity="0"/></linearGradient><linearGradient id="careerHeroBgDesktopPaint3_linear" x1="1983.16" x2="1529.01" y1="1669.77" y2="762.746" gradientUnits="userSpaceOnUse"><stop stop-color="#fff"/><stop offset="1" stop-color="#fff" stop-opacity="0"/></linearGradient><linearGradient id="careerHeroBgDesktopPaint4_linear" x1="729.5" x2="1442" y1="546.5" y2="500" gradientUnits="userSpaceOnUse"><stop stop-color="#C4C4C4"/><stop offset="1" stop-color="#C4C4C4" stop-opacity="0"/></linearGradient><linearGradient id="careerHeroBgDesktopPaint5_linear" x1="428.5" x2="1219.5" y1="786" y2="741" gradientUnits="userSpaceOnUse"><stop stop-color="#C4C4C4"/><stop offset="1" stop-color="#C4C4C4" stop-opacity="0"/></linearGradient><linearGradient id="careerHeroBgDesktopPaint6_linear" x1="1068.5" x2="1442.12" y1="465" y2="202.655" gradientUnits="userSpaceOnUse"><stop stop-color="#3C939F"/><stop offset="1" stop-color="#60C8D6" stop-opacity="0"/></linearGradient><linearGradient id="careerHeroBgDesktopPaint7_linear" x1="757" x2="1523.26" y1="911" y2="446.239" gradientUnits="userSpaceOnUse"><stop stop-color="#3C939F" stop-opacity="0"/><stop offset=".466" stop-color="#3C939F"/><stop offset="1" stop-color="#60C8D6" stop-opacity="0"/></linearGradient><linearGradient id="careerHeroBgDesktopPaint8_linear" x1="376.5" x2="750.12" y1="274" y2="11.656" gradientUnits="userSpaceOnUse"><stop stop-color="#3C939F"/><stop offset="1" stop-color="#60C8D6" stop-opacity="0"/></linearGradient><linearGradient id="careerHeroBgDesktopPaint9_linear" x1="57.504" x2="572.043" y1="721.215" y2="748.93" gradientUnits="userSpaceOnUse"><stop stop-color="#3C939F" stop-opacity="0"/><stop offset=".629" stop-color="#3C939F"/><stop offset="1" stop-color="#60C8D6" stop-opacity="0"/></linearGradient><linearGradient id="careerHeroBgDesktopPaint10_linear" x1="126.637" x2="523.841" y1="702.891" y2="701.853" gradientUnits="userSpaceOnUse"><stop stop-color="#3C939F" stop-opacity="0"/><stop offset=".285" stop-color="#3C939F"/><stop offset=".629" stop-color="#3C939F"/><stop offset="1" stop-color="#60C8D6" stop-opacity="0"/></linearGradient><linearGradient id="careerHeroBgDesktopPaint11_linear" x1="454.965" x2="847.97" y1="277.829" y2="-34.758" gradientUnits="userSpaceOnUse"><stop stop-color="#3C939F"/><stop offset="1" stop-color="#60C8D6" stop-opacity="0"/></linearGradient><linearGradient id="careerHeroBgDesktopPaint12_linear" x1="45.962" x2="45.962" y1="0" y2="96.03" gradientUnits="userSpaceOnUse"><stop stop-color="#FBFBFB"/><stop offset="1" stop-color="#F5F5F5"/></linearGradient><linearGradient id="careerHeroBgDesktopPaint13_linear" x1="65.286" x2="28.229" y1="24.825" y2="117.497" gradientUnits="userSpaceOnUse"><stop stop-color="#F4F4F4"/><stop offset="1" stop-color="#F2F2F2"/></linearGradient><linearGradient id="careerHeroBgDesktopPaint14_linear" x1="27.591" x2="146.588" y1="5.879" y2="85.224" gradientUnits="userSpaceOnUse"><stop stop-color="#FBFBFB"/><stop offset="1" stop-color="#CFCFCF"/></linearGradient><linearGradient id="careerHeroBgDesktopPaint15_linear" x1="45.962" x2="45.962" y1="0" y2="96.03" gradientUnits="userSpaceOnUse"><stop stop-color="#FBFBFB"/><stop offset="1" stop-color="#F5F5F5"/></linearGradient><linearGradient id="careerHeroBgDesktopPaint16_linear" x1="45.962" x2="45.962" y1="0" y2="96.03" gradientUnits="userSpaceOnUse"><stop stop-color="#FBFBFB"/><stop offset="1" stop-color="#F5F5F5"/></linearGradient><linearGradient id="careerHeroBgDesktopPaint17_linear" x1="27.591" x2="289.779" y1="5.879" y2="179.183" gradientUnits="userSpaceOnUse"><stop stop-color="#FBFBFB"/><stop offset="1" stop-color="#CFCFCF"/></linearGradient><linearGradient id="careerHeroBgDesktopPaint18_linear" x1="1206" x2="1203.75" y1="355.5" y2="478.5" gradientUnits="userSpaceOnUse"><stop stop-color="#fff"/><stop offset="1" stop-color="#fff" stop-opacity="0"/></linearGradient><linearGradient id="careerHeroBgDesktopPaint19_linear" x1="-311.137" x2="479.863" y1="606" y2="561" gradientUnits="userSpaceOnUse"><stop stop-color="#C4C4C4"/><stop offset="1" stop-color="#C4C4C4" stop-opacity="0"/></linearGradient><linearGradient id="careerHeroBgDesktopPaint20_linear" x1="47.565" x2="20.567" y1="18.086" y2="85.603" gradientUnits="userSpaceOnUse"><stop stop-color="#F4F4F4"/><stop offset="1" stop-color="#F2F2F2"/></linearGradient><linearGradient id="careerHeroBgDesktopPaint21_linear" x1="47.565" x2="20.567" y1="18.086" y2="85.603" gradientUnits="userSpaceOnUse"><stop stop-color="#F4F4F4"/><stop offset="1" stop-color="#F2F2F2"/></linearGradient><linearGradient id="careerHeroBgDesktopPaint22_linear" x1="20.102" x2="141.654" y1="4.283" y2="60.841" gradientUnits="userSpaceOnUse"><stop stop-color="#FBFBFB"/><stop offset="1" stop-color="#CFCFCF"/></linearGradient><linearGradient id="careerHeroBgDesktopPaint23_linear" x1="349.106" x2="347.467" y1="528.349" y2="617.962" gradientUnits="userSpaceOnUse"><stop stop-color="#fff"/><stop offset="1" stop-color="#fff" stop-opacity="0"/></linearGradient></defs></svg>
