<svg width="1123" height="517" viewBox="0 0 1123 517" fill="none" xmlns="http://www.w3.org/2000/svg">
<g opacity="0.5" filter="url(#filter0_f)">
<path fill-rule="evenodd" clip-rule="evenodd" d="M340.835 124.015C338.493 122.662 334.696 122.662 332.354 124.015L212.9 193.012L140.063 150.941C138.358 149.956 135.594 149.956 133.89 150.941L20.2707 216.568C18.6015 217.532 18.5617 219.088 20.1809 220.08L31.8077 227.205C33.1737 228.042 33.3857 229.307 32.3229 230.28L25.8162 236.236C23.982 237.915 26.0708 240.103 29.5078 240.103H52.1969C53.3493 240.103 54.455 240.366 55.2728 240.835L199.453 323.539C201.159 324.518 203.915 324.515 205.615 323.533L281.471 279.718L366.717 328.956C367.754 329.555 368.375 330.354 368.463 331.2L370.604 351.954C370.912 354.936 377.174 356.31 380.832 354.197L391.383 348.103C393.725 346.75 397.523 346.75 399.865 348.103L422.434 361.139C424.776 362.491 428.573 362.491 430.915 361.139L586.898 271.042C589.24 269.689 589.24 267.496 586.898 266.143L340.835 124.015Z" fill="#C4C4C4" fill-opacity="0.2"/>
</g>
<path d="M139.569 84.5734L323.19 186.133L323.19 191.87L205.132 260.725L56.5892 175.518L26.9573 175.518L26.9573 168.059L36.7216 164.042L21.2221 153.714L21.2221 147.69L139.569 84.5734Z" fill="url(#paint0_linear)"/>
<path d="M136.879 80.8407C138.371 79.9791 140.789 79.9791 142.281 80.8407L321.373 184.286C322.865 185.147 322.865 186.544 321.373 187.406L207.833 252.987C206.345 253.846 203.934 253.849 202.441 252.992L58.2611 170.288C57.3412 169.761 56.0972 169.464 54.8007 169.464L32.1116 169.464C29.1043 169.464 27.2766 167.55 28.8815 166.081L35.3882 160.125C36.5838 159.031 36.3454 157.607 34.8086 156.666L23.1818 149.541C21.765 148.673 21.7998 147.311 23.2604 146.468L136.879 80.8407Z" fill="url(#paint1_linear)" stroke="#F1F1F1" stroke-width="0.891131"/>
<g opacity="0.5" filter="url(#filter1_f)">
<path d="M152.086 155.699L262.8 223.497L316.103 191.963L204.882 122.588L152.086 155.699Z" fill="#C4C4C4" fill-opacity="0.2"/>
</g>
<g filter="url(#filter2_i)">
<path d="M169.543 192.637C171.885 191.284 171.884 189.091 169.542 187.739L72.5899 131.738C70.2477 130.385 66.4503 130.385 64.1081 131.738L61.3737 133.318C59.0316 134.67 59.0316 136.864 61.3737 138.217L158.327 194.217C160.669 195.57 164.467 195.57 166.809 194.217L169.543 192.637Z" fill="#F1F1F4"/>
</g>
<g filter="url(#filter3_i)">
<path d="M113.56 178.412C114.731 177.735 114.731 176.639 113.56 175.962L54.1968 141.674C53.0257 140.998 51.127 140.998 49.9559 141.674L47.0391 143.359C45.868 144.035 45.868 145.132 47.0391 145.808L106.403 180.097C107.574 180.774 109.473 180.773 110.644 180.097L113.56 178.412Z" fill="#F1F1F4"/>
</g>
<path d="M335.844 61.0562C337.69 59.99 340.682 59.99 342.528 61.0562L590.996 197.087C592.842 198.153 592.234 207.017 590.388 208.083L432.608 299.218C430.762 300.284 427.769 300.284 425.923 299.218L401.557 285.144C399.712 284.078 396.719 284.078 394.873 285.144L381.424 292.912C378.541 294.577 373.606 293.495 373.364 291.144L371.025 268.481C370.956 267.815 370.467 267.186 369.649 266.713L178.064 156.052C176.218 154.986 175.454 146.122 177.3 145.056L335.844 61.0562Z" fill="url(#paint2_linear)"/>
<path d="M335.487 53.9984C337.536 52.8147 340.859 52.8147 342.908 53.9984L588.971 196.126C591.021 197.31 591.021 199.229 588.971 200.413L432.989 290.51C430.939 291.693 427.616 291.693 425.567 290.51L402.998 277.474C400.364 275.952 396.091 275.952 393.457 277.474L382.905 283.568C379.705 285.417 374.225 284.215 373.956 281.605L371.814 260.851C371.716 259.899 371.017 259.001 369.85 258.327L179.504 148.382C177.455 147.198 177.455 145.279 179.504 144.095L335.487 53.9984Z" fill="url(#paint3_linear)" stroke="#F1F1F1" stroke-width="1.22436"/>
<g filter="url(#filter4_i)">
<path d="M554.362 201.303C556.704 199.95 556.703 197.757 554.362 196.404L393.06 103.235C390.718 101.882 386.92 101.882 384.578 103.235L374.998 108.768C372.656 110.121 372.656 112.315 374.998 113.668L536.302 206.837C538.644 208.19 542.442 208.19 544.784 206.837L554.362 201.303Z" fill="#F1F1F4"/>
</g>
<g filter="url(#filter5_i)">
<path d="M528.699 217.422C529.869 216.746 529.869 215.649 528.698 214.973L430.516 158.262C429.345 157.586 427.446 157.586 426.275 158.262L418.99 162.47C417.819 163.147 417.819 164.243 418.99 164.92L517.173 221.631C518.344 222.308 520.243 222.307 521.414 221.631L528.699 217.422Z" fill="#F1F1F4"/>
</g>
<g filter="url(#filter6_f)">
<path d="M462.553 196.274L529.814 235.716L590.997 199.12L524.141 158.458L462.553 196.274Z" fill="#C4C4C4" fill-opacity="0.2"/>
</g>
<g filter="url(#filter7_f)">
<path d="M197 143.928L241.453 118.252L444.713 233.69L400.26 259.366L197 143.928Z" fill="#C4C4C4" fill-opacity="0.2"/>
</g>
<g>
<rect width="51.3351" height="246.561" rx="9.5" transform="matrix(0.866025 -0.5 0.866025 0.5 180.453 113.183)" fill="url(#paint4_linear)" fill-opacity="0.7"/>
<rect x="0.866025" width="50.3351" height="245.561" rx="9" transform="matrix(0.866025 -0.5 0.866025 0.5 180.569 113.616)" stroke="url(#paint5_linear)"/>
</g>
<g filter="url(#filter9_i)">
<rect width="87.1169" height="2.54809" transform="matrix(0.865929 0.500167 -0.865929 0.500167 287.351 151.413)" fill="#F1F1F4"/>
</g>
<g filter="url(#filter10_i)">
<rect width="29.1144" height="2.54809" transform="matrix(0.865929 0.500167 -0.865929 0.500167 293.974 147.167)" fill="#F1F1F4"/>
</g>
<path d="M375.495 204.917C373.834 205.876 371.141 205.876 369.481 204.917C368.712 204.472 368.299 203.901 368.242 203.319C368.176 202.645 368.042 201.707 368.934 201.191C369.197 201.039 369.511 200.908 369.86 200.798C373.638 199.607 378.388 202.524 375.972 204.582C375.83 204.702 375.671 204.815 375.495 204.917ZM370.604 202.092C369.564 202.693 369.564 203.667 370.604 204.268C371.645 204.868 373.331 204.868 374.371 204.268C375.411 203.667 375.411 202.693 374.371 202.092C373.331 201.491 371.645 201.491 370.604 202.092Z" fill="#C7C9D2"/>
<g filter="url(#filter11_i)">
<path d="M375.5 204.082C373.839 205.041 371.146 205.041 369.486 204.082C367.825 203.123 367.825 201.568 369.486 200.609C371.146 199.65 373.839 199.65 375.5 200.609C377.16 201.568 377.16 203.123 375.5 204.082Z" fill="#F1F1F4"/>
</g>
<path d="M386.095 211.546C384.434 212.505 381.742 212.505 380.081 211.546C379.312 211.102 378.899 210.53 378.842 209.949C378.776 209.274 378.642 208.336 379.534 207.821C379.797 207.669 380.111 207.537 380.46 207.427C384.239 206.236 388.988 209.153 386.572 211.211C386.43 211.332 386.272 211.444 386.095 211.546ZM381.204 208.721C380.164 209.322 380.164 210.296 381.204 210.897C382.245 211.498 383.931 211.498 384.971 210.897C386.011 210.296 386.011 209.322 384.971 208.721C383.931 208.121 382.245 208.121 381.204 208.721Z" fill="#C7C9D2"/>
<g filter="url(#filter12_i)">
<path d="M386.1 210.712C384.439 211.671 381.746 211.671 380.086 210.712C378.425 209.753 378.425 208.197 380.086 207.238C381.746 206.279 384.439 206.279 386.1 207.238C387.761 208.197 387.761 209.753 386.1 210.712Z" fill="#F1F1F4"/>
</g>
<path d="M398.019 218.175C396.358 219.134 393.666 219.134 392.005 218.175C391.236 217.731 390.823 217.159 390.766 216.578C390.7 215.903 390.566 214.965 391.458 214.45C391.721 214.298 392.035 214.166 392.384 214.056C396.163 212.865 400.912 215.782 398.496 217.84C398.355 217.961 398.196 218.073 398.019 218.175ZM393.129 215.35C392.089 215.951 392.089 216.925 393.129 217.526C394.169 218.127 395.855 218.127 396.896 217.526C397.936 216.925 397.936 215.951 396.896 215.35C395.855 214.75 394.169 214.75 393.129 215.35Z" fill="#C7C9D2"/>
<g filter="url(#filter13_i)">
<path d="M398.024 217.341C396.363 218.3 393.671 218.3 392.01 217.341C390.349 216.381 390.349 214.826 392.01 213.867C393.671 212.908 396.363 212.908 398.024 213.867C399.685 214.826 399.685 216.381 398.024 217.341Z" fill="#F1F1F4"/>
</g>
<g>
<path d="M220.308 112.808L220.27 112.786C219.751 112.962 219.139 113.006 218.435 112.918C217.747 112.83 217.068 112.591 216.397 112.201C215.861 111.889 215.463 111.545 215.203 111.169C214.96 110.793 214.868 110.403 214.926 109.998C214.993 109.589 215.216 109.167 215.593 108.733C215.987 108.299 216.553 107.867 217.29 107.438C218.02 107.013 218.753 106.689 219.491 106.465C220.237 106.235 220.962 106.106 221.666 106.077C222.379 106.043 223.066 106.101 223.728 106.252C224.391 106.404 225.002 106.643 225.564 106.969C226.352 107.428 226.834 107.913 227.01 108.425C227.186 108.938 227.128 109.445 226.834 109.947L225.438 109.75C225.707 109.359 225.774 108.969 225.64 108.579C225.514 108.194 225.174 107.84 224.621 107.518C224.235 107.294 223.812 107.13 223.351 107.028C222.898 106.921 222.429 106.872 221.943 106.882C221.465 106.896 220.987 106.969 220.509 107.101C220.031 107.233 219.575 107.425 219.139 107.679L217.718 108.506C217.282 108.76 216.947 109.028 216.712 109.311C216.486 109.589 216.36 109.867 216.335 110.145C216.318 110.428 216.406 110.708 216.599 110.986C216.8 111.259 217.11 111.518 217.529 111.762C217.831 111.937 218.154 112.081 218.497 112.193C218.858 112.306 219.218 112.374 219.579 112.398C219.948 112.428 220.308 112.408 220.66 112.34C221.021 112.267 221.364 112.135 221.691 111.945L222.559 111.44L220.622 110.313L221.553 109.772L224.52 111.498L220.006 114.125L219.026 113.554L220.308 112.808Z" fill="#BDC3CB"/>
<path d="M224.273 116.783C223.829 116.525 223.506 116.244 223.305 115.942C223.112 115.644 223.032 115.334 223.066 115.012C223.116 114.691 223.275 114.369 223.544 114.047C223.829 113.725 224.231 113.413 224.751 113.11C225.262 112.813 225.794 112.581 226.348 112.415C226.909 112.254 227.463 112.162 228.007 112.137C228.569 112.113 229.106 112.157 229.617 112.269C230.137 112.386 230.619 112.574 231.063 112.832C231.499 113.086 231.809 113.359 231.994 113.652C232.178 113.944 232.249 114.244 232.207 114.552C232.174 114.854 232.027 115.154 231.767 115.451C231.516 115.754 231.159 116.039 230.698 116.308L230.221 116.586L225.555 113.871L225.254 114.047C224.977 114.208 224.759 114.383 224.6 114.574C224.457 114.764 224.378 114.956 224.361 115.152C224.353 115.351 224.415 115.549 224.55 115.744C224.692 115.944 224.914 116.132 225.216 116.308C225.627 116.547 226.079 116.698 226.574 116.761C227.077 116.829 227.593 116.807 228.121 116.695L228.322 117.412C227.668 117.549 226.981 117.568 226.26 117.471C225.547 117.368 224.885 117.139 224.273 116.783ZM230.221 113.322C229.944 113.161 229.642 113.044 229.315 112.971C228.997 112.893 228.666 112.857 228.322 112.861C227.987 112.871 227.651 112.92 227.316 113.008C226.989 113.091 226.683 113.215 226.398 113.381L226.31 113.432L229.894 115.517L230.032 115.437C230.61 115.1 230.912 114.739 230.937 114.354C230.979 113.969 230.74 113.625 230.221 113.322Z" fill="#BDC3CB"/>
<path d="M230.319 120.125C229.967 119.921 229.795 119.708 229.803 119.489C229.829 119.269 230 119.067 230.319 118.882L234.858 116.24L233.789 115.619L234.67 115.106L235.273 115.458C235.491 115.584 235.68 115.645 235.839 115.64C236.015 115.636 236.212 115.57 236.43 115.443L237.637 114.741L238.543 115.267L236.744 116.314L238.165 117.14L237.285 117.652L235.864 116.826L231.136 119.577L232.457 120.345L231.576 120.857L230.319 120.125Z" fill="#BDC3CB"/>
<path d="M238.064 124.807C237.46 124.456 237.066 124.095 236.882 123.725C236.714 123.354 236.676 122.971 236.768 122.576L238.064 122.656C237.997 122.988 238.03 123.295 238.164 123.578C238.307 123.856 238.583 124.115 238.994 124.354C239.422 124.602 239.845 124.742 240.264 124.771C240.692 124.805 241.073 124.724 241.408 124.529C241.66 124.383 241.79 124.21 241.798 124.01C241.823 123.81 241.656 123.566 241.295 123.278L240.855 122.934C240.595 122.734 240.382 122.537 240.214 122.342C240.055 122.142 239.95 121.944 239.899 121.749C239.866 121.554 239.904 121.361 240.013 121.171C240.13 120.986 240.34 120.805 240.641 120.63C240.96 120.444 241.295 120.317 241.647 120.249C242.008 120.176 242.368 120.152 242.729 120.176C243.098 120.205 243.462 120.281 243.823 120.403C244.192 120.52 244.539 120.674 244.866 120.864C245.394 121.171 245.742 121.481 245.91 121.793C246.086 122.11 246.145 122.442 246.086 122.788L244.816 122.751C244.875 122.551 244.845 122.325 244.728 122.071C244.619 121.812 244.355 121.561 243.936 121.317C243.517 121.074 243.106 120.942 242.704 120.922C242.318 120.903 241.97 120.983 241.66 121.164C241.341 121.349 241.216 121.544 241.283 121.749C241.358 121.959 241.563 122.2 241.899 122.473L242.326 122.81C242.938 123.293 243.24 123.712 243.232 124.068C243.232 124.42 242.984 124.739 242.49 125.027C241.861 125.393 241.153 125.556 240.365 125.517C239.577 125.478 238.81 125.241 238.064 124.807Z" fill="#BDC3CB"/>
<path d="M243.741 127.935C243.388 127.73 243.217 127.518 243.225 127.298C243.25 127.079 243.422 126.876 243.741 126.691L248.28 124.05L247.211 123.428L248.091 122.916L248.695 123.267C248.913 123.394 249.101 123.455 249.261 123.45C249.437 123.445 249.634 123.379 249.852 123.252L251.059 122.55L251.964 123.077L250.166 124.123L251.587 124.95L250.707 125.462L249.286 124.635L244.558 127.386L245.878 128.154L244.998 128.667L243.741 127.935Z" fill="#BDC3CB"/>
<path d="M251.431 132.41C251.054 132.19 250.882 131.973 250.915 131.758C250.957 131.549 251.108 131.344 251.368 131.144L251.305 131.107C250.76 131.258 250.224 131.297 249.696 131.224C249.167 131.151 248.677 130.983 248.224 130.719C247.537 130.319 247.176 129.905 247.143 129.476C247.118 129.051 247.407 128.664 248.011 128.312C248.623 127.956 249.314 127.812 250.085 127.881C250.865 127.954 251.728 128.266 252.676 128.817L253.958 129.563L254.6 129.19C255.061 128.922 255.287 128.644 255.279 128.356C255.27 128.068 255.006 127.773 254.486 127.471C254.092 127.242 253.673 127.1 253.229 127.047C252.793 126.998 252.34 127.008 251.871 127.076L251.833 126.395C252.361 126.293 252.94 126.283 253.568 126.366C254.206 126.444 254.817 126.654 255.404 126.995C256.192 127.454 256.611 127.922 256.662 128.4C256.712 128.878 256.393 129.317 255.706 129.717L252.135 131.795L252.877 132.227L251.997 132.739L251.431 132.41ZM249.243 130.317C249.494 130.463 249.754 130.58 250.022 130.668C250.291 130.756 250.555 130.812 250.815 130.837C251.075 130.861 251.318 130.856 251.544 130.822C251.77 130.788 251.967 130.722 252.135 130.624L253.204 130.002L251.871 129.227C251.292 128.89 250.785 128.693 250.349 128.634C249.922 128.581 249.549 128.646 249.23 128.832L248.966 128.985C248.648 129.171 248.514 129.381 248.564 129.615C248.623 129.854 248.849 130.088 249.243 130.317Z" fill="#BDC3CB"/>
<path d="M253.432 133.574L259.921 129.799L260.927 130.384L259.732 131.079L259.795 131.116C260.222 131.004 260.709 130.965 261.254 130.999C261.798 131.033 262.335 131.204 262.863 131.511L263.253 131.738L262.247 132.323L261.656 131.979C261.111 131.662 260.579 131.474 260.059 131.416C259.556 131.357 259.149 131.418 258.839 131.599L254.438 134.159L253.432 133.574Z" fill="#BDC3CB"/>
<path d="M259.532 137.123C259.18 136.918 259.008 136.706 259.017 136.487C259.042 136.267 259.214 136.065 259.532 135.88L264.071 133.238L263.003 132.616L263.883 132.104L264.486 132.455C264.704 132.582 264.893 132.643 265.052 132.638C265.228 132.633 265.425 132.568 265.643 132.441L266.85 131.738L267.756 132.265L265.958 133.311L267.378 134.138L266.498 134.65L265.077 133.824L260.349 136.575L261.67 137.343L260.789 137.855L259.532 137.123Z" fill="#BDC3CB"/>
<path d="M264.746 140.333C264.302 140.074 263.979 139.794 263.778 139.492C263.585 139.194 263.506 138.884 263.539 138.562C263.59 138.24 263.749 137.918 264.017 137.597C264.302 137.275 264.704 136.962 265.224 136.66C265.736 136.363 266.268 136.131 266.821 135.965C267.383 135.804 267.936 135.711 268.481 135.687C269.043 135.663 269.579 135.706 270.09 135.819C270.61 135.936 271.092 136.124 271.536 136.382C271.972 136.636 272.283 136.909 272.467 137.201C272.651 137.494 272.723 137.794 272.681 138.101C272.647 138.404 272.5 138.704 272.241 139.001C271.989 139.304 271.633 139.589 271.172 139.857L270.694 140.135L266.029 137.421L265.727 137.597C265.451 137.758 265.233 137.933 265.073 138.123C264.931 138.314 264.851 138.506 264.834 138.701C264.826 138.901 264.889 139.099 265.023 139.294C265.166 139.494 265.388 139.682 265.689 139.857C266.1 140.096 266.553 140.248 267.047 140.311C267.55 140.379 268.066 140.357 268.594 140.245L268.795 140.962C268.141 141.099 267.454 141.118 266.733 141.021C266.021 140.918 265.358 140.689 264.746 140.333ZM270.694 136.872C270.417 136.711 270.116 136.594 269.789 136.521C269.47 136.443 269.139 136.406 268.795 136.411C268.46 136.421 268.125 136.47 267.789 136.558C267.462 136.641 267.156 136.765 266.871 136.931L266.783 136.982L270.367 139.067L270.505 138.987C271.084 138.65 271.386 138.289 271.411 137.904C271.453 137.519 271.214 137.175 270.694 136.872Z" fill="#BDC3CB"/>
<path d="M274.565 144.641L274.514 144.612C273.316 144.851 272.28 144.717 271.409 144.209C271.006 143.975 270.721 143.717 270.554 143.434C270.386 143.151 270.331 142.856 270.39 142.549C270.457 142.246 270.637 141.936 270.931 141.619C271.233 141.307 271.643 141 272.163 140.697C272.683 140.395 273.211 140.156 273.747 139.98C274.292 139.81 274.825 139.705 275.344 139.666C275.872 139.632 276.38 139.663 276.866 139.761C277.352 139.859 277.796 140.024 278.199 140.259C278.651 140.522 278.936 140.805 279.054 141.107C279.188 141.41 279.133 141.729 278.89 142.066L278.941 142.095L282.813 139.841L283.819 140.427L274.514 145.841L273.508 145.256L274.565 144.641ZM272.591 143.844C272.817 143.975 273.06 144.083 273.32 144.165C273.588 144.253 273.852 144.309 274.112 144.334C274.38 144.353 274.636 144.341 274.879 144.297C275.139 144.253 275.374 144.17 275.583 144.048L277.997 142.644C278.174 142.541 278.291 142.419 278.35 142.278C278.425 142.136 278.442 141.99 278.4 141.839C278.358 141.688 278.262 141.534 278.111 141.378C277.977 141.222 277.796 141.078 277.57 140.946C277 140.615 276.371 140.458 275.684 140.478C275.005 140.493 274.376 140.668 273.798 141.005L272.691 141.649C272.113 141.985 271.807 142.353 271.773 142.753C271.748 143.149 272.021 143.512 272.591 143.844Z" fill="#BDC3CB"/>
</g>
<g>
<rect width="104.361" height="104.361" rx="11" transform="matrix(0.865929 0.500167 -0.865929 0.500167 568.686 119.829)" fill="url(#paint6_linear)" fill-opacity="0.5"/>
<rect x="-2.98023e-08" y="0.500167" width="103.361" height="103.361" rx="10.5" transform="matrix(0.865929 0.500167 -0.865929 0.500167 569.119 120.079)" stroke="url(#paint7_linear)"/>
</g>
<circle r="24.5372" transform="matrix(0.865929 0.500167 -0.865929 0.500167 569.224 172.026)" fill="white"/>
<path fill-rule="evenodd" clip-rule="evenodd" d="M560.881 167.834L565.445 167.834L565.445 172.667L582.942 172.667L582.942 175.304L560.881 175.304L560.881 167.834Z" fill="#598AB4"/>
<path d="M606.325 143.044C604.062 144.351 600.392 144.351 598.129 143.044C597.082 142.439 596.519 141.66 596.441 140.867C596.351 139.949 596.169 138.67 597.384 137.968C599.647 136.661 604.663 136.465 606.926 137.772C608.717 139.195 608.588 141.737 606.325 143.044ZM599.661 139.195C598.243 140.014 598.243 141.341 599.661 142.16C601.078 142.978 603.376 142.978 604.793 142.16C606.211 141.341 606.211 140.014 604.793 139.195C603.376 138.376 601.078 138.376 599.661 139.195Z" fill="#DF6461"/>
<path d="M606.326 141.907C604.063 143.214 600.394 143.214 598.131 141.907C595.868 140.6 595.868 138.481 598.131 137.174C600.394 135.867 604.063 135.867 606.326 137.174C608.589 138.481 608.589 140.6 606.326 141.907Z" fill="url(#paint8_linear)"/>
<path d="M369.926 70.5156C367.663 71.8227 363.994 71.8227 361.731 70.5156C360.683 69.9105 360.12 69.1313 360.043 68.3392C359.953 67.4204 359.77 66.1415 360.985 65.4396C363.248 64.1325 368.264 63.9371 370.527 65.2441C372.318 66.6668 372.189 69.2086 369.926 70.5156ZM363.262 66.6668C361.844 67.4854 361.844 68.8127 363.262 69.6313C364.679 70.4499 366.977 70.4499 368.395 69.6313C369.812 68.8127 369.812 67.4854 368.395 66.6668C366.977 65.8481 364.679 65.8481 363.262 66.6668Z" fill="#DF6461"/>
<path d="M369.927 69.3791C367.664 70.6862 363.995 70.6862 361.732 69.3791C359.469 68.0721 359.469 65.9529 361.732 64.6459C363.995 63.3389 367.664 63.3389 369.927 64.6459C372.19 65.9529 372.19 68.0721 369.927 69.3791Z" fill="url(#paint9_linear)"/>
<path d="M369.177 65.827L474.63 3.57097C478.366 1.36536 483.002 1.34805 486.754 3.52571L644.656 95.1634C652.662 99.8095 652.616 111.387 644.573 115.969L605.97 137.961" stroke="#EF796D" stroke-dasharray="3 3"/>
<g opacity="0.5" filter="url(#filter16_f)">
<circle r="15.6695" transform="matrix(0.865929 0.500167 -0.865929 0.500167 305.702 96.8959)" fill="#1E396A" fill-opacity="0.2"/>
</g>
<path d="M318.998 82.8031C311.504 87.1315 299.354 87.1315 291.86 82.8031C284.366 78.4746 284.029 70.586 291.523 66.2576C299.016 61.9291 311.708 61.4068 319.202 65.7352C326.696 70.0637 326.491 78.4746 318.998 82.8031Z" fill="#C35348"/>
<circle r="15.6695" transform="matrix(0.865929 0.500167 -0.865929 0.500167 305.432 73.224)" fill="url(#paint10_linear)"/>
<path d="M308.295 78.3565C308.287 77.9631 308.052 77.5843 307.63 77.288C307.208 76.9918 306.628 76.7977 305.993 76.7405L305.209 76.6833C305.012 76.6646 304.832 76.6035 304.702 76.5111C304.572 76.4187 304.499 76.3008 304.497 76.1786L304.514 71.5915C304.513 71.4687 304.585 71.3499 304.716 71.257C304.847 71.1642 305.028 71.1037 305.226 71.0867L305.993 71.0189C306.628 70.9614 307.209 70.766 307.629 70.4684C308.049 70.1707 308.282 69.7904 308.284 69.3965L308.284 68.1241C308.285 67.9291 308.223 67.7359 308.102 67.5556C307.98 67.3753 307.802 67.2115 307.577 67.0736C307.353 66.9357 307.086 66.8263 306.792 66.7519C306.498 66.6774 306.183 66.6393 305.865 66.6396L304.442 66.6396C303.407 66.6386 302.402 66.8559 301.597 67.2551C300.792 67.6543 300.235 68.2112 300.019 68.8324C298.846 72.0758 298.846 75.4376 300.019 78.681C300.24 79.2998 300.801 79.8533 301.607 80.2493C302.413 80.6452 303.416 80.8596 304.449 80.8568L305.872 80.8568C306.19 80.8572 306.505 80.8191 306.799 80.7446C307.093 80.6701 307.359 80.5608 307.584 80.4229C307.809 80.285 307.987 80.1212 308.108 79.9409C308.23 79.7606 308.292 79.5674 308.291 79.3723L308.295 78.3565Z" fill="#F9F9F9"/>
<path d="M310.708 75.3131C310.571 75.3975 310.494 75.5119 310.494 75.6312C310.494 75.7505 310.571 75.8649 310.708 75.9493C310.846 76.0337 311.032 76.0811 311.227 76.0811C311.421 76.0811 311.607 76.0337 311.745 75.9493C312.691 75.3673 313.223 74.5787 313.223 73.7565C313.223 72.9343 312.691 72.1457 311.745 71.5637C311.607 71.4793 311.421 71.4319 311.227 71.4319C311.032 71.4319 310.846 71.4793 310.708 71.5637C310.571 71.6481 310.494 71.7625 310.494 71.8818C310.494 72.0011 310.571 72.1155 310.708 72.1999C311.041 72.4043 311.306 72.647 311.486 72.9141C311.666 73.1812 311.759 73.4674 311.759 73.7565C311.759 74.0456 311.666 74.3318 311.486 74.5989C311.306 74.866 311.041 75.1087 310.708 75.3131Z" fill="#F9F9F9"/>
<path d="M314.556 69.8381C314.419 69.7538 314.232 69.7064 314.038 69.7064C313.844 69.7064 313.657 69.7538 313.52 69.8381C313.382 69.9225 313.305 70.0369 313.305 70.1562C313.305 70.2755 313.382 70.39 313.52 70.4743C314.937 71.3454 315.733 72.5261 315.733 73.7572C315.733 74.9882 314.937 76.169 313.52 77.04C313.382 77.1244 313.305 77.2388 313.305 77.3581C313.305 77.4774 313.382 77.5919 313.52 77.6762C313.657 77.7606 313.844 77.808 314.038 77.808C314.232 77.808 314.419 77.7606 314.556 77.6762C316.248 76.636 317.197 75.2266 317.197 73.7572C317.197 72.2877 316.248 70.8783 314.556 69.8381Z" fill="#F9F9F9"/>
<path d="M121.914 207.236C119.651 208.543 115.982 208.543 113.719 207.236C112.671 206.631 112.108 205.852 112.031 205.06C111.941 204.141 111.758 202.862 112.974 202.16C115.237 200.853 120.252 200.658 122.515 201.965C124.306 203.387 124.177 205.929 121.914 207.236ZM115.25 203.387C113.833 204.206 113.833 205.533 115.25 206.352C116.667 207.171 118.965 207.171 120.383 206.352C121.8 205.533 121.8 204.206 120.383 203.387C118.965 202.569 116.667 202.569 115.25 203.387Z" fill="#DF6461"/>
<path d="M121.915 206.1C119.652 207.407 115.983 207.407 113.72 206.1C111.457 204.793 111.457 202.674 113.72 201.367C115.983 200.06 119.652 200.06 121.915 201.367C124.179 202.674 124.179 204.793 121.915 206.1Z" fill="url(#paint11_linear)"/>
<path d="M116.448 204.5L53.0476 240.549C49.2962 242.682 46.979 246.666 46.979 250.981V397C46.979 403.627 52.3516 409 58.979 409H447.295C453.923 409 459.295 414.373 459.295 421V504C459.295 510.627 464.668 516 471.295 516H1123" stroke="#EF796D" stroke-dasharray="3 3"/>
<defs>
<filter id="filter0_f" x="4.99219" y="109" width="597.662" height="267.153" filterUnits="userSpaceOnUse" color-interpolation-filters="sRGB">
<feFlood flood-opacity="0" result="BackgroundImageFix"/>
<feBlend mode="normal" in="SourceGraphic" in2="BackgroundImageFix" result="shape"/>
<feGaussianBlur stdDeviation="7" result="effect1_foregroundBlur"/>
</filter>
<filter id="filter1_f" x="148.086" y="118.588" width="172.016" height="108.908" filterUnits="userSpaceOnUse" color-interpolation-filters="sRGB">
<feFlood flood-opacity="0" result="BackgroundImageFix"/>
<feBlend mode="normal" in="SourceGraphic" in2="BackgroundImageFix" result="shape"/>
<feGaussianBlur stdDeviation="2" result="effect1_foregroundBlur"/>
</filter>
<filter id="filter2_i" x="59.6172" y="130.724" width="112.906" height="65.7329" filterUnits="userSpaceOnUse" color-interpolation-filters="sRGB">
<feFlood flood-opacity="0" result="BackgroundImageFix"/>
<feBlend mode="normal" in="SourceGraphic" in2="BackgroundImageFix" result="shape"/>
<feColorMatrix in="SourceAlpha" type="matrix" values="0 0 0 0 0 0 0 0 0 0 0 0 0 0 0 0 0 0 127 0" result="hardAlpha"/>
<feOffset dx="1.22436" dy="1.22436"/>
<feGaussianBlur stdDeviation="0.612182"/>
<feComposite in2="hardAlpha" operator="arithmetic" k2="-1" k3="1"/>
<feColorMatrix type="matrix" values="0 0 0 0 0.280972 0 0 0 0 0.354025 0 0 0 0 0.495833 0 0 0 0.19 0"/>
<feBlend mode="normal" in2="shape" result="effect1_innerShadow"/>
</filter>
<filter id="filter3_i" x="46.1606" y="141.167" width="69.5016" height="40.6621" filterUnits="userSpaceOnUse" color-interpolation-filters="sRGB">
<feFlood flood-opacity="0" result="BackgroundImageFix"/>
<feBlend mode="normal" in="SourceGraphic" in2="BackgroundImageFix" result="shape"/>
<feColorMatrix in="SourceAlpha" type="matrix" values="0 0 0 0 0 0 0 0 0 0 0 0 0 0 0 0 0 0 127 0" result="hardAlpha"/>
<feOffset dx="1.22436" dy="1.22436"/>
<feGaussianBlur stdDeviation="0.612182"/>
<feComposite in2="hardAlpha" operator="arithmetic" k2="-1" k3="1"/>
<feColorMatrix type="matrix" values="0 0 0 0 0.280972 0 0 0 0 0.354025 0 0 0 0 0.495833 0 0 0 0.19 0"/>
<feBlend mode="normal" in2="shape" result="effect1_innerShadow"/>
</filter>
<filter id="filter4_i" x="373.242" y="102.22" width="184.101" height="106.856" filterUnits="userSpaceOnUse" color-interpolation-filters="sRGB">
<feFlood flood-opacity="0" result="BackgroundImageFix"/>
<feBlend mode="normal" in="SourceGraphic" in2="BackgroundImageFix" result="shape"/>
<feColorMatrix in="SourceAlpha" type="matrix" values="0 0 0 0 0 0 0 0 0 0 0 0 0 0 0 0 0 0 127 0" result="hardAlpha"/>
<feOffset dx="1.22436" dy="1.22436"/>
<feGaussianBlur stdDeviation="0.612182"/>
<feComposite in2="hardAlpha" operator="arithmetic" k2="-1" k3="1"/>
<feColorMatrix type="matrix" values="0 0 0 0 0.280972 0 0 0 0 0.354025 0 0 0 0 0.495833 0 0 0 0.19 0"/>
<feBlend mode="normal" in2="shape" result="effect1_innerShadow"/>
</filter>
<filter id="filter5_i" x="418.112" y="157.755" width="112.689" height="65.6079" filterUnits="userSpaceOnUse" color-interpolation-filters="sRGB">
<feFlood flood-opacity="0" result="BackgroundImageFix"/>
<feBlend mode="normal" in="SourceGraphic" in2="BackgroundImageFix" result="shape"/>
<feColorMatrix in="SourceAlpha" type="matrix" values="0 0 0 0 0 0 0 0 0 0 0 0 0 0 0 0 0 0 127 0" result="hardAlpha"/>
<feOffset dx="1.22436" dy="1.22436"/>
<feGaussianBlur stdDeviation="0.612182"/>
<feComposite in2="hardAlpha" operator="arithmetic" k2="-1" k3="1"/>
<feColorMatrix type="matrix" values="0 0 0 0 0.280972 0 0 0 0 0.354025 0 0 0 0 0.495833 0 0 0 0.19 0"/>
<feBlend mode="normal" in2="shape" result="effect1_innerShadow"/>
</filter>
<filter id="filter6_f" x="458.553" y="154.458" width="136.443" height="85.258" filterUnits="userSpaceOnUse" color-interpolation-filters="sRGB">
<feFlood flood-opacity="0" result="BackgroundImageFix"/>
<feBlend mode="normal" in="SourceGraphic" in2="BackgroundImageFix" result="shape"/>
<feGaussianBlur stdDeviation="2" result="effect1_foregroundBlur"/>
</filter>
<filter id="filter7_f" x="193" y="114.252" width="255.713" height="149.114" filterUnits="userSpaceOnUse" color-interpolation-filters="sRGB">
<feFlood flood-opacity="0" result="BackgroundImageFix"/>
<feBlend mode="normal" in="SourceGraphic" in2="BackgroundImageFix" result="shape"/>
<feGaussianBlur stdDeviation="2" result="effect1_foregroundBlur"/>
</filter>
<filter id="filter8_b" x="165.091" y="70.1166" width="288.708" height="183.744" filterUnits="userSpaceOnUse" color-interpolation-filters="sRGB">
<feFlood flood-opacity="0" result="BackgroundImageFix"/>
<feGaussianBlur in="BackgroundImage" stdDeviation="10.0904"/>
<feComposite in2="SourceAlpha" operator="in" result="effect1_backgroundBlur"/>
<feBlend mode="normal" in="SourceGraphic" in2="effect1_backgroundBlur" result="shape"/>
</filter>
<filter id="filter9_i" x="285.144" y="151.413" width="78.8679" height="46.0718" filterUnits="userSpaceOnUse" color-interpolation-filters="sRGB">
<feFlood flood-opacity="0" result="BackgroundImageFix"/>
<feBlend mode="normal" in="SourceGraphic" in2="BackgroundImageFix" result="shape"/>
<feColorMatrix in="SourceAlpha" type="matrix" values="0 0 0 0 0 0 0 0 0 0 0 0 0 0 0 0 0 0 127 0" result="hardAlpha"/>
<feOffset dx="1.22436" dy="1.22436"/>
<feGaussianBlur stdDeviation="0.612182"/>
<feComposite in2="hardAlpha" operator="arithmetic" k2="-1" k3="1"/>
<feColorMatrix type="matrix" values="0 0 0 0 0.280972 0 0 0 0 0.354025 0 0 0 0 0.495833 0 0 0 0.19 0"/>
<feBlend mode="normal" in2="shape" result="effect1_innerShadow"/>
</filter>
<filter id="filter10_i" x="291.767" y="147.167" width="28.6418" height="17.0609" filterUnits="userSpaceOnUse" color-interpolation-filters="sRGB">
<feFlood flood-opacity="0" result="BackgroundImageFix"/>
<feBlend mode="normal" in="SourceGraphic" in2="BackgroundImageFix" result="shape"/>
<feColorMatrix in="SourceAlpha" type="matrix" values="0 0 0 0 0 0 0 0 0 0 0 0 0 0 0 0 0 0 127 0" result="hardAlpha"/>
<feOffset dx="1.22436" dy="1.22436"/>
<feGaussianBlur stdDeviation="0.612182"/>
<feComposite in2="hardAlpha" operator="arithmetic" k2="-1" k3="1"/>
<feColorMatrix type="matrix" values="0 0 0 0 0.280972 0 0 0 0 0.354025 0 0 0 0 0.495833 0 0 0 0.19 0"/>
<feBlend mode="normal" in2="shape" result="effect1_innerShadow"/>
</filter>
<filter id="filter11_i" x="368.24" y="199.89" width="9.72957" height="6.13661" filterUnits="userSpaceOnUse" color-interpolation-filters="sRGB">
<feFlood flood-opacity="0" result="BackgroundImageFix"/>
<feBlend mode="normal" in="SourceGraphic" in2="BackgroundImageFix" result="shape"/>
<feColorMatrix in="SourceAlpha" type="matrix" values="0 0 0 0 0 0 0 0 0 0 0 0 0 0 0 0 0 0 127 0" result="hardAlpha"/>
<feOffset dx="1.22436" dy="1.22436"/>
<feGaussianBlur stdDeviation="0.612182"/>
<feComposite in2="hardAlpha" operator="arithmetic" k2="-1" k3="1"/>
<feColorMatrix type="matrix" values="0 0 0 0 0.280972 0 0 0 0 0.354025 0 0 0 0 0.495833 0 0 0 0.19 0"/>
<feBlend mode="normal" in2="shape" result="effect1_innerShadow"/>
</filter>
<filter id="filter12_i" x="378.84" y="206.519" width="9.72957" height="6.13661" filterUnits="userSpaceOnUse" color-interpolation-filters="sRGB">
<feFlood flood-opacity="0" result="BackgroundImageFix"/>
<feBlend mode="normal" in="SourceGraphic" in2="BackgroundImageFix" result="shape"/>
<feColorMatrix in="SourceAlpha" type="matrix" values="0 0 0 0 0 0 0 0 0 0 0 0 0 0 0 0 0 0 127 0" result="hardAlpha"/>
<feOffset dx="1.22436" dy="1.22436"/>
<feGaussianBlur stdDeviation="0.612182"/>
<feComposite in2="hardAlpha" operator="arithmetic" k2="-1" k3="1"/>
<feColorMatrix type="matrix" values="0 0 0 0 0.280972 0 0 0 0 0.354025 0 0 0 0 0.495833 0 0 0 0.19 0"/>
<feBlend mode="normal" in2="shape" result="effect1_innerShadow"/>
</filter>
<filter id="filter13_i" x="390.765" y="213.148" width="9.72957" height="6.13661" filterUnits="userSpaceOnUse" color-interpolation-filters="sRGB">
<feFlood flood-opacity="0" result="BackgroundImageFix"/>
<feBlend mode="normal" in="SourceGraphic" in2="BackgroundImageFix" result="shape"/>
<feColorMatrix in="SourceAlpha" type="matrix" values="0 0 0 0 0 0 0 0 0 0 0 0 0 0 0 0 0 0 127 0" result="hardAlpha"/>
<feOffset dx="1.22436" dy="1.22436"/>
<feGaussianBlur stdDeviation="0.612182"/>
<feComposite in2="hardAlpha" operator="arithmetic" k2="-1" k3="1"/>
<feColorMatrix type="matrix" values="0 0 0 0 0.280972 0 0 0 0 0.354025 0 0 0 0 0.495833 0 0 0 0.19 0"/>
<feBlend mode="normal" in2="shape" result="effect1_innerShadow"/>
</filter>
<filter id="filter14_b" x="194.728" y="85.8866" width="109.272" height="80.1351" filterUnits="userSpaceOnUse" color-interpolation-filters="sRGB">
<feFlood flood-opacity="0" result="BackgroundImageFix"/>
<feGaussianBlur in="BackgroundImage" stdDeviation="10.0904"/>
<feComposite in2="SourceAlpha" operator="in" result="effect1_backgroundBlur"/>
<feBlend mode="normal" in="SourceGraphic" in2="effect1_backgroundBlur" result="shape"/>
</filter>
<filter id="filter15_b" x="471.896" y="111.052" width="193.579" height="121.95" filterUnits="userSpaceOnUse" color-interpolation-filters="sRGB">
<feFlood flood-opacity="0" result="BackgroundImageFix"/>
<feGaussianBlur in="BackgroundImage" stdDeviation="6"/>
<feComposite in2="SourceAlpha" operator="in" result="effect1_backgroundBlur"/>
<feBlend mode="normal" in="SourceGraphic" in2="effect1_backgroundBlur" result="shape"/>
</filter>
<filter id="filter16_f" x="277.429" y="76.7278" width="56.5463" height="40.3358" filterUnits="userSpaceOnUse" color-interpolation-filters="sRGB">
<feFlood flood-opacity="0" result="BackgroundImageFix"/>
<feBlend mode="normal" in="SourceGraphic" in2="BackgroundImageFix" result="shape"/>
<feGaussianBlur stdDeviation="4.5421" result="effect1_foregroundBlur"/>
</filter>
<linearGradient id="paint0_linear" x1="174.911" y1="206.857" x2="309.142" y2="135.391" gradientUnits="userSpaceOnUse">
<stop stop-color="#ECECEC"/>
<stop offset="1" stop-color="#F5F5F5"/>
</linearGradient>
<linearGradient id="paint1_linear" x1="73.2868" y1="137.961" x2="219.47" y2="87.4718" gradientUnits="userSpaceOnUse">
<stop stop-color="#FBFBFB"/>
<stop offset="1" stop-color="#F5F5F5"/>
</linearGradient>
<linearGradient id="paint2_linear" x1="389.663" y1="223.497" x2="577.333" y2="122.678" gradientUnits="userSpaceOnUse">
<stop stop-color="#ECECEC"/>
<stop offset="1" stop-color="#F5F5F5"/>
</linearGradient>
<linearGradient id="paint3_linear" x1="466.47" y1="124.756" x2="380.506" y2="273.584" gradientUnits="userSpaceOnUse">
<stop stop-color="#FBFBFB"/>
<stop offset="1" stop-color="#F5F5F5"/>
</linearGradient>
<linearGradient id="paint4_linear" x1="47.4079" y1="218.312" x2="-55.8757" y2="68.5772" gradientUnits="userSpaceOnUse">
<stop offset="0.178143" stop-color="#FBFBFB"/>
<stop offset="1" stop-color="#F4F5F7"/>
</linearGradient>
<linearGradient id="paint5_linear" x1="41.1504" y1="-52.0459" x2="193.642" y2="74.2686" gradientUnits="userSpaceOnUse">
<stop stop-color="#FBFBFB"/>
<stop offset="1" stop-color="#CAD4E0"/>
</linearGradient>
<linearGradient id="paint6_linear" x1="-6.9289" y1="9.88028" x2="110.941" y2="84.3751" gradientUnits="userSpaceOnUse">
<stop stop-color="#2081AE"/>
<stop offset="0.979167" stop-color="#9CDDFD"/>
</linearGradient>
<linearGradient id="paint7_linear" x1="117.938" y1="-23.451" x2="24.3227" y2="-44.9191" gradientUnits="userSpaceOnUse">
<stop stop-color="#5487B1"/>
<stop offset="1" stop-color="#D0D7EF"/>
</linearGradient>
<linearGradient id="paint8_linear" x1="600.437" y1="136.094" x2="608.152" y2="141.285" gradientUnits="userSpaceOnUse">
<stop stop-color="#F48D89"/>
<stop offset="1" stop-color="#EE786C"/>
</linearGradient>
<linearGradient id="paint9_linear" x1="364.038" y1="63.5659" x2="371.753" y2="68.7564" gradientUnits="userSpaceOnUse">
<stop stop-color="#F48D89"/>
<stop offset="1" stop-color="#EE786C"/>
</linearGradient>
<linearGradient id="paint10_linear" x1="1.92263" y1="23.4239" x2="65.0821" y2="-0.55609" gradientUnits="userSpaceOnUse">
<stop stop-color="#EE786C"/>
<stop offset="1" stop-color="#D25D51"/>
</linearGradient>
<linearGradient id="paint11_linear" x1="116.026" y1="200.287" x2="123.741" y2="205.477" gradientUnits="userSpaceOnUse">
<stop stop-color="#F48D89"/>
<stop offset="1" stop-color="#EE786C"/>
</linearGradient>
</defs>
</svg>
