<svg xmlns="http://www.w3.org/2000/svg" fill="none" preserveAspectRatio="xMinYMin slice" viewBox="0 0 222 184"><rect width="31.198" height="31.198" fill="url(#formBgPaint0_linear)" transform="matrix(0.865415 0.501056 -0.865415 0.501056 27.0064 36.4497)"/><rect width="31.235" height="31.198" fill="url(#formBgPaint1_linear)" transform="matrix(1.19062e-08 -1 0.865648 0.500653 -0.00109863 83.2981)"/><rect width="31.198" height="31.235" fill="url(#formBgPaint2_linear)" transform="matrix(0.865667 -0.50062 -3.7513e-05 1 27.0049 67.6826)"/><path stroke="url(#formBgPaint3_linear)" stroke-width=".382" d="M53.9412 52.0806L26.8003 67.3713M26.8003 67.3713L0.168259 52.0806M26.8003 67.3713V98.4624"/><rect width="37.946" height="37.946" fill="url(#formBgPaint4_linear)" transform="matrix(0.865415 0.501056 -0.865415 0.501056 189.148 80.9009)"/><rect width="37.991" height="37.946" fill="url(#formBgPaint5_linear)" transform="matrix(1.19062e-08 -1 0.865648 0.500653 156.297 137.882)"/><rect width="37.946" height="37.991" fill="url(#formBgPaint6_linear)" transform="matrix(0.865667 -0.50062 -3.7513e-05 1 189.146 118.889)"/><path stroke="url(#formBgPaint7_linear)" stroke-width=".382" d="M221.907 99.9126L188.896 118.511M188.896 118.511L156.503 99.9126M188.896 118.511V156.327"/><rect width="28.786" height="28.786" fill="url(#formBgPaint8_linear)" transform="matrix(0.865415 0.501056 -0.865415 0.501056 170.489 126.363)"/><rect width="28.82" height="28.786" fill="url(#formBgPaint9_linear)" transform="matrix(1.19062e-08 -1 0.865648 0.500653 145.569 169.588)"/><rect width="28.786" height="28.82" fill="url(#formBgPaint10_linear)" transform="matrix(0.865667 -0.50062 -3.7513e-05 1 170.489 155.181)"/><path stroke="url(#formBgPaint11_linear)" stroke-width=".29" d="M195.341 140.785L170.298 154.893M170.298 154.893L145.726 140.785M170.298 154.893V183.58"/><rect width="35.513" height="35.513" fill="url(#formBgPaint12_linear)" transform="matrix(0.865415 0.501056 -0.865415 0.501056 76.8989 39.0657)"/><rect width="35.555" height="35.513" fill="url(#formBgPaint13_linear)" transform="matrix(1.19062e-08 -1 0.865648 0.500653 46.1548 92.3931)"/><rect width="35.513" height="35.555" fill="url(#formBgPaint14_linear)" transform="matrix(0.865667 -0.50062 -3.7513e-05 1 76.8969 74.6184)"/><path stroke="url(#formBgPaint15_linear)" stroke-width=".382" d="M107.557 56.8579L76.6623 74.2635M76.6623 74.2635L46.3468 56.8579M76.6623 74.2635V109.655"/><rect width="35.513" height="35.513" fill="url(#formBgPaint16_linear)" transform="matrix(0.865415 0.501056 -0.865415 0.501056 109.335 58.4053)"/><rect width="35.555" height="35.513" fill="url(#formBgPaint17_linear)" transform="matrix(1.19062e-08 -1 0.865648 0.500653 78.5932 111.733)"/><rect width="35.513" height="35.555" fill="url(#formBgPaint18_linear)" transform="matrix(0.865667 -0.50062 -3.7513e-05 1 109.335 93.958)"/><path stroke="url(#formBgPaint19_linear)" stroke-width=".382" d="M139.996 76.1973L109.101 93.6028M109.101 93.6028L78.7854 76.1973M109.101 93.6028V128.994"/><rect width="35.513" height="35.513" fill="url(#formBgPaint20_linear)" transform="matrix(0.865415 0.501056 -0.865415 0.501056 76.8989 0)"/><rect width="35.555" height="35.513" fill="url(#formBgPaint21_linear)" transform="matrix(1.19062e-08 -1 0.865648 0.500653 46.1548 53.3276)"/><rect width="35.513" height="35.555" fill="url(#formBgPaint22_linear)" transform="matrix(0.865667 -0.50062 -3.7513e-05 1 76.8969 35.5527)"/><path stroke="url(#formBgPaint23_linear)" stroke-width=".382" d="M107.557 17.7925L76.6623 35.198M76.6623 35.198L46.3468 17.7925M76.6623 35.198V70.5893"/><path stroke="#ED6C68" stroke-width=".431" d="M78.3054 37.3244L109.012 19.4385L139.719 37.3244M78.3054 37.3244L109.012 54.9922M78.3054 37.3244V72.6601L109.012 90.7641M109.012 54.9922L139.719 37.3244M109.012 54.9922V90.7641M139.719 37.3244V72.6601L109.012 90.7641"/><ellipse cx="78.524" cy="37.542" fill="#ED6C68" rx="1.089" ry="1.091"/><ellipse cx="78.524" cy="72.879" fill="#ED6C68" rx="1.089" ry="1.091"/><ellipse cx="109.013" cy="54.993" fill="#ED6C68" rx="1.089" ry="1.091"/><ellipse cx="109.013" cy="90.328" fill="#ED6C68" rx="1.089" ry="1.091"/><ellipse cx="109.013" cy="19.657" fill="#ED6C68" rx="1.089" ry="1.091"/><ellipse cx="139.937" cy="37.542" fill="#ED6C68" rx="1.089" ry="1.091"/><ellipse cx="139.937" cy="72.879" fill="#ED6C68" rx="1.089" ry="1.091"/><rect width="21.707" height="21.707" fill="url(#formBgPaint24_linear)" transform="matrix(0.865415 0.501056 -0.865415 0.501056 36.5426 136.02)"/><rect width="21.733" height="21.707" fill="url(#formBgPaint25_linear)" transform="matrix(1.19062e-08 -1 0.865648 0.500653 17.7513 168.616)"/><rect width="21.707" height="21.733" fill="url(#formBgPaint26_linear)" transform="matrix(0.865667 -0.50062 -3.7513e-05 1 36.5418 157.751)"/><path stroke="url(#formBgPaint27_linear)" stroke-width=".382" d="M55.2827 146.895L36.3986 157.534M36.3986 157.534L17.8685 146.895M36.3986 157.534V179.167"/><defs><linearGradient id="formBgPaint0_linear" x1="15.599" x2="15.599" y1="0" y2="32.592" gradientUnits="userSpaceOnUse"><stop stop-color="#FBFBFB"/><stop offset="1" stop-color="#F5F5F5"/></linearGradient><linearGradient id="formBgPaint1_linear" x1="15.617" x2="15.617" y1="0" y2="32.592" gradientUnits="userSpaceOnUse"><stop stop-color="#FBFBFB"/><stop offset="1" stop-color="#F5F5F5"/></linearGradient><linearGradient id="formBgPaint2_linear" x1="9.364" x2="55.819" y1="1.998" y2="8.88" gradientUnits="userSpaceOnUse"><stop stop-color="#FBFBFB"/><stop offset="1" stop-color="#CFCFCF"/></linearGradient><linearGradient id="formBgPaint3_linear" x1="27.818" x2="27.052" y1="56.668" y2="98.462" gradientUnits="userSpaceOnUse"><stop stop-color="#fff"/><stop offset="1" stop-color="#fff" stop-opacity="0"/></linearGradient><linearGradient id="formBgPaint4_linear" x1="18.973" x2="18.973" y1="0" y2="39.642" gradientUnits="userSpaceOnUse"><stop stop-color="#FBFBFB"/><stop offset="1" stop-color="#F5F5F5"/></linearGradient><linearGradient id="formBgPaint5_linear" x1="18.995" x2="18.995" y1="0" y2="39.642" gradientUnits="userSpaceOnUse"><stop stop-color="#FBFBFB"/><stop offset="1" stop-color="#F5F5F5"/></linearGradient><linearGradient id="formBgPaint6_linear" x1="11.39" x2="90.764" y1="2.43" y2="61.336" gradientUnits="userSpaceOnUse"><stop stop-color="#FBFBFB"/><stop offset="1" stop-color="#CFCFCF"/></linearGradient><linearGradient id="formBgPaint7_linear" x1="190.134" x2="189.202" y1="105.492" y2="156.327" gradientUnits="userSpaceOnUse"><stop stop-color="#fff"/><stop offset="1" stop-color="#fff" stop-opacity="0"/></linearGradient><linearGradient id="formBgPaint8_linear" x1="14.393" x2="14.393" y1="0" y2="30.072" gradientUnits="userSpaceOnUse"><stop stop-color="#FBFBFB"/><stop offset="1" stop-color="#F5F5F5"/></linearGradient><linearGradient id="formBgPaint9_linear" x1="14.41" x2="14.41" y1="0" y2="30.072" gradientUnits="userSpaceOnUse"><stop stop-color="#FBFBFB"/><stop offset="1" stop-color="#F5F5F5"/></linearGradient><linearGradient id="formBgPaint10_linear" x1="8.64" x2="78.656" y1="1.843" y2="34.739" gradientUnits="userSpaceOnUse"><stop stop-color="#FBFBFB"/><stop offset="1" stop-color="#CFCFCF"/></linearGradient><linearGradient id="formBgPaint11_linear" x1="171.237" x2="170.531" y1="145.017" y2="183.58" gradientUnits="userSpaceOnUse"><stop stop-color="#fff"/><stop offset="1" stop-color="#fff" stop-opacity="0"/></linearGradient><linearGradient id="formBgPaint12_linear" x1="17.757" x2="17.757" y1="0" y2="37.1" gradientUnits="userSpaceOnUse"><stop stop-color="#FBFBFB"/><stop offset="1" stop-color="#F5F5F5"/></linearGradient><linearGradient id="formBgPaint13_linear" x1="17.777" x2="17.777" y1="0" y2="37.1" gradientUnits="userSpaceOnUse"><stop stop-color="#FBFBFB"/><stop offset="1" stop-color="#F5F5F5"/></linearGradient><linearGradient id="formBgPaint14_linear" x1="10.659" x2="56.665" y1="2.274" y2="32.914" gradientUnits="userSpaceOnUse"><stop stop-color="#FBFBFB"/><stop offset="1" stop-color="#CFCFCF"/></linearGradient><linearGradient id="formBgPaint15_linear" x1="77.821" x2="76.949" y1="62.08" y2="109.655" gradientUnits="userSpaceOnUse"><stop stop-color="#fff"/><stop offset="1" stop-color="#fff" stop-opacity="0"/></linearGradient><linearGradient id="formBgPaint16_linear" x1="17.757" x2="17.757" y1="0" y2="37.1" gradientUnits="userSpaceOnUse"><stop stop-color="#FBFBFB"/><stop offset="1" stop-color="#F5F5F5"/></linearGradient><linearGradient id="formBgPaint17_linear" x1="17.777" x2="17.777" y1="0" y2="37.1" gradientUnits="userSpaceOnUse"><stop stop-color="#FBFBFB"/><stop offset="1" stop-color="#F5F5F5"/></linearGradient><linearGradient id="formBgPaint18_linear" x1="10.659" x2="112.025" y1="2.274" y2="69.197" gradientUnits="userSpaceOnUse"><stop stop-color="#FBFBFB"/><stop offset="1" stop-color="#CFCFCF"/></linearGradient><linearGradient id="formBgPaint19_linear" x1="110.259" x2="109.388" y1="81.419" y2="128.994" gradientUnits="userSpaceOnUse"><stop stop-color="#fff"/><stop offset="1" stop-color="#fff" stop-opacity="0"/></linearGradient><linearGradient id="formBgPaint20_linear" x1="17.757" x2="17.757" y1="0" y2="37.1" gradientUnits="userSpaceOnUse"><stop stop-color="#FBFBFB"/><stop offset="1" stop-color="#F5F5F5"/></linearGradient><linearGradient id="formBgPaint21_linear" x1="17.777" x2="17.777" y1="0" y2="37.1" gradientUnits="userSpaceOnUse"><stop stop-color="#FBFBFB"/><stop offset="1" stop-color="#F5F5F5"/></linearGradient><linearGradient id="formBgPaint22_linear" x1="10.659" x2="75.142" y1="2.274" y2="32.242" gradientUnits="userSpaceOnUse"><stop stop-color="#FBFBFB"/><stop offset="1" stop-color="#CFCFCF"/></linearGradient><linearGradient id="formBgPaint23_linear" x1="77.821" x2="76.949" y1="23.014" y2="70.589" gradientUnits="userSpaceOnUse"><stop stop-color="#fff"/><stop offset="1" stop-color="#fff" stop-opacity="0"/></linearGradient><linearGradient id="formBgPaint24_linear" x1="10.854" x2="10.854" y1="0" y2="22.677" gradientUnits="userSpaceOnUse"><stop stop-color="#FBFBFB"/><stop offset="1" stop-color="#F5F5F5"/></linearGradient><linearGradient id="formBgPaint25_linear" x1="10.866" x2="10.866" y1="0" y2="22.677" gradientUnits="userSpaceOnUse"><stop stop-color="#FBFBFB"/><stop offset="1" stop-color="#F5F5F5"/></linearGradient><linearGradient id="formBgPaint26_linear" x1="6.515" x2="51.921" y1="1.39" y2="35.087" gradientUnits="userSpaceOnUse"><stop stop-color="#FBFBFB"/><stop offset="1" stop-color="#CFCFCF"/></linearGradient><linearGradient id="formBgPaint27_linear" x1="37.107" x2="36.574" y1="150.087" y2="179.167" gradientUnits="userSpaceOnUse"><stop stop-color="#fff"/><stop offset="1" stop-color="#fff" stop-opacity="0"/></linearGradient></defs></svg>