<svg xmlns="http://www.w3.org/2000/svg" fill="none" preserveAspectRatio="xMinYMin slice" viewBox="0 0 157 398"><path stroke="#EE786C" stroke-dasharray="5.31 5.31" stroke-width="1.063" d="M432.214 29.6074L17.6302 262.688C9.85136 267.062 9.64487 278.187 17.2561 282.846L488 570.999"/><path stroke="url(#getBuilding_2_0_linear)" stroke-width="1.063" d="M461.436 588L69.8699 343.072"/><rect width="450" height="149" fill="url(#getBuilding_2_1_linear)" transform="matrix(-1.19249e-08 -1 -1 1.19249e-08 197 450)"/><path fill="#DF6461" d="M63.5479 346.204C66.5996 347.966 71.5473 347.966 74.5989 346.204C76.0118 345.389 76.7706 344.338 76.8752 343.271C76.9965 342.032 77.2427 340.308 75.6039 339.362C72.5522 337.601 65.789 337.337 62.7373 339.099C60.322 341.016 60.4962 344.442 63.5479 346.204ZM72.5342 341.016C74.4455 342.12 74.4455 343.909 72.5342 345.012C70.6229 346.116 67.524 346.116 65.6126 345.012C63.7013 343.909 63.7013 342.12 65.6126 341.016C67.524 339.913 70.6229 339.913 72.5342 341.016Z"/><path fill="url(#getBuilding_2_2_linear)" d="M63.5487 344.672C66.6004 346.434 71.5481 346.434 74.5997 344.672C77.6514 342.91 77.6514 340.054 74.5997 338.292C71.5481 336.531 66.6004 336.531 63.5487 338.292C60.497 340.054 60.497 342.91 63.5487 344.672Z"/><defs><linearGradient id="getBuilding_2_0_linear" x1="393.137" x2="222.384" y1="554.929" y2="683.711" gradientUnits="userSpaceOnUse"><stop stop-color="#EE786C" stop-opacity="0"/><stop offset=".542" stop-color="#EE786C"/><stop offset="1" stop-color="#EE786C" stop-opacity="0"/></linearGradient><linearGradient id="getBuilding_2_1_linear" x1="225" x2="225" y1="0" y2="149" gradientUnits="userSpaceOnUse"><stop stop-color="#fff"/><stop offset="1" stop-color="#fff" stop-opacity="0"/></linearGradient><linearGradient id="getBuilding_2_2_linear" x1="71.49" x2="61.089" y1="336.837" y2="343.837" gradientUnits="userSpaceOnUse"><stop stop-color="#F48D89"/><stop offset="1" stop-color="#EE786C"/></linearGradient></defs></svg>