<svg xmlns="http://www.w3.org/2000/svg" fill="none" preserveAspectRatio="xMinYMin slice" viewBox="0 0 584 522"><rect width="97.677" height="97.677" fill="url(#getBuilding0_linear)" transform="matrix(0.866044 0.499967 -0.866044 0.499967 84.7656 70.1313)"/><rect width="97.677" height="97.677" fill="url(#getBuilding1_linear)" transform="matrix(1.19249e-08 -1 0.865988 0.500065 0.175781 216.633)"/><rect width="97.677" height="97.677" fill="url(#getBuilding2_linear)" transform="matrix(0.866007 -0.500033 -3.75718e-05 1 84.7617 167.802)"/><path stroke="url(#getBuilding3_linear)" stroke-width="1.063" d="M169.125 119.011L84.1177 166.827M84.1177 166.827L0.704102 119.011M84.1177 166.827V264.055"/><rect width="97.677" height="97.677" fill="url(#getBuilding4_linear)" transform="matrix(0.866044 0.499967 -0.866044 0.499967 498.866 243.581)"/><rect width="97.677" height="97.677" fill="url(#getBuilding5_linear)" transform="matrix(1.19249e-08 -1 0.865988 0.500065 414.276 390.083)"/><rect width="97.677" height="97.677" fill="url(#getBuilding6_linear)" transform="matrix(0.866007 -0.500033 -3.75718e-05 1 498.862 341.252)"/><path stroke="url(#getBuilding7_linear)" stroke-width="1.063" d="M583.226 292.46L498.218 340.277M498.218 340.277L414.805 292.46M498.218 340.277V437.504"/><rect width="74.096" height="74.096" fill="url(#getBuilding8_linear)" transform="matrix(0.866044 0.499967 -0.866044 0.499967 409.817 373.466)"/><rect width="74.096" height="74.096" fill="url(#getBuilding9_linear)" transform="matrix(1.19249e-08 -1 0.865988 0.500065 345.648 484.601)"/><rect width="74.096" height="74.096" fill="url(#getBuilding10_linear)" transform="matrix(0.866007 -0.500033 -3.75718e-05 1 409.815 447.558)"/><path stroke="url(#getBuilding11_linear)" stroke-width=".806" d="M473.812 410.545L409.326 446.819M409.326 446.819L346.05 410.545M409.326 446.819V520.574"/><rect width="97.677" height="97.677" fill="url(#getBuilding12_linear)" transform="matrix(0.866044 0.499967 -0.866044 0.499967 218.652 107.322)"/><rect width="97.677" height="97.677" fill="url(#getBuilding13_linear)" transform="matrix(1.19249e-08 -1 0.865988 0.500065 134.062 253.824)"/><rect width="97.677" height="97.677" fill="url(#getBuilding14_linear)" transform="matrix(0.866007 -0.500033 -3.75718e-05 1 218.648 204.993)"/><path stroke="url(#getBuilding15_linear)" stroke-width="1.063" d="M303.012 156.201L218.004 204.018M218.004 204.018L134.591 156.201M218.004 204.018V301.245"/><rect width="97.677" height="97.677" fill="url(#getBuilding16_linear)" transform="matrix(0.866044 0.499967 -0.866044 0.499967 307.91 160.452)"/><rect width="97.677" height="97.677" fill="url(#getBuilding17_linear)" transform="matrix(1.19249e-08 -1 0.865988 0.500065 223.32 306.954)"/><rect width="97.677" height="97.677" fill="url(#getBuilding18_linear)" transform="matrix(0.866007 -0.500033 -3.75718e-05 1 307.906 258.123)"/><path stroke="url(#getBuilding19_linear)" stroke-width="1.063" d="M392.27 209.331L307.262 257.148M307.262 257.148L223.849 209.331M307.262 257.148V354.375"/><rect width="97.677" height="97.677" fill="url(#getBuilding20_linear)" transform="matrix(0.866044 0.499967 -0.866044 0.499967 218.652 0)"/><rect width="97.677" height="97.677" fill="url(#getBuilding21_linear)" transform="matrix(1.19249e-08 -1 0.865988 0.500065 134.062 146.502)"/><rect width="97.677" height="97.677" fill="url(#getBuilding22_linear)" transform="matrix(0.866007 -0.500033 -3.75718e-05 1 218.648 97.6709)"/><path stroke="url(#getBuilding23_linear)" stroke-width="1.063" d="M303.012 48.8794L218.004 96.6961M218.004 96.6961L134.591 48.8794M218.004 96.6961V193.923"/><path stroke="#ED6C68" stroke-width="1.198" d="M222.527 102.538L307.018 53.4014L391.509 102.538M222.527 102.538L307.018 151.075M222.527 102.538V199.612L307.018 249.348M307.018 151.075L391.509 102.538M307.018 151.075V249.348M391.509 102.538V199.612L307.018 249.348"/><circle cx="223.126" cy="103.137" r="2.996" fill="#ED6C68"/><circle cx="223.126" cy="200.211" r="2.996" fill="#ED6C68"/><circle cx="307.018" cy="151.075" r="2.996" fill="#ED6C68"/><circle cx="307.018" cy="248.149" r="2.996" fill="#ED6C68"/><circle cx="307.018" cy="54.001" r="2.996" fill="#ED6C68"/><circle cx="392.107" cy="103.137" r="2.996" fill="#ED6C68"/><circle cx="392.107" cy="200.211" r="2.996" fill="#ED6C68"/><rect width="67.962" height="67.962" fill="url(#getBuilding24_linear)" transform="matrix(0.866044 0.499967 -0.866044 0.499967 84.7793 306.216)"/><rect width="67.962" height="67.962" fill="url(#getBuilding25_linear)" transform="matrix(1.19249e-08 -1 0.865988 0.500065 25.9238 408.149)"/><rect width="67.962" height="67.962" fill="url(#getBuilding26_linear)" transform="matrix(0.866007 -0.500033 -3.75718e-05 1 84.7773 374.174)"/><path stroke="url(#getBuilding27_linear)" stroke-width="1.063" d="M143.475 340.226L84.3286 373.496M84.3286 373.496L26.291 340.226M84.3286 373.496V441.144"/><defs><linearGradient id="getBuilding0_linear" x1="48.838" x2="48.838" y1="0" y2="102.041" gradientUnits="userSpaceOnUse"><stop stop-color="#FBFBFB"/><stop offset="1" stop-color="#F5F5F5"/></linearGradient><linearGradient id="getBuilding1_linear" x1="48.838" x2="48.838" y1="0" y2="102.041" gradientUnits="userSpaceOnUse"><stop stop-color="#FBFBFB"/><stop offset="1" stop-color="#F5F5F5"/></linearGradient><linearGradient id="getBuilding2_linear" x1="29.318" x2="174.754" y1="6.247" y2="27.819" gradientUnits="userSpaceOnUse"><stop stop-color="#FBFBFB"/><stop offset="1" stop-color="#CFCFCF"/></linearGradient><linearGradient id="getBuilding3_linear" x1="87.305" x2="84.915" y1="133.356" y2="264.055" gradientUnits="userSpaceOnUse"><stop stop-color="#fff"/><stop offset="1" stop-color="#fff" stop-opacity="0"/></linearGradient><linearGradient id="getBuilding4_linear" x1="48.838" x2="48.838" y1="0" y2="102.041" gradientUnits="userSpaceOnUse"><stop stop-color="#FBFBFB"/><stop offset="1" stop-color="#F5F5F5"/></linearGradient><linearGradient id="getBuilding5_linear" x1="48.838" x2="48.838" y1="0" y2="102.041" gradientUnits="userSpaceOnUse"><stop stop-color="#FBFBFB"/><stop offset="1" stop-color="#F5F5F5"/></linearGradient><linearGradient id="getBuilding6_linear" x1="29.318" x2="233.462" y1="6.247" y2="157.928" gradientUnits="userSpaceOnUse"><stop stop-color="#FBFBFB"/><stop offset="1" stop-color="#CFCFCF"/></linearGradient><linearGradient id="getBuilding7_linear" x1="501.406" x2="499.015" y1="306.805" y2="437.504" gradientUnits="userSpaceOnUse"><stop stop-color="#fff"/><stop offset="1" stop-color="#fff" stop-opacity="0"/></linearGradient><linearGradient id="getBuilding8_linear" x1="37.048" x2="37.048" y1="0" y2="77.407" gradientUnits="userSpaceOnUse"><stop stop-color="#FBFBFB"/><stop offset="1" stop-color="#F5F5F5"/></linearGradient><linearGradient id="getBuilding9_linear" x1="37.048" x2="37.048" y1="0" y2="77.407" gradientUnits="userSpaceOnUse"><stop stop-color="#FBFBFB"/><stop offset="1" stop-color="#F5F5F5"/></linearGradient><linearGradient id="getBuilding10_linear" x1="22.24" x2="202.391" y1="4.739" y2="89.478" gradientUnits="userSpaceOnUse"><stop stop-color="#FBFBFB"/><stop offset="1" stop-color="#CFCFCF"/></linearGradient><linearGradient id="getBuilding11_linear" x1="411.745" x2="409.931" y1="421.427" y2="520.574" gradientUnits="userSpaceOnUse"><stop stop-color="#fff"/><stop offset="1" stop-color="#fff" stop-opacity="0"/></linearGradient><linearGradient id="getBuilding12_linear" x1="48.838" x2="48.838" y1="0" y2="102.041" gradientUnits="userSpaceOnUse"><stop stop-color="#FBFBFB"/><stop offset="1" stop-color="#F5F5F5"/></linearGradient><linearGradient id="getBuilding13_linear" x1="48.838" x2="48.838" y1="0" y2="102.041" gradientUnits="userSpaceOnUse"><stop stop-color="#FBFBFB"/><stop offset="1" stop-color="#F5F5F5"/></linearGradient><linearGradient id="getBuilding14_linear" x1="29.318" x2="155.763" y1="6.247" y2="90.558" gradientUnits="userSpaceOnUse"><stop stop-color="#FBFBFB"/><stop offset="1" stop-color="#CFCFCF"/></linearGradient><linearGradient id="getBuilding15_linear" x1="221.192" x2="218.801" y1="170.546" y2="301.245" gradientUnits="userSpaceOnUse"><stop stop-color="#fff"/><stop offset="1" stop-color="#fff" stop-opacity="0"/></linearGradient><linearGradient id="getBuilding16_linear" x1="48.838" x2="48.838" y1="0" y2="102.041" gradientUnits="userSpaceOnUse"><stop stop-color="#FBFBFB"/><stop offset="1" stop-color="#F5F5F5"/></linearGradient><linearGradient id="getBuilding17_linear" x1="48.838" x2="48.838" y1="0" y2="102.041" gradientUnits="userSpaceOnUse"><stop stop-color="#FBFBFB"/><stop offset="1" stop-color="#F5F5F5"/></linearGradient><linearGradient id="getBuilding18_linear" x1="29.318" x2="307.918" y1="6.247" y2="190.399" gradientUnits="userSpaceOnUse"><stop stop-color="#FBFBFB"/><stop offset="1" stop-color="#CFCFCF"/></linearGradient><linearGradient id="getBuilding19_linear" x1="310.45" x2="308.059" y1="223.676" y2="354.375" gradientUnits="userSpaceOnUse"><stop stop-color="#fff"/><stop offset="1" stop-color="#fff" stop-opacity="0"/></linearGradient><linearGradient id="getBuilding20_linear" x1="48.838" x2="48.838" y1="0" y2="102.041" gradientUnits="userSpaceOnUse"><stop stop-color="#FBFBFB"/><stop offset="1" stop-color="#F5F5F5"/></linearGradient><linearGradient id="getBuilding21_linear" x1="48.838" x2="48.838" y1="0" y2="102.041" gradientUnits="userSpaceOnUse"><stop stop-color="#FBFBFB"/><stop offset="1" stop-color="#F5F5F5"/></linearGradient><linearGradient id="getBuilding22_linear" x1="29.318" x2="206.6" y1="6.247" y2="88.735" gradientUnits="userSpaceOnUse"><stop stop-color="#FBFBFB"/><stop offset="1" stop-color="#CFCFCF"/></linearGradient><linearGradient id="getBuilding23_linear" x1="221.192" x2="218.801" y1="63.224" y2="193.923" gradientUnits="userSpaceOnUse"><stop stop-color="#fff"/><stop offset="1" stop-color="#fff" stop-opacity="0"/></linearGradient><linearGradient id="getBuilding24_linear" x1="33.981" x2="33.981" y1="0" y2="70.998" gradientUnits="userSpaceOnUse"><stop stop-color="#FBFBFB"/><stop offset="1" stop-color="#F5F5F5"/></linearGradient><linearGradient id="getBuilding25_linear" x1="33.981" x2="33.981" y1="0" y2="70.998" gradientUnits="userSpaceOnUse"><stop stop-color="#FBFBFB"/><stop offset="1" stop-color="#F5F5F5"/></linearGradient><linearGradient id="getBuilding26_linear" x1="20.399" x2="162.438" y1="4.347" y2="109.883" gradientUnits="userSpaceOnUse"><stop stop-color="#FBFBFB"/><stop offset="1" stop-color="#CFCFCF"/></linearGradient><linearGradient id="getBuilding27_linear" x1="86.547" x2="84.883" y1="350.207" y2="441.144" gradientUnits="userSpaceOnUse"><stop stop-color="#fff"/><stop offset="1" stop-color="#fff" stop-opacity="0"/></linearGradient></defs></svg>