<svg viewBox="0 0 1440 800" fill="none" xmlns="http://www.w3.org/2000/svg">
<path d="M1185.67 216.91L1847.91 601.827L1847.91 1740.6L1219.41 1740.6L95.5672 1753.6L95.567 838.5L1185.67 216.91Z" fill="#FBFBFB"/>
<path d="M1848.49 -243.684L2521.45 135.316L1848.49 523.816L1183.21 146.32C1179.81 144.391 1179.79 141.229 1183.17 139.286L1848.49 -243.684Z" fill="#FBFBFB"/>
<path d="M1177.02 215.316V157.816L1883.02 554.316V620.316L1177.02 215.316Z" fill="#F1F1F1"/>
<path d="M1177.02 208.316L1861.16 597.316L1834.66 612.816L1163.03 232.316L1173.32 226.069C1175.7 224.622 1177.03 222.703 1177.03 220.707L1177.02 208.316Z" fill="url(#paint0_linear)"/>
<path d="M1189.53 135.816L1863.67 524.763L1837.17 540.263L1177.03 158.316L1177.03 147.987C1177.03 144.785 1179.25 141.716 1183.18 139.46L1189.53 135.816Z" fill="url(#paint1_linear)"/>
<g filter="url(#filter0_b)">
<rect width="144.451" height="144.451" transform="matrix(0.866025 -0.5 0.866025 0.5 1042.81 553.298)" fill="url(#paint2_linear)" fill-opacity="0.6"/>
</g>
<g filter="url(#filter1_b)">
<path d="M1042.81 637.371L1042.81 553.298L1168.16 625.142L1168.16 709.596L1042.81 637.371Z" fill="url(#paint3_linear)" fill-opacity="0.6"/>
</g>
<g filter="url(#filter2_b)">
<path d="M1293.19 637.371L1293.19 553.298L1168.09 625.142L1168.09 709.596L1293.19 637.371Z" fill="url(#paint4_linear)" fill-opacity="0.6"/>
</g>
<path d="M1043.37 552.151L1168.33 624.377M1168.33 624.377L1293.29 552.151M1168.33 624.377V707.685" stroke="url(#paint5_linear)" stroke-width="1.84186"/>
<g filter="url(#filter3_b)">
<rect width="187.495" height="187.495" transform="matrix(0.866025 -0.5 0.866025 0.5 1144.51 724.007)" fill="url(#paint6_linear)" fill-opacity="0.6"/>
</g>
<g filter="url(#filter4_b)">
<path d="M1144.5 833.131L1144.5 724.007L1307.21 817.258L1307.21 926.878L1144.5 833.131Z" fill="url(#paint7_linear)" fill-opacity="0.6"/>
</g>
<g filter="url(#filter5_b)">
<path d="M1469.5 833.131L1469.5 724.007L1307.12 817.258L1307.12 926.878L1469.5 833.131Z" fill="url(#paint8_linear)" fill-opacity="0.6"/>
</g>
<path d="M1145.23 722.518L1307.43 816.265M1307.43 816.265L1469.63 722.518M1307.43 816.265V924.397" stroke="url(#paint9_linear)" stroke-width="2.3907"/>
<g filter="url(#filter6_b)">
<rect width="91.1938" height="91.1938" transform="matrix(0.866025 -0.5 0.866025 0.5 1207.97 440.856)" fill="url(#paint10_linear)" fill-opacity="0.6"/>
</g>
<g filter="url(#filter7_b)">
<path d="M1207.97 493.932L1207.97 440.856L1287.1 486.212L1287.1 539.529L1207.97 493.932Z" fill="url(#paint11_linear)" fill-opacity="0.6"/>
</g>
<g filter="url(#filter8_b)">
<path d="M1366.03 493.932L1366.03 440.856L1287.06 486.212L1287.06 539.529L1366.03 493.932Z" fill="url(#paint12_linear)" fill-opacity="0.6"/>
</g>
<path d="M1208.32 440.132L1287.21 485.729M1287.21 485.729L1366.1 440.132M1287.21 485.729V538.322" stroke="url(#paint13_linear)" stroke-width="1.16279"/>
<g filter="url(#filter9_b)">
<rect width="70.0369" height="70.0369" transform="matrix(0.866025 -0.5 0.866025 0.5 1147.3 348.018)" fill="url(#paint14_linear)" fill-opacity="0.6"/>
</g>
<g filter="url(#filter10_b)">
<path d="M1147.3 388.781L1147.3 348.018L1208.08 382.852L1208.08 423.799L1147.3 388.781Z" fill="url(#paint15_linear)" fill-opacity="0.6"/>
</g>
<g filter="url(#filter11_b)">
<path d="M1268.7 388.781L1268.7 348.018L1208.04 382.852L1208.05 423.799L1268.7 388.781Z" fill="url(#paint16_linear)" fill-opacity="0.6"/>
</g>
<path d="M1147.57 347.462L1208.16 382.481M1208.16 382.481L1268.75 347.462M1208.16 382.481V422.872" stroke="url(#paint17_linear)" stroke-width="0.893023"/>
<defs>
<filter id="filter0_b" x="1031.76" y="470.022" width="272.299" height="166.553" filterUnits="userSpaceOnUse" color-interpolation-filters="sRGB">
<feFlood flood-opacity="0" result="BackgroundImageFix"/>
<feGaussianBlur in="BackgroundImage" stdDeviation="5.52558"/>
<feComposite in2="SourceAlpha" operator="in" result="effect1_backgroundBlur"/>
<feBlend mode="normal" in="SourceGraphic" in2="effect1_backgroundBlur" result="shape"/>
</filter>
<filter id="filter1_b" x="1031.76" y="542.247" width="147.455" height="178.4" filterUnits="userSpaceOnUse" color-interpolation-filters="sRGB">
<feFlood flood-opacity="0" result="BackgroundImageFix"/>
<feGaussianBlur in="BackgroundImage" stdDeviation="5.52558"/>
<feComposite in2="SourceAlpha" operator="in" result="effect1_backgroundBlur"/>
<feBlend mode="normal" in="SourceGraphic" in2="effect1_backgroundBlur" result="shape"/>
</filter>
<filter id="filter2_b" x="1157.04" y="542.247" width="147.201" height="178.4" filterUnits="userSpaceOnUse" color-interpolation-filters="sRGB">
<feFlood flood-opacity="0" result="BackgroundImageFix"/>
<feGaussianBlur in="BackgroundImage" stdDeviation="5.52558"/>
<feComposite in2="SourceAlpha" operator="in" result="effect1_backgroundBlur"/>
<feBlend mode="normal" in="SourceGraphic" in2="effect1_backgroundBlur" result="shape"/>
</filter>
<filter id="filter3_b" x="1130.16" y="615.915" width="353.438" height="216.183" filterUnits="userSpaceOnUse" color-interpolation-filters="sRGB">
<feFlood flood-opacity="0" result="BackgroundImageFix"/>
<feGaussianBlur in="BackgroundImage" stdDeviation="7.17209"/>
<feComposite in2="SourceAlpha" operator="in" result="effect1_backgroundBlur"/>
<feBlend mode="normal" in="SourceGraphic" in2="effect1_backgroundBlur" result="shape"/>
</filter>
<filter id="filter4_b" x="1130.16" y="709.662" width="191.394" height="231.56" filterUnits="userSpaceOnUse" color-interpolation-filters="sRGB">
<feFlood flood-opacity="0" result="BackgroundImageFix"/>
<feGaussianBlur in="BackgroundImage" stdDeviation="7.17209"/>
<feComposite in2="SourceAlpha" operator="in" result="effect1_backgroundBlur"/>
<feBlend mode="normal" in="SourceGraphic" in2="effect1_backgroundBlur" result="shape"/>
</filter>
<filter id="filter5_b" x="1292.78" y="709.662" width="191.064" height="231.56" filterUnits="userSpaceOnUse" color-interpolation-filters="sRGB">
<feFlood flood-opacity="0" result="BackgroundImageFix"/>
<feGaussianBlur in="BackgroundImage" stdDeviation="7.17209"/>
<feComposite in2="SourceAlpha" operator="in" result="effect1_backgroundBlur"/>
<feBlend mode="normal" in="SourceGraphic" in2="effect1_backgroundBlur" result="shape"/>
</filter>
<filter id="filter6_b" x="1200.99" y="388.283" width="171.906" height="105.147" filterUnits="userSpaceOnUse" color-interpolation-filters="sRGB">
<feFlood flood-opacity="0" result="BackgroundImageFix"/>
<feGaussianBlur in="BackgroundImage" stdDeviation="3.48837"/>
<feComposite in2="SourceAlpha" operator="in" result="effect1_backgroundBlur"/>
<feBlend mode="normal" in="SourceGraphic" in2="effect1_backgroundBlur" result="shape"/>
</filter>
<filter id="filter7_b" x="1200.99" y="433.879" width="93.0903" height="112.627" filterUnits="userSpaceOnUse" color-interpolation-filters="sRGB">
<feFlood flood-opacity="0" result="BackgroundImageFix"/>
<feGaussianBlur in="BackgroundImage" stdDeviation="3.48837"/>
<feComposite in2="SourceAlpha" operator="in" result="effect1_backgroundBlur"/>
<feBlend mode="normal" in="SourceGraphic" in2="effect1_backgroundBlur" result="shape"/>
</filter>
<filter id="filter8_b" x="1280.08" y="433.879" width="92.9297" height="112.626" filterUnits="userSpaceOnUse" color-interpolation-filters="sRGB">
<feFlood flood-opacity="0" result="BackgroundImageFix"/>
<feGaussianBlur in="BackgroundImage" stdDeviation="3.48837"/>
<feComposite in2="SourceAlpha" operator="in" result="effect1_backgroundBlur"/>
<feBlend mode="normal" in="SourceGraphic" in2="effect1_backgroundBlur" result="shape"/>
</filter>
<filter id="filter9_b" x="1141.94" y="307.642" width="132.024" height="80.7532" filterUnits="userSpaceOnUse" color-interpolation-filters="sRGB">
<feFlood flood-opacity="0" result="BackgroundImageFix"/>
<feGaussianBlur in="BackgroundImage" stdDeviation="2.67907"/>
<feComposite in2="SourceAlpha" operator="in" result="effect1_backgroundBlur"/>
<feBlend mode="normal" in="SourceGraphic" in2="effect1_backgroundBlur" result="shape"/>
</filter>
<filter id="filter10_b" x="1141.94" y="342.66" width="71.4934" height="86.4972" filterUnits="userSpaceOnUse" color-interpolation-filters="sRGB">
<feFlood flood-opacity="0" result="BackgroundImageFix"/>
<feGaussianBlur in="BackgroundImage" stdDeviation="2.67907"/>
<feComposite in2="SourceAlpha" operator="in" result="effect1_backgroundBlur"/>
<feBlend mode="normal" in="SourceGraphic" in2="effect1_backgroundBlur" result="shape"/>
</filter>
<filter id="filter11_b" x="1202.69" y="342.66" width="71.37" height="86.4971" filterUnits="userSpaceOnUse" color-interpolation-filters="sRGB">
<feFlood flood-opacity="0" result="BackgroundImageFix"/>
<feGaussianBlur in="BackgroundImage" stdDeviation="2.67907"/>
<feComposite in2="SourceAlpha" operator="in" result="effect1_backgroundBlur"/>
<feBlend mode="normal" in="SourceGraphic" in2="effect1_backgroundBlur" result="shape"/>
</filter>
<linearGradient id="paint0_linear" x1="1524.77" y1="403.116" x2="1511.43" y2="426.216" gradientUnits="userSpaceOnUse">
<stop stop-color="#F1F1F1"/>
<stop offset="1" stop-color="#FBFBFB"/>
</linearGradient>
<linearGradient id="paint1_linear" x1="1527.28" y1="330.564" x2="1513.94" y2="353.664" gradientUnits="userSpaceOnUse">
<stop stop-color="#FBFBFB"/>
<stop offset="1" stop-color="#F1F1F1"/>
</linearGradient>
<linearGradient id="paint2_linear" x1="8.14248" y1="-32.6284" x2="179.651" y2="114.328" gradientUnits="userSpaceOnUse">
<stop stop-color="white"/>
<stop offset="1" stop-color="#C1C2C6" stop-opacity="0.56"/>
</linearGradient>
<linearGradient id="paint3_linear" x1="929.398" y1="567.124" x2="1056.19" y2="453.235" gradientUnits="userSpaceOnUse">
<stop stop-color="white"/>
<stop offset="1" stop-color="#C1C2C6" stop-opacity="0.56"/>
</linearGradient>
<linearGradient id="paint4_linear" x1="1406.58" y1="567.145" x2="1280.06" y2="453.414" gradientUnits="userSpaceOnUse">
<stop stop-color="white"/>
<stop offset="1" stop-color="#C1C2C6" stop-opacity="0.56"/>
</linearGradient>
<linearGradient id="paint5_linear" x1="1061.71" y1="567.437" x2="1176.74" y2="673.291" gradientUnits="userSpaceOnUse">
<stop stop-color="#56A7B1" stop-opacity="0"/>
<stop offset="0.496464" stop-color="white" stop-opacity="0.63"/>
<stop offset="1" stop-color="#56A7B1" stop-opacity="0"/>
</linearGradient>
<linearGradient id="paint6_linear" x1="10.5688" y1="-42.351" x2="233.183" y2="148.396" gradientUnits="userSpaceOnUse">
<stop stop-color="white"/>
<stop offset="1" stop-color="#C1C2C6" stop-opacity="0.56"/>
</linearGradient>
<linearGradient id="paint7_linear" x1="997.3" y1="741.952" x2="1161.88" y2="594.126" gradientUnits="userSpaceOnUse">
<stop stop-color="white"/>
<stop offset="1" stop-color="#C1C2C6" stop-opacity="0.56"/>
</linearGradient>
<linearGradient id="paint8_linear" x1="1616.67" y1="741.979" x2="1452.45" y2="594.359" gradientUnits="userSpaceOnUse">
<stop stop-color="white"/>
<stop offset="1" stop-color="#C1C2C6" stop-opacity="0.56"/>
</linearGradient>
<linearGradient id="paint9_linear" x1="1169.04" y1="742.358" x2="1318.34" y2="879.755" gradientUnits="userSpaceOnUse">
<stop stop-color="#56A7B1" stop-opacity="0"/>
<stop offset="0.496464" stop-color="white" stop-opacity="0.63"/>
<stop offset="1" stop-color="#56A7B1" stop-opacity="0"/>
</linearGradient>
<linearGradient id="paint10_linear" x1="5.14045" y1="-20.5987" x2="113.416" y2="72.1769" gradientUnits="userSpaceOnUse">
<stop stop-color="white"/>
<stop offset="1" stop-color="#C1C2C6" stop-opacity="0.56"/>
</linearGradient>
<linearGradient id="paint11_linear" x1="1136.37" y1="449.585" x2="1216.41" y2="377.685" gradientUnits="userSpaceOnUse">
<stop stop-color="white"/>
<stop offset="1" stop-color="#C1C2C6" stop-opacity="0.56"/>
</linearGradient>
<linearGradient id="paint12_linear" x1="1437.62" y1="449.598" x2="1357.75" y2="377.798" gradientUnits="userSpaceOnUse">
<stop stop-color="white"/>
<stop offset="1" stop-color="#C1C2C6" stop-opacity="0.56"/>
</linearGradient>
<linearGradient id="paint13_linear" x1="1219.9" y1="449.782" x2="1292.52" y2="516.609" gradientUnits="userSpaceOnUse">
<stop stop-color="#56A7B1" stop-opacity="0"/>
<stop offset="0.496464" stop-color="white" stop-opacity="0.63"/>
<stop offset="1" stop-color="#56A7B1" stop-opacity="0"/>
</linearGradient>
<linearGradient id="paint14_linear" x1="3.94787" y1="-15.8198" x2="87.1035" y2="55.4319" gradientUnits="userSpaceOnUse">
<stop stop-color="white"/>
<stop offset="1" stop-color="#C1C2C6" stop-opacity="0.56"/>
</linearGradient>
<linearGradient id="paint15_linear" x1="1092.31" y1="354.722" x2="1153.79" y2="299.503" gradientUnits="userSpaceOnUse">
<stop stop-color="white"/>
<stop offset="1" stop-color="#C1C2C6" stop-opacity="0.56"/>
</linearGradient>
<linearGradient id="paint16_linear" x1="1323.68" y1="354.732" x2="1262.33" y2="299.59" gradientUnits="userSpaceOnUse">
<stop stop-color="white"/>
<stop offset="1" stop-color="#C1C2C6" stop-opacity="0.56"/>
</linearGradient>
<linearGradient id="paint17_linear" x1="1156.47" y1="354.874" x2="1212.24" y2="406.197" gradientUnits="userSpaceOnUse">
<stop stop-color="#56A7B1" stop-opacity="0"/>
<stop offset="0.496464" stop-color="white" stop-opacity="0.63"/>
<stop offset="1" stop-color="#56A7B1" stop-opacity="0"/>
</linearGradient>
</defs>
</svg>
