<svg xmlns="http://www.w3.org/2000/svg" fill="none" preserveAspectRatio="xMinYMin slice" viewBox="0 0 320 320"><mask id="onCoudBenefitsMobile0" width="321" height="320" x="0" y="0" mask-type="alpha" maskUnits="userSpaceOnUse"><rect width="321" height="320" fill="#C4C4C4"/></mask><g mask="url(#onCoudBenefitsMobile0)"><path fill="url(#onCoudBenefitsMobilePaint0_linear)" d="M169.797 132.324L-47.7782 256.121L-47.7778 417.118L164.749 417.118L629.871 421.674L629.871 367.503L169.797 132.324Z"/><path fill="#364169" d="M-61.5137 -34.3608L-289.074 97.0097L-61.5137 228.38L165.201 97.3478L-61.5137 -34.3608Z"/><path fill="#293357" d="M165.91 130.294V103.119L-72.8224 237.194V267.244L165.91 130.294Z"/><path fill="url(#onCoudBenefitsMobilePaint1_linear)" d="M161.483 95.6574L-66.6463 227.348L-57.6851 232.59L165.538 103.079L165.538 97.6684L161.483 95.6574Z"/><path fill="url(#onCoudBenefitsMobilePaint2_linear)" d="M161.588 128.101L-65.9724 259.472L-57.0112 264.713L170.549 133.342L161.588 128.101Z"/><path stroke="#EE786C" stroke-dasharray="5 5" d="M-15.1659 46.0854L118.908 123.183C122.484 125.239 124.609 129.122 124.413 133.242L123.408 154.331C123.258 157.497 124.904 160.478 127.665 162.035V162.035C133.269 165.196 133.373 173.23 127.852 176.535L-41.6543 278.006"/><path stroke="url(#onCoudBenefitsMobilePaint3_linear)" d="M-32.8262 284.285L114.528 195.205"/><path fill="#DF6461" d="M116.863 196.363C115.736 197.013 113.909 197.013 112.782 196.363C112.26 196.061 111.98 195.673 111.941 195.279C111.897 194.822 111.806 194.185 112.411 193.836C113.538 193.185 116.036 193.088 117.163 193.738C118.055 194.447 117.99 195.712 116.863 196.363ZM113.545 194.447C112.839 194.854 112.839 195.515 113.545 195.922C114.25 196.33 115.395 196.33 116.101 195.922C116.807 195.515 116.807 194.854 116.101 194.447C115.395 194.039 114.25 194.039 113.545 194.447Z"/><path fill="url(#onCoudBenefitsMobilePaint4_linear)" d="M116.863 195.796C115.736 196.447 113.909 196.447 112.782 195.796C111.655 195.146 111.655 194.091 112.782 193.44C113.909 192.79 115.736 192.79 116.863 193.44C117.99 194.091 117.99 195.146 116.863 195.796Z"/><path stroke="#EE786C" d="M1.9082 21.3623L148.553 107.781C151.02 109.235 152.402 111.189 152.402 113.225L152.402 134.434C152.402 136.532 153.87 138.541 156.472 140.005L183.481 155.201C188.839 158.215 188.916 163.173 183.654 166.243L-0.536159 273.689"/><path stroke="#EE786C" d="M3.47852 15.084L153.639 103.267C156.116 104.722 157.504 106.68 157.504 108.72L157.504 129.403C157.504 131.46 158.915 133.432 161.427 134.89L196.534 155.258C201.715 158.264 201.771 163.112 196.659 166.157L134.352 203.274C129.122 206.39 129.318 211.374 134.789 214.349L309.567 309.4"/><path stroke="#EF796D" stroke-dasharray="4.15 4.15" stroke-width="1.382" d="M207.34 251.714L261.298 215.415"/><path stroke="#EF796D" stroke-dasharray="4.15 4.15" stroke-width="1.382" d="M52.3359 121.761L83.586 103.378"/><path fill="#DF6461" d="M85.8614 104.732C84.7344 105.383 82.9071 105.383 81.7801 104.732C81.2584 104.431 80.9782 104.043 80.9395 103.649C80.8947 103.191 80.8038 102.555 81.409 102.205C82.536 101.555 85.0337 101.457 86.1607 102.108C87.0527 102.816 86.9883 104.082 85.8614 104.732ZM82.5427 102.816C81.8368 103.224 81.8368 103.884 82.5427 104.292C83.2485 104.699 84.393 104.699 85.0988 104.292C85.8047 103.884 85.8047 103.224 85.0988 102.816C84.393 102.409 83.2485 102.409 82.5427 102.816Z"/><path fill="url(#onCoudBenefitsMobilePaint5_linear)" d="M85.8609 104.166C84.7339 104.817 82.9067 104.817 81.7797 104.166C80.6527 103.515 80.6527 102.46 81.7797 101.81C82.9067 101.159 84.7339 101.159 85.8609 101.81C86.9879 102.46 86.9879 103.515 85.8609 104.166Z"/><g filter="url(#onCoudBenefitsMobileFIlter0_i)"><path fill="#242B44" d="M77.1884 137.959L63.2634 145.671C62.6402 146.016 61.6994 146.056 61.1607 145.754L30.6369 128.856C30.0981 128.557 30.1665 128.037 30.7877 127.699L44.7147 119.988C45.3359 119.643 46.2767 119.602 46.8155 119.905L77.3412 136.795C77.878 137.094 77.8116 137.614 77.1884 137.959Z"/></g><g filter="url(#onCoudBenefitsMobileFIlter1_f)" opacity=".92"><path fill="#000" fill-opacity=".13" d="M89.0288 135.663L73.347 144.421C72.6453 144.813 71.5858 144.859 70.9791 144.515L36.6046 125.324C35.9979 124.985 36.0749 124.394 36.7744 124.01L52.4584 115.252C53.158 114.86 54.2175 114.814 54.8242 115.158L89.2009 134.341C89.8053 134.68 89.7306 135.271 89.0288 135.663Z"/></g><path fill="url(#onCoudBenefitsMobilePaint6_linear)" d="M85.3483 124.442L81.7611 123.816L46.7234 103.588C46.0497 103.2 44.8732 103.248 44.0964 103.698L27.8647 113.072L26.0371 112.753V114.611C26.0445 114.752 26.0907 114.888 26.1705 115.005C26.2503 115.121 26.3607 115.214 26.4896 115.272L64.662 137.311C65.3357 137.7 66.5122 137.65 67.2915 137.202L84.7047 127.147C85.1371 126.896 85.3558 126.577 85.3483 126.275V124.442Z"/><path fill="#E8E8F2" d="M84.7042 125.299L67.291 135.355C66.5117 135.804 65.3352 135.857 64.6615 135.465L26.4916 113.429C25.8179 113.039 25.9034 112.361 26.6802 111.921L44.0959 101.865C44.8727 101.415 46.0492 101.363 46.7229 101.757L84.8953 123.781C85.5665 124.171 85.4835 124.849 84.7042 125.299Z"/><path fill="url(#onCoudBenefitsMobilePaint7_linear)" d="M83.4807 122.965C84.0374 123.286 84.0374 124.09 83.4808 124.411L64.9194 135.131C64.661 135.28 64.3427 135.28 64.0843 135.131L27.9086 114.245C27.352 113.924 27.3519 113.12 27.9085 112.799L46.4699 102.079C46.7283 101.93 47.0467 101.93 47.3051 102.079L83.4807 122.965Z"/><g filter="url(#onCoudBenefitsMobileFIlter2_i)"><path fill="#F1F1F4" d="M38.0015 106.413L35.3143 107.964C35.2545 107.998 35.1874 108.017 35.1187 108.019C35.0501 108.022 34.9818 108.008 34.9196 107.979L34.8919 107.964C34.7914 107.906 34.8039 107.803 34.9221 107.738L37.6094 106.184C37.6692 106.152 37.7357 106.133 37.8037 106.131C37.8717 106.128 37.9394 106.141 38.0015 106.169L38.0292 106.184C38.1423 106.242 38.1172 106.345 38.0015 106.413Z"/></g><g filter="url(#onCoudBenefitsMobileFIlter3_i)"><path fill="#F1F1F4" d="M31.5827 113.713L31.2433 113.909L30.4414 113.444L30.7808 113.248L31.5827 113.713Z"/></g><g filter="url(#onCoudBenefitsMobileFIlter4_i)"><path fill="#F1F1F4" d="M32.2102 113.351L31.8708 113.547L31.0664 113.085L31.4058 112.889L32.2102 113.351Z"/></g><g filter="url(#onCoudBenefitsMobileFIlter5_i)"><path fill="#F1F1F4" d="M32.8327 112.991L32.4933 113.188L31.6914 112.722L32.0308 112.526L32.8327 112.991Z"/></g><g filter="url(#onCoudBenefitsMobileFIlter6_i)"><path fill="#F1F1F4" d="M33.4582 112.63L33.1189 112.826L32.3145 112.363L32.6538 112.167L33.4582 112.63Z"/></g><path fill="url(#onCoudBenefitsMobilePaint8_linear)" d="M51.6157 119.877C55.3503 119.877 58.3779 118.129 58.3779 115.973C58.3779 113.817 55.3503 112.069 51.6157 112.069C47.881 112.069 44.8535 113.817 44.8535 115.973C44.8535 118.129 47.881 119.877 51.6157 119.877Z"/><g filter="url(#onCoudBenefitsMobileFIlter7_i)"><path fill="#F1F1F4" d="M51.6172 122.084C48.9274 122.084 46.2401 121.493 44.1939 120.312C42.1828 119.158 41.0918 117.617 41.0918 115.973C41.0918 114.329 42.1929 112.79 44.1939 111.637C48.2864 109.274 54.9455 109.274 59.0254 111.637C61.0365 112.79 62.1275 114.331 62.1275 115.973C62.1275 117.614 61.0264 119.158 59.0279 120.312C56.9943 121.493 54.3045 122.084 51.6172 122.084ZM51.6172 110.04C48.9601 110.04 46.3055 110.626 44.2844 111.8C42.3412 112.921 41.2678 114.407 41.2678 115.98C41.2678 117.554 42.3361 119.042 44.2844 120.163C48.3266 122.496 54.9053 122.496 58.95 120.163C60.8907 119.042 61.9666 117.557 61.9666 115.98C61.9666 114.404 60.8982 112.921 58.95 111.8C56.9264 110.626 54.2718 110.035 51.6172 110.035V110.04Z"/></g><g filter="url(#onCoudBenefitsMobileFIlter8_i)"><path fill="#F1F1F4" d="M65.822 129.14C65.7901 129.136 65.7609 129.12 65.7398 129.096C65.7187 129.072 65.707 129.041 65.707 129.008C65.707 128.976 65.7187 128.945 65.7398 128.921C65.7609 128.897 65.7901 128.881 65.822 128.876C67.7965 128.724 69.7139 128.142 71.4404 127.172C73.2001 126.151 74.2684 125.136 74.5877 124.155C74.6014 124.126 74.6256 124.102 74.6556 124.089C74.6856 124.076 74.7193 124.075 74.7504 124.085C74.7814 124.095 74.8076 124.116 74.824 124.145C74.8403 124.173 74.8457 124.206 74.8391 124.238C74.4997 125.287 73.3987 126.352 71.5711 127.408C69.807 128.397 67.8484 128.988 65.832 129.14H65.822Z"/></g><g filter="url(#onCoudBenefitsMobileFIlter9_i)"><path fill="#F1F1F4" d="M74.8091 123.61C74.7748 123.61 74.742 123.596 74.7175 123.572C74.6931 123.548 74.679 123.516 74.6783 123.482C74.6482 122.7 74.0775 121.973 73.0293 121.357C70.7065 120.018 67.6773 120.025 64.4999 121.378C64.4665 121.391 64.4291 121.391 64.3959 121.377C64.3627 121.363 64.3363 121.337 64.3227 121.303C64.309 121.27 64.3091 121.233 64.323 121.199C64.3369 121.166 64.3635 121.14 64.3968 121.126C67.6522 119.739 70.7643 119.736 73.16 121.126C74.2937 121.782 74.9197 122.592 74.9423 123.469C74.943 123.487 74.9402 123.504 74.9341 123.52C74.928 123.537 74.9188 123.552 74.9069 123.565C74.895 123.578 74.8806 123.588 74.8647 123.595C74.8488 123.603 74.8316 123.607 74.8141 123.607L74.8091 123.61Z"/></g><g filter="url(#onCoudBenefitsMobileFIlter10_i)"><path fill="#F1F1F4" d="M63.8096 129.14H63.797C62.8087 129.072 61.8459 128.796 60.9715 128.33C60.152 127.858 59.6417 127.217 59.4959 126.48C59.4863 126.428 59.489 126.375 59.5038 126.324C59.5187 126.273 59.5452 126.227 59.5813 126.188C59.6664 126.107 59.7683 126.045 59.8799 126.006C59.9915 125.968 60.1101 125.955 60.2274 125.967C60.3525 125.96 60.477 125.989 60.5853 126.052C60.6936 126.115 60.7808 126.209 60.8357 126.322C61.0234 126.882 61.4245 127.345 61.9518 127.611C64.0157 128.8 67.985 128.446 70.8081 126.817C72.6256 125.766 73.5883 124.695 73.5883 123.72C73.5883 123.034 73.1007 122.39 72.1806 121.857C69.8025 120.485 66.5748 120.774 63.3269 122.652C62.153 123.328 61.3159 124.16 60.9589 124.987C60.9005 125.083 60.8168 125.161 60.7171 125.212C60.6173 125.264 60.5053 125.287 60.3933 125.278C60.2806 125.289 60.1671 125.271 60.0628 125.227C59.9585 125.184 59.8665 125.115 59.795 125.027C59.7663 124.983 59.7495 124.931 59.7465 124.879C59.7434 124.826 59.754 124.773 59.7774 124.725C60.2575 123.758 61.2228 122.833 62.5703 122.053C62.6009 122.036 62.6372 122.032 62.6711 122.041C62.705 122.05 62.7338 122.073 62.7513 122.104C62.7601 122.118 62.7658 122.135 62.768 122.152C62.7703 122.169 62.769 122.187 62.7643 122.203C62.7596 122.22 62.7516 122.236 62.7407 122.249C62.7298 122.263 62.7163 122.274 62.701 122.282C61.3988 123.036 60.4712 123.921 60.0137 124.844C60.0096 124.849 60.0074 124.856 60.0074 124.864C60.0074 124.871 60.0096 124.878 60.0137 124.884C60.0619 124.93 60.1198 124.966 60.1833 124.987C60.2468 125.008 60.3142 125.015 60.3807 125.007C60.4423 125.013 60.5044 125.004 60.5618 124.981C60.6191 124.958 60.67 124.921 60.71 124.874C61.0871 123.994 61.9669 123.114 63.1887 122.415C66.522 120.49 69.8453 120.201 72.3063 121.621C73.3118 122.204 73.8473 122.926 73.8473 123.712C73.8473 124.803 72.8669 125.922 70.9337 127.038C68.0429 128.71 63.9503 129.064 61.8161 127.833C61.2295 127.532 60.7844 127.013 60.5768 126.387C60.5567 126.317 60.4109 126.236 60.2098 126.224C60.1322 126.214 60.0535 126.221 59.9787 126.244C59.9039 126.266 59.8345 126.304 59.7749 126.354C59.7658 126.363 59.7589 126.374 59.7545 126.385C59.7502 126.397 59.7485 126.41 59.7497 126.422C59.8805 127.081 60.348 127.659 61.0997 128.094C61.9408 128.541 62.8669 128.805 63.8171 128.868C63.849 128.873 63.8782 128.888 63.8993 128.913C63.9204 128.937 63.9321 128.968 63.9321 129C63.9321 129.032 63.9204 129.063 63.8993 129.088C63.8782 129.112 63.849 129.128 63.8171 129.132L63.8096 129.14Z"/></g><g filter="url(#onCoudBenefitsMobileFIlter11_i)"><path fill="#F1F1F4" d="M67.1374 127.775C67.0408 127.779 66.9443 127.764 66.8536 127.73C66.7629 127.697 66.6799 127.645 66.6095 127.579C66.5696 127.539 66.5415 127.489 66.5282 127.434C66.5149 127.379 66.5169 127.321 66.5341 127.267C66.5699 127.186 66.6263 127.116 66.6978 127.064C66.7693 127.012 66.8533 126.98 66.9413 126.971C67.8244 126.796 68.6733 126.479 69.4551 126.033C70.6769 125.329 71.3682 124.625 71.4662 123.997C71.4851 123.837 71.4657 123.674 71.4098 123.523C71.3539 123.372 71.2629 123.236 71.1444 123.127C71.1028 123.088 71.0719 123.039 71.0547 122.984C71.0376 122.929 71.0347 122.871 71.0464 122.815C71.0728 122.737 71.118 122.667 71.1781 122.61C71.2381 122.554 71.3112 122.513 71.3908 122.491C71.5427 122.434 71.707 122.418 71.8669 122.446C72.0268 122.473 72.1765 122.543 72.3008 122.647C72.4694 122.808 72.6007 123.004 72.6854 123.221C72.7701 123.438 72.8062 123.671 72.791 123.904C72.7407 124.555 72.2681 125.231 71.3883 125.915C71.3746 125.925 71.3589 125.933 71.3422 125.938C71.3255 125.942 71.3081 125.943 71.2909 125.941C71.2738 125.939 71.2572 125.933 71.2422 125.925C71.2272 125.916 71.2141 125.905 71.2035 125.891C71.1929 125.877 71.1852 125.862 71.1807 125.845C71.1761 125.828 71.175 125.811 71.1772 125.794C71.1794 125.776 71.185 125.76 71.1936 125.745C71.2022 125.73 71.2137 125.717 71.2274 125.706C72.0444 125.073 72.4843 124.462 72.5295 123.886C72.5389 123.692 72.5063 123.497 72.4338 123.316C72.3614 123.135 72.2508 122.972 72.1097 122.838C72.0199 122.773 71.9153 122.73 71.8053 122.715C71.6952 122.7 71.5831 122.712 71.4788 122.75C71.3631 122.79 71.3128 122.848 71.3053 122.883C71.2978 122.918 71.3053 122.916 71.333 122.954C71.4816 123.09 71.595 123.261 71.6637 123.451C71.7324 123.641 71.7543 123.844 71.7276 124.045C71.6271 124.766 70.9106 125.515 69.5984 126.272C68.7916 126.73 67.9166 127.057 67.0067 127.24C66.9651 127.243 66.9249 127.256 66.8888 127.276C66.8527 127.297 66.8217 127.326 66.798 127.36C66.798 127.36 66.798 127.383 66.8181 127.413C66.8835 127.463 66.9593 127.497 67.0399 127.513C67.1205 127.529 67.2037 127.527 67.2832 127.506C68.2823 127.295 69.243 126.931 70.1314 126.428C70.162 126.41 70.1983 126.406 70.2322 126.415C70.2661 126.425 70.2949 126.447 70.3123 126.478C70.3213 126.493 70.3271 126.509 70.3295 126.526C70.3319 126.543 70.3309 126.561 70.3264 126.577C70.322 126.594 70.3142 126.61 70.3036 126.623C70.293 126.637 70.2797 126.648 70.2646 126.656C69.3523 127.175 68.3653 127.549 67.3385 127.765C67.272 127.775 67.2046 127.779 67.1374 127.775Z"/></g><g filter="url(#onCoudBenefitsMobileFIlter12_i)"><path fill="#F1F1F4" d="M65.0366 127.979H65.0065C64.1639 127.981 63.3333 127.779 62.5857 127.391C61.8944 126.991 61.5273 126.431 61.5273 125.772C61.5273 124.766 62.4047 123.665 63.8727 122.816C66.2005 121.473 68.5283 121.041 70.4238 121.602C70.5104 121.617 70.5916 121.655 70.6591 121.711C70.7266 121.768 70.7781 121.841 70.8084 121.923C70.8243 121.978 70.8254 122.037 70.8118 122.092C70.7981 122.148 70.7701 122.199 70.7305 122.24C70.6125 122.345 70.469 122.416 70.3145 122.448C70.16 122.479 70 122.469 69.8506 122.419C68.4957 122.011 66.7863 122.3 65.0366 123.228C64.9713 123.263 64.9462 123.298 64.9462 123.321C64.9462 123.344 64.9763 123.376 65.0216 123.404C65.1066 123.444 65.1992 123.464 65.2931 123.464C65.3869 123.464 65.4796 123.444 65.5645 123.404C67.3041 122.484 68.928 122.315 70.014 122.944C70.4514 123.195 70.6827 123.527 70.6827 123.899C70.6827 124.515 70.0794 125.174 68.8929 125.86C67.2639 126.8 65.1221 127.089 64.104 126.506C63.9611 126.433 63.8369 126.328 63.741 126.2C63.6451 126.071 63.5801 125.922 63.551 125.764C63.4907 125.362 63.6792 124.915 64.094 124.462C64.1191 124.437 64.1166 124.422 64.1141 124.417C64.1116 124.412 64.0688 124.349 63.9934 124.319C63.9015 124.281 63.8014 124.267 63.7025 124.278C63.6037 124.289 63.5092 124.325 63.4278 124.382C62.9703 124.885 62.7541 125.387 62.8195 125.832C62.8563 126.02 62.9364 126.197 63.0533 126.349C63.1702 126.501 63.3208 126.623 63.4932 126.707C63.9829 126.96 64.5234 127.099 65.0744 127.114C65.4137 127.132 65.6551 127.3 65.6676 127.522C65.6695 127.571 65.6611 127.619 65.6429 127.665C65.6247 127.71 65.5972 127.751 65.562 127.786C65.4182 127.915 65.2301 127.984 65.0366 127.979ZM68.7018 121.627C67.2463 121.627 65.6274 122.109 64.006 123.044C62.6184 123.846 61.7913 124.865 61.7913 125.772C61.7913 126.33 62.1131 126.813 62.7189 127.162C63.4287 127.528 64.2157 127.717 65.014 127.715C65.1433 127.727 65.2721 127.688 65.3735 127.607C65.39 127.593 65.4008 127.573 65.4037 127.552C65.4037 127.484 65.2679 127.396 65.0593 127.386C64.4675 127.369 63.8873 127.217 63.3624 126.943C63.1563 126.839 62.9768 126.689 62.8378 126.505C62.6987 126.321 62.6039 126.107 62.5605 125.88C62.4801 125.36 62.7189 124.766 63.2342 124.211C63.3519 124.113 63.4944 124.049 63.6461 124.026C63.7978 124.003 63.9527 124.023 64.094 124.083C64.1602 124.104 64.2202 124.142 64.2688 124.192C64.3175 124.241 64.3532 124.302 64.373 124.369C64.383 124.42 64.3805 124.472 64.3656 124.521C64.3507 124.57 64.3239 124.615 64.2875 124.651C63.9356 125.033 63.7647 125.418 63.8124 125.732C63.836 125.85 63.8865 125.962 63.9602 126.058C64.0339 126.154 64.1287 126.231 64.2373 126.285C65.1749 126.828 67.2036 126.536 68.7621 125.639C69.833 125.02 70.4213 124.407 70.4213 123.907C70.4213 123.63 70.2403 123.384 69.8833 123.18C68.8778 122.6 67.3494 122.768 65.6902 123.645C65.5654 123.705 65.4286 123.735 65.2903 123.732C65.1521 123.73 65.0162 123.696 64.8934 123.633C64.833 123.604 64.7817 123.559 64.7449 123.503C64.7082 123.448 64.6873 123.383 64.6847 123.316C64.6907 123.246 64.7153 123.18 64.7561 123.123C64.7968 123.067 64.852 123.022 64.916 122.994C66.7285 122.034 68.5082 121.737 69.9286 122.165C70.0298 122.199 70.1381 122.209 70.2437 122.192C70.3494 122.174 70.4492 122.132 70.5344 122.067C70.5671 122.029 70.562 122.006 70.5595 121.996C70.5367 121.959 70.5063 121.927 70.4704 121.902C70.4345 121.878 70.3937 121.861 70.3509 121.853C69.8163 121.7 69.2628 121.624 68.7068 121.627H68.7018Z"/></g><g filter="url(#onCoudBenefitsMobileFIlter13_i)"><path fill="#F1F1F4" d="M65.6725 126.232C65.402 126.244 65.1329 126.187 64.8907 126.066C64.7932 126.016 64.7114 125.941 64.6542 125.848C64.5969 125.755 64.5666 125.647 64.5664 125.538C64.5664 125.065 65.0692 124.49 65.9289 124C67.3115 123.2 68.5181 122.981 69.2421 123.399C69.3513 123.449 69.4449 123.528 69.513 123.627C69.5812 123.726 69.6213 123.842 69.6293 123.962C69.6293 124.346 69.2798 124.779 68.5609 125.249C68.4333 125.321 68.2896 125.36 68.143 125.363C67.9963 125.366 67.8514 125.332 67.7213 125.264C67.6633 125.235 67.6139 125.192 67.5777 125.138C67.5416 125.084 67.52 125.022 67.5151 124.957C67.5157 124.896 67.5325 124.835 67.5638 124.782C67.5951 124.73 67.6399 124.686 67.6936 124.656C68.2718 124.281 68.2718 124.128 68.2718 124.128C68.1109 124.035 67.6232 124.113 66.7434 124.631C66.1325 124.982 65.8811 125.284 65.8811 125.367C65.8815 125.384 65.8783 125.402 65.8719 125.418C65.8655 125.434 65.8559 125.449 65.8438 125.461C65.8316 125.474 65.8171 125.483 65.801 125.49C65.785 125.497 65.7678 125.5 65.7504 125.5C65.733 125.501 65.7158 125.498 65.6996 125.491C65.6835 125.485 65.6688 125.475 65.6564 125.463C65.6439 125.451 65.6341 125.436 65.6274 125.42C65.6206 125.404 65.6172 125.387 65.6172 125.37C65.6172 125.005 66.3713 124.535 66.6227 124.402C67.226 124.052 68.0254 123.68 68.4 123.899C68.4422 123.921 68.4779 123.954 68.5035 123.994C68.5291 124.034 68.5437 124.08 68.5458 124.128C68.5458 124.256 68.4804 124.475 67.8495 124.882C67.8118 124.907 67.7866 124.935 67.7891 124.957C67.7916 124.98 67.8092 125.008 67.8645 125.04C67.9519 125.084 68.0483 125.107 68.1461 125.107C68.2439 125.107 68.3403 125.084 68.4276 125.04C69.2622 124.495 69.3779 124.143 69.3754 123.982C69.3666 123.908 69.3388 123.838 69.2948 123.778C69.2507 123.718 69.1919 123.67 69.124 123.64C68.8198 123.467 67.9173 123.175 66.0722 124.241C65.318 124.671 64.8429 125.186 64.8429 125.551C64.8437 125.614 64.8623 125.675 64.8965 125.728C64.9308 125.781 64.9793 125.823 65.0365 125.85C65.3557 126.033 65.9867 126.023 66.7233 125.822C66.7398 125.817 66.7571 125.816 66.7742 125.817C66.7914 125.819 66.8079 125.825 66.8229 125.833C66.838 125.842 66.8511 125.853 66.8616 125.867C66.8722 125.88 66.8798 125.896 66.8842 125.913C66.8934 125.947 66.8888 125.983 66.8714 126.013C66.8539 126.044 66.8251 126.067 66.7911 126.076C66.4269 126.178 66.0507 126.23 65.6725 126.232Z"/></g><g filter="url(#onCoudBenefitsMobileFIlter14_i)"><path fill="#F1F1F4" d="M63.4842 121.687C63.4702 121.691 63.4555 121.691 63.4415 121.687L59.9623 119.676C59.943 119.665 59.9288 119.647 59.9229 119.625C59.917 119.604 59.9199 119.581 59.9309 119.561C59.9419 119.542 59.9601 119.528 59.9816 119.522C60.003 119.516 60.0259 119.519 60.0453 119.53L63.5244 121.541C63.5407 121.55 63.5535 121.564 63.5609 121.581C63.5683 121.598 63.5698 121.617 63.5652 121.635C63.5605 121.653 63.55 121.668 63.5354 121.68C63.5207 121.691 63.5027 121.697 63.4842 121.697V121.687Z"/></g><path fill="#fff" d="M53.7701 117.421L53.2978 117.148C53.0077 117.291 52.7194 117.386 52.4328 117.433C52.1427 117.478 51.8527 117.494 51.5626 117.482L51.5997 117.007C51.8226 117.017 52.0366 117.008 52.2418 116.98C52.4434 116.949 52.6345 116.894 52.8149 116.814L51.7377 116.192C51.2672 116.37 50.8621 116.461 50.5225 116.465C50.1829 116.465 49.8822 116.389 49.6204 116.238C49.3374 116.075 49.2029 115.891 49.2171 115.687C49.2277 115.48 49.3798 115.27 49.6735 115.056L49.1959 114.78L49.7212 114.477L50.1988 114.752C50.4464 114.638 50.6923 114.559 50.9364 114.516C51.184 114.471 51.4423 114.457 51.7111 114.473L51.6528 114.942C51.4971 114.934 51.3379 114.94 51.1752 114.961C51.016 114.979 50.8515 115.021 50.6817 115.086L51.6687 115.656C52.1357 115.489 52.5372 115.4 52.8733 115.39C53.2058 115.377 53.51 115.451 53.786 115.61C54.0584 115.767 54.2052 115.954 54.2264 116.171C54.2441 116.385 54.1044 116.607 53.8072 116.836L54.2954 117.117L53.7701 117.421ZM50.2359 115.852C50.3598 115.924 50.4907 115.958 50.6286 115.956C50.7701 115.952 50.9417 115.916 51.1434 115.849L50.2466 115.331C49.9954 115.538 49.9918 115.711 50.2359 115.852ZM53.197 116.005C53.0908 115.944 52.9652 115.91 52.8202 115.904C52.6752 115.894 52.4894 115.926 52.263 115.999L53.2394 116.563C53.3562 116.459 53.4092 116.359 53.3986 116.263C53.388 116.163 53.3208 116.077 53.197 116.005Z"/><g filter="url(#onCoudBenefitsMobileFIlter15_f)" opacity=".92"><path fill="#000" fill-opacity=".1" d="M287.764 195.898C288.179 195.678 288.647 195.561 289.123 195.558C289.598 195.554 290.067 195.665 290.484 195.88L309.396 205.546C311.179 206.457 311.426 208.948 309.692 209.946L273.936 230.006C273.52 230.226 273.052 230.343 272.576 230.346C272.1 230.349 271.631 230.239 271.213 230.024L252.304 220.358C250.521 219.447 250.274 216.955 252.007 215.958L287.764 195.898Z"/></g><rect width="44.068" height="27.334" x=".311" y="-.008" fill="url(#onCoudBenefitsMobilePaint9_linear)" stroke="#F1F1F1" stroke-width=".359" rx="1.256" transform="matrix(0.852845 -0.522165 0.87863 0.477502 247.027 208.198)"/><g filter="url(#onCoudBenefitsMobileFIlter16_i)"><path fill="#F1F1F4" d="M257.634 208.955C256.938 208.576 256.921 207.934 257.597 207.52L260.493 205.747C261.169 205.333 262.282 205.304 262.979 205.683L264.948 206.753C265.644 207.131 265.661 207.774 264.985 208.188L262.089 209.961C261.413 210.375 260.3 210.404 259.603 210.025L257.634 208.955Z"/></g><g filter="url(#onCoudBenefitsMobileFIlter17_i)"><path fill="#F1F1F4" d="M273.386 198.231C272.69 197.852 272.673 197.21 273.35 196.796L283.702 190.457C284.378 190.043 285.491 190.014 286.188 190.393L288.157 191.463C288.853 191.842 288.87 192.484 288.194 192.898L277.841 199.237C277.165 199.651 276.052 199.68 275.355 199.301L273.386 198.231Z"/></g><g filter="url(#onCoudBenefitsMobileFIlter18_i)"><path fill="#F1F1F4" d="M278.629 201.226C278.28 201.037 278.272 200.716 278.61 200.509L290.187 193.421C290.525 193.214 291.082 193.199 291.43 193.389L291.876 193.631C292.224 193.82 292.233 194.142 291.894 194.349L280.317 201.437C279.979 201.644 279.423 201.658 279.074 201.469L278.629 201.226Z"/></g><path fill="#CFCFDA" fill-rule="evenodd" d="M259.679 207.231L257.701 207.456L257.836 207.372L259.722 207.149L260.484 207.564L259.582 208.116L260.87 208.816L262.653 207.725L261.27 206.973L263.19 205.798L263.284 205.849L261.456 206.969L262.744 207.669L264.572 206.549L264.667 206.6L261.866 208.315L262.488 208.652L264.54 208.462L264.425 208.533L262.442 208.733L261.775 208.371L259.322 209.873L259.228 209.821L260.778 208.872L259.49 208.172L257.94 209.121L257.845 209.07L260.299 207.568L259.679 207.231Z" clip-rule="evenodd"/><g filter="url(#onCoudBenefitsMobileFIlter19_i)"><path fill="#F1F1F1" d="M283.006 210.068C282.901 210.132 282.792 210.174 282.679 210.194C282.565 210.212 282.436 210.203 282.29 210.167C282.145 210.13 281.979 210.061 281.79 209.958C281.601 209.856 281.471 209.764 281.399 209.683C281.328 209.601 281.306 209.527 281.332 209.462C281.357 209.395 281.423 209.329 281.528 209.265C281.633 209.2 281.742 209.159 281.855 209.141C281.969 209.122 282.099 209.131 282.244 209.168C282.388 209.203 282.555 209.272 282.744 209.374C282.932 209.477 283.062 209.569 283.133 209.651C283.203 209.731 283.226 209.805 283.2 209.872C283.176 209.938 283.111 210.004 283.006 210.068ZM282.773 209.941C282.825 209.909 282.85 209.877 282.848 209.844C282.846 209.811 282.819 209.774 282.767 209.735C282.717 209.695 282.638 209.646 282.532 209.588L282.386 209.509C282.279 209.451 282.19 209.409 282.118 209.382C282.047 209.355 281.983 209.342 281.926 209.343C281.868 209.343 281.813 209.359 281.761 209.391C281.708 209.424 281.683 209.457 281.685 209.49C281.688 209.523 281.714 209.559 281.764 209.599C281.816 209.638 281.895 209.686 282.002 209.744L282.148 209.823C282.255 209.882 282.343 209.924 282.414 209.952C282.486 209.978 282.55 209.992 282.608 209.992C282.665 209.99 282.72 209.973 282.773 209.941Z"/><path fill="#F1F1F1" d="M284.385 209.223C284.226 209.321 284.066 209.375 283.903 209.386C283.739 209.397 283.591 209.366 283.459 209.295L283.422 209.274L283.703 209.102L283.746 209.126C283.808 209.159 283.873 209.174 283.943 209.17C284.011 209.165 284.079 209.141 284.148 209.099C284.21 209.061 284.243 209.022 284.248 208.983C284.251 208.942 284.22 208.904 284.154 208.869C284.078 208.828 284.005 208.811 283.934 208.819C283.863 208.827 283.793 208.852 283.726 208.893L283.623 208.956L283.39 208.829L283.499 208.763C283.554 208.729 283.583 208.692 283.584 208.653C283.585 208.612 283.552 208.574 283.487 208.539C283.427 208.507 283.367 208.492 283.307 208.495C283.249 208.497 283.192 208.515 283.136 208.549C283.078 208.585 283.049 208.621 283.047 208.657C283.044 208.693 283.071 208.726 283.129 208.758L283.169 208.779L282.888 208.951L282.83 208.92C282.752 208.878 282.704 208.829 282.684 208.773C282.664 208.717 282.672 208.659 282.709 208.599C282.745 208.538 282.808 208.481 282.897 208.426C283.039 208.34 283.185 208.289 283.337 208.275C283.489 208.26 283.628 208.286 283.753 208.354C283.832 208.397 283.878 208.445 283.89 208.497C283.903 208.547 283.891 208.602 283.856 208.662L283.864 208.667C283.963 208.633 284.065 208.619 284.169 208.625C284.273 208.63 284.37 208.657 284.46 208.706C284.544 208.751 284.596 208.804 284.616 208.863C284.637 208.921 284.627 208.981 284.588 209.044C284.547 209.106 284.48 209.166 284.385 209.223Z"/><path fill="#F1F1F1" d="M285.735 208.397C285.589 208.486 285.439 208.531 285.284 208.531C285.131 208.53 284.987 208.493 284.852 208.42L285.133 208.248C285.204 208.287 285.271 208.308 285.334 208.313C285.396 208.317 285.456 208.301 285.514 208.265C285.571 208.23 285.599 208.195 285.595 208.16C285.591 208.124 285.565 208.087 285.516 208.05C285.467 208.012 285.394 207.966 285.297 207.912C285.297 207.949 285.283 207.989 285.255 208.032C285.227 208.073 285.185 208.111 285.127 208.146C284.989 208.23 284.844 208.271 284.69 208.267C284.538 208.262 284.391 208.221 284.248 208.143C284.154 208.092 284.091 208.034 284.061 207.971C284.029 207.907 284.03 207.844 284.062 207.78C284.095 207.715 284.155 207.656 284.244 207.601C284.413 207.498 284.593 207.449 284.787 207.455C284.978 207.459 285.2 207.53 285.453 207.667C285.646 207.772 285.78 207.868 285.857 207.954C285.933 208.041 285.959 208.12 285.934 208.191C285.91 208.262 285.844 208.33 285.735 208.397ZM284.968 207.981C285.033 207.941 285.061 207.9 285.051 207.856C285.042 207.812 285 207.769 284.925 207.728C284.854 207.69 284.78 207.669 284.704 207.667C284.626 207.663 284.554 207.681 284.49 207.721C284.425 207.76 284.399 207.802 284.411 207.846C284.421 207.889 284.462 207.93 284.533 207.968C284.608 208.009 284.683 208.031 284.758 208.035C284.834 208.039 284.904 208.021 284.968 207.981Z"/><path fill="#F1F1F1" d="M286.557 207.778C286.478 207.735 286.424 207.686 286.396 207.632C286.365 207.576 286.351 207.521 286.352 207.466C286.355 207.409 286.366 207.341 286.386 207.26C286.401 207.188 286.409 207.131 286.412 207.087C286.417 207.043 286.411 207.001 286.395 206.961C286.374 206.911 286.33 206.867 286.262 206.83C286.218 206.806 286.163 206.795 286.097 206.797C286.031 206.797 285.969 206.815 285.909 206.851C285.776 206.933 285.775 207.01 285.907 207.081L285.993 207.128L285.718 207.296C285.687 207.286 285.657 207.272 285.626 207.256C285.482 207.177 285.42 207.09 285.441 206.994C285.463 206.897 285.546 206.805 285.688 206.717C285.814 206.64 285.935 206.595 286.052 206.581C286.17 206.567 286.27 206.571 286.352 206.592C286.436 206.613 286.505 206.638 286.56 206.667C286.655 206.719 286.72 206.779 286.753 206.845C286.785 206.911 286.797 206.975 286.791 207.038C286.784 207.1 286.768 207.173 286.743 207.258C286.724 207.322 286.713 207.372 286.71 207.408C286.708 207.433 286.711 207.454 286.72 207.472L287.348 207.087L287.602 207.225L286.632 207.819L286.557 207.778Z"/><path fill="#F1F1F1" d="M277.092 212.906C277.235 212.984 277.239 213.117 277.099 213.202C276.96 213.287 276.73 213.293 276.586 213.215C276.443 213.137 276.439 213.004 276.579 212.919C276.718 212.834 276.948 212.828 277.092 212.906Z"/><path fill="#F1F1F1" d="M271.867 216.106C272.011 216.184 272.014 216.316 271.875 216.402C271.735 216.487 271.506 216.493 271.362 216.415C271.218 216.337 271.215 216.204 271.354 216.119C271.494 216.033 271.723 216.027 271.867 216.106Z"/><path fill="#F1F1F1" d="M278.232 212.21C278.376 212.288 278.379 212.421 278.24 212.506C278.1 212.592 277.871 212.597 277.727 212.519C277.583 212.441 277.58 212.309 277.719 212.223C277.859 212.138 278.089 212.132 278.232 212.21Z"/><path fill="#F1F1F1" d="M273.004 215.41C273.147 215.488 273.151 215.62 273.011 215.706C272.872 215.791 272.642 215.797 272.499 215.719C272.355 215.641 272.351 215.508 272.491 215.423C272.63 215.338 272.86 215.332 273.004 215.41Z"/><path fill="#F1F1F1" d="M279.367 211.514C279.511 211.592 279.514 211.725 279.375 211.81C279.235 211.896 279.006 211.902 278.862 211.824C278.718 211.745 278.715 211.613 278.854 211.527C278.994 211.442 279.223 211.436 279.367 211.514Z"/><path fill="#F1F1F1" d="M274.14 214.714C274.284 214.792 274.288 214.925 274.148 215.01C274.009 215.095 273.779 215.101 273.635 215.023C273.492 214.945 273.488 214.813 273.628 214.727C273.767 214.642 273.997 214.636 274.14 214.714Z"/><path fill="#F1F1F1" d="M280.504 210.818C280.647 210.896 280.651 211.029 280.511 211.114C280.372 211.199 280.142 211.205 279.999 211.127C279.855 211.049 279.851 210.917 279.991 210.831C280.13 210.746 280.36 210.74 280.504 210.818Z"/><path fill="#F1F1F1" d="M275.279 214.018C275.423 214.096 275.426 214.228 275.287 214.314C275.147 214.399 274.918 214.405 274.774 214.327C274.63 214.249 274.627 214.116 274.766 214.031C274.906 213.945 275.135 213.94 275.279 214.018Z"/></g><rect width="25.923" height=".808" fill="#F1F1F1" transform="matrix(0.87863 0.477502 0.0257859 0.999667 247.617 208.389)"/><path fill="#E9E9E9" d="M308.924 198.125L308.947 199.014L272.337 221.535L272.314 220.646L308.924 198.125Z"/><path fill="url(#onCoudBenefitsMobilePaint10_linear)" d="M272.32 220.641L272.343 221.53C272.343 221.53 271.879 221.865 271.372 221.878C270.943 221.889 270.414 221.575 270.414 221.575L270.394 220.764C270.394 220.764 270.757 221.046 271.364 221.009C271.923 220.974 272.32 220.641 272.32 220.641Z"/><path fill="#F1F1F1" d="M247.324 207.975C247.324 207.975 247.337 208.152 247.396 208.225C247.491 208.344 247.703 208.477 247.703 208.477L247.723 209.276C247.723 209.276 247.56 209.191 247.486 209.108C247.404 209.015 247.345 208.784 247.345 208.784L247.324 207.975Z"/><path fill="#DF6461" d="M208.299 253.852C207.172 254.503 205.345 254.503 204.218 253.852C203.696 253.551 203.416 253.163 203.377 252.769C203.332 252.312 203.241 251.675 203.847 251.326C204.974 250.675 207.471 250.578 208.598 251.228C209.49 251.936 209.426 253.202 208.299 253.852ZM204.98 251.936C204.274 252.344 204.274 253.005 204.98 253.412C205.686 253.82 206.83 253.82 207.536 253.412C208.242 253.005 208.242 252.344 207.536 251.936C206.83 251.529 205.686 251.529 204.98 251.936Z"/><path fill="url(#onCoudBenefitsMobilePaint11_linear)" d="M208.298 253.286C207.171 253.937 205.344 253.937 204.217 253.286C203.09 252.635 203.09 251.581 204.217 250.93C205.344 250.279 207.171 250.279 208.298 250.93C209.425 251.581 209.425 252.635 208.298 253.286Z"/><rect width="53.241" height="98.006" fill="url(#onCoudBenefitsMobilePaint12_linear)" transform="matrix(0.678336 -0.734752 -0.734752 -0.678336 289.67 332.837)"/></g><defs><filter id="onCoudBenefitsMobileFIlter0_i" width="48.265" height="27.091" x="30.273" y="119.701" color-interpolation-filters="sRGB" filterUnits="userSpaceOnUse"><feFlood flood-opacity="0" result="BackgroundImageFix"/><feBlend in="SourceGraphic" in2="BackgroundImageFix" mode="normal" result="shape"/><feColorMatrix in="SourceAlpha" result="hardAlpha" type="matrix" values="0 0 0 0 0 0 0 0 0 0 0 0 0 0 0 0 0 0 127 0"/><feOffset dx=".835" dy=".835"/><feGaussianBlur stdDeviation=".418"/><feComposite in2="hardAlpha" k2="-1" k3="1" operator="arithmetic"/><feColorMatrix type="matrix" values="0 0 0 0 0.280972 0 0 0 0 0.354025 0 0 0 0 0.495833 0 0 0 0.19 0"/><feBlend in2="shape" mode="normal" result="effect1_innerShadow"/></filter><filter id="onCoudBenefitsMobileFIlter1_f" width="80.135" height="56.542" x="22.834" y="101.566" color-interpolation-filters="sRGB" filterUnits="userSpaceOnUse"><feFlood flood-opacity="0" result="BackgroundImageFix"/><feBlend in="SourceGraphic" in2="BackgroundImageFix" mode="normal" result="shape"/><feGaussianBlur result="effect1_foregroundBlur" stdDeviation="6.68"/></filter><filter id="onCoudBenefitsMobileFIlter2_i" width="4.113" height="2.724" x="34.824" y="106.13" color-interpolation-filters="sRGB" filterUnits="userSpaceOnUse"><feFlood flood-opacity="0" result="BackgroundImageFix"/><feBlend in="SourceGraphic" in2="BackgroundImageFix" mode="normal" result="shape"/><feColorMatrix in="SourceAlpha" result="hardAlpha" type="matrix" values="0 0 0 0 0 0 0 0 0 0 0 0 0 0 0 0 0 0 127 0"/><feOffset dx=".835" dy=".835"/><feGaussianBlur stdDeviation=".418"/><feComposite in2="hardAlpha" k2="-1" k3="1" operator="arithmetic"/><feColorMatrix type="matrix" values="0 0 0 0 0.280972 0 0 0 0 0.354025 0 0 0 0 0.495833 0 0 0 0.19 0"/><feBlend in2="shape" mode="normal" result="effect1_innerShadow"/></filter><filter id="onCoudBenefitsMobileFIlter3_i" width="1.976" height="1.496" x="30.441" y="113.248" color-interpolation-filters="sRGB" filterUnits="userSpaceOnUse"><feFlood flood-opacity="0" result="BackgroundImageFix"/><feBlend in="SourceGraphic" in2="BackgroundImageFix" mode="normal" result="shape"/><feColorMatrix in="SourceAlpha" result="hardAlpha" type="matrix" values="0 0 0 0 0 0 0 0 0 0 0 0 0 0 0 0 0 0 127 0"/><feOffset dx=".835" dy=".835"/><feGaussianBlur stdDeviation=".418"/><feComposite in2="hardAlpha" k2="-1" k3="1" operator="arithmetic"/><feColorMatrix type="matrix" values="0 0 0 0 0.280972 0 0 0 0 0.354025 0 0 0 0 0.495833 0 0 0 0.08 0"/><feBlend in2="shape" mode="normal" result="effect1_innerShadow"/></filter><filter id="onCoudBenefitsMobileFIlter4_i" width="1.979" height="1.494" x="31.066" y="112.889" color-interpolation-filters="sRGB" filterUnits="userSpaceOnUse"><feFlood flood-opacity="0" result="BackgroundImageFix"/><feBlend in="SourceGraphic" in2="BackgroundImageFix" mode="normal" result="shape"/><feColorMatrix in="SourceAlpha" result="hardAlpha" type="matrix" values="0 0 0 0 0 0 0 0 0 0 0 0 0 0 0 0 0 0 127 0"/><feOffset dx=".835" dy=".835"/><feGaussianBlur stdDeviation=".418"/><feComposite in2="hardAlpha" k2="-1" k3="1" operator="arithmetic"/><feColorMatrix type="matrix" values="0 0 0 0 0.280972 0 0 0 0 0.354025 0 0 0 0 0.495833 0 0 0 0.08 0"/><feBlend in2="shape" mode="normal" result="effect1_innerShadow"/></filter><filter id="onCoudBenefitsMobileFIlter5_i" width="1.976" height="1.496" x="31.691" y="112.526" color-interpolation-filters="sRGB" filterUnits="userSpaceOnUse"><feFlood flood-opacity="0" result="BackgroundImageFix"/><feBlend in="SourceGraphic" in2="BackgroundImageFix" mode="normal" result="shape"/><feColorMatrix in="SourceAlpha" result="hardAlpha" type="matrix" values="0 0 0 0 0 0 0 0 0 0 0 0 0 0 0 0 0 0 127 0"/><feOffset dx=".835" dy=".835"/><feGaussianBlur stdDeviation=".418"/><feComposite in2="hardAlpha" k2="-1" k3="1" operator="arithmetic"/><feColorMatrix type="matrix" values="0 0 0 0 0.280972 0 0 0 0 0.354025 0 0 0 0 0.495833 0 0 0 0.08 0"/><feBlend in2="shape" mode="normal" result="effect1_innerShadow"/></filter><filter id="onCoudBenefitsMobileFIlter6_i" width="1.979" height="1.494" x="32.315" y="112.167" color-interpolation-filters="sRGB" filterUnits="userSpaceOnUse"><feFlood flood-opacity="0" result="BackgroundImageFix"/><feBlend in="SourceGraphic" in2="BackgroundImageFix" mode="normal" result="shape"/><feColorMatrix in="SourceAlpha" result="hardAlpha" type="matrix" values="0 0 0 0 0 0 0 0 0 0 0 0 0 0 0 0 0 0 127 0"/><feOffset dx=".835" dy=".835"/><feGaussianBlur stdDeviation=".418"/><feComposite in2="hardAlpha" k2="-1" k3="1" operator="arithmetic"/><feColorMatrix type="matrix" values="0 0 0 0 0.280972 0 0 0 0 0.354025 0 0 0 0 0.495833 0 0 0 0.08 0"/><feBlend in2="shape" mode="normal" result="effect1_innerShadow"/></filter><filter id="onCoudBenefitsMobileFIlter7_i" width="21.871" height="13.055" x="41.092" y="109.864" color-interpolation-filters="sRGB" filterUnits="userSpaceOnUse"><feFlood flood-opacity="0" result="BackgroundImageFix"/><feBlend in="SourceGraphic" in2="BackgroundImageFix" mode="normal" result="shape"/><feColorMatrix in="SourceAlpha" result="hardAlpha" type="matrix" values="0 0 0 0 0 0 0 0 0 0 0 0 0 0 0 0 0 0 127 0"/><feOffset dx=".835" dy=".835"/><feGaussianBlur stdDeviation=".418"/><feComposite in2="hardAlpha" k2="-1" k3="1" operator="arithmetic"/><feColorMatrix type="matrix" values="0 0 0 0 0.280972 0 0 0 0 0.354025 0 0 0 0 0.495833 0 0 0 0.19 0"/><feBlend in2="shape" mode="normal" result="effect1_innerShadow"/></filter><filter id="onCoudBenefitsMobileFIlter8_i" width="9.97" height="5.897" x="65.707" y="124.078" color-interpolation-filters="sRGB" filterUnits="userSpaceOnUse"><feFlood flood-opacity="0" result="BackgroundImageFix"/><feBlend in="SourceGraphic" in2="BackgroundImageFix" mode="normal" result="shape"/><feColorMatrix in="SourceAlpha" result="hardAlpha" type="matrix" values="0 0 0 0 0 0 0 0 0 0 0 0 0 0 0 0 0 0 127 0"/><feOffset dx=".835" dy=".835"/><feGaussianBlur stdDeviation=".418"/><feComposite in2="hardAlpha" k2="-1" k3="1" operator="arithmetic"/><feColorMatrix type="matrix" values="0 0 0 0 0.280972 0 0 0 0 0.354025 0 0 0 0 0.495833 0 0 0 0.19 0"/><feBlend in2="shape" mode="normal" result="effect1_innerShadow"/></filter><filter id="onCoudBenefitsMobileFIlter9_i" width="11.465" height="4.36" x="64.313" y="120.084" color-interpolation-filters="sRGB" filterUnits="userSpaceOnUse"><feFlood flood-opacity="0" result="BackgroundImageFix"/><feBlend in="SourceGraphic" in2="BackgroundImageFix" mode="normal" result="shape"/><feColorMatrix in="SourceAlpha" result="hardAlpha" type="matrix" values="0 0 0 0 0 0 0 0 0 0 0 0 0 0 0 0 0 0 127 0"/><feOffset dx=".835" dy=".835"/><feGaussianBlur stdDeviation=".418"/><feComposite in2="hardAlpha" k2="-1" k3="1" operator="arithmetic"/><feColorMatrix type="matrix" values="0 0 0 0 0.280972 0 0 0 0 0.354025 0 0 0 0 0.495833 0 0 0 0.19 0"/><feBlend in2="shape" mode="normal" result="effect1_innerShadow"/></filter><filter id="onCoudBenefitsMobileFIlter10_i" width="15.192" height="9.244" x="59.49" y="120.73" color-interpolation-filters="sRGB" filterUnits="userSpaceOnUse"><feFlood flood-opacity="0" result="BackgroundImageFix"/><feBlend in="SourceGraphic" in2="BackgroundImageFix" mode="normal" result="shape"/><feColorMatrix in="SourceAlpha" result="hardAlpha" type="matrix" values="0 0 0 0 0 0 0 0 0 0 0 0 0 0 0 0 0 0 127 0"/><feOffset dx=".835" dy=".835"/><feGaussianBlur stdDeviation=".418"/><feComposite in2="hardAlpha" k2="-1" k3="1" operator="arithmetic"/><feColorMatrix type="matrix" values="0 0 0 0 0.280972 0 0 0 0 0.354025 0 0 0 0 0.495833 0 0 0 0.19 0"/><feBlend in2="shape" mode="normal" result="effect1_innerShadow"/></filter><filter id="onCoudBenefitsMobileFIlter11_i" width="7.11" height="6.179" x="66.519" y="122.433" color-interpolation-filters="sRGB" filterUnits="userSpaceOnUse"><feFlood flood-opacity="0" result="BackgroundImageFix"/><feBlend in="SourceGraphic" in2="BackgroundImageFix" mode="normal" result="shape"/><feColorMatrix in="SourceAlpha" result="hardAlpha" type="matrix" values="0 0 0 0 0 0 0 0 0 0 0 0 0 0 0 0 0 0 127 0"/><feOffset dx=".835" dy=".835"/><feGaussianBlur stdDeviation=".418"/><feComposite in2="hardAlpha" k2="-1" k3="1" operator="arithmetic"/><feColorMatrix type="matrix" values="0 0 0 0 0.280972 0 0 0 0 0.354025 0 0 0 0 0.495833 0 0 0 0.19 0"/><feBlend in2="shape" mode="normal" result="effect1_innerShadow"/></filter><filter id="onCoudBenefitsMobileFIlter12_i" width="10.129" height="7.452" x="61.527" y="121.362" color-interpolation-filters="sRGB" filterUnits="userSpaceOnUse"><feFlood flood-opacity="0" result="BackgroundImageFix"/><feBlend in="SourceGraphic" in2="BackgroundImageFix" mode="normal" result="shape"/><feColorMatrix in="SourceAlpha" result="hardAlpha" type="matrix" values="0 0 0 0 0 0 0 0 0 0 0 0 0 0 0 0 0 0 127 0"/><feOffset dx=".835" dy=".835"/><feGaussianBlur stdDeviation=".418"/><feComposite in2="hardAlpha" k2="-1" k3="1" operator="arithmetic"/><feColorMatrix type="matrix" values="0 0 0 0 0.280972 0 0 0 0 0.354025 0 0 0 0 0.495833 0 0 0 0.19 0"/><feBlend in2="shape" mode="normal" result="effect1_innerShadow"/></filter><filter id="onCoudBenefitsMobileFIlter13_i" width="5.898" height="3.877" x="64.566" y="123.191" color-interpolation-filters="sRGB" filterUnits="userSpaceOnUse"><feFlood flood-opacity="0" result="BackgroundImageFix"/><feBlend in="SourceGraphic" in2="BackgroundImageFix" mode="normal" result="shape"/><feColorMatrix in="SourceAlpha" result="hardAlpha" type="matrix" values="0 0 0 0 0 0 0 0 0 0 0 0 0 0 0 0 0 0 127 0"/><feOffset dx=".835" dy=".835"/><feGaussianBlur stdDeviation=".418"/><feComposite in2="hardAlpha" k2="-1" k3="1" operator="arithmetic"/><feColorMatrix type="matrix" values="0 0 0 0 0.280972 0 0 0 0 0.354025 0 0 0 0 0.495833 0 0 0 0.19 0"/><feBlend in2="shape" mode="normal" result="effect1_innerShadow"/></filter><filter id="onCoudBenefitsMobileFIlter14_i" width="4.483" height="3.013" x="59.92" y="119.519" color-interpolation-filters="sRGB" filterUnits="userSpaceOnUse"><feFlood flood-opacity="0" result="BackgroundImageFix"/><feBlend in="SourceGraphic" in2="BackgroundImageFix" mode="normal" result="shape"/><feColorMatrix in="SourceAlpha" result="hardAlpha" type="matrix" values="0 0 0 0 0 0 0 0 0 0 0 0 0 0 0 0 0 0 127 0"/><feOffset dx=".835" dy=".835"/><feGaussianBlur stdDeviation=".418"/><feComposite in2="hardAlpha" k2="-1" k3="1" operator="arithmetic"/><feColorMatrix type="matrix" values="0 0 0 0 0.280972 0 0 0 0 0.354025 0 0 0 0 0.495833 0 0 0 0.19 0"/><feBlend in2="shape" mode="normal" result="effect1_innerShadow"/></filter><filter id="onCoudBenefitsMobileFIlter15_f" width="92.042" height="66.789" x="234.828" y="179.558" color-interpolation-filters="sRGB" filterUnits="userSpaceOnUse"><feFlood flood-opacity="0" result="BackgroundImageFix"/><feBlend in="SourceGraphic" in2="BackgroundImageFix" mode="normal" result="shape"/><feGaussianBlur result="effect1_foregroundBlur" stdDeviation="8"/></filter><filter id="onCoudBenefitsMobileFIlter16_i" width="8.739" height="5.233" x="257.102" y="205.417" color-interpolation-filters="sRGB" filterUnits="userSpaceOnUse"><feFlood flood-opacity="0" result="BackgroundImageFix"/><feBlend in="SourceGraphic" in2="BackgroundImageFix" mode="normal" result="shape"/><feColorMatrix in="SourceAlpha" result="hardAlpha" type="matrix" values="0 0 0 0 0 0 0 0 0 0 0 0 0 0 0 0 0 0 127 0"/><feOffset dx=".359" dy=".359"/><feGaussianBlur stdDeviation=".179"/><feComposite in2="hardAlpha" k2="-1" k3="1" operator="arithmetic"/><feColorMatrix type="matrix" values="0 0 0 0 0.280972 0 0 0 0 0.354025 0 0 0 0 0.495833 0 0 0 0.19 0"/><feBlend in2="shape" mode="normal" result="effect1_innerShadow"/></filter><filter id="onCoudBenefitsMobileFIlter17_i" width="16.196" height="9.799" x="272.854" y="190.127" color-interpolation-filters="sRGB" filterUnits="userSpaceOnUse"><feFlood flood-opacity="0" result="BackgroundImageFix"/><feBlend in="SourceGraphic" in2="BackgroundImageFix" mode="normal" result="shape"/><feColorMatrix in="SourceAlpha" result="hardAlpha" type="matrix" values="0 0 0 0 0 0 0 0 0 0 0 0 0 0 0 0 0 0 127 0"/><feOffset dx=".359" dy=".359"/><feGaussianBlur stdDeviation=".179"/><feComposite in2="hardAlpha" k2="-1" k3="1" operator="arithmetic"/><feColorMatrix type="matrix" values="0 0 0 0 0.280972 0 0 0 0 0.354025 0 0 0 0 0.495833 0 0 0 0.19 0"/><feBlend in2="shape" mode="normal" result="effect1_innerShadow"/></filter><filter id="onCoudBenefitsMobileFIlter18_i" width="14.14" height="8.705" x="278.361" y="193.255" color-interpolation-filters="sRGB" filterUnits="userSpaceOnUse"><feFlood flood-opacity="0" result="BackgroundImageFix"/><feBlend in="SourceGraphic" in2="BackgroundImageFix" mode="normal" result="shape"/><feColorMatrix in="SourceAlpha" result="hardAlpha" type="matrix" values="0 0 0 0 0 0 0 0 0 0 0 0 0 0 0 0 0 0 127 0"/><feOffset dx=".359" dy=".359"/><feGaussianBlur stdDeviation=".179"/><feComposite in2="hardAlpha" k2="-1" k3="1" operator="arithmetic"/><feColorMatrix type="matrix" values="0 0 0 0 0.280972 0 0 0 0 0.354025 0 0 0 0 0.495833 0 0 0 0.19 0"/><feBlend in2="shape" mode="normal" result="effect1_innerShadow"/></filter><filter id="onCoudBenefitsMobileFIlter19_i" width="16.351" height="10.256" x="271.252" y="206.573" color-interpolation-filters="sRGB" filterUnits="userSpaceOnUse"><feFlood flood-opacity="0" result="BackgroundImageFix"/><feBlend in="SourceGraphic" in2="BackgroundImageFix" mode="normal" result="shape"/><feColorMatrix in="SourceAlpha" result="hardAlpha" type="matrix" values="0 0 0 0 0 0 0 0 0 0 0 0 0 0 0 0 0 0 127 0"/><feOffset dy=".359"/><feGaussianBlur stdDeviation=".179"/><feComposite in2="hardAlpha" k2="-1" k3="1" operator="arithmetic"/><feColorMatrix type="matrix" values="0 0 0 0 0.280972 0 0 0 0 0.354025 0 0 0 0 0.495833 0 0 0 0.19 0"/><feBlend in2="shape" mode="normal" result="effect1_innerShadow"/></filter><linearGradient id="onCoudBenefitsMobilePaint0_linear" x1="89.18" x2="151.322" y1="102.79" y2="301.384" gradientUnits="userSpaceOnUse"><stop stop-color="#303B61"/><stop offset="1" stop-color="#303B61" stop-opacity="0"/></linearGradient><linearGradient id="onCoudBenefitsMobilePaint1_linear" x1="47.104" x2="51.614" y1="161.68" y2="169.491" gradientUnits="userSpaceOnUse"><stop stop-color="#364169"/><stop offset="1" stop-color="#293357"/></linearGradient><linearGradient id="onCoudBenefitsMobilePaint2_linear" x1="47.778" x2="52.288" y1="193.803" y2="201.615" gradientUnits="userSpaceOnUse"><stop stop-color="#293357"/><stop offset="1" stop-color="#303B61"/></linearGradient><linearGradient id="onCoudBenefitsMobilePaint3_linear" x1="-4.856" x2="58.204" y1="273.445" y2="321.005" gradientUnits="userSpaceOnUse"><stop stop-color="#EE786C" stop-opacity="0"/><stop offset=".542" stop-color="#EE786C"/><stop offset="1" stop-color="#EE786C" stop-opacity="0"/></linearGradient><linearGradient id="onCoudBenefitsMobilePaint4_linear" x1="113.93" x2="117.771" y1="192.903" y2="195.488" gradientUnits="userSpaceOnUse"><stop stop-color="#F48D89"/><stop offset="1" stop-color="#EE786C"/></linearGradient><linearGradient id="onCoudBenefitsMobilePaint5_linear" x1="82.928" x2="86.769" y1="101.272" y2="103.858" gradientUnits="userSpaceOnUse"><stop stop-color="#F48D89"/><stop offset="1" stop-color="#EE786C"/></linearGradient><linearGradient id="onCoudBenefitsMobilePaint6_linear" x1="117501" x2="127235" y1="-71069.1" y2="-70665.4" gradientUnits="userSpaceOnUse"><stop stop-color="#F1F1F1"/><stop offset="1" stop-color="#E2E2E2"/></linearGradient><linearGradient id="onCoudBenefitsMobilePaint7_linear" x1="55.695" x2="55.695" y1="101.838" y2="136.871" gradientUnits="userSpaceOnUse"><stop stop-color="#FBFBFB"/><stop offset="1" stop-color="#F5F5F5"/></linearGradient><linearGradient id="onCoudBenefitsMobilePaint8_linear" x1="45.213" x2="53.634" y1="113.984" y2="107.561" gradientUnits="userSpaceOnUse"><stop stop-color="#F48D89"/><stop offset="1" stop-color="#EE786C"/></linearGradient><linearGradient id="onCoudBenefitsMobilePaint9_linear" x1="22.214" x2="22.214" y1="0" y2="28.93" gradientUnits="userSpaceOnUse"><stop stop-color="#FBFBFB"/><stop offset="1" stop-color="#F5F5F5"/></linearGradient><linearGradient id="onCoudBenefitsMobilePaint10_linear" x1="272.38" x2="270.454" y1="222.969" y2="223.098" gradientUnits="userSpaceOnUse"><stop stop-color="#E9E9E9"/><stop offset="1" stop-color="#F1F1F1"/></linearGradient><linearGradient id="onCoudBenefitsMobilePaint11_linear" x1="205.366" x2="209.207" y1="250.392" y2="252.978" gradientUnits="userSpaceOnUse"><stop stop-color="#F48D89"/><stop offset="1" stop-color="#EE786C"/></linearGradient><linearGradient id="onCoudBenefitsMobilePaint12_linear" x1="26.62" x2="-5.161" y1="0" y2="121.711" gradientUnits="userSpaceOnUse"><stop offset=".308" stop-color="#2C365A"/><stop offset="1" stop-color="#2C365A" stop-opacity="0"/></linearGradient></defs></svg>