<svg xmlns="http://www.w3.org/2000/svg" fill="none" preserveAspectRatio="xMinYMin slice" viewBox="0 0 1440 1501"><mask id="onCloudMask0" width="1440" height="1501" x="0" y="0" mask-type="alpha" maskUnits="userSpaceOnUse"><rect width="1440" height="1501" fill="#C4C4C4"/></mask><g mask="url(#onCloudMask0)"><rect width="1440" height="1501" fill="#2C365A"/><path fill="url(#onCloudPaint0_linear)" d="M390.336 461.761L-164.107 777.23L-164.106 1187.5L377.474 1187.5L1562.74 1199.11L1562.74 1061.06L390.336 461.761Z"/><path fill="#364169" d="M-199.107 37L-778.996 371.77L-199.107 706.539L378.626 372.631L-199.107 37Z"/><path fill="#293357" d="M380.426 456.587V387.337L-227.933 729V805.575L380.426 456.587Z"/><path fill="url(#onCloudPaint1_linear)" d="M369.146 368.323L-212.191 703.909L-189.356 717.265L379.481 387.235L379.481 373.448L369.146 368.323Z"/><path fill="url(#onCloudPaint2_linear)" d="M369.416 451L-210.472 785.77L-187.637 799.126L392.252 464.356L369.416 451Z"/><path stroke="#EE786C" stroke-dasharray="5 5" d="M-91 242L259.676 443.651C263.252 445.707 265.377 449.591 265.18 453.71L261.823 524.227C261.625 528.38 263.785 532.289 267.406 534.331L288.515 546.238C295.866 550.384 296.002 560.922 288.761 565.257L-158.5 833"/><path class="on-cloud-benefits-line on-cloud-benefits-line-3" stroke="url(#onCloudPaint3_linear)" d="M-136 849L239.5 622"/><path fill="#DF6461" d="M245.45 624.948C242.578 626.606 237.922 626.606 235.05 624.948C233.72 624.18 233.006 623.192 232.908 622.187C232.793 621.021 232.562 619.399 234.104 618.509C236.976 616.851 243.341 616.603 246.213 618.261C248.486 620.065 248.322 623.29 245.45 624.948ZM236.993 620.065C235.194 621.104 235.194 622.787 236.993 623.826C238.792 624.864 241.708 624.864 243.507 623.826C245.305 622.787 245.305 621.104 243.507 620.065C241.708 619.027 238.792 619.027 236.993 620.065Z"/><path fill="url(#onCloudPaint4_linear)" d="M245.45 623.506C242.578 625.164 237.922 625.164 235.05 623.506C232.178 621.848 232.178 619.16 235.05 617.502C237.922 615.844 242.578 615.844 245.45 617.502C248.322 619.16 248.322 621.848 245.45 623.506Z"/><path class="on-cloud-benefits-line on-cloud-benefits-line-2" stroke="#EE786C" d="M-47.5 179L332.152 402.732C334.619 404.186 336 406.14 336.001 408.175L336.002 472.219C336.002 474.317 337.47 476.326 340.072 477.79L430.254 528.529C435.612 531.544 435.689 536.501 430.427 539.571L-53.7289 822"/><path class="on-cloud-benefits-line on-cloud-benefits-line-1" stroke="#EE786C" d="M-43.5 163L345.135 391.23C347.612 392.685 349 394.643 349 396.683L349.002 459.289C349.002 461.346 350.412 463.318 352.925 464.776L462.91 528.585C468.091 531.591 468.147 536.44 463.035 539.485L275.279 651.334C270.048 654.45 270.245 659.434 275.716 662.409L736.5 913"/><path stroke="#EF796D" stroke-dasharray="4.15 4.15" stroke-width="1.382" d="M476 766L613.5 673.5"/><path stroke="#EF796D" stroke-dasharray="4.15 4.15" stroke-width="1.382" d="M99 444.844L178.634 398"/><path fill="#DF6461" d="M184.45 401.448C181.578 403.106 176.922 403.106 174.05 401.448C172.72 400.68 172.006 399.692 171.908 398.687C171.793 397.521 171.562 395.899 173.104 395.009C175.976 393.351 182.341 393.103 185.213 394.761C187.486 396.565 187.322 399.79 184.45 401.448ZM175.993 396.565C174.194 397.604 174.194 399.287 175.993 400.326C177.792 401.364 180.708 401.364 182.507 400.326C184.305 399.287 184.305 397.604 182.507 396.565C180.708 395.527 177.792 395.527 175.993 396.565Z"/><path fill="url(#onCloudPaint5_linear)" d="M184.45 400.006C181.578 401.664 176.922 401.664 174.05 400.006C171.178 398.348 171.178 395.66 174.05 394.002C176.922 392.344 181.578 392.344 184.45 394.002C187.322 395.66 187.322 398.348 184.45 400.006Z"/><g class="on-cloud-benefits-item"><g filter="url(#onCloudFilter0_i)"><path fill="#242B44" d="M162.344 486.122L126.859 505.773C125.271 506.652 122.873 506.755 121.5 505.984L43.7172 462.924C42.3443 462.163 42.5185 460.836 44.1014 459.976L79.5916 440.325C81.1745 439.446 83.5719 439.343 84.9448 440.114L162.733 483.155C164.101 483.916 163.932 485.243 162.344 486.122Z"/></g><g filter="url(#onCloudFilter1_f)" opacity=".92"><path fill="#000" fill-opacity=".13" d="M192.522 480.271L152.56 502.589C150.772 503.588 148.072 503.705 146.526 502.829L58.9298 453.924C57.3837 453.059 57.5798 451.553 59.3624 450.576L99.3298 428.258C101.112 427.259 103.812 427.142 105.358 428.018L192.96 476.9C194.5 477.765 194.31 479.272 192.522 480.271Z"/></g><path fill="url(#onCloudPaint6_linear)" d="M183.142 451.675L174.001 450.08L84.7145 398.532C82.9977 397.545 79.9997 397.667 78.0203 398.813L36.6571 422.701L32 421.888V426.622C32.0189 426.981 32.1365 427.329 32.3399 427.626C32.5433 427.923 32.8246 428.159 33.1531 428.306L130.427 484.467C132.144 485.46 135.142 485.332 137.128 484.192L181.502 458.568C182.604 457.928 183.161 457.114 183.142 456.345V451.675Z"/><path fill="#E8E8F2" d="M181.503 453.86L137.129 479.484C135.143 480.63 132.145 480.765 130.428 479.765L33.1602 423.611C31.4434 422.618 31.6612 420.888 33.6406 419.767L78.021 394.144C80.0004 392.997 82.9984 392.862 84.7152 393.868L181.989 449.991C183.7 450.983 183.488 452.713 181.503 453.86Z"/><path fill="url(#onCloudPaint7_linear)" d="M180.32 449.031C180.877 449.352 180.877 450.155 180.32 450.477L130.435 479.287C130.177 479.437 129.858 479.437 129.6 479.287L34.8285 424.571C34.2719 424.25 34.2718 423.446 34.8284 423.125L84.7136 394.314C84.972 394.165 85.2904 394.165 85.5488 394.314L180.32 449.031Z"/><g filter="url(#onCloudFilter2_i)"><path fill="#F1F1F4" d="M62.4815 405.732L55.6335 409.685C55.4812 409.771 55.3103 409.819 55.1353 409.826C54.9603 409.833 54.7863 409.797 54.6278 409.723L54.5573 409.685C54.3011 409.537 54.3331 409.275 54.6342 409.108L61.4821 405.149C61.6345 405.066 61.804 405.02 61.9773 405.013C62.1506 405.006 62.3232 405.04 62.4815 405.111L62.5519 405.149C62.8402 405.296 62.7761 405.559 62.4815 405.732Z"/></g><g filter="url(#onCloudFilter3_i)"><path fill="#F1F1F4" d="M46.1309 424.335L45.2662 424.834L43.2227 423.649L44.0874 423.15L46.1309 424.335Z"/></g><g filter="url(#onCloudFilter4_i)"><path fill="#F1F1F4" d="M47.7272 423.412L46.8624 423.912L44.8125 422.733L45.6773 422.234L47.7272 423.412Z"/></g><g filter="url(#onCloudFilter5_i)"><path fill="#F1F1F4" d="M49.3146 422.496L48.4497 422.996L46.4062 421.811L47.2711 421.311L49.3146 422.496Z"/></g><g filter="url(#onCloudFilter6_i)"><path fill="#F1F1F4" d="M50.9108 421.574L50.046 422.073L47.9961 420.895L48.8609 420.395L50.9108 421.574Z"/></g><path fill="url(#onCloudPaint8_linear)" d="M97.1792 440.042C106.696 440.042 114.411 435.588 114.411 430.094C114.411 424.6 106.696 420.146 97.1792 420.146C87.6623 420.146 79.9473 424.6 79.9473 430.094C79.9473 435.588 87.6623 440.042 97.1792 440.042Z"/><g filter="url(#onCloudFilter7_i)"><path fill="#F1F1F4" d="M97.1791 445.667C90.3247 445.667 83.4768 444.161 78.2624 441.15C73.1376 438.21 70.3574 434.283 70.3574 430.094C70.3574 425.904 73.1632 421.984 78.2624 419.044C88.6912 413.022 105.661 413.022 116.057 419.044C121.182 421.984 123.962 425.911 123.962 430.094C123.962 434.277 121.157 438.21 116.064 441.15C110.881 444.161 104.027 445.667 97.1791 445.667ZM97.1791 414.976C90.408 414.976 83.6433 416.468 78.493 419.46C73.5412 422.317 70.8058 426.103 70.8058 430.113C70.8058 434.123 73.5284 437.915 78.493 440.772C88.7937 446.717 105.558 446.717 115.865 440.772C120.811 437.915 123.552 434.13 123.552 430.113C123.552 426.096 120.83 422.317 115.865 419.46C110.708 416.468 103.944 414.963 97.1791 414.963V414.976Z"/></g><g filter="url(#onCloudFilter8_i)"><path fill="#F1F1F4" d="M133.379 463.648C133.298 463.637 133.223 463.597 133.169 463.535C133.116 463.473 133.086 463.394 133.086 463.312C133.086 463.23 133.116 463.15 133.169 463.089C133.223 463.027 133.298 462.987 133.379 462.975C138.41 462.586 143.296 461.104 147.696 458.632C152.18 456.031 154.903 453.443 155.716 450.945C155.751 450.869 155.813 450.809 155.889 450.776C155.966 450.743 156.052 450.739 156.131 450.765C156.21 450.791 156.277 450.846 156.319 450.918C156.36 450.99 156.374 451.075 156.357 451.156C155.492 453.828 152.686 456.544 148.029 459.234C143.534 461.753 138.543 463.259 133.405 463.648H133.379Z"/></g><g filter="url(#onCloudFilter9_i)"><path fill="#F1F1F4" d="M156.281 449.555C156.194 449.555 156.11 449.521 156.048 449.46C155.986 449.398 155.95 449.315 155.948 449.228C155.871 447.236 154.417 445.385 151.746 443.815C145.827 440.401 138.108 440.42 130.011 443.866C129.926 443.901 129.83 443.901 129.746 443.865C129.661 443.83 129.594 443.762 129.559 443.677C129.524 443.592 129.525 443.497 129.56 443.412C129.595 443.328 129.663 443.261 129.748 443.226C138.044 439.69 145.974 439.683 152.079 443.226C154.968 444.898 156.563 446.96 156.621 449.196C156.623 449.241 156.616 449.285 156.6 449.327C156.585 449.369 156.561 449.407 156.531 449.44C156.5 449.473 156.464 449.499 156.423 449.518C156.383 449.536 156.339 449.547 156.294 449.548L156.281 449.555Z"/></g><g filter="url(#onCloudFilter10_i)"><path fill="#F1F1F4" d="M128.251 463.648H128.219C125.701 463.475 123.247 462.772 121.019 461.585C118.93 460.381 117.63 458.747 117.258 456.87C117.234 456.738 117.241 456.602 117.279 456.473C117.317 456.344 117.384 456.225 117.476 456.127C117.693 455.919 117.953 455.761 118.237 455.663C118.521 455.566 118.824 455.532 119.123 455.564C119.441 455.544 119.759 455.619 120.035 455.78C120.311 455.941 120.533 456.18 120.673 456.467C121.151 457.894 122.173 459.075 123.517 459.753C128.776 462.783 138.891 461.88 146.085 457.729C150.717 455.051 153.17 452.322 153.17 449.837C153.17 448.088 151.927 446.448 149.583 445.09C143.523 441.592 135.298 442.329 127.021 447.114C124.03 448.837 121.896 450.958 120.987 453.065C120.838 453.31 120.625 453.508 120.37 453.639C120.116 453.77 119.831 453.829 119.545 453.808C119.258 453.834 118.969 453.79 118.703 453.678C118.437 453.566 118.203 453.391 118.021 453.168C117.948 453.054 117.905 452.924 117.897 452.789C117.889 452.655 117.916 452.52 117.976 452.399C119.199 449.933 121.659 447.575 125.093 445.59C125.171 445.546 125.264 445.534 125.35 445.558C125.436 445.582 125.51 445.64 125.554 445.718C125.577 445.756 125.591 445.798 125.597 445.842C125.603 445.885 125.599 445.93 125.587 445.972C125.575 446.015 125.555 446.055 125.527 446.089C125.499 446.123 125.465 446.152 125.426 446.172C122.108 448.094 119.744 450.349 118.578 452.7C118.568 452.715 118.562 452.733 118.562 452.751C118.562 452.77 118.568 452.788 118.578 452.803C118.701 452.921 118.848 453.011 119.01 453.065C119.172 453.12 119.344 453.137 119.513 453.116C119.67 453.132 119.829 453.109 119.975 453.05C120.121 452.991 120.251 452.897 120.353 452.777C121.313 450.535 123.555 448.293 126.669 446.512C135.163 441.605 143.632 440.868 149.903 444.488C152.465 445.974 153.83 447.812 153.83 449.817C153.83 452.598 151.332 455.448 146.405 458.293C139.039 462.552 128.61 463.456 123.171 460.317C121.676 459.551 120.542 458.228 120.013 456.633C119.962 456.454 119.59 456.249 119.078 456.217C118.88 456.193 118.68 456.211 118.489 456.268C118.298 456.325 118.121 456.421 117.97 456.55C117.946 456.572 117.929 456.599 117.918 456.629C117.907 456.659 117.902 456.691 117.905 456.723C118.239 458.401 119.43 459.875 121.345 460.983C123.489 462.121 125.849 462.794 128.27 462.956C128.351 462.967 128.426 463.008 128.48 463.069C128.534 463.131 128.563 463.21 128.563 463.292C128.563 463.374 128.534 463.454 128.48 463.515C128.426 463.577 128.351 463.617 128.27 463.629L128.251 463.648Z"/></g><g filter="url(#onCloudFilter11_i)"><path fill="#F1F1F4" d="M136.731 460.17C136.484 460.18 136.239 460.142 136.008 460.056C135.776 459.97 135.565 459.839 135.385 459.67C135.284 459.568 135.212 459.44 135.178 459.3C135.144 459.159 135.15 459.013 135.193 458.875C135.284 458.669 135.428 458.491 135.611 458.358C135.793 458.225 136.007 458.143 136.231 458.12C138.481 457.674 140.645 456.867 142.637 455.73C145.75 453.937 147.512 452.143 147.762 450.541C147.81 450.133 147.761 449.72 147.618 449.335C147.476 448.949 147.244 448.603 146.942 448.325C146.836 448.225 146.757 448.099 146.713 447.96C146.669 447.821 146.662 447.673 146.692 447.531C146.759 447.331 146.874 447.152 147.028 447.008C147.181 446.864 147.367 446.759 147.57 446.704C147.957 446.559 148.375 446.519 148.783 446.589C149.19 446.659 149.572 446.836 149.889 447.101C150.318 447.511 150.653 448.011 150.869 448.564C151.085 449.118 151.176 449.712 151.138 450.304C151.01 451.964 149.805 453.687 147.563 455.429C147.528 455.456 147.488 455.476 147.446 455.487C147.403 455.499 147.359 455.502 147.315 455.496C147.271 455.491 147.229 455.476 147.191 455.454C147.153 455.432 147.119 455.403 147.092 455.368C147.065 455.333 147.046 455.293 147.034 455.251C147.023 455.208 147.02 455.164 147.025 455.12C147.031 455.077 147.045 455.034 147.067 454.996C147.089 454.958 147.118 454.924 147.153 454.897C149.235 453.283 150.356 451.726 150.471 450.26C150.495 449.764 150.412 449.268 150.228 448.807C150.043 448.346 149.761 447.931 149.402 447.588C149.173 447.422 148.906 447.314 148.626 447.275C148.345 447.236 148.06 447.266 147.794 447.364C147.499 447.467 147.371 447.614 147.352 447.704C147.333 447.793 147.352 447.787 147.422 447.883C147.801 448.231 148.09 448.666 148.265 449.15C148.44 449.634 148.496 450.153 148.428 450.663C148.172 452.502 146.346 454.411 143.002 456.339C140.946 457.507 138.716 458.34 136.398 458.805C136.292 458.814 136.189 458.846 136.097 458.899C136.005 458.952 135.926 459.025 135.866 459.113C135.866 459.113 135.866 459.17 135.917 459.247C136.084 459.374 136.277 459.461 136.482 459.502C136.688 459.544 136.9 459.537 137.102 459.484C139.648 458.946 142.096 458.019 144.36 456.736C144.438 456.692 144.531 456.681 144.617 456.705C144.704 456.729 144.777 456.786 144.821 456.864C144.844 456.902 144.859 456.944 144.865 456.987C144.871 457.031 144.869 457.075 144.857 457.117C144.846 457.16 144.826 457.2 144.799 457.234C144.772 457.269 144.738 457.298 144.7 457.319C142.375 458.64 139.86 459.593 137.243 460.144C137.074 460.17 136.902 460.179 136.731 460.17Z"/></g><g filter="url(#onCloudFilter12_i)"><path fill="#F1F1F4" d="M131.382 460.688H131.305C129.158 460.694 127.042 460.18 125.136 459.189C123.375 458.171 122.439 456.742 122.439 455.064C122.439 452.502 124.675 449.696 128.416 447.531C134.348 444.11 140.28 443.008 145.11 444.437C145.331 444.476 145.538 444.572 145.71 444.716C145.882 444.86 146.013 445.046 146.09 445.257C146.131 445.397 146.134 445.545 146.099 445.687C146.064 445.828 145.993 445.958 145.892 446.064C145.591 446.33 145.225 446.513 144.832 446.593C144.438 446.672 144.03 446.647 143.65 446.519C140.197 445.481 135.841 446.217 131.382 448.581C131.216 448.671 131.152 448.761 131.152 448.818C131.152 448.876 131.228 448.959 131.344 449.03C131.56 449.131 131.796 449.183 132.036 449.183C132.275 449.183 132.511 449.131 132.727 449.03C137.16 446.685 141.299 446.256 144.066 447.857C145.181 448.498 145.77 449.344 145.77 450.292C145.77 451.861 144.232 453.539 141.209 455.288C137.058 457.684 131.6 458.421 129.006 456.935C128.641 456.749 128.325 456.482 128.081 456.154C127.836 455.826 127.671 455.447 127.596 455.045C127.443 454.02 127.923 452.88 128.98 451.727C129.044 451.663 129.038 451.624 129.031 451.611C129.025 451.598 128.916 451.438 128.724 451.361C128.489 451.265 128.234 451.229 127.982 451.257C127.731 451.285 127.49 451.376 127.282 451.522C126.116 452.803 125.566 454.084 125.732 455.218C125.826 455.697 126.03 456.148 126.328 456.535C126.626 456.922 127.01 457.234 127.449 457.447C128.697 458.092 130.074 458.446 131.478 458.485C132.343 458.53 132.958 458.959 132.99 459.523C132.995 459.647 132.973 459.772 132.927 459.887C132.881 460.003 132.81 460.108 132.721 460.195C132.355 460.525 131.875 460.702 131.382 460.688ZM140.722 444.501C137.013 444.501 132.888 445.731 128.756 448.114C125.22 450.157 123.112 452.752 123.112 455.064C123.112 456.486 123.932 457.716 125.476 458.607C127.285 459.538 129.29 460.021 131.324 460.016C131.654 460.046 131.982 459.947 132.241 459.74C132.283 459.705 132.31 459.654 132.317 459.599C132.317 459.426 131.972 459.202 131.44 459.177C129.932 459.132 128.453 458.747 127.116 458.049C126.591 457.784 126.133 457.402 125.779 456.932C125.424 456.462 125.183 455.917 125.072 455.34C124.867 454.013 125.476 452.502 126.789 451.086C127.089 450.836 127.452 450.673 127.839 450.615C128.225 450.557 128.62 450.607 128.98 450.759C129.149 450.814 129.302 450.909 129.426 451.037C129.549 451.164 129.641 451.319 129.691 451.49C129.717 451.618 129.71 451.75 129.672 451.876C129.634 452.001 129.566 452.115 129.473 452.207C128.576 453.181 128.141 454.161 128.262 454.962C128.322 455.264 128.451 455.548 128.639 455.793C128.827 456.037 129.068 456.235 129.345 456.371C131.734 457.755 136.904 457.011 140.876 454.725C143.605 453.149 145.104 451.586 145.104 450.311C145.104 449.606 144.642 448.978 143.733 448.46C141.17 446.98 137.276 447.409 133.048 449.645C132.73 449.796 132.381 449.872 132.029 449.866C131.676 449.861 131.33 449.774 131.017 449.613C130.863 449.539 130.733 449.425 130.639 449.283C130.545 449.141 130.492 448.976 130.485 448.805C130.501 448.628 130.563 448.459 130.667 448.314C130.771 448.17 130.912 448.056 131.075 447.985C135.693 445.538 140.229 444.783 143.848 445.872C144.106 445.96 144.382 445.984 144.651 445.94C144.921 445.896 145.175 445.787 145.392 445.622C145.475 445.526 145.462 445.468 145.456 445.442C145.398 445.348 145.32 445.266 145.229 445.203C145.137 445.14 145.034 445.097 144.924 445.077C143.562 444.688 142.152 444.493 140.735 444.501H140.722Z"/></g><g filter="url(#onCloudFilter13_i)"><path fill="#F1F1F4" d="M132.996 456.237C132.307 456.267 131.621 456.122 131.004 455.814C130.756 455.688 130.547 455.495 130.401 455.258C130.256 455.02 130.178 454.747 130.178 454.469C130.178 453.264 131.459 451.797 133.65 450.548C137.173 448.511 140.248 447.954 142.093 449.017C142.371 449.146 142.61 449.347 142.783 449.599C142.957 449.852 143.059 450.146 143.079 450.452C143.079 451.432 142.189 452.534 140.357 453.732C140.032 453.916 139.666 454.016 139.292 454.023C138.918 454.03 138.549 453.943 138.217 453.77C138.07 453.697 137.944 453.586 137.851 453.449C137.759 453.312 137.704 453.153 137.692 452.989C137.693 452.832 137.736 452.678 137.816 452.543C137.896 452.408 138.01 452.297 138.147 452.22C139.62 451.266 139.62 450.875 139.62 450.875C139.21 450.638 137.967 450.836 135.725 452.156C134.169 453.053 133.528 453.822 133.528 454.033C133.529 454.077 133.521 454.121 133.505 454.162C133.488 454.204 133.464 454.241 133.433 454.273C133.402 454.304 133.365 454.329 133.324 454.347C133.283 454.364 133.239 454.373 133.195 454.373C133.151 454.373 133.107 454.365 133.065 454.349C133.024 454.333 132.987 454.308 132.955 454.277C132.924 454.246 132.899 454.209 132.881 454.168C132.864 454.128 132.855 454.084 132.855 454.039C132.855 453.111 134.777 451.913 135.418 451.573C136.955 450.683 138.992 449.735 139.947 450.292C140.054 450.348 140.145 450.431 140.211 450.534C140.276 450.636 140.313 450.754 140.318 450.875C140.318 451.202 140.152 451.759 138.544 452.797C138.448 452.861 138.384 452.931 138.39 452.989C138.397 453.046 138.441 453.117 138.582 453.2C138.805 453.312 139.051 453.371 139.3 453.371C139.549 453.371 139.795 453.312 140.017 453.2C142.144 451.81 142.439 450.913 142.432 450.503C142.41 450.315 142.339 450.136 142.227 449.983C142.115 449.83 141.965 449.709 141.792 449.632C141.017 449.19 138.717 448.447 134.015 451.163C132.093 452.259 130.882 453.572 130.882 454.501C130.884 454.661 130.932 454.818 131.019 454.953C131.106 455.088 131.23 455.195 131.376 455.263C132.189 455.731 133.797 455.705 135.674 455.192C135.716 455.18 135.76 455.176 135.804 455.181C135.848 455.186 135.89 455.199 135.928 455.221C135.966 455.242 136 455.271 136.027 455.306C136.053 455.341 136.073 455.381 136.084 455.423C136.108 455.51 136.096 455.602 136.051 455.68C136.007 455.758 135.934 455.816 135.847 455.839C134.919 456.099 133.96 456.233 132.996 456.237Z"/></g><g filter="url(#onCloudFilter14_i)"><path fill="#F1F1F4" d="M127.425 444.655C127.389 444.664 127.351 444.664 127.316 444.655L118.45 439.53C118.401 439.502 118.364 439.455 118.349 439.401C118.334 439.346 118.342 439.288 118.37 439.238C118.398 439.189 118.444 439.153 118.499 439.138C118.554 439.123 118.612 439.13 118.661 439.158L127.527 444.283C127.568 444.306 127.601 444.341 127.62 444.385C127.639 444.428 127.643 444.476 127.631 444.522C127.619 444.567 127.592 444.608 127.555 444.636C127.518 444.665 127.472 444.681 127.425 444.68V444.655Z"/></g><path fill="#fff" d="M102.673 433.783L101.469 433.088C100.73 433.453 99.9951 433.695 99.2649 433.814C98.5257 433.929 97.7865 433.971 97.0472 433.939L97.1419 432.729C97.7098 432.755 98.2552 432.732 98.7781 432.659C99.292 432.581 99.7788 432.44 100.239 432.237L97.4935 430.653C96.2945 431.105 95.2623 431.337 94.3968 431.347C93.5314 431.347 92.7651 431.155 92.098 430.77C91.3768 430.353 91.0343 429.885 91.0703 429.364C91.0974 428.839 91.485 428.303 92.2333 427.756L91.0162 427.053L92.355 426.28L93.572 426.983C94.203 426.692 94.8296 426.491 95.4516 426.382C96.0826 426.267 96.7407 426.231 97.4259 426.273L97.2771 427.467C96.8805 427.446 96.4748 427.462 96.0601 427.514C95.6544 427.561 95.2352 427.668 94.8025 427.834L97.3177 429.286C98.5077 428.859 99.5309 428.633 100.387 428.607C101.235 428.576 102.01 428.763 102.713 429.169C103.407 429.57 103.781 430.046 103.835 430.598C103.881 431.144 103.524 431.709 102.767 432.292L104.011 433.01L102.673 433.783ZM93.6666 429.786C93.9822 429.968 94.3157 430.057 94.6673 430.051C95.0279 430.041 95.4651 429.95 95.979 429.778L93.6937 428.459C93.0536 428.984 93.0446 429.427 93.6666 429.786ZM101.212 430.176C100.942 430.02 100.622 429.934 100.252 429.919C99.8824 429.893 99.4092 429.973 98.8322 430.161L101.32 431.597C101.618 431.332 101.753 431.077 101.726 430.832C101.699 430.577 101.528 430.358 101.212 430.176Z"/></g><g filter="url(#onCloudFilter15_f)" opacity=".92"><path fill="#000" fill-opacity=".1" d="M680.944 623.765C682.002 623.205 683.194 622.906 684.406 622.898C685.619 622.89 686.812 623.172 687.876 623.719L736.067 648.35C740.611 650.673 741.242 657.022 736.824 659.564L645.705 710.682C644.646 711.243 643.453 711.541 642.24 711.549C641.026 711.558 639.831 711.275 638.767 710.729L590.582 686.097C586.038 683.774 585.407 677.426 589.826 674.884L680.944 623.765Z"/></g><rect width="112.854" height="70.211" x=".311" y="-.008" fill="url(#onCloudPaint9_linear)" stroke="#F1F1F1" stroke-width=".359" rx="1.256" transform="matrix(0.852845 -0.522165 0.87863 0.477502 577.055 654.864)"/><g filter="url(#onCloudFilter16_i)"><path fill="#F1F1F4" d="M602.213 655.975C601.516 655.596 601.5 654.954 602.176 654.54L613.346 647.701C614.022 647.287 615.135 647.258 615.832 647.636L624.755 652.486C625.451 652.864 625.468 653.507 624.792 653.921L613.622 660.76C612.945 661.174 611.832 661.203 611.136 660.824L602.213 655.975Z"/></g><g filter="url(#onCloudFilter17_i)"><path fill="#F1F1F4" d="M642.359 628.647C641.663 628.268 641.646 627.625 642.323 627.211L672.495 608.738C673.171 608.324 674.284 608.295 674.981 608.674L683.904 613.523C684.601 613.902 684.617 614.544 683.941 614.958L653.768 633.432C653.092 633.846 651.979 633.875 651.282 633.496L642.359 628.647Z"/></g><g filter="url(#onCloudFilter18_i)"><path fill="#F1F1F4" d="M656.688 636.813C656.339 636.623 656.331 636.302 656.669 636.095L688.066 616.872C688.405 616.665 688.961 616.65 689.309 616.84L692.398 618.518C692.747 618.708 692.755 619.029 692.417 619.236L661.019 638.46C660.681 638.667 660.124 638.681 659.776 638.492L656.688 636.813Z"/></g><path fill="#CFCFDA" fill-rule="evenodd" d="M609.377 652.644L604.339 653.217L604.683 653.002L609.488 652.435L611.43 653.49L609.131 654.898L612.413 656.682L616.956 653.901L613.434 651.986L618.326 648.991L618.566 649.121L613.907 651.974L617.189 653.758L621.849 650.905L622.089 651.036L614.953 655.405L616.536 656.265L621.765 655.78L621.473 655.962L616.419 656.471L614.72 655.547L608.469 659.375L608.229 659.244L612.18 656.825L608.898 655.041L604.946 657.46L604.706 657.33L610.958 653.503L609.377 652.644Z" clip-rule="evenodd"/><g filter="url(#onCloudFilter19_i)"><path fill="#F1F1F1" d="M668.81 659.872C668.542 660.036 668.264 660.143 667.976 660.193C667.688 660.238 667.358 660.216 666.986 660.124C666.617 660.031 666.192 659.854 665.711 659.593C665.23 659.331 664.898 659.097 664.715 658.89C664.535 658.682 664.478 658.494 664.544 658.327C664.609 658.156 664.776 657.989 665.043 657.825C665.311 657.661 665.589 657.556 665.877 657.511C666.169 657.463 666.499 657.485 666.868 657.579C667.236 657.668 667.661 657.843 668.142 658.104C668.623 658.366 668.953 658.601 669.133 658.81C669.313 659.015 669.37 659.202 669.305 659.373C669.243 659.542 669.078 659.708 668.81 659.872ZM668.216 659.549C668.35 659.467 668.414 659.385 668.408 659.303C668.403 659.216 668.334 659.123 668.202 659.024C668.074 658.923 667.874 658.798 667.602 658.65L667.23 658.448C666.958 658.3 666.73 658.192 666.547 658.124C666.368 658.055 666.204 658.022 666.058 658.025C665.912 658.025 665.771 658.066 665.638 658.148C665.504 658.23 665.44 658.314 665.445 658.401C665.451 658.483 665.518 658.575 665.646 658.676C665.778 658.776 665.98 658.899 666.252 659.047L666.623 659.249C666.896 659.397 667.122 659.506 667.301 659.576C667.484 659.644 667.649 659.678 667.796 659.678C667.942 659.674 668.082 659.631 668.216 659.549Z"/><path fill="#F1F1F1" d="M672.325 657.72C671.92 657.968 671.511 658.106 671.096 658.135C670.679 658.162 670.302 658.084 669.966 657.901L669.87 657.85L670.586 657.411L670.698 657.472C670.853 657.556 671.02 657.593 671.197 657.583C671.371 657.57 671.546 657.51 671.721 657.403C671.879 657.306 671.964 657.208 671.975 657.107C671.983 657.004 671.904 656.907 671.737 656.817C671.543 656.711 671.355 656.669 671.174 656.689C670.993 656.71 670.817 656.773 670.646 656.878L670.383 657.039L669.789 656.716L670.067 656.546C670.208 656.46 670.28 656.366 670.285 656.265C670.285 656.163 670.203 656.066 670.036 655.976C669.884 655.893 669.732 655.856 669.579 655.864C669.429 655.87 669.283 655.916 669.143 656.002C668.995 656.092 668.919 656.184 668.914 656.277C668.906 656.367 668.976 656.453 669.125 656.534L669.226 656.589L668.51 657.027L668.361 656.946C668.163 656.839 668.04 656.714 667.991 656.572C667.938 656.429 667.959 656.281 668.053 656.13C668.146 655.974 668.306 655.827 668.533 655.688C668.894 655.468 669.267 655.339 669.653 655.303C670.043 655.265 670.397 655.332 670.715 655.505C670.916 655.615 671.033 655.736 671.064 655.868C671.095 655.996 671.066 656.137 670.976 656.29L670.997 656.301C671.249 656.216 671.508 656.18 671.774 656.194C672.039 656.207 672.287 656.276 672.516 656.401C672.729 656.516 672.861 656.65 672.914 656.802C672.966 656.949 672.943 657.103 672.842 657.262C672.738 657.42 672.566 657.573 672.325 657.72Z"/><path fill="#F1F1F1" d="M675.764 655.615C675.393 655.842 675.01 655.955 674.616 655.955C674.226 655.953 673.859 655.859 673.516 655.673L674.232 655.234C674.412 655.332 674.583 655.387 674.743 655.399C674.9 655.409 675.053 655.369 675.201 655.279C675.348 655.189 675.417 655.099 675.408 655.011C675.399 654.918 675.332 654.825 675.207 654.729C675.083 654.634 674.897 654.517 674.649 654.378C674.648 654.473 674.612 654.574 674.542 654.683C674.471 654.787 674.362 654.885 674.215 654.975C673.864 655.19 673.494 655.292 673.103 655.282C672.716 655.27 672.34 655.164 671.975 654.966C671.735 654.836 671.576 654.69 671.499 654.529C671.418 654.366 671.419 654.204 671.502 654.042C671.585 653.877 671.739 653.725 671.966 653.587C672.395 653.324 672.856 653.199 673.348 653.213C673.836 653.224 674.402 653.405 675.046 653.755C675.538 654.022 675.881 654.266 676.075 654.486C676.269 654.707 676.335 654.907 676.273 655.088C676.212 655.269 676.042 655.444 675.764 655.615ZM673.811 654.554C673.976 654.453 674.047 654.346 674.023 654.234C673.999 654.122 673.892 654.014 673.701 653.91C673.52 653.812 673.332 653.76 673.137 653.753C672.938 653.744 672.756 653.79 672.591 653.891C672.426 653.991 672.359 654.098 672.39 654.21C672.417 654.32 672.521 654.424 672.702 654.522C672.893 654.626 673.084 654.682 673.276 654.691C673.468 654.7 673.647 654.655 673.811 654.554Z"/><path fill="#F1F1F1" d="M677.861 654.037C677.659 653.927 677.522 653.803 677.448 653.664C677.371 653.523 677.335 653.382 677.338 653.241C677.345 653.097 677.373 652.923 677.424 652.716C677.461 652.534 677.483 652.387 677.491 652.276C677.502 652.163 677.487 652.056 677.446 651.954C677.394 651.827 677.281 651.716 677.108 651.622C676.995 651.56 676.854 651.532 676.687 651.536C676.52 651.536 676.361 651.583 676.21 651.675C675.87 651.883 675.868 652.079 676.204 652.261L676.421 652.379L675.721 652.808C675.643 652.782 675.566 652.748 675.488 652.705C675.12 652.506 674.963 652.283 675.016 652.038C675.072 651.791 675.282 651.556 675.646 651.333C675.965 651.138 676.275 651.022 676.574 650.986C676.873 650.95 677.127 650.96 677.338 651.015C677.552 651.068 677.728 651.132 677.866 651.207C678.11 651.339 678.274 651.49 678.359 651.659C678.44 651.826 678.472 651.99 678.455 652.152C678.438 652.309 678.398 652.496 678.334 652.711C678.286 652.875 678.258 653.002 678.249 653.093C678.244 653.158 678.253 653.212 678.275 653.256L679.876 652.275L680.523 652.627L678.052 654.14L677.861 654.037Z"/><path fill="#F1F1F1" d="M653.749 667.104C654.116 667.303 654.124 667.641 653.769 667.858C653.413 668.076 652.828 668.091 652.462 667.892C652.096 667.693 652.087 667.355 652.443 667.137C652.798 666.92 653.383 666.905 653.749 667.104Z"/><path fill="#F1F1F1" d="M640.431 675.257C640.797 675.457 640.806 675.794 640.45 676.012C640.095 676.23 639.51 676.245 639.144 676.046C638.777 675.847 638.769 675.509 639.124 675.291C639.48 675.074 640.065 675.058 640.431 675.257Z"/><path fill="#F1F1F1" d="M656.648 665.33C657.014 665.529 657.023 665.867 656.667 666.085C656.312 666.302 655.727 666.317 655.36 666.118C654.994 665.919 654.985 665.581 655.341 665.364C655.696 665.146 656.282 665.131 656.648 665.33Z"/><path fill="#F1F1F1" d="M643.329 673.484C643.696 673.683 643.704 674.021 643.349 674.238C642.993 674.456 642.408 674.471 642.042 674.272C641.676 674.073 641.667 673.735 642.023 673.518C642.378 673.3 642.963 673.285 643.329 673.484Z"/><path fill="#F1F1F1" d="M659.542 663.557C659.909 663.756 659.917 664.094 659.562 664.311C659.206 664.529 658.621 664.544 658.255 664.345C657.889 664.146 657.88 663.808 658.235 663.591C658.591 663.373 659.176 663.358 659.542 663.557Z"/><path fill="#F1F1F1" d="M646.226 671.711C646.592 671.91 646.601 672.247 646.245 672.465C645.89 672.683 645.305 672.698 644.939 672.499C644.572 672.3 644.564 671.962 644.919 671.744C645.275 671.527 645.86 671.512 646.226 671.711Z"/><path fill="#F1F1F1" d="M662.441 661.783C662.807 661.982 662.816 662.32 662.46 662.538C662.105 662.756 661.52 662.771 661.153 662.572C660.787 662.373 660.778 662.035 661.134 661.817C661.489 661.599 662.075 661.584 662.441 661.783Z"/><path fill="#F1F1F1" d="M649.122 669.937C649.489 670.136 649.497 670.474 649.142 670.692C648.786 670.909 648.201 670.924 647.835 670.725C647.469 670.526 647.46 670.189 647.816 669.971C648.171 669.753 648.756 669.738 649.122 669.937Z"/></g><rect width="66.06" height="2.059" fill="#F1F1F1" transform="matrix(0.87863 0.477502 0.0257859 0.999667 578.639 655.595)"/><path fill="#E9E9E9" d="M734.865 629.44L734.924 631.705L641.632 689.095L641.573 686.829L734.865 629.44Z"/><path fill="url(#onCloudPaint10_linear)" d="M641.59 686.819L641.648 689.084C641.648 689.084 640.467 689.937 639.174 689.97C638.082 689.998 636.735 689.199 636.735 689.199L636.681 687.131C636.681 687.131 637.606 687.85 639.155 687.755C640.579 687.667 641.59 686.819 641.59 686.819Z"/><path fill="#F1F1F1" d="M577.895 654.54C577.895 654.54 577.927 654.992 578.077 655.177C578.32 655.48 578.859 655.819 578.859 655.819L578.912 657.856C578.912 657.856 578.495 657.64 578.308 657.428C578.098 657.192 577.948 656.601 577.948 656.601L577.895 654.54Z"/><path fill="#DF6461" d="M478.45 771.448C475.578 773.106 470.922 773.106 468.05 771.448C466.72 770.68 466.006 769.692 465.908 768.687C465.793 767.521 465.562 765.899 467.104 765.009C469.976 763.351 476.341 763.103 479.213 764.761C481.486 766.565 481.322 769.79 478.45 771.448ZM469.993 766.565C468.194 767.604 468.194 769.287 469.993 770.326C471.792 771.364 474.708 771.364 476.507 770.326C478.305 769.287 478.305 767.604 476.507 766.565C474.708 765.527 471.792 765.527 469.993 766.565Z"/><path fill="url(#onCloudPaint11_linear)" d="M478.45 770.006C475.578 771.664 470.922 771.664 468.05 770.006C465.178 768.348 465.178 765.66 468.05 764.002C470.922 762.344 475.578 762.344 478.45 764.002C481.322 765.66 481.322 768.348 478.45 770.006Z"/><path stroke="#EE786C" stroke-dasharray="5 5" d="M1498.56 298.584L1186.33 474.12C1179.01 478.235 1178.82 488.705 1185.98 493.09L1541 710.402"/><rect width="455.869" height="168.122" fill="url(#onCloudPaint12_linear)" transform="matrix(-1.19249e-08 -1 -1 1.19249e-08 1465.83 716.868)"/><path class="on-cloud-benefits-line on-cloud-benefits-line-4" stroke="url(#onCloudPaint13_linear)" d="M1528.8 309.492L1268.95 459.469"/><path fill="#DF6461" d="M1264.85 463.705C1267.43 464.398 1271.07 463.424 1272.97 461.529C1273.84 460.652 1274.19 459.731 1274.06 458.925C1273.91 457.992 1273.75 456.677 1272.36 456.304C1269.77 455.611 1264.75 456.748 1262.85 458.644C1261.45 460.528 1262.26 463.011 1264.85 463.705ZM1270.43 458.124C1272.05 458.558 1272.4 459.873 1271.21 461.06C1270.03 462.247 1267.75 462.857 1266.13 462.422C1264.51 461.988 1264.15 460.674 1265.34 459.487C1266.53 458.3 1268.81 457.689 1270.43 458.124Z"/><path fill="url(#onCloudPaint14_linear)" d="M1264.54 462.579C1267.13 463.273 1270.77 462.299 1272.66 460.403C1274.56 458.508 1274 456.41 1271.41 455.716C1268.82 455.022 1265.18 455.996 1263.29 457.892C1261.39 459.787 1261.96 461.885 1264.54 462.579Z"/><rect width="135.673" height="249.748" fill="url(#onCloudPaint15_linear)" transform="matrix(0.678336 -0.734752 -0.734752 -0.678336 735.805 972.726)"/><path fill="#DF6461" d="M1219.45 514.448C1216.58 516.106 1211.92 516.106 1209.05 514.448C1207.72 513.68 1207.01 512.692 1206.91 511.687C1206.79 510.521 1206.56 508.899 1208.1 508.009C1210.98 506.351 1217.34 506.103 1220.21 507.761C1222.49 509.565 1222.32 512.79 1219.45 514.448ZM1210.99 509.565C1209.19 510.604 1209.19 512.287 1210.99 513.326C1212.79 514.364 1215.71 514.364 1217.51 513.326C1219.31 512.287 1219.31 510.604 1217.51 509.565C1215.71 508.527 1212.79 508.527 1210.99 509.565Z"/><path fill="url(#onCloudPaint16_linear)" d="M1219.45 513.006C1216.58 514.664 1211.92 514.664 1209.05 513.006C1206.18 511.348 1206.18 508.66 1209.05 507.002C1211.92 505.344 1216.58 505.344 1219.45 507.002C1222.32 508.66 1222.32 511.348 1219.45 513.006Z"/><path stroke="#EE786C" stroke-dasharray="5 5" d="M1214 512.5L1008.12 634.816C1001.26 638.891 1000.88 648.687 1007.41 653.274L1054 686"/><g filter="url(#onCloudFilter20_f)" opacity=".92"><path fill="#000" fill-opacity=".1" d="M1132.59 675.75C1138.97 679.437 1142.78 684.202 1144.18 689.558L1167.23 699.25L1139.31 710.131C1134.29 717.609 1125.89 725.117 1114.4 731.75C1082.59 750.113 1039.17 754.814 1017.4 742.25C995.642 729.686 1003.78 704.613 1035.59 686.25C1067.4 667.887 1110.82 663.186 1132.59 675.75Z"/></g><path fill="#F1F1F1" d="M1121.19 663.527C1121.45 663.671 1121.62 663.859 1121.69 664.061C1125.12 673.391 1148.48 679.454 1153.88 680.743C1154.56 680.904 1155 681.28 1155 681.703L1155 686.481C1155 686.807 1154.73 687.113 1154.27 687.304L1128.73 697.955C1128.45 698.07 1128.24 698.228 1128.12 698.411C1123.08 705.796 1114.74 713.2 1103.4 719.75C1071.59 738.113 1028.17 742.814 1006.4 730.25C994.708 723.497 994.493 706.233 994.499 704.621C994.499 704.532 994.52 704.459 994.562 704.373C998.966 695.412 1010.79 682.218 1024.59 674.25C1056.21 655.996 1099.31 651.242 1121.19 663.527Z"/><path fill="url(#onCloudPaint17_linear)" stroke="#F1F1F1" stroke-width=".359" d="M1121.43 657.84C1127.61 661.409 1131.37 665.996 1132.85 671.159C1132.93 671.459 1133.21 671.73 1133.64 671.911L1154.07 680.5C1154.93 680.863 1154.91 681.61 1154.03 681.955L1128.64 691.848C1128.31 691.979 1128.05 692.164 1127.9 692.381C1122.87 699.743 1114.56 707.126 1103.24 713.66C1087.37 722.826 1068.6 728.578 1051.09 730.473C1033.59 732.368 1017.37 730.404 1006.56 724.16C995.745 717.916 992.343 708.555 995.625 698.448C998.907 688.342 1008.87 677.506 1024.75 668.34C1040.62 659.174 1059.39 653.422 1076.9 651.527C1094.4 649.632 1110.62 651.596 1121.43 657.84Z"/><g filter="url(#onCloudFilter21_i)"><rect width="65" height="8" fill="#F1F1F4" transform="matrix(0.866025 -0.5 0.866025 0.5 1018.96 697.5)"/></g><g filter="url(#onCloudFilter22_i)"><rect width="65" height="8" fill="#F1F1F4" transform="matrix(0.866025 -0.5 0.866025 0.5 1031.95 705)"/></g><g filter="url(#onCloudFilter23_i)"><rect width="65" height="8" fill="#F1F1F4" transform="matrix(0.866025 -0.5 0.866025 0.5 1044.94 712.5)"/></g></g><defs><filter id="onCloudFilter0_i" width="121.701" height="67.743" x="42.791" y="439.595" color-interpolation-filters="sRGB" filterUnits="userSpaceOnUse"><feFlood flood-opacity="0" result="BackgroundImageFix"/><feBlend in="SourceGraphic" in2="BackgroundImageFix" mode="normal" result="shape"/><feColorMatrix in="SourceAlpha" result="hardAlpha" type="matrix" values="0 0 0 0 0 0 0 0 0 0 0 0 0 0 0 0 0 0 127 0"/><feOffset dx=".835" dy=".835"/><feGaussianBlur stdDeviation=".418"/><feComposite in2="hardAlpha" k2="-1" k3="1" operator="arithmetic"/><feColorMatrix type="matrix" values="0 0 0 0 0.280972 0 0 0 0 0.354025 0 0 0 0 0.495833 0 0 0 0.19 0"/><feBlend in2="shape" mode="normal" result="effect1_innerShadow"/></filter><filter id="onCloudFilter1_f" width="162.835" height="102.711" x="44.526" y="414.068" color-interpolation-filters="sRGB" filterUnits="userSpaceOnUse"><feFlood flood-opacity="0" result="BackgroundImageFix"/><feBlend in="SourceGraphic" in2="BackgroundImageFix" mode="normal" result="shape"/><feGaussianBlur result="effect1_foregroundBlur" stdDeviation="6.68"/></filter><filter id="onCloudFilter2_i" width="9.188" height="5.65" x="54.385" y="405.012" color-interpolation-filters="sRGB" filterUnits="userSpaceOnUse"><feFlood flood-opacity="0" result="BackgroundImageFix"/><feBlend in="SourceGraphic" in2="BackgroundImageFix" mode="normal" result="shape"/><feColorMatrix in="SourceAlpha" result="hardAlpha" type="matrix" values="0 0 0 0 0 0 0 0 0 0 0 0 0 0 0 0 0 0 127 0"/><feOffset dx=".835" dy=".835"/><feGaussianBlur stdDeviation=".418"/><feComposite in2="hardAlpha" k2="-1" k3="1" operator="arithmetic"/><feColorMatrix type="matrix" values="0 0 0 0 0.280972 0 0 0 0 0.354025 0 0 0 0 0.495833 0 0 0 0.19 0"/><feBlend in2="shape" mode="normal" result="effect1_innerShadow"/></filter><filter id="onCloudFilter3_i" width="3.743" height="2.52" x="43.223" y="423.15" color-interpolation-filters="sRGB" filterUnits="userSpaceOnUse"><feFlood flood-opacity="0" result="BackgroundImageFix"/><feBlend in="SourceGraphic" in2="BackgroundImageFix" mode="normal" result="shape"/><feColorMatrix in="SourceAlpha" result="hardAlpha" type="matrix" values="0 0 0 0 0 0 0 0 0 0 0 0 0 0 0 0 0 0 127 0"/><feOffset dx=".835" dy=".835"/><feGaussianBlur stdDeviation=".418"/><feComposite in2="hardAlpha" k2="-1" k3="1" operator="arithmetic"/><feColorMatrix type="matrix" values="0 0 0 0 0.280972 0 0 0 0 0.354025 0 0 0 0 0.495833 0 0 0 0.08 0"/><feBlend in2="shape" mode="normal" result="effect1_innerShadow"/></filter><filter id="onCloudFilter4_i" width="3.75" height="2.513" x="44.813" y="422.234" color-interpolation-filters="sRGB" filterUnits="userSpaceOnUse"><feFlood flood-opacity="0" result="BackgroundImageFix"/><feBlend in="SourceGraphic" in2="BackgroundImageFix" mode="normal" result="shape"/><feColorMatrix in="SourceAlpha" result="hardAlpha" type="matrix" values="0 0 0 0 0 0 0 0 0 0 0 0 0 0 0 0 0 0 127 0"/><feOffset dx=".835" dy=".835"/><feGaussianBlur stdDeviation=".418"/><feComposite in2="hardAlpha" k2="-1" k3="1" operator="arithmetic"/><feColorMatrix type="matrix" values="0 0 0 0 0.280972 0 0 0 0 0.354025 0 0 0 0 0.495833 0 0 0 0.08 0"/><feBlend in2="shape" mode="normal" result="effect1_innerShadow"/></filter><filter id="onCloudFilter5_i" width="3.743" height="2.52" x="46.406" y="421.311" color-interpolation-filters="sRGB" filterUnits="userSpaceOnUse"><feFlood flood-opacity="0" result="BackgroundImageFix"/><feBlend in="SourceGraphic" in2="BackgroundImageFix" mode="normal" result="shape"/><feColorMatrix in="SourceAlpha" result="hardAlpha" type="matrix" values="0 0 0 0 0 0 0 0 0 0 0 0 0 0 0 0 0 0 127 0"/><feOffset dx=".835" dy=".835"/><feGaussianBlur stdDeviation=".418"/><feComposite in2="hardAlpha" k2="-1" k3="1" operator="arithmetic"/><feColorMatrix type="matrix" values="0 0 0 0 0.280972 0 0 0 0 0.354025 0 0 0 0 0.495833 0 0 0 0.08 0"/><feBlend in2="shape" mode="normal" result="effect1_innerShadow"/></filter><filter id="onCloudFilter6_i" width="3.75" height="2.513" x="47.996" y="420.395" color-interpolation-filters="sRGB" filterUnits="userSpaceOnUse"><feFlood flood-opacity="0" result="BackgroundImageFix"/><feBlend in="SourceGraphic" in2="BackgroundImageFix" mode="normal" result="shape"/><feColorMatrix in="SourceAlpha" result="hardAlpha" type="matrix" values="0 0 0 0 0 0 0 0 0 0 0 0 0 0 0 0 0 0 127 0"/><feOffset dx=".835" dy=".835"/><feGaussianBlur stdDeviation=".418"/><feComposite in2="hardAlpha" k2="-1" k3="1" operator="arithmetic"/><feColorMatrix type="matrix" values="0 0 0 0 0.280972 0 0 0 0 0.354025 0 0 0 0 0.495833 0 0 0 0.08 0"/><feBlend in2="shape" mode="normal" result="effect1_innerShadow"/></filter><filter id="onCloudFilter7_i" width="54.44" height="31.974" x="70.357" y="414.527" color-interpolation-filters="sRGB" filterUnits="userSpaceOnUse"><feFlood flood-opacity="0" result="BackgroundImageFix"/><feBlend in="SourceGraphic" in2="BackgroundImageFix" mode="normal" result="shape"/><feColorMatrix in="SourceAlpha" result="hardAlpha" type="matrix" values="0 0 0 0 0 0 0 0 0 0 0 0 0 0 0 0 0 0 127 0"/><feOffset dx=".835" dy=".835"/><feGaussianBlur stdDeviation=".418"/><feComposite in2="hardAlpha" k2="-1" k3="1" operator="arithmetic"/><feColorMatrix type="matrix" values="0 0 0 0 0.280972 0 0 0 0 0.354025 0 0 0 0 0.495833 0 0 0 0.19 0"/><feBlend in2="shape" mode="normal" result="effect1_innerShadow"/></filter><filter id="onCloudFilter8_i" width="24.113" height="13.735" x="133.086" y="450.748" color-interpolation-filters="sRGB" filterUnits="userSpaceOnUse"><feFlood flood-opacity="0" result="BackgroundImageFix"/><feBlend in="SourceGraphic" in2="BackgroundImageFix" mode="normal" result="shape"/><feColorMatrix in="SourceAlpha" result="hardAlpha" type="matrix" values="0 0 0 0 0 0 0 0 0 0 0 0 0 0 0 0 0 0 127 0"/><feOffset dx=".835" dy=".835"/><feGaussianBlur stdDeviation=".418"/><feComposite in2="hardAlpha" k2="-1" k3="1" operator="arithmetic"/><feColorMatrix type="matrix" values="0 0 0 0 0.280972 0 0 0 0 0.354025 0 0 0 0 0.495833 0 0 0 0.19 0"/><feBlend in2="shape" mode="normal" result="effect1_innerShadow"/></filter><filter id="onCloudFilter9_i" width="27.923" height="9.819" x="129.533" y="440.571" color-interpolation-filters="sRGB" filterUnits="userSpaceOnUse"><feFlood flood-opacity="0" result="BackgroundImageFix"/><feBlend in="SourceGraphic" in2="BackgroundImageFix" mode="normal" result="shape"/><feColorMatrix in="SourceAlpha" result="hardAlpha" type="matrix" values="0 0 0 0 0 0 0 0 0 0 0 0 0 0 0 0 0 0 127 0"/><feOffset dx=".835" dy=".835"/><feGaussianBlur stdDeviation=".418"/><feComposite in2="hardAlpha" k2="-1" k3="1" operator="arithmetic"/><feColorMatrix type="matrix" values="0 0 0 0 0.280972 0 0 0 0 0.354025 0 0 0 0 0.495833 0 0 0 0.19 0"/><feBlend in2="shape" mode="normal" result="effect1_innerShadow"/></filter><filter id="onCloudFilter10_i" width="37.421" height="22.264" x="117.244" y="442.219" color-interpolation-filters="sRGB" filterUnits="userSpaceOnUse"><feFlood flood-opacity="0" result="BackgroundImageFix"/><feBlend in="SourceGraphic" in2="BackgroundImageFix" mode="normal" result="shape"/><feColorMatrix in="SourceAlpha" result="hardAlpha" type="matrix" values="0 0 0 0 0 0 0 0 0 0 0 0 0 0 0 0 0 0 127 0"/><feOffset dx=".835" dy=".835"/><feGaussianBlur stdDeviation=".418"/><feComposite in2="hardAlpha" k2="-1" k3="1" operator="arithmetic"/><feColorMatrix type="matrix" values="0 0 0 0 0.280972 0 0 0 0 0.354025 0 0 0 0 0.495833 0 0 0 0.19 0"/><feBlend in2="shape" mode="normal" result="effect1_innerShadow"/></filter><filter id="onCloudFilter11_i" width="16.825" height="14.453" x="135.156" y="446.555" color-interpolation-filters="sRGB" filterUnits="userSpaceOnUse"><feFlood flood-opacity="0" result="BackgroundImageFix"/><feBlend in="SourceGraphic" in2="BackgroundImageFix" mode="normal" result="shape"/><feColorMatrix in="SourceAlpha" result="hardAlpha" type="matrix" values="0 0 0 0 0 0 0 0 0 0 0 0 0 0 0 0 0 0 127 0"/><feOffset dx=".835" dy=".835"/><feGaussianBlur stdDeviation=".418"/><feComposite in2="hardAlpha" k2="-1" k3="1" operator="arithmetic"/><feColorMatrix type="matrix" values="0 0 0 0 0.280972 0 0 0 0 0.354025 0 0 0 0 0.495833 0 0 0 0.19 0"/><feBlend in2="shape" mode="normal" result="effect1_innerShadow"/></filter><filter id="onCloudFilter12_i" width="24.518" height="17.697" x="122.439" y="443.827" color-interpolation-filters="sRGB" filterUnits="userSpaceOnUse"><feFlood flood-opacity="0" result="BackgroundImageFix"/><feBlend in="SourceGraphic" in2="BackgroundImageFix" mode="normal" result="shape"/><feColorMatrix in="SourceAlpha" result="hardAlpha" type="matrix" values="0 0 0 0 0 0 0 0 0 0 0 0 0 0 0 0 0 0 127 0"/><feOffset dx=".835" dy=".835"/><feGaussianBlur stdDeviation=".418"/><feComposite in2="hardAlpha" k2="-1" k3="1" operator="arithmetic"/><feColorMatrix type="matrix" values="0 0 0 0 0.280972 0 0 0 0 0.354025 0 0 0 0 0.495833 0 0 0 0.19 0"/><feBlend in2="shape" mode="normal" result="effect1_innerShadow"/></filter><filter id="onCloudFilter13_i" width="13.737" height="8.587" x="130.178" y="448.489" color-interpolation-filters="sRGB" filterUnits="userSpaceOnUse"><feFlood flood-opacity="0" result="BackgroundImageFix"/><feBlend in="SourceGraphic" in2="BackgroundImageFix" mode="normal" result="shape"/><feColorMatrix in="SourceAlpha" result="hardAlpha" type="matrix" values="0 0 0 0 0 0 0 0 0 0 0 0 0 0 0 0 0 0 127 0"/><feOffset dx=".835" dy=".835"/><feGaussianBlur stdDeviation=".418"/><feComposite in2="hardAlpha" k2="-1" k3="1" operator="arithmetic"/><feColorMatrix type="matrix" values="0 0 0 0 0.280972 0 0 0 0 0.354025 0 0 0 0 0.495833 0 0 0 0.19 0"/><feBlend in2="shape" mode="normal" result="effect1_innerShadow"/></filter><filter id="onCloudFilter14_i" width="10.131" height="6.385" x="118.342" y="439.13" color-interpolation-filters="sRGB" filterUnits="userSpaceOnUse"><feFlood flood-opacity="0" result="BackgroundImageFix"/><feBlend in="SourceGraphic" in2="BackgroundImageFix" mode="normal" result="shape"/><feColorMatrix in="SourceAlpha" result="hardAlpha" type="matrix" values="0 0 0 0 0 0 0 0 0 0 0 0 0 0 0 0 0 0 127 0"/><feOffset dx=".835" dy=".835"/><feGaussianBlur stdDeviation=".418"/><feComposite in2="hardAlpha" k2="-1" k3="1" operator="arithmetic"/><feColorMatrix type="matrix" values="0 0 0 0 0.280972 0 0 0 0 0.354025 0 0 0 0 0.495833 0 0 0 0.19 0"/><feBlend in2="shape" mode="normal" result="effect1_innerShadow"/></filter><filter id="onCloudFilter15_f" width="187.825" height="123.469" x="569.412" y="605.489" color-interpolation-filters="sRGB" filterUnits="userSpaceOnUse"><feFlood flood-opacity="0" result="BackgroundImageFix"/><feBlend in="SourceGraphic" in2="BackgroundImageFix" mode="normal" result="shape"/><feGaussianBlur result="effect1_foregroundBlur" stdDeviation="8"/></filter><filter id="onCloudFilter16_i" width="23.968" height="14.079" x="601.68" y="647.37" color-interpolation-filters="sRGB" filterUnits="userSpaceOnUse"><feFlood flood-opacity="0" result="BackgroundImageFix"/><feBlend in="SourceGraphic" in2="BackgroundImageFix" mode="normal" result="shape"/><feColorMatrix in="SourceAlpha" result="hardAlpha" type="matrix" values="0 0 0 0 0 0 0 0 0 0 0 0 0 0 0 0 0 0 127 0"/><feOffset dx=".359" dy=".359"/><feGaussianBlur stdDeviation=".179"/><feComposite in2="hardAlpha" k2="-1" k3="1" operator="arithmetic"/><feColorMatrix type="matrix" values="0 0 0 0 0.280972 0 0 0 0 0.354025 0 0 0 0 0.495833 0 0 0 0.19 0"/><feBlend in2="shape" mode="normal" result="effect1_innerShadow"/></filter><filter id="onCloudFilter17_i" width="42.971" height="25.714" x="641.826" y="608.407" color-interpolation-filters="sRGB" filterUnits="userSpaceOnUse"><feFlood flood-opacity="0" result="BackgroundImageFix"/><feBlend in="SourceGraphic" in2="BackgroundImageFix" mode="normal" result="shape"/><feColorMatrix in="SourceAlpha" result="hardAlpha" type="matrix" values="0 0 0 0 0 0 0 0 0 0 0 0 0 0 0 0 0 0 127 0"/><feOffset dx=".359" dy=".359"/><feGaussianBlur stdDeviation=".179"/><feComposite in2="hardAlpha" k2="-1" k3="1" operator="arithmetic"/><feColorMatrix type="matrix" values="0 0 0 0 0.280972 0 0 0 0 0.354025 0 0 0 0 0.495833 0 0 0 0.19 0"/><feBlend in2="shape" mode="normal" result="effect1_innerShadow"/></filter><filter id="onCloudFilter18_i" width="36.603" height="22.277" x="656.422" y="616.707" color-interpolation-filters="sRGB" filterUnits="userSpaceOnUse"><feFlood flood-opacity="0" result="BackgroundImageFix"/><feBlend in="SourceGraphic" in2="BackgroundImageFix" mode="normal" result="shape"/><feColorMatrix in="SourceAlpha" result="hardAlpha" type="matrix" values="0 0 0 0 0 0 0 0 0 0 0 0 0 0 0 0 0 0 127 0"/><feOffset dx=".359" dy=".359"/><feGaussianBlur stdDeviation=".179"/><feComposite in2="hardAlpha" k2="-1" k3="1" operator="arithmetic"/><feColorMatrix type="matrix" values="0 0 0 0 0.280972 0 0 0 0 0.354025 0 0 0 0 0.495833 0 0 0 0.19 0"/><feBlend in2="shape" mode="normal" result="effect1_innerShadow"/></filter><filter id="onCloudFilter19_i" width="41.66" height="25.579" x="638.863" y="650.965" color-interpolation-filters="sRGB" filterUnits="userSpaceOnUse"><feFlood flood-opacity="0" result="BackgroundImageFix"/><feBlend in="SourceGraphic" in2="BackgroundImageFix" mode="normal" result="shape"/><feColorMatrix in="SourceAlpha" result="hardAlpha" type="matrix" values="0 0 0 0 0 0 0 0 0 0 0 0 0 0 0 0 0 0 127 0"/><feOffset dy=".359"/><feGaussianBlur stdDeviation=".179"/><feComposite in2="hardAlpha" k2="-1" k3="1" operator="arithmetic"/><feColorMatrix type="matrix" values="0 0 0 0 0.280972 0 0 0 0 0.354025 0 0 0 0 0.495833 0 0 0 0.19 0"/><feBlend in2="shape" mode="normal" result="effect1_innerShadow"/></filter><filter id="onCloudFilter20_f" width="194.019" height="112.584" x="989.207" y="652.708" color-interpolation-filters="sRGB" filterUnits="userSpaceOnUse"><feFlood flood-opacity="0" result="BackgroundImageFix"/><feBlend in="SourceGraphic" in2="BackgroundImageFix" mode="normal" result="shape"/><feGaussianBlur result="effect1_foregroundBlur" stdDeviation="8"/></filter><filter id="onCloudFilter21_i" width="63.579" height="36.859" x="1018.96" y="665" color-interpolation-filters="sRGB" filterUnits="userSpaceOnUse"><feFlood flood-opacity="0" result="BackgroundImageFix"/><feBlend in="SourceGraphic" in2="BackgroundImageFix" mode="normal" result="shape"/><feColorMatrix in="SourceAlpha" result="hardAlpha" type="matrix" values="0 0 0 0 0 0 0 0 0 0 0 0 0 0 0 0 0 0 127 0"/><feOffset dx=".359" dy=".359"/><feGaussianBlur stdDeviation=".179"/><feComposite in2="hardAlpha" k2="-1" k3="1" operator="arithmetic"/><feColorMatrix type="matrix" values="0 0 0 0 0.280972 0 0 0 0 0.354025 0 0 0 0 0.495833 0 0 0 0.19 0"/><feBlend in2="shape" mode="normal" result="effect1_innerShadow"/></filter><filter id="onCloudFilter22_i" width="63.579" height="36.859" x="1031.95" y="672.5" color-interpolation-filters="sRGB" filterUnits="userSpaceOnUse"><feFlood flood-opacity="0" result="BackgroundImageFix"/><feBlend in="SourceGraphic" in2="BackgroundImageFix" mode="normal" result="shape"/><feColorMatrix in="SourceAlpha" result="hardAlpha" type="matrix" values="0 0 0 0 0 0 0 0 0 0 0 0 0 0 0 0 0 0 127 0"/><feOffset dx=".359" dy=".359"/><feGaussianBlur stdDeviation=".179"/><feComposite in2="hardAlpha" k2="-1" k3="1" operator="arithmetic"/><feColorMatrix type="matrix" values="0 0 0 0 0.280972 0 0 0 0 0.354025 0 0 0 0 0.495833 0 0 0 0.19 0"/><feBlend in2="shape" mode="normal" result="effect1_innerShadow"/></filter><filter id="onCloudFilter23_i" width="63.579" height="36.859" x="1044.94" y="680" color-interpolation-filters="sRGB" filterUnits="userSpaceOnUse"><feFlood flood-opacity="0" result="BackgroundImageFix"/><feBlend in="SourceGraphic" in2="BackgroundImageFix" mode="normal" result="shape"/><feColorMatrix in="SourceAlpha" result="hardAlpha" type="matrix" values="0 0 0 0 0 0 0 0 0 0 0 0 0 0 0 0 0 0 127 0"/><feOffset dx=".359" dy=".359"/><feGaussianBlur stdDeviation=".179"/><feComposite in2="hardAlpha" k2="-1" k3="1" operator="arithmetic"/><feColorMatrix type="matrix" values="0 0 0 0 0.280972 0 0 0 0 0.354025 0 0 0 0 0.495833 0 0 0 0.19 0"/><feBlend in2="shape" mode="normal" result="effect1_innerShadow"/></filter><linearGradient id="onCloudPaint0_linear" x1="184.902" x2="519.385" y1="386.5" y2="890.647" gradientUnits="userSpaceOnUse"><stop stop-color="#303B61"/><stop offset="1" stop-color="#303B61" stop-opacity="0"/></linearGradient><linearGradient id="onCloudPaint1_linear" x1="77.678" x2="89.169" y1="536.567" y2="556.473" gradientUnits="userSpaceOnUse"><stop stop-color="#364169"/><stop offset="1" stop-color="#293357"/></linearGradient><linearGradient id="onCloudPaint2_linear" x1="79.397" x2="90.888" y1="618.428" y2="638.334" gradientUnits="userSpaceOnUse"><stop stop-color="#293357"/><stop offset="1" stop-color="#303B61"/></linearGradient><linearGradient id="onCloudPaint3_linear" x1="-64.725" x2="95.97" y1="821.377" y2="942.573" gradientUnits="userSpaceOnUse"><stop stop-color="#EE786C" stop-opacity="0"/><stop offset=".542" stop-color="#EE786C"/><stop offset="1" stop-color="#EE786C" stop-opacity="0"/></linearGradient><linearGradient id="onCloudPaint4_linear" x1="237.976" x2="247.765" y1="616.132" y2="622.72" gradientUnits="userSpaceOnUse"><stop stop-color="#F48D89"/><stop offset="1" stop-color="#EE786C"/></linearGradient><linearGradient id="onCloudPaint5_linear" x1="176.976" x2="186.765" y1="392.632" y2="399.22" gradientUnits="userSpaceOnUse"><stop stop-color="#F48D89"/><stop offset="1" stop-color="#EE786C"/></linearGradient><linearGradient id="onCloudPaint6_linear" x1="299391" x2="324198" y1="-180970" y2="-179941" gradientUnits="userSpaceOnUse"><stop stop-color="#F1F1F1"/><stop offset="1" stop-color="#E2E2E2"/></linearGradient><linearGradient id="onCloudPaint7_linear" x1="107.574" x2="107.574" y1="394.073" y2="483.347" gradientUnits="userSpaceOnUse"><stop stop-color="#FBFBFB"/><stop offset="1" stop-color="#F5F5F5"/></linearGradient><linearGradient id="onCloudPaint8_linear" x1="80.864" x2="102.322" y1="425.025" y2="408.658" gradientUnits="userSpaceOnUse"><stop stop-color="#F48D89"/><stop offset="1" stop-color="#EE786C"/></linearGradient><linearGradient id="onCloudPaint9_linear" x1="56.607" x2="56.607" y1="0" y2="73.723" gradientUnits="userSpaceOnUse"><stop stop-color="#FBFBFB"/><stop offset="1" stop-color="#F5F5F5"/></linearGradient><linearGradient id="onCloudPaint10_linear" x1="641.743" x2="636.836" y1="692.75" y2="693.078" gradientUnits="userSpaceOnUse"><stop stop-color="#E9E9E9"/><stop offset="1" stop-color="#F1F1F1"/></linearGradient><linearGradient id="onCloudPaint11_linear" x1="470.976" x2="480.765" y1="762.632" y2="769.22" gradientUnits="userSpaceOnUse"><stop stop-color="#F48D89"/><stop offset="1" stop-color="#EE786C"/></linearGradient><linearGradient id="onCloudPaint12_linear" x1="227.935" x2="227.935" y1="0" y2="168.122" gradientUnits="userSpaceOnUse"><stop stop-color="#2C365A"/><stop offset="1" stop-color="#2C365A" stop-opacity="0"/></linearGradient><linearGradient id="onCloudPaint13_linear" x1="1531.46" x2="1551.35" y1="327.09" y2="488.554" gradientUnits="userSpaceOnUse"><stop stop-color="#EE786C" stop-opacity="0"/><stop offset=".542" stop-color="#EE786C"/><stop offset="1" stop-color="#EE786C" stop-opacity="0"/></linearGradient><linearGradient id="onCloudPaint14_linear" x1="1268.84" x2="1262.57" y1="455.258" y2="462.45" gradientUnits="userSpaceOnUse"><stop stop-color="#F48D89"/><stop offset="1" stop-color="#EE786C"/></linearGradient><linearGradient id="onCloudPaint15_linear" x1="67.837" x2="-13.151" y1="0" y2="310.154" gradientUnits="userSpaceOnUse"><stop offset=".308" stop-color="#2C365A"/><stop offset="1" stop-color="#2C365A" stop-opacity="0"/></linearGradient><linearGradient id="onCloudPaint16_linear" x1="1211.98" x2="1221.76" y1="505.632" y2="512.22" gradientUnits="userSpaceOnUse"><stop stop-color="#F48D89"/><stop offset="1" stop-color="#EE786C"/></linearGradient><linearGradient id="onCloudPaint17_linear" x1="1024.59" x2="1065.76" y1="668.25" y2="739.549" gradientUnits="userSpaceOnUse"><stop stop-color="#FBFBFB"/><stop offset="1" stop-color="#F5F5F5"/></linearGradient></defs></svg>
