<svg width="854" height="194" viewBox="0 0 854 194" fill="none" xmlns="http://www.w3.org/2000/svg">
  <mask id="mask0" maskUnits="userSpaceOnUse" x="0" y="0" width="854" height="194">
    <path d="M0 11C0 4.92486 4.92487 0 11 0H843C849.075 0 854 4.92487 854 11V194H0V11Z" fill="#F6F6F6"/>
  </mask>
  <g mask="url(#mask0)">
    <mask id="mask1" maskUnits="userSpaceOnUse" x="0" y="-188" width="855" height="623">
      <rect y="-187.825" width="855" height="622.25" fill="#C4C4C4"/>
    </mask>
    <g mask="url(#mask1)">
      <path d="M55.8704 60.2009L919.124 291.034L875.187 798.64L75.9048 798.641L-408.875 798.641L-407.53 326.642L55.8704 60.2009Z" fill="#FBFBFB"/>
      <path d="M611.201 -302.605L865.622 -252.73L940.856 -36.4179L865.622 226.612L63.1778 22.3047C59.9125 21.4733 59.1041 19.0107 61.6162 17.5473L611.201 -302.605Z" fill="#FBFBFB"/>
      <path d="M54.625 59.4717V25.3311L934.562 268.175V307.362L54.625 59.4717Z" fill="#F1F1F1"/>
      <path d="M62.9392 17.5119L893.893 232.847L871.629 255.112L55.5171 30.8713L55.5174 24.7384C55.5174 22.8377 56.8309 21.0154 59.1666 19.6757L62.9392 17.5119Z" fill="url(#paint0_linear)"/>
      <path d="M53.8195 51.7233L887.072 274.33L871.922 297.862L49.3906 67.6125L54.3617 62.4774C55.5126 61.2885 55.9868 59.9862 55.6861 58.84L53.8195 51.7233Z" fill="url(#paint1_linear)"/>
      <path d="M-81.9375 136.362L-2.375 174.956L649.562 457.878L893.891 794.831L-81.9375 955.144V136.362Z" fill="url(#paint2_linear)"/>
      <path d="M1169.37 104.3L1095.52 152.939L486.042 518.457L287.738 884.393L1276.14 916.09L1169.37 104.3Z" fill="url(#paint3_linear)"/>
      <path d="M820.788 181.3L742.501 174.029L680.453 137.188L692.814 88.9549L834.361 65.9292L820.788 181.3Z" fill="url(#paint4_linear)"/>
      <path d="M873.703 -88.0752L551.592 148.061C549.913 149.292 548.922 151.248 548.922 153.329V195.083C548.922 197.337 547.76 199.431 545.848 200.624L482.845 239.942C477.979 242.978 479.111 250.364 484.663 251.804L549.983 268.754C555.39 270.158 556.654 277.261 552.063 280.444L447.529 352.914C445.769 354.134 444.719 356.14 444.719 358.282V414.237C444.719 417.844 447.643 420.769 451.25 420.769H453.922" stroke="url(#paint5_linear)" stroke-width="0.59375" stroke-dasharray="2.38 2.38"/>
      <path d="M863.016 -91.0439L540.904 145.093C539.226 146.323 538.234 148.279 538.234 150.36V192.169C538.234 194.393 537.103 196.464 535.232 197.665L461.942 244.728C457.163 247.797 458.307 255.081 463.797 256.537L528.494 273.693C533.916 275.131 535.123 282.283 530.474 285.42L457.484 334.675" stroke="url(#paint6_linear)" stroke-width="0.59375"/>
      <path opacity="0.3" d="M514.188 -191.685L141.189 34.705C139.238 35.8892 138.047 38.006 138.047 40.2883V81.9052C138.047 84.0331 137.01 86.0277 135.269 87.2505L-15.4375 193.065" stroke="url(#paint7_linear)" stroke-width="0.59375"/>
      <path d="M592.861 -172.388L219.863 54.0019C217.912 55.1861 216.721 57.3028 216.721 59.5852V101.22C216.721 103.338 215.694 105.324 213.966 106.549L34.1445 233.967" stroke="url(#paint8_linear)" stroke-width="0.59375"/>
      <path d="M604.141 -168.231L231.143 58.1581C229.192 59.3423 228 61.4591 228 63.7414V105.44C228 107.522 227.007 109.48 225.327 110.71L75.1914 220.614" stroke="url(#paint9_linear)" stroke-width="0.59375" stroke-dasharray="2.38 2.38"/>
      <path opacity="0.5" d="M-4.75 198.706L145.956 92.8911C147.698 91.6683 148.734 89.6738 148.734 87.5458V45.9395C148.734 43.6515 149.932 41.5302 151.891 40.3479L361.615 -86.2401C362.943 -87.0414 364.512 -87.3442 366.043 -87.0944L433.803 -76.0314C435.473 -75.7588 437.184 -76.1448 438.574 -77.1081L604.438 -191.981" stroke="url(#paint10_linear)" stroke-width="0.59375"/>
      <rect width="44.5597" height="44.5597" transform="matrix(0.866044 0.499967 -0.866044 0.499967 701.59 61.0815)" fill="url(#paint11_linear)"/>
      <rect width="44.5597" height="44.5597" transform="matrix(1.19249e-08 -1 0.865988 0.500065 663.004 127.915)" fill="url(#paint12_linear)"/>
      <rect width="44.5597" height="44.5597" transform="matrix(0.866007 -0.500033 -3.75718e-05 1 701.59 105.639)" fill="url(#paint13_linear)"/>
      <rect width="44.5597" height="44.5597" transform="matrix(0.866044 0.499967 -0.866044 0.499967 701.59 16)" fill="url(#paint14_linear)"/>
      <rect width="44.5597" height="44.5597" transform="matrix(1.19249e-08 -1 0.865988 0.500065 663.004 82.8335)" fill="url(#paint15_linear)"/>
      <rect width="44.5597" height="44.5597" transform="matrix(0.866007 -0.500033 -3.75718e-05 1 701.59 60.5571)" fill="url(#paint16_linear)"/>
      <path d="M740.317 35.875L701.537 57.6888M701.537 57.6888L663.484 35.875M701.537 57.6888V102.043" stroke="url(#paint17_linear)" stroke-width="0.484751"/>
      <path d="M701.906 105.92L740.451 83.5039L778.995 105.92M701.906 105.92L740.451 128.062M701.906 105.92V150.205L740.451 172.894M740.451 128.062L778.995 105.92M740.451 128.062V172.894M778.995 105.92V150.205L740.451 172.894" stroke="#6CADB6" stroke-width="0.546728"/>
      <circle cx="702.179" cy="106.193" r="1.36682" fill="#6CADB6"/>
      <circle cx="702.179" cy="150.478" r="1.36682" fill="#6CADB6"/>
      <circle cx="740.449" cy="128.063" r="1.36682" fill="#6CADB6"/>
      <circle cx="740.449" cy="172.347" r="1.36682" fill="#6CADB6"/>
      <circle cx="740.449" cy="83.7775" r="1.36682" fill="#6CADB6"/>
      <circle cx="779.269" cy="106.193" r="1.36682" fill="#6CADB6"/>
      <circle cx="779.269" cy="150.478" r="1.36682" fill="#6CADB6"/>
      <path d="M323.809 222.456L205.949 179.112L188.434 156.55L200.605 147.347L283.137 135.472L323.809 222.456Z" fill="url(#paint18_linear)"/>
      <rect width="39.7641" height="39.7641" transform="matrix(0.866044 0.499967 -0.866044 0.499967 206.246 100.144)" fill="url(#paint19_linear)"/>
      <rect width="39.7641" height="39.7641" transform="matrix(1.19249e-08 -1 0.865988 0.500065 171.809 159.785)" fill="url(#paint20_linear)"/>
      <rect width="39.7641" height="39.7641" transform="matrix(0.866007 -0.500033 -3.75718e-05 1 206.246 139.905)" fill="url(#paint21_linear)"/>
      <path d="M240.588 120.042L205.981 139.509M205.981 139.509L172.023 120.042M205.981 139.509V179.09" stroke="url(#paint22_linear)" stroke-width="0.432581"/>
    </g>
    <mask id="mask2" maskUnits="userSpaceOnUse" x="-12" y="-625" width="866" height="1251">
      <rect x="-12" y="-625" width="866" height="1250.89" fill="white"/>
    </mask>
    <g mask="url(#mask2)">
      <path d="M454.737 -281.662L853.004 -50.1764L853.004 466.278L475.029 466.279L-15.9875 466.279L-14.6261 -11.7924L454.737 -281.662Z" fill="#FBFBFB"/>
      <path d="M117.738 154.838L170.891 123.572" stroke="#EF796D" stroke-width="0.922242" stroke-dasharray="2.77 2.77"/>
      <path d="M-168.949 485.98L239.308 248.662C245.914 244.822 246.064 235.334 239.583 231.287L42.7059 108.341C36.2119 104.286 36.3789 94.7732 43.0113 90.9484L248.784 -27.7181C251.925 -29.5296 253.861 -32.88 253.861 -36.5061V-111.848C253.861 -115.273 255.588 -118.466 258.454 -120.339L432.314 -234" stroke="url(#paint23_linear)" stroke-width="0.922242"/>
      <path d="M-198 803.231L346.796 489.077C353.504 485.209 353.58 475.555 346.934 471.582L133.448 343.956C126.841 340.007 126.868 330.426 133.497 326.513L265.492 248.602C272.009 244.755 272.172 235.385 265.792 231.314L72.4448 107.927C66.0249 103.83 66.2403 94.3837 72.8403 90.5837L266.3 -20.8024C269.445 -22.6129 271.383 -25.9653 271.383 -29.594V-103.99C271.383 -107.425 273.121 -110.626 276.002 -112.497L442.459 -220.627" stroke="url(#paint24_linear)" stroke-width="0.922242"/>
      <path d="M122.475 158.937C119.826 160.466 115.532 160.466 112.884 158.937C111.657 158.229 110.999 157.317 110.908 156.39C110.803 155.316 110.589 153.819 112.011 152.998C114.66 151.469 120.53 151.241 123.178 152.77C125.275 154.434 125.124 157.408 122.475 158.937ZM114.676 154.434C113.017 155.392 113.017 156.944 114.676 157.902C116.334 158.86 119.024 158.86 120.683 157.902C122.342 156.944 122.342 155.392 120.683 154.434C119.024 153.476 116.334 153.476 114.676 154.434Z" fill="#DF6461"/>
      <path d="M122.475 157.607C119.827 159.136 115.533 159.136 112.884 157.607C110.235 156.078 110.235 153.599 112.884 152.07C115.533 150.541 119.827 150.541 122.475 152.07C125.124 153.599 125.124 156.078 122.475 157.607Z" fill="url(#paint25_linear)"/>
      <g opacity="0.92" filter="url(#filter0_f)">
        <path d="M241.107 55.837C242.092 55.3484 243.193 55.1031 244.306 55.1243C245.42 55.1455 246.509 55.4324 247.473 55.9581L291.14 79.6665C295.257 81.9024 295.686 87.7345 291.569 89.9589L206.691 134.644C205.705 135.133 204.603 135.378 203.489 135.357C202.374 135.336 201.284 135.049 200.319 134.523L156.658 110.815C152.541 108.579 152.112 102.747 156.23 100.522L241.107 55.837Z" fill="black" fill-opacity="0.1"/>
      </g>
      <g opacity="0.92" filter="url(#filter1_f)">
        <path d="M226.89 63.9999C227.695 63.6053 228.594 63.4073 229.504 63.4244C230.414 63.4415 231.304 63.6731 232.091 64.0976L267.767 83.2429C271.131 85.0486 271.481 89.7581 268.117 91.5544L199.57 132.568C198.765 132.963 197.067 128.232 196.156 128.215C195.246 128.198 194.355 127.966 193.567 127.541L157.896 108.396C154.532 106.591 154.182 101.881 157.546 100.085L226.89 63.9999Z" fill="black" fill-opacity="0.28"/>
      </g>
      <path d="M208.254 64.7762C208.254 68.0697 209.385 70.4007 211.234 71.5256L253.874 96.2039C255.793 97.2766 254.57 94.8412 257.486 93.1539C263.354 89.7676 268.114 81.557 268.114 74.8192C268.114 71.485 271.193 71.4618 269.309 70.3485L226.304 45.6181C224.384 44.5802 221.769 44.7716 218.882 46.4415C213.008 49.8278 208.254 58.0384 208.254 64.7762Z" fill="url(#paint26_linear)"/>
      <path d="M268.51 87.8985C272.649 80.7792 272.674 73.0712 268.565 70.6822C264.456 68.2932 257.77 72.1279 253.631 79.2471C249.492 86.3664 249.468 94.0744 253.576 96.4634C257.685 98.8524 264.371 95.0177 268.51 87.8985Z" fill="#C0C0C0"/>
      <path d="M189.055 126.721V132.914C189.054 133.36 189.176 133.797 189.406 134.179C189.637 134.561 189.967 134.872 190.362 135.08C190.756 135.288 191.2 135.384 191.645 135.358C192.09 135.332 192.52 135.184 192.887 134.932L261.555 87.912V72.8708C261.556 72.5717 261.475 72.2782 261.321 72.0219C261.166 71.7656 260.945 71.5562 260.681 71.4165C260.416 71.2769 260.119 71.2121 259.82 71.2293C259.521 71.2464 259.233 71.3449 258.987 71.514L195.102 115.234C193.238 116.515 191.714 118.23 190.66 120.231C189.607 122.232 189.056 124.46 189.055 126.721Z" fill="url(#paint27_linear)"/>
      <path d="M189.055 132.937V126.721C189.056 124.46 189.607 122.232 190.661 120.231C191.715 118.23 193.239 116.515 195.103 115.234L258.964 71.5141C259.195 71.353 259.465 71.2554 259.746 71.231C260.026 71.2065 260.309 71.2562 260.564 71.3749L217.513 46.5807C217.255 46.461 216.971 46.4108 216.688 46.4352C216.405 46.4596 216.134 46.5578 215.901 46.7199L152.04 90.4403C150.168 91.7206 148.637 93.438 147.58 95.4437C146.522 97.4493 145.969 99.6827 145.969 101.95V108.166C145.962 108.671 146.113 109.165 146.4 109.581C146.686 109.996 147.095 110.312 147.569 110.486L190.418 135.21C189.994 135.006 189.639 134.681 189.396 134.278C189.154 133.874 189.036 133.408 189.055 132.937Z" fill="url(#paint28_linear)"/>
      <path style="mix-blend-mode:color-dodge" d="M189.056 132.984V126.791C189.053 124.525 189.602 122.293 190.656 120.288C191.71 118.282 193.236 116.564 195.103 115.281L258.964 71.5606C259.268 71.3498 259.634 71.2495 260.002 71.2765C259.748 70.9392 259.373 70.713 258.957 70.645C258.54 70.5769 258.113 70.6723 257.764 70.9112L193.944 114.632C192.07 115.911 190.537 117.628 189.476 119.633C188.415 121.639 187.859 123.873 187.855 126.141V132.334C187.853 132.895 188.044 133.44 188.397 133.877C188.75 134.313 189.243 134.614 189.792 134.729C189.557 134.504 189.37 134.233 189.244 133.932C189.117 133.632 189.053 133.309 189.056 132.984Z" fill="url(#paint29_radial)"/>
      <path d="M197.25 131.975L198.566 131.099L198.265 132.531L197.25 131.975Z" fill="url(#paint30_linear)"/>
      <path d="M199.084 129.841V127.121C199.084 125.114 199.574 123.137 200.511 121.362C201.447 119.587 202.802 118.067 204.459 116.934L263.519 73.7235C263.725 73.5809 263.964 73.4946 264.213 73.4733C264.463 73.4519 264.713 73.4962 264.94 73.6017L264.035 73.0219C263.809 72.9163 263.558 72.8721 263.309 72.8934C263.06 72.9148 262.82 73.0011 262.615 73.1436L203.549 116.354C201.892 117.489 200.537 119.01 199.601 120.786C198.664 122.562 198.175 124.54 198.174 126.547V132.346L197.263 131.94L196.504 132.491L199.084 133.94L200.319 131.772C199.951 131.6 199.64 131.328 199.421 130.986C199.203 130.644 199.086 130.247 199.084 129.841Z" fill="#C0C0C0"/>
      <path d="M199.086 127.121V133.957L261.411 91.246C262.759 90.321 263.862 89.0817 264.625 87.6351C265.388 86.1885 265.787 84.5779 265.788 82.9426V74.9233C265.787 74.6601 265.714 74.4021 265.578 74.177C265.441 73.9518 265.246 73.7679 265.014 73.6447C264.781 73.5216 264.52 73.4638 264.257 73.4776C263.994 73.4914 263.74 73.5762 263.521 73.723L204.461 116.933C202.804 118.066 201.449 119.586 200.512 121.362C199.576 123.137 199.086 125.114 199.086 127.121Z" fill="url(#paint31_linear)"/>
      <g style="mix-blend-mode:multiply" opacity="0.5">
        <path d="M149.793 108.937L149.665 108.891C149.496 108.834 149.348 108.725 149.244 108.579C149.14 108.433 149.085 108.258 149.085 108.079V101.886C149.085 99.8762 149.575 97.8962 150.513 96.118C151.451 94.3397 152.807 92.8169 154.466 91.6812L218.327 47.9608L219.098 47.5259L218.385 47.1143L216.779 48.0246L152.93 91.745C151.272 92.8813 149.916 94.4045 148.98 96.1826C148.043 97.9608 147.554 99.9405 147.555 101.95V108.166C147.555 108.345 147.611 108.519 147.715 108.665C147.818 108.811 147.965 108.92 148.135 108.978L148.256 109.024L187.481 131.638V130.687L149.793 108.937Z" fill="#DBDBDB"/>
      </g>
      <path d="M224.179 90.5042L252.237 71.3345L216.961 50.7905L188.683 70.111C188.434 70.2799 188.233 70.5091 188.097 70.7771C187.962 71.0451 187.896 71.3431 187.907 71.6432C187.918 71.9434 188.005 72.2358 188.16 72.4932C188.315 72.7505 188.533 72.9643 188.793 73.1146L218.944 90.6897C219.744 91.1595 220.661 91.3916 221.588 91.3588C222.516 91.3259 223.414 91.0295 224.179 90.5042Z" fill="url(#paint32_linear)"/>
      <path d="M193.119 69.757C193.798 69.2954 194.593 69.0343 195.413 69.0036C196.233 68.9728 197.046 69.1736 197.757 69.5831L223.901 84.8098C224.169 84.9663 224.392 85.1878 224.551 85.4537C224.709 85.7195 224.798 86.0212 224.809 86.3306C224.82 86.6401 224.753 86.9473 224.613 87.2237C224.474 87.5002 224.267 87.7369 224.012 87.912C223.264 88.424 222.387 88.7133 221.481 88.7462C220.576 88.779 219.68 88.5541 218.898 88.0975L193.246 73.1433C192.954 72.9732 192.71 72.732 192.536 72.4421C192.362 72.1522 192.264 71.8231 192.251 71.4853C192.239 71.1474 192.312 70.8119 192.463 70.5097C192.615 70.2076 192.84 69.9487 193.119 69.757Z" fill="url(#paint33_linear)"/>
      <path d="M193.118 70.5167C193.797 70.0547 194.593 69.7938 195.413 69.7641C196.234 69.7343 197.046 69.9369 197.757 70.3486L223.924 85.5521C224.191 85.7086 224.415 85.9301 224.573 86.196C224.732 86.4618 224.821 86.7635 224.832 87.0729C224.843 87.3824 224.776 87.6896 224.636 87.966C224.497 88.2425 224.29 88.4792 224.034 88.6543C223.287 89.1659 222.41 89.4554 221.505 89.4893C220.6 89.5231 219.704 89.3 218.92 88.8456L193.246 73.9088C192.954 73.7379 192.71 73.4961 192.536 73.2058C192.362 72.9154 192.264 72.5859 192.251 72.2478C192.239 71.9096 192.311 71.5737 192.463 71.2711C192.615 70.9685 192.84 70.7091 193.118 70.5167Z" fill="#C7C7C7"/>
      <path d="M193.119 69.757C193.798 69.2954 194.593 69.0343 195.413 69.0036C196.233 68.9728 197.046 69.1736 197.757 69.5831L223.901 84.8098C224.169 84.9663 224.392 85.1878 224.551 85.4537C224.709 85.7195 224.798 86.0212 224.809 86.3306C224.82 86.6401 224.753 86.9473 224.613 87.2237C224.474 87.5002 224.267 87.7369 224.012 87.912C223.264 88.424 222.387 88.7133 221.481 88.7462C220.576 88.779 219.68 88.5541 218.898 88.0975L193.246 73.1433C192.954 72.9732 192.71 72.732 192.536 72.4421C192.362 72.1522 192.264 71.8231 192.251 71.4853C192.239 71.1474 192.312 70.8119 192.463 70.5097C192.615 70.2076 192.84 69.9487 193.119 69.757Z" fill="url(#paint34_linear)"/>
      <path opacity="0.9" d="M197.973 66.609L217.066 53.603L247.791 71.4971L228.703 84.503L197.973 66.609Z" fill="url(#paint35_linear)"/>
      <path d="M201.406 78.3853L206.758 74.7323C206.999 74.5677 207.281 74.4744 207.572 74.4631C207.864 74.4518 208.152 74.523 208.405 74.6685L214.887 78.4491C214.979 78.5027 215.056 78.5786 215.111 78.6699C215.166 78.7612 215.197 78.8649 215.201 78.9714C215.205 79.0778 215.182 79.1836 215.134 79.2788C215.087 79.374 215.016 79.4556 214.928 79.516L209.599 83.169C209.359 83.3336 209.076 83.427 208.785 83.4382C208.494 83.4495 208.205 83.3783 207.953 83.2328L201.464 79.4522C201.371 79.4002 201.293 79.3255 201.236 79.235C201.18 79.1445 201.147 79.0412 201.142 78.9347C201.136 78.8282 201.157 78.722 201.203 78.626C201.25 78.5299 201.32 78.4471 201.406 78.3853Z" fill="#C7C7C7"/>
      <path d="M201.406 77.9678L206.758 74.3148C206.999 74.1497 207.281 74.0566 207.573 74.0464C207.865 74.0361 208.153 74.1091 208.405 74.2568L214.887 78.0142C214.979 78.0677 215.056 78.1437 215.111 78.235C215.166 78.3263 215.197 78.43 215.201 78.5365C215.205 78.6429 215.182 78.7487 215.134 78.8439C215.087 78.9391 215.016 79.0207 214.928 79.0811L209.599 82.7573C209.359 82.9223 209.076 83.0154 208.784 83.0257C208.493 83.036 208.204 82.963 207.953 82.8153L201.464 79.0347C201.371 78.9827 201.293 78.908 201.236 78.8175C201.18 78.727 201.147 78.6237 201.142 78.5172C201.136 78.4107 201.157 78.3045 201.203 78.2084C201.25 78.1124 201.32 78.0296 201.406 77.9678Z" fill="url(#paint36_linear)"/>
      <path style="mix-blend-mode:color-dodge" d="M214.928 78.7333L209.6 82.3864C209.359 82.5514 209.077 82.6445 208.785 82.6548C208.493 82.665 208.205 82.5921 207.953 82.4444L201.465 78.6696C201.329 78.5891 201.228 78.461 201.181 78.3101C201.138 78.4452 201.143 78.5907 201.195 78.7226C201.247 78.8544 201.342 78.9646 201.465 79.0349L207.953 82.8155C208.205 82.9632 208.493 83.0361 208.785 83.0259C209.077 83.0156 209.359 82.9225 209.6 82.7575L214.946 79.0987C215.058 79.0233 215.142 78.9134 215.186 78.7858C215.23 78.6581 215.231 78.5196 215.189 78.3912C215.149 78.5345 215.056 78.657 214.928 78.7333Z" fill="url(#paint37_radial)"/>
      <path d="M153.035 104.374V108.839L182.287 125.77V121.219L153.035 104.374Z" fill="url(#paint38_linear)"/>
      <g style="mix-blend-mode:multiply">
        <path d="M154.143 108.375V105.012L153.035 104.374V108.839L182.287 125.77V124.669L154.143 108.375Z" fill="#CFCFCF"/>
      </g>
      <g style="mix-blend-mode:color-dodge">
        <path style="mix-blend-mode:color-dodge" d="M180.027 81.8641L185.581 85.0474C186.116 85.3156 186.71 85.4416 187.307 85.4131C187.904 85.3847 188.484 85.2028 188.991 84.8851C189.219 84.7614 189.403 84.5702 189.518 84.3377C189.633 84.1051 189.674 83.8427 189.634 83.5862C189.526 83.9337 189.298 84.2315 188.991 84.427C188.484 84.7438 187.904 84.9247 187.306 84.9521C186.709 84.9795 186.115 84.8526 185.581 84.5836L180.027 81.4002C179.857 81.315 179.706 81.1951 179.586 81.0483C179.465 80.9015 179.376 80.731 179.325 80.5479C179.275 80.8143 179.318 81.0898 179.445 81.3289C179.573 81.5681 179.778 81.7569 180.027 81.8641Z" fill="url(#paint39_radial)"/>
        <path style="mix-blend-mode:color-dodge" d="M168.56 89.7906L174.114 92.974C174.649 93.2421 175.243 93.3681 175.84 93.3396C176.437 93.3112 177.017 93.1293 177.524 92.8116C177.751 92.6889 177.935 92.4987 178.05 92.2672C178.166 92.0357 178.206 91.7742 178.167 91.5185C178.058 91.8643 177.83 92.1602 177.524 92.3535C177.017 92.6704 176.437 92.8512 175.839 92.8786C175.242 92.9061 174.648 92.7791 174.114 92.5101L168.56 89.3267C168.386 89.2393 168.234 89.116 168.112 88.9651C167.99 88.8141 167.901 88.6389 167.852 88.4512C167.797 88.7218 167.837 89.0032 167.966 89.2474C168.095 89.4916 168.305 89.6835 168.56 89.7906Z" fill="url(#paint40_radial)"/>
        <path style="mix-blend-mode:color-dodge" d="M185.824 77.8982L191.379 81.0816C191.91 81.3436 192.5 81.4657 193.091 81.4363C193.683 81.4069 194.257 81.2269 194.759 80.9134C194.987 80.7907 195.171 80.6005 195.286 80.369C195.402 80.1375 195.442 79.876 195.403 79.6204C195.294 79.9661 195.066 80.262 194.759 80.4553C194.253 80.7731 193.673 80.955 193.076 80.9834C192.479 81.0118 191.884 80.8859 191.35 80.6177L185.824 77.4343C185.654 77.3482 185.504 77.2273 185.383 77.0795C185.262 76.9317 185.173 76.7602 185.123 76.5762C185.072 76.8435 185.113 77.1203 185.241 77.3607C185.369 77.6011 185.574 77.7908 185.824 77.8982Z" fill="url(#paint41_radial)"/>
        <path style="mix-blend-mode:color-dodge" d="M174.304 85.8248L179.859 89.0313C180.393 89.2995 180.988 89.4255 181.585 89.397C182.182 89.3686 182.762 89.1867 183.268 88.869C183.497 88.7453 183.681 88.5541 183.796 88.3215C183.911 88.089 183.952 87.8266 183.912 87.5701C183.805 87.9166 183.576 88.2129 183.268 88.4051C182.762 88.7228 182.182 88.9047 181.585 88.9331C180.988 88.9616 180.393 88.8356 179.859 88.5675L174.304 85.3841C174.135 85.2983 173.985 85.1782 173.864 85.0315C173.744 84.8848 173.655 84.7146 173.603 84.5317C173.552 84.7952 173.594 85.068 173.722 85.3038C173.85 85.5395 174.056 85.7237 174.304 85.8248Z" fill="url(#paint42_radial)"/>
        <path style="mix-blend-mode:color-dodge" d="M196.711 84.1605L202.26 87.3438C202.794 87.612 203.389 87.738 203.986 87.7095C204.583 87.6811 205.163 87.4992 205.669 87.1815C205.896 87.0581 206.08 86.8679 206.195 86.6365C206.31 86.4052 206.351 86.144 206.313 85.8884C206.202 86.2301 205.974 86.5217 205.669 86.7118C205.162 87.0286 204.582 87.2095 203.985 87.2369C203.388 87.2643 202.794 87.1374 202.26 86.8684L196.711 83.6966C196.54 83.6126 196.389 83.493 196.268 83.3461C196.147 83.1991 196.059 83.028 196.01 82.8442C195.953 83.1111 195.992 83.3894 196.121 83.6301C196.249 83.8709 196.458 84.0587 196.711 84.1605Z" fill="url(#paint43_radial)"/>
        <path style="mix-blend-mode:color-dodge" d="M194.179 95.114C194.407 94.9903 194.592 94.7991 194.707 94.5666C194.822 94.3341 194.863 94.0716 194.823 93.8152C194.716 94.1621 194.488 94.4588 194.179 94.6502C193.673 94.9679 193.093 95.1498 192.496 95.1782C191.899 95.2066 191.304 95.0807 190.77 94.8125L185.244 91.6292C185.068 91.5475 184.912 91.4283 184.787 91.2801C184.662 91.1319 184.571 90.9581 184.52 90.771C184.464 91.0407 184.507 91.3212 184.64 91.5624C184.773 91.8035 184.987 91.9896 185.244 92.0872L190.793 95.2706C191.324 95.5354 191.914 95.6601 192.507 95.6327C193.099 95.6053 193.675 95.4267 194.179 95.114Z" fill="url(#paint44_radial)"/>
        <path style="mix-blend-mode:color-dodge" d="M199.927 91.1478C200.155 91.0241 200.34 90.8329 200.455 90.6004C200.57 90.3678 200.61 90.1054 200.571 89.8489C200.466 90.1966 200.237 90.4937 199.927 90.6839C199.421 91.0017 198.841 91.1835 198.244 91.212C197.647 91.2404 197.052 91.1145 196.518 90.8463L190.969 87.6629C190.799 87.578 190.648 87.4582 190.528 87.3113C190.407 87.1645 190.318 86.9939 190.267 86.8105C190.211 87.0774 190.25 87.3557 190.378 87.5964C190.507 87.8372 190.716 88.025 190.969 88.1268L196.518 91.3102C197.052 91.5783 197.647 91.7043 198.244 91.6758C198.841 91.6474 199.421 91.4655 199.927 91.1478Z" fill="url(#paint45_radial)"/>
        <path style="mix-blend-mode:color-dodge" d="M188.435 99.0741C188.662 98.9507 188.846 98.7604 188.961 98.5291C189.076 98.2977 189.117 98.0365 189.079 97.781C188.972 98.128 188.743 98.4246 188.435 98.616C187.928 98.9328 187.348 99.1137 186.751 99.1411C186.154 99.1685 185.559 99.0416 185.026 98.7725L179.477 95.5892C179.305 95.5061 179.154 95.3869 179.033 95.2397C178.912 95.0926 178.824 94.9211 178.775 94.7368C178.719 95.0037 178.758 95.282 178.886 95.5227C179.015 95.7634 179.224 95.9512 179.477 96.0531L185.026 99.2364C185.56 99.5046 186.154 99.6305 186.752 99.6021C187.349 99.5737 187.929 99.3918 188.435 99.0741Z" fill="url(#paint46_radial)"/>
        <path style="mix-blend-mode:color-dodge" d="M210.836 96.9461C210.33 97.2639 209.75 97.4457 209.153 97.4742C208.556 97.5026 207.961 97.3767 207.427 97.1085L201.878 93.9251C201.708 93.8402 201.557 93.7204 201.437 93.5735C201.316 93.4267 201.227 93.2561 201.176 93.0728C201.121 93.3388 201.161 93.6157 201.29 93.8552C201.418 94.0947 201.626 94.2815 201.878 94.3832L207.427 97.5724C207.961 97.8405 208.556 97.9665 209.153 97.938C209.75 97.9096 210.33 97.7277 210.836 97.41C211.065 97.2869 211.25 97.0958 211.365 96.8631C211.48 96.6304 211.52 96.3676 211.48 96.1111C211.375 96.4588 211.146 96.7559 210.836 96.9461Z" fill="url(#paint47_radial)"/>
        <path style="mix-blend-mode:color-dodge" d="M216.583 92.9798C216.077 93.2976 215.497 93.4794 214.9 93.5079C214.303 93.5363 213.708 93.4104 213.174 93.1422L207.625 89.9588C207.454 89.8748 207.303 89.7553 207.183 89.6083C207.062 89.4613 206.973 89.2902 206.924 89.1064C206.867 89.3733 206.906 89.6516 207.035 89.8923C207.163 90.1331 207.372 90.3209 207.625 90.4227L213.174 93.6061C213.708 93.8742 214.303 94.0002 214.9 93.9717C215.497 93.9433 216.077 93.7614 216.583 93.4437C216.812 93.3206 216.997 93.1295 217.112 92.8968C217.228 92.6641 217.268 92.4014 217.227 92.1448C217.122 92.4925 216.893 92.7896 216.583 92.9798Z" fill="url(#paint48_radial)"/>
        <path style="mix-blend-mode:color-dodge" d="M205.091 100.912C204.585 101.23 204.005 101.412 203.408 101.44C202.811 101.469 202.216 101.343 201.682 101.075L196.133 97.8914C195.962 97.8061 195.811 97.6855 195.69 97.5376C195.569 97.3896 195.481 97.2177 195.431 97.0332C195.375 97.3001 195.414 97.5783 195.543 97.8191C195.671 98.0598 195.88 98.2476 196.133 98.3494L201.682 101.533C202.216 101.801 202.811 101.927 203.408 101.898C204.005 101.87 204.585 101.688 205.091 101.37C205.32 101.249 205.505 101.059 205.621 100.827C205.736 100.595 205.776 100.333 205.735 100.077C205.628 100.424 205.4 100.721 205.091 100.912Z" fill="url(#paint49_radial)"/>
        <path style="mix-blend-mode:color-dodge" d="M199.345 104.879C198.838 105.196 198.258 105.376 197.661 105.404C197.064 105.431 196.47 105.304 195.936 105.035L190.387 101.852C190.216 101.768 190.065 101.648 189.944 101.501C189.823 101.354 189.735 101.183 189.685 101C189.629 101.266 189.668 101.545 189.796 101.785C189.925 102.026 190.134 102.214 190.387 102.316L195.936 105.499C196.47 105.767 197.065 105.893 197.662 105.865C198.259 105.836 198.839 105.654 199.345 105.337C199.573 105.213 199.758 105.022 199.873 104.789C199.988 104.557 200.028 104.294 199.989 104.038C199.882 104.387 199.654 104.685 199.345 104.879Z" fill="url(#paint50_radial)"/>
        <path style="mix-blend-mode:color-dodge" d="M182.687 102.576C182.181 102.894 181.601 103.076 181.004 103.104C180.406 103.132 179.812 103.007 179.278 102.738L173.729 99.555C173.558 99.471 173.407 99.3514 173.286 99.2045C173.165 99.0575 173.077 98.8864 173.027 98.7026C172.963 98.9738 172.999 99.2589 173.128 99.5059C173.256 99.7529 173.47 99.9453 173.729 100.048L179.278 103.231C179.812 103.499 180.406 103.625 181.004 103.597C181.601 103.568 182.181 103.387 182.687 103.069C182.915 102.945 183.099 102.754 183.215 102.521C183.33 102.289 183.37 102.026 183.331 101.77C183.219 102.107 182.991 102.393 182.687 102.576Z" fill="url(#paint51_radial)"/>
        <path style="mix-blend-mode:color-dodge" d="M193.598 108.839C193.092 109.157 192.512 109.339 191.915 109.367C191.318 109.395 190.723 109.27 190.189 109.001L184.663 105.847C184.493 105.762 184.343 105.642 184.222 105.495C184.101 105.349 184.012 105.178 183.962 104.995C183.918 105.257 183.963 105.526 184.09 105.759C184.217 105.993 184.419 106.177 184.663 106.282L190.212 109.465C190.746 109.733 191.341 109.859 191.938 109.831C192.535 109.802 193.115 109.621 193.621 109.303C193.849 109.179 194.034 108.988 194.149 108.755C194.264 108.523 194.305 108.26 194.265 108.004C194.154 108.355 193.916 108.653 193.598 108.839Z" fill="url(#paint52_radial)"/>
        <path style="mix-blend-mode:color-dodge" d="M171.776 96.3201C171.269 96.6369 170.689 96.8178 170.092 96.8452C169.494 96.8726 168.9 96.7457 168.366 96.4766L162.812 93.2933C162.642 93.208 162.492 93.0881 162.371 92.9413C162.25 92.7945 162.161 92.6241 162.11 92.4409C162.06 92.7074 162.103 92.9828 162.23 93.222C162.358 93.4612 162.563 93.6499 162.812 93.7572L168.366 96.9405C168.901 97.2087 169.495 97.3347 170.092 97.3062C170.689 97.2778 171.269 97.0959 171.776 96.7782C172.004 96.6545 172.188 96.4633 172.303 96.2307C172.419 95.9982 172.459 95.7358 172.419 95.4793C172.311 95.8267 172.083 96.1246 171.776 96.3201Z" fill="url(#paint53_radial)"/>
      </g>
      <path d="M193.542 107.823L187.994 104.64C187.459 104.372 186.865 104.246 186.268 104.274C185.67 104.303 185.091 104.485 184.584 104.802C183.657 105.44 183.686 106.403 184.642 106.954L190.191 110.137C190.725 110.405 191.32 110.531 191.917 110.503C192.514 110.474 193.094 110.292 193.6 109.975C194.522 109.337 194.522 108.374 193.542 107.823Z" fill="url(#paint54_linear)"/>
      <path d="M194.704 79.4637L189.155 76.2746C188.62 76.0053 188.024 75.8788 187.426 75.9072C186.828 75.9357 186.247 76.1181 185.74 76.4369C184.818 77.0748 184.841 78.0373 185.798 78.5882L191.353 81.7715C191.887 82.0397 192.481 82.1656 193.079 82.1372C193.676 82.1088 194.255 81.9269 194.762 81.6091C195.684 80.9771 195.684 80.0146 194.704 79.4637ZM205.616 85.7261L200.067 82.5427C199.533 82.2737 198.939 82.1467 198.342 82.1741C197.745 82.2016 197.165 82.3824 196.658 82.6993C195.73 83.3371 195.753 84.3054 196.716 84.8505L202.265 88.0338C202.799 88.3029 203.393 88.4298 203.99 88.4024C204.587 88.375 205.167 88.1941 205.674 87.8773C206.602 87.2395 206.573 86.2711 205.616 85.7261ZM207.628 91.1128L213.177 94.2962C213.711 94.5644 214.306 94.6903 214.903 94.6619C215.5 94.6334 216.08 94.4516 216.586 94.1338C217.514 93.496 217.485 92.5334 216.528 91.9826L210.979 88.7992C210.445 88.5311 209.851 88.4051 209.253 88.4335C208.656 88.462 208.077 88.6438 207.57 88.9616C206.642 89.611 206.7 90.562 207.628 91.1128ZM188.958 83.4299L183.409 80.2407C182.873 79.9747 182.278 79.8501 181.68 79.8785C181.083 79.9069 180.502 80.0875 179.994 80.4031C179.072 81.0409 179.095 82.0034 180.052 82.5543L185.607 85.7376C186.14 86.0067 186.735 86.1336 187.332 86.1062C187.929 86.0788 188.509 85.8979 189.016 85.5811C189.938 84.9375 189.915 83.9749 188.958 83.4299ZM199.87 89.6864L194.321 86.503C193.787 86.2349 193.192 86.1089 192.595 86.1374C191.998 86.1658 191.418 86.3477 190.912 86.6654C189.984 87.3032 190.007 88.2658 190.97 88.8166L196.519 92C197.053 92.2682 197.648 92.3941 198.245 92.3657C198.842 92.3372 199.422 92.1554 199.928 91.8376C200.856 91.1998 200.827 90.2372 199.87 89.6864ZM210.759 95.9487L205.21 92.7654C204.676 92.4972 204.081 92.3713 203.484 92.3997C202.887 92.4281 202.307 92.61 201.801 92.9277C200.873 93.5656 200.902 94.5281 201.859 95.079L207.408 98.2623C207.942 98.5305 208.537 98.6564 209.134 98.628C209.731 98.5996 210.311 98.4177 210.817 98.1C211.768 97.4621 211.739 96.4996 210.759 95.9487ZM183.212 87.3902L177.663 84.2069C177.124 83.9378 176.524 83.8135 175.922 83.846C175.321 83.8786 174.738 84.0668 174.231 84.3924C173.309 85.0302 173.332 85.9928 174.289 86.5436L179.843 89.727C180.378 89.9952 180.972 90.1211 181.569 90.0927C182.166 90.0642 182.746 89.8824 183.253 89.5646C184.192 88.9036 184.169 87.9411 183.212 87.3902ZM194.124 93.6699L188.575 90.4866C188.041 90.2184 187.446 90.0925 186.849 90.1209C186.252 90.1493 185.672 90.3312 185.166 90.6489C184.238 91.2868 184.261 92.2493 185.224 92.8002L190.773 95.9893C191.307 96.2575 191.902 96.3834 192.499 96.355C193.096 96.3266 193.676 96.1447 194.182 95.827C195.104 95.1659 195.104 94.2034 194.124 93.6699ZM205.036 99.9323L199.487 96.7489C198.953 96.4807 198.359 96.3548 197.761 96.3832C197.164 96.4117 196.585 96.5935 196.078 96.9113C195.15 97.5491 195.179 98.5116 196.136 99.0625L201.685 102.246C202.219 102.514 202.814 102.64 203.411 102.612C204.008 102.583 204.588 102.401 205.094 102.083C206.022 101.428 205.993 100.466 205.036 99.9149V99.9323ZM177.466 91.3506L171.911 88.173C171.376 87.9038 170.781 87.7772 170.182 87.8057C169.584 87.8341 169.003 88.0166 168.496 88.3354C167.574 88.9732 167.597 89.9357 168.554 90.4866L174.115 93.6699C174.649 93.9381 175.243 94.0641 175.841 94.0356C176.438 94.0072 177.017 93.8253 177.524 93.5076C178.446 92.8698 178.423 91.9304 177.466 91.3506ZM188.378 97.6129L182.829 94.4295C182.295 94.1605 181.701 94.0336 181.104 94.061C180.507 94.0884 179.927 94.2693 179.42 94.5861C178.492 95.2297 178.515 96.1923 179.478 96.7373L185.027 99.9265C185.561 100.195 186.156 100.321 186.753 100.292C187.35 100.264 187.93 100.082 188.436 99.7641C189.364 99.1321 189.335 98.1637 188.378 97.6187V97.6129ZM199.29 103.875L193.741 100.686C193.207 100.418 192.613 100.292 192.015 100.32C191.418 100.349 190.839 100.531 190.332 100.848C189.404 101.486 189.433 102.449 190.39 103L195.939 106.183C196.473 106.452 197.067 106.579 197.664 106.552C198.261 106.524 198.841 106.343 199.348 106.026C200.276 105.389 200.247 104.426 199.29 103.881V103.875Z" fill="url(#paint55_linear)"/>
      <path d="M194.702 78.7678L189.153 75.5845C188.617 75.3185 188.022 75.1938 187.424 75.2222C186.827 75.2506 186.246 75.4312 185.738 75.7468C184.816 76.3846 184.839 77.3472 185.796 77.898L191.351 81.0814C191.885 81.3487 192.48 81.4737 193.077 81.4442C193.674 81.4148 194.254 81.2319 194.76 80.9132C195.682 80.2812 195.682 79.3187 194.702 78.7678ZM205.614 85.0301L200.065 81.8468C199.531 81.5786 198.936 81.4527 198.339 81.4811C197.742 81.5095 197.162 81.6914 196.656 82.0091C195.728 82.647 195.751 83.6095 196.714 84.1604L202.263 87.3437C202.797 87.6119 203.392 87.7379 203.989 87.7094C204.586 87.681 205.166 87.4991 205.672 87.1814C206.6 86.5435 206.571 85.581 205.614 85.0301ZM207.626 90.4227L213.175 93.6061C213.709 93.8742 214.304 94.0002 214.901 93.9718C215.498 93.9433 216.078 93.7614 216.584 93.4437C217.512 92.8059 217.483 91.8433 216.526 91.2925L210.977 88.1091C210.443 87.8409 209.849 87.715 209.251 87.7434C208.654 87.7719 208.075 87.9537 207.568 88.2715C206.64 88.9093 206.698 89.8719 207.626 90.4227ZM188.956 82.734L183.407 79.5506C182.872 79.2814 182.276 79.1548 181.678 79.1833C181.08 79.2117 180.499 79.3942 179.992 79.713C179.07 80.3508 179.093 81.3133 180.05 81.8642L185.605 85.0475C186.139 85.3157 186.733 85.4417 187.331 85.4132C187.928 85.3848 188.507 85.2029 189.014 84.8852C189.936 84.2474 189.913 83.2848 188.956 82.734ZM199.868 88.9963L194.319 85.8129C193.785 85.5448 193.19 85.4188 192.593 85.4472C191.996 85.4757 191.416 85.6575 190.91 85.9753C189.982 86.6131 190.005 87.5757 190.968 88.1265L196.517 91.3099C197.051 91.5781 197.646 91.704 198.243 91.6756C198.84 91.6471 199.42 91.4653 199.926 91.1475C200.854 90.5097 200.825 89.5471 199.868 88.9963ZM210.757 95.2586L205.208 92.0753C204.674 91.8062 204.08 91.6793 203.483 91.7067C202.886 91.7341 202.306 91.915 201.799 92.2318C200.871 92.8755 200.9 93.838 201.857 94.3831L207.406 97.5722C207.94 97.8404 208.535 97.9663 209.132 97.9379C209.729 97.9095 210.309 97.7276 210.815 97.4098C211.766 96.772 211.737 95.8095 210.757 95.2586ZM183.21 86.7117L177.661 83.5283C177.126 83.2582 176.531 83.1307 175.933 83.1582C175.335 83.1856 174.754 83.367 174.246 83.6849C173.324 84.3285 173.347 85.2911 174.304 85.8361L179.859 89.0311C180.393 89.2993 180.987 89.4252 181.585 89.3968C182.182 89.3683 182.761 89.1865 183.268 88.8687C184.19 88.2135 184.167 87.251 183.21 86.7117ZM194.122 92.974L188.573 89.7907C188.039 89.5216 187.445 89.3947 186.848 89.4221C186.251 89.4495 185.671 89.6304 185.164 89.9472C184.236 90.5851 184.259 91.5534 185.222 92.0985L190.771 95.2818C191.305 95.5509 191.899 95.6778 192.496 95.6504C193.093 95.6229 193.673 95.4421 194.18 95.1253C195.102 94.47 195.102 93.5075 194.122 92.9624V92.974ZM205.034 99.2306L199.485 96.0472C198.951 95.779 198.357 95.6531 197.759 95.6815C197.162 95.71 196.583 95.8918 196.076 96.2096C195.148 96.8474 195.177 97.8099 196.134 98.3608L201.683 101.544C202.217 101.812 202.812 101.938 203.409 101.91C204.006 101.881 204.586 101.7 205.092 101.382C206.02 100.732 205.991 99.7698 205.034 99.219V99.2306ZM177.464 90.6604L171.909 87.4771C171.373 87.2111 170.778 87.0864 170.181 87.1149C169.583 87.1433 169.002 87.3238 168.494 87.6394C167.572 88.2773 167.595 89.2398 168.552 89.7907L174.113 92.974C174.647 93.2422 175.241 93.3682 175.839 93.3397C176.436 93.3113 177.015 93.1294 177.522 92.8117C178.444 92.1738 178.421 91.2113 177.464 90.6604ZM188.376 96.9228L182.827 93.7394C182.293 93.4712 181.698 93.3453 181.101 93.3737C180.504 93.4022 179.924 93.584 179.418 93.9018C178.49 94.5396 178.513 95.5022 179.476 96.053L185.025 99.2364C185.559 99.5045 186.154 99.6305 186.751 99.602C187.348 99.5736 187.928 99.3917 188.434 99.074C189.362 98.4362 189.333 97.4736 188.376 96.9228ZM199.288 103.185L193.739 100.002C193.205 99.7336 192.611 99.6076 192.013 99.6361C191.416 99.6645 190.837 99.8464 190.33 100.164C189.402 100.802 189.431 101.764 190.388 102.315L195.937 105.499C196.471 105.767 197.066 105.893 197.663 105.864C198.26 105.836 198.84 105.654 199.346 105.336C200.274 104.687 200.245 103.736 199.288 103.185ZM171.718 94.6266L166.169 91.4432C165.634 91.174 165.038 91.0475 164.44 91.0759C163.842 91.1044 163.261 91.2868 162.754 91.6056C161.832 92.2434 161.855 93.206 162.812 93.7568L168.367 96.9402C168.901 97.2084 169.495 97.3343 170.093 97.3059C170.69 97.2774 171.269 97.0956 171.776 96.7778C172.698 96.14 172.675 95.1774 171.718 94.6266ZM182.63 100.889L177.081 97.7288C176.547 97.4606 175.952 97.3346 175.355 97.3631C174.758 97.3915 174.178 97.5734 173.672 97.8911C172.744 98.5289 172.767 99.4915 173.73 100.042L179.279 103.226C179.813 103.494 180.408 103.62 181.005 103.591C181.602 103.563 182.182 103.381 182.688 103.063C183.616 102.402 183.587 101.44 182.63 100.889ZM193.542 107.151L187.993 103.968C187.459 103.7 186.865 103.574 186.267 103.602C185.67 103.631 185.091 103.813 184.584 104.13C183.656 104.768 183.685 105.731 184.642 106.281L190.191 109.465C190.725 109.733 191.32 109.859 191.917 109.831C192.514 109.802 193.094 109.62 193.6 109.302C194.522 108.665 194.522 107.702 193.542 107.151Z" fill="url(#paint56_linear)"/>
      <path d="M193.542 107.152L187.994 103.968C187.459 103.7 186.865 103.574 186.268 103.603C185.67 103.631 185.091 103.813 184.584 104.131C183.657 104.768 183.686 105.731 184.642 106.282L190.191 109.465C190.725 109.733 191.32 109.859 191.917 109.831C192.514 109.802 193.094 109.621 193.6 109.303C194.522 108.665 194.522 107.702 193.542 107.152Z" fill="url(#paint57_linear)"/>
      <path d="M171.718 95.3109L166.169 92.1276C165.634 91.8584 165.038 91.7318 164.44 91.7603C163.842 91.7887 163.261 91.9712 162.754 92.29C161.832 92.9278 161.855 93.8903 162.812 94.4412L168.367 97.6245C168.901 97.8927 169.495 98.0187 170.093 97.9902C170.69 97.9618 171.269 97.7799 171.776 97.4622C172.698 96.8243 172.675 95.8618 171.718 95.3109Z" fill="#01B0A1"/>
      <path d="M171.718 94.6269L166.169 91.4435C165.634 91.1743 165.038 91.0477 164.44 91.0762C163.842 91.1046 163.261 91.2871 162.754 91.6059C161.832 92.2437 161.855 93.2062 162.812 93.7571L168.367 96.9404C168.901 97.2086 169.495 97.3346 170.093 97.3061C170.69 97.2777 171.269 97.0958 171.776 96.7781C172.698 96.1403 172.675 95.1777 171.718 94.6269Z" fill="#00CBB9"/>
      <path d="M182.631 101.564L177.082 98.4038C176.547 98.1356 175.953 98.0097 175.356 98.0381C174.759 98.0666 174.179 98.2484 173.672 98.5662C172.745 99.204 172.768 100.167 173.73 100.717L179.279 103.901C179.814 104.169 180.408 104.295 181.005 104.266C181.602 104.238 182.182 104.056 182.689 103.738C183.616 103.077 183.587 102.115 182.631 101.564Z" fill="url(#paint58_linear)"/>
      <path d="M182.631 100.889L177.082 97.729C176.547 97.4608 175.953 97.3349 175.356 97.3633C174.759 97.3918 174.179 97.5736 173.672 97.8914C172.745 98.5292 172.768 99.4917 173.73 100.043L179.279 103.226C179.814 103.494 180.408 103.62 181.005 103.592C181.602 103.563 182.182 103.381 182.689 103.064C183.616 102.403 183.587 101.44 182.631 100.889Z" fill="url(#paint59_linear)"/>
      <path style="mix-blend-mode:color-dodge" d="M196.344 75.6949V74.9121L201.353 71.6592L201.695 71.8447L196.761 75.1209V75.9268L196.344 75.6949Z" fill="url(#paint60_radial)"/>
      <path d="M196.574 75.8804V75.0977L201.578 71.8447L201.926 72.0303L196.986 75.3064V76.1124L196.574 75.8804Z" fill="#D2D2D2"/>
      <path style="mix-blend-mode:color-dodge" d="M214.711 86.358V85.5752L219.721 82.3223L220.068 82.5078L215.128 85.7839V86.5899L214.711 86.358Z" fill="url(#paint61_radial)"/>
      <path d="M214.945 86.5435V85.7607L219.955 82.5078L220.303 82.6876L215.363 85.9695V86.7755L214.945 86.5435Z" fill="#D2D2D2"/>
      <path d="M205.071 78.0141L207.339 76.4485C207.508 76.3319 207.707 76.2662 207.912 76.259C208.118 76.2518 208.321 76.3035 208.498 76.4079L211.339 78.0779C211.416 78.122 211.479 78.1846 211.525 78.26C211.57 78.3354 211.596 78.421 211.599 78.509C211.603 78.5969 211.584 78.6844 211.545 78.7631C211.505 78.8418 211.447 78.9093 211.374 78.9592L209.101 80.5248C208.932 80.6421 208.733 80.7083 208.527 80.7155C208.322 80.7227 208.118 80.6706 207.942 80.5654L205.077 78.8955C205.003 78.8489 204.941 78.7842 204.898 78.7074C204.855 78.6306 204.833 78.5443 204.832 78.4564C204.831 78.3684 204.853 78.2818 204.895 78.2045C204.937 78.1272 204.998 78.0617 205.071 78.0141Z" fill="#C7C7C7"/>
      <path d="M216.68 68.3504C216.33 68.1921 215.947 68.1194 215.563 68.1382C215.18 68.157 214.806 68.2667 214.473 68.4584C213.863 68.8366 213.863 69.4076 214.473 69.7317C214.824 69.8875 215.206 69.9589 215.589 69.9402C215.972 69.9214 216.346 69.813 216.68 69.6237C217.289 69.2378 217.289 68.6745 216.68 68.3504ZM219.427 65.989C219.365 65.9504 219.288 65.935 219.226 65.9041L218.123 66.5909L218.323 66.6758C220.461 67.8025 220.469 69.8012 218.323 71.1362H218.285L219.388 71.7149H219.435C222.182 69.9709 222.166 67.4321 219.427 65.989ZM223.825 63.2264C223.764 63.2264 223.694 63.1647 223.632 63.1338L222.529 63.8206L222.722 63.9132C227.298 66.3209 227.352 70.6114 222.776 73.4667L223.879 74.0454C229.034 70.8121 229.011 65.9504 223.825 63.2264ZM221.626 64.6077C221.564 64.6077 221.495 64.546 221.433 64.5151L220.33 65.2019L220.523 65.2945C223.879 67.0617 223.895 70.2024 220.561 72.3014H220.523L221.626 72.8802C225.608 70.4108 225.592 66.6913 221.626 64.6077Z" fill="#EF8175" fill-opacity="0.6"/>
      <path d="M468.23 208.636L734.453 53.8819C738.761 51.3779 738.859 45.1908 734.632 42.5517L606.25 -37.6205C602.015 -40.265 602.124 -46.4681 606.449 -48.9622L740.632 -126.344C742.681 -127.525 743.943 -129.71 743.943 -132.075V-181.205C743.943 -183.438 745.069 -185.52 746.938 -186.742L860.311 -260.859" stroke="url(#paint62_linear)" stroke-width="0.601389"/>
      <path d="M449.285 415.514L804.544 210.655C808.918 208.133 808.968 201.838 804.634 199.247L665.421 116.023C661.112 113.447 661.13 107.2 665.452 104.648L751.526 53.8428C755.775 51.3344 755.882 45.2241 751.722 42.5694L625.641 -37.8906C621.454 -40.5621 621.595 -46.7221 625.899 -49.2L752.053 -121.834C754.104 -123.015 755.367 -125.201 755.367 -127.567V-176.081C755.367 -178.32 756.501 -180.408 758.379 -181.628L866.925 -252.139" stroke="url(#paint63_linear)" stroke-width="0.601389"/>
      <path d="M140.152 208.224L728.617 -132.356C730.661 -133.538 731.919 -135.72 731.919 -138.081V-187.484C731.919 -189.736 733.065 -191.834 734.96 -193.051L891.588 -293.635" stroke="url(#paint64_linear)" stroke-width="0.601389"/>
      <path d="M711.912 80.9443C710.185 81.9414 707.385 81.9414 705.658 80.9443C704.858 80.4827 704.429 79.8882 704.37 79.284C704.301 78.5831 704.162 77.6075 705.089 77.072C706.816 76.075 710.644 75.9258 712.371 76.9229C713.738 78.0082 713.64 79.9472 711.912 80.9443ZM706.827 78.0082C705.745 78.6327 705.745 79.6452 706.827 80.2697C707.908 80.8942 709.662 80.8942 710.744 80.2697C711.826 79.6452 711.826 78.6327 710.744 78.0082C709.662 77.3837 707.908 77.3837 706.827 78.0082Z" fill="#DF6461"/>
      <path d="M711.912 80.0772C710.185 81.0743 707.385 81.0743 705.658 80.0772C703.931 79.0801 703.931 77.4636 705.658 76.4665C707.385 75.4694 710.185 75.4694 711.912 76.4665C713.64 77.4636 713.64 79.0801 711.912 80.0772Z" fill="url(#paint65_linear)"/>
      <line x1="709.22" y1="78.3664" x2="777.177" y2="118.659" stroke="#EF796D" stroke-width="0.601389" stroke-dasharray="1.8 1.8"/>
      <g filter="url(#filter2_i)">
        <path d="M823.593 129.521L798.168 143.651C797.03 144.283 795.312 144.357 794.329 143.803L738.597 112.84C737.614 112.292 737.738 111.339 738.872 110.72L764.301 96.59C765.435 95.9577 767.153 95.8835 768.137 96.4381L823.872 127.387C824.852 127.935 824.731 128.888 823.593 129.521Z" fill="#F1F1F4"/>
      </g>
      <g opacity="0.92" filter="url(#filter3_f)">
        <path d="M846.321 125.701L817.541 141.775C816.253 142.494 814.309 142.578 813.196 141.947L750.111 106.727C748.997 106.104 749.138 105.019 750.422 104.316L779.206 88.2428C780.49 87.5235 782.434 87.4391 783.548 88.07L846.637 123.274C847.746 123.897 847.609 124.982 846.321 125.701Z" fill="black" fill-opacity="0.13"/>
      </g>
      <path d="M839.564 105.067L832.981 103.919L768.679 66.8313C767.442 66.1216 765.283 66.2091 763.858 67.0341L734.069 84.2208L730.715 83.6355V87.0415C730.728 87.3003 730.813 87.5503 730.96 87.7641C731.106 87.9779 731.309 88.1473 731.545 88.2537L801.6 128.66C802.837 129.375 804.996 129.282 806.426 128.462L838.383 110.026C839.177 109.565 839.578 108.98 839.564 108.427V105.067Z" fill="url(#paint66_linear)"/>
      <path d="M838.382 106.638L806.425 125.074C804.995 125.899 802.836 125.996 801.599 125.277L731.549 84.8749C730.313 84.1605 730.469 82.9161 731.895 82.1096L763.857 63.6738C765.282 62.8488 767.442 62.7521 768.678 63.4757L838.733 103.855C839.965 104.569 839.813 105.813 838.382 106.638Z" fill="#E8E8F2"/>
      <path d="M837.533 103.164C837.934 103.395 837.934 103.974 837.533 104.205L801.607 124.933C801.421 125.041 801.192 125.041 801.006 124.933L732.755 85.5667C732.353 85.3353 732.353 84.7563 732.755 84.5249L768.68 63.7969C768.866 63.6896 769.095 63.6896 769.281 63.7969L837.533 103.164Z" fill="url(#paint67_linear)"/>
      <g filter="url(#filter4_i)">
        <path d="M752.667 72.0116L747.735 74.8553C747.626 74.9174 747.502 74.9523 747.376 74.9571C747.25 74.9619 747.125 74.9365 747.011 74.8829L746.96 74.8553C746.776 74.7493 746.799 74.5603 747.016 74.4405L751.947 71.5922C752.057 71.5325 752.179 71.499 752.304 71.4943C752.429 71.4895 752.553 71.5135 752.667 71.5645L752.718 71.5922C752.925 71.6982 752.879 71.8871 752.667 72.0116Z" fill="#F1F1F4"/>
      </g>
      <g filter="url(#filter5_i)">
        <path d="M740.891 85.3956L740.269 85.7551L738.797 84.9025L739.42 84.543L740.891 85.3956Z" fill="#F1F1F4"/>
      </g>
      <g filter="url(#filter6_i)">
        <path d="M742.041 84.7323L741.418 85.0918L739.941 84.2438L740.564 83.8843L742.041 84.7323Z" fill="#F1F1F4"/>
      </g>
      <g filter="url(#filter7_i)">
        <path d="M743.184 84.0729L742.562 84.4324L741.09 83.5797L741.713 83.2202L743.184 84.0729Z" fill="#F1F1F4"/>
      </g>
      <g filter="url(#filter8_i)">
        <path d="M744.333 83.4091L743.711 83.7686L742.234 82.9205L742.857 82.561L744.333 83.4091Z" fill="#F1F1F4"/>
      </g>
      <g filter="url(#filter9_i)">
        <path d="M777.656 96.6972C784.51 96.6972 790.066 93.4926 790.066 89.5395C790.066 85.5864 784.51 82.3818 777.656 82.3818C770.802 82.3818 765.246 85.5864 765.246 89.5395C765.246 93.4926 770.802 96.6972 777.656 96.6972Z" fill="#F1F1F4"/>
      </g>
      <g filter="url(#filter10_i)">
        <path d="M777.656 100.743C772.72 100.743 767.788 99.6603 764.033 97.4941C760.342 95.3786 758.34 92.5533 758.34 89.5391C758.34 86.5248 760.361 83.7042 764.033 81.5887C771.544 77.2563 783.765 77.2563 791.252 81.5887C794.943 83.7042 796.945 86.5294 796.945 89.5391C796.945 92.5487 794.924 95.3786 791.257 97.4941C787.524 99.6603 782.588 100.743 777.656 100.743ZM777.656 78.662C772.78 78.662 767.908 79.7359 764.199 81.8882C760.633 83.9438 758.663 86.6677 758.663 89.5529C758.663 92.4381 760.624 95.1666 764.199 97.2221C771.617 101.499 783.691 101.499 791.114 97.2221C794.675 95.1666 796.65 92.4427 796.65 89.5529C796.65 86.6631 794.689 83.9438 791.114 81.8882C787.4 79.7359 782.528 78.6528 777.656 78.6528V78.662Z" fill="#F1F1F4"/>
      </g>
      <g filter="url(#filter11_i)">
        <path d="M803.727 113.681C803.668 113.673 803.615 113.644 803.576 113.599C803.537 113.555 803.516 113.498 803.516 113.439C803.516 113.38 803.537 113.323 803.576 113.278C803.615 113.234 803.668 113.205 803.727 113.197C807.35 112.917 810.869 111.85 814.038 110.072C817.267 108.201 819.228 106.339 819.814 104.541C819.839 104.487 819.883 104.443 819.938 104.42C819.993 104.396 820.055 104.393 820.112 104.412C820.169 104.431 820.217 104.47 820.247 104.521C820.277 104.573 820.287 104.635 820.275 104.693C819.652 106.615 817.632 108.569 814.278 110.505C811.04 112.317 807.445 113.401 803.745 113.681H803.727Z" fill="#F1F1F4"/>
      </g>
      <g filter="url(#filter12_i)">
        <path d="M820.221 103.541C820.158 103.541 820.097 103.516 820.053 103.473C820.008 103.429 819.982 103.369 819.981 103.306C819.925 101.873 818.878 100.541 816.954 99.4115C812.691 96.9549 807.132 96.9688 801.301 99.4484C801.24 99.4734 801.171 99.4732 801.11 99.4477C801.049 99.4222 801.001 99.3735 800.976 99.3124C800.951 99.2513 800.951 99.1827 800.976 99.1218C801.002 99.0608 801.051 99.0125 801.112 98.9875C807.086 96.4433 812.798 96.4387 817.194 98.9875C819.275 100.19 820.424 101.674 820.465 103.283C820.466 103.315 820.461 103.347 820.45 103.377C820.439 103.407 820.422 103.435 820.4 103.458C820.378 103.482 820.352 103.501 820.323 103.514C820.294 103.528 820.262 103.535 820.23 103.536L820.221 103.541Z" fill="#F1F1F4"/>
      </g>
      <g filter="url(#filter13_i)">
        <path d="M800.032 113.681H800.009C798.196 113.556 796.429 113.051 794.824 112.197C793.32 111.33 792.383 110.155 792.116 108.805C792.098 108.71 792.103 108.612 792.13 108.519C792.158 108.426 792.206 108.341 792.273 108.27C792.429 108.12 792.616 108.006 792.821 107.936C793.025 107.866 793.243 107.842 793.458 107.864C793.688 107.85 793.916 107.905 794.115 108.02C794.314 108.136 794.474 108.308 794.575 108.514C794.919 109.541 795.655 110.391 796.623 110.879C800.411 113.059 807.695 112.409 812.876 109.422C816.212 107.496 817.979 105.532 817.979 103.744C817.979 102.486 817.084 101.306 815.395 100.329C811.031 97.8124 805.107 98.3424 799.147 101.785C796.992 103.025 795.456 104.551 794.801 106.067C794.694 106.243 794.54 106.386 794.357 106.48C794.174 106.574 793.968 106.616 793.763 106.602C793.556 106.62 793.348 106.588 793.156 106.508C792.965 106.428 792.796 106.301 792.665 106.141C792.612 106.059 792.581 105.965 792.576 105.868C792.57 105.772 792.59 105.675 792.632 105.588C793.514 103.813 795.285 102.117 797.758 100.688C797.814 100.657 797.881 100.649 797.943 100.666C798.005 100.683 798.058 100.724 798.09 100.781C798.106 100.808 798.117 100.838 798.121 100.87C798.125 100.901 798.123 100.933 798.114 100.964C798.105 100.994 798.091 101.023 798.071 101.048C798.051 101.072 798.026 101.093 797.998 101.108C795.608 102.49 793.906 104.113 793.066 105.804C793.059 105.815 793.055 105.828 793.055 105.841C793.055 105.854 793.059 105.867 793.066 105.878C793.155 105.963 793.261 106.028 793.377 106.067C793.494 106.106 793.618 106.119 793.74 106.104C793.853 106.115 793.967 106.099 794.072 106.056C794.177 106.014 794.271 105.946 794.344 105.86C795.036 104.246 796.651 102.633 798.893 101.352C805.01 97.8216 811.109 97.2916 815.626 99.8956C817.471 100.965 818.454 102.288 818.454 103.73C818.454 105.731 816.655 107.782 813.107 109.828C807.801 112.893 800.291 113.543 796.374 111.284C795.297 110.733 794.481 109.781 794.1 108.634C794.063 108.505 793.795 108.358 793.426 108.335C793.284 108.318 793.139 108.33 793.002 108.371C792.865 108.413 792.737 108.482 792.628 108.574C792.611 108.59 792.598 108.61 792.59 108.631C792.583 108.653 792.58 108.676 792.582 108.699C792.822 109.906 793.68 110.966 795.059 111.764C796.603 112.583 798.302 113.066 800.046 113.183C800.105 113.191 800.158 113.22 800.197 113.265C800.236 113.309 800.257 113.366 800.257 113.425C800.257 113.484 800.236 113.541 800.197 113.586C800.158 113.63 800.105 113.659 800.046 113.667L800.032 113.681Z" fill="#F1F1F4"/>
      </g>
      <g filter="url(#filter14_i)">
        <path d="M806.138 111.178C805.96 111.186 805.783 111.158 805.617 111.097C805.451 111.035 805.298 110.94 805.169 110.819C805.096 110.745 805.044 110.653 805.02 110.552C804.995 110.452 804.999 110.346 805.031 110.247C805.096 110.099 805.2 109.971 805.331 109.875C805.462 109.78 805.617 109.72 805.778 109.703C807.399 109.383 808.957 108.802 810.391 107.984C812.634 106.694 813.902 105.403 814.082 104.251C814.117 103.958 814.081 103.66 813.979 103.383C813.876 103.106 813.709 102.857 813.492 102.656C813.415 102.584 813.359 102.494 813.327 102.394C813.296 102.294 813.29 102.188 813.312 102.085C813.36 101.942 813.443 101.812 813.553 101.709C813.664 101.605 813.798 101.53 813.944 101.49C814.223 101.386 814.524 101.357 814.818 101.407C815.111 101.458 815.386 101.585 815.614 101.776C815.923 102.071 816.164 102.43 816.32 102.829C816.475 103.227 816.541 103.654 816.513 104.081C816.421 105.274 815.554 106.514 813.939 107.768C813.914 107.787 813.885 107.801 813.855 107.81C813.824 107.818 813.792 107.82 813.761 107.816C813.729 107.812 813.699 107.802 813.671 107.786C813.644 107.77 813.619 107.749 813.6 107.724C813.581 107.699 813.566 107.67 813.558 107.64C813.55 107.609 813.548 107.577 813.552 107.545C813.556 107.514 813.566 107.484 813.582 107.456C813.598 107.429 813.619 107.405 813.644 107.385C815.143 106.224 815.951 105.104 816.034 104.048C816.051 103.691 815.991 103.335 815.858 103.004C815.725 102.672 815.522 102.373 815.263 102.126C815.098 102.007 814.906 101.929 814.704 101.901C814.502 101.873 814.297 101.895 814.105 101.965C813.893 102.039 813.801 102.145 813.787 102.209C813.773 102.274 813.787 102.269 813.838 102.338C814.11 102.589 814.319 102.902 814.445 103.25C814.571 103.598 814.611 103.972 814.562 104.339C814.377 105.661 813.063 107.035 810.654 108.422C809.174 109.263 807.568 109.862 805.898 110.197C805.822 110.203 805.748 110.226 805.682 110.264C805.615 110.302 805.558 110.355 805.515 110.418C805.515 110.418 805.515 110.459 805.552 110.515C805.672 110.606 805.811 110.669 805.959 110.698C806.107 110.728 806.26 110.723 806.405 110.685C808.239 110.298 810.002 109.631 811.632 108.708C811.689 108.676 811.755 108.668 811.818 108.686C811.88 108.703 811.933 108.744 811.965 108.8C811.981 108.827 811.992 108.857 811.996 108.889C812.001 108.92 811.999 108.952 811.99 108.982C811.982 109.013 811.968 109.042 811.949 109.066C811.929 109.091 811.905 109.112 811.877 109.127C810.203 110.078 808.391 110.763 806.507 111.16C806.385 111.179 806.261 111.185 806.138 111.178Z" fill="#F1F1F4"/>
      </g>
      <g filter="url(#filter15_i)">
        <path d="M802.288 111.551H802.233C800.686 111.555 799.162 111.185 797.79 110.473C796.521 109.74 795.848 108.712 795.848 107.505C795.848 105.661 797.458 103.643 800.152 102.085C804.424 99.6235 808.696 98.8308 812.175 99.8586C812.334 99.8866 812.483 99.9558 812.606 100.059C812.73 100.163 812.825 100.297 812.881 100.449C812.91 100.549 812.912 100.656 812.887 100.758C812.862 100.86 812.81 100.953 812.737 101.029C812.521 101.221 812.258 101.352 811.974 101.41C811.691 101.467 811.397 101.449 811.123 101.356C808.636 100.61 805.499 101.14 802.288 102.841C802.168 102.905 802.122 102.97 802.122 103.011C802.122 103.053 802.177 103.112 802.26 103.163C802.416 103.236 802.586 103.274 802.759 103.274C802.931 103.274 803.101 103.236 803.257 103.163C806.449 101.476 809.43 101.168 811.423 102.32C812.225 102.781 812.65 103.389 812.65 104.071C812.65 105.2 811.543 106.408 809.365 107.666C806.376 109.39 802.445 109.92 800.576 108.851C800.314 108.717 800.086 108.525 799.91 108.289C799.734 108.053 799.615 107.78 799.561 107.491C799.451 106.754 799.797 105.933 800.558 105.104C800.604 105.057 800.6 105.03 800.595 105.021C800.59 105.011 800.512 104.896 800.373 104.841C800.205 104.771 800.021 104.745 799.84 104.765C799.658 104.785 799.485 104.851 799.335 104.956C798.496 105.878 798.099 106.8 798.219 107.615C798.287 107.96 798.434 108.285 798.648 108.563C798.863 108.841 799.139 109.066 799.455 109.219C800.354 109.683 801.346 109.938 802.357 109.966C802.98 109.998 803.423 110.307 803.446 110.713C803.449 110.802 803.434 110.892 803.401 110.975C803.367 111.059 803.317 111.134 803.252 111.197C802.988 111.434 802.643 111.561 802.288 111.551ZM809.014 99.9047C806.343 99.9047 803.372 100.79 800.397 102.504C797.85 103.974 796.332 105.841 796.332 107.505C796.332 108.528 796.923 109.413 798.034 110.054C799.337 110.723 800.781 111.071 802.246 111.068C802.484 111.089 802.72 111.018 802.906 110.869C802.937 110.844 802.956 110.807 802.962 110.768C802.962 110.643 802.712 110.482 802.33 110.464C801.244 110.432 800.179 110.155 799.215 109.653C798.837 109.462 798.508 109.187 798.253 108.849C797.997 108.511 797.823 108.119 797.744 107.703C797.596 106.749 798.034 105.661 798.98 104.643C799.196 104.462 799.458 104.345 799.736 104.304C800.014 104.262 800.299 104.298 800.558 104.408C800.68 104.447 800.79 104.516 800.879 104.607C800.968 104.699 801.034 104.811 801.07 104.933C801.088 105.025 801.084 105.121 801.056 105.211C801.029 105.301 800.98 105.383 800.913 105.449C800.267 106.15 799.954 106.855 800.041 107.431C800.084 107.649 800.177 107.853 800.313 108.029C800.448 108.205 800.622 108.347 800.821 108.445C802.542 109.441 806.265 108.906 809.125 107.261C811.09 106.127 812.17 105.002 812.17 104.085C812.17 103.578 811.838 103.126 811.183 102.753C809.337 101.688 806.532 101.997 803.488 103.606C803.258 103.715 803.007 103.769 802.754 103.765C802.5 103.761 802.251 103.699 802.025 103.583C801.914 103.53 801.82 103.448 801.753 103.345C801.685 103.243 801.647 103.124 801.642 103.002C801.653 102.874 801.698 102.752 801.773 102.649C801.848 102.545 801.949 102.463 802.067 102.412C805.393 100.651 808.659 100.107 811.266 100.891C811.452 100.955 811.65 100.972 811.844 100.94C812.038 100.909 812.221 100.83 812.378 100.711C812.438 100.642 812.428 100.601 812.424 100.582C812.382 100.514 812.326 100.456 812.26 100.41C812.194 100.365 812.12 100.334 812.041 100.319C811.06 100.039 810.044 99.8995 809.024 99.9047H809.014Z" fill="#F1F1F4"/>
      </g>
      <g filter="url(#filter16_i)">
        <path d="M803.452 108.348C802.955 108.371 802.462 108.266 802.017 108.044C801.838 107.953 801.688 107.815 801.583 107.644C801.478 107.473 801.422 107.277 801.422 107.076C801.422 106.21 802.345 105.154 803.922 104.256C806.46 102.79 808.674 102.389 810.003 103.154C810.203 103.246 810.375 103.391 810.5 103.573C810.625 103.754 810.699 103.966 810.713 104.186C810.713 104.892 810.072 105.684 808.753 106.546C808.518 106.679 808.255 106.751 807.986 106.756C807.717 106.76 807.451 106.698 807.212 106.574C807.105 106.521 807.015 106.441 806.948 106.343C806.882 106.244 806.842 106.13 806.833 106.012C806.834 105.899 806.865 105.788 806.923 105.691C806.98 105.594 807.062 105.514 807.161 105.459C808.222 104.772 808.222 104.491 808.222 104.491C807.927 104.32 807.032 104.463 805.417 105.412C804.296 106.058 803.835 106.611 803.835 106.763C803.835 106.795 803.83 106.826 803.818 106.856C803.806 106.886 803.788 106.913 803.766 106.935C803.744 106.958 803.717 106.976 803.688 106.988C803.658 107.001 803.627 107.007 803.595 107.007C803.563 107.008 803.531 107.002 803.502 106.99C803.472 106.978 803.445 106.961 803.422 106.939C803.399 106.916 803.381 106.89 803.369 106.86C803.357 106.831 803.35 106.799 803.35 106.767C803.35 106.099 804.734 105.237 805.196 104.993C806.303 104.352 807.77 103.67 808.457 104.071C808.535 104.112 808.6 104.172 808.647 104.245C808.694 104.319 808.721 104.403 808.725 104.491C808.725 104.726 808.605 105.127 807.447 105.873C807.378 105.919 807.332 105.97 807.336 106.012C807.341 106.053 807.373 106.104 807.475 106.164C807.635 106.244 807.812 106.286 807.991 106.286C808.171 106.286 808.348 106.244 808.508 106.164C810.04 105.164 810.252 104.518 810.247 104.223C810.231 104.088 810.18 103.959 810.1 103.849C810.019 103.739 809.911 103.652 809.786 103.597C809.228 103.279 807.572 102.744 804.185 104.698C802.801 105.486 801.929 106.431 801.929 107.099C801.931 107.215 801.965 107.328 802.028 107.425C802.091 107.522 802.18 107.599 802.285 107.648C802.87 107.984 804.028 107.966 805.38 107.597C805.411 107.588 805.442 107.585 805.474 107.589C805.505 107.592 805.536 107.602 805.563 107.617C805.591 107.633 805.615 107.654 805.634 107.679C805.653 107.704 805.668 107.732 805.675 107.763C805.692 107.825 805.684 107.892 805.652 107.948C805.62 108.004 805.567 108.045 805.505 108.063C804.836 108.249 804.146 108.346 803.452 108.348Z" fill="#F1F1F4"/>
      </g>
      <g filter="url(#filter17_i)">
        <path d="M799.436 100.015C799.41 100.022 799.383 100.022 799.357 100.015L792.972 96.328C792.937 96.3078 792.911 96.2744 792.9 96.235C792.889 96.1957 792.894 96.1537 792.915 96.1183C792.935 96.0828 792.968 96.0568 793.008 96.046C793.047 96.0352 793.089 96.0405 793.125 96.0606L799.51 99.7478C799.539 99.764 799.563 99.7897 799.577 99.8208C799.59 99.8519 799.593 99.8866 799.584 99.9195C799.576 99.9523 799.557 99.9814 799.53 100.002C799.503 100.023 799.47 100.034 799.436 100.034V100.015Z" fill="#F1F1F4"/>
      </g>
    </g>
  </g>
  <defs>
    <filter id="filter0_f" x="138.592" y="40.3672" width="170.615" height="109.747" filterUnits="userSpaceOnUse" color-interpolation-filters="sRGB">
      <feFlood flood-opacity="0" result="BackgroundImageFix"/>
      <feBlend mode="normal" in="SourceGraphic" in2="BackgroundImageFix" result="shape"/>
      <feGaussianBlur stdDeviation="7.37793" result="effect1_foregroundBlur"/>
    </filter>
    <filter id="filter1_f" x="146.891" y="55.1232" width="131.881" height="85.7685" filterUnits="userSpaceOnUse" color-interpolation-filters="sRGB">
      <feFlood flood-opacity="0" result="BackgroundImageFix"/>
      <feBlend mode="normal" in="SourceGraphic" in2="BackgroundImageFix" result="shape"/>
      <feGaussianBlur stdDeviation="4.15009" result="effect1_foregroundBlur"/>
    </filter>
    <filter id="filter2_i" x="737.934" y="96.0649" width="87.2014" height="48.7125" filterUnits="userSpaceOnUse" color-interpolation-filters="sRGB">
      <feFlood flood-opacity="0" result="BackgroundImageFix"/>
      <feBlend mode="normal" in="SourceGraphic" in2="BackgroundImageFix" result="shape"/>
      <feColorMatrix in="SourceAlpha" type="matrix" values="0 0 0 0 0 0 0 0 0 0 0 0 0 0 0 0 0 0 127 0" result="hardAlpha"/>
      <feOffset dx="0.601389" dy="0.601389"/>
      <feGaussianBlur stdDeviation="0.300694"/>
      <feComposite in2="hardAlpha" operator="arithmetic" k2="-1" k3="1"/>
      <feColorMatrix type="matrix" values="0 0 0 0 0.280972 0 0 0 0 0.354025 0 0 0 0 0.495833 0 0 0 0.19 0"/>
      <feBlend mode="normal" in2="shape" result="effect1_innerShadow"/>
    </filter>
    <filter id="filter3_f" x="739.737" y="78.0233" width="117.271" height="73.9708" filterUnits="userSpaceOnUse" color-interpolation-filters="sRGB">
      <feFlood flood-opacity="0" result="BackgroundImageFix"/>
      <feBlend mode="normal" in="SourceGraphic" in2="BackgroundImageFix" result="shape"/>
      <feGaussianBlur stdDeviation="4.81111" result="effect1_foregroundBlur"/>
    </filter>
    <filter id="filter4_i" x="746.836" y="71.4937" width="6.61737" height="4.06544" filterUnits="userSpaceOnUse" color-interpolation-filters="sRGB">
      <feFlood flood-opacity="0" result="BackgroundImageFix"/>
      <feBlend mode="normal" in="SourceGraphic" in2="BackgroundImageFix" result="shape"/>
      <feColorMatrix in="SourceAlpha" type="matrix" values="0 0 0 0 0 0 0 0 0 0 0 0 0 0 0 0 0 0 127 0" result="hardAlpha"/>
      <feOffset dx="0.601389" dy="0.601389"/>
      <feGaussianBlur stdDeviation="0.300694"/>
      <feComposite in2="hardAlpha" operator="arithmetic" k2="-1" k3="1"/>
      <feColorMatrix type="matrix" values="0 0 0 0 0.280972 0 0 0 0 0.354025 0 0 0 0 0.495833 0 0 0 0.19 0"/>
      <feBlend mode="normal" in2="shape" result="effect1_innerShadow"/>
    </filter>
    <filter id="filter5_i" x="738.797" y="84.543" width="2.69588" height="1.81354" filterUnits="userSpaceOnUse" color-interpolation-filters="sRGB">
      <feFlood flood-opacity="0" result="BackgroundImageFix"/>
      <feBlend mode="normal" in="SourceGraphic" in2="BackgroundImageFix" result="shape"/>
      <feColorMatrix in="SourceAlpha" type="matrix" values="0 0 0 0 0 0 0 0 0 0 0 0 0 0 0 0 0 0 127 0" result="hardAlpha"/>
      <feOffset dx="0.601389" dy="0.601389"/>
      <feGaussianBlur stdDeviation="0.300694"/>
      <feComposite in2="hardAlpha" operator="arithmetic" k2="-1" k3="1"/>
      <feColorMatrix type="matrix" values="0 0 0 0 0.280972 0 0 0 0 0.354025 0 0 0 0 0.495833 0 0 0 0.08 0"/>
      <feBlend mode="normal" in2="shape" result="effect1_innerShadow"/>
    </filter>
    <filter id="filter6_i" x="739.941" y="83.8843" width="2.7005" height="1.80893" filterUnits="userSpaceOnUse" color-interpolation-filters="sRGB">
      <feFlood flood-opacity="0" result="BackgroundImageFix"/>
      <feBlend mode="normal" in="SourceGraphic" in2="BackgroundImageFix" result="shape"/>
      <feColorMatrix in="SourceAlpha" type="matrix" values="0 0 0 0 0 0 0 0 0 0 0 0 0 0 0 0 0 0 127 0" result="hardAlpha"/>
      <feOffset dx="0.601389" dy="0.601389"/>
      <feGaussianBlur stdDeviation="0.300694"/>
      <feComposite in2="hardAlpha" operator="arithmetic" k2="-1" k3="1"/>
      <feColorMatrix type="matrix" values="0 0 0 0 0.280972 0 0 0 0 0.354025 0 0 0 0 0.495833 0 0 0 0.08 0"/>
      <feBlend mode="normal" in2="shape" result="effect1_innerShadow"/>
    </filter>
    <filter id="filter7_i" x="741.09" y="83.2202" width="2.69591" height="1.81353" filterUnits="userSpaceOnUse" color-interpolation-filters="sRGB">
      <feFlood flood-opacity="0" result="BackgroundImageFix"/>
      <feBlend mode="normal" in="SourceGraphic" in2="BackgroundImageFix" result="shape"/>
      <feColorMatrix in="SourceAlpha" type="matrix" values="0 0 0 0 0 0 0 0 0 0 0 0 0 0 0 0 0 0 127 0" result="hardAlpha"/>
      <feOffset dx="0.601389" dy="0.601389"/>
      <feGaussianBlur stdDeviation="0.300694"/>
      <feComposite in2="hardAlpha" operator="arithmetic" k2="-1" k3="1"/>
      <feColorMatrix type="matrix" values="0 0 0 0 0.280972 0 0 0 0 0.354025 0 0 0 0 0.495833 0 0 0 0.08 0"/>
      <feBlend mode="normal" in2="shape" result="effect1_innerShadow"/>
    </filter>
    <filter id="filter8_i" x="742.234" y="82.561" width="2.7005" height="1.80893" filterUnits="userSpaceOnUse" color-interpolation-filters="sRGB">
      <feFlood flood-opacity="0" result="BackgroundImageFix"/>
      <feBlend mode="normal" in="SourceGraphic" in2="BackgroundImageFix" result="shape"/>
      <feColorMatrix in="SourceAlpha" type="matrix" values="0 0 0 0 0 0 0 0 0 0 0 0 0 0 0 0 0 0 127 0" result="hardAlpha"/>
      <feOffset dx="0.601389" dy="0.601389"/>
      <feGaussianBlur stdDeviation="0.300694"/>
      <feComposite in2="hardAlpha" operator="arithmetic" k2="-1" k3="1"/>
      <feColorMatrix type="matrix" values="0 0 0 0 0.280972 0 0 0 0 0.354025 0 0 0 0 0.495833 0 0 0 0.08 0"/>
      <feBlend mode="normal" in2="shape" result="effect1_innerShadow"/>
    </filter>
    <filter id="filter9_i" x="765.246" y="82.3818" width="25.4217" height="14.9167" filterUnits="userSpaceOnUse" color-interpolation-filters="sRGB">
      <feFlood flood-opacity="0" result="BackgroundImageFix"/>
      <feBlend mode="normal" in="SourceGraphic" in2="BackgroundImageFix" result="shape"/>
      <feColorMatrix in="SourceAlpha" type="matrix" values="0 0 0 0 0 0 0 0 0 0 0 0 0 0 0 0 0 0 127 0" result="hardAlpha"/>
      <feOffset dx="0.601389" dy="0.601389"/>
      <feGaussianBlur stdDeviation="0.300694"/>
      <feComposite in2="hardAlpha" operator="arithmetic" k2="-1" k3="1"/>
      <feColorMatrix type="matrix" values="0 0 0 0 0.280972 0 0 0 0 0.354025 0 0 0 0 0.495833 0 0 0 0.19 0"/>
      <feBlend mode="normal" in2="shape" result="effect1_innerShadow"/>
    </filter>
    <filter id="filter10_i" x="758.34" y="78.3394" width="39.2067" height="23.0054" filterUnits="userSpaceOnUse" color-interpolation-filters="sRGB">
      <feFlood flood-opacity="0" result="BackgroundImageFix"/>
      <feBlend mode="normal" in="SourceGraphic" in2="BackgroundImageFix" result="shape"/>
      <feColorMatrix in="SourceAlpha" type="matrix" values="0 0 0 0 0 0 0 0 0 0 0 0 0 0 0 0 0 0 127 0" result="hardAlpha"/>
      <feOffset dx="0.601389" dy="0.601389"/>
      <feGaussianBlur stdDeviation="0.300694"/>
      <feComposite in2="hardAlpha" operator="arithmetic" k2="-1" k3="1"/>
      <feColorMatrix type="matrix" values="0 0 0 0 0.280972 0 0 0 0 0.354025 0 0 0 0 0.495833 0 0 0 0.19 0"/>
      <feBlend mode="normal" in2="shape" result="effect1_innerShadow"/>
    </filter>
    <filter id="filter11_i" x="803.516" y="104.399" width="17.3659" height="9.8826" filterUnits="userSpaceOnUse" color-interpolation-filters="sRGB">
      <feFlood flood-opacity="0" result="BackgroundImageFix"/>
      <feBlend mode="normal" in="SourceGraphic" in2="BackgroundImageFix" result="shape"/>
      <feColorMatrix in="SourceAlpha" type="matrix" values="0 0 0 0 0 0 0 0 0 0 0 0 0 0 0 0 0 0 127 0" result="hardAlpha"/>
      <feOffset dx="0.601389" dy="0.601389"/>
      <feGaussianBlur stdDeviation="0.300694"/>
      <feComposite in2="hardAlpha" operator="arithmetic" k2="-1" k3="1"/>
      <feColorMatrix type="matrix" values="0 0 0 0 0.280972 0 0 0 0 0.354025 0 0 0 0 0.495833 0 0 0 0.19 0"/>
      <feBlend mode="normal" in2="shape" result="effect1_innerShadow"/>
    </filter>
    <filter id="filter12_i" x="800.957" y="97.0776" width="20.1097" height="7.06484" filterUnits="userSpaceOnUse" color-interpolation-filters="sRGB">
      <feFlood flood-opacity="0" result="BackgroundImageFix"/>
      <feBlend mode="normal" in="SourceGraphic" in2="BackgroundImageFix" result="shape"/>
      <feColorMatrix in="SourceAlpha" type="matrix" values="0 0 0 0 0 0 0 0 0 0 0 0 0 0 0 0 0 0 127 0" result="hardAlpha"/>
      <feOffset dx="0.601389" dy="0.601389"/>
      <feGaussianBlur stdDeviation="0.300694"/>
      <feComposite in2="hardAlpha" operator="arithmetic" k2="-1" k3="1"/>
      <feColorMatrix type="matrix" values="0 0 0 0 0.280972 0 0 0 0 0.354025 0 0 0 0 0.495833 0 0 0 0.19 0"/>
      <feBlend mode="normal" in2="shape" result="effect1_innerShadow"/>
    </filter>
    <filter id="filter13_i" x="792.105" y="98.2632" width="26.9498" height="16.0192" filterUnits="userSpaceOnUse" color-interpolation-filters="sRGB">
      <feFlood flood-opacity="0" result="BackgroundImageFix"/>
      <feBlend mode="normal" in="SourceGraphic" in2="BackgroundImageFix" result="shape"/>
      <feColorMatrix in="SourceAlpha" type="matrix" values="0 0 0 0 0 0 0 0 0 0 0 0 0 0 0 0 0 0 127 0" result="hardAlpha"/>
      <feOffset dx="0.601389" dy="0.601389"/>
      <feGaussianBlur stdDeviation="0.300694"/>
      <feComposite in2="hardAlpha" operator="arithmetic" k2="-1" k3="1"/>
      <feColorMatrix type="matrix" values="0 0 0 0 0.280972 0 0 0 0 0.354025 0 0 0 0 0.495833 0 0 0 0.19 0"/>
      <feBlend mode="normal" in2="shape" result="effect1_innerShadow"/>
    </filter>
    <filter id="filter14_i" x="805.004" y="101.383" width="12.1171" height="10.3991" filterUnits="userSpaceOnUse" color-interpolation-filters="sRGB">
      <feFlood flood-opacity="0" result="BackgroundImageFix"/>
      <feBlend mode="normal" in="SourceGraphic" in2="BackgroundImageFix" result="shape"/>
      <feColorMatrix in="SourceAlpha" type="matrix" values="0 0 0 0 0 0 0 0 0 0 0 0 0 0 0 0 0 0 127 0" result="hardAlpha"/>
      <feOffset dx="0.601389" dy="0.601389"/>
      <feGaussianBlur stdDeviation="0.300694"/>
      <feComposite in2="hardAlpha" operator="arithmetic" k2="-1" k3="1"/>
      <feColorMatrix type="matrix" values="0 0 0 0 0.280972 0 0 0 0 0.354025 0 0 0 0 0.495833 0 0 0 0.19 0"/>
      <feBlend mode="normal" in2="shape" result="effect1_innerShadow"/>
    </filter>
    <filter id="filter15_i" x="795.848" y="99.4199" width="17.6578" height="12.7334" filterUnits="userSpaceOnUse" color-interpolation-filters="sRGB">
      <feFlood flood-opacity="0" result="BackgroundImageFix"/>
      <feBlend mode="normal" in="SourceGraphic" in2="BackgroundImageFix" result="shape"/>
      <feColorMatrix in="SourceAlpha" type="matrix" values="0 0 0 0 0 0 0 0 0 0 0 0 0 0 0 0 0 0 127 0" result="hardAlpha"/>
      <feOffset dx="0.601389" dy="0.601389"/>
      <feGaussianBlur stdDeviation="0.300694"/>
      <feComposite in2="hardAlpha" operator="arithmetic" k2="-1" k3="1"/>
      <feColorMatrix type="matrix" values="0 0 0 0 0.280972 0 0 0 0 0.354025 0 0 0 0 0.495833 0 0 0 0.19 0"/>
      <feBlend mode="normal" in2="shape" result="effect1_innerShadow"/>
    </filter>
    <filter id="filter16_i" x="801.422" y="102.774" width="9.89287" height="6.17872" filterUnits="userSpaceOnUse" color-interpolation-filters="sRGB">
      <feFlood flood-opacity="0" result="BackgroundImageFix"/>
      <feBlend mode="normal" in="SourceGraphic" in2="BackgroundImageFix" result="shape"/>
      <feColorMatrix in="SourceAlpha" type="matrix" values="0 0 0 0 0 0 0 0 0 0 0 0 0 0 0 0 0 0 127 0" result="hardAlpha"/>
      <feOffset dx="0.601389" dy="0.601389"/>
      <feGaussianBlur stdDeviation="0.300694"/>
      <feComposite in2="hardAlpha" operator="arithmetic" k2="-1" k3="1"/>
      <feColorMatrix type="matrix" values="0 0 0 0 0.280972 0 0 0 0 0.354025 0 0 0 0 0.495833 0 0 0 0.19 0"/>
      <feBlend mode="normal" in2="shape" result="effect1_innerShadow"/>
    </filter>
    <filter id="filter17_i" x="792.895" y="96.0405" width="7.29605" height="4.59442" filterUnits="userSpaceOnUse" color-interpolation-filters="sRGB">
      <feFlood flood-opacity="0" result="BackgroundImageFix"/>
      <feBlend mode="normal" in="SourceGraphic" in2="BackgroundImageFix" result="shape"/>
      <feColorMatrix in="SourceAlpha" type="matrix" values="0 0 0 0 0 0 0 0 0 0 0 0 0 0 0 0 0 0 127 0" result="hardAlpha"/>
      <feOffset dx="0.601389" dy="0.601389"/>
      <feGaussianBlur stdDeviation="0.300694"/>
      <feComposite in2="hardAlpha" operator="arithmetic" k2="-1" k3="1"/>
      <feColorMatrix type="matrix" values="0 0 0 0 0.280972 0 0 0 0 0.354025 0 0 0 0 0.495833 0 0 0 0.19 0"/>
      <feBlend mode="normal" in2="shape" result="effect1_innerShadow"/>
    </filter>
    <linearGradient id="paint0_linear" x1="355.955" y1="81.7374" x2="348.558" y2="110.056" gradientUnits="userSpaceOnUse">
      <stop stop-color="#FBFBFB"/>
      <stop offset="1" stop-color="#F1F1F1"/>
    </linearGradient>
    <linearGradient id="paint1_linear" x1="193.7" y1="85.459" x2="189.513" y2="100.733" gradientUnits="userSpaceOnUse">
      <stop stop-color="#F1F1F1"/>
      <stop offset="1" stop-color="#FBFBFB"/>
    </linearGradient>
    <linearGradient id="paint2_linear" x1="1.18752" y1="830.753" x2="198.313" y2="261.643" gradientUnits="userSpaceOnUse">
      <stop stop-color="white"/>
      <stop offset="1" stop-color="white" stop-opacity="0"/>
    </linearGradient>
    <linearGradient id="paint3_linear" x1="1177.5" y1="803.601" x2="907.85" y2="265.055" gradientUnits="userSpaceOnUse">
      <stop stop-color="white"/>
      <stop offset="1" stop-color="white" stop-opacity="0"/>
    </linearGradient>
    <linearGradient id="paint4_linear" x1="471.768" y1="137.43" x2="817.153" y2="114.889" gradientUnits="userSpaceOnUse">
      <stop stop-color="#C4C4C4"/>
      <stop offset="1" stop-color="#C4C4C4" stop-opacity="0"/>
    </linearGradient>
    <linearGradient id="paint5_linear" x1="634.422" y1="88.2685" x2="856.259" y2="-67.4988" gradientUnits="userSpaceOnUse">
      <stop stop-color="#3C939F"/>
      <stop offset="1" stop-color="#60C8D6" stop-opacity="0"/>
    </linearGradient>
    <linearGradient id="paint6_linear" x1="449.469" y1="353.081" x2="904.435" y2="77.1289" gradientUnits="userSpaceOnUse">
      <stop stop-color="#3C939F" stop-opacity="0"/>
      <stop offset="0.465769" stop-color="#3C939F"/>
      <stop offset="1" stop-color="#60C8D6" stop-opacity="0"/>
    </linearGradient>
    <linearGradient id="paint7_linear" x1="223.547" y1="-25.1375" x2="445.384" y2="-180.905" gradientUnits="userSpaceOnUse">
      <stop stop-color="#3C939F"/>
      <stop offset="1" stop-color="#60C8D6" stop-opacity="0"/>
    </linearGradient>
    <linearGradient id="paint8_linear" x1="34.1445" y1="240.396" x2="339.652" y2="256.852" gradientUnits="userSpaceOnUse">
      <stop stop-color="#3C939F" stop-opacity="0"/>
      <stop offset="0.628998" stop-color="#3C939F"/>
      <stop offset="1" stop-color="#60C8D6" stop-opacity="0"/>
    </linearGradient>
    <linearGradient id="paint9_linear" x1="75.1914" y1="229.516" x2="311.031" y2="228.9" gradientUnits="userSpaceOnUse">
      <stop stop-color="#3C939F" stop-opacity="0"/>
      <stop offset="0.284655" stop-color="#3C939F"/>
      <stop offset="0.628998" stop-color="#3C939F"/>
      <stop offset="1" stop-color="#60C8D6" stop-opacity="0"/>
    </linearGradient>
    <linearGradient id="paint10_linear" x1="270.136" y1="-22.8642" x2="503.482" y2="-208.463" gradientUnits="userSpaceOnUse">
      <stop stop-color="#3C939F"/>
      <stop offset="1" stop-color="#60C8D6" stop-opacity="0"/>
    </linearGradient>
    <linearGradient id="paint11_linear" x1="22.2798" y1="0" x2="22.2798" y2="46.5507" gradientUnits="userSpaceOnUse">
      <stop stop-color="#FBFBFB"/>
      <stop offset="1" stop-color="#F5F5F5"/>
    </linearGradient>
    <linearGradient id="paint12_linear" x1="31.6475" y1="12.0339" x2="13.6842" y2="56.9566" gradientUnits="userSpaceOnUse">
      <stop stop-color="#F4F4F4"/>
      <stop offset="1" stop-color="#F2F2F2"/>
    </linearGradient>
    <linearGradient id="paint13_linear" x1="13.3746" y1="2.84987" x2="71.0585" y2="41.3122" gradientUnits="userSpaceOnUse">
      <stop stop-color="#FBFBFB"/>
      <stop offset="1" stop-color="#CFCFCF"/>
    </linearGradient>
    <linearGradient id="paint14_linear" x1="22.2798" y1="0" x2="22.2798" y2="46.5507" gradientUnits="userSpaceOnUse">
      <stop stop-color="#FBFBFB"/>
      <stop offset="1" stop-color="#F5F5F5"/>
    </linearGradient>
    <linearGradient id="paint15_linear" x1="22.2798" y1="0" x2="22.2798" y2="46.5507" gradientUnits="userSpaceOnUse">
      <stop stop-color="#FBFBFB"/>
      <stop offset="1" stop-color="#F5F5F5"/>
    </linearGradient>
    <linearGradient id="paint16_linear" x1="13.3746" y1="2.84987" x2="140.471" y2="86.8593" gradientUnits="userSpaceOnUse">
      <stop stop-color="#FBFBFB"/>
      <stop offset="1" stop-color="#CFCFCF"/>
    </linearGradient>
    <linearGradient id="paint17_linear" x1="702.992" y1="42.4191" x2="701.901" y2="102.043" gradientUnits="userSpaceOnUse">
      <stop stop-color="white"/>
      <stop offset="1" stop-color="white" stop-opacity="0"/>
    </linearGradient>
    <linearGradient id="paint18_linear" x1="-184.738" y1="171.987" x2="284.918" y2="145.269" gradientUnits="userSpaceOnUse">
      <stop stop-color="#C4C4C4"/>
      <stop offset="1" stop-color="#C4C4C4" stop-opacity="0"/>
    </linearGradient>
    <linearGradient id="paint19_linear" x1="28.2416" y1="10.7388" x2="12.2115" y2="50.8269" gradientUnits="userSpaceOnUse">
      <stop stop-color="#F4F4F4"/>
      <stop offset="1" stop-color="#F2F2F2"/>
    </linearGradient>
    <linearGradient id="paint20_linear" x1="28.2416" y1="10.7388" x2="12.2115" y2="50.8269" gradientUnits="userSpaceOnUse">
      <stop stop-color="#F4F4F4"/>
      <stop offset="1" stop-color="#F2F2F2"/>
    </linearGradient>
    <linearGradient id="paint21_linear" x1="11.9352" y1="2.54317" x2="84.1069" y2="36.1241" gradientUnits="userSpaceOnUse">
      <stop stop-color="#FBFBFB"/>
      <stop offset="1" stop-color="#CFCFCF"/>
    </linearGradient>
    <linearGradient id="paint22_linear" x1="207.279" y1="125.882" x2="206.306" y2="179.09" gradientUnits="userSpaceOnUse">
      <stop stop-color="white"/>
      <stop offset="1" stop-color="white" stop-opacity="0"/>
    </linearGradient>
    <linearGradient id="paint23_linear" x1="287.059" y1="-29.7262" x2="-180.97" y2="461.831" gradientUnits="userSpaceOnUse">
      <stop stop-color="#EE786C"/>
      <stop offset="0.285477" stop-color="#EE786C"/>
      <stop offset="0.716077" stop-color="#EE786C" stop-opacity="0.57"/>
      <stop offset="1" stop-color="#EE786C" stop-opacity="0"/>
    </linearGradient>
    <linearGradient id="paint24_linear" x1="327.217" y1="390.067" x2="-29.2298" y2="973.385" gradientUnits="userSpaceOnUse">
      <stop stop-color="#EE786C"/>
      <stop offset="0.0850811" stop-color="#EE786C" stop-opacity="0.534842"/>
      <stop offset="0.32173" stop-color="#EE786C" stop-opacity="0"/>
      <stop offset="0.551654" stop-color="#EE786C" stop-opacity="0"/>
      <stop offset="0.831119" stop-color="#EE786C" stop-opacity="0.29"/>
      <stop offset="1" stop-color="#EE786C" stop-opacity="0"/>
    </linearGradient>
    <linearGradient id="paint25_linear" x1="115.583" y1="150.806" x2="124.61" y2="156.882" gradientUnits="userSpaceOnUse">
      <stop stop-color="#F48D89"/>
      <stop offset="1" stop-color="#EE786C"/>
    </linearGradient>
    <linearGradient id="paint26_linear" x1="230.931" y1="82.1658" x2="245.752" y2="56.8967" gradientUnits="userSpaceOnUse">
      <stop offset="1" stop-color="#EDEDED"/>
    </linearGradient>
    <linearGradient id="paint27_linear" x1="204.275" y1="97.7346" x2="288.651" y2="119.709" gradientUnits="userSpaceOnUse">
      <stop offset="0.03" stop-color="#E9E9E9"/>
      <stop offset="0.99" stop-color="#E4E4E4"/>
    </linearGradient>
    <linearGradient id="paint28_linear" x1="177.32" y1="127.255" x2="224.404" y2="50.0792" gradientUnits="userSpaceOnUse">
      <stop offset="0.01" stop-color="#EAEAEA"/>
      <stop offset="0.05" stop-color="#E9E9E9"/>
      <stop offset="0.07" stop-color="#E9E9E9"/>
      <stop offset="0.1" stop-color="#FBFBFB"/>
      <stop offset="0.13" stop-color="#F7F7F7"/>
      <stop offset="0.177083" stop-color="#F7F7F7"/>
      <stop offset="0.2498" stop-color="#FBFBFB"/>
      <stop offset="0.2499" stop-color="#F8F8F8"/>
      <stop offset="0.68" stop-color="#F1F1F4"/>
      <stop offset="1" stop-color="#F1F1F4"/>
    </linearGradient>
    <radialGradient id="paint29_radial" cx="0" cy="0" r="1" gradientUnits="userSpaceOnUse" gradientTransform="translate(3448.89 7949.18) scale(4246.56 3773.24)">
      <stop stop-color="white"/>
      <stop offset="1"/>
    </radialGradient>
    <linearGradient id="paint30_linear" x1="197.766" y1="131.343" x2="201.639" y2="136.515" gradientUnits="userSpaceOnUse">
      <stop offset="0.42" stop-color="#46474D"/>
      <stop offset="0.54" stop-color="#62656B"/>
      <stop offset="0.7" stop-color="#252628"/>
    </linearGradient>
    <linearGradient id="paint31_linear" x1="9854.91" y1="6953.28" x2="17420.8" y2="10903.8" gradientUnits="userSpaceOnUse">
      <stop stop-color="#D2D2D2"/>
      <stop offset="1" stop-color="#959595"/>
    </linearGradient>
    <linearGradient id="paint32_linear" x1="226.093" y1="107.766" x2="214.878" y2="40.2955" gradientUnits="userSpaceOnUse">
      <stop offset="0.04" stop-color="#CFCFCF"/>
      <stop offset="1" stop-color="#E9E9E9"/>
    </linearGradient>
    <linearGradient id="paint33_linear" x1="207.533" y1="67.4724" x2="209.818" y2="93.4379" gradientUnits="userSpaceOnUse">
      <stop offset="0.05" stop-color="#5D6066"/>
      <stop offset="1" stop-color="#37383C"/>
    </linearGradient>
    <linearGradient id="paint34_linear" x1="207.161" y1="58.967" x2="209.985" y2="91.665" gradientUnits="userSpaceOnUse">
      <stop stop-color="#F1F1F1"/>
      <stop offset="0.554213" stop-color="#ECECEC"/>
      <stop offset="1" stop-color="#D9D9D9"/>
    </linearGradient>
    <linearGradient id="paint35_linear" x1="231.347" y1="95.1374" x2="217.685" y2="53.041" gradientUnits="userSpaceOnUse">
      <stop offset="0.04" stop-color="white"/>
      <stop offset="1" stop-color="white"/>
    </linearGradient>
    <linearGradient id="paint36_linear" x1="207.58" y1="69.4824" x2="208.931" y2="84.3406" gradientUnits="userSpaceOnUse">
      <stop stop-color="#F1F1F1"/>
      <stop offset="0.554213" stop-color="#ECECEC"/>
      <stop offset="1" stop-color="#D9D9D9"/>
    </linearGradient>
    <radialGradient id="paint37_radial" cx="0" cy="0" r="1" gradientUnits="userSpaceOnUse" gradientTransform="translate(1798.25 448.954) scale(127.312 42.6867)">
      <stop stop-color="white"/>
      <stop offset="1"/>
    </radialGradient>
    <linearGradient id="paint38_linear" x1="182.061" y1="125.915" x2="152.837" y2="103.824" gradientUnits="userSpaceOnUse">
      <stop offset="0.02" stop-color="#E9E9E9"/>
      <stop offset="0.29" stop-color="#E9E9E9"/>
      <stop offset="1" stop-color="#C9C9C9"/>
    </linearGradient>
    <radialGradient id="paint39_radial" cx="0" cy="0" r="1" gradientUnits="userSpaceOnUse" gradientTransform="translate(931.44 482.6) scale(72.2033 33.9872)">
      <stop stop-color="white"/>
      <stop offset="1"/>
    </radialGradient>
    <radialGradient id="paint40_radial" cx="0" cy="0" r="1" gradientUnits="userSpaceOnUse" gradientTransform="translate(715.429 559.297) scale(72.268 34.149)">
      <stop stop-color="white"/>
      <stop offset="1"/>
    </radialGradient>
    <radialGradient id="paint41_radial" cx="0" cy="0" r="1" gradientUnits="userSpaceOnUse" gradientTransform="translate(1037.41 444.96) scale(72.0061 33.9538)">
      <stop stop-color="white"/>
      <stop offset="1"/>
    </radialGradient>
    <radialGradient id="paint42_radial" cx="0" cy="0" r="1" gradientUnits="userSpaceOnUse" gradientTransform="translate(823.24 519.84) scale(72.2072 33.9872)">
      <stop stop-color="white"/>
      <stop offset="1"/>
    </radialGradient>
    <radialGradient id="paint43_radial" cx="0" cy="0" r="1" gradientUnits="userSpaceOnUse" gradientTransform="translate(1245.24 504.179) scale(72.1913 33.9872)">
      <stop stop-color="white"/>
      <stop offset="1"/>
    </radialGradient>
    <radialGradient id="paint44_radial" cx="0" cy="0" r="1" gradientUnits="userSpaceOnUse" gradientTransform="translate(1028.69 578.281) scale(72.1849 33.9603)">
      <stop stop-color="white"/>
      <stop offset="1"/>
    </radialGradient>
    <radialGradient id="paint45_radial" cx="0" cy="0" r="1" gradientUnits="userSpaceOnUse" gradientTransform="translate(1137.08 541.451) scale(72.197 33.9872)">
      <stop stop-color="white"/>
      <stop offset="1"/>
    </radialGradient>
    <radialGradient id="paint46_radial" cx="0" cy="0" r="1" gradientUnits="userSpaceOnUse" gradientTransform="translate(920.52 615.939) scale(72.1913 33.9872)">
      <stop stop-color="white"/>
      <stop offset="1"/>
    </radialGradient>
    <radialGradient id="paint47_radial" cx="0" cy="0" r="1" gradientUnits="userSpaceOnUse" gradientTransform="translate(1342.59 600.251) scale(72.1932 33.9872)">
      <stop stop-color="white"/>
      <stop offset="1"/>
    </radialGradient>
    <radialGradient id="paint48_radial" cx="0" cy="0" r="1" gradientUnits="userSpaceOnUse" gradientTransform="translate(1450.97 563.029) scale(72.201 33.9873)">
      <stop stop-color="white"/>
      <stop offset="1"/>
    </radialGradient>
    <radialGradient id="paint49_radial" cx="0" cy="0" r="1" gradientUnits="userSpaceOnUse" gradientTransform="translate(1234.49 637.517) scale(72.2031 33.9872)">
      <stop stop-color="white"/>
      <stop offset="1"/>
    </radialGradient>
    <radialGradient id="paint50_radial" cx="0" cy="0" r="1" gradientUnits="userSpaceOnUse" gradientTransform="translate(1126.15 674.789) scale(72.197 33.9872)">
      <stop stop-color="white"/>
      <stop offset="1"/>
    </radialGradient>
    <radialGradient id="paint51_radial" cx="0" cy="0" r="1" gradientUnits="userSpaceOnUse" gradientTransform="translate(812.691 656.512) scale(72.2386 34.1896)">
      <stop stop-color="white"/>
      <stop offset="1"/>
    </radialGradient>
    <radialGradient id="paint52_radial" cx="0" cy="0" r="1" gradientUnits="userSpaceOnUse" gradientTransform="translate(1017.21 708.426) scale(72.1345 33.7848)">
      <stop stop-color="white"/>
      <stop offset="1"/>
    </radialGradient>
    <radialGradient id="paint53_radial" cx="0" cy="0" r="1" gradientUnits="userSpaceOnUse" gradientTransform="translate(606.688 594.361) scale(72.2033 33.9872)">
      <stop stop-color="white"/>
      <stop offset="1"/>
    </radialGradient>
    <linearGradient id="paint54_linear" x1="187.825" y1="104.324" x2="189.384" y2="112.934" gradientUnits="userSpaceOnUse">
      <stop stop-color="#D9D9D9"/>
      <stop offset="1" stop-color="#B4B4B4"/>
    </linearGradient>
    <linearGradient id="paint55_linear" x1="186.488" y1="76.1644" x2="194.38" y2="118.4" gradientUnits="userSpaceOnUse">
      <stop stop-color="#D9D9D9"/>
      <stop offset="1" stop-color="#B4B4B4"/>
    </linearGradient>
    <linearGradient id="paint56_linear" x1="187.35" y1="57.6313" x2="192.467" y2="114.916" gradientUnits="userSpaceOnUse">
      <stop stop-color="#F1F1F1"/>
      <stop offset="0.554213" stop-color="#ECECEC"/>
      <stop offset="1" stop-color="#D9D9D9"/>
    </linearGradient>
    <linearGradient id="paint57_linear" x1="188.659" y1="100.43" x2="189.543" y2="110.757" gradientUnits="userSpaceOnUse">
      <stop stop-color="#F1F1F1"/>
      <stop offset="0.554213" stop-color="#ECECEC"/>
      <stop offset="1" stop-color="#D9D9D9"/>
    </linearGradient>
    <linearGradient id="paint58_linear" x1="176.909" y1="98.0873" x2="178.469" y2="106.698" gradientUnits="userSpaceOnUse">
      <stop stop-color="#D9D9D9"/>
      <stop offset="1" stop-color="#B4B4B4"/>
    </linearGradient>
    <linearGradient id="paint59_linear" x1="177.743" y1="94.191" x2="178.627" y2="104.518" gradientUnits="userSpaceOnUse">
      <stop stop-color="#F1F1F1"/>
      <stop offset="0.554213" stop-color="#ECECEC"/>
      <stop offset="1" stop-color="#D9D9D9"/>
    </linearGradient>
    <radialGradient id="paint60_radial" cx="0" cy="0" r="1" gradientUnits="userSpaceOnUse" gradientTransform="translate(719.53 356.398) scale(22.3703 17.8388)">
      <stop stop-color="white"/>
      <stop offset="1"/>
    </radialGradient>
    <radialGradient id="paint61_radial" cx="0" cy="0" r="1" gradientUnits="userSpaceOnUse" gradientTransform="translate(908.19 445.543) scale(22.3945 17.8388)">
      <stop stop-color="white"/>
      <stop offset="1"/>
    </radialGradient>
    <linearGradient id="paint62_linear" x1="765.591" y1="-127.654" x2="460.392" y2="192.889" gradientUnits="userSpaceOnUse">
      <stop stop-color="#EE786C"/>
      <stop offset="0.285477" stop-color="#EE786C"/>
      <stop offset="0.716077" stop-color="#EE786C" stop-opacity="0.57"/>
      <stop offset="1" stop-color="#EE786C" stop-opacity="0"/>
    </linearGradient>
    <linearGradient id="paint63_linear" x1="791.776" y1="146.091" x2="559.339" y2="526.47" gradientUnits="userSpaceOnUse">
      <stop stop-color="#EE786C"/>
      <stop offset="0.0850811" stop-color="#EE786C" stop-opacity="0.534842"/>
      <stop offset="0.32173" stop-color="#EE786C" stop-opacity="0"/>
      <stop offset="0.551654" stop-color="#EE786C" stop-opacity="0"/>
      <stop offset="0.831119" stop-color="#EE786C" stop-opacity="0.29"/>
      <stop offset="1" stop-color="#EE786C" stop-opacity="0"/>
    </linearGradient>
    <linearGradient id="paint64_linear" x1="608.354" y1="-66.4997" x2="258.77" y2="330.624" gradientUnits="userSpaceOnUse">
      <stop stop-color="#EE786C"/>
      <stop offset="0.346238" stop-color="#EE786C" stop-opacity="0.1"/>
      <stop offset="0.69605" stop-color="#EE786C" stop-opacity="0.2"/>
      <stop offset="1" stop-color="#EE786C" stop-opacity="0"/>
    </linearGradient>
    <linearGradient id="paint65_linear" x1="707.418" y1="75.6426" x2="713.304" y2="79.6046" gradientUnits="userSpaceOnUse">
      <stop stop-color="#F48D89"/>
      <stop offset="1" stop-color="#EE786C"/>
    </linearGradient>
    <linearGradient id="paint66_linear" x1="216324" y1="-130424" x2="234189" y2="-129682" gradientUnits="userSpaceOnUse">
      <stop stop-color="#F1F1F1"/>
      <stop offset="1" stop-color="#E2E2E2"/>
    </linearGradient>
    <linearGradient id="paint67_linear" x1="785.144" y1="63.6235" x2="785.144" y2="127.854" gradientUnits="userSpaceOnUse">
      <stop stop-color="#FBFBFB"/>
      <stop offset="1" stop-color="#F5F5F5"/>
    </linearGradient>
  </defs>
</svg>
