<svg width="320" height="190" viewBox="0 0 320 190" fill="none" xmlns="http://www.w3.org/2000/svg">
  <mask id="mask0" mask-type="alpha" maskUnits="userSpaceOnUse" x="-20" y="0" width="854" height="190">
    <path d="M-20 11C-20 4.92488 -15.0751 0 -9 0H823C829.075 0 834 4.92487 834 11V189.242H-20V11Z" fill="#F6F6F6"/>
  </mask>
  <g mask="url(#mask0)">
    <mask id="mask1" mask-type="alpha" maskUnits="userSpaceOnUse" x="-20" y="-188" width="855" height="623">
      <rect x="-20" y="-187.825" width="855" height="622.25" fill="#C4C4C4"/>
    </mask>
    <g mask="url(#mask1)">
      <path d="M35.8704 60.2009L899.124 291.034L855.187 798.64L55.9048 798.641L-428.875 798.641L-427.53 326.642L35.8704 60.2009Z" fill="#FBFBFB"/>
      <path d="M591.201 -302.605L845.622 -252.73L920.856 -36.4179L845.622 226.612L43.1778 22.3047C39.9125 21.4733 39.1041 19.0107 41.6162 17.5473L591.201 -302.605Z" fill="#FBFBFB"/>
      <path d="M34.625 59.4717V25.3311L914.562 268.175V307.362L34.625 59.4717Z" fill="#F1F1F1"/>
      <path d="M42.9392 17.5119L873.893 232.847L851.629 255.112L35.5171 30.8713L35.5174 24.7384C35.5174 22.8377 36.8309 21.0154 39.1666 19.6757L42.9392 17.5119Z" fill="url(#paint0_linear)"/>
      <path d="M33.8195 51.7233L867.072 274.33L851.922 297.862L29.3906 67.6125L34.3617 62.4774C35.5126 61.2885 35.9868 59.9862 35.6861 58.84L33.8195 51.7233Z" fill="url(#paint1_linear)"/>
      <path d="M-101.938 136.362L-22.375 174.956L629.562 457.878L873.891 794.831L-101.938 955.144V136.362Z" fill="url(#paint2_linear)"/>
      <path d="M1149.37 104.3L1075.52 152.939L466.042 518.457L267.738 884.393L1256.14 916.09L1149.37 104.3Z" fill="url(#paint3_linear)"/>
      <path opacity="0.3" d="M494.188 -191.685L121.189 34.705C119.238 35.8892 118.047 38.006 118.047 40.2883V81.9052C118.047 84.0331 117.01 86.0277 115.269 87.2505L-35.4375 193.065" stroke="url(#paint4_linear)" stroke-width="0.59375"/>
      <path d="M572.861 -172.388L199.863 54.0019C197.912 55.1861 196.721 57.3028 196.721 59.5852V101.22C196.721 103.338 195.694 105.324 193.966 106.549L14.1445 233.967" stroke="url(#paint5_linear)" stroke-width="0.59375"/>
      <path d="M584.141 -168.231L211.143 58.1581C209.192 59.3423 208 61.4591 208 63.7414V105.44C208 107.522 207.007 109.48 205.327 110.71L55.1914 220.614" stroke="url(#paint6_linear)" stroke-width="0.59375" stroke-dasharray="2.38 2.38"/>
      <path opacity="0.5" d="M-24.75 198.706L125.956 92.8911C127.698 91.6683 128.734 89.6738 128.734 87.5458V45.9395C128.734 43.6515 129.932 41.5302 131.891 40.3479L341.615 -86.2401C342.943 -87.0414 344.512 -87.3442 346.043 -87.0944L413.803 -76.0314C415.473 -75.7588 417.184 -76.1448 418.574 -77.1081L584.438 -191.981" stroke="url(#paint7_linear)" stroke-width="0.59375"/>
      <path d="M303.809 222.456L185.949 179.112L168.434 156.55L180.605 147.347L263.137 135.472L303.809 222.456Z" fill="url(#paint8_linear)"/>
      <rect width="39.7641" height="39.7641" transform="matrix(0.866044 0.499967 -0.866044 0.499967 186.246 100.144)" fill="url(#paint9_linear)"/>
      <rect width="39.7641" height="39.7641" transform="matrix(1.19249e-08 -1 0.865988 0.500065 151.809 159.785)" fill="url(#paint10_linear)"/>
      <rect width="39.7641" height="39.7641" transform="matrix(0.866007 -0.500033 -3.75718e-05 1 186.246 139.905)" fill="url(#paint11_linear)"/>
      <path d="M220.588 120.042L185.981 139.509M185.981 139.509L152.023 120.042M185.981 139.509V179.09" stroke="url(#paint12_linear)" stroke-width="0.432581"/>
    </g>
    <mask id="mask2" mask-type="alpha" maskUnits="userSpaceOnUse" x="-22" y="-391" width="542" height="783">
      <rect x="-22" y="-391" width="542" height="782.889" fill="white"/>
    </mask>
    <g mask="url(#mask2)">
      <path d="M270.113 -176.116L519.374 -31.237L519.374 291.995L282.813 291.995L-24.4977 291.995L-23.6457 -7.21377L270.113 -176.116Z" fill="#FBFBFB"/>
      <path d="M59.1953 97.0746L92.4617 77.5059" stroke="#EF796D" stroke-width="0.922242" stroke-dasharray="2.77 2.77"/>
      <path d="M-120.23 304.325L129.839 158.96C136.445 155.121 136.596 145.633 130.115 141.585L17.5998 71.3223C11.1058 67.267 11.2729 57.7544 17.9053 53.9296L139.315 -16.0859C142.456 -17.8974 144.392 -21.2478 144.392 -24.874V-67.7823C144.392 -71.2065 146.119 -74.3997 148.986 -76.2734L256.08 -146.286" stroke="url(#paint13_linear)" stroke-width="0.922242"/>
      <path d="M-138.41 502.881L196.96 309.492C203.668 305.624 203.744 295.97 197.097 291.996L74.516 218.715C67.9089 214.765 67.9357 205.185 74.5647 201.272L146.35 158.9C152.867 155.053 153.03 145.683 146.65 141.612L36.1271 71.0804C29.7073 66.9835 29.9227 57.5371 36.5226 53.7371L150.278 -11.7584C153.423 -13.569 155.361 -16.9213 155.361 -20.55V-62.8572C155.361 -66.2919 157.099 -69.4934 159.979 -71.3645L262.431 -137.917" stroke="url(#paint14_linear)" stroke-width="0.922242"/>
      <path d="M62.1647 99.639C60.507 100.596 57.8194 100.596 56.1617 99.639C55.3943 99.1959 54.9821 98.6254 54.9253 98.0454C54.8594 97.3728 54.7257 96.4364 55.6158 95.9225C57.2735 94.9655 60.9473 94.8224 62.605 95.7793C63.917 96.821 63.8223 98.682 62.1647 99.639ZM57.2833 96.821C56.2451 97.4203 56.2451 98.3921 57.2833 98.9915C58.3215 99.5909 60.0049 99.5909 61.0431 98.9915C62.0813 98.3921 62.0813 97.4203 61.0431 96.821C60.0049 96.2216 58.3215 96.2216 57.2833 96.821Z" fill="#DF6461"/>
      <path d="M62.1616 98.8071C60.504 99.7641 57.8164 99.7641 56.1587 98.8071C54.501 97.8501 54.501 96.2986 56.1587 95.3416C57.8164 94.3847 60.504 94.3847 62.1616 95.3416C63.8193 96.2986 63.8193 97.8501 62.1616 98.8071Z" fill="url(#paint15_linear)"/>
      <g opacity="0.92" filter="url(#filter0_f)">
        <path d="M136.41 35.1129C137.026 34.807 137.715 34.6536 138.412 34.6668C139.109 34.6801 139.791 34.8596 140.394 35.1886L167.724 50.0269C170.301 51.4263 170.569 55.0764 167.992 56.4686L114.87 84.4356C114.253 84.7414 113.564 84.8949 112.866 84.8816C112.169 84.8684 111.486 84.6888 110.882 84.3598L83.5565 69.5215C80.9796 68.1221 80.7112 64.472 83.2881 63.0798L136.41 35.1129Z" fill="black" fill-opacity="0.1"/>
      </g>
      <g opacity="0.92" filter="url(#filter1_f)">
        <path d="M127.514 40.2217C128.018 39.9747 128.581 39.8508 129.15 39.8615C129.72 39.8722 130.277 40.0172 130.769 40.2829L153.098 52.2652C155.203 53.3953 155.422 56.3429 153.317 57.4671L110.416 83.1362C109.912 83.3831 108.849 80.4222 108.279 80.4115C107.709 80.4008 107.152 80.2559 106.659 79.9902L84.3335 68.0078C82.2282 66.8777 82.0089 63.9302 84.1142 62.8059L127.514 40.2217Z" fill="black" fill-opacity="0.28"/>
      </g>
      <path d="M115.848 40.7076C115.848 42.7689 116.555 44.2278 117.713 44.9318L144.4 60.3771C145.601 61.0485 144.835 59.5243 146.661 58.4682C150.333 56.3488 153.312 51.2101 153.312 46.9931C153.312 44.9064 155.239 44.8919 154.06 44.1951L127.144 28.7172C125.943 28.0676 124.307 28.1874 122.499 29.2325C118.823 31.3519 115.848 36.4906 115.848 40.7076Z" fill="url(#paint16_linear)"/>
      <path d="M153.561 55.1788C156.152 50.7231 156.167 45.899 153.596 44.4038C151.024 42.9086 146.839 45.3086 144.249 49.7643C141.659 54.22 141.643 59.0441 144.215 60.5393C146.786 62.0345 150.971 59.6345 153.561 55.1788Z" fill="#C0C0C0"/>
      <path d="M103.832 79.4768V83.3526C103.832 83.6317 103.908 83.9055 104.052 84.1445C104.196 84.3834 104.403 84.5784 104.65 84.7085C104.897 84.8385 105.175 84.8985 105.453 84.8822C105.732 84.8658 106.001 84.7736 106.231 84.6155L149.208 55.1875V45.7737C149.208 45.5865 149.157 45.4028 149.061 45.2424C148.964 45.082 148.826 44.951 148.66 44.8635C148.495 44.7761 148.309 44.7356 148.122 44.7463C147.935 44.7571 147.754 44.8187 147.6 44.9245L107.617 72.2876C106.45 73.0892 105.496 74.1625 104.837 75.4149C104.178 76.6673 103.833 78.0613 103.832 79.4768Z" fill="url(#paint17_linear)"/>
      <path d="M103.834 83.367V79.4766C103.834 78.0612 104.179 76.6672 104.839 75.4148C105.498 74.1623 106.452 73.0891 107.618 72.2875L147.587 44.9244C147.732 44.8236 147.9 44.7625 148.076 44.7472C148.252 44.7319 148.429 44.763 148.589 44.8373L121.644 29.3195C121.483 29.2445 121.305 29.2131 121.128 29.2284C120.951 29.2437 120.781 29.3051 120.635 29.4065L80.6668 56.7696C79.4955 57.571 78.5374 58.6458 77.8753 59.9011C77.2133 61.1564 76.8673 62.5541 76.8673 63.9733V67.8637C76.8632 68.1796 76.9574 68.489 77.1368 68.749C77.3163 69.0091 77.5721 69.207 77.8689 69.3153L104.686 84.7896C104.421 84.6616 104.199 84.4587 104.047 84.2059C103.896 83.9531 103.821 83.6615 103.834 83.367Z" fill="url(#paint18_linear)"/>
      <path style="mix-blend-mode:color-dodge" d="M103.833 83.3962V79.5204C103.832 78.1025 104.175 76.7056 104.835 75.4505C105.494 74.1953 106.45 73.1197 107.618 72.3167L147.587 44.9537C147.776 44.8217 148.006 44.759 148.236 44.7758C148.077 44.5648 147.843 44.4232 147.582 44.3806C147.321 44.338 147.054 44.3977 146.836 44.5472L106.892 71.9103C105.72 72.7111 104.76 73.7856 104.096 75.0407C103.432 76.2959 103.084 77.694 103.082 79.114V82.9898C103.08 83.341 103.2 83.682 103.421 83.9551C103.642 84.2282 103.95 84.4167 104.294 84.4886C104.147 84.3476 104.03 84.1779 103.951 83.9901C103.872 83.8022 103.832 83.6001 103.833 83.3962Z" fill="url(#paint19_radial)"/>
      <path d="M108.965 82.7648L109.789 82.2168L109.6 83.1132L108.965 82.7648Z" fill="url(#paint20_linear)"/>
      <path d="M110.111 81.4295V79.7274C110.111 78.4712 110.418 77.234 111.004 76.1229C111.59 75.0118 112.438 74.0604 113.475 73.3512L150.439 46.3075C150.567 46.2182 150.717 46.1642 150.873 46.1508C151.029 46.1375 151.186 46.1652 151.328 46.2313L150.762 45.8683C150.62 45.8023 150.463 45.7746 150.307 45.7879C150.151 45.8013 150.001 45.8553 149.873 45.9446L112.905 72.9883C111.869 73.6985 111.02 74.6506 110.434 75.7622C109.848 76.8738 109.542 78.1115 109.541 79.3682V82.9972L108.971 82.7432L108.496 83.0879L110.111 83.9952L110.884 82.6379C110.654 82.5306 110.459 82.3599 110.322 82.1459C110.185 81.932 110.112 81.6835 110.111 81.4295Z" fill="#C0C0C0"/>
      <path d="M110.109 79.7272V84.0058L149.116 57.2742C149.96 56.6953 150.651 55.9197 151.128 55.0143C151.605 54.1089 151.855 53.1009 151.856 52.0774V47.0584C151.855 46.8937 151.81 46.7322 151.724 46.5913C151.639 46.4504 151.517 46.3353 151.371 46.2582C151.226 46.1811 151.062 46.145 150.898 46.1536C150.733 46.1622 150.574 46.2153 150.437 46.3072L113.473 73.3509C112.437 74.0602 111.588 75.0116 111.002 76.1226C110.416 77.2337 110.11 78.471 110.109 79.7272Z" fill="url(#paint21_linear)"/>
      <g style="mix-blend-mode:multiply" opacity="0.5">
        <path d="M79.2601 68.3468L79.1803 68.3178C79.0741 68.2819 78.9819 68.2136 78.9168 68.1224C78.8516 68.0312 78.8169 67.9218 78.8174 67.8097V63.9339C78.8174 62.6757 79.1241 61.4365 79.7109 60.3236C80.2977 59.2106 81.1469 58.2575 82.185 57.5467L122.154 30.1837L122.636 29.9115L122.19 29.6538L121.185 30.2236L81.2234 57.5867C80.1859 58.2978 79.3374 59.2511 78.7513 60.364C78.1651 61.477 77.859 62.7159 77.8594 63.9738V67.8641C77.8594 67.9761 77.8944 68.0852 77.9594 68.1763C78.0245 68.2674 78.1164 68.3359 78.2223 68.3722L78.2985 68.4012L102.848 82.5546V81.9594L79.2601 68.3468Z" fill="#DBDBDB"/>
      </g>
      <path d="M125.815 56.8095L143.376 44.8118L121.297 31.9541L103.599 44.0461C103.444 44.1518 103.318 44.2953 103.233 44.463C103.148 44.6307 103.107 44.8173 103.114 45.0051C103.121 45.193 103.175 45.376 103.272 45.5371C103.369 45.6981 103.505 45.8319 103.668 45.926L122.538 56.9256C123.039 57.2197 123.613 57.3649 124.194 57.3444C124.774 57.3238 125.337 57.1383 125.815 56.8095Z" fill="url(#paint22_linear)"/>
      <path d="M106.376 43.8251C106.801 43.5362 107.298 43.3727 107.812 43.3535C108.325 43.3342 108.834 43.4599 109.279 43.7162L125.642 53.2461C125.809 53.344 125.949 53.4826 126.048 53.649C126.147 53.8154 126.203 54.0042 126.21 54.1979C126.217 54.3916 126.174 54.5838 126.087 54.7569C126 54.9299 125.87 55.0781 125.71 55.1876C125.243 55.5081 124.694 55.6891 124.127 55.7097C123.56 55.7303 123 55.5895 122.51 55.3038L106.456 45.9444C106.273 45.8379 106.12 45.687 106.011 45.5055C105.902 45.3241 105.841 45.1181 105.833 44.9067C105.825 44.6953 105.871 44.4852 105.965 44.2962C106.06 44.1071 106.202 43.945 106.376 43.8251Z" fill="url(#paint23_linear)"/>
      <path d="M106.376 44.3005C106.8 44.0113 107.298 43.848 107.812 43.8294C108.326 43.8108 108.834 43.9376 109.279 44.1952L125.656 53.7106C125.823 53.8086 125.963 53.9472 126.062 54.1136C126.161 54.28 126.217 54.4688 126.224 54.6624C126.231 54.8561 126.189 55.0484 126.101 55.2214C126.014 55.3944 125.885 55.5426 125.725 55.6522C125.257 55.9724 124.708 56.1536 124.142 56.1747C123.575 56.1959 123.014 56.0563 122.524 55.7719L106.455 46.4235C106.273 46.3165 106.12 46.1652 106.011 45.9835C105.902 45.8017 105.841 45.5955 105.833 45.3839C105.825 45.1722 105.871 44.962 105.965 44.7726C106.06 44.5832 106.201 44.4209 106.376 44.3005Z" fill="#C7C7C7"/>
      <path d="M106.376 43.8251C106.801 43.5362 107.298 43.3727 107.812 43.3535C108.325 43.3342 108.834 43.4599 109.279 43.7162L125.642 53.2461C125.809 53.344 125.949 53.4826 126.048 53.649C126.147 53.8154 126.203 54.0042 126.21 54.1979C126.217 54.3916 126.174 54.5838 126.087 54.7569C126 54.9299 125.87 55.0781 125.71 55.1876C125.243 55.5081 124.694 55.6891 124.127 55.7097C123.56 55.7303 123 55.5895 122.51 55.3038L106.456 45.9444C106.273 45.8379 106.12 45.687 106.011 45.5055C105.902 45.3241 105.841 45.1181 105.833 44.9067C105.825 44.6953 105.871 44.4852 105.965 44.2962C106.06 44.1071 106.202 43.945 106.376 43.8251Z" fill="url(#paint24_linear)"/>
      <path opacity="0.9" d="M109.414 41.8548L121.364 33.7148L140.593 44.9141L128.647 53.0541L109.414 41.8548Z" fill="url(#paint25_linear)"/>
      <path d="M111.565 49.2251L114.914 46.9387C115.065 46.8357 115.241 46.7773 115.424 46.7703C115.606 46.7632 115.787 46.8078 115.945 46.8988L120.002 49.265C120.06 49.2985 120.108 49.346 120.142 49.4032C120.176 49.4603 120.196 49.5252 120.198 49.5919C120.201 49.6585 120.187 49.7247 120.157 49.7843C120.127 49.8438 120.082 49.8949 120.027 49.9327L116.692 52.219C116.542 52.322 116.365 52.3805 116.183 52.3875C116.001 52.3946 115.82 52.35 115.662 52.2589L111.601 49.8928C111.543 49.8602 111.494 49.8135 111.458 49.7569C111.423 49.7002 111.403 49.6356 111.399 49.5689C111.395 49.5023 111.409 49.4358 111.438 49.3757C111.467 49.3155 111.51 49.2637 111.565 49.2251Z" fill="#C7C7C7"/>
      <path d="M111.565 48.9637L114.914 46.6774C115.065 46.5741 115.242 46.5158 115.424 46.5094C115.607 46.503 115.787 46.5486 115.945 46.6411L120.002 48.9927C120.06 49.0262 120.108 49.0738 120.142 49.1309C120.176 49.1881 120.196 49.253 120.198 49.3196C120.201 49.3862 120.187 49.4524 120.157 49.512C120.127 49.5716 120.082 49.6226 120.027 49.6604L116.692 51.9613C116.542 52.0646 116.365 52.1228 116.182 52.1293C116 52.1357 115.819 52.09 115.662 51.9976L111.601 49.6314C111.543 49.5989 111.494 49.5521 111.458 49.4955C111.423 49.4388 111.403 49.3742 111.399 49.3075C111.395 49.2409 111.409 49.1744 111.438 49.1143C111.467 49.0542 111.51 49.0023 111.565 48.9637Z" fill="url(#paint26_linear)"/>
      <path style="mix-blend-mode:color-dodge" d="M120.024 49.4427L116.689 51.729C116.539 51.8323 116.362 51.8905 116.179 51.8969C115.997 51.9034 115.816 51.8577 115.659 51.7653L111.598 49.4027C111.513 49.3524 111.45 49.2722 111.42 49.1777C111.394 49.2623 111.397 49.3534 111.429 49.4359C111.461 49.5184 111.521 49.5874 111.598 49.6314L115.659 51.9975C115.816 52.09 115.997 52.1356 116.179 52.1292C116.362 52.1228 116.539 52.0645 116.689 51.9612L120.035 49.6713C120.105 49.6241 120.158 49.5554 120.186 49.4755C120.213 49.3956 120.214 49.3089 120.188 49.2285C120.163 49.3182 120.104 49.3949 120.024 49.4427Z" fill="url(#paint27_radial)"/>
      <path d="M81.2891 65.4907V68.2851L99.5968 78.8819V76.0331L81.2891 65.4907Z" fill="url(#paint28_linear)"/>
      <g style="mix-blend-mode:multiply">
        <path d="M81.9822 67.9948V65.8899L81.2891 65.4907V68.2851L99.5968 78.8819V78.1924L81.9822 67.9948Z" fill="#CFCFCF"/>
      </g>
      <g style="mix-blend-mode:color-dodge">
        <path style="mix-blend-mode:color-dodge" d="M98.1823 51.4024L101.659 53.3948C101.993 53.5626 102.365 53.6414 102.739 53.6236C103.113 53.6058 103.476 53.492 103.793 53.2931C103.935 53.2157 104.051 53.0961 104.123 52.9505C104.195 52.805 104.22 52.6407 104.195 52.4802C104.127 52.6977 103.985 52.8841 103.793 53.0064C103.475 53.2047 103.112 53.3179 102.738 53.3351C102.365 53.3523 101.993 53.2728 101.659 53.1044L98.1823 51.1121C98.0759 51.0587 97.9819 50.9837 97.9063 50.8918C97.8307 50.7999 97.7751 50.6932 97.7432 50.5786C97.712 50.7454 97.7385 50.9178 97.8183 51.0675C97.8981 51.2172 98.0265 51.3353 98.1823 51.4024Z" fill="url(#paint29_radial)"/>
        <path style="mix-blend-mode:color-dodge" d="M91.0046 56.3632L94.4811 58.3556C94.8155 58.5234 95.1876 58.6022 95.5613 58.5844C95.9351 58.5666 96.2979 58.4528 96.6149 58.2539C96.7574 58.1771 96.8726 58.0581 96.9447 57.9132C97.0168 57.7683 97.0423 57.6046 97.0177 57.4447C96.9495 57.6611 96.8068 57.8462 96.6149 57.9673C96.2976 58.1655 95.9346 58.2787 95.5608 58.2959C95.1871 58.3131 94.8152 58.2336 94.4811 58.0652L91.0046 56.0729C90.8962 56.0182 90.8007 55.941 90.7243 55.8465C90.648 55.752 90.5926 55.6424 90.5619 55.5249C90.5274 55.6943 90.5527 55.8704 90.6334 56.0232C90.7141 56.1761 90.8453 56.2962 91.0046 56.3632Z" fill="url(#paint30_radial)"/>
        <path style="mix-blend-mode:color-dodge" d="M101.812 48.9202L105.288 50.9126C105.621 51.0766 105.99 51.153 106.36 51.1346C106.73 51.1162 107.089 51.0035 107.404 50.8073C107.546 50.7305 107.662 50.6115 107.734 50.4666C107.806 50.3217 107.831 50.158 107.807 49.998C107.739 50.2144 107.596 50.3996 107.404 50.5206C107.087 50.7195 106.724 50.8333 106.35 50.8511C105.977 50.8689 105.605 50.7901 105.27 50.6222L101.812 48.6299C101.705 48.5759 101.611 48.5003 101.535 48.4078C101.46 48.3153 101.404 48.208 101.373 48.0928C101.341 48.2601 101.367 48.4333 101.447 48.5838C101.526 48.7343 101.655 48.853 101.812 48.9202Z" fill="url(#paint31_radial)"/>
        <path style="mix-blend-mode:color-dodge" d="M94.6006 53.8811L98.0771 55.8879C98.4115 56.0558 98.7835 56.1346 99.1573 56.1168C99.531 56.099 99.8939 55.9852 100.211 55.7863C100.354 55.7089 100.469 55.5892 100.541 55.4437C100.613 55.2982 100.639 55.1339 100.614 54.9734C100.546 55.1902 100.403 55.3757 100.211 55.496C99.8939 55.6948 99.531 55.8087 99.1573 55.8265C98.7835 55.8443 98.4115 55.7654 98.0771 55.5976L94.6006 53.6052C94.4945 53.5515 94.4007 53.4764 94.3251 53.3845C94.2495 53.2927 94.1938 53.1862 94.1615 53.0718C94.1298 53.2366 94.1562 53.4074 94.2363 53.555C94.3164 53.7025 94.4451 53.8178 94.6006 53.8811Z" fill="url(#paint32_radial)"/>
        <path style="mix-blend-mode:color-dodge" d="M108.627 52.8394L112.1 54.8318C112.434 54.9996 112.806 55.0784 113.18 55.0606C113.554 55.0428 113.916 54.929 114.233 54.7302C114.375 54.653 114.49 54.5339 114.562 54.3891C114.635 54.2443 114.66 54.0808 114.636 53.9209C114.567 54.1347 114.424 54.3172 114.233 54.4362C113.916 54.6345 113.553 54.7477 113.179 54.7649C112.806 54.782 112.434 54.7026 112.1 54.5342L108.627 52.5491C108.52 52.4965 108.425 52.4217 108.35 52.3297C108.274 52.2377 108.219 52.1306 108.188 52.0156C108.152 52.1827 108.177 52.3568 108.257 52.5075C108.337 52.6582 108.468 52.7757 108.627 52.8394Z" fill="url(#paint33_radial)"/>
        <path style="mix-blend-mode:color-dodge" d="M107.041 59.6952C107.184 59.6178 107.299 59.4981 107.371 59.3526C107.443 59.2071 107.469 59.0428 107.444 58.8823C107.377 59.0995 107.234 59.2851 107.041 59.4049C106.724 59.6038 106.361 59.7176 105.987 59.7354C105.614 59.7532 105.242 59.6743 104.907 59.5065L101.449 57.5142C101.339 57.463 101.241 57.3885 101.163 57.2957C101.084 57.2029 101.027 57.0942 100.995 56.9771C100.961 57.1459 100.987 57.3214 101.07 57.4724C101.154 57.6233 101.288 57.7397 101.449 57.8008L104.922 59.7932C105.254 59.9589 105.623 60.0369 105.994 60.0198C106.365 60.0026 106.725 59.8909 107.041 59.6952Z" fill="url(#paint34_radial)"/>
        <path style="mix-blend-mode:color-dodge" d="M110.636 57.2126C110.778 57.1352 110.894 57.0155 110.966 56.87C111.038 56.7244 111.063 56.5602 111.039 56.3997C110.973 56.6173 110.829 56.8032 110.636 56.9223C110.319 57.1211 109.956 57.2349 109.582 57.2527C109.208 57.2705 108.836 57.1917 108.502 57.0239L105.029 55.0315C104.923 54.9783 104.828 54.9034 104.753 54.8115C104.677 54.7196 104.622 54.6128 104.59 54.498C104.555 54.6651 104.579 54.8392 104.66 54.9899C104.74 55.1406 104.871 55.2581 105.029 55.3218L108.502 57.3142C108.836 57.482 109.208 57.5609 109.582 57.5431C109.956 57.5253 110.319 57.4114 110.636 57.2126Z" fill="url(#paint35_radial)"/>
        <path style="mix-blend-mode:color-dodge" d="M103.444 62.1735C103.586 62.0963 103.701 61.9772 103.773 61.8324C103.845 61.6876 103.871 61.5242 103.847 61.3642C103.78 61.5814 103.637 61.767 103.444 61.8868C103.127 62.0851 102.764 62.1983 102.39 62.2155C102.016 62.2326 101.645 62.1532 101.311 61.9848L97.8377 59.9925C97.7304 59.9404 97.6356 59.8658 97.5598 59.7737C97.484 59.6817 97.429 59.5743 97.3986 59.459C97.3632 59.626 97.3878 59.8002 97.4681 59.9508C97.5484 60.1015 97.6793 60.219 97.8377 60.2828L101.311 62.2751C101.645 62.443 102.017 62.5218 102.391 62.504C102.764 62.4862 103.127 62.3724 103.444 62.1735Z" fill="url(#paint36_radial)"/>
        <path style="mix-blend-mode:color-dodge" d="M117.467 60.8417C117.15 61.0406 116.787 61.1544 116.413 61.1722C116.04 61.19 115.668 61.1111 115.333 60.9433L111.86 58.951C111.754 58.8978 111.66 58.8228 111.584 58.7309C111.509 58.639 111.453 58.5322 111.421 58.4175C111.387 58.584 111.412 58.7573 111.492 58.9072C111.572 59.0571 111.703 59.174 111.86 59.2376L115.333 61.2336C115.668 61.4015 116.04 61.4803 116.413 61.4625C116.787 61.4447 117.15 61.3309 117.467 61.132C117.61 61.055 117.726 60.9354 117.798 60.7898C117.87 60.6441 117.895 60.4796 117.87 60.3191C117.804 60.5367 117.661 60.7226 117.467 60.8417Z" fill="url(#paint37_radial)"/>
        <path style="mix-blend-mode:color-dodge" d="M121.061 58.3593C120.745 58.5581 120.382 58.672 120.008 58.6898C119.634 58.7076 119.262 58.6287 118.928 58.4609L115.455 56.4685C115.348 56.4159 115.254 56.3411 115.178 56.2491C115.102 56.1572 115.047 56.0501 115.016 55.9351C114.98 56.1021 115.005 56.2762 115.085 56.4269C115.166 56.5776 115.296 56.6951 115.455 56.7589L118.928 58.7512C119.262 58.9191 119.634 58.9979 120.008 58.9801C120.382 58.9623 120.745 58.8485 121.061 58.6496C121.205 58.5726 121.32 58.453 121.392 58.3073C121.465 58.1617 121.49 57.9972 121.464 57.8367C121.398 58.0543 121.255 58.2402 121.061 58.3593Z" fill="url(#paint38_radial)"/>
        <path style="mix-blend-mode:color-dodge" d="M113.87 63.3238C113.553 63.5227 113.19 63.6365 112.817 63.6543C112.443 63.6721 112.071 63.5933 111.736 63.4254L108.263 61.4331C108.156 61.3797 108.062 61.3042 107.986 61.2117C107.911 61.1191 107.855 61.0115 107.824 60.896C107.789 61.063 107.814 61.2372 107.894 61.3879C107.974 61.5385 108.105 61.6561 108.263 61.7198L111.736 63.7121C112.071 63.88 112.443 63.9588 112.817 63.941C113.19 63.9232 113.553 63.8094 113.87 63.6105C114.013 63.5346 114.129 63.4157 114.201 63.2705C114.274 63.1254 114.299 62.9613 114.273 62.8012C114.206 63.0184 114.063 63.204 113.87 63.3238Z" fill="url(#paint39_radial)"/>
        <path style="mix-blend-mode:color-dodge" d="M110.276 65.8063C109.959 66.0046 109.596 66.1177 109.222 66.1349C108.849 66.1521 108.477 66.0726 108.143 65.9042L104.67 63.9119C104.563 63.8593 104.468 63.7845 104.393 63.6925C104.317 63.6005 104.262 63.4934 104.231 63.3784C104.195 63.5454 104.22 63.7196 104.3 63.8703C104.38 64.0209 104.511 64.1385 104.67 64.2022L108.143 66.1946C108.477 66.3624 108.849 66.4412 109.223 66.4234C109.597 66.4056 109.959 66.2918 110.276 66.093C110.419 66.0155 110.534 65.8959 110.607 65.7503C110.679 65.6048 110.704 65.4405 110.679 65.28C110.613 65.4982 110.47 65.6851 110.276 65.8063Z" fill="url(#paint40_radial)"/>
        <path style="mix-blend-mode:color-dodge" d="M99.8504 64.3651C99.5334 64.564 99.1706 64.6778 98.7968 64.6956C98.423 64.7134 98.051 64.6346 97.7166 64.4667L94.2437 62.4744C94.1369 62.4218 94.0424 62.347 93.9667 62.255C93.891 62.163 93.8357 62.0559 93.8047 61.9409C93.7645 62.1106 93.7868 62.2891 93.8674 62.4437C93.9481 62.5983 94.0816 62.7187 94.2437 62.7829L97.7166 64.7752C98.051 64.9431 98.423 65.0219 98.7968 65.0041C99.1706 64.9863 99.5334 64.8725 99.8504 64.6736C99.9931 64.5962 100.108 64.4765 100.181 64.331C100.253 64.1855 100.278 64.0212 100.253 63.8607C100.184 64.0716 100.041 64.2505 99.8504 64.3651Z" fill="url(#paint41_radial)"/>
        <path style="mix-blend-mode:color-dodge" d="M106.678 68.285C106.361 68.4838 105.998 68.5977 105.625 68.6155C105.251 68.6333 104.879 68.5544 104.544 68.3866L101.086 66.4124C100.979 66.3592 100.885 66.2842 100.81 66.1923C100.734 66.1004 100.679 65.9936 100.647 65.8789C100.619 66.043 100.648 66.2115 100.727 66.3575C100.807 66.5035 100.933 66.6187 101.086 66.6846L104.559 68.6769C104.893 68.8448 105.265 68.9236 105.639 68.9058C106.013 68.888 106.376 68.7742 106.693 68.5753C106.835 68.4979 106.951 68.3782 107.023 68.2327C107.095 68.0871 107.12 67.9229 107.095 67.7624C107.026 67.9823 106.877 68.1686 106.678 68.285Z" fill="url(#paint42_radial)"/>
        <path style="mix-blend-mode:color-dodge" d="M93.0191 60.4498C92.7018 60.6481 92.3388 60.7613 91.965 60.7785C91.5913 60.7956 91.2194 60.7162 90.8853 60.5478L87.4088 58.5554C87.3025 58.5021 87.2085 58.427 87.1328 58.3352C87.0572 58.2433 87.0017 58.1366 86.9697 58.022C86.9386 58.1887 86.9651 58.3611 87.0449 58.5108C87.1247 58.6605 87.253 58.7787 87.4088 58.8458L90.8853 60.8381C91.2197 61.006 91.5918 61.0848 91.9655 61.067C92.3393 61.0492 92.7021 60.9354 93.0191 60.7365C93.1619 60.6591 93.2772 60.5394 93.3493 60.3939C93.4214 60.2484 93.4468 60.0841 93.4219 59.9236C93.3539 60.141 93.2112 60.3274 93.0191 60.4498Z" fill="url(#paint43_radial)"/>
      </g>
      <path d="M106.64 67.6495L103.168 65.6571C102.833 65.4893 102.461 65.4104 102.087 65.4282C101.714 65.446 101.351 65.5599 101.034 65.7587C100.453 66.1579 100.471 66.7604 101.07 67.1051L104.543 69.0975C104.877 69.2653 105.249 69.3441 105.623 69.3263C105.997 69.3085 106.36 69.1947 106.677 68.9959C107.254 68.5967 107.254 67.9942 106.64 67.6495Z" fill="url(#paint44_linear)"/>
      <path d="M107.369 49.9002L103.896 47.9042C103.561 47.7357 103.188 47.6565 102.814 47.6743C102.439 47.6921 102.076 47.8063 101.758 48.0058C101.181 48.405 101.196 49.0075 101.795 49.3522L105.271 51.3446C105.605 51.5124 105.977 51.5912 106.351 51.5734C106.725 51.5556 107.088 51.4418 107.405 51.243C107.982 50.8474 107.982 50.245 107.369 49.9002ZM114.198 53.8196L110.725 51.8272C110.391 51.6589 110.019 51.5794 109.645 51.5966C109.272 51.6137 108.909 51.7269 108.591 51.9252C108.011 52.3244 108.025 52.9305 108.628 53.2716L112.101 55.264C112.435 55.4323 112.807 55.5118 113.18 55.4946C113.554 55.4775 113.917 55.3643 114.234 55.166C114.815 54.7668 114.797 54.1607 114.198 53.8196ZM115.457 57.191L118.93 59.1833C119.265 59.3512 119.637 59.43 120.01 59.4122C120.384 59.3944 120.747 59.2806 121.064 59.0817C121.645 58.6825 121.626 58.0801 121.028 57.7353L117.555 55.743C117.22 55.5751 116.848 55.4963 116.475 55.5141C116.101 55.5319 115.738 55.6457 115.421 55.8446C114.84 56.2511 114.877 56.8462 115.457 57.191ZM103.772 52.3825L100.299 50.3865C99.964 50.22 99.5916 50.142 99.2175 50.1598C98.8435 50.1776 98.4802 50.2906 98.162 50.4881C97.585 50.8873 97.5995 51.4897 98.1983 51.8345L101.675 53.8268C102.009 53.9952 102.381 54.0747 102.755 54.0575C103.128 54.0403 103.491 53.9272 103.809 53.7289C104.386 53.326 104.371 52.7236 103.772 52.3825ZM110.602 56.2982L107.129 54.3059C106.795 54.138 106.423 54.0592 106.049 54.077C105.675 54.0948 105.312 54.2086 104.995 54.4075C104.415 54.8067 104.429 55.4091 105.032 55.7539L108.504 57.7462C108.839 57.9141 109.211 57.9929 109.585 57.9751C109.958 57.9573 110.321 57.8435 110.638 57.6446C111.219 57.2454 111.201 56.643 110.602 56.2982ZM117.417 60.2176L113.944 58.2253C113.61 58.0574 113.238 57.9786 112.864 57.9964C112.49 58.0142 112.127 58.128 111.81 58.3269C111.23 58.7261 111.248 59.3285 111.847 59.6733L115.319 61.6656C115.654 61.8335 116.026 61.9123 116.4 61.8945C116.773 61.8767 117.136 61.7629 117.453 61.564C118.048 61.1648 118.03 60.5624 117.417 60.2176ZM100.176 54.8611L96.7032 52.8688C96.3657 52.7004 95.9903 52.6226 95.6137 52.643C95.2371 52.6633 94.8723 52.7811 94.5549 52.9849C93.9779 53.3841 93.9924 53.9865 94.5912 54.3313L98.0677 56.3236C98.4021 56.4915 98.7741 56.5703 99.1479 56.5525C99.5216 56.5347 99.8845 56.4209 100.201 56.222C100.789 55.8083 100.775 55.2059 100.176 54.8611ZM107.006 58.7914L103.533 56.799C103.198 56.6312 102.826 56.5524 102.453 56.5702C102.079 56.588 101.716 56.7018 101.399 56.9007C100.818 57.2999 100.833 57.9023 101.435 58.247L104.908 60.243C105.243 60.4109 105.615 60.4897 105.988 60.4719C106.362 60.4541 106.725 60.3403 107.042 60.1414C107.619 59.7277 107.619 59.1253 107.006 58.7914ZM113.835 62.7108L110.362 60.7184C110.028 60.5506 109.656 60.4718 109.282 60.4896C108.908 60.5074 108.546 60.6212 108.229 60.82C107.648 61.2192 107.666 61.8217 108.265 62.1664L111.738 64.1588C112.072 64.3266 112.444 64.4054 112.818 64.3876C113.192 64.3698 113.555 64.256 113.871 64.0572C114.452 63.6471 114.434 63.0447 113.835 62.6999V62.7108ZM96.5798 57.3398L93.1034 55.3511C92.7685 55.1825 92.3958 55.1034 92.0213 55.1212C91.6468 55.139 91.2833 55.2531 90.9659 55.4527C90.3889 55.8519 90.4035 56.4543 91.0022 56.799L94.4823 58.7914C94.8168 58.9592 95.1888 59.0381 95.5625 59.0203C95.9363 59.0025 96.2992 58.8886 96.6161 58.6898C97.1931 58.2906 97.1786 57.7027 96.5798 57.3398ZM103.409 61.2592L99.9365 59.2668C99.6024 59.0984 99.2306 59.019 98.8568 59.0361C98.4831 59.0533 98.12 59.1665 97.8028 59.3648C97.2221 59.7676 97.2367 60.37 97.8391 60.7112L101.312 62.7072C101.646 62.875 102.018 62.9538 102.392 62.936C102.766 62.9182 103.129 62.8044 103.446 62.6055C104.026 62.21 104.008 61.6039 103.409 61.2628V61.2592ZM110.239 65.1785L106.766 63.1826C106.432 63.0147 106.06 62.9359 105.686 62.9537C105.312 62.9715 104.949 63.0853 104.632 63.2842C104.052 63.6834 104.07 64.2858 104.669 64.6305L108.141 66.6229C108.476 66.7913 108.847 66.8707 109.221 66.8536C109.595 66.8364 109.958 66.7232 110.275 66.5249C110.856 66.1257 110.838 65.5233 110.239 65.1822V65.1785Z" fill="url(#paint45_linear)"/>
      <path d="M107.367 49.4647L103.895 47.4724C103.559 47.3059 103.187 47.2279 102.813 47.2456C102.439 47.2634 102.075 47.3764 101.757 47.574C101.18 47.9732 101.195 48.5756 101.793 48.9203L105.27 50.9127C105.605 51.08 105.977 51.1582 106.351 51.1398C106.724 51.1214 107.087 51.0069 107.404 50.8075C107.981 50.4119 107.981 49.8095 107.367 49.4647ZM114.197 53.3841L110.724 51.3917C110.39 51.2239 110.018 51.1451 109.644 51.1629C109.27 51.1807 108.907 51.2945 108.59 51.4933C108.01 51.8925 108.024 52.495 108.627 52.8397L112.099 54.8321C112.434 54.9999 112.806 55.0788 113.18 55.061C113.553 55.0432 113.916 54.9293 114.233 54.7305C114.814 54.3313 114.796 53.7288 114.197 53.3841ZM115.456 56.7591L118.929 58.7515C119.263 58.9193 119.635 58.9981 120.009 58.9803C120.383 58.9625 120.746 58.8487 121.063 58.6498C121.643 58.2507 121.625 57.6482 121.026 57.3035L117.554 55.3111C117.219 55.1433 116.847 55.0644 116.473 55.0822C116.1 55.1 115.737 55.2139 115.42 55.4127C114.839 55.8119 114.876 56.4144 115.456 56.7591ZM103.771 51.947L100.298 49.9546C99.9634 49.7861 99.5907 49.7069 99.2162 49.7247C98.8418 49.7425 98.4783 49.8567 98.1609 50.0562C97.5839 50.4554 97.5984 51.0579 98.1972 51.4026L101.674 53.395C102.008 53.5628 102.38 53.6416 102.754 53.6238C103.128 53.606 103.49 53.4922 103.807 53.2934C104.384 52.8942 104.37 52.2917 103.771 51.947ZM110.601 55.8664L107.128 53.874C106.793 53.7062 106.421 53.6273 106.048 53.6451C105.674 53.6629 105.311 53.7768 104.994 53.9756C104.413 54.3748 104.428 54.9772 105.03 55.322L108.503 57.3144C108.838 57.4822 109.21 57.561 109.583 57.5432C109.957 57.5254 110.32 57.4116 110.637 57.2127C111.218 56.8135 111.199 56.2111 110.601 55.8664ZM117.416 59.7857L113.943 57.7934C113.609 57.625 113.237 57.5456 112.863 57.5627C112.489 57.5799 112.126 57.6931 111.809 57.8914C111.228 58.2942 111.247 58.8966 111.845 59.2378L115.318 61.2337C115.653 61.4016 116.025 61.4804 116.398 61.4626C116.772 61.4448 117.135 61.331 117.452 61.1321C118.047 60.7329 118.029 60.1305 117.416 59.7857ZM100.175 54.4365L96.7021 52.4442C96.3675 52.2751 95.9949 52.1953 95.6205 52.2125C95.246 52.2296 94.8823 52.3432 94.5646 52.5421C93.9876 52.945 94.0022 53.5474 94.6009 53.8885L98.0774 55.8881C98.4118 56.056 98.7839 56.1348 99.1576 56.117C99.5314 56.0992 99.8942 55.9854 100.211 55.7865C100.788 55.3764 100.774 54.774 100.175 54.4365ZM107.004 58.3559L103.532 56.3635C103.198 56.1952 102.826 56.1157 102.452 56.1329C102.078 56.15 101.715 56.2632 101.398 56.4615C100.817 56.8607 100.832 57.4668 101.434 57.8079L104.907 59.8003C105.241 59.9686 105.613 60.0481 105.987 60.0309C106.36 60.0138 106.723 59.9006 107.041 59.7023C107.618 59.2922 107.618 58.6898 107.004 58.3486V58.3559ZM113.834 62.2716L110.361 60.2793C110.027 60.1114 109.655 60.0326 109.281 60.0504C108.907 60.0682 108.544 60.182 108.227 60.3809C107.647 60.7801 107.665 61.3825 108.264 61.7273L111.737 63.7196C112.071 63.8875 112.443 63.9663 112.817 63.9485C113.19 63.9307 113.553 63.8169 113.87 63.618C114.451 63.2116 114.433 62.6091 113.834 62.2644V62.2716ZM96.5787 56.9079L93.1022 54.9155C92.7668 54.7491 92.3944 54.6711 92.0203 54.6888C91.6462 54.7066 91.2829 54.8196 90.9648 55.0172C90.3878 55.4164 90.4023 56.0188 91.0011 56.3635L94.4812 58.3559C94.8156 58.5237 95.1876 58.6026 95.5614 58.5848C95.9351 58.567 96.298 58.4531 96.615 58.2543C97.192 57.8551 97.1774 57.2527 96.5787 56.9079ZM103.408 60.8273L99.9354 58.8349C99.601 58.6671 99.2289 58.5883 98.8552 58.6061C98.4814 58.6239 98.1186 58.7377 97.8016 58.9365C97.221 59.3357 97.2355 59.9382 97.8379 60.2829L101.311 62.2753C101.645 62.4431 102.017 62.5219 102.391 62.5041C102.765 62.4863 103.128 62.3725 103.445 62.1737C104.025 61.7745 104.007 61.172 103.408 60.8273ZM110.238 64.7467L106.765 62.7543C106.431 62.5865 106.058 62.5076 105.685 62.5254C105.311 62.5432 104.948 62.6571 104.631 62.8559C104.051 63.2551 104.069 63.8575 104.667 64.2023L108.14 66.1947C108.475 66.3625 108.847 66.4413 109.221 66.4235C109.594 66.4057 109.957 66.2919 110.274 66.093C110.855 65.6866 110.837 65.0914 110.238 64.7467ZM92.9824 59.3902L89.5096 57.3978C89.1747 57.2293 88.802 57.1501 88.4276 57.1679C88.0531 57.1857 87.6896 57.2999 87.3722 57.4994C86.7952 57.8986 86.8097 58.5011 87.4085 58.8458L90.885 60.8382C91.2194 61.006 91.5914 61.0848 91.9652 61.067C92.3389 61.0492 92.7018 60.9354 93.0187 60.7366C93.5957 60.3374 93.5812 59.7349 92.9824 59.3902ZM99.812 63.3096L96.3392 61.3317C96.0047 61.1639 95.6327 61.085 95.259 61.1028C94.8852 61.1206 94.5223 61.2345 94.2054 61.4333C93.6248 61.8325 93.6393 62.435 94.2417 62.7797L97.7145 64.7721C98.0489 64.9399 98.421 65.0187 98.7947 65.0009C99.1685 64.9831 99.5313 64.8693 99.8483 64.6705C100.429 64.2567 100.411 63.6543 99.812 63.3096ZM106.642 67.2289L103.169 65.2366C102.834 65.0687 102.462 64.9899 102.089 65.0077C101.715 65.0255 101.352 65.1393 101.035 65.3382C100.454 65.7374 100.472 66.3398 101.071 66.6846L104.544 68.6769C104.878 68.8448 105.251 68.9236 105.624 68.9058C105.998 68.888 106.361 68.7742 106.678 68.5753C107.255 68.1761 107.255 67.5737 106.642 67.2289Z" fill="url(#paint46_linear)"/>
      <path d="M106.64 67.2291L103.168 65.2367C102.833 65.0689 102.461 64.99 102.087 65.0078C101.714 65.0256 101.351 65.1395 101.034 65.3383C100.453 65.7375 100.471 66.3399 101.07 66.6847L104.543 68.6771C104.877 68.8449 105.249 68.9237 105.623 68.9059C105.997 68.8881 106.36 68.7743 106.677 68.5754C107.254 68.1762 107.254 67.5738 106.64 67.2291Z" fill="url(#paint47_linear)"/>
      <path d="M92.9824 59.818L89.5096 57.8256C89.1747 57.6571 88.802 57.5779 88.4276 57.5957C88.0531 57.6135 87.6896 57.7277 87.3722 57.9272C86.7952 58.3264 86.8097 58.9288 87.4085 59.2736L90.8849 61.266C91.2194 61.4338 91.5914 61.5126 91.9652 61.4948C92.3389 61.477 92.7018 61.3632 93.0187 61.1643C93.5957 60.7651 93.5812 60.1627 92.9824 59.818Z" fill="#01B0A1"/>
      <path d="M92.9824 59.3902L89.5096 57.3979C89.1747 57.2294 88.802 57.1502 88.4276 57.168C88.0531 57.1858 87.6896 57.3 87.3722 57.4995C86.7952 57.8987 86.8097 58.5011 87.4085 58.8459L90.8849 60.8382C91.2194 61.0061 91.5914 61.0849 91.9652 61.0671C92.3389 61.0493 92.7018 60.9355 93.0187 60.7366C93.5957 60.3374 93.5812 59.735 92.9824 59.3902Z" fill="#00CBB9"/>
      <path d="M99.8136 63.7316L96.3407 61.7538C96.0063 61.586 95.6343 61.5071 95.2605 61.5249C94.8868 61.5427 94.5239 61.6565 94.2069 61.8554C93.6263 62.2546 93.6408 62.857 94.2432 63.2018L97.7161 65.1942C98.0505 65.362 98.4225 65.4408 98.7963 65.423C99.17 65.4052 99.5329 65.2914 99.8499 65.0925C100.43 64.6788 100.412 64.0764 99.8136 63.7316Z" fill="url(#paint48_linear)"/>
      <path d="M99.8136 63.3098L96.3407 61.3319C96.0063 61.1641 95.6343 61.0853 95.2605 61.1031C94.8868 61.1208 94.5239 61.2347 94.2069 61.4335C93.6263 61.8327 93.6408 62.4352 94.2432 62.7799L97.7161 64.7723C98.0505 64.9401 98.4225 65.0189 98.7963 65.0011C99.17 64.9833 99.5329 64.8695 99.8499 64.6707C100.43 64.2569 100.412 63.6545 99.8136 63.3098Z" fill="url(#paint49_linear)"/>
      <path style="mix-blend-mode:color-dodge" d="M108.395 47.5414V47.0515L111.53 45.0156L111.744 45.1318L108.656 47.1822V47.6866L108.395 47.5414Z" fill="url(#paint50_radial)"/>
      <path d="M108.539 47.6572V47.1672L111.671 45.1313L111.889 45.2475L108.797 47.2979V47.8023L108.539 47.6572Z" fill="#D2D2D2"/>
      <path style="mix-blend-mode:color-dodge" d="M119.891 54.2148V53.7249L123.026 51.689L123.244 51.8051L120.152 53.8555V54.3599L119.891 54.2148Z" fill="url(#paint51_radial)"/>
      <path d="M120.035 54.331V53.8411L123.171 51.8052L123.388 51.9177L120.296 53.9717V54.4762L120.035 54.331Z" fill="#D2D2D2"/>
      <path d="M113.857 48.9924L115.276 48.0126C115.382 47.9396 115.506 47.8985 115.635 47.894C115.764 47.8895 115.891 47.9218 116.002 47.9872L117.78 49.0324C117.827 49.06 117.867 49.0992 117.896 49.1463C117.924 49.1935 117.94 49.2471 117.942 49.3022C117.945 49.3572 117.933 49.4119 117.908 49.4612C117.884 49.5105 117.847 49.5527 117.801 49.584L116.379 50.5638C116.273 50.6372 116.148 50.6786 116.02 50.6831C115.891 50.6876 115.764 50.655 115.653 50.5892L113.861 49.5441C113.814 49.5149 113.775 49.4744 113.748 49.4264C113.722 49.3783 113.707 49.3243 113.707 49.2693C113.707 49.2142 113.72 49.16 113.746 49.1116C113.773 49.0632 113.811 49.0222 113.857 48.9924Z" fill="#C7C7C7"/>
      <path d="M121.124 42.9446C120.905 42.8455 120.666 42.8 120.426 42.8118C120.185 42.8235 119.952 42.8922 119.743 43.0122C119.362 43.2489 119.362 43.6063 119.743 43.8091C119.963 43.9066 120.202 43.9513 120.442 43.9396C120.682 43.9278 120.916 43.86 121.124 43.7415C121.506 43.5 121.506 43.1474 121.124 42.9446ZM122.844 41.4667C122.805 41.4425 122.757 41.4329 122.718 41.4136L122.028 41.8434L122.153 41.8965C123.491 42.6017 123.496 43.8526 122.153 44.6881H122.129L122.82 45.0503H122.849C124.568 43.9588 124.558 42.3698 122.844 41.4667ZM125.597 39.7376C125.558 39.7376 125.514 39.699 125.476 39.6797L124.785 40.1095L124.906 40.1675C127.77 41.6744 127.804 44.3597 124.94 46.1467L125.63 46.5089C128.856 44.4853 128.842 41.4425 125.597 39.7376ZM124.22 40.6022C124.181 40.6022 124.138 40.5635 124.099 40.5442L123.409 40.9741L123.53 41.032C125.63 42.138 125.64 44.1037 123.554 45.4174H123.53L124.22 45.7796C126.712 44.2341 126.702 41.9062 124.22 40.6022Z" fill="#EF8175" fill-opacity="0.6"/>
      <path d="M278.559 130.744L441.628 35.953C445.936 33.449 446.033 27.2619 441.807 24.6228L368.437 -21.1953C364.202 -23.8398 364.311 -30.0429 368.636 -32.537L447.807 -78.1938C449.855 -79.3751 451.117 -81.5599 451.117 -83.9245V-111.905C451.117 -114.138 452.244 -116.22 454.113 -117.442L523.949 -163.097" stroke="url(#paint52_linear)" stroke-width="0.601389"/>
      <path d="M266.703 260.222L485.396 134.114C489.77 131.592 489.82 125.296 485.486 122.705L405.551 74.9189C401.243 72.3432 401.26 66.0956 405.583 63.544L452.394 35.9137C456.643 33.4053 456.75 27.295 452.59 24.6403L380.518 -21.3531C376.332 -24.0246 376.472 -30.1846 380.776 -32.6625L454.955 -75.3718C457.006 -76.5525 458.27 -78.7385 458.27 -81.1047V-108.693C458.27 -110.933 459.403 -113.021 461.281 -114.241L528.09 -157.639" stroke="url(#paint53_linear)" stroke-width="0.601389"/>
      <path d="M73.2266 130.487L440.292 -81.956C442.335 -83.1386 443.593 -85.3206 443.593 -87.6815V-115.822C443.593 -118.074 444.739 -120.171 446.634 -121.388L543.524 -183.61" stroke="url(#paint54_linear)" stroke-width="0.601389"/>
    </g>
  </g>
  <defs>
    <filter id="filter0_f" x="66.7285" y="19.9101" width="117.823" height="79.7281" filterUnits="userSpaceOnUse" color-interpolation-filters="sRGB">
      <feFlood flood-opacity="0" result="BackgroundImageFix"/>
      <feBlend mode="normal" in="SourceGraphic" in2="BackgroundImageFix" result="shape"/>
      <feGaussianBlur stdDeviation="7.37793" result="effect1_foregroundBlur"/>
    </filter>
    <filter id="filter1_f" x="74.3405" y="31.5607" width="88.7503" height="59.8903" filterUnits="userSpaceOnUse" color-interpolation-filters="sRGB">
      <feFlood flood-opacity="0" result="BackgroundImageFix"/>
      <feBlend mode="normal" in="SourceGraphic" in2="BackgroundImageFix" result="shape"/>
      <feGaussianBlur stdDeviation="4.15009" result="effect1_foregroundBlur"/>
    </filter>
    <linearGradient id="paint0_linear" x1="335.955" y1="81.7374" x2="328.558" y2="110.056" gradientUnits="userSpaceOnUse">
      <stop stop-color="#FBFBFB"/>
      <stop offset="1" stop-color="#F1F1F1"/>
    </linearGradient>
    <linearGradient id="paint1_linear" x1="173.7" y1="85.459" x2="169.513" y2="100.733" gradientUnits="userSpaceOnUse">
      <stop stop-color="#F1F1F1"/>
      <stop offset="1" stop-color="#FBFBFB"/>
    </linearGradient>
    <linearGradient id="paint2_linear" x1="-18.8125" y1="830.753" x2="178.313" y2="261.643" gradientUnits="userSpaceOnUse">
      <stop stop-color="white"/>
      <stop offset="1" stop-color="white" stop-opacity="0"/>
    </linearGradient>
    <linearGradient id="paint3_linear" x1="1157.5" y1="803.601" x2="887.85" y2="265.055" gradientUnits="userSpaceOnUse">
      <stop stop-color="white"/>
      <stop offset="1" stop-color="white" stop-opacity="0"/>
    </linearGradient>
    <linearGradient id="paint4_linear" x1="203.547" y1="-25.1375" x2="425.384" y2="-180.905" gradientUnits="userSpaceOnUse">
      <stop stop-color="#3C939F"/>
      <stop offset="1" stop-color="#60C8D6" stop-opacity="0"/>
    </linearGradient>
    <linearGradient id="paint5_linear" x1="14.1445" y1="240.396" x2="319.652" y2="256.852" gradientUnits="userSpaceOnUse">
      <stop stop-color="#3C939F" stop-opacity="0"/>
      <stop offset="0.628998" stop-color="#3C939F"/>
      <stop offset="1" stop-color="#60C8D6" stop-opacity="0"/>
    </linearGradient>
    <linearGradient id="paint6_linear" x1="55.1914" y1="229.516" x2="291.031" y2="228.9" gradientUnits="userSpaceOnUse">
      <stop stop-color="#3C939F" stop-opacity="0"/>
      <stop offset="0.284655" stop-color="#3C939F"/>
      <stop offset="0.628998" stop-color="#3C939F"/>
      <stop offset="1" stop-color="#60C8D6" stop-opacity="0"/>
    </linearGradient>
    <linearGradient id="paint7_linear" x1="250.136" y1="-22.8642" x2="483.482" y2="-208.463" gradientUnits="userSpaceOnUse">
      <stop stop-color="#3C939F"/>
      <stop offset="1" stop-color="#60C8D6" stop-opacity="0"/>
    </linearGradient>
    <linearGradient id="paint8_linear" x1="-204.738" y1="171.987" x2="264.918" y2="145.269" gradientUnits="userSpaceOnUse">
      <stop stop-color="#C4C4C4"/>
      <stop offset="1" stop-color="#C4C4C4" stop-opacity="0"/>
    </linearGradient>
    <linearGradient id="paint9_linear" x1="28.2416" y1="10.7388" x2="12.2115" y2="50.8269" gradientUnits="userSpaceOnUse">
      <stop stop-color="#F4F4F4"/>
      <stop offset="1" stop-color="#F2F2F2"/>
    </linearGradient>
    <linearGradient id="paint10_linear" x1="28.2416" y1="10.7388" x2="12.2115" y2="50.8269" gradientUnits="userSpaceOnUse">
      <stop stop-color="#F4F4F4"/>
      <stop offset="1" stop-color="#F2F2F2"/>
    </linearGradient>
    <linearGradient id="paint11_linear" x1="11.9352" y1="2.54317" x2="84.1069" y2="36.1241" gradientUnits="userSpaceOnUse">
      <stop stop-color="#FBFBFB"/>
      <stop offset="1" stop-color="#CFCFCF"/>
    </linearGradient>
    <linearGradient id="paint12_linear" x1="187.279" y1="125.882" x2="186.306" y2="179.09" gradientUnits="userSpaceOnUse">
      <stop stop-color="white"/>
      <stop offset="1" stop-color="white" stop-opacity="0"/>
    </linearGradient>
    <linearGradient id="paint13_linear" x1="165.17" y1="-18.4381" x2="-127.754" y2="289.211" gradientUnits="userSpaceOnUse">
      <stop stop-color="#EE786C"/>
      <stop offset="0.285477" stop-color="#EE786C"/>
      <stop offset="0.716077" stop-color="#EE786C" stop-opacity="0.57"/>
      <stop offset="1" stop-color="#EE786C" stop-opacity="0"/>
    </linearGradient>
    <linearGradient id="paint14_linear" x1="190.305" y1="244.296" x2="-32.7826" y2="609.375" gradientUnits="userSpaceOnUse">
      <stop stop-color="#EE786C"/>
      <stop offset="0.0850811" stop-color="#EE786C" stop-opacity="0.534842"/>
      <stop offset="0.32173" stop-color="#EE786C" stop-opacity="0"/>
      <stop offset="0.551654" stop-color="#EE786C" stop-opacity="0"/>
      <stop offset="0.831119" stop-color="#EE786C" stop-opacity="0.29"/>
      <stop offset="1" stop-color="#EE786C" stop-opacity="0"/>
    </linearGradient>
    <linearGradient id="paint15_linear" x1="57.8477" y1="94.5509" x2="63.4976" y2="98.3535" gradientUnits="userSpaceOnUse">
      <stop stop-color="#F48D89"/>
      <stop offset="1" stop-color="#EE786C"/>
    </linearGradient>
    <linearGradient id="paint16_linear" x1="130.04" y1="51.5911" x2="139.316" y2="35.7761" gradientUnits="userSpaceOnUse">
      <stop offset="1" stop-color="#EDEDED"/>
    </linearGradient>
    <linearGradient id="paint17_linear" x1="113.358" y1="61.3351" x2="166.166" y2="75.088" gradientUnits="userSpaceOnUse">
      <stop offset="0.03" stop-color="#E9E9E9"/>
      <stop offset="0.99" stop-color="#E4E4E4"/>
    </linearGradient>
    <linearGradient id="paint18_linear" x1="96.4887" y1="79.8105" x2="125.957" y2="31.509" gradientUnits="userSpaceOnUse">
      <stop offset="0.01" stop-color="#EAEAEA"/>
      <stop offset="0.05" stop-color="#E9E9E9"/>
      <stop offset="0.07" stop-color="#E9E9E9"/>
      <stop offset="0.1" stop-color="#FBFBFB"/>
      <stop offset="0.13" stop-color="#F7F7F7"/>
      <stop offset="0.177083" stop-color="#F7F7F7"/>
      <stop offset="0.2498" stop-color="#FBFBFB"/>
      <stop offset="0.2499" stop-color="#F8F8F8"/>
      <stop offset="0.68" stop-color="#F1F1F4"/>
      <stop offset="1" stop-color="#F1F1F4"/>
    </linearGradient>
    <radialGradient id="paint19_radial" cx="0" cy="0" r="1" gradientUnits="userSpaceOnUse" gradientTransform="translate(2144.05 4975.29) scale(2657.78 2361.55)">
      <stop stop-color="white"/>
      <stop offset="1"/>
    </radialGradient>
    <linearGradient id="paint20_linear" x1="109.288" y1="82.3692" x2="111.712" y2="85.6062" gradientUnits="userSpaceOnUse">
      <stop offset="0.42" stop-color="#46474D"/>
      <stop offset="0.54" stop-color="#62656B"/>
      <stop offset="0.7" stop-color="#252628"/>
    </linearGradient>
    <linearGradient id="paint21_linear" x1="6153.36" y1="4351.99" x2="10888.6" y2="6824.5" gradientUnits="userSpaceOnUse">
      <stop stop-color="#D2D2D2"/>
      <stop offset="1" stop-color="#959595"/>
    </linearGradient>
    <linearGradient id="paint22_linear" x1="127.013" y1="67.6132" x2="119.994" y2="25.3856" gradientUnits="userSpaceOnUse">
      <stop offset="0.04" stop-color="#CFCFCF"/>
      <stop offset="1" stop-color="#E9E9E9"/>
    </linearGradient>
    <linearGradient id="paint23_linear" x1="115.397" y1="42.3952" x2="116.827" y2="58.6461" gradientUnits="userSpaceOnUse">
      <stop offset="0.05" stop-color="#5D6066"/>
      <stop offset="1" stop-color="#37383C"/>
    </linearGradient>
    <linearGradient id="paint24_linear" x1="115.164" y1="37.0719" x2="116.932" y2="57.5365" gradientUnits="userSpaceOnUse">
      <stop stop-color="#F1F1F1"/>
      <stop offset="0.554213" stop-color="#ECECEC"/>
      <stop offset="1" stop-color="#D9D9D9"/>
    </linearGradient>
    <linearGradient id="paint25_linear" x1="130.302" y1="59.7098" x2="121.752" y2="33.3631" gradientUnits="userSpaceOnUse">
      <stop offset="0.04" stop-color="white"/>
      <stop offset="1" stop-color="white"/>
    </linearGradient>
    <linearGradient id="paint26_linear" x1="115.428" y1="43.653" x2="116.274" y2="52.9522" gradientUnits="userSpaceOnUse">
      <stop stop-color="#F1F1F1"/>
      <stop offset="0.554213" stop-color="#ECECEC"/>
      <stop offset="1" stop-color="#D9D9D9"/>
    </linearGradient>
    <radialGradient id="paint27_radial" cx="0" cy="0" r="1" gradientUnits="userSpaceOnUse" gradientTransform="translate(1110.97 281.151) scale(79.6803 26.7162)">
      <stop stop-color="white"/>
      <stop offset="1"/>
    </radialGradient>
    <linearGradient id="paint28_linear" x1="99.4553" y1="78.9726" x2="81.1651" y2="65.1468" gradientUnits="userSpaceOnUse">
      <stop offset="0.02" stop-color="#E9E9E9"/>
      <stop offset="0.29" stop-color="#E9E9E9"/>
      <stop offset="1" stop-color="#C9C9C9"/>
    </linearGradient>
    <radialGradient id="paint29_radial" cx="0" cy="0" r="1" gradientUnits="userSpaceOnUse" gradientTransform="translate(568.466 302.209) scale(45.1896 21.2714)">
      <stop stop-color="white"/>
      <stop offset="1"/>
    </radialGradient>
    <radialGradient id="paint30_radial" cx="0" cy="0" r="1" gradientUnits="userSpaceOnUse" gradientTransform="translate(433.272 350.211) scale(45.2301 21.3727)">
      <stop stop-color="white"/>
      <stop offset="1"/>
    </radialGradient>
    <radialGradient id="paint31_radial" cx="0" cy="0" r="1" gradientUnits="userSpaceOnUse" gradientTransform="translate(634.793 278.652) scale(45.0662 21.2505)">
      <stop stop-color="white"/>
      <stop offset="1"/>
    </radialGradient>
    <radialGradient id="paint32_radial" cx="0" cy="0" r="1" gradientUnits="userSpaceOnUse" gradientTransform="translate(500.747 325.517) scale(45.192 21.2714)">
      <stop stop-color="white"/>
      <stop offset="1"/>
    </radialGradient>
    <radialGradient id="paint33_radial" cx="0" cy="0" r="1" gradientUnits="userSpaceOnUse" gradientTransform="translate(764.866 315.715) scale(45.1821 21.2715)">
      <stop stop-color="white"/>
      <stop offset="1"/>
    </radialGradient>
    <radialGradient id="paint34_radial" cx="0" cy="0" r="1" gradientUnits="userSpaceOnUse" gradientTransform="translate(629.331 362.093) scale(45.1781 21.2546)">
      <stop stop-color="white"/>
      <stop offset="1"/>
    </radialGradient>
    <radialGradient id="paint35_radial" cx="0" cy="0" r="1" gradientUnits="userSpaceOnUse" gradientTransform="translate(697.166 339.042) scale(45.1856 21.2715)">
      <stop stop-color="white"/>
      <stop offset="1"/>
    </radialGradient>
    <radialGradient id="paint36_radial" cx="0" cy="0" r="1" gradientUnits="userSpaceOnUse" gradientTransform="translate(561.632 385.662) scale(45.1821 21.2715)">
      <stop stop-color="white"/>
      <stop offset="1"/>
    </radialGradient>
    <radialGradient id="paint37_radial" cx="0" cy="0" r="1" gradientUnits="userSpaceOnUse" gradientTransform="translate(825.793 375.843) scale(45.1832 21.2714)">
      <stop stop-color="white"/>
      <stop offset="1"/>
    </radialGradient>
    <radialGradient id="paint38_radial" cx="0" cy="0" r="1" gradientUnits="userSpaceOnUse" gradientTransform="translate(893.622 352.547) scale(45.1882 21.2715)">
      <stop stop-color="white"/>
      <stop offset="1"/>
    </radialGradient>
    <radialGradient id="paint39_radial" cx="0" cy="0" r="1" gradientUnits="userSpaceOnUse" gradientTransform="translate(758.135 399.166) scale(45.1894 21.2714)">
      <stop stop-color="white"/>
      <stop offset="1"/>
    </radialGradient>
    <radialGradient id="paint40_radial" cx="0" cy="0" r="1" gradientUnits="userSpaceOnUse" gradientTransform="translate(690.333 422.494) scale(45.1856 21.2714)">
      <stop stop-color="white"/>
      <stop offset="1"/>
    </radialGradient>
    <radialGradient id="paint41_radial" cx="0" cy="0" r="1" gradientUnits="userSpaceOnUse" gradientTransform="translate(494.148 411.055) scale(45.2117 21.3981)">
      <stop stop-color="white"/>
      <stop offset="1"/>
    </radialGradient>
    <radialGradient id="paint42_radial" cx="0" cy="0" r="1" gradientUnits="userSpaceOnUse" gradientTransform="translate(622.15 443.546) scale(45.1465 21.1448)">
      <stop stop-color="white"/>
      <stop offset="1"/>
    </radialGradient>
    <radialGradient id="paint43_radial" cx="0" cy="0" r="1" gradientUnits="userSpaceOnUse" gradientTransform="translate(365.216 372.157) scale(45.1896 21.2715)">
      <stop stop-color="white"/>
      <stop offset="1"/>
    </radialGradient>
    <linearGradient id="paint44_linear" x1="103.062" y1="65.459" x2="104.038" y2="70.8481" gradientUnits="userSpaceOnUse">
      <stop stop-color="#D9D9D9"/>
      <stop offset="1" stop-color="#B4B4B4"/>
    </linearGradient>
    <linearGradient id="paint45_linear" x1="102.227" y1="47.8353" x2="107.166" y2="74.2692" gradientUnits="userSpaceOnUse">
      <stop stop-color="#D9D9D9"/>
      <stop offset="1" stop-color="#B4B4B4"/>
    </linearGradient>
    <linearGradient id="paint46_linear" x1="102.766" y1="36.2361" x2="105.968" y2="72.0884" gradientUnits="userSpaceOnUse">
      <stop stop-color="#F1F1F1"/>
      <stop offset="0.554213" stop-color="#ECECEC"/>
      <stop offset="1" stop-color="#D9D9D9"/>
    </linearGradient>
    <linearGradient id="paint47_linear" x1="103.584" y1="63.0224" x2="104.137" y2="69.4855" gradientUnits="userSpaceOnUse">
      <stop stop-color="#F1F1F1"/>
      <stop offset="0.554213" stop-color="#ECECEC"/>
      <stop offset="1" stop-color="#D9D9D9"/>
    </linearGradient>
    <linearGradient id="paint48_linear" x1="96.2327" y1="61.5557" x2="97.2091" y2="66.9446" gradientUnits="userSpaceOnUse">
      <stop stop-color="#D9D9D9"/>
      <stop offset="1" stop-color="#B4B4B4"/>
    </linearGradient>
    <linearGradient id="paint49_linear" x1="96.7547" y1="59.1176" x2="97.3079" y2="65.5807" gradientUnits="userSpaceOnUse">
      <stop stop-color="#F1F1F1"/>
      <stop offset="0.554213" stop-color="#ECECEC"/>
      <stop offset="1" stop-color="#D9D9D9"/>
    </linearGradient>
    <radialGradient id="paint50_radial" cx="0" cy="0" r="1" gradientUnits="userSpaceOnUse" gradientTransform="translate(435.839 223.224) scale(14.0008 11.1647)">
      <stop stop-color="white"/>
      <stop offset="1"/>
    </radialGradient>
    <radialGradient id="paint51_radial" cx="0" cy="0" r="1" gradientUnits="userSpaceOnUse" gradientTransform="translate(553.915 279.016) scale(14.0159 11.1647)">
      <stop stop-color="white"/>
      <stop offset="1"/>
    </radialGradient>
    <linearGradient id="paint52_linear" x1="464.666" y1="-79.7277" x2="273.653" y2="120.889" gradientUnits="userSpaceOnUse">
      <stop stop-color="#EE786C"/>
      <stop offset="0.285477" stop-color="#EE786C"/>
      <stop offset="0.716077" stop-color="#EE786C" stop-opacity="0.57"/>
      <stop offset="1" stop-color="#EE786C" stop-opacity="0"/>
    </linearGradient>
    <linearGradient id="paint53_linear" x1="481.057" y1="91.5999" x2="335.582" y2="329.666" gradientUnits="userSpaceOnUse">
      <stop stop-color="#EE786C"/>
      <stop offset="0.0850811" stop-color="#EE786C" stop-opacity="0.534842"/>
      <stop offset="0.32173" stop-color="#EE786C" stop-opacity="0"/>
      <stop offset="0.551654" stop-color="#EE786C" stop-opacity="0"/>
      <stop offset="0.831119" stop-color="#EE786C" stop-opacity="0.29"/>
      <stop offset="1" stop-color="#EE786C" stop-opacity="0"/>
    </linearGradient>
    <linearGradient id="paint54_linear" x1="366.258" y1="-41.4537" x2="147.465" y2="207.093" gradientUnits="userSpaceOnUse">
      <stop stop-color="#EE786C"/>
      <stop offset="0.346238" stop-color="#EE786C" stop-opacity="0.1"/>
      <stop offset="0.69605" stop-color="#EE786C" stop-opacity="0.2"/>
      <stop offset="1" stop-color="#EE786C" stop-opacity="0"/>
    </linearGradient>
  </defs>
</svg>
