<svg xmlns="http://www.w3.org/2000/svg" width="320" height="283" fill="none" viewBox="0 0 320 283"><mask id="mask0" width="320" height="283" x="0" y="0" mask-type="alpha" maskUnits="userSpaceOnUse"><rect width="320" height="283" fill="#C4C4C4"/></mask><g mask="url(#mask0)"><path fill="#fff" d="M319.253 4.37109L525.259 170.715L319.81 334.599L28.7858 174.796C27.4904 174.084 27.4644 172.897 28.7283 172.167L319.253 4.37109Z"/><path fill="#F1F1F1" d="M26.3975 200.467V179.132L319.44 343.689V368.178L26.3975 200.467Z"/><path fill="url(#paint0_linear)" d="M26.3969 198.612L330.051 371.881L320.232 377.64L21.4111 207.814L25.1852 205.499C26.0786 204.951 26.566 204.223 26.5433 203.471L26.3969 198.612Z"/><path fill="url(#paint1_linear)" d="M31.0629 170.9L330.015 339.422L320.182 345.173L26.4248 179.249L26.4249 175.416C26.425 174.228 27.2458 173.09 28.7054 172.252L31.0629 170.9Z"/><path stroke="url(#paint2_linear)" stroke-dasharray=".74 .74" stroke-width=".26" d="M111.181 182.657V193.301C111.181 196.58 114.852 198.521 117.561 196.674L240.317 112.984C241.564 112.134 243.179 112.042 244.516 112.744L261.723 121.793C263.043 122.487 264.638 122.406 265.88 121.581L310.245 92.1226"/><g filter="url(#filter0_f)" opacity=".3"><path fill="#E1E3EB" d="M69.6502 168.891L125.793 135.044C127.384 134.085 129.366 134.048 130.991 134.948L231.772 190.745C235.293 192.695 235.356 197.735 231.884 199.771L174.12 233.649C172.526 234.584 170.555 234.602 168.944 233.695L69.7837 177.866C66.3156 175.914 66.2416 170.946 69.6502 168.891Z"/></g><path fill="#DF6461" d="M112.103 181.036C112.515 181.749 112.515 182.904 112.103 183.617C111.913 183.947 111.667 184.125 111.418 184.149C111.129 184.177 110.726 184.235 110.505 183.852C110.093 183.139 110.032 181.559 110.443 180.846C110.891 180.282 111.692 180.323 112.103 181.036ZM110.891 183.135C111.149 183.581 111.567 183.581 111.825 183.135C112.082 182.688 112.082 181.965 111.825 181.518C111.567 181.072 111.149 181.072 110.891 181.518C110.633 181.965 110.633 182.688 110.891 183.135Z"/><path fill="url(#paint3_linear)" d="M111.745 181.036C112.157 181.749 112.157 182.905 111.745 183.617C111.334 184.33 110.667 184.33 110.255 183.617C109.843 182.905 109.843 181.749 110.255 181.036C110.667 180.323 111.334 180.323 111.745 181.036Z"/><g filter="url(#filter1_b)"><rect width="124" height="83" fill="url(#paint4_linear)" fill-opacity=".5" rx="4" transform="matrix(0.866025 0.5 -2.20305e-08 1 143 27)"/><rect width="123.629" height="82.629" x=".161" y=".278" stroke="url(#paint5_linear)" stroke-width=".371" rx="3.814" transform="matrix(0.866025 0.5 -2.20305e-08 1 143.022 26.9197)"/></g><g filter="url(#filter2_b)"><rect width="123.769" height="83.697" fill="url(#paint6_linear)" fill-opacity=".7" rx="4.081" transform="matrix(0.864054 0.5034 -2.18319e-08 1 131.001 35)"/><rect width="123.034" height="82.962" x=".318" y=".552" stroke="url(#paint7_linear)" stroke-width=".735" rx="3.714" transform="matrix(0.864054 0.5034 -2.18319e-08 1 131.044 34.8402)"/></g><g filter="url(#filter3_f)"><path fill="url(#paint8_radial)" d="M181.026 80.0393L181.074 80.0672L181.074 80.0355L181.05 80.0056L181.026 80.0393ZM181.026 92.743L181.026 92.7987L181.074 92.8267L181.074 92.771L181.026 92.743ZM200.481 104.063L200.481 104.007L200.432 103.979L200.432 104.035L200.481 104.063ZM181.026 130.854L180.978 130.826L180.978 130.857L181 130.886L181.026 130.854ZM158.768 51.8918L181.001 80.0729L181.05 80.0056L158.817 51.8246L158.768 51.8918ZM180.978 80.0113L180.978 92.715L181.074 92.771L181.074 80.0672L180.978 80.0113ZM181.026 92.6874L162.961 82.1764L162.961 82.2877L181.026 92.7987L181.026 92.6874ZM162.961 82.1764L131 63.5801L131 63.6915L162.961 82.2877L162.961 82.1764ZM162.913 82.2041L162.913 107.612L163.009 107.668L163.009 82.2601L162.913 82.2041ZM162.961 107.584L131 88.9877L131 89.099L162.961 107.695L162.961 107.584ZM200.481 129.526L238 151.356L238 151.245L200.481 129.414L200.481 129.526ZM200.529 129.498L200.529 104.09L200.432 104.035L200.432 129.442L200.529 129.498ZM200.481 104.118L238 125.949L238 125.837L200.481 104.007L200.481 104.118ZM162.961 107.695L181.026 118.206L181.026 118.095L162.961 107.584L162.961 107.695ZM181.026 118.206L200.481 129.526L200.481 129.414L181.026 118.095L181.026 118.206ZM180.978 118.123L180.978 130.826L181.074 130.882L181.074 118.179L180.978 118.123ZM181 130.886L203.234 160.338L203.286 160.274L181.052 130.823L181 130.886Z" mask="url(#path-14-inside-1)"/></g><g filter="url(#filter4_f)"><line x2="8.271" y1="-.186" y2="-.186" stroke="#fff" stroke-width=".371" transform="matrix(-2.18734e-08 1 -0.864339 -0.502611 200.537 113.108)"/></g><g filter="url(#filter5_f)"><line x2="5.625" y1="-.186" y2="-.186" stroke="#fff" stroke-width=".371" transform="matrix(2.18734e-08 -1 0.864339 0.502611 163.075 103.896)"/></g><g filter="url(#filter6_f)"><path stroke="#fff" stroke-width=".371" d="M177.356 90.5336L181.13 92.7278L181.13 87.4334"/></g><g filter="url(#filter7_f)"><path stroke="#fff" stroke-width=".371" d="M183.691 119.689L180.996 118.122L180.996 120.604"/></g><g filter="url(#filter8_d)"><path fill="#F9F9F9" d="M173.177 96.3785C172.988 96.2684 172.771 96.0483 172.636 95.8125C172.312 95.2778 172.285 94.6646 172.582 94.4601C173.366 93.9097 174.259 93.5794 175.259 93.4378C175.637 93.3749 176.151 93.8309 176.367 94.397C176.611 94.9787 176.476 95.4977 176.097 95.5291C175.232 95.655 174.448 95.9224 173.772 96.4099C173.61 96.5043 173.393 96.5043 173.177 96.3785Z"/><path fill="#F9F9F9" d="M170.232 106.142C169.854 105.922 169.502 105.403 169.421 104.884C169.313 104.035 169.259 103.186 169.259 102.4C169.259 100.607 169.529 99.0037 170.07 97.683C170.232 97.3057 170.692 97.3214 171.124 97.7616C171.53 98.1861 171.746 98.8464 171.584 99.2552C171.097 100.419 170.881 101.802 170.881 103.375C170.881 104.066 170.935 104.821 171.016 105.56C171.097 106.11 170.8 106.44 170.34 106.267C170.313 106.157 170.286 106.173 170.232 106.142Z"/><path fill="#F9F9F9" d="M193.023 121.062C192.942 121.015 192.86 120.968 192.779 120.889C192.347 120.481 192.103 119.836 192.239 119.411C192.401 118.845 192.536 118.263 192.617 117.619C192.671 117.147 193.077 117.005 193.536 117.336C193.969 117.65 194.293 118.31 194.239 118.814C194.158 119.553 194.023 120.26 193.807 120.889C193.699 121.204 193.374 121.267 193.023 121.062Z"/><path fill="#F9F9F9" d="M193.428 115.606C193.023 115.37 192.671 114.82 192.617 114.317C191.914 107.619 187.264 100.166 181.802 96.9905C180.937 96.4874 180.099 96.1258 179.261 95.8585C178.828 95.7013 178.369 95.1196 178.288 94.5693C178.179 94.0033 178.45 93.6574 178.882 93.7832C179.829 94.0819 180.802 94.4907 181.802 95.0724C188.075 98.7199 193.428 107.273 194.239 114.977C194.293 115.511 193.996 115.81 193.536 115.637C193.482 115.637 193.455 115.621 193.428 115.606Z"/><path fill="#F9F9F9" d="M188.507 125.889C188.372 125.81 188.237 125.7 188.102 125.527C187.723 125.055 187.588 124.379 187.804 124.065C187.831 124.049 189.805 121.109 189.805 114.317C189.805 112.619 189.427 110.763 188.697 108.893C188.48 108.327 188.588 107.792 188.994 107.776C189.373 107.745 189.886 108.169 190.103 108.767C190.968 110.999 191.427 113.216 191.427 115.26C191.427 122.587 189.291 125.684 189.183 125.81C189.075 126.061 188.805 126.062 188.507 125.889Z"/><path fill="#F9F9F9" d="M172.962 105.467C172.503 105.199 172.151 104.586 172.151 104.052C172.151 97.7626 176.396 95.294 181.804 98.4384C183.507 99.4289 185.21 100.923 186.67 102.778C187.049 103.249 187.184 103.925 186.968 104.24C186.751 104.554 186.238 104.413 185.859 103.941C184.643 102.416 183.237 101.158 181.804 100.325C177.288 97.6996 173.774 99.7436 173.774 104.995C173.774 105.529 173.395 105.718 172.962 105.467Z"/><path fill="#F9F9F9" d="M172.043 112.478C171.908 112.4 171.745 112.274 171.61 112.07C171.232 111.566 171.123 110.938 171.34 110.623C171.367 110.576 171.772 109.9 171.989 107.541C172.043 107.069 172.421 106.912 172.881 107.211C173.314 107.525 173.638 108.154 173.611 108.673C173.341 111.503 172.827 112.274 172.719 112.4C172.556 112.62 172.313 112.636 172.043 112.478Z"/><path fill="#F9F9F9" d="M184.829 125.544C184.667 125.45 184.505 125.292 184.343 125.072C183.991 124.554 183.91 123.94 184.154 123.642C184.181 123.626 186.56 121.016 186.857 114.082C186.884 113.563 187.263 113.375 187.695 113.658C188.155 113.956 188.479 114.585 188.479 115.088C188.182 122.682 185.587 125.418 185.478 125.544C185.316 125.701 185.073 125.686 184.829 125.544Z"/><path fill="#F9F9F9" d="M187.482 111.991C187.13 111.787 186.806 111.315 186.698 110.843C186.076 107.934 184.102 105.057 181.777 103.705C180.317 102.856 178.992 102.714 178.046 103.328C177.748 103.532 177.234 103.233 176.91 102.699C176.585 102.164 176.585 101.567 176.883 101.362C178.154 100.56 179.884 100.717 181.777 101.818C184.832 103.594 187.428 107.368 188.266 111.252C188.401 111.834 188.131 112.211 187.698 112.086C187.644 112.086 187.563 112.038 187.482 111.991Z"/><path fill="#F9F9F9" d="M174.151 116.471C174.016 116.393 173.881 116.283 173.745 116.11C173.367 115.638 173.232 114.962 173.448 114.648C173.475 114.632 175.07 112.195 175.07 105.749C175.07 105.183 175.124 104.679 175.205 104.192C175.286 103.736 175.719 103.642 176.152 103.988C176.584 104.333 176.882 105.01 176.801 105.466C176.719 105.827 176.692 106.252 176.692 106.66C176.692 113.673 174.935 116.298 174.854 116.377C174.692 116.629 174.421 116.629 174.151 116.471Z"/><path fill="#F9F9F9" d="M181.668 124.27C181.506 124.176 181.371 124.034 181.208 123.845C180.83 123.342 180.722 122.682 180.992 122.399C181.019 122.383 182.668 120.355 183.533 116.173C183.615 115.717 184.047 115.622 184.507 116.016C184.939 116.361 185.237 117.037 185.129 117.509C184.209 122.037 182.425 124.144 182.344 124.223C182.209 124.427 181.938 124.427 181.668 124.27Z"/><path fill="#F9F9F9" d="M176.313 119.585C176.151 119.491 175.988 119.333 175.826 119.113C175.475 118.594 175.394 117.981 175.637 117.682C175.664 117.635 177.935 115.183 177.935 107.416C177.935 104.9 179.638 103.941 181.774 105.183C183.91 106.425 185.641 109.444 185.641 111.896C185.641 112.84 185.587 113.783 185.505 114.711C185.451 115.182 185.046 115.324 184.613 115.041C184.181 114.726 183.856 114.098 183.883 113.579C183.964 112.745 183.991 111.849 183.991 110.937C183.991 109.522 182.991 107.777 181.747 107.054C180.504 106.331 179.53 106.897 179.53 108.343C179.53 116.802 177.043 119.443 176.935 119.538C176.8 119.711 176.556 119.726 176.313 119.585Z"/><path fill="#F9F9F9" d="M178.909 122.13C178.747 122.036 178.612 121.895 178.477 121.722C178.098 121.219 177.99 120.558 178.233 120.291C178.233 120.291 178.531 119.929 178.909 119.174C179.099 118.813 179.585 118.907 179.991 119.363C180.396 119.819 180.559 120.479 180.369 120.841C179.937 121.69 179.585 122.083 179.585 122.115C179.45 122.319 179.18 122.288 178.909 122.13Z"/><path fill="#F9F9F9" d="M180.695 118.546C180.56 118.468 180.452 118.373 180.317 118.232C179.911 117.776 179.749 117.084 179.965 116.77C179.965 116.738 181.047 114.789 181.047 109.223C181.047 108.688 181.398 108.484 181.858 108.751C182.317 109.018 182.669 109.632 182.669 110.166C182.669 116.204 181.452 118.358 181.398 118.452C181.263 118.688 180.993 118.719 180.695 118.546Z"/></g><g filter="url(#filter9_b)"><rect width="124" height="83" fill="url(#paint9_linear)" fill-opacity=".15" rx="4" transform="matrix(0.866025 0.5 -2.20305e-08 1 118 46)"/></g><g filter="url(#filter10_b)"><rect width="124" height="83" fill="url(#paint10_linear)" fill-opacity=".15" rx="4" transform="matrix(0.866025 0.5 -2.20305e-08 1 98 58)"/></g><path fill="url(#paint11_linear)" d="M76.1855 75.6383C76.1855 73.3934 79.8024 71.1862 81.7511 72.3065L182.472 130.209C184.42 131.329 186 134.057 186 136.302L186 211.683C186 213.928 183.88 217.427 181.931 216.306L81.7511 155.817C79.8024 154.696 78.2227 151.968 78.2227 149.724L76.1855 75.6383Z"/><rect width="123.576" height="82.768" x=".322" y=".556" fill="url(#paint12_linear)" stroke="url(#paint13_linear)" stroke-width=".742" rx="3.71" transform="matrix(0.86695 0.498472 -2.21216e-08 1 76.0428 71.9681)"/><path fill="#F1F6FB" d="M76 76.2099C76 73.9558 77.5842 73.0393 79.5384 74.1629L180.239 132.063C182.193 133.186 183.777 135.925 183.777 138.179L183.777 144.074L76 82.1053L76 76.2099Z"/><ellipse fill="#2D365C" rx="2.035" ry="2.032" transform="matrix(0.86695 0.499352 -2.20826e-08 1 81.934 80.5343)"/><ellipse fill="#2D365C" rx="2.035" ry="2.032" transform="matrix(0.86695 0.499352 -2.20826e-08 1 88.0288 84.045)"/><ellipse fill="#2D365C" rx="2.035" ry="2.032" transform="matrix(0.86695 0.499352 -2.20826e-08 1 94.1235 87.5558)"/><rect width="66.26" height="16.257" x=".161" y=".278" stroke="#ED6C68" stroke-width=".371" rx="8.129" transform="matrix(0.866536 0.499114 -2.20826e-08 1 97.874 138.191)"/><path fill="#ED6C68" d="M119.662 160.36C119.662 160.547 119.622 160.697 119.541 160.809C119.459 160.918 119.339 160.976 119.18 160.981C119.021 160.983 118.828 160.918 118.6 160.787C118.375 160.657 118.174 160.498 117.997 160.31C117.82 160.118 117.677 159.907 117.569 159.679C117.464 159.452 117.404 159.224 117.389 158.993L118.064 159.382C118.079 159.54 118.13 159.694 118.217 159.844C118.307 159.993 118.426 160.11 118.573 160.195C118.705 160.271 118.805 160.289 118.874 160.249C118.946 160.207 118.982 160.122 118.982 159.994C118.982 159.88 118.954 159.77 118.897 159.665C118.84 159.556 118.768 159.453 118.681 159.358C118.594 159.263 118.474 159.142 118.321 158.995C118.123 158.805 117.961 158.637 117.835 158.492C117.708 158.343 117.6 158.172 117.51 157.978C117.423 157.786 117.38 157.575 117.38 157.347C117.38 157.032 117.477 156.84 117.672 156.772C117.871 156.703 118.132 156.762 118.456 156.948C118.792 157.142 119.059 157.389 119.257 157.69C119.458 157.993 119.572 158.308 119.599 158.635L118.915 158.241C118.897 158.099 118.849 157.964 118.771 157.836C118.693 157.705 118.586 157.6 118.451 157.522C118.334 157.455 118.24 157.437 118.168 157.468C118.096 157.496 118.06 157.577 118.06 157.712C118.06 157.82 118.087 157.925 118.141 158.029C118.198 158.131 118.268 158.229 118.352 158.322C118.439 158.417 118.556 158.535 118.703 158.675C118.907 158.876 119.072 159.049 119.198 159.194C119.327 159.341 119.437 159.513 119.527 159.711C119.617 159.908 119.662 160.124 119.662 160.36ZM120.764 158.33L120.764 161.997L120.13 161.632L120.13 157.964L120.764 158.33ZM122.81 159.472C123.197 159.695 123.519 159.991 123.774 160.359C124.029 160.724 124.192 161.115 124.264 161.53L123.598 161.147C123.535 160.944 123.435 160.754 123.297 160.578C123.161 160.4 123.001 160.257 122.815 160.15C122.632 160.045 122.47 160 122.329 160.015C122.188 160.031 122.078 160.107 122 160.242C121.922 160.377 121.883 160.566 121.883 160.808C121.883 161.192 121.972 161.543 122.149 161.86C122.329 162.178 122.573 162.426 122.882 162.604C123.11 162.736 123.306 162.77 123.468 162.708C123.633 162.647 123.739 162.492 123.787 162.242L122.711 161.623L122.711 161.098L124.318 162.024L124.318 162.73C124.273 162.947 124.185 163.119 124.053 163.247C123.924 163.377 123.753 163.443 123.54 163.445C123.33 163.445 123.088 163.367 122.815 163.21C122.503 163.03 122.227 162.793 121.987 162.499C121.75 162.203 121.565 161.877 121.433 161.52C121.304 161.162 121.239 160.801 121.239 160.437C121.239 160.074 121.304 159.789 121.433 159.583C121.565 159.375 121.75 159.259 121.987 159.237C122.224 159.214 122.498 159.292 122.81 159.472ZM127.485 165.869L126.851 165.503L125.428 162.19L125.428 164.684L124.794 164.318L124.794 160.651L125.428 161.016L126.851 164.35L126.851 161.836L127.485 162.201L127.485 165.869ZM129.652 163.449L129.652 165.6C129.652 165.887 129.706 166.135 129.814 166.342C129.925 166.548 130.084 166.711 130.291 166.83C130.495 166.948 130.651 166.967 130.759 166.887C130.87 166.805 130.926 166.621 130.926 166.333L130.926 164.183L131.556 164.546L131.556 166.696C131.556 167.036 131.501 167.291 131.39 167.463C131.282 167.633 131.13 167.718 130.935 167.72C130.743 167.724 130.524 167.655 130.278 167.513C129.897 167.294 129.592 166.987 129.364 166.592C129.136 166.198 129.022 165.746 129.022 165.237L129.022 163.086L129.652 163.449ZM132.747 167.538L132.747 168.899L132.113 168.534L132.113 164.866L133.269 165.533C133.644 165.749 133.927 166.015 134.116 166.332C134.308 166.65 134.404 166.988 134.404 167.344C134.404 167.694 134.305 167.916 134.107 168.01C133.912 168.105 133.632 168.048 133.269 167.839L132.747 167.538ZM133.202 167.213C133.574 167.428 133.76 167.348 133.76 166.974C133.76 166.79 133.717 166.625 133.629 166.478C133.542 166.331 133.4 166.2 133.202 166.086L132.747 165.824L132.747 166.951L133.202 167.213Z"/><rect width="66.26" height="16.257" x=".161" y=".278" stroke="#ED6C68" stroke-dasharray="1.86 1.86" stroke-width=".371" rx="8.129" transform="matrix(0.866536 0.499114 -2.20826e-08 1 97.874 111.585)"/><g filter="url(#filter11_f)" opacity=".4"><ellipse fill="url(#paint14_linear)" fill-opacity=".7" rx="33.684" ry="8.133" transform="matrix(-0.875126 -0.483896 0.485724 -0.874112 123.631 142.211)"/></g><rect width="66.311" height="16.626" fill="#fff" rx="8.313" transform="matrix(0.86572 0.500528 -2.19995e-08 1 88.9629 111.488)"/><path fill="#ED6C68" d="M113.08 135.571L114.146 136.189L114.146 136.75L112.446 135.765L112.446 132.098L113.08 132.465L113.08 135.571ZM116.012 134.111C116.309 134.283 116.577 134.518 116.817 134.816C117.06 135.116 117.25 135.45 117.388 135.817C117.529 136.183 117.599 136.546 117.599 136.906C117.599 137.266 117.529 137.549 117.388 137.755C117.25 137.962 117.06 138.075 116.817 138.094C116.577 138.114 116.309 138.039 116.012 137.867C115.715 137.695 115.445 137.459 115.202 137.159C114.963 136.861 114.772 136.527 114.631 136.158C114.493 135.791 114.424 135.427 114.424 135.067C114.424 134.707 114.493 134.424 114.631 134.22C114.772 134.015 114.963 133.901 115.202 133.881C115.445 133.862 115.715 133.939 116.012 134.111ZM116.012 134.786C115.826 134.679 115.663 134.632 115.522 134.648C115.381 134.663 115.27 134.739 115.189 134.876C115.111 135.011 115.072 135.199 115.072 135.442C115.072 135.684 115.111 135.92 115.189 136.149C115.27 136.375 115.381 136.578 115.522 136.757C115.663 136.935 115.826 137.079 116.012 137.186C116.198 137.294 116.361 137.34 116.502 137.325C116.643 137.309 116.752 137.234 116.83 137.099C116.911 136.963 116.952 136.773 116.952 136.531C116.952 136.288 116.911 136.054 116.83 135.827C116.752 135.598 116.643 135.394 116.502 135.216C116.361 135.037 116.198 134.894 116.012 134.786ZM119.547 136.174C119.933 136.398 120.254 136.695 120.509 137.064C120.764 137.43 120.927 137.82 120.999 138.236L120.334 137.851C120.271 137.648 120.17 137.458 120.032 137.281C119.897 137.103 119.737 136.96 119.551 136.852C119.368 136.746 119.206 136.701 119.066 136.716C118.925 136.731 118.815 136.807 118.737 136.941C118.659 137.076 118.62 137.265 118.62 137.508C118.62 137.892 118.709 138.243 118.886 138.56C119.066 138.879 119.31 139.128 119.619 139.307C119.846 139.438 120.041 139.473 120.203 139.411C120.368 139.351 120.475 139.196 120.523 138.947L119.448 138.324L119.448 137.8L121.053 138.73L121.053 139.436C121.008 139.653 120.92 139.825 120.788 139.953C120.659 140.082 120.488 140.148 120.275 140.149C120.065 140.149 119.824 140.07 119.551 139.912C119.239 139.731 118.964 139.493 118.724 139.199C118.487 138.902 118.302 138.575 118.171 138.218C118.042 137.86 117.977 137.499 117.977 137.135C117.977 136.771 118.042 136.487 118.171 136.281C118.302 136.073 118.487 135.958 118.724 135.936C118.961 135.914 119.235 135.993 119.547 136.174ZM123.141 138.293L123.141 141.96L122.507 141.593L122.507 137.925L123.141 138.293ZM126.404 143.85L125.77 143.483L124.349 140.166L124.349 142.659L123.715 142.292L123.715 138.625L124.349 138.992L125.77 142.329L125.77 139.815L126.404 140.182L126.404 143.85Z"/><g filter="url(#filter12_b)"><ellipse fill="#ED6C68" rx="5.32" ry="5.381" transform="matrix(0.865326 0.50121 -2.19596e-08 1 97.2498 124.375)"/></g><ellipse fill="url(#paint15_linear)" rx="5.16" ry="5.172" transform="matrix(0.865326 0.50121 -2.19596e-08 1 96.7443 124.05)"/><path stroke="#fff" stroke-width=".742" d="M95.1494 122.782L96.5025 125.133L98.7577 123.827"/><path stroke="#EE786C" stroke-dasharray=".74 .74" stroke-width=".26" d="M77.0245 105.109L66.6355 99.1095C65.3987 98.3953 63.8525 99.2879 63.8525 100.716V127.612C63.8525 129.772 64.9585 131.783 66.7835 132.939L77.0245 139.43"/><path fill="#DF6461" d="M65.438 113.863C66.2029 115.188 66.2029 117.337 65.438 118.661C65.0839 119.275 64.6279 119.604 64.1644 119.65C63.6267 119.702 62.8783 119.809 62.4675 119.098C61.7026 117.773 61.5882 114.836 62.3531 113.512C63.1857 112.463 64.6732 112.539 65.438 113.863ZM63.1857 117.765C63.6647 118.595 64.4414 118.595 64.9205 117.765C65.3996 116.935 65.3996 115.59 64.9205 114.76C64.4414 113.93 63.6647 113.93 63.1857 114.76C62.7066 115.59 62.7066 116.935 63.1857 117.765Z"/><path fill="url(#paint16_linear)" d="M64.772 113.863C65.5369 115.188 65.5369 117.336 64.772 118.661C64.0071 119.986 62.767 119.986 62.0021 118.661C61.2372 117.336 61.2372 115.188 62.0021 113.863C62.767 112.538 64.0071 112.538 64.772 113.863Z"/><rect width="75.389" height=".307" fill="url(#paint17_linear)" transform="matrix(0.866328 -0.499476 0.866328 0.499476 143.96 158.446)"/><rect width="75.389" height=".307" fill="url(#paint18_linear)" transform="matrix(0.866328 -0.499476 0.866328 0.499476 198.423 119.965)"/><rect width="75.389" height=".307" fill="url(#paint19_linear)" transform="matrix(0.866328 -0.499476 0.866328 0.499476 191.383 125.515)"/><rect width="75.389" height=".307" fill="url(#paint20_linear)" transform="matrix(0.866328 -0.499476 0.866328 0.499476 181.01 211.357)"/><rect width="75.389" height=".307" fill="url(#paint21_linear)" transform="matrix(0.866328 -0.499476 0.866328 0.499476 143.219 239.847)"/><rect width="75.389" height=".307" fill="url(#paint22_linear)" transform="matrix(0.866328 -0.499476 0.866328 0.499476 92.0918 59.6548)"/><rect width="75.389" height=".307" fill="url(#paint23_linear)" transform="matrix(0.86665 -0.498917 0.86665 0.498917 38 96.6553)"/></g><defs><filter id="filter0_f" width="192.544" height="125.296" x="54.522" y="121.682" color-interpolation-filters="sRGB" filterUnits="userSpaceOnUse"><feFlood flood-opacity="0" result="BackgroundImageFix"/><feBlend in="SourceGraphic" in2="BackgroundImageFix" mode="normal" result="shape"/><feGaussianBlur result="effect1_foregroundBlur" stdDeviation="6.308"/></filter><filter id="filter1_b" width="116.292" height="150.851" x="138.547" y="24.074" color-interpolation-filters="sRGB" filterUnits="userSpaceOnUse"><feFlood flood-opacity="0" result="BackgroundImageFix"/><feGaussianBlur in="BackgroundImage" stdDeviation="2.226"/><feComposite in2="SourceAlpha" operator="in" result="effect1_backgroundBlur"/><feBlend in="SourceGraphic" in2="effect1_backgroundBlur" mode="normal" result="shape"/></filter><filter id="filter2_b" width="115.762" height="151.69" x="126.591" y="32.156" color-interpolation-filters="sRGB" filterUnits="userSpaceOnUse"><feFlood flood-opacity="0" result="BackgroundImageFix"/><feGaussianBlur in="BackgroundImage" stdDeviation="2.205"/><feComposite in2="SourceAlpha" operator="in" result="effect1_backgroundBlur"/><feBlend in="SourceGraphic" in2="effect1_backgroundBlur" mode="normal" result="shape"/></filter><filter id="filter3_f" width="107.742" height="109.255" x="130.629" y="51.454" color-interpolation-filters="sRGB" filterUnits="userSpaceOnUse"><feFlood flood-opacity="0" result="BackgroundImageFix"/><feBlend in="SourceGraphic" in2="BackgroundImageFix" mode="normal" result="shape"/><feGaussianBlur result="effect1_foregroundBlur" stdDeviation=".186"/></filter><filter id="filter4_f" width="2.547" height="10.684" x="199.424" y="111.995" color-interpolation-filters="sRGB" filterUnits="userSpaceOnUse"><feFlood flood-opacity="0" result="BackgroundImageFix"/><feBlend in="SourceGraphic" in2="BackgroundImageFix" mode="normal" result="shape"/><feGaussianBlur result="effect1_foregroundBlur" stdDeviation=".557"/></filter><filter id="filter5_f" width="2.547" height="8.038" x="161.642" y="96.971" color-interpolation-filters="sRGB" filterUnits="userSpaceOnUse"><feFlood flood-opacity="0" result="BackgroundImageFix"/><feBlend in="SourceGraphic" in2="BackgroundImageFix" mode="normal" result="shape"/><feGaussianBlur result="effect1_foregroundBlur" stdDeviation=".557"/></filter><filter id="filter6_f" width="6.16" height="7.893" x="176.243" y="86.227" color-interpolation-filters="sRGB" filterUnits="userSpaceOnUse"><feFlood flood-opacity="0" result="BackgroundImageFix"/><feBlend in="SourceGraphic" in2="BackgroundImageFix" mode="normal" result="shape"/><feGaussianBlur result="effect1_foregroundBlur" stdDeviation=".557"/></filter><filter id="filter7_f" width="5.082" height="5.08" x="179.723" y="116.73" color-interpolation-filters="sRGB" filterUnits="userSpaceOnUse"><feFlood flood-opacity="0" result="BackgroundImageFix"/><feBlend in="SourceGraphic" in2="BackgroundImageFix" mode="normal" result="shape"/><feGaussianBlur result="effect1_foregroundBlur" stdDeviation=".557"/></filter><filter id="filter8_d" width="35.376" height="42.967" x="164.806" y="89.722" color-interpolation-filters="sRGB" filterUnits="userSpaceOnUse"><feFlood flood-opacity="0" result="BackgroundImageFix"/><feColorMatrix in="SourceAlpha" type="matrix" values="0 0 0 0 0 0 0 0 0 0 0 0 0 0 0 0 0 0 127 0"/><feOffset dx=".742" dy="1.484"/><feGaussianBlur stdDeviation="2.597"/><feColorMatrix type="matrix" values="0 0 0 0 0.122917 0 0 0 0 0.251631 0 0 0 0 0.491667 0 0 0 0.39 0"/><feBlend in2="BackgroundImageFix" mode="normal" result="effect1_dropShadow"/><feBlend in="SourceGraphic" in2="effect1_dropShadow" mode="normal" result="shape"/></filter><filter id="filter9_b" width="108.129" height="142.688" x="117.629" y="47.156" color-interpolation-filters="sRGB" filterUnits="userSpaceOnUse"><feFlood flood-opacity="0" result="BackgroundImageFix"/><feGaussianBlur in="BackgroundImage" stdDeviation=".186"/><feComposite in2="SourceAlpha" operator="in" result="effect1_backgroundBlur"/><feBlend in="SourceGraphic" in2="effect1_backgroundBlur" mode="normal" result="shape"/></filter><filter id="filter10_b" width="108.129" height="142.688" x="97.629" y="59.156" color-interpolation-filters="sRGB" filterUnits="userSpaceOnUse"><feFlood flood-opacity="0" result="BackgroundImageFix"/><feGaussianBlur in="BackgroundImage" stdDeviation=".186"/><feComposite in2="SourceAlpha" operator="in" result="effect1_backgroundBlur"/><feBlend in="SourceGraphic" in2="effect1_backgroundBlur" mode="normal" result="shape"/></filter><filter id="filter11_f" width="112.831" height="88.915" x="67.215" y="97.754" color-interpolation-filters="sRGB" filterUnits="userSpaceOnUse"><feFlood flood-opacity="0" result="BackgroundImageFix"/><feBlend in="SourceGraphic" in2="BackgroundImageFix" mode="normal" result="shape"/><feGaussianBlur result="effect1_foregroundBlur" stdDeviation="13.335"/></filter><filter id="filter12_b" width="18.026" height="20.832" x="88.237" y="113.959" color-interpolation-filters="sRGB" filterUnits="userSpaceOnUse"><feFlood flood-opacity="0" result="BackgroundImageFix"/><feGaussianBlur in="BackgroundImage" stdDeviation="2.205"/><feComposite in2="SourceAlpha" operator="in" result="effect1_backgroundBlur"/><feBlend in="SourceGraphic" in2="effect1_backgroundBlur" mode="normal" result="shape"/></filter><linearGradient id="paint0_linear" x1="120.172" x2="115.224" y1="249.712" y2="258.283" gradientUnits="userSpaceOnUse"><stop stop-color="#F1F1F1"/><stop offset="1" stop-color="#FBFBFB"/></linearGradient><linearGradient id="paint1_linear" x1="156.38" x2="151.431" y1="243.16" y2="251.731" gradientUnits="userSpaceOnUse"><stop stop-color="#fff"/><stop offset="1" stop-color="#F1F1F1"/></linearGradient><linearGradient id="paint2_linear" x1="188.82" x2="118.694" y1="166.823" y2="162.026" gradientUnits="userSpaceOnUse"><stop stop-color="#EE786C"/><stop offset="1" stop-color="#EE786C"/></linearGradient><linearGradient id="paint3_linear" x1="109.915" x2="111.55" y1="182.891" y2="180.461" gradientUnits="userSpaceOnUse"><stop stop-color="#F48D89"/><stop offset="1" stop-color="#EE786C"/></linearGradient><linearGradient id="paint4_linear" x1="-8.233" x2="95.383" y1="7.858" y2="105.693" gradientUnits="userSpaceOnUse"><stop stop-color="#2081AE"/><stop offset=".979" stop-color="#9CDDFD"/></linearGradient><linearGradient id="paint5_linear" x1="140.133" x2="35.349" y1="-18.651" y2="-54.55" gradientUnits="userSpaceOnUse"><stop stop-color="#5487B1"/><stop offset="1" stop-color="#D0D7EF"/></linearGradient><linearGradient id="paint6_linear" x1="6.977" x2="104.786" y1="-18.905" y2="105.028" gradientUnits="userSpaceOnUse"><stop stop-color="#EE786C"/><stop offset="1" stop-color="#1F458A"/></linearGradient><linearGradient id="paint7_linear" x1="99.214" x2="116.621" y1="-17.667" y2="84.744" gradientUnits="userSpaceOnUse"><stop stop-color="#FAC8C3"/><stop offset="1" stop-color="#1F407D"/></linearGradient><radialGradient id="paint8_radial" cx="0" cy="0" r="1" gradientTransform="translate(186.706 96.3106) rotate(72.2295) scale(74.0925 83.8688)" gradientUnits="userSpaceOnUse"><stop offset=".497" stop-color="#fff"/><stop offset="1" stop-color="#fff" stop-opacity="0"/></radialGradient><linearGradient id="paint9_linear" x1="117.828" x2="53.645" y1="80.379" y2="3.976" gradientUnits="userSpaceOnUse"><stop stop-color="#fff" stop-opacity=".75"/><stop offset="1" stop-color="#C1C2C6" stop-opacity=".66"/></linearGradient><linearGradient id="paint10_linear" x1="117.828" x2="53.645" y1="80.379" y2="3.976" gradientUnits="userSpaceOnUse"><stop stop-color="#fff" stop-opacity=".75"/><stop offset="1" stop-color="#C1C2C6" stop-opacity=".66"/></linearGradient><linearGradient id="paint11_linear" x1="119.706" x2="120.252" y1="93.881" y2="226.951" gradientUnits="userSpaceOnUse"><stop stop-color="#fff"/><stop offset="1" stop-color="#F1F6FB"/></linearGradient><linearGradient id="paint12_linear" x1="13.458" x2="61.536" y1="25.625" y2="94.526" gradientUnits="userSpaceOnUse"><stop stop-color="#fff"/><stop offset="1" stop-color="#F5F5F5"/></linearGradient><linearGradient id="paint13_linear" x1="-117.061" x2="10.736" y1="4.704" y2="160.469" gradientUnits="userSpaceOnUse"><stop stop-color="#E2E2E2"/><stop offset="1" stop-color="#fff"/></linearGradient><linearGradient id="paint14_linear" x1="3.797" x2="14.001" y1="-3.674" y2="32.537" gradientUnits="userSpaceOnUse"><stop stop-color="#EE786C"/><stop offset="1" stop-color="#1F458A"/></linearGradient><linearGradient id="paint15_linear" x1=".274" x2="8.794" y1="2.537" y2="-1.206" gradientUnits="userSpaceOnUse"><stop stop-color="#F48D89"/><stop offset="1" stop-color="#EE786C"/></linearGradient><linearGradient id="paint16_linear" x1="61.37" x2="64.409" y1="117.311" y2="112.795" gradientUnits="userSpaceOnUse"><stop stop-color="#F48D89"/><stop offset="1" stop-color="#EE786C"/></linearGradient><linearGradient id="paint17_linear" x1="74.616" x2="37.748" y1="1.079" y2="-35.791" gradientUnits="userSpaceOnUse"><stop stop-color="#60C8D6" stop-opacity="0"/><stop offset=".398" stop-color="#5FC2CF" stop-opacity=".95"/><stop offset=".722" stop-color="#5EBCC9" stop-opacity="0"/></linearGradient><linearGradient id="paint18_linear" x1="74.616" x2="37.748" y1="1.079" y2="-35.791" gradientUnits="userSpaceOnUse"><stop stop-color="#60C8D6" stop-opacity="0"/><stop offset=".398" stop-color="#5FC2CF" stop-opacity=".95"/><stop offset=".722" stop-color="#5EBCC9" stop-opacity="0"/></linearGradient><linearGradient id="paint19_linear" x1="74.616" x2="37.748" y1="1.079" y2="-35.791" gradientUnits="userSpaceOnUse"><stop stop-color="#60C8D6" stop-opacity="0"/><stop offset=".398" stop-color="#5FC2CF" stop-opacity=".95"/><stop offset=".722" stop-color="#5EBCC9" stop-opacity="0"/></linearGradient><linearGradient id="paint20_linear" x1="74.616" x2="37.748" y1="1.079" y2="-35.791" gradientUnits="userSpaceOnUse"><stop stop-color="#60C8D6" stop-opacity="0"/><stop offset=".398" stop-color="#5FC2CF" stop-opacity=".95"/><stop offset=".722" stop-color="#5EBCC9" stop-opacity="0"/></linearGradient><linearGradient id="paint21_linear" x1="74.616" x2="37.748" y1="1.079" y2="-35.791" gradientUnits="userSpaceOnUse"><stop stop-color="#60C8D6" stop-opacity="0"/><stop offset=".398" stop-color="#5FC2CF" stop-opacity=".95"/><stop offset=".722" stop-color="#5EBCC9" stop-opacity="0"/></linearGradient><linearGradient id="paint22_linear" x1="74.616" x2="37.748" y1="1.079" y2="-35.791" gradientUnits="userSpaceOnUse"><stop stop-color="#60C8D6" stop-opacity="0"/><stop offset=".398" stop-color="#5FC2CF" stop-opacity=".95"/><stop offset=".722" stop-color="#5EBCC9" stop-opacity="0"/></linearGradient><linearGradient id="paint23_linear" x1="74.616" x2="37.748" y1="1.079" y2="-35.791" gradientUnits="userSpaceOnUse"><stop stop-color="#60C8D6" stop-opacity="0"/><stop offset=".398" stop-color="#5FC2CF" stop-opacity=".95"/><stop offset=".722" stop-color="#5EBCC9" stop-opacity="0"/></linearGradient></defs></svg>