<svg xmlns="http://www.w3.org/2000/svg" width="320" height="283" fill="none" viewBox="0 0 320 283"><mask id="mask0" width="320" height="283" x="0" y="0" mask-type="alpha" maskUnits="userSpaceOnUse"><rect width="320" height="283" fill="#C4C4C4"/></mask><g mask="url(#mask0)"><path fill="#fff" d="M319.253 4.37109L525.259 170.715L319.81 334.599L28.7858 174.796C27.4904 174.084 27.4644 172.897 28.7283 172.167L319.253 4.37109Z"/><path fill="#F1F1F1" d="M26.3975 200.467V179.132L319.44 343.689V368.178L26.3975 200.467Z"/><path fill="url(#paint0_linear)" d="M26.3969 198.612L330.051 371.881L320.232 377.64L21.4111 207.814L25.1852 205.499C26.0786 204.951 26.566 204.223 26.5433 203.471L26.3969 198.612Z"/><path fill="url(#paint1_linear)" d="M31.0629 170.9L330.015 339.422L320.182 345.173L26.4248 179.249L26.4249 175.416C26.425 174.228 27.2458 173.09 28.7054 172.252L31.0629 170.9Z"/><path stroke="url(#paint2_linear)" stroke-dasharray=".74 .74" stroke-width=".26" d="M111.181 182.657V193.301C111.181 196.58 114.852 198.521 117.561 196.674L240.317 112.984C241.564 112.134 243.179 112.042 244.516 112.744L261.723 121.793C263.043 122.487 264.638 122.406 265.88 121.581L310.245 92.1226"/><g filter="url(#filter0_f)" opacity=".3"><path fill="#E1E3EB" d="M69.6502 168.891L125.793 135.044C127.384 134.085 129.366 134.048 130.991 134.948L231.772 190.745C235.293 192.695 235.356 197.735 231.884 199.771L174.12 233.649C172.526 234.584 170.555 234.602 168.944 233.695L69.7837 177.866C66.3156 175.914 66.2416 170.946 69.6502 168.891Z"/></g><path fill="#DF6461" d="M112.103 181.036C112.515 181.749 112.515 182.904 112.103 183.617C111.913 183.947 111.667 184.125 111.418 184.149C111.129 184.177 110.726 184.235 110.505 183.852C110.093 183.139 110.032 181.559 110.443 180.846C110.891 180.282 111.692 180.323 112.103 181.036ZM110.891 183.135C111.149 183.581 111.567 183.581 111.825 183.135C112.082 182.688 112.082 181.965 111.825 181.518C111.567 181.072 111.149 181.072 110.891 181.518C110.633 181.965 110.633 182.688 110.891 183.135Z"/><path fill="url(#paint3_linear)" d="M111.745 181.036C112.157 181.749 112.157 182.905 111.745 183.617C111.334 184.33 110.667 184.33 110.255 183.617C109.843 182.905 109.843 181.749 110.255 181.036C110.667 180.323 111.334 180.323 111.745 181.036Z"/><g filter="url(#filter1_b)"><rect width="124" height="83" fill="url(#paint4_linear)" fill-opacity=".5" rx="4" transform="matrix(0.866025 0.5 -2.20305e-08 1 143 27)"/><rect width="123.629" height="82.629" x=".161" y=".278" stroke="url(#paint5_linear)" stroke-width=".371" rx="3.814" transform="matrix(0.866025 0.5 -2.20305e-08 1 143.022 26.9197)"/></g><g filter="url(#filter2_b)"><rect width="123.769" height="83.697" fill="url(#paint6_linear)" fill-opacity=".7" rx="4.081" transform="matrix(0.864054 0.5034 -2.18319e-08 1 131.001 35)"/><rect width="123.034" height="82.962" x=".318" y=".552" stroke="url(#paint7_linear)" stroke-width=".735" rx="3.714" transform="matrix(0.864054 0.5034 -2.18319e-08 1 131.044 34.8402)"/></g><g filter="url(#filter3_f)"><path fill="url(#paint8_radial)" d="M181.026 80.0393L181.074 80.0672L181.074 80.0355L181.05 80.0056L181.026 80.0393ZM181.026 92.743L181.026 92.7987L181.074 92.8267L181.074 92.771L181.026 92.743ZM162.961 82.2321L162.961 82.1764L162.961 82.2321ZM200.481 104.063L200.481 104.007L200.432 103.979L200.432 104.035L200.481 104.063ZM181.026 130.854L180.978 130.826L180.978 130.857L181 130.886L181.026 130.854ZM158.768 51.8918L181.001 80.0729L181.05 80.0056L158.817 51.8246L158.768 51.8918ZM180.978 80.0113L180.978 92.715L181.074 92.771L181.074 80.0672L180.978 80.0113ZM181.026 92.6874L162.961 82.1764L162.961 82.2877L181.026 92.7987L181.026 92.6874ZM162.961 82.1764L131 63.5801L131 63.6915L162.961 82.2877L162.961 82.1764ZM162.913 82.2041L162.913 107.612L163.009 107.668L163.009 82.2601L162.913 82.2041ZM162.961 107.584L131 88.9877L131 89.099L162.961 107.695L162.961 107.584ZM200.481 129.526L238 151.356L238 151.245L200.481 129.414L200.481 129.526ZM200.529 129.498L200.529 104.09L200.432 104.035L200.432 129.442L200.529 129.498ZM200.481 104.118L238 125.949L238 125.837L200.481 104.007L200.481 104.118ZM162.961 107.695L181.026 118.206L181.026 118.095L162.961 107.584L162.961 107.695ZM181.026 118.206L200.481 129.526L200.481 129.414L181.026 118.095L181.026 118.206ZM180.978 118.123L180.978 130.826L181.074 130.882L181.074 118.179L180.978 118.123ZM181 130.886L203.234 160.338L203.286 160.274L181.052 130.823L181 130.886Z" mask="url(#path-14-inside-1)"/></g><g filter="url(#filter4_f)"><line x2="8.271" y1="-.186" y2="-.186" stroke="#fff" stroke-width=".371" transform="matrix(-2.18734e-08 1 -0.864339 -0.502611 200.537 113.108)"/></g><g filter="url(#filter5_f)"><line x2="5.625" y1="-.186" y2="-.186" stroke="#fff" stroke-width=".371" transform="matrix(2.18734e-08 -1 0.864339 0.502611 163.075 103.896)"/></g><g filter="url(#filter6_f)"><path stroke="#fff" stroke-width=".371" d="M177.356 90.5336L181.13 92.7278L181.13 87.4334"/></g><g filter="url(#filter7_f)"><path stroke="#fff" stroke-width=".371" d="M183.691 119.689L180.996 118.122L180.996 120.604"/></g><g filter="url(#filter8_d)"><path fill="#F9F9F9" d="M173.177 96.3785C172.988 96.2684 172.771 96.0483 172.636 95.8125C172.312 95.2778 172.285 94.6646 172.582 94.4601C173.366 93.9097 174.259 93.5794 175.259 93.4378C175.637 93.3749 176.151 93.8309 176.367 94.397C176.611 94.9787 176.476 95.4977 176.097 95.5291C175.232 95.655 174.448 95.9224 173.772 96.4099C173.61 96.5043 173.393 96.5043 173.177 96.3785Z"/><path fill="#F9F9F9" d="M170.232 106.142C169.854 105.922 169.502 105.403 169.421 104.884C169.313 104.035 169.259 103.186 169.259 102.4C169.259 100.607 169.529 99.0037 170.07 97.683C170.232 97.3057 170.692 97.3214 171.124 97.7616C171.53 98.1861 171.746 98.8464 171.584 99.2552C171.097 100.419 170.881 101.802 170.881 103.375C170.881 104.066 170.935 104.821 171.016 105.56C171.097 106.11 170.8 106.44 170.34 106.267C170.313 106.157 170.286 106.173 170.232 106.142Z"/><path fill="#F9F9F9" d="M193.023 121.062C192.942 121.015 192.86 120.968 192.779 120.889C192.347 120.481 192.103 119.836 192.239 119.411C192.401 118.845 192.536 118.263 192.617 117.619C192.671 117.147 193.077 117.005 193.536 117.336C193.969 117.65 194.293 118.31 194.239 118.814C194.158 119.553 194.023 120.26 193.807 120.889C193.699 121.204 193.374 121.267 193.023 121.062Z"/><path fill="#F9F9F9" d="M193.428 115.606C193.023 115.37 192.671 114.82 192.617 114.317C191.914 107.619 187.264 100.166 181.802 96.9905C180.937 96.4874 180.099 96.1258 179.261 95.8585C178.828 95.7013 178.369 95.1196 178.288 94.5693C178.179 94.0033 178.45 93.6574 178.882 93.7832C179.829 94.0819 180.802 94.4907 181.802 95.0724C188.075 98.7199 193.428 107.273 194.239 114.977C194.293 115.511 193.996 115.81 193.536 115.637C193.482 115.637 193.455 115.621 193.428 115.606Z"/><path fill="#F9F9F9" d="M188.507 125.889C188.372 125.81 188.237 125.7 188.102 125.527C187.723 125.055 187.588 124.379 187.804 124.065C187.831 124.049 189.805 121.109 189.805 114.317C189.805 112.619 189.427 110.763 188.697 108.893C188.48 108.327 188.588 107.792 188.994 107.776C189.373 107.745 189.886 108.169 190.103 108.767C190.968 110.999 191.427 113.216 191.427 115.26C191.427 122.587 189.291 125.684 189.183 125.81C189.075 126.061 188.805 126.062 188.507 125.889Z"/><path fill="#F9F9F9" d="M172.962 105.467C172.503 105.199 172.151 104.586 172.151 104.052C172.151 97.7626 176.396 95.294 181.804 98.4384C183.507 99.4289 185.21 100.923 186.67 102.778C187.049 103.249 187.184 103.925 186.968 104.24C186.751 104.554 186.238 104.413 185.859 103.941C184.643 102.416 183.237 101.158 181.804 100.325C177.288 97.6996 173.774 99.7436 173.774 104.995C173.774 105.529 173.395 105.718 172.962 105.467Z"/><path fill="#F9F9F9" d="M172.043 112.478C171.908 112.4 171.745 112.274 171.61 112.07C171.232 111.566 171.123 110.938 171.34 110.623C171.367 110.576 171.772 109.9 171.989 107.541C172.043 107.069 172.421 106.912 172.881 107.211C173.314 107.525 173.638 108.154 173.611 108.673C173.341 111.503 172.827 112.274 172.719 112.4C172.556 112.62 172.313 112.636 172.043 112.478Z"/><path fill="#F9F9F9" d="M184.829 125.544C184.667 125.45 184.505 125.292 184.343 125.072C183.991 124.554 183.91 123.94 184.154 123.642C184.181 123.626 186.56 121.016 186.857 114.082C186.884 113.563 187.263 113.375 187.695 113.658C188.155 113.956 188.479 114.585 188.479 115.088C188.182 122.682 185.587 125.418 185.478 125.544C185.316 125.701 185.073 125.686 184.829 125.544Z"/><path fill="#F9F9F9" d="M187.482 111.991C187.13 111.787 186.806 111.315 186.698 110.843C186.076 107.934 184.102 105.057 181.777 103.705C180.317 102.856 178.992 102.714 178.046 103.328C177.748 103.532 177.234 103.233 176.91 102.699C176.585 102.164 176.585 101.567 176.883 101.362C178.154 100.56 179.884 100.717 181.777 101.818C184.832 103.594 187.428 107.368 188.266 111.252C188.401 111.834 188.131 112.211 187.698 112.086C187.644 112.086 187.563 112.038 187.482 111.991Z"/><path fill="#F9F9F9" d="M174.151 116.471C174.016 116.393 173.881 116.283 173.745 116.11C173.367 115.638 173.232 114.962 173.448 114.648C173.475 114.632 175.07 112.195 175.07 105.749C175.07 105.183 175.124 104.679 175.205 104.192C175.286 103.736 175.719 103.642 176.152 103.988C176.584 104.333 176.882 105.01 176.801 105.466C176.719 105.827 176.692 106.252 176.692 106.66C176.692 113.673 174.935 116.298 174.854 116.377C174.692 116.629 174.421 116.629 174.151 116.471Z"/><path fill="#F9F9F9" d="M181.668 124.27C181.506 124.176 181.371 124.034 181.208 123.845C180.83 123.342 180.722 122.682 180.992 122.399C181.019 122.383 182.668 120.355 183.533 116.173C183.615 115.717 184.047 115.622 184.507 116.016C184.939 116.361 185.237 117.037 185.129 117.509C184.209 122.037 182.425 124.144 182.344 124.223C182.209 124.427 181.938 124.427 181.668 124.27Z"/><path fill="#F9F9F9" d="M176.313 119.585C176.151 119.491 175.988 119.333 175.826 119.113C175.475 118.594 175.394 117.981 175.637 117.682C175.664 117.635 177.935 115.183 177.935 107.416C177.935 104.9 179.638 103.941 181.774 105.183C183.91 106.425 185.641 109.444 185.641 111.896C185.641 112.84 185.587 113.783 185.505 114.711C185.451 115.182 185.046 115.324 184.613 115.041C184.181 114.726 183.856 114.098 183.883 113.579C183.964 112.745 183.991 111.849 183.991 110.937C183.991 109.522 182.991 107.777 181.747 107.054C180.504 106.331 179.53 106.897 179.53 108.343C179.53 116.802 177.043 119.443 176.935 119.538C176.8 119.711 176.556 119.726 176.313 119.585Z"/><path fill="#F9F9F9" d="M178.909 122.13C178.747 122.036 178.612 121.895 178.477 121.722C178.098 121.219 177.99 120.558 178.233 120.291C178.233 120.291 178.531 119.929 178.909 119.174C179.099 118.813 179.585 118.907 179.991 119.363C180.396 119.819 180.559 120.479 180.369 120.841C179.937 121.69 179.585 122.083 179.585 122.115C179.45 122.319 179.18 122.288 178.909 122.13Z"/><path fill="#F9F9F9" d="M180.695 118.546C180.56 118.468 180.452 118.373 180.317 118.232C179.911 117.776 179.749 117.084 179.965 116.77C179.965 116.738 181.047 114.789 181.047 109.223C181.047 108.688 181.398 108.484 181.858 108.751C182.317 109.018 182.669 109.632 182.669 110.166C182.669 116.204 181.452 118.358 181.398 118.452C181.263 118.688 180.993 118.719 180.695 118.546Z"/></g><g filter="url(#filter9_b)"><rect width="124" height="83" fill="url(#paint9_linear)" fill-opacity=".15" rx="4" transform="matrix(0.866025 0.5 -2.20305e-08 1 118 46)"/></g><g filter="url(#filter10_b)"><rect width="124" height="83" fill="url(#paint10_linear)" fill-opacity=".15" rx="4" transform="matrix(0.866025 0.5 -2.20305e-08 1 98 58)"/></g><path fill="url(#paint11_linear)" d="M76.1855 75.6383C76.1855 73.3934 79.8024 71.1862 81.7511 72.3065L182.472 130.209C184.42 131.329 186 134.057 186 136.302L186 211.683C186 213.928 183.88 217.427 181.931 216.306L81.7511 155.817C79.8024 154.696 78.2227 151.968 78.2227 149.724L76.1855 75.6383Z"/><rect width="123.576" height="82.768" x=".322" y=".556" fill="url(#paint12_linear)" stroke="url(#paint13_linear)" stroke-width=".742" rx="3.71" transform="matrix(0.86695 0.498472 -2.21216e-08 1 76.0428 71.9681)"/><path fill="#F1F6FB" d="M76 76.2099C76 73.9558 77.5842 73.0393 79.5384 74.1629L180.239 132.063C182.193 133.186 183.777 135.925 183.777 138.179L183.777 144.074L76 82.1053L76 76.2099Z"/><ellipse fill="#2D365C" rx="2.035" ry="2.032" transform="matrix(0.86695 0.499352 -2.20826e-08 1 81.934 80.5343)"/><ellipse fill="#2D365C" rx="2.035" ry="2.032" transform="matrix(0.86695 0.499352 -2.20826e-08 1 88.0288 84.045)"/><ellipse fill="#2D365C" rx="2.035" ry="2.032" transform="matrix(0.86695 0.499352 -2.20826e-08 1 94.1235 87.5558)"/><rect width="66.26" height="16.257" x=".161" y=".278" stroke="#ED6C68" stroke-dasharray="1.86 1.86" stroke-width=".371" rx="8.129" transform="matrix(0.866536 0.499114 -2.20826e-08 1 97.874 138.191)"/><rect width="66.26" height="16.257" x=".161" y=".278" stroke="#ED6C68" stroke-width=".371" rx="8.129" transform="matrix(0.866536 0.499114 -2.20826e-08 1 97.874 111.585)"/><g filter="url(#filter11_f)" opacity=".4"><ellipse fill="url(#paint14_linear)" fill-opacity=".7" rx="33.684" ry="8.133" transform="matrix(-0.875126 -0.483896 0.485724 -0.874112 123.631 158.211)"/></g><rect width="66.311" height="16.626" fill="#fff" rx="8.313" transform="matrix(0.86572 0.500528 -2.19995e-08 1 88.9629 127.488)"/><path fill="#ED6C68" d="M118.08 133.57L119.146 134.188L119.146 134.749L117.446 133.764L117.446 130.097L118.08 130.464L118.08 133.57ZM121.012 132.11C121.309 132.282 121.577 132.517 121.817 132.815C122.06 133.115 122.25 133.449 122.388 133.816C122.529 134.182 122.599 134.545 122.599 134.905C122.599 135.265 122.529 135.548 122.388 135.754C122.25 135.961 122.06 136.074 121.817 136.093C121.577 136.113 121.309 136.038 121.012 135.866C120.715 135.694 120.445 135.458 120.202 135.158C119.963 134.86 119.772 134.526 119.631 134.157C119.493 133.79 119.424 133.426 119.424 133.066C119.424 132.706 119.493 132.424 119.631 132.219C119.772 132.014 119.963 131.901 120.202 131.88C120.445 131.861 120.715 131.938 121.012 132.11ZM121.012 132.785C120.826 132.678 120.663 132.632 120.522 132.647C120.381 132.662 120.27 132.738 120.189 132.875C120.111 133.01 120.072 133.198 120.072 133.441C120.072 133.683 120.111 133.919 120.189 134.148C120.27 134.375 120.381 134.577 120.522 134.756C120.663 134.934 120.826 135.078 121.012 135.185C121.198 135.293 121.361 135.339 121.502 135.324C121.643 135.308 121.752 135.233 121.83 135.098C121.911 134.962 121.952 134.772 121.952 134.53C121.952 134.287 121.911 134.053 121.83 133.826C121.752 133.597 121.643 133.393 121.502 133.215C121.361 133.036 121.198 132.893 121.012 132.785ZM124.547 134.173C124.933 134.397 125.254 134.694 125.509 135.063C125.764 135.429 125.927 135.819 125.999 136.235L125.334 135.85C125.271 135.647 125.17 135.457 125.032 135.28C124.897 135.102 124.737 134.959 124.551 134.851C124.368 134.745 124.206 134.7 124.066 134.715C123.925 134.73 123.815 134.806 123.737 134.941C123.659 135.075 123.62 135.264 123.62 135.507C123.62 135.891 123.709 136.242 123.886 136.559C124.066 136.878 124.31 137.127 124.619 137.306C124.846 137.438 125.041 137.472 125.203 137.41C125.368 137.35 125.475 137.195 125.523 136.946L124.448 136.323L124.448 135.799L126.053 136.729L126.053 137.435C126.008 137.652 125.92 137.824 125.788 137.952C125.659 138.081 125.488 138.147 125.275 138.148C125.065 138.148 124.824 138.069 124.551 137.911C124.239 137.73 123.964 137.492 123.724 137.198C123.487 136.901 123.302 136.574 123.171 136.217C123.042 135.859 122.977 135.498 122.977 135.134C122.977 134.77 123.042 134.486 123.171 134.28C123.302 134.072 123.487 133.957 123.724 133.935C123.961 133.913 124.235 133.992 124.547 134.173ZM128.141 136.292L128.141 139.959L127.507 139.592L127.507 135.924L128.141 136.292ZM131.404 141.849L130.77 141.482L129.349 138.165L129.349 140.658L128.715 140.291L128.715 136.624L129.349 136.991L130.77 140.328L130.77 137.814L131.404 138.181L131.404 141.849Z"/><path fill="#ED6C68" d="M111.662 150.36C111.662 150.547 111.622 150.697 111.541 150.809C111.459 150.918 111.339 150.976 111.18 150.981C111.021 150.983 110.828 150.918 110.6 150.787C110.375 150.657 110.174 150.498 109.997 150.31C109.82 150.118 109.677 149.907 109.569 149.679C109.464 149.452 109.404 149.224 109.389 148.993L110.064 149.382C110.079 149.54 110.13 149.694 110.217 149.844C110.307 149.993 110.426 150.11 110.573 150.195C110.705 150.271 110.805 150.289 110.874 150.249C110.946 150.207 110.982 150.122 110.982 149.994C110.982 149.88 110.954 149.77 110.897 149.665C110.84 149.556 110.768 149.453 110.681 149.358C110.594 149.263 110.474 149.142 110.321 148.995C110.123 148.805 109.961 148.637 109.835 148.492C109.708 148.343 109.6 148.172 109.51 147.978C109.423 147.786 109.38 147.575 109.38 147.347C109.38 147.032 109.477 146.84 109.672 146.772C109.871 146.703 110.132 146.762 110.456 146.948C110.792 147.142 111.059 147.389 111.257 147.69C111.458 147.993 111.572 148.308 111.599 148.635L110.915 148.241C110.897 148.099 110.849 147.964 110.771 147.836C110.693 147.705 110.586 147.6 110.451 147.522C110.334 147.455 110.24 147.437 110.168 147.468C110.096 147.496 110.06 147.577 110.06 147.712C110.06 147.82 110.087 147.925 110.141 148.029C110.198 148.131 110.268 148.229 110.352 148.322C110.439 148.417 110.556 148.535 110.703 148.675C110.907 148.876 111.072 149.049 111.198 149.194C111.327 149.341 111.437 149.513 111.527 149.711C111.617 149.908 111.662 150.124 111.662 150.36ZM112.764 148.33L112.764 151.997L112.13 151.632L112.13 147.964L112.764 148.33ZM114.81 149.472C115.197 149.695 115.519 149.991 115.774 150.359C116.029 150.724 116.192 151.115 116.264 151.53L115.598 151.147C115.535 150.944 115.435 150.754 115.297 150.578C115.161 150.4 115.001 150.257 114.815 150.15C114.632 150.045 114.47 150 114.329 150.015C114.188 150.031 114.078 150.107 114 150.242C113.922 150.377 113.883 150.566 113.883 150.808C113.883 151.192 113.972 151.543 114.149 151.86C114.329 152.178 114.573 152.426 114.882 152.604C115.11 152.736 115.306 152.77 115.468 152.708C115.633 152.647 115.739 152.492 115.787 152.242L114.711 151.623L114.711 151.098L116.318 152.024L116.318 152.73C116.273 152.947 116.185 153.119 116.053 153.247C115.924 153.377 115.753 153.443 115.54 153.445C115.33 153.445 115.088 153.367 114.815 153.21C114.503 153.03 114.227 152.793 113.987 152.499C113.75 152.203 113.565 151.877 113.433 151.52C113.304 151.162 113.239 150.801 113.239 150.437C113.239 150.074 113.304 149.789 113.433 149.583C113.565 149.375 113.75 149.259 113.987 149.237C114.224 149.214 114.498 149.292 114.81 149.472ZM119.485 155.869L118.851 155.503L117.428 152.19L117.428 154.684L116.794 154.318L116.794 150.651L117.428 151.016L118.851 154.35L118.851 151.836L119.485 152.201L119.485 155.869ZM121.652 153.449L121.652 155.6C121.652 155.887 121.706 156.135 121.814 156.342C121.925 156.548 122.084 156.711 122.291 156.83C122.495 156.948 122.651 156.967 122.759 156.887C122.87 156.805 122.926 156.621 122.926 156.333L122.926 154.183L123.556 154.546L123.556 156.696C123.556 157.036 123.501 157.291 123.39 157.463C123.282 157.633 123.13 157.718 122.935 157.72C122.743 157.724 122.524 157.655 122.278 157.513C121.897 157.294 121.592 156.987 121.364 156.592C121.136 156.198 121.022 155.746 121.022 155.237L121.022 153.086L121.652 153.449ZM124.747 157.538L124.747 158.899L124.113 158.534L124.113 154.866L125.269 155.533C125.645 155.749 125.927 156.015 126.116 156.332C126.308 156.65 126.404 156.988 126.404 157.344C126.404 157.694 126.305 157.916 126.107 158.01C125.912 158.105 125.632 158.048 125.269 157.839L124.747 157.538ZM125.202 157.213C125.574 157.428 125.76 157.348 125.76 156.974C125.76 156.79 125.717 156.625 125.629 156.478C125.542 156.331 125.4 156.2 125.202 156.086L124.747 155.824L124.747 156.951L125.202 157.213Z"/><g filter="url(#filter12_b)"><ellipse fill="#ED6C68" rx="5.32" ry="5.381" transform="matrix(0.865326 0.50121 -2.19596e-08 1 97.2498 140.375)"/></g><ellipse fill="url(#paint15_linear)" rx="5.16" ry="5.172" transform="matrix(0.865326 0.50121 -2.19596e-08 1 96.7443 140.05)"/><path stroke="#fff" stroke-width=".742" d="M95.1494 138.782L96.5025 141.133L98.7577 139.827"/><path stroke="#EE786C" stroke-dasharray=".74 .74" stroke-width=".26" d="M77.0245 105.109L66.6355 99.1095C65.3987 98.3953 63.8525 99.2879 63.8525 100.716V127.612C63.8525 129.772 64.9585 131.783 66.7835 132.939L77.0245 139.43"/><path fill="#DF6461" d="M65.438 113.863C66.2029 115.188 66.2029 117.337 65.438 118.661C65.0839 119.275 64.6279 119.604 64.1644 119.65C63.6267 119.702 62.8783 119.809 62.4675 119.098C61.7026 117.773 61.5882 114.836 62.3531 113.512C63.1857 112.463 64.6732 112.539 65.438 113.863ZM63.1857 117.765C63.6647 118.595 64.4414 118.595 64.9205 117.765C65.3996 116.935 65.3996 115.59 64.9205 114.76C64.4414 113.93 63.6647 113.93 63.1857 114.76C62.7066 115.59 62.7066 116.935 63.1857 117.765Z"/><path fill="url(#paint16_linear)" d="M64.772 113.863C65.5369 115.188 65.5369 117.336 64.772 118.661C64.0071 119.986 62.767 119.986 62.0021 118.661C61.2372 117.336 61.2372 115.188 62.0021 113.863C62.767 112.538 64.0071 112.538 64.772 113.863Z"/><rect width="75.389" height=".307" fill="url(#paint17_linear)" transform="matrix(0.866328 -0.499476 0.866328 0.499476 143.96 158.446)"/><rect width="75.389" height=".307" fill="url(#paint18_linear)" transform="matrix(0.866328 -0.499476 0.866328 0.499476 198.423 119.965)"/><rect width="75.389" height=".307" fill="url(#paint19_linear)" transform="matrix(0.866328 -0.499476 0.866328 0.499476 191.383 125.515)"/><rect width="75.389" height=".307" fill="url(#paint20_linear)" transform="matrix(0.866328 -0.499476 0.866328 0.499476 181.01 211.357)"/><rect width="75.389" height=".307" fill="url(#paint21_linear)" transform="matrix(0.866328 -0.499476 0.866328 0.499476 143.219 239.847)"/><rect width="75.389" height=".307" fill="url(#paint22_linear)" transform="matrix(0.866328 -0.499476 0.866328 0.499476 92.0918 59.6548)"/><rect width="75.389" height=".307" fill="url(#paint23_linear)" transform="matrix(0.86665 -0.498917 0.86665 0.498917 38 96.6553)"/></g><defs><filter id="filter0_f" width="192.544" height="125.296" x="54.522" y="121.682" color-interpolation-filters="sRGB" filterUnits="userSpaceOnUse"><feFlood flood-opacity="0" result="BackgroundImageFix"/><feBlend in="SourceGraphic" in2="BackgroundImageFix" mode="normal" result="shape"/><feGaussianBlur result="effect1_foregroundBlur" stdDeviation="6.308"/></filter><filter id="filter1_b" width="116.292" height="150.851" x="138.547" y="24.074" color-interpolation-filters="sRGB" filterUnits="userSpaceOnUse"><feFlood flood-opacity="0" result="BackgroundImageFix"/><feGaussianBlur in="BackgroundImage" stdDeviation="2.226"/><feComposite in2="SourceAlpha" operator="in" result="effect1_backgroundBlur"/><feBlend in="SourceGraphic" in2="effect1_backgroundBlur" mode="normal" result="shape"/></filter><filter id="filter2_b" width="115.762" height="151.69" x="126.591" y="32.156" color-interpolation-filters="sRGB" filterUnits="userSpaceOnUse"><feFlood flood-opacity="0" result="BackgroundImageFix"/><feGaussianBlur in="BackgroundImage" stdDeviation="2.205"/><feComposite in2="SourceAlpha" operator="in" result="effect1_backgroundBlur"/><feBlend in="SourceGraphic" in2="effect1_backgroundBlur" mode="normal" result="shape"/></filter><filter id="filter3_f" width="107.742" height="109.255" x="130.629" y="51.454" color-interpolation-filters="sRGB" filterUnits="userSpaceOnUse"><feFlood flood-opacity="0" result="BackgroundImageFix"/><feBlend in="SourceGraphic" in2="BackgroundImageFix" mode="normal" result="shape"/><feGaussianBlur result="effect1_foregroundBlur" stdDeviation=".186"/></filter><filter id="filter4_f" width="2.547" height="10.684" x="199.424" y="111.995" color-interpolation-filters="sRGB" filterUnits="userSpaceOnUse"><feFlood flood-opacity="0" result="BackgroundImageFix"/><feBlend in="SourceGraphic" in2="BackgroundImageFix" mode="normal" result="shape"/><feGaussianBlur result="effect1_foregroundBlur" stdDeviation=".557"/></filter><filter id="filter5_f" width="2.547" height="8.038" x="161.642" y="96.971" color-interpolation-filters="sRGB" filterUnits="userSpaceOnUse"><feFlood flood-opacity="0" result="BackgroundImageFix"/><feBlend in="SourceGraphic" in2="BackgroundImageFix" mode="normal" result="shape"/><feGaussianBlur result="effect1_foregroundBlur" stdDeviation=".557"/></filter><filter id="filter6_f" width="6.16" height="7.893" x="176.243" y="86.227" color-interpolation-filters="sRGB" filterUnits="userSpaceOnUse"><feFlood flood-opacity="0" result="BackgroundImageFix"/><feBlend in="SourceGraphic" in2="BackgroundImageFix" mode="normal" result="shape"/><feGaussianBlur result="effect1_foregroundBlur" stdDeviation=".557"/></filter><filter id="filter7_f" width="5.082" height="5.08" x="179.723" y="116.73" color-interpolation-filters="sRGB" filterUnits="userSpaceOnUse"><feFlood flood-opacity="0" result="BackgroundImageFix"/><feBlend in="SourceGraphic" in2="BackgroundImageFix" mode="normal" result="shape"/><feGaussianBlur result="effect1_foregroundBlur" stdDeviation=".557"/></filter><filter id="filter8_d" width="35.376" height="42.967" x="164.806" y="89.722" color-interpolation-filters="sRGB" filterUnits="userSpaceOnUse"><feFlood flood-opacity="0" result="BackgroundImageFix"/><feColorMatrix in="SourceAlpha" type="matrix" values="0 0 0 0 0 0 0 0 0 0 0 0 0 0 0 0 0 0 127 0"/><feOffset dx=".742" dy="1.484"/><feGaussianBlur stdDeviation="2.597"/><feColorMatrix type="matrix" values="0 0 0 0 0.122917 0 0 0 0 0.251631 0 0 0 0 0.491667 0 0 0 0.39 0"/><feBlend in2="BackgroundImageFix" mode="normal" result="effect1_dropShadow"/><feBlend in="SourceGraphic" in2="effect1_dropShadow" mode="normal" result="shape"/></filter><filter id="filter9_b" width="108.129" height="142.688" x="117.629" y="47.156" color-interpolation-filters="sRGB" filterUnits="userSpaceOnUse"><feFlood flood-opacity="0" result="BackgroundImageFix"/><feGaussianBlur in="BackgroundImage" stdDeviation=".186"/><feComposite in2="SourceAlpha" operator="in" result="effect1_backgroundBlur"/><feBlend in="SourceGraphic" in2="effect1_backgroundBlur" mode="normal" result="shape"/></filter><filter id="filter10_b" width="108.129" height="142.688" x="97.629" y="59.156" color-interpolation-filters="sRGB" filterUnits="userSpaceOnUse"><feFlood flood-opacity="0" result="BackgroundImageFix"/><feGaussianBlur in="BackgroundImage" stdDeviation=".186"/><feComposite in2="SourceAlpha" operator="in" result="effect1_backgroundBlur"/><feBlend in="SourceGraphic" in2="effect1_backgroundBlur" mode="normal" result="shape"/></filter><filter id="filter11_f" width="112.831" height="88.915" x="67.215" y="113.754" color-interpolation-filters="sRGB" filterUnits="userSpaceOnUse"><feFlood flood-opacity="0" result="BackgroundImageFix"/><feBlend in="SourceGraphic" in2="BackgroundImageFix" mode="normal" result="shape"/><feGaussianBlur result="effect1_foregroundBlur" stdDeviation="13.335"/></filter><filter id="filter12_b" width="18.026" height="20.832" x="88.237" y="129.959" color-interpolation-filters="sRGB" filterUnits="userSpaceOnUse"><feFlood flood-opacity="0" result="BackgroundImageFix"/><feGaussianBlur in="BackgroundImage" stdDeviation="2.205"/><feComposite in2="SourceAlpha" operator="in" result="effect1_backgroundBlur"/><feBlend in="SourceGraphic" in2="effect1_backgroundBlur" mode="normal" result="shape"/></filter><linearGradient id="paint0_linear" x1="120.172" x2="115.224" y1="249.712" y2="258.283" gradientUnits="userSpaceOnUse"><stop stop-color="#F1F1F1"/><stop offset="1" stop-color="#FBFBFB"/></linearGradient><linearGradient id="paint1_linear" x1="156.38" x2="151.431" y1="243.16" y2="251.731" gradientUnits="userSpaceOnUse"><stop stop-color="#fff"/><stop offset="1" stop-color="#F1F1F1"/></linearGradient><linearGradient id="paint2_linear" x1="188.82" x2="118.694" y1="166.823" y2="162.026" gradientUnits="userSpaceOnUse"><stop stop-color="#EE786C"/><stop offset="1" stop-color="#EE786C"/></linearGradient><linearGradient id="paint3_linear" x1="109.915" x2="111.55" y1="182.891" y2="180.461" gradientUnits="userSpaceOnUse"><stop stop-color="#F48D89"/><stop offset="1" stop-color="#EE786C"/></linearGradient><linearGradient id="paint4_linear" x1="-8.233" x2="95.383" y1="7.858" y2="105.693" gradientUnits="userSpaceOnUse"><stop stop-color="#2081AE"/><stop offset=".979" stop-color="#9CDDFD"/></linearGradient><linearGradient id="paint5_linear" x1="140.133" x2="35.349" y1="-18.651" y2="-54.55" gradientUnits="userSpaceOnUse"><stop stop-color="#5487B1"/><stop offset="1" stop-color="#D0D7EF"/></linearGradient><linearGradient id="paint6_linear" x1="6.977" x2="104.786" y1="-18.905" y2="105.028" gradientUnits="userSpaceOnUse"><stop stop-color="#EE786C"/><stop offset="1" stop-color="#1F458A"/></linearGradient><linearGradient id="paint7_linear" x1="99.214" x2="116.621" y1="-17.667" y2="84.744" gradientUnits="userSpaceOnUse"><stop stop-color="#FAC8C3"/><stop offset="1" stop-color="#1F407D"/></linearGradient><radialGradient id="paint8_radial" cx="0" cy="0" r="1" gradientTransform="translate(186.706 96.3106) rotate(72.2295) scale(74.0925 83.8688)" gradientUnits="userSpaceOnUse"><stop offset=".497" stop-color="#fff"/><stop offset="1" stop-color="#fff" stop-opacity="0"/></radialGradient><linearGradient id="paint9_linear" x1="117.828" x2="53.645" y1="80.379" y2="3.976" gradientUnits="userSpaceOnUse"><stop stop-color="#fff" stop-opacity=".75"/><stop offset="1" stop-color="#C1C2C6" stop-opacity=".66"/></linearGradient><linearGradient id="paint10_linear" x1="117.828" x2="53.645" y1="80.379" y2="3.976" gradientUnits="userSpaceOnUse"><stop stop-color="#fff" stop-opacity=".75"/><stop offset="1" stop-color="#C1C2C6" stop-opacity=".66"/></linearGradient><linearGradient id="paint11_linear" x1="119.706" x2="120.252" y1="93.881" y2="226.951" gradientUnits="userSpaceOnUse"><stop stop-color="#fff"/><stop offset="1" stop-color="#F1F6FB"/></linearGradient><linearGradient id="paint12_linear" x1="13.458" x2="61.536" y1="25.625" y2="94.526" gradientUnits="userSpaceOnUse"><stop stop-color="#fff"/><stop offset="1" stop-color="#F5F5F5"/></linearGradient><linearGradient id="paint13_linear" x1="-117.061" x2="10.736" y1="4.704" y2="160.469" gradientUnits="userSpaceOnUse"><stop stop-color="#E2E2E2"/><stop offset="1" stop-color="#fff"/></linearGradient><linearGradient id="paint14_linear" x1="3.797" x2="14.001" y1="-3.674" y2="32.537" gradientUnits="userSpaceOnUse"><stop stop-color="#EE786C"/><stop offset="1" stop-color="#1F458A"/></linearGradient><linearGradient id="paint15_linear" x1=".274" x2="8.794" y1="2.537" y2="-1.206" gradientUnits="userSpaceOnUse"><stop stop-color="#F48D89"/><stop offset="1" stop-color="#EE786C"/></linearGradient><linearGradient id="paint16_linear" x1="61.37" x2="64.409" y1="117.311" y2="112.795" gradientUnits="userSpaceOnUse"><stop stop-color="#F48D89"/><stop offset="1" stop-color="#EE786C"/></linearGradient><linearGradient id="paint17_linear" x1="74.616" x2="37.748" y1="1.079" y2="-35.791" gradientUnits="userSpaceOnUse"><stop stop-color="#60C8D6" stop-opacity="0"/><stop offset=".398" stop-color="#5FC2CF" stop-opacity=".95"/><stop offset=".722" stop-color="#5EBCC9" stop-opacity="0"/></linearGradient><linearGradient id="paint18_linear" x1="74.616" x2="37.748" y1="1.079" y2="-35.791" gradientUnits="userSpaceOnUse"><stop stop-color="#60C8D6" stop-opacity="0"/><stop offset=".398" stop-color="#5FC2CF" stop-opacity=".95"/><stop offset=".722" stop-color="#5EBCC9" stop-opacity="0"/></linearGradient><linearGradient id="paint19_linear" x1="74.616" x2="37.748" y1="1.079" y2="-35.791" gradientUnits="userSpaceOnUse"><stop stop-color="#60C8D6" stop-opacity="0"/><stop offset=".398" stop-color="#5FC2CF" stop-opacity=".95"/><stop offset=".722" stop-color="#5EBCC9" stop-opacity="0"/></linearGradient><linearGradient id="paint20_linear" x1="74.616" x2="37.748" y1="1.079" y2="-35.791" gradientUnits="userSpaceOnUse"><stop stop-color="#60C8D6" stop-opacity="0"/><stop offset=".398" stop-color="#5FC2CF" stop-opacity=".95"/><stop offset=".722" stop-color="#5EBCC9" stop-opacity="0"/></linearGradient><linearGradient id="paint21_linear" x1="74.616" x2="37.748" y1="1.079" y2="-35.791" gradientUnits="userSpaceOnUse"><stop stop-color="#60C8D6" stop-opacity="0"/><stop offset=".398" stop-color="#5FC2CF" stop-opacity=".95"/><stop offset=".722" stop-color="#5EBCC9" stop-opacity="0"/></linearGradient><linearGradient id="paint22_linear" x1="74.616" x2="37.748" y1="1.079" y2="-35.791" gradientUnits="userSpaceOnUse"><stop stop-color="#60C8D6" stop-opacity="0"/><stop offset=".398" stop-color="#5FC2CF" stop-opacity=".95"/><stop offset=".722" stop-color="#5EBCC9" stop-opacity="0"/></linearGradient><linearGradient id="paint23_linear" x1="74.616" x2="37.748" y1="1.079" y2="-35.791" gradientUnits="userSpaceOnUse"><stop stop-color="#60C8D6" stop-opacity="0"/><stop offset=".398" stop-color="#5FC2CF" stop-opacity=".95"/><stop offset=".722" stop-color="#5EBCC9" stop-opacity="0"/></linearGradient></defs></svg>