<svg xmlns="http://www.w3.org/2000/svg" fill="none" preserveAspectRatio="xMinYMin slice" viewBox="0 0 1440 988"><mask id="valuesBg0" width="1440" height="988" x="0" y="0" mask-type="alpha" maskUnits="userSpaceOnUse"><rect width="1440" height="988" fill="#C4C4C4"/></mask><g mask="url(#valuesBg0)"><path fill="#FBFBFB" d="M-178.195 -64L-572.686 164.214L-178.195 392.427L214.829 164.801L-178.195 -64Z"/><path fill="#FBFBFB" d="M215.132 276.705L-176.191 511.38L-176.191 988.073L-176.191 761.952L1247.28 761.952L215.132 276.705Z"/><path fill="#F1F1F1" d="M215.521 277.164V165L-198.616 397.844V515L215.521 277.164Z"/><path fill="url(#valuesBgPaint0_linear)" d="M208.865 273.768L-185.625 501.982L-170.09 511.087L224.4 282.873L208.865 273.768Z"/><path fill="url(#valuesBgPaint1_linear)" d="M208.382 161.864L-187.095 390.634L-171.56 399.739L215.412 174.756L215.412 165.358L208.382 161.864Z"/><path stroke="url(#valuesBgPaint2_linear)" d="M608.846 807.499L104.854 494.092C97.8356 489.727 97.9571 479.471 105.077 475.274L226.778 403.536C233.822 399.384 234.035 389.27 227.171 384.826L143.001 330.328C139.87 328.301 137.98 324.825 137.98 321.095V215.417C137.98 211.619 136.021 208.09 132.798 206.081L-188.205 6"/><path stroke="url(#valuesBgPaint3_linear)" d="M286.511 807.5L184.831 746.103C177.87 741.9 177.718 731.857 184.55 727.446L296.94 654.875C303.703 650.508 303.638 640.593 296.818 636.315L69.1591 493.511C62.2112 489.153 62.3047 478.998 69.3316 474.768L190.555 401.802C197.406 397.678 197.707 387.853 191.12 383.318L126.622 338.907C123.641 336.854 121.86 333.467 121.86 329.847V229.66C121.86 225.856 119.894 222.322 116.662 220.315L-180.226 36"/><path stroke="url(#valuesBgPaint4_linear)" stroke-dasharray="5 5" d="M-98.8908 770.5L178.298 603.651C185.292 599.441 185.425 589.346 178.543 584.954L35.3183 493.545C28.4363 489.153 28.5687 479.059 35.5635 474.848L156.92 401.802C163.772 397.678 164.072 387.853 157.486 383.318L92.9872 338.907C90.0061 336.854 88.2256 333.467 88.2256 329.847V229.66C88.2256 225.856 86.2597 222.322 83.0274 220.315L-213.86 36"/><path stroke="url(#valuesBgPaint5_linear)" d="M1019.29 789L166.393 314.952C162.901 313.012 160.736 309.332 160.736 305.338V197.445C160.736 193.597 158.726 190.029 155.435 188.036L-197.179 -25.5"/><path fill="url(#valuesBgPaint6_linear)" fill-opacity=".11" d="M297.78 431L268.84 441L30.3372 550.5L190.504 665.727L280.815 610.227L388.596 567.5L334.703 501.5L396.574 463L297.78 431Z"/></g><defs><linearGradient id="valuesBgPaint0_linear" x1="11.569" x2="19.411" y1="387.904" y2="401.46" gradientUnits="userSpaceOnUse"><stop stop-color="#F1F1F1"/><stop offset="1" stop-color="#FBFBFB"/></linearGradient><linearGradient id="valuesBgPaint1_linear" x1="10.1" x2="17.941" y1="276.557" y2="290.112" gradientUnits="userSpaceOnUse"><stop stop-color="#FBFBFB"/><stop offset="1" stop-color="#F1F1F1"/></linearGradient><linearGradient id="valuesBgPaint2_linear" x1="-49.283" x2="672.931" y1="260.999" y2="855.523" gradientUnits="userSpaceOnUse"><stop stop-color="#EE786C"/><stop offset="1" stop-color="#EE786C" stop-opacity="0"/></linearGradient><linearGradient id="valuesBgPaint3_linear" x1="83.729" x2="232.864" y1="525" y2="762.22" gradientUnits="userSpaceOnUse"><stop stop-color="#EE786C"/><stop offset="1" stop-color="#EE786C" stop-opacity="0"/></linearGradient><linearGradient id="valuesBgPaint4_linear" x1="50.095" x2="-107.853" y1="525" y2="785.209" gradientUnits="userSpaceOnUse"><stop stop-color="#EE786C"/><stop offset="1" stop-color="#EE786C" stop-opacity="0"/></linearGradient><linearGradient id="valuesBgPaint5_linear" x1="-21.694" x2="767.243" y1="215.972" y2="1122.46" gradientUnits="userSpaceOnUse"><stop stop-color="#EE786C"/><stop offset="1" stop-color="#EE786C" stop-opacity="0"/></linearGradient><linearGradient id="valuesBgPaint6_linear" x1="392.084" x2="139.037" y1="464" y2="533.232" gradientUnits="userSpaceOnUse"><stop stop-color="#945252"/><stop offset="1" stop-color="#945252" stop-opacity="0"/></linearGradient></defs></svg>
