<svg xmlns="http://www.w3.org/2000/svg" fill="none" preserveAspectRatio="xMinYMin slice" viewBox="0 0 181 422"><path stroke="#EE786C" stroke-dasharray="5 5" d="M-215.5 -104.5L174.662 114.851C181.983 118.967 182.177 129.437 175.014 133.821L-268 405"/><path stroke="url(#canFindSecondaryPaint0_linear)" d="M-243 421L125.5 190.5"/><path fill="#DF6461" d="M131.45 193.448C128.578 195.105 123.922 195.105 121.05 193.448C119.72 192.68 119.006 191.692 118.908 190.687C118.793 189.521 118.562 187.899 120.104 187.009C122.976 185.351 129.341 185.103 132.213 186.761C134.486 188.565 134.322 191.79 131.45 193.448ZM122.993 188.565C121.194 189.604 121.194 191.287 122.993 192.326C124.792 193.364 127.708 193.364 129.507 192.326C131.305 191.287 131.305 189.604 129.507 188.565C127.708 187.527 124.792 187.527 122.993 188.565Z"/><path fill="url(#canFindSecondaryPaint1_linear)" d="M131.45 192.006C128.578 193.664 123.922 193.664 121.05 192.006C118.178 190.348 118.178 187.66 121.05 186.002C123.922 184.344 128.578 184.344 131.45 186.002C134.322 187.66 134.322 190.348 131.45 192.006Z"/><defs><linearGradient id="canFindSecondaryPaint0_linear" x1="-178.725" x2="-18.03" y1="389.877" y2="511.073" gradientUnits="userSpaceOnUse"><stop stop-color="#EE786C" stop-opacity="0"/><stop offset=".542" stop-color="#EE786C"/><stop offset="1" stop-color="#EE786C" stop-opacity="0"/></linearGradient><linearGradient id="canFindSecondaryPaint1_linear" x1="123.976" x2="133.765" y1="184.632" y2="191.22" gradientUnits="userSpaceOnUse"><stop stop-color="#F48D89"/><stop offset="1" stop-color="#EE786C"/></linearGradient></defs></svg>