<svg xmlns="http://www.w3.org/2000/svg" width="12" height="4" fill="none" viewBox="0 0 12 4"><path fill="#6E7799" d="M2.12 3.12C1.77333 3.12 1.48 3 1.24 2.76C1 2.52 0.88 2.22667 0.88 1.88C0.88 1.53333 1 1.24 1.24 1C1.48 0.76 1.77333 0.64 2.12 0.64C2.45333 0.64 2.73333 0.76 2.96 1C3.2 1.24 3.32 1.53333 3.32 1.88C3.32 2.22667 3.2 2.52 2.96 2.76C2.73333 3 2.45333 3.12 2.12 3.12ZM6.31922 3.12C5.97255 3.12 5.67922 3 5.43922 2.76C5.19922 2.52 5.07922 2.22667 5.07922 1.88C5.07922 1.53333 5.19922 1.24 5.43922 1C5.67922 0.76 5.97255 0.64 6.31922 0.64C6.65255 0.64 6.93255 0.76 7.15922 1C7.39922 1.24 7.51922 1.53333 7.51922 1.88C7.51922 2.22667 7.39922 2.52 7.15922 2.76C6.93255 3 6.65255 3.12 6.31922 3.12ZM10.5184 3.12C10.1718 3.12 9.87844 3 9.63844 2.76C9.39844 2.52 9.27844 2.22667 9.27844 1.88C9.27844 1.53333 9.39844 1.24 9.63844 1C9.87844 0.76 10.1718 0.64 10.5184 0.64C10.8518 0.64 11.1318 0.76 11.3584 1C11.5984 1.24 11.7184 1.53333 11.7184 1.88C11.7184 2.22667 11.5984 2.52 11.3584 2.76C11.1318 3 10.8518 3.12 10.5184 3.12Z"/></svg>