<svg width="84" height="21" viewBox="0 0 84 21" fill="none" xmlns="http://www.w3.org/2000/svg">
  <path d="M10.46 2H13.24V16.7L3.32 7.36V16H0.52V1.3L10.46 10.64V2ZM24.8222 6.8L18.8222 20.4H16.1422L18.4622 15.08L14.6222 6.8H17.5222L19.8222 12.5L22.1022 6.8H24.8222ZM39.5441 10.12V16H36.9441V10.4C36.9441 9.14667 36.4974 8.52 35.6041 8.52C35.1241 8.52 34.7374 8.68 34.4441 9C34.1507 9.32 34.0041 9.78667 34.0041 10.4V16H31.3841V10.4C31.3841 9.14667 30.9441 8.52 30.0641 8.52C29.5841 8.52 29.1974 8.68 28.9041 9C28.6107 9.32 28.4641 9.78667 28.4641 10.4V16H25.9441V6.8H28.4641V8.16C28.7307 7.65333 29.0774 7.26667 29.5041 7C29.9441 6.73333 30.4707 6.6 31.0841 6.6C32.4841 6.6 33.3707 7.12 33.7441 8.16C34.4107 7.12 35.3707 6.6 36.6241 6.6C37.6507 6.6 38.3907 6.90667 38.8441 7.52C39.3107 8.13333 39.5441 9 39.5441 10.12ZM44.6564 9C44.6564 9.92 44.8631 10.72 45.2764 11.4C45.6897 12.08 46.2364 12.6067 46.9164 12.98C47.5964 13.34 48.3364 13.52 49.1364 13.52C50.1231 13.52 50.9631 13.3333 51.6564 12.96C52.3631 12.5867 52.9497 12.1333 53.4164 11.6V14.84C52.8431 15.2933 52.2231 15.6467 51.5564 15.9C50.8897 16.1533 50.0431 16.28 49.0164 16.28C47.9364 16.28 46.9364 16.1067 46.0164 15.76C45.1097 15.4 44.3231 14.9 43.6564 14.26C42.9897 13.62 42.4697 12.8533 42.0964 11.96C41.7231 11.0667 41.5364 10.08 41.5364 9C41.5364 7.92 41.7231 6.93333 42.0964 6.04C42.4697 5.14667 42.9897 4.38 43.6564 3.74C44.3231 3.1 45.1097 2.60667 46.0164 2.26C46.9364 1.9 47.9364 1.72 49.0164 1.72C50.0431 1.72 50.8897 1.84667 51.5564 2.1C52.2231 2.34 52.8431 2.69333 53.4164 3.16V6.4C52.9497 5.85333 52.3631 5.4 51.6564 5.04C50.9631 4.66667 50.1231 4.48 49.1364 4.48C48.3364 4.48 47.5964 4.66667 46.9164 5.04C46.2364 5.4 45.6897 5.92 45.2764 6.6C44.8631 7.26667 44.6564 8.06667 44.6564 9ZM56.8427 9.4L55.8827 7.64C56.3627 7.38667 56.9493 7.14667 57.6427 6.92C58.336 6.68 59.1093 6.56 59.9627 6.56C60.7493 6.56 61.4493 6.67333 62.0627 6.9C62.676 7.12667 63.156 7.46 63.5027 7.9C63.8627 8.32667 64.0427 8.85333 64.0427 9.48V16H61.5227V14.74C61.2427 15.22 60.816 15.5867 60.2427 15.84C59.6827 16.08 59.096 16.2 58.4827 16.2C57.896 16.2 57.356 16.0867 56.8627 15.86C56.3693 15.6333 55.976 15.3067 55.6827 14.88C55.3893 14.44 55.2427 13.9067 55.2427 13.28C55.2427 12.4 55.556 11.7 56.1827 11.18C56.8093 10.6467 57.696 10.38 58.8427 10.38C59.4293 10.38 59.9427 10.44 60.3827 10.56C60.836 10.68 61.216 10.82 61.5227 10.98V10.04C61.5227 9.53333 61.356 9.16667 61.0227 8.94C60.7027 8.71333 60.256 8.6 59.6827 8.6C59.0427 8.6 58.456 8.7 57.9227 8.9C57.3893 9.1 57.0293 9.26667 56.8427 9.4ZM57.8627 13.12C57.8627 13.5333 58.0027 13.8533 58.2827 14.08C58.5627 14.2933 58.9227 14.4 59.3627 14.4C59.9493 14.4 60.456 14.2267 60.8827 13.88C61.3093 13.52 61.5227 13 61.5227 12.32C60.9227 12.0533 60.2693 11.92 59.5627 11.92C58.9627 11.92 58.5293 12.0267 58.2627 12.24C57.996 12.44 57.8627 12.7333 57.8627 13.12ZM71.6923 9.52C71.519 9.36 71.339 9.24 71.1523 9.16C70.979 9.06667 70.759 9.02 70.4923 9.02C69.999 9.02 69.6257 9.20667 69.3723 9.58C69.119 9.95333 68.9923 10.4733 68.9923 11.14V16H66.4323V6.8H68.9923V7.94C69.2723 7.52667 69.6057 7.2 69.9923 6.96C70.379 6.72 70.779 6.6 71.1923 6.6C71.5257 6.6 71.8457 6.66 72.1523 6.78C72.459 6.9 72.699 7.08 72.8723 7.32L71.6923 9.52ZM73.6053 11.4C73.6053 10.3733 73.812 9.50667 74.2253 8.8C74.6386 8.08 75.1786 7.53333 75.8453 7.16C76.5253 6.78667 77.252 6.6 78.0253 6.6C79.3986 6.6 80.452 7.17333 81.1853 8.32V0.399999H83.7853V16H81.1853V14.48C80.452 15.6267 79.3986 16.2 78.0253 16.2C77.252 16.2 76.5253 16.0133 75.8453 15.64C75.1786 15.2667 74.6386 14.72 74.2253 14C73.812 13.28 73.6053 12.4133 73.6053 11.4ZM76.3053 11.4C76.3053 12.2133 76.5453 12.86 77.0253 13.34C77.5186 13.8067 78.1053 14.04 78.7853 14.04C79.1586 14.04 79.5253 13.94 79.8853 13.74C80.2586 13.5267 80.5653 13.2267 80.8053 12.84C81.0586 12.44 81.1853 11.96 81.1853 11.4C81.1853 10.84 81.0586 10.3667 80.8053 9.98C80.5653 9.58 80.2586 9.28 79.8853 9.08C79.5253 8.86667 79.1586 8.76 78.7853 8.76C78.1053 8.76 77.5186 8.99333 77.0253 9.46C76.5453 9.92667 76.3053 10.5733 76.3053 11.4Z" fill="white"/>
</svg>
