<svg xmlns="http://www.w3.org/2000/svg" width="32" height="32" fill="none" viewBox="0 0 32 32"><path fill="#2D365C" fill-rule="evenodd" d="M16 32C7.16344 32 0 24.8366 0 16C0 7.16344 7.16344 0 16 0C24.8366 0 32 7.16344 32 16C32 24.8366 24.8366 32 16 32Z" clip-rule="evenodd"/><path fill="#fff" d="M24.5004 22.5V16.6003C24.5004 13.7033 23.8756 11.4761 20.4929 11.4761C18.8669 11.4761 17.7759 12.3681 17.3297 13.2137H17.2842V11.7441H14.0772V22.5H17.419V17.1797C17.419 15.776 17.6845 14.4174 19.424 14.4174C21.1369 14.4174 21.1615 16.0218 21.1615 17.2694V22.5H24.5004ZM10.3089 10.2736C11.3773 10.2736 12.2459 9.40505 12.2459 8.33488C12.2459 7.26596 11.3773 6.39697 10.3089 6.39697C9.23712 6.39697 8.37109 7.26596 8.37109 8.33488C8.37109 9.40505 9.23712 10.2736 10.3089 10.2736ZM8.63653 22.4996H11.9808V11.7441H8.63653V22.4996Z"/></svg>