<svg width="38" height="38" viewBox="0 0 38 38" fill="none" xmlns="http://www.w3.org/2000/svg">
  <path fill-rule="evenodd" clip-rule="evenodd" d="M19 38C8.50659 38 0 29.4934 0 19C0 8.50659 8.50659 0 19 0C29.4934 0 38 8.50659 38 19C38 29.4934 29.4934 38 19 38Z" fill="#2D365C"/>
  <path d="M29.0942 26.7186V19.7127C29.0942 16.2724 28.3523 13.6277 24.3353 13.6277C22.4044 13.6277 21.1089 14.6869 20.5791 15.691H20.525V13.9459H16.7167V26.7186H20.6851V20.4006C20.6851 18.7338 21.0003 17.1205 23.066 17.1205C25.1001 17.1205 25.1293 19.0257 25.1293 20.5072V26.7186H29.0942ZM12.2418 12.1997C13.5106 12.1997 14.542 11.1683 14.542 9.89746C14.542 8.62812 13.5106 7.59619 12.2418 7.59619C10.9691 7.59619 9.94067 8.62812 9.94067 9.89746C9.94067 11.1683 10.9691 12.1997 12.2418 12.1997ZM10.2559 26.7181H14.2272V13.9459H10.2559V26.7181Z" fill="white"/>
</svg>
