<svg width="68" height="68" viewBox="0 0 68 68" fill="none" xmlns="http://www.w3.org/2000/svg">
<path d="M34 0C15.2 0 0 15.2 0 34C0 52.8 15.2 68 34 68C52.8 68 68 52.8 68 34C68 15.2 52.8 0 34 0ZM34 2C51.7 2 66 16.3 66 34C66 51.7 51.7 66 34 66C16.3 66 2 51.7 2 34C2 16.3 16.3 2 34 2Z" fill="white"/>
<path d="M30 24.8999C28.3 24.8999 27 26.1999 27 27.8999V41.0999C27 41.6999 27.2 42.2999 27.6 42.8999C28.6 44.1999 30.4 44.4999 31.8 43.5999L42.1 36.1999C43.4 35.2999 43.4 33.7999 42.1 32.8999L31.8 25.5999C31.3 25.2999 30.8 25.0999 30.3 25.0999L30 24.8999Z" fill="white"/>
</svg>
