<svg width="32" height="33" viewBox="0 0 32 33" fill="none" xmlns="http://www.w3.org/2000/svg">
  <rect width="14.3782" height="14.3782" transform="matrix(0.866725 0.498786 -0.866725 0.498786 12.4629 0)" fill="#3873AF"/>
  <rect width="14.3442" height="14.3782" transform="matrix(1.19625e-08 -1 0.866669 0.498883 0 21.5146)" fill="#EE786C"/>
  <path fill-rule="evenodd" clip-rule="evenodd" d="M9.13346 19.7737C9.13346 22.0088 7.5643 22.9148 5.62865 21.7972C3.69299 20.6797 2.12384 17.9618 2.12384 15.7267C2.12384 13.4916 3.69299 12.5856 5.62865 13.7032C7.5643 14.8207 9.13346 17.5386 9.13346 19.7737ZM9.99948 20.2737C9.99948 23.0611 8.04259 24.1909 5.62865 22.7972C3.2147 21.4035 1.25781 18.0141 1.25781 15.2267C1.25781 12.4393 3.2147 11.3095 5.62865 12.7032C8.04259 14.0969 9.99948 17.4863 9.99948 20.2737ZM7.51296 16.8903L5.51023 18.0466L4.37712 16.084L3.90164 16.3585L5.51023 19.1447L7.98844 17.7139L7.51296 16.8903Z" fill="white"/>
  <rect width="14.3612" height="14.3612" transform="matrix(0.867713 -0.499441 -3.76183e-05 0.998816 12.4609 14.3433)" fill="#60C8D6"/>
</svg>
