<svg width="16" height="16" viewBox="0 0 16 16" fill="none" xmlns="http://www.w3.org/2000/svg">
<path fill-rule="evenodd" clip-rule="evenodd" d="M11.4086 8.58743C11.8732 8.12279 11.8732 7.39814 11.4086 6.93351L11.3998 6.9251C10.9424 6.50282 10.1972 6.49098 9.75467 6.93351L5.07048 11.6177C4.89636 11.7918 4.55642 11.7918 4.3823 11.6177C4.27575 11.5112 4.23174 11.4007 4.23174 11.2736C4.23174 11.1465 4.27575 11.0361 4.3823 10.9295L9.06649 6.24533C9.46363 5.84819 9.99915 5.61571 10.5816 5.61571C11.1634 5.61571 11.6982 5.84759 12.0952 6.24378C12.8899 7.06347 12.9322 8.3414 12.1967 9.17567L6.48106 14.8913C5.76675 15.6056 4.80627 16 3.79487 16C2.78347 16 1.823 15.6056 1.10868 14.8913C0.394371 14.177 0 13.2165 0 12.2051C0 11.1937 0.394371 10.2333 1.10868 9.51894L9.51894 1.10868C10.2333 0.394371 11.1937 0 12.2051 0C13.2165 0 14.177 0.394371 14.8913 1.10868C15.6056 1.823 16 2.78347 16 3.79487C16 4.80627 15.6056 5.76675 14.8913 6.48106C14.7848 6.58761 14.6743 6.63161 14.5472 6.63161C14.4201 6.63161 14.3097 6.58761 14.2031 6.48106C14.0966 6.37451 14.0526 6.26405 14.0526 6.13697C14.0526 5.99279 14.1073 5.87436 14.1828 5.81144L14.1934 5.80262L14.2031 5.79288C15.3065 4.68949 15.3065 2.90025 14.2031 1.79687C13.668 1.26172 12.9523 0.962675 12.2051 0.962675C11.4579 0.962675 10.7423 1.26172 10.2071 1.79687L1.79687 10.2071C1.26172 10.7423 0.962675 11.4579 0.962675 12.2051C0.962675 12.9523 1.26172 13.668 1.79687 14.2031C2.33201 14.7383 3.04768 15.0373 3.79487 15.0373C4.54207 15.0373 5.25773 14.7383 5.79288 14.2031L11.4086 8.58743Z" fill="white"/>
</svg>
