<svg width="40" height="13" viewBox="0 0 40 13" fill="none" xmlns="http://www.w3.org/2000/svg">
<g clip-path="url(#clip0)">
<path fill-rule="evenodd" clip-rule="evenodd" d="M29.0796 0.535766C28.4405 0.281139 27.4268 0 26.1733 0C22.9735 0 20.7201 1.71352 20.7063 4.16335C20.6797 5.97082 22.3196 6.97474 23.5461 7.5774C24.7998 8.19324 25.2259 8.5952 25.2259 9.14413C25.2132 9.98719 24.2129 10.3758 23.28 10.3758C21.9863 10.3758 21.2932 10.1754 20.2398 9.70641L19.8131 9.50534L19.3597 12.3303C20.1196 12.6779 21.5198 12.9865 22.9735 13C26.3734 13 28.5869 11.313 28.6131 8.70232C28.626 7.26975 27.7601 6.17207 25.8932 5.27509C24.7599 4.69929 24.0658 4.31103 24.0658 3.72189C24.0791 3.1863 24.6529 2.63772 25.9322 2.63772C26.9856 2.61085 27.7596 2.86513 28.3459 3.11957L28.639 3.2532L29.0796 0.535766ZM17.3333 12.8124H14.093L16.1197 0.228048H19.3598L17.3333 12.8124ZM34.6799 4.83321C34.6799 4.83321 33.6531 7.63125 33.3862 8.35421H36.0795C35.9463 7.72503 35.3326 4.71275 35.3326 4.71275L35.1062 3.6284C35.0109 3.90735 34.8732 4.29076 34.7802 4.54967L34.78 4.55029C34.7169 4.7259 34.6744 4.84407 34.6799 4.83321ZM34.8796 0.228048H37.3859L40 12.8122H36.9998C36.9998 12.8122 36.7062 11.3663 36.6132 10.9245H32.4529C32.3326 11.259 31.7729 12.8122 31.7729 12.8122H28.373L33.186 1.27218C33.5195 0.45545 34.1067 0.228048 34.8796 0.228048ZM11.3866 0.228048L8.21331 8.80937L7.86655 7.06897C7.86644 7.06858 7.86632 7.06819 7.86621 7.0678L6.73323 1.28588C6.54665 0.48214 5.97326 0.25456 5.26663 0.228048H0.0533341L0 0.482318C1.27151 0.808835 2.40875 1.27934 3.40522 1.86437L6.29328 12.799H9.71979L14.8129 0.228048H11.3866Z" fill="url(#paint0_linear)"/>
</g>
<defs>
<linearGradient id="paint0_linear" x1="6.45927" y1="4.47211" x2="23.7702" y2="20.2293" gradientUnits="userSpaceOnUse">
<stop stop-color="#222357"/>
<stop offset="1" stop-color="#254AA5"/>
</linearGradient>
<clipPath id="clip0">
<rect width="40" height="13" fill="white"/>
</clipPath>
</defs>
</svg>
